<svg id="Grupo_1025444" data-name="Grupo 1025444" xmlns="http://www.w3.org/2000/svg" xmlns:xlink="http://www.w3.org/1999/xlink" width="137.067" height="137.069" viewBox="0 0 137.067 137.069">
  <defs>
    <clipPath id="clip-path">
      <rect id="Rectángulo_361312" data-name="Rectángulo 361312" width="137.067" height="137.069" fill="none"/>
    </clipPath>
  </defs>
  <g id="Grupo_1025443" data-name="Grupo 1025443" clip-path="url(#clip-path)">
    <path id="Trazado_765278" data-name="Trazado 765278" d="M322.188,120.605c.552.21.594.809.911,1.2-.061.2.063.267.229.3a35.246,35.246,0,0,1,.549,4.074c.079,3.467,0,6.938.041,10.406.01.949-.422,1.818-.325,2.784.055.548.191.714.74.72,1.833.022,3.66.057,5.5.211a14.521,14.521,0,0,1,6.865,2.626c.061.151.121.3.336.235a14.279,14.279,0,0,1,4.288,6.113c.262.656.26.656.854.509v.571c-.338-.452-.545-.256-.543.167a1.16,1.16,0,0,0,.543.975v1.427q-.441.286,0,.571v21.126c-1.033.209-.768,1.242-1.027,1.846-1.806,4.207-5.079,6.358-9.455,6.96-.86.118-.952.37-.95,1.089q.03,12.345-.009,24.69a2.175,2.175,0,0,0,.764,1.705c1.766,1.731,3.5,3.5,5.252,5.239,1.356,1.343,1.012,2.982.612,4.49-.38,1.434-1.664,1.674-3.047,1.671-13.082-.025-26.165-.054-39.246.017-2.641.014-3.022-1.254-3.215-3.185-.286-2.862,1.824-4.018,3.319-5.653.927-1.014,1.948-1.943,2.919-2.917a2.505,2.505,0,0,0,.7-1.9q-.028-12.06,0-24.119c0-.663.064-1.146-.917-1.113-4.463.148-9.12-4.131-10.228-8.406a10.29,10.29,0,0,1-.287-2.632c.013-6.47-.051-12.94.022-19.409a13.269,13.269,0,0,1,9.94-12.367c2.778-.718,5.6-.492,8.314-.561,0-4.09-.061-8.143.022-12.194a7.934,7.934,0,0,1,3.429-6.364,8.137,8.137,0,0,1,4.633-1.875c2.731-.083,5.532-.658,8.138.739.059.151.121.3.332.238M306.2,149.855c1.153-1.132,2.315-2.256,3.455-3.4.217-.218.777-.471.215-.844s-1.007-1-1.8-.971c-3.073.124-6.162-.286-9.221.294a8.462,8.462,0,0,0-6.83,7.239c-.34,4.779-.072,9.6-.111,14.4-.006.8.305.935,1,.918,1.616-.041,3.235-.055,4.85,0,.807.03,1.051-.209,1.039-1.028-.046-3.138-.019-6.277-.019-9.415,0-3.307,0-3.268,3.317-3.3.967-.01,1.3.2,1.277,1.231-.066,3.8,0,7.609-.048,11.412-.012.886.233,1.109,1.11,1.1q10.343-.055,20.686,0c.918.005,1.1-.287,1.083-1.13-.047-3.09-.019-6.182-.019-9.273,0-3.377,0-3.339,3.414-3.347.939,0,1.188.259,1.175,1.186-.052,3.708.039,7.42-.055,11.126-.032,1.242.359,1.522,1.506,1.44a35.849,35.849,0,0,1,4.277-.006c.858.041,1.136-.181,1.124-1.09-.052-4.184.069-8.372-.05-12.554a8.984,8.984,0,0,0-5.585-8.41c-2.092-.966-4.318-.8-6.524-.8-1.427,0-2.854-.026-4.28.009a2.256,2.256,0,0,0-1.934,1.181c-.235.458.57.835.934,1.213.924.958,1.9,1.869,2.921,2.869-.9.88-1.77,1.679-2.575,2.54-.461.493-.786.548-1.247.012-.63-.731-1.322-1.409-2.238-2.375v9.406c0,3.483,0,3.435-3.465,3.445-1.028,0-1.128-.4-1.119-1.241.038-3.423.022-6.848.005-10.271,0-.342.185-.756-.24-1.065-1.229.573-1.821,2.621-3.043,2.328-1.135-.272-1.969-1.8-2.99-2.834m-2.852,40.528c0,5.657.026,11.315-.024,16.973-.009,1.015.282,1.288,1.274,1.254,2.137-.074,4.281-.093,6.416.005,1.172.054,1.509-.257,1.5-1.467-.058-8.035-.03-16.069-.029-24.1a21.282,21.282,0,0,1,.026-2.138,2.094,2.094,0,0,1,3.1-1.735c1.217.561,1.451,1.592,1.449,2.8-.014,8.415.017,16.83-.036,25.245-.007,1.149.327,1.436,1.425,1.394,2.184-.083,4.374-.067,6.56,0,.92.026,1.2-.23,1.2-1.179q-.048-17.115,0-34.231c0-.96-.3-1.175-1.206-1.171-6.8.035-13.6.051-20.4-.012-1.163-.011-1.284.419-1.277,1.4.04,5.657.02,11.315.02,16.973M310.2,136.3c0,.57,0,1.14,0,1.71a4.443,4.443,0,0,0,8.331,2.158c1.232-2.089.715-4.382.764-6.6.012-.569-.586-.333-.912-.338-1.709-.023-3.419-.011-5.129-.011-3.058,0-3.058,0-3.054,3.083m-12.873,81.09.214.33h11.51c3.518,0,3.492,0,3.449-3.554-.009-.782-.184-1.047-1.009-1.033-2.988.05-5.977.023-8.966.016a1.462,1.462,0,0,0-1.148.382c-1.333,1.3-2.7,2.576-4.051,3.86m34.5.329c-3.508-4.447-3.747-4.567-8.976-4.567h-2.283c-3.757,0-3.757,0-3.525,3.761a.788.788,0,0,1,0,.143c-.054.472.114.674.629.673,4.687-.015,9.375-.009,14.154-.009m-17.2-89.071c1.284,0,2.569-.017,3.854,0,1.416.024.931-1.139.79-1.622-.285-.977,1.1-2.561-.787-2.9a19.157,19.157,0,0,0-4.13-.031,4.933,4.933,0,0,0-4.075,3.236c-.21.746-.239,1.414.924,1.332,1.136-.08,2.282-.017,3.424-.018m-19.164,43.394c-.854,0-1.714.062-2.561-.017s-.991.282-.98,1.043c.034,2.424,3.5,5.882,5.887,5.833.634-.013.983-.223.971-.9-.016-.9,0-1.8,0-2.7,0-3.25,0-3.25-3.314-3.25m38.822,0c-.855,0-1.712.039-2.564-.012-.7-.041-1.02.1-.99.91.064,1.708.059,3.421,0,5.129-.025.737.252.888.9.831,2.2-.191,5.213-2.819,5.67-4.969.4-1.889.4-1.889-1.592-1.889h-1.425" transform="translate(-205.108 -85.258)"/>
    <path id="Trazado_765279" data-name="Trazado 765279" d="M129.85,0A4.113,4.113,0,0,1,131.3,3.651c-.1,2.278.007,4.565-.045,6.847-.017.764.223.95.956.938,2.52-.043,5.043-.074,7.561,0A13.166,13.166,0,0,1,147.519,14c.046.157.112.285.314.228a12.033,12.033,0,0,1,3.561,6.041,26.686,26.686,0,0,1,.373,4.276c.191,3.792.073,7.6.062,11.4-.005,1.873-.994,2.8-2.853,2.9-1.525.081-3.079-.346-4.575.244-.156.043-.289.1-.217.307a6.608,6.608,0,0,1-6.715,4,6.159,6.159,0,0,1-5.265-3.342,2.137,2.137,0,0,0-2.186-1.234q-9.34.032-18.68,0a1.428,1.428,0,0,0-1.5.849c-2.187,3.822-6.685,5.156-10.539,2.154a4.317,4.317,0,0,1-1.41-1.9c-.365-1.005-1.037-1.135-1.961-1.108-1.852.054-3.707.029-5.561.011C88.71,38.8,87.9,38.062,87.9,36.445c-.016-11.36,0-22.721-.019-34.081A2.73,2.73,0,0,1,89.312,0ZM109.583,22.838c5.323,0,10.647-.023,15.97.021.928.008,1.187-.239,1.179-1.175q-.068-7.984,0-15.969c.008-.944-.265-1.171-1.184-1.169q-15.97.048-31.939,0c-.928,0-1.187.238-1.179,1.174q.068,7.984,0,15.969c-.008.944.264,1.177,1.184,1.169,5.323-.043,10.646-.021,15.969-.021m21.695,11.246.333.1a6.316,6.316,0,0,1,4.17-4.081c3.1-.812,6.742-.162,8.327,3.481.571,1.312,1.752.578,2.634.625.965.052.474-.862.5-1.315.072-1.471.027-2.948.027-4.422,0-3.35,0-3.35-3.392-3.35-3.58,0-3.55,0-3.482-3.568.016-.826.269-1.04,1.055-1.016,1.729.052,3.46.016,5.335.016a6.176,6.176,0,0,0-4.738-4.253c-3.227-.611-6.517-.22-9.777-.331-.85-.029-1.016.292-1,1.061.04,2.711.016,5.422.016,8.134v8.919m-21.7-6.678H95.883c-3.431,0-3.431,0-3.431,3.448,0,3.411,0,3.387,3.475,3.421.93.009,1.6-.112,1.979-1.116a4.583,4.583,0,0,1,1.238-1.682c3.256-2.9,9.2-1.911,10.78,2.1a.984.984,0,0,0,1.047.7q7.418-.054,14.836,0c.807.006.933-.311.915-1-.04-1.568-.067-3.141.008-4.706.045-.932-.237-1.191-1.175-1.183-5.325.045-10.652.022-15.977.022m26.271,9.278a1.875,1.875,0,0,0,1.97,2.125,2.635,2.635,0,0,0,2.587-2.258,2.7,2.7,0,0,0-2.419-2.293,2.178,2.178,0,0,0-2.138,2.426m-32.092,2.134a2.679,2.679,0,0,0,2.391-2.314,2.7,2.7,0,0,0-2.458-2.244,2.284,2.284,0,0,0,.067,4.558" transform="translate(-62.727)"/>
    <path id="Trazado_765280" data-name="Trazado 765280" d="M477.579,227.931a1.16,1.16,0,0,1-.543-.975c0-.422.2-.619.543-.167Z" transform="translate(-340.512 -161.7)" fill="#fff"/>
    <path id="Trazado_765281" data-name="Trazado 765281" d="M478.382,236.982q-.442-.285,0-.571Z" transform="translate(-341.315 -168.752)" fill="#020202"/>
    <path id="Trazado_765282" data-name="Trazado 765282" d="M24.863,250.369c.292-.6.992-.682,1.4-1.127l.313-.213,1.418-.95c.869.7.834.02.861-.564.276-.6.978-.668,1.381-1.11l.336-.231,1.418-.95c.866.7.836.029.857-.562l-.007.01a8.454,8.454,0,0,1,3.492,1.159l.47.832c.284-.013.568-.038.58-.416.01-.294-.213-.367-.444-.42a7.572,7.572,0,0,1,.435-2.875c.284-.013.567-.038.58-.416.01-.294-.213-.368-.444-.421a5.976,5.976,0,0,1,.435-2.875c.284-.013.567-.038.58-.416.01-.294-.213-.367-.444-.42a5.838,5.838,0,0,1,.435-2.875c.209-.021.485.021.489-.278,0-.089-.241-.181-.372-.272.454-2.674-.687-5.094-1.163-7.624-.112-.594-.708-.893-.631-1.5.562-.764.39-1.155-.579-1.14l-1.972-1.771q0-.261,0-.522c.07-1.35-.9-1.124-1.72-1.139a7.92,7.92,0,0,1-2.02-3.416c.414-.673.7-1.3-.483-1.44a12.473,12.473,0,0,1,.115-6.864c.387-1.306,1.038-2.531,1.468-3.827.348-1.047.872-1.272,1.824-.738a9.121,9.121,0,0,0,1.386.515c1.434.362,1.444,1.239.851,2.341-.152.282-.293.571-.417.865-1.149,2.734-1.53,5.487-.184,8.278-.2.06-.515.062-.374.375.127.282.458.169.71.19.279.084.256.326.283.541.118.262-.334,1.087.569.577l.589.589c-.511.9.311.452.574.57a10.854,10.854,0,0,1,4.567,7.423,2.45,2.45,0,0,0,.778,2.867,2.054,2.054,0,0,0,2.318-.033c.352,1.174.782.226,1.033-.017,1.673-1.619,3.3-3.288,4.96-4.919.418-.41.676-.791.286-1.343a5.111,5.111,0,0,0-.139-6.578,1.615,1.615,0,0,1-.167-.514.751.751,0,0,0,.1-1.172c-.2-.27-.453-.238-.647.051a1.547,1.547,0,0,1-.491-1.462c.181-.032.42-.082.378-.294-.074-.38-.432-.232-.681-.277-.181-2.323-.131-4.6,1.371-6.569a3.918,3.918,0,0,0,2.3-2.59,2.6,2.6,0,0,1,.243.131c.908.619,2.222,1.055,2.61,1.911.423.934-.694,1.881-1.378,2.7-.159.191.044.58-.308.717-.376.051-.762.1-.285.572a7.249,7.249,0,0,0,1.238,4.983,9.577,9.577,0,0,1-1.393,12.108c-1.833,1.84-3.706,3.64-5.561,5.459-.422,0-.92-.056-1.046.46-.118.485.292.613.687.672.479,2.913.976,5.823,1.432,8.739.421,2.7.8,5.4,1.193,8.1s.76,5.4,1.176,8.1c.115.746.512,1.091,1.405,1.07,3.271-.077,6.545-.042,9.817-.017.433,0,.953-.244,1.3.256a1.6,1.6,0,0,0,1.458,1.43c.375.217.242.588.242.895q.013,8.825,0,17.65c0,.307.133.678-.242.894a1.6,1.6,0,0,0-1.458,1.43c-.3.475-.775.259-1.164.259q-30.4.018-60.795.008c-.284,0-.568-.041-.852-.063A1.589,1.589,0,0,0,.12,281.225C.091,277,.055,272.77.038,268.542q-.021-5.063.01-10.125c0-.489-.209-1.042.238-1.47.622-.007.61-.44.593-.878.306-.579.992-.678,1.408-1.118l.313-.213,1.662-1.2.336-.231L6.283,252.1l.313-.213,1.418-.95c.869.7.834.02.861-.564.291-.6.992-.683,1.4-1.128l.313-.213,1.418-.95c.869.7.834.02.861-.564.276-.6.978-.668,1.381-1.11l.336-.231,1.418-.95c.866.7.836.029.857-.562l-.007.01a8.513,8.513,0,0,1,3.478,1.142c.574,1.246.151,2.559.237,3.837.077,1.148.016,2.3.016,3.595l1.681-1.15.313-.213,1.418-.95c.87.7.834.02.861-.565m-.535,15.138-.009-.009c-.024.438-.031.865.586.871.468.425.237.983.24,1.474.024,3.139.039,6.278-.006,9.417-.012.832.141,1.165,1.074,1.136,2.376-.073,4.756-.052,7.133-.008.743.014.968-.191.963-.951q-.047-8.2,0-16.409c0-.771-.241-.944-.971-.942q-13.912.034-27.824,0c-.79,0-.93.277-.927.985.025,5.422.04,10.844-.011,16.266-.009.958.352,1.081,1.155,1.053,1.52-.054,3.047-.072,4.564.005.934.048,1.188-.238,1.181-1.174-.029-3.612.034-7.224.063-10.836a1.916,1.916,0,0,0,1.627-1.648q4.84-.03,9.681-.059c.234,0,.479,0,.6.264.022.606.447.592.877.569M44.814,269.5l.32-.2c3.135-.021,6.27-.068,9.4-.053a2.554,2.554,0,0,1,2.587,2.586c.031,1.044.006,2.091.006,3.136,0,3.469,0,3.438,3.47,3.423.852,0,1.134-.183,1.121-1.091q-.082-5.772,0-11.546c.011-.874-.214-1.114-1.1-1.109q-10.335.058-20.67,0c-.871,0-1.126.208-1.111,1.1.056,3.278.022,6.557.022,9.836,0,2.789.005,2.686,2.8,2.829,1.543.079,1.84-.439,1.814-1.866-.036-1.959-.337-3.949.209-5.894a1.116,1.116,0,0,0,1.147-1.172l-.015.017m-32.49-16.216c-.718-.478-.514.168-.584.479-.509.261-.746.926-1.414.948-.72-.478-.513.17-.584.481a1.073,1.073,0,0,0-.138.188c-.011.023.044.112.07.113,1.937.017,3.874.023,5.811.046.455.005.545-.232.541-.62-.011-1.3,0-2.6,0-4.024-.8.193-1.033.973-1.7.961-.72-.479-.513.169-.584.48-.509.26-.746.926-1.414.948m17.4-.948c-.509.26-.746.926-1.414.948-.73-.493-.507.176-.584.479-.508.261-.746.926-1.414.948-.72-.478-.513.17-.584.481a1.06,1.06,0,0,0-.138.188c-.011.023.044.112.07.113,1.937.017,3.874.023,5.811.046.455.005.544-.232.541-.62-.011-1.3,0-2.6,0-3.931-.831.036-1.015.914-1.7.869-.72-.479-.513.169-.584.48m17.363,3.5a8.914,8.914,0,0,1-.472-2.874c.233-.048.472-.1.475-.4,0-.388-.284-.419-.574-.434a8.922,8.922,0,0,1-.472-2.874c.233-.048.472-.1.474-.4,0-.388-.284-.419-.574-.434a7.653,7.653,0,0,1-.436-2.874c.231-.053.453-.126.443-.42-.013-.377-.294-.4-.578-.417a8.915,8.915,0,0,1-.472-2.874c.232-.048.472-.1.474-.4,0-.387-.284-.419-.574-.434-.7-1.942-.342-4.141-1.394-6.177a4.113,4.113,0,0,0-.529,1.014c-.406,2.756-.754,5.521-1.166,8.276-.418,2.795-.905,5.58-1.332,8.374-.337,2.2-.618,4.41-.945,6.612-.118.8.147,1.05.973,1.03,2.421-.059,4.844-.028,7.266-.032.156-.071.433-.124.447-.216.049-.335-.249-.3-.466-.324a7.659,7.659,0,0,1-.436-2.874c.231-.053.453-.126.443-.42-.012-.377-.294-.4-.578-.417M20.59,273.9a33.725,33.725,0,0,1,.026-3.549c.145-1.37-.8-1.329-1.481-1.07-1.025.392-2.827-1.258-3.08,1.013a42.6,42.6,0,0,0-.033,4.685c0,3.455,0,3.427,3.463,3.409.835,0,1.2-.157,1.125-1.08-.086-1.13-.02-2.271-.02-3.408m29.794,4.468c2.18,0,2.18,0,2.18-2.246,0-2.322,0-2.322-2.388-2.322-2.18,0-2.18,0-2.18,2.246,0,2.322,0,2.322,2.388,2.322" transform="translate(0 -145.908)"/>
    <path id="Trazado_765283" data-name="Trazado 765283" d="M32.042,83.873q0-16.483,0-32.966c0-2.472.6-3.063,3.089-3.065,2.426,0,4.852.024,7.278-.015.737-.012,1.065.081,1.078.965.049,3.618.086,3.6-3.548,3.627-1.078.007-2.548-.478-3.124.214-.545.656-.2,2.075-.2,3.158q-.008,30.682.03,61.365c0,1.283-.329,1.555-1.55,1.518-3.051-.094-3.053-.03-3.053-3.118V83.873" transform="translate(-22.871 -34.138)"/>
    <path id="Trazado_765284" data-name="Trazado 765284" d="M127.48,229.42A10.851,10.851,0,0,0,122.913,222l-.574-.57-.59-.589-.569-.577c-.027-.216,0-.458-.283-.541l-.336-.565c-1.346-2.79-.965-5.544.185-8.278.124-.3.265-.584.417-.866.593-1.1.582-1.979-.851-2.341.306-.325.707-.216,1.074-.216q8.041,0,16.082.015c-.184.623-.822,1.007-.892,1.691-1.5,1.971-1.553,4.246-1.371,6.568l.3.571a10.475,10.475,0,0,0,1.043,2.583,1.618,1.618,0,0,0,.167.514,5.111,5.111,0,0,1,.139,6.578q-3.26,3.018-6.279,6.279a2.054,2.054,0,0,1-2.318.033,11.93,11.93,0,0,0-.778-2.867" transform="translate(-85.447 -148.07)" fill="#cce5ff"/>
    <path id="Trazado_765285" data-name="Trazado 765285" d="M211.107,363.614c-3.52,0-7.041-.026-10.56.019-.821.011-1-.239-1.013-1.029-.038-3.558-.065-3.558,3.459-3.558,6.089,0,12.178.023,18.266-.024.949-.007,1.163.263,1.157,1.176-.02,3.415.015,3.415-3.461,3.415h-7.849" transform="translate(-142.424 -256.273)"/>
    <path id="Trazado_765286" data-name="Trazado 765286" d="M370.537,56.785c0,2.044-.03,4.089.016,6.132.017.73-.173.945-.934.961-3.65.078-3.649.1-3.649-3.507,0-2.282-.039-4.565.02-6.845.022-.85-.155-1.162-1.076-1.113-1.612.086-3.232-.008-4.847.039-.711.02-.955-.143-.972-.923-.082-3.66-.112-3.66,3.5-3.66,1.711,0,3.423-.012,5.134,0a2.565,2.565,0,0,1,2.806,2.78c.017,2.044,0,4.088,0,6.132" transform="translate(-256.309 -34.166)"/>
    <path id="Trazado_765287" data-name="Trazado 765287" d="M299.956,361.295c0,2.378,0,2.378-2.332,2.378-2.236,0-2.236,0-2.236-2.19,0-2.378,0-2.378,2.332-2.378,2.235,0,2.235,0,2.235,2.19" transform="translate(-210.85 -256.332)"/>
    <path id="Trazado_765288" data-name="Trazado 765288" d="M327.31,50.062c0-2.181,0-2.181,2.244-2.181,2.324,0,2.324,0,2.324,2.387,0,2.181,0,2.181-2.245,2.181-2.323,0-2.323,0-2.323-2.387" transform="translate(-233.636 -34.178)"/>
    <path id="Trazado_765289" data-name="Trazado 765289" d="M34.223,315.793c-2.18,0-2.18,0-2.18-2.244,0-2.323,0-2.323,2.387-2.323,2.18,0,2.18,0,2.18,2.244,0,2.323,0,2.323-2.387,2.323" transform="translate(-22.873 -222.155)"/>
    <path id="Trazado_765290" data-name="Trazado 765290" d="M118.258,344.929a8.454,8.454,0,0,0-3.492-1.159c1.553-.985,2.706-.6,3.492,1.159" transform="translate(-81.921 -245.006)"/>
    <path id="Trazado_765291" data-name="Trazado 765291" d="M62.383,344.912A8.514,8.514,0,0,0,58.9,343.77q2.324-1.477,3.478,1.142" transform="translate(-42.047 -245.005)"/>
    <path id="Trazado_765292" data-name="Trazado 765292" d="M178.651,206.639c.07-.684.708-1.068.892-1.691.539-.19.384-1.466,1.407-.9a3.919,3.919,0,0,1-2.3,2.59" transform="translate(-127.522 -145.549)"/>
    <path id="Trazado_765293" data-name="Trazado 765293" d="M.419,472.82a1.589,1.589,0,0,1,1.628,1.648A1.959,1.959,0,0,1,.419,472.82" transform="translate(-0.299 -337.503)"/>
    <path id="Trazado_765294" data-name="Trazado 765294" d="M113.816,263.338c.815.015,1.789-.211,1.72,1.139l-.518.151-1.2-1.29" transform="translate(-81.243 -187.969)"/>
    <path id="Trazado_765295" data-name="Trazado 765295" d="M225.581,474.3a1.6,1.6,0,0,1,1.458-1.43,1.705,1.705,0,0,1-1.458,1.43" transform="translate(-161.021 -337.537)"/>
    <path id="Trazado_765296" data-name="Trazado 765296" d="M227.04,401.379a1.6,1.6,0,0,1-1.458-1.43,1.708,1.708,0,0,1,1.458,1.43" transform="translate(-161.022 -285.487)"/>
    <path id="Trazado_765297" data-name="Trazado 765297" d="M105.059,246.386c1.183.137.9.767.483,1.44a2.219,2.219,0,0,1-.483-1.44" transform="translate(-74.988 -175.872)"/>
    <path id="Trazado_765298" data-name="Trazado 765298" d="M166.771,305.4c-.395-.059-.806-.187-.687-.672.126-.516.624-.465,1.046-.461a1.771,1.771,0,0,0-.359,1.133" transform="translate(-118.537 -217.186)"/>
    <path id="Trazado_765299" data-name="Trazado 765299" d="M126.717,275.346c.969-.015,1.142.376.579,1.14a1.871,1.871,0,0,1-.579-1.14" transform="translate(-90.452 -196.544)"/>
    <path id="Trazado_765300" data-name="Trazado 765300" d="M42.832,355.029c-.027.585.008,1.264-.861.564a.857.857,0,0,1,.861-.564" transform="translate(-29.959 -253.422)"/>
    <path id="Trazado_765301" data-name="Trazado 765301" d="M84.728,365c-.027.585.009,1.265-.861.565a.857.857,0,0,1,.861-.565" transform="translate(-59.865 -260.542)"/>
    <path id="Trazado_765302" data-name="Trazado 765302" d="M112.655,345.064c-.021.591.009,1.26-.857.562a.844.844,0,0,1,.857-.562" transform="translate(-79.802 -246.309)"/>
    <path id="Trazado_765303" data-name="Trazado 765303" d="M98.693,355.029c-.027.585.008,1.264-.861.564a.857.857,0,0,1,.861-.564" transform="translate(-69.833 -253.422)"/>
    <path id="Trazado_765304" data-name="Trazado 765304" d="M56.794,345.064c-.021.591.009,1.26-.857.562a.844.844,0,0,1,.857-.562" transform="translate(-39.928 -246.309)"/>
    <path id="Trazado_765305" data-name="Trazado 765305" d="M28.866,365c-.027.585.008,1.264-.861.564a.857.857,0,0,1,.861-.564" transform="translate(-19.99 -260.543)"/>
    <path id="Trazado_765306" data-name="Trazado 765306" d="M128.748,349.129c.231.053.454.126.444.421-.013.378-.3.4-.58.416q.069-.418.137-.836" transform="translate(-91.804 -249.211)"/>
    <path id="Trazado_765307" data-name="Trazado 765307" d="M132.74,323.194c.231.053.454.126.444.42-.013.378-.3.4-.58.416q.068-.418.136-.837" transform="translate(-94.654 -230.698)"/>
    <path id="Trazado_765308" data-name="Trazado 765308" d="M130.743,336.161c.231.053.454.126.444.421-.013.378-.3.4-.58.416l.137-.836" transform="translate(-93.228 -239.954)"/>
    <path id="Trazado_765309" data-name="Trazado 765309" d="M1.586,384.92c.017.438.028.872-.593.878a.885.885,0,0,1,.593-.878" transform="translate(-0.707 -274.759)"/>
    <path id="Trazado_765310" data-name="Trazado 765310" d="M189.212,224.056c-.477-.476-.091-.521.285-.572-.036.22.054.5-.285.572" transform="translate(-134.903 -159.525)"/>
    <path id="Trazado_765311" data-name="Trazado 765311" d="M134.716,311.225c.131.091.373.183.372.272,0,.3-.28.258-.489.279l.117-.551" transform="translate(-96.078 -222.155)"/>
    <path id="Trazado_765312" data-name="Trazado 765312" d="M118.014,267.484l.518-.151v.523c-.3.057-.36-.229-.519-.372" transform="translate(-84.239 -190.824)" fill="#020202"/>
    <path id="Trazado_765313" data-name="Trazado 765313" d="M8.3,380.215l-.313.213c.049-.152.106-.292.313-.213" transform="translate(-5.704 -271.384)"/>
    <path id="Trazado_765314" data-name="Trazado 765314" d="M15.231,375.235l-.336.231c.063-.148.119-.306.336-.231" transform="translate(-10.632 -267.832)"/>
    <path id="Trazado_765315" data-name="Trazado 765315" d="M36.234,360.264l-.313.213c.049-.152.106-.292.313-.213" transform="translate(-25.641 -257.142)"/>
    <path id="Trazado_765316" data-name="Trazado 765316" d="M106,350.3l-.336.231c.063-.148.12-.306.336-.231" transform="translate(-75.427 -250.03)"/>
    <path id="Trazado_765317" data-name="Trazado 765317" d="M78.13,370.238l-.313.213c.049-.152.106-.292.313-.213" transform="translate(-55.546 -264.263)"/>
    <path id="Trazado_765318" data-name="Trazado 765318" d="M92.1,360.263l-.313.213c.049-.152.106-.292.313-.213" transform="translate(-65.515 -257.142)"/>
    <path id="Trazado_765319" data-name="Trazado 765319" d="M460.128,201.717c-.215.069-.275-.084-.336-.235l.336.235" transform="translate(-328.203 -143.819)" fill="#fefefe"/>
    <path id="Trazado_765320" data-name="Trazado 765320" d="M284.575,136.88c-.072-.2.062-.263.217-.307l-.217.307" transform="translate(-203.118 -97.487)" fill="#fefefe"/>
    <path id="Trazado_765321" data-name="Trazado 765321" d="M412.469,127.989c-.167-.029-.29-.092-.229-.3l.229.3" transform="translate(-294.249 -91.148)" fill="#fefefe"/>
    <path id="Trazado_765322" data-name="Trazado 765322" d="M408.266,122.915c-.211.062-.273-.086-.332-.238l.332.238" transform="translate(-291.186 -87.568)" fill="#fefefe"/>
    <path id="Trazado_765323" data-name="Trazado 765323" d="M296.591,49.146c-.2.058-.268-.071-.314-.228l.314.228" transform="translate(-211.485 -34.918)" fill="#fefefe"/>
    <path id="Trazado_765324" data-name="Trazado 765324" d="M50.144,350.3l-.336.231c.063-.148.119-.306.336-.231" transform="translate(-35.553 -250.03)"/>
    <path id="Trazado_765325" data-name="Trazado 765325" d="M22.269,370.24l-.313.213c.049-.152.106-.292.313-.213" transform="translate(-15.672 -264.263)"/>
    <path id="Trazado_765326" data-name="Trazado 765326" d="M317.438,212.632c1.021,1.032,1.855,2.563,2.99,2.834,1.222.292,1.814-1.756,3.043-2.328.425.31.238.723.24,1.065.017,3.424.032,6.848-.005,10.271-.009.843.09,1.245,1.119,1.242,3.464-.01,3.465.039,3.465-3.445v-9.405c.917.966,1.608,1.644,2.238,2.375.461.535.785.481,1.247-.012.8-.861,1.676-1.66,2.575-2.54-1.025-1-2-1.911-2.921-2.869-.365-.378-1.169-.756-.934-1.213a2.256,2.256,0,0,1,1.934-1.181c1.426-.035,2.853-.013,4.28-.009,2.206.006,4.432-.163,6.524.8a8.984,8.984,0,0,1,5.585,8.41c.119,4.181,0,8.369.05,12.553.011.909-.267,1.131-1.124,1.09a35.849,35.849,0,0,0-4.277.006c-1.147.082-1.538-.2-1.506-1.439.094-3.707,0-7.418.055-11.127.013-.927-.236-1.188-1.175-1.186-3.414.008-3.414-.029-3.414,3.347,0,3.091-.029,6.182.019,9.273.013.843-.165,1.136-1.084,1.13q-10.342-.063-20.686,0c-.877,0-1.122-.219-1.11-1.1.051-3.8-.018-7.609.048-11.412.018-1.036-.31-1.241-1.277-1.231-3.316.033-3.317-.005-3.317,3.3,0,3.139-.027,6.278.019,9.415.012.819-.232,1.057-1.039,1.028-1.615-.06-3.234-.046-4.85,0-.695.017-1.006-.114-1-.918.039-4.8-.229-9.623.111-14.4a8.462,8.462,0,0,1,6.83-7.239c3.059-.579,6.148-.169,9.221-.294.791-.032,1.233.6,1.8.972s0,.626-.215.844c-1.14,1.146-2.3,2.27-3.455,3.4" transform="translate(-216.344 -148.036)" fill="#91b3fa"/>
    <path id="Trazado_765327" data-name="Trazado 765327" d="M343.21,321.506c0-5.658.021-11.315-.02-16.973-.007-.977.115-1.407,1.277-1.4,6.8.063,13.6.046,20.4.012.907,0,1.209.211,1.207,1.171q-.05,17.115,0,34.231c0,.949-.28,1.2-1.2,1.179-2.185-.062-4.376-.078-6.56,0-1.1.042-1.432-.245-1.425-1.394.053-8.415.021-16.83.036-25.245,0-1.21-.232-2.241-1.449-2.8a2.094,2.094,0,0,0-3.1,1.735,21.215,21.215,0,0,0-.026,2.138c0,8.035-.029,16.07.029,24.1.009,1.211-.328,1.521-1.5,1.467-2.135-.1-4.279-.079-6.416-.005-.991.035-1.283-.238-1.274-1.254.05-5.657.024-11.315.024-16.973" transform="translate(-244.968 -216.382)" fill="#6b889b"/>
    <path id="Trazado_765328" data-name="Trazado 765328" d="M367.21,170.581c0-3.083,0-3.083,3.058-3.083,1.71,0,3.42-.012,5.129.011.327,0,.925-.231.912.338-.049,2.22.468,4.512-.764,6.6a4.443,4.443,0,0,1-8.331-2.158c-.005-.57,0-1.14,0-1.71" transform="translate(-262.117 -119.537)" fill="#ffccb2"/>
    <path id="Trazado_765329" data-name="Trazado 765329" d="M322.243,451.074c1.353-1.284,2.718-2.555,4.05-3.86a1.463,1.463,0,0,1,1.149-.382c2.988.008,5.978.034,8.966-.016.825-.014,1,.251,1.009,1.033.042,3.555.068,3.554-3.449,3.554h-11.51l-.214-.33" transform="translate(-230.02 -318.941)" fill="#cce5ff"/>
    <path id="Trazado_765330" data-name="Trazado 765330" d="M405.726,451.454c-4.78,0-9.467-.006-14.154.009-.515,0-.683-.2-.629-.672a.792.792,0,0,0,0-.143c-.232-3.761-.232-3.761,3.525-3.761h2.283c5.229,0,5.468.12,8.976,4.567" transform="translate(-278.998 -318.991)" fill="#cce5ff"/>
    <path id="Trazado_765331" data-name="Trazado 765331" d="M371.567,140.021c-1.142,0-2.288-.063-3.424.017-1.163.082-1.134-.586-.924-1.332a4.933,4.933,0,0,1,4.075-3.236,19.141,19.141,0,0,1,4.13.031c1.887.341.5,1.925.787,2.9.141.483.626,1.646-.79,1.622-1.284-.022-2.569,0-3.854,0" transform="translate(-262.043 -96.628)" fill="#bc6d12"/>
    <path id="Trazado_765332" data-name="Trazado 765332" d="M306.9,303.174c3.314,0,3.314,0,3.314,3.25,0,.9-.012,1.8,0,2.705.012.681-.337.891-.971.9-2.39.049-5.853-3.409-5.887-5.833-.011-.761.118-1.124.98-1.043s1.707.017,2.561.017" transform="translate(-216.539 -216.388)" fill="#ffccb2"/>
    <path id="Trazado_765333" data-name="Trazado 765333" d="M442.514,303.2h1.425c1.994,0,1.994,0,1.592,1.889-.457,2.15-3.473,4.778-5.67,4.969-.648.057-.925-.094-.9-.831.058-1.708.063-3.421,0-5.129-.03-.807.293-.951.99-.91.852.051,1.709.012,2.564.012" transform="translate(-313.332 -216.412)" fill="#ffccb2"/>
    <path id="Trazado_765334" data-name="Trazado 765334" d="M120.939,34.179c-5.323,0-10.647-.022-15.97.021-.92.007-1.193-.225-1.184-1.169q.07-7.984,0-15.969c-.008-.936.251-1.177,1.179-1.174q15.97.049,31.939,0c.92,0,1.192.224,1.184,1.169q-.07,7.984,0,15.969c.008.936-.251,1.182-1.179,1.175-5.323-.044-10.646-.021-15.969-.021" transform="translate(-74.083 -11.341)" fill="#e6b046"/>
    <path id="Trazado_765335" data-name="Trazado 765335" d="M239.487,73.86V64.941c0-2.711.025-5.423-.015-8.134-.011-.769.154-1.09,1-1.061,3.26.111,6.55-.279,9.777.331a6.174,6.174,0,0,1,4.738,4.253c-1.875,0-3.606.036-5.335-.016-.786-.024-1.04.19-1.055,1.016-.068,3.569-.1,3.568,3.482,3.568,3.392,0,3.392,0,3.392,3.35,0,1.475.045,2.951-.027,4.423-.022.453.47,1.367-.5,1.315-.881-.048-2.063.687-2.634-.625-1.586-3.643-5.225-4.294-8.327-3.481a6.317,6.317,0,0,0-4.17,4.081l-.333-.1" transform="translate(-170.936 -39.776)" fill="#afafaf"/>
    <path id="Trazado_765336" data-name="Trazado 765336" d="M120.991,95.706c5.326,0,10.652.023,15.977-.022.938-.008,1.22.251,1.175,1.183-.076,1.565-.048,3.138-.008,4.706.018.691-.108,1.008-.915,1q-7.418-.055-14.836,0a.984.984,0,0,1-1.047-.7c-1.585-4.013-7.525-5-10.78-2.1a4.584,4.584,0,0,0-1.238,1.682c-.384,1-1.049,1.126-1.979,1.117-3.475-.034-3.475-.009-3.475-3.421,0-3.448,0-3.448,3.431-3.448h13.695" transform="translate(-74.14 -68.3)" fill="#afafaf"/>
    <path id="Trazado_765337" data-name="Trazado 765337" d="M255.5,122.131a2.178,2.178,0,0,1,2.138-2.426A2.7,2.7,0,0,1,260.058,122a2.636,2.636,0,0,1-2.587,2.258,1.875,1.875,0,0,1-1.97-2.125" transform="translate(-182.379 -85.447)" fill="#dbebfd"/>
    <path id="Trazado_765338" data-name="Trazado 765338" d="M137.963,124.271a2.284,2.284,0,0,1-.067-4.558,2.283,2.283,0,1,1,.067,4.558" transform="translate(-96.932 -85.453)" fill="#dbebfd"/>
    <path id="Trazado_765339" data-name="Trazado 765339" d="M34.868,403.8c-.123-.264-.367-.265-.6-.264q-4.84.027-9.68.059a1.97,1.97,0,0,0-1.627,1.648c-.029,3.612-.092,7.225-.063,10.836.008.936-.247,1.221-1.181,1.173-1.518-.077-3.044-.059-4.564-.005-.8.028-1.164-.094-1.155-1.052.052-5.422.036-10.844.011-16.266,0-.708.137-.987.927-.985q13.912.041,27.824,0c.73,0,.976.171.971.942q-.049,8.2,0,16.409c0,.76-.22.965-.963.951-2.377-.044-4.757-.065-7.133.008-.934.029-1.086-.3-1.074-1.136.045-3.138.03-6.278.006-9.417,0-.491.228-1.048-.241-1.474a.856.856,0,0,0-.586-.871l.009.009a.829.829,0,0,0-.878-.569" transform="translate(-11.418 -284.771)" fill="#ffc100"/>
    <path id="Trazado_765340" data-name="Trazado 765340" d="M140.55,420.9c-.547,1.945-.246,3.935-.209,5.894.027,1.427-.27,1.945-1.814,1.866-2.793-.143-2.8-.04-2.8-2.829,0-3.279.034-6.558-.022-9.836-.015-.891.24-1.1,1.111-1.1q10.335.055,20.67,0c.887-.005,1.112.234,1.1,1.109q-.073,5.772,0,11.546c.013.908-.269,1.088-1.121,1.091-3.47.015-3.47.045-3.47-3.423,0-1.045.024-2.091-.006-3.136a2.553,2.553,0,0,0-2.587-2.586c-3.135-.015-6.27.031-9.4.053-.189-.069-.27.039-.32.2l.015-.017a1.25,1.25,0,0,0-1.147,1.172" transform="translate(-96.868 -296.154)" fill="#f0dcc0"/>
    <path id="Trazado_765341" data-name="Trazado 765341" d="M145.978,335.929c-2.422,0-4.845-.027-7.266.031-.826.02-1.091-.234-.973-1.029.327-2.2.608-4.411.945-6.612.427-2.794.914-5.578,1.332-8.374.412-2.755.76-5.52,1.166-8.276a4.113,4.113,0,0,1,.529-1.013c1.052,2.036.693,4.235,1.394,6.177l.1.837a8.923,8.923,0,0,0,.471,2.874l.135.837a7.652,7.652,0,0,0,.436,2.874q.049.419.1.837a8.923,8.923,0,0,0,.472,2.874q.049.419.1.837a8.915,8.915,0,0,0,.472,2.874l.135.837a7.653,7.653,0,0,0,.436,2.874l.019.54" transform="translate(-98.3 -221.749)" fill="#e6b046"/>
    <path id="Trazado_765342" data-name="Trazado 765342" d="M60.419,435.178c0,1.136-.066,2.278.021,3.408.07.924-.29,1.076-1.125,1.081-3.463.017-3.463.046-3.463-3.409a42.6,42.6,0,0,1,.033-4.685c.253-2.272,2.055-.621,3.08-1.014.677-.259,1.626-.3,1.481,1.07a33.8,33.8,0,0,0-.026,3.549" transform="translate(-39.829 -307.182)" fill="#f0dcc0"/>
    <path id="Trazado_765343" data-name="Trazado 765343" d="M170.094,451.456c-2.388,0-2.388,0-2.388-2.322,0-2.246,0-2.246,2.18-2.246,2.388,0,2.388,0,2.388,2.322,0,2.246,0,2.246-2.18,2.246" transform="translate(-119.71 -318.992)" fill="#e6b046"/>
    <path id="Trazado_765344" data-name="Trazado 765344" d="M94.131,368.022c.684.044.867-.833,1.7-.869,0,1.331-.007,2.631,0,3.931,0,.388-.086.625-.541.62-1.937-.023-3.874-.028-5.811-.046-.025,0-.08-.089-.07-.112a1.051,1.051,0,0,1,.138-.188c.329,0,.484-.206.584-.481.668-.022.906-.687,1.414-.948.329,0,.484-.2.584-.479.669-.022.906-.687,1.414-.948.33.005.483-.205.584-.48" transform="translate(-63.822 -262.077)" fill="#ffd65f"/>
    <path id="Trazado_765345" data-name="Trazado 765345" d="M34.274,370.646c.668-.022.906-.687,1.414-.948.329,0,.484-.2.584-.479.668-.022.905-.687,1.414-.948.331.005.484-.205.584-.48.667.011.9-.768,1.7-.961,0,1.424-.007,2.724,0,4.024,0,.388-.086.625-.541.62-1.937-.023-3.874-.028-5.811-.046-.025,0-.08-.089-.07-.113a1.057,1.057,0,0,1,.138-.188c.329,0,.484-.206.584-.481" transform="translate(-23.948 -261.846)" fill="#ffd65f"/>
    <path id="Trazado_765346" data-name="Trazado 765346" d="M157.691,278.491q3.018-3.261,6.279-6.279c.389.553.131.933-.287,1.343-1.662,1.63-3.287,3.3-4.959,4.919-.251.242-.681,1.19-1.033.017" transform="translate(-112.561 -194.307)"/>
    <path id="Trazado_765347" data-name="Trazado 765347" d="M146.434,284.249a11.93,11.93,0,0,1,.778,2.867,2.45,2.45,0,0,1-.778-2.867" transform="translate(-104.401 -202.899)"/>
    <path id="Trazado_765348" data-name="Trazado 765348" d="M40.326,416.845a1.97,1.97,0,0,1,1.627-1.648,1.915,1.915,0,0,1-1.627,1.648" transform="translate(-28.785 -296.371)"/>
    <path id="Trazado_765349" data-name="Trazado 765349" d="M177.185,244.044a1.538,1.538,0,0,1-.552-1.121c.195-.289.443-.321.647-.051a.751.751,0,0,1-.1,1.173" transform="translate(-126.082 -173.231)"/>
    <path id="Trazado_765350" data-name="Trazado 765350" d="M152.631,432.95a1.25,1.25,0,0,1,1.147-1.172,1.116,1.116,0,0,1-1.147,1.172" transform="translate(-108.949 -308.206)"/>
    <path id="Trazado_765351" data-name="Trazado 765351" d="M158.683,346.045q-.067-.419-.135-.837c.284.013.565.041.578.417.01.294-.212.367-.443.42" transform="translate(-113.173 -246.412)"/>
    <path id="Trazado_765352" data-name="Trazado 765352" d="M156.652,333.077l-.1-.837c.29.015.577.047.574.434,0,.3-.242.355-.474.4" transform="translate(-111.748 -237.155)"/>
    <path id="Trazado_765353" data-name="Trazado 765353" d="M160.642,359.013l-.1-.837c.29.015.577.047.574.434,0,.3-.242.355-.474.4" transform="translate(-114.596 -255.669)"/>
    <path id="Trazado_765354" data-name="Trazado 765354" d="M164.668,384.948l-.135-.837c.284.013.566.041.578.417.01.294-.212.367-.443.42" transform="translate(-117.445 -274.181)"/>
    <path id="Trazado_765355" data-name="Trazado 765355" d="M162.637,371.98l-.1-.837c.29.015.577.047.574.434,0,.3-.242.355-.474.4" transform="translate(-116.02 -264.925)"/>
    <path id="Trazado_765356" data-name="Trazado 765356" d="M97.464,374.739c-.1.275-.255.484-.584.479.077-.3-.146-.972.584-.479" transform="translate(-69.154 -267.366)"/>
    <path id="Trazado_765357" data-name="Trazado 765357" d="M128.5,256.322l.574.57c-.263-.118-1.085.328-.574-.57" transform="translate(-91.604 -182.965)"/>
    <path id="Trazado_765358" data-name="Trazado 765358" d="M121.676,248.382l.336.565c-.252-.021-.583.092-.71-.19-.141-.313.178-.315.374-.375" transform="translate(-86.562 -177.297)"/>
    <path id="Trazado_765359" data-name="Trazado 765359" d="M48.586,369.763c-.1.274-.254.485-.584.48.071-.311-.135-.959.584-.48" transform="translate(-34.264 -263.817)"/>
    <path id="Trazado_765360" data-name="Trazado 765360" d="M104.447,369.763c-.1.274-.254.485-.584.48.071-.311-.135-.959.584-.48" transform="translate(-74.138 -263.817)"/>
    <path id="Trazado_765361" data-name="Trazado 765361" d="M84.953,417.866a.856.856,0,0,1,.586.871c-.617-.007-.61-.433-.586-.871" transform="translate(-60.634 -298.276)"/>
    <path id="Trazado_765362" data-name="Trazado 765362" d="M81.938,415.892a.829.829,0,0,1,.878.569c-.431.023-.855.037-.878-.569" transform="translate(-58.488 -296.862)"/>
    <path id="Trazado_765363" data-name="Trazado 765363" d="M124.831,252.248l.569.577c-.9.511-.45-.315-.569-.577" transform="translate(-89.097 -180.057)"/>
    <path id="Trazado_765364" data-name="Trazado 765364" d="M41.6,374.751c-.1.275-.255.484-.584.479.07-.312-.134-.957.584-.479" transform="translate(-29.28 -267.379)"/>
    <path id="Trazado_765365" data-name="Trazado 765365" d="M174.161,236.981l-.3-.571c.25.045.608-.1.682.277.041.212-.2.262-.379.294" transform="translate(-124.101 -168.751)"/>
    <path id="Trazado_765366" data-name="Trazado 765366" d="M34.621,379.739c-.1.275-.256.483-.584.481.071-.311-.136-.959.584-.481" transform="translate(-24.296 -270.939)"/>
    <path id="Trazado_765367" data-name="Trazado 765367" d="M90.482,379.739c-.1.275-.256.483-.584.481.071-.311-.136-.959.584-.481" transform="translate(-64.17 -270.939)"/>
    <path id="Trazado_765368" data-name="Trazado 765368" d="M166.547,397.619l-.019-.54c.216.028.515-.011.466.324-.014.092-.291.145-.447.216" transform="translate(-118.869 -283.438)"/>
    <path id="Trazado_765369" data-name="Trazado 765369" d="M156.586,431.3c.05-.157.131-.265.32-.2l-.32.2" transform="translate(-111.772 -307.707)"/>
  </g>
</svg>
