<svg id="Grupo_1025450" data-name="Grupo 1025450" xmlns="http://www.w3.org/2000/svg" xmlns:xlink="http://www.w3.org/1999/xlink" width="150.953" height="150.952" viewBox="0 0 150.953 150.952">
  <defs>
    <clipPath id="clip-path">
      <rect id="Rectángulo_361316" data-name="Rectángulo 361316" width="150.953" height="150.952" fill="none"/>
    </clipPath>
  </defs>
  <g id="Grupo_1025450-2" data-name="Grupo 1025450" clip-path="url(#clip-path)">
    <path id="Trazado_765506" data-name="Trazado 765506" d="M145.4,168.043a5.382,5.382,0,0,0,.868,2.161,35.788,35.788,0,0,1,3.775,11.295c.1.687.179.726.909.533v.608c-.216-.293-.492-.415-.566.045a1.98,1.98,0,0,0,.566,2.084v3.041q-.589.456,0,.912v2.737q-5.687,0-11.375,0c-.616,0-1.015-.078-1.134.867a28.049,28.049,0,0,1-3.558,11.04,29.98,29.98,0,0,1-16.225,13.384c-1.882.655-3.838.9-5.723,1.476h-5.17c-.51-.558-1.183-.213-1.774-.321a19.332,19.332,0,0,1-7.919-1.964,30.526,30.526,0,0,1-13.12-11.086l-.246-.312a30.447,30.447,0,0,1-2.266-4.748,1.371,1.371,0,0,0-1.544-1.054q-5.836.071-11.675,0c-.787-.008-1.024.2-1.011,1,.048,2.931.009,5.863.023,8.794.008,1.557-.545,3.677.246,4.521.908.969,3.04.234,4.639.291,1.558.056,3.666-.546,4.531.241.988.9.215,3.036.311,4.631H24.442c.1-1.6-.683-3.741.317-4.638.877-.787,2.985-.175,4.547-.236,1.6-.062,3.742.69,4.639-.308.787-.876.219-2.983.225-4.546.011-2.837-.041-5.675.027-8.51.023-.981-.231-1.258-1.235-1.25-6.028.05-12.063-.141-18.083.079a10.069,10.069,0,0,1-9.567-6.82,6.37,6.37,0,0,1-.345-2.172q.022-24.848.03-49.7a4.028,4.028,0,0,0-.673-2.36,26.534,26.534,0,0,1,5.433-35.088,25.088,25.088,0,0,1,12.448-5.541,27.393,27.393,0,0,1,16.889,2.507c1.351.682,2.58,1.605,3.864,2.418.051.165.116.308.334.234a28.336,28.336,0,0,1,8.271,11.01c-.066.217.067.284.242.319a30.282,30.282,0,0,1,1.739,8.786,20.615,20.615,0,0,1-.876,7.35c-.29.883-.088.894.621.885,1.824-.023,3.649-.008,5.473-.008,10.136,0,20.272-.023,30.408.017,2.244.009,4.445.345,6.061,2.2a8.378,8.378,0,0,1,2.192,5.639q.014,10.8,0,21.591c0,2.223.078,2.316,2.131,1.568a23.729,23.729,0,0,1,6.564-1.532c.715-.047,1.075-.431,1.06-1.28-.059-3.344.016-6.69-.049-10.034-.019-.952.24-1.185,1.172-1.155,7.842.253,15.379,1.674,22.185,5.816a36.858,36.858,0,0,1,7.372,5.492l2.127,2.127a69.034,69.034,0,0,1,4.878,6.42.5.5,0,0,0,.532.541m-11.418-6.078c-.6-.527-1.163-1.1-1.8-1.573a37.892,37.892,0,0,0-18.567-7.6c-1.236-.143-1.617.109-1.612,1.373q.057,15.5-.012,31c-.007,1.262.409,1.454,1.528,1.449,9.574-.04,19.147-.014,28.721-.034,1.147,0,2.577.487,3.364-.24.692-.639-.013-1.975-.105-3.006a29.1,29.1,0,0,0-2.19-8.15,35.14,35.14,0,0,0-6.659-10.552l-.22-.233-2.214-2.208-.237-.227m-91.29-23.477c.2.036.317-.015.269-.247.31-.452.595-.923.933-1.352a21.113,21.113,0,0,0,4.059-19.032,20.413,20.413,0,0,0-7.581-11.6,21.523,21.523,0,0,0-19.331-3.974c-7.091,1.839-11.964,6.4-14.668,13.158a20.949,20.949,0,0,0-.231,15.1,21.705,21.705,0,0,0,7.248,10.137,22.483,22.483,0,0,0,9.282,4.3c1.408.3,2.766-.085,4.084.1a12.932,12.932,0,0,0,5.123-.39,24.455,24.455,0,0,0,10.814-6.195M9.844,143.875c0,11.744.016,23.042-.027,34.34,0,1.058.44,1.092,1.252,1.091q40.128-.022,80.257.009c.978,0,1.262-.235,1.26-1.241-.035-13.174-.02-26.347-.027-39.521a2.745,2.745,0,0,0-3.078-3.048q-18.924-.011-37.848-.019a1.449,1.449,0,0,0-1.642,1.031,13.324,13.324,0,0,1-2.667,3.938,31.483,31.483,0,0,1-11.74,8.215c-4.039,1.614-8.136,1.435-12.264,1.353a7.326,7.326,0,0,1-2.649-.309c-3.683-1.56-7.644-2.6-10.826-5.838M51.192,184.16q-18.163,0-36.327.016c-1.648,0-3.917-.744-4.776.31-.824,1.011-.241,3.19-.231,4.855a4.75,4.75,0,0,0,4.608,4.544c3.445.012,6.891.008,10.336.008q31.236,0,62.471.012a4.972,4.972,0,0,0,4.367-2.281c1.271-1.836.768-3.94.949-5.95.118-1.31-.343-1.546-1.574-1.542-13.274.048-26.549.03-39.824.03m45.376,25.5c.912.511,1.814,1.112,2.789,1.546a24.434,24.434,0,0,0,13.609,1.908,23.966,23.966,0,0,0,13.4-6.632,24.492,24.492,0,0,0,7.231-13.825c.117-.624.212-1.237-.893-1.229-7.089.053-14.179.029-21.269.023-.461,0-.9-.022-1.18.451a26.819,26.819,0,0,1-2.091,2.726c-3.876,4.979-7.711,9.989-11.593,15.032m-45.308,3.692c3.649,0,7.3-.014,10.946.012.755.005,1.2-.039,1.185-1.02-.055-4.206-.046-8.412,0-12.618.009-.852-.323-.986-1.066-.984q-11.1.032-22.2-.005c-.863,0-1.113.238-1.1,1.1.043,4.1.058,8.21-.008,12.314-.017,1.062.37,1.23,1.3,1.218,3.648-.046,7.3-.019,10.946-.019m46.245-34.367c-.293,3.91.134,7.624-.325,11.335a9.571,9.571,0,0,1-2.208,4.92,9.33,9.33,0,0,1-6.831,3.492c-.544.043-1.016.186-.672.765a30.652,30.652,0,0,0,4.634,6.546c.443.433.738.483,1.157-.138.75-1.111,1.646-2.124,2.477-3.18,3.354-4.261,6.716-8.515,10.04-12.8.281-.362.732-.83.13-1.43-.958-.953-1.837-1.987-2.729-3-1.847-2.1-3.681-4.221-5.673-6.507m9.655,3.621c0-5.877,0-11.245,0-16.613,0-.512.206-1.094-.815-.927a26.372,26.372,0,0,0-8.3,2.617c-.467.249-.774.481-.786.893a6.531,6.531,0,0,0,2.171,5.273,17.611,17.611,0,0,1,1.321,1.45c2.043,2.322,4.082,4.647,6.418,7.307" transform="translate(0 -67.27)"/>
    <path id="Trazado_765507" data-name="Trazado 765507" d="M461.571,48.863c-1.564.022-3.671-.561-4.549.226-1,.9-.221,3.041-.314,4.64-.021.354,0,.709,0,1.064,0,4,0,3.973-3.956,3.823-.727-.027-.939-.21-.927-.938.042-2.584-.02-5.169.037-7.752.02-.865-.236-1.09-1.089-1.092-1.242,0-2.946.6-3.605-.249-.619-.8-.188-2.421-.189-3.682,0-11.2.016-22.4-.031-33.593,0-1.125.241-1.479,1.4-1.41,1.132.068,2.659.539,3.319-.232.557-.65.169-2.121.176-3.229.012-1.773.037-3.548-.013-5.32-.02-.728.2-.911.927-.938,3.956-.15,3.956-.174,3.956,3.823,0,1.672.035,3.345-.017,5.016-.023.732.2.962.931.931,1.315-.057,2.634-.016,3.952-.016Zm-9.732-19.621v11.23c0,3.549,0,3.493,3.49,3.555,1.151.02,1.411-.3,1.4-1.421-.052-8.094-.027-16.188-.027-24.282,0-3.582,0-3.541-3.642-3.55-1,0-1.258.284-1.247,1.264.052,4.4.023,8.8.023,13.2" transform="translate(-310.618 -0.095)"/>
    <path id="Trazado_765508" data-name="Trazado 765508" d="M347.538,494.431a1.054,1.054,0,0,0,.112-.2c.01-.03-.039-.078-.061-.118.591.108,1.264-.237,1.774.32Z" transform="translate(-241.594 -343.479)" fill="#040301"/>
    <path id="Trazado_765509" data-name="Trazado 765509" d="M494.513,396.33q-.588-.456,0-.912Z" transform="translate(-343.56 -274.878)" fill="#020202"/>
    <path id="Trazado_765510" data-name="Trazado 765510" d="M212.472,20.892c0-1.317.036-2.636-.015-3.952-.026-.678.208-.818.858-.852,4.024-.212,4.023-.231,4.023,3.753,0,1.672.045,3.346-.019,5.016-.032.815.238,1.008,1.018,1.005,1.25-.005,3.012-.575,3.618.21.645.836.244,2.5.245,3.807.009,9.526-.019,19.052.035,28.578.007,1.193-.3,1.5-1.48,1.473-3.415-.078-3.416-.023-3.416,3.4,0,1.774-.043,3.549.019,5.32.028.811-.234.99-1.015,1.006-3.871.08-3.87.105-3.87-3.755,0-1.672-.045-3.346.019-5.016.032-.816-.239-1.008-1.018-1-1.25,0-3.012.575-3.618-.211-.645-.836-.243-2.5-.244-3.807-.009-9.526.019-19.052-.035-28.578-.007-1.193.3-1.5,1.479-1.473,3.415.078,3.416.023,3.416-3.4v-1.52m0,21.993v8.5c0,3.717,0,3.672,3.662,3.682,1.038,0,1.229-.34,1.224-1.286-.038-6.473-.02-12.946-.02-19.419,0-3.784,0-3.751-3.814-3.678-.892.017-1.077.309-1.068,1.13.039,3.691.017,7.383.017,11.075" transform="translate(-144.237 -11.133)"/>
    <path id="Trazado_765511" data-name="Trazado 765511" d="M367.192,51.593c0-2.888.032-5.776-.02-8.663-.016-.855.22-1.218,1.083-1.071a.6.6,0,0,0,.151,0c1.192-.1,2.78.536,3.468-.271.582-.681.173-2.218.18-3.377.011-1.723.037-3.446-.013-5.167-.021-.729.2-.91.927-.937,3.956-.15,3.955-.173,3.955,3.823,0,1.672.035,3.345-.016,5.015-.023.731.2,1.033.93.917a1.264,1.264,0,0,1,.3,0c1.192.105,2.779-.538,3.467.272.581.683.176,2.219.178,3.378.007,4.864-.026,9.728.027,14.591.011.986-.238,1.279-1.239,1.254-1.189-.031-2.779-.567-3.467.239-.581.681-.173,2.218-.18,3.377-.011,1.722-.037,3.446.013,5.167.022.729-.2.91-.927.937-3.956.15-3.955.173-3.955-3.823,0-1.672-.035-3.345.016-5.015.023-.732-.2-1.034-.93-.917a1.262,1.262,0,0,1-.3,0c-1.192-.105-2.78.537-3.468-.272-.581-.684-.172-2.219-.178-3.378-.01-2.027,0-4.053,0-6.08m9.731.1V50.478c0-3.9,0-3.877-3.849-3.772-.766.021-1.065.181-1.035,1,.062,1.663.018,3.329.018,4.994,0,3.9,0,3.877,3.85,3.772.766-.021,1.077-.181,1.034-1.005-.067-1.258-.018-2.522-.017-3.783" transform="translate(-255.165 -22.287)"/>
    <path id="Trazado_765512" data-name="Trazado 765512" d="M295.008,96c2.323,0,2.323,0,2.323,2.392,0,2.474,0,2.474,2.545,2.474,2.321,0,2.321,0,2.321,2.394,0,5.218-.026,10.436.022,15.654.009,1.039-.1,1.563-1.35,1.453-1.131-.1-2.71-.537-3.323.2-.58.7-.28,2.219-.188,3.363.091,1.125-.341,1.3-1.354,1.288-3.527-.045-3.6-.006-3.5-3.48.034-1.266-.406-1.456-1.518-1.436-3.383.061-3.384.018-3.384-3.434,0-4.863.051-9.728-.035-14.59-.022-1.254.39-1.462,1.512-1.441,3.385.064,3.476.015,3.347-3.274-.055-1.417.419-1.774,1.674-1.573a5.818,5.818,0,0,0,.911.007m-2.543,14.446V111.8c0,3.775,0,3.775,3.795,3.656a2.09,2.09,0,0,1,.3,0c.592.069.781-.2.777-.78-.021-2.724-.012-5.448-.006-8.173,0-.439-.027-.8-.619-.781-1.354.043-2.934-.352-3.989.224-.779.426-.17,2.143-.255,3.281-.03.4,0,.807,0,1.211" transform="translate(-199.903 -66.692)"/>
    <path id="Trazado_765513" data-name="Trazado 765513" d="M142.291,12.137c0,2.128-.016,4.256.009,6.383.008.683-.017,1.106-.937,1.084-1.29-.031-3.02-.593-3.755.262-.631.735-.213,2.415-.165,3.673.029.755-.244.894-.946.918-3.889.137-3.931.158-3.909-3.684.006-1.024-.3-1.278-1.264-1.223-1.151.066-2.7.412-3.368-.172-.79-.693-.235-2.278-.249-3.473-.039-3.241.009-6.484-.029-9.726-.009-.825.044-1.276,1.1-1.242,1.236.041,2.9.6,3.608-.248.6-.722.222-2.324.156-3.529-.048-.887.262-1.126,1.1-1.067,1.2.085,2.772-.383,3.523.216.8.636.27,2.275.228,3.463-.037,1.029.3,1.279,1.268,1.224,1.151-.066,2.7-.412,3.368.173.79.693.2,2.277.252,3.473.049,1.163.011,2.33.011,3.495m-4.866.209c0-2.505,0-2.505-2.511-2.505-2.355,0-2.355,0-2.355,2.36,0,2.506,0,2.506,2.511,2.506,2.355,0,2.355,0,2.355-2.36" transform="translate(-88.654 0)"/>
    <path id="Trazado_765514" data-name="Trazado 765514" d="M475.76,329.265a.5.5,0,0,1-.532-.541c.476-.114.667.054.532.541" transform="translate(-330.359 -228.491)" fill="#040301"/>
    <path id="Trazado_765515" data-name="Trazado 765515" d="M169.353,151.329c-.175-.035-.308-.1-.242-.319l.242.319" transform="translate(-117.547 -104.976)" fill="#fdfdfd"/>
    <path id="Trazado_765516" data-name="Trazado 765516" d="M141.257,114.362c-.218.074-.284-.069-.334-.234l.334.234" transform="translate(-97.964 -79.337)" fill="#fdfdfd"/>
    <path id="Trazado_765517" data-name="Trazado 765517" d="M32.233,232.166c3.183,3.239,7.143,4.278,10.826,5.838a7.326,7.326,0,0,0,2.649.309c4.128.082,8.226.262,12.264-1.353a31.48,31.48,0,0,0,11.74-8.215,13.324,13.324,0,0,0,2.667-3.938,1.449,1.449,0,0,1,1.642-1.031q18.924.033,37.849.019a2.745,2.745,0,0,1,3.078,3.048c.007,13.174-.008,26.348.027,39.521,0,1.007-.281,1.242-1.26,1.241q-40.129-.039-80.257-.009c-.812,0-1.256-.034-1.252-1.091.043-11.3.027-22.6.027-34.34m55.792,15.955h13.668c3.548,0,3.5,0,3.558-3.483.02-1.131-.262-1.418-1.405-1.412-9.719.051-19.439.029-29.158.029-3.578,0-3.54,0-3.553,3.635,0,.985.249,1.265,1.249,1.255,5.214-.051,10.428-.024,15.642-.024m7.621-14.6H89.272c-3.568,0-3.528,0-3.541,3.641,0,.994.265,1.259,1.254,1.248,4.855-.051,9.712-.023,14.568-.023,3.778,0,3.748,0,3.69-3.793-.013-.856-.243-1.107-1.1-1.092-2.832.051-5.665.019-8.5.019m2.2,24.329h3.792c3.656,0,3.618,0,3.608-3.722,0-.948-.257-1.182-1.183-1.166-3.235.058-6.471.023-9.707.023-3.885,0-3.857,0-3.756,3.875.021.8.245,1.026,1.028,1.007,2.072-.049,4.145-.016,6.218-.016M75.927,238.389h1.212c3.89,0,3.867,0,3.771-3.85-.019-.765-.171-1.066-1-1.034-1.665.064-3.333.019-5,.019-3.89,0-3.867,0-3.771,3.851.019.765.17,1.079,1,1.033,1.259-.07,2.525-.018,3.788-.018M73.57,257.852c2.453,0,2.453,0,2.455-1.655,0-3.211,0-3.211-1.806-3.211-3.059,0-3.059,0-3.06,1.806,0,3.06,0,3.06,2.411,3.06m12.186-2.421c0-2.445,0-2.445-2.421-2.445-2.445,0-2.445,0-2.445,2.421,0,2.445,0,2.445,2.421,2.445,2.445,0,2.445,0,2.445-2.421" transform="translate(-22.388 -155.56)" fill="#91b3fa"/>
    <path id="Trazado_765518" data-name="Trazado 765518" d="M53.751,149.255a24.454,24.454,0,0,1-10.814,6.195,12.921,12.921,0,0,1-5.123.39c-1.318-.184-2.676.2-4.084-.1a22.488,22.488,0,0,1-9.282-4.3A21.7,21.7,0,0,1,17.2,141.3a20.947,20.947,0,0,1,.231-15.1c2.7-6.762,7.578-11.318,14.668-13.158a21.523,21.523,0,0,1,19.331,3.974,20.416,20.416,0,0,1,7.582,11.6,21.113,21.113,0,0,1-4.059,19.032c-.339.429-.624.9-.933,1.353l-.269.247m-13.385-29.39c0-2.793,0-2.793-2.854-2.793a9.742,9.742,0,0,1-1.064-.006c-.7-.077-.992.138-.966.9.043,1.258.453,2.937-.181,3.673-.74.858-2.467.195-3.76.3-.36.029-.9-.181-.9.48.008,2.937-.009,5.875.108,8.808a3.518,3.518,0,0,0,.542,1.32c1.506,2.516,3.461,4.068,6.583,4.032,1.824-.021,2.805,1.657,2.456,4.049-.236,1.614-1.61.654-2.416.715a2.143,2.143,0,0,1-2.41-2.27c-.187-2.54-.187-2.54-2.81-2.539-.456,0-.912-.005-1.368,0-.292.005-.552-.031-.7.381-.73,2.089.571,6.7,2.638,7.7s2.515,2.389,2.232,4.375c-.042.3.034.614-.013.91-.157,1,.246,1.256,1.236,1.252,3.611-.016,3.651.023,3.613-3.555-.011-1.015.173-1.488,1.3-1.356.85.1,1.724-.026,2.581.033.776.053,1.054-.181,1.031-1-.058-2.076.054-4.159-.039-6.232a7.818,7.818,0,0,0-2.985-5.97c-.5-.4-1.671-.383-1.382-1.194.19-.535,1.284-.127,1.967-.213a1.207,1.207,0,0,1,.152,0c2.409,0,2.4,0,1.728-2.293a3.965,3.965,0,0,1-.067-.9c-.13-2.488-.909-4.585-3.463-5.542a1.082,1.082,0,0,1-.8-1.247c.041-.605.009-1.216.009-1.824" transform="translate(-11.058 -78.037)" fill="#e6b046"/>
    <path id="Trazado_765519" data-name="Trazado 765519" d="M392.042,292.31a35.14,35.14,0,0,1,6.659,10.552,29.1,29.1,0,0,1,2.19,8.15c.092,1.031.8,2.368.105,3.006-.787.727-2.217.237-3.365.24-9.574.02-19.147-.006-28.721.035-1.12,0-1.535-.187-1.528-1.449q.088-15.5.012-31c0-1.264.376-1.516,1.612-1.373a37.89,37.89,0,0,1,18.567,7.6c.636.475,1.2,1.046,1.8,1.573-.042.2.028.286.237.227l2.213,2.208c-.059.2.027.269.22.233" transform="translate(-255.388 -194.945)" fill="#fe7062"/>
    <path id="Trazado_765520" data-name="Trazado 765520" d="M73.2,382.9c13.274,0,26.549.018,39.823-.03,1.231,0,1.692.232,1.574,1.542-.181,2.01.322,4.114-.95,5.95a4.971,4.971,0,0,1-4.367,2.281q-31.236-.027-62.471-.012c-3.445,0-6.89,0-10.336-.008a4.751,4.751,0,0,1-4.609-4.544c-.009-1.665-.593-3.844.231-4.855.86-1.054,3.128-.306,4.776-.31q18.164-.043,36.327-.016" transform="translate(-22.003 -266.013)" fill="#cbd1da"/>
    <path id="Trazado_765521" data-name="Trazado 765521" d="M316.783,425.532c3.882-5.042,7.717-10.053,11.593-15.032a26.812,26.812,0,0,0,2.091-2.726c.28-.473.719-.451,1.18-.451,7.09.006,14.18.03,21.269-.023,1.106-.008,1.011.605.894,1.229a24.493,24.493,0,0,1-7.231,13.825,23.967,23.967,0,0,1-13.4,6.632,24.438,24.438,0,0,1-13.609-1.907c-.976-.435-1.878-1.035-2.79-1.546" transform="translate(-220.214 -283.138)" fill="#e5e9ed"/>
    <path id="Trazado_765522" data-name="Trazado 765522" d="M140.224,445.889c-3.649,0-7.3-.027-10.946.019-.932.012-1.319-.156-1.3-1.218.066-4.1.05-8.21.008-12.314-.009-.865.241-1.106,1.1-1.1q11.1.048,22.2.005c.743,0,1.074.132,1.066.984-.042,4.206-.051,8.413,0,12.619.013.982-.43,1.026-1.185,1.02-3.649-.027-7.3-.012-10.946-.012" transform="translate(-88.963 -299.803)" fill="#949fab"/>
    <path id="Trazado_765523" data-name="Trazado 765523" d="M296.706,366.482c1.992,2.286,3.826,4.4,5.673,6.507.893,1.017,1.771,2.051,2.729,3,.6.6.151,1.068-.13,1.43-3.324,4.284-6.687,8.538-10.04,12.8-.832,1.057-1.727,2.069-2.477,3.181-.419.622-.714.571-1.157.138a30.648,30.648,0,0,1-4.634-6.546c-.344-.58.128-.723.672-.766a9.33,9.33,0,0,0,6.831-3.492,9.569,9.569,0,0,0,2.208-4.92c.459-3.71.032-7.424.325-11.334" transform="translate(-199.2 -254.763)" fill="#f0dcc0"/>
    <path id="Trazado_765524" data-name="Trazado 765524" d="M328.922,338.3c-2.335-2.66-4.375-4.984-6.418-7.307a17.613,17.613,0,0,0-1.321-1.45,6.531,6.531,0,0,1-2.171-5.273c.012-.412.319-.644.786-.893a26.372,26.372,0,0,1,8.3-2.617c1.021-.167.815.415.815.927.008,5.368,0,10.736,0,16.613" transform="translate(-221.762 -222.955)" fill="#57dbd8"/>
    <path id="Trazado_765525" data-name="Trazado 765525" d="M140.05,233.062l.269-.247c.048.232-.07.283-.269.247" transform="translate(-97.357 -161.843)" fill="#fdd35a"/>
    <path id="Trazado_765526" data-name="Trazado 765526" d="M439.726,310.866c-.208.059-.279-.026-.237-.227l.237.227" transform="translate(-305.506 -215.943)" fill="#020202"/>
    <path id="Trazado_765527" data-name="Trazado 765527" d="M447.732,318.86c-.194.036-.28-.03-.22-.233l.22.233" transform="translate(-311.079 -221.496)" fill="#020202"/>
    <path id="Trazado_765528" data-name="Trazado 765528" d="M278.092,450.609c-.181-.026-.31-.093-.246-.312l.246.312" transform="translate(-193.135 -313.028)" fill="#040301"/>
    <path id="Trazado_765529" data-name="Trazado 765529" d="M463.209,62.625c0-4.4.029-8.8-.023-13.2-.012-.981.243-1.267,1.246-1.264,3.642.009,3.642-.031,3.642,3.55,0,8.094-.024,16.188.027,24.282.007,1.123-.253,1.441-1.4,1.421-3.489-.062-3.49-.007-3.49-3.555V62.625" transform="translate(-321.987 -33.477)" fill="#fe7062"/>
    <path id="Trazado_765530" data-name="Trazado 765530" d="M223.8,76.289c0-3.692.022-7.384-.017-11.075-.009-.821.177-1.113,1.068-1.13,3.815-.073,3.814-.106,3.814,3.678,0,6.473-.018,12.946.02,19.419.006.946-.186,1.289-1.224,1.286-3.662-.01-3.662.035-3.662-3.682v-8.5" transform="translate(-155.562 -44.536)" fill="#fe7062"/>
    <path id="Trazado_765531" data-name="Trazado 765531" d="M388.271,85.022c0,1.261-.049,2.525.017,3.783.044.824-.267.984-1.033,1.005-3.85.1-3.85.128-3.85-3.772,0-1.665.044-3.331-.018-4.994-.031-.823.269-.984,1.035-1,3.85-.1,3.849-.128,3.849,3.772q0,.605,0,1.211" transform="translate(-266.513 -55.62)" fill="#fe7062"/>
    <path id="Trazado_765532" data-name="Trazado 765532" d="M303.32,132.554c0-.4-.025-.809,0-1.211.085-1.138-.523-2.855.255-3.281,1.054-.577,2.635-.182,3.989-.224.592-.019.619.342.619.781-.006,2.724-.015,5.449.006,8.173,0,.58-.184.849-.777.78a2.09,2.09,0,0,0-.3,0c-3.795.119-3.795.12-3.795-3.656Z" transform="translate(-210.757 -88.803)" fill="#fe7062"/>
    <path id="Trazado_765533" data-name="Trazado 765533" d="M148.892,34.787c0,2.36,0,2.36-2.355,2.36-2.511,0-2.511,0-2.511-2.506,0-2.36,0-2.36,2.355-2.36,2.511,0,2.511,0,2.511,2.505" transform="translate(-100.121 -22.441)" fill="#fe7062"/>
    <path id="Trazado_765534" data-name="Trazado 765534" d="M176.8,292.474c-5.214,0-10.428-.027-15.642.024-1,.01-1.252-.27-1.249-1.255.013-3.635-.025-3.635,3.553-3.635,9.719,0,19.439.022,29.158-.029,1.143-.006,1.425.282,1.405,1.413-.062,3.481-.01,3.483-3.558,3.483H176.8" transform="translate(-111.159 -199.913)"/>
    <path id="Trazado_765535" data-name="Trazado 765535" d="M217.7,255.706c2.833,0,5.666.032,8.5-.019.856-.015,1.086.235,1.1,1.092.059,3.794.088,3.793-3.69,3.793-4.856,0-9.712-.028-14.568.023-.989.011-1.258-.254-1.254-1.248.013-3.641-.026-3.641,3.541-3.641H217.7" transform="translate(-144.445 -177.742)"/>
    <path id="Trazado_765536" data-name="Trazado 765536" d="M230.944,324.411c-2.073,0-4.146-.032-6.218.017-.783.018-1.007-.207-1.028-1.008-.1-3.876-.129-3.875,3.756-3.875,3.236,0,6.472.036,9.707-.022.926-.017,1.181.218,1.183,1.166.009,3.723.048,3.722-3.608,3.722h-3.792" transform="translate(-155.486 -222.118)"/>
    <path id="Trazado_765537" data-name="Trazado 765537" d="M164.653,260.568c-1.263,0-2.529-.051-3.788.018-.829.046-.981-.268-1-1.033-.1-3.851-.119-3.851,3.771-3.85,1.667,0,3.336.045,5-.019.829-.032.98.27,1,1.034.1,3.851.119,3.851-3.772,3.851h-1.212" transform="translate(-111.114 -177.739)"/>
    <path id="Trazado_765538" data-name="Trazado 765538" d="M162.4,324.465c-2.412,0-2.412,0-2.411-3.06,0-1.807,0-1.807,3.06-1.806,1.809,0,1.809,0,1.806,3.211,0,1.655,0,1.655-2.455,1.655" transform="translate(-111.217 -222.172)"/>
    <path id="Trazado_765539" data-name="Trazado 765539" d="M196.777,322.043c0,2.421,0,2.421-2.445,2.421-2.421,0-2.421,0-2.421-2.445,0-2.421,0-2.421,2.445-2.421,2.421,0,2.421,0,2.421,2.445" transform="translate(-133.408 -222.171)"/>
    <path id="Trazado_765540" data-name="Trazado 765540" d="M73.484,130.8c0,.608.032,1.218-.009,1.824a1.082,1.082,0,0,0,.8,1.247c2.554.957,3.333,3.054,3.463,5.542a3.965,3.965,0,0,0,.067.9c.674,2.3.681,2.293-1.728,2.293a1.2,1.2,0,0,0-.152,0c-.683.086-1.777-.322-1.967.213-.288.811.887.794,1.382,1.194a7.818,7.818,0,0,1,2.985,5.97c.093,2.074-.018,4.156.039,6.232.023.82-.255,1.054-1.031,1-.858-.059-1.732.066-2.581-.033-1.125-.132-1.308.341-1.3,1.356.038,3.578,0,3.54-3.612,3.555-.99,0-1.393-.254-1.236-1.252.047-.3-.029-.612.013-.91.282-1.986-.165-3.376-2.232-4.375s-3.369-5.613-2.638-7.7c.144-.412.4-.376.7-.381.456-.009.912,0,1.368,0,2.623,0,2.623,0,2.81,2.539a2.143,2.143,0,0,0,2.41,2.27c.806-.061,2.18.9,2.416-.715.349-2.392-.632-4.07-2.456-4.049-3.122.036-5.077-1.516-6.583-4.032a3.518,3.518,0,0,1-.542-1.32c-.117-2.933-.1-5.871-.108-8.808,0-.66.535-.451.9-.48,1.293-.1,3.021.56,3.76-.3.634-.736.224-2.414.181-3.673-.026-.767.27-.982.966-.9A9.742,9.742,0,0,0,70.63,128c2.854,0,2.854,0,2.855,2.793m-.046,12.157c.063.2.159.323.381.176a7.128,7.128,0,0,1-.345-2.834c-.1-1.563-1.179-2.695-3.975-2.53-1.864.11-.679,1.625-.817,2.442a2.046,2.046,0,0,0,1.808,2.354c.963.219,1.964.267,2.948.391" transform="translate(-44.176 -88.969)" fill="#010000"/>
    <path id="Trazado_765541" data-name="Trazado 765541" d="M84.587,165.228c-.984-.124-1.985-.173-2.948-.391a2.046,2.046,0,0,1-1.808-2.354c.138-.817-1.047-2.332.817-2.442,2.8-.165,3.876.968,3.975,2.53a7.128,7.128,0,0,0,.345,2.834.275.275,0,0,0-.381-.176" transform="translate(-55.324 -111.242)" fill="#ffd55b"/>
    <path id="Trazado_765542" data-name="Trazado 765542" d="M96.374,177.219c-.222.148-.318.021-.381-.176a.275.275,0,0,1,.381.176" transform="translate(-66.73 -123.058)" fill="#ffd55b"/>
  </g>
</svg>
