<svg xmlns="http://www.w3.org/2000/svg" xmlns:xlink="http://www.w3.org/1999/xlink" width="50" height="45" viewBox="0 0 50 45">
  <defs>
    <clipPath id="clip-path">
      <rect id="Rectángulo_361318" data-name="Rectángulo 361318" width="50" height="45" transform="translate(0 0.354)"/>
    </clipPath>
  </defs>
  <g id="Grupo_1025454" data-name="Grupo 1025454" transform="translate(0 -0.303)">
    <g id="Grupo_1025453" data-name="Grupo 1025453" transform="translate(0 -0.051)" clip-path="url(#clip-path)">
      <path id="Trazado_765665" data-name="Trazado 765665" d="M190.65,0c.444.044.888.083,1.331.132a19.94,19.94,0,0,1,9.995,3.951A20.466,20.466,0,0,1,210.2,19.535c0,.038.008.076.017.153h.266c.994,0,1.988.017,2.981-.007a.988.988,0,0,1,1.086.66v.416c-.825,1.092-1.647,2.186-2.477,3.274-.668.876-1.344,1.746-2.018,2.617a.847.847,0,0,1-1.453,0q-2.114-2.79-4.215-5.591a.846.846,0,0,1,.681-1.372H208.5c0-.1,0-.193,0-.281a18.447,18.447,0,0,0-3.511-9.855,18.844,18.844,0,0,0-30.566-.026.85.85,0,1,1-1.368-1A20.415,20.415,0,0,1,184.7.624,19.8,19.8,0,0,1,188.53.038,1.994,1.994,0,0,0,188.754,0ZM206.76,21.394l2.577,3.417,2.632-3.417Z" transform="translate(-164.854 0.025)"/>
      <path id="Trazado_765666" data-name="Trazado 765666" d="M0,309.246q1.585-2.128,3.171-4.255c.4-.537.81-1.068,1.211-1.6a.859.859,0,0,1,1.482-.009q1.6,2.067,3.186,4.138c.357.464.712.93,1.072,1.391a.853.853,0,0,1-.7,1.421c-1.04,0-2.08,0-3.12,0-.076,0-.151.007-.263.013.025.35.037.686.076,1.019a18.528,18.528,0,0,0,8.407,13.847A17.962,17.962,0,0,0,27.2,328.154a18.548,18.548,0,0,0,12.906-7.646.88.88,0,0,1,.885-.422.8.8,0,0,1,.674.59.9.9,0,0,1-.192.841,20.751,20.751,0,0,1-2.53,2.876A20.124,20.124,0,0,1,28.2,329.725a20.5,20.5,0,0,1-23.85-19.167c0-.068-.012-.135-.021-.231H4.05c-.971,0-1.942-.019-2.912.007A1.049,1.049,0,0,1,0,309.708v-.462m2.555-.626h5.21L5.132,305.2l-2.577,3.418" transform="translate(0 -288.926)"/>
      <path id="Trazado_765667" data-name="Trazado 765667" d="M0,877.644A1.016,1.016,0,0,1,1.079,877q5.72.018,11.441,0a.932.932,0,0,1,.819.337.845.845,0,0,1-.612,1.357,2.879,2.879,0,0,1-.3,0c-3.783,0-7.566-.005-11.349.006A1.015,1.015,0,0,1,0,878.06Z" transform="translate(0 -836.429)"/>
      <path id="Trazado_765668" data-name="Trazado 765668" d="M0,943.941a1.039,1.039,0,0,1,1.108-.633q5.719.019,11.439,0a.877.877,0,0,1,.947,1.042.976.976,0,0,1-.6.654H.6a1.176,1.176,0,0,1-.6-.647Z" transform="translate(0 -899.674)"/>
      <path id="Trazado_765669" data-name="Trazado 765669" d="M0,811.563a1.836,1.836,0,0,1,.341-.419,1.012,1.012,0,0,1,.532-.175q3.776-.017,7.552-.006a.845.845,0,1,1,0,1.689c-1.27.008-2.54,0-3.811,0-1.17,0-2.341-.015-3.51.007A1.034,1.034,0,0,1,0,812.025v-.462" transform="translate(0 -773.445)"/>
      <path id="Trazado_765670" data-name="Trazado 765670" d="M0,966a1.176,1.176,0,0,0,.6.647H0Z" transform="translate(0 -921.318)"/>
      <path id="Trazado_765671" data-name="Trazado 765671" d="M232.758,101.081a1.036,1.036,0,0,1-.382.711c-1.027.885-2.048,1.777-3.08,2.656a.455.455,0,0,0-.17.475,11.517,11.517,0,0,1,0,3.521.452.452,0,0,0,.173.474c1.02.869,2.031,1.749,3.042,2.628a.875.875,0,0,1,.207,1.267q-1.138,1.97-2.274,3.942-.063.11-.13.219a.846.846,0,0,1-1.1.405c-1.071-.367-2.139-.741-3.209-1.111-.291-.1-.6-.3-.87-.268s-.506.316-.753.494a11.464,11.464,0,0,1-2.635,1.423.336.336,0,0,0-.243.291c-.253,1.355-.516,2.708-.776,4.061a.855.855,0,0,1-.916.767q-2.427,0-4.853,0a.859.859,0,0,1-.928-.78c-.26-1.354-.523-2.707-.776-4.061a.317.317,0,0,0-.231-.272,11.484,11.484,0,0,1-3.168-1.828.374.374,0,0,0-.415-.069c-1.285.453-2.574.9-3.862,1.342a.854.854,0,0,1-1.153-.423q-1.209-2.089-2.414-4.182a.854.854,0,0,1,.208-1.194q1.544-1.341,3.094-2.674a.4.4,0,0,0,.152-.417,11.649,11.649,0,0,1,0-3.591.4.4,0,0,0-.15-.416c-1.031-.88-2.053-1.771-3.077-2.659a.866.866,0,0,1-.215-1.229q1.182-2.052,2.366-4.1a.89.89,0,0,1,1.256-.462c1.279.447,2.561.888,3.839,1.336a.3.3,0,0,0,.334-.058,11.626,11.626,0,0,1,3.227-1.862.3.3,0,0,0,.206-.267c.255-1.347.516-2.692.775-4.038a.86.86,0,0,1,.956-.8q2.4,0,4.807,0a.853.853,0,0,1,.941.79c.262,1.353.519,2.707.789,4.059a.374.374,0,0,0,.189.242,12.048,12.048,0,0,1,3.225,1.87.322.322,0,0,0,.354.059c1.271-.447,2.545-.885,3.818-1.327a.887.887,0,0,1,1.27.47q1.186,2.049,2.366,4.1a3.425,3.425,0,0,1,.19.486M230.8,112.454l-.244-.215c-.955-.827-1.908-1.657-2.866-2.48a.927.927,0,0,1-.338-.965,10.28,10.28,0,0,0,0-4.222.925.925,0,0,1,.336-.965c.988-.848,1.967-1.705,2.955-2.552.122-.1.144-.177.058-.323q-.8-1.364-1.581-2.742a.234.234,0,0,0-.342-.128c-1.183.419-2.375.814-3.554,1.244A1.091,1.091,0,0,1,224,98.868a9.636,9.636,0,0,0-3.48-2,1.015,1.015,0,0,1-.75-.865c-.229-1.258-.482-2.511-.717-3.767-.029-.157-.079-.217-.249-.216q-1.595.012-3.19,0c-.165,0-.221.048-.251.211-.237,1.272-.489,2.541-.727,3.812a.924.924,0,0,1-.648.79,10.042,10.042,0,0,0-3.639,2.091.985.985,0,0,1-1.084.208c-1.212-.43-2.43-.843-3.643-1.27-.15-.053-.226-.046-.31.106-.3.539-.614,1.068-.922,1.6-.257.445-.512.891-.77,1.341.073.066.129.118.186.168.972.843,1.941,1.689,2.917,2.526a.925.925,0,0,1,.341.963,10.311,10.311,0,0,0,0,4.244.894.894,0,0,1-.319.927c-.986.85-1.967,1.706-2.955,2.553-.133.114-.169.194-.071.359q.8,1.352,1.573,2.72c.089.157.163.2.34.136,1.212-.43,2.429-.844,3.641-1.273a.974.974,0,0,1,1.065.2,9.958,9.958,0,0,0,3.573,2.07,1,1,0,0,1,.731.855c.23,1.257.483,2.51.715,3.768.033.181.109.217.272.217q1.583-.008,3.166,0c.163,0,.224-.044.254-.209.238-1.279.492-2.556.731-3.835a.94.94,0,0,1,.688-.784,10,10,0,0,0,3.6-2.075.974.974,0,0,1,1.063-.213c1.147.4,2.3.8,3.448,1.2.418.145.42.145.638-.232.524-.906,1.046-1.812,1.582-2.74" transform="translate(-192.36 -86.127)"/>
      <path id="Trazado_765672" data-name="Trazado 765672" d="M352.625,267.665a8.546,8.546,0,1,1,8.537,8.553,8.555,8.555,0,0,1-8.537-8.553m8.538,6.862a6.858,6.858,0,1,0-6.85-6.93,6.875,6.875,0,0,0,6.85,6.93" transform="translate(-336.323 -247.112)"/>
      <path id="Trazado_765673" data-name="Trazado 765673" d="M446.537,357.7a4.4,4.4,0,1,1,4.432-4.386,4.41,4.41,0,0,1-4.432,4.386m-2.682-4.414a2.709,2.709,0,1,0,2.692-2.7,2.717,2.717,0,0,0-2.692,2.7" transform="translate(-421.717 -332.747)"/>
    </g>
  </g>
</svg>
