<svg id="Grupo_1025462" data-name="Grupo 1025462" xmlns="http://www.w3.org/2000/svg" xmlns:xlink="http://www.w3.org/1999/xlink" width="64.572" height="107.138" viewBox="0 0 64.572 107.138">
  <defs>
    <clipPath id="clip-path">
      <rect id="Rectángulo_361344" data-name="Rectángulo 361344" width="64.572" height="107.138" fill="none"/>
    </clipPath>
  </defs>
  <g id="Grupo_1025461" data-name="Grupo 1025461" clip-path="url(#clip-path)">
    <path id="Trazado_765688" data-name="Trazado 765688" d="M32.316,348.707H62.893c1.316,0,1.678.35,1.678,1.651q0,30.669,0,61.337c0,1.164-.418,1.578-1.584,1.578H1.588C.417,413.273,0,412.866,0,411.7q0-30.76,0-61.521c0-1.064.438-1.472,1.555-1.472q15.38,0,30.76,0M2.482,351.169V410.79H62.075v-59.6h-4.15v.766q0,8.912,0,17.823c0,1.29-.367,1.654-1.678,1.655q-3.693,0-7.386,0c-1.294,0-1.661-.376-1.661-1.678q0-8.912,0-17.823v-.752H17.373v.751q0,9,0,18.006c0,1.052-.436,1.492-1.477,1.494q-3.784.007-7.569,0c-1.316,0-1.678-.356-1.678-1.654q0-8.942,0-17.884v-.727Zm6.657,17.775h5.747V351.172H9.138Zm46.3-17.754H49.688v17.78h5.748Z" transform="translate(0 -306.136)"/>
    <path id="Trazado_765689" data-name="Trazado 765689" d="M390.826,169.355a1.871,1.871,0,0,1,.025-.364,3.335,3.335,0,0,0-1.18-3.564,14.9,14.9,0,0,1-1.47-1.708,1.2,1.2,0,0,1,.659-2.072c1.237-.328,2.491-.593,3.725-.931a1.392,1.392,0,0,0,.734-.529c.682-1.035,1.309-2.106,1.968-3.156a1.24,1.24,0,0,1,2.311-.008c.66,1.05,1.284,2.122,1.964,3.158a1.391,1.391,0,0,0,.731.534c1.156.317,2.327.576,3.493.856,1.346.324,1.651,1.269.75,2.334-.735.869-1.467,1.742-2.221,2.594a1.385,1.385,0,0,0-.389,1.153c.12,1.131.12,2.279.287,3.4a1.342,1.342,0,0,1-2.076,1.457c-1.056-.518-2.165-.933-3.267-1.35a1.3,1.3,0,0,0-.851,0c-1.177.448-2.334.95-3.5,1.42a1.233,1.233,0,0,1-1.835-1.341c.04-.629.092-1.257.139-1.886h0m2.427.281c.767-.317,1.439-.547,2.067-.865a2.321,2.321,0,0,1,2.263,0c.635.324,1.315.559,2.054.867-.068-.92-.091-1.713-.2-2.495a1.908,1.908,0,0,1,.532-1.666c.545-.588,1.046-1.217,1.635-1.91-.945-.233-1.761-.46-2.59-.63a1.689,1.689,0,0,1-1.182-.863c-.429-.727-.885-1.439-1.392-2.257-.373.606-.733,1.1-.993,1.634a2.727,2.727,0,0,1-2.281,1.671,16.788,16.788,0,0,0-1.889.443c.649.761,1.26,1.39,1.76,2.1a2.384,2.384,0,0,1,.4,1.274c.011.847-.107,1.7-.183,2.7" transform="translate(-340.485 -137.163)"/>
    <path id="Trazado_765690" data-name="Trazado 765690" d="M99.881,14.724c.089-1.176.2-2.351.253-3.528a1.22,1.22,0,0,0-.253-.759c-.794-.979-1.626-1.926-2.439-2.889a1.245,1.245,0,0,1,.685-2.181c1.222-.305,2.455-.572,3.671-.9a1.3,1.3,0,0,0,.691-.5c.677-1.038,1.3-2.109,1.96-3.16A1.257,1.257,0,0,1,106.8.8c.654,1.053,1.284,2.122,1.961,3.16a1.3,1.3,0,0,0,.686.505c1.2.323,2.406.594,3.612.883a1.257,1.257,0,0,1,.727,2.233c-.785.933-1.6,1.842-2.364,2.792a1.4,1.4,0,0,0-.291.865c.055,1.259.183,2.514.258,3.772.071,1.205-.722,1.768-1.852,1.317s-2.244-.956-3.386-1.381a1.6,1.6,0,0,0-1.024,0,27.249,27.249,0,0,0-3.1,1.28c-1.223.626-2.427.054-2.144-1.5M105.629,3.58c-.5.8-.957,1.49-1.362,2.212a1.77,1.77,0,0,1-1.281.922c-.812.168-1.612.39-2.522.614.611.715,1.151,1.371,1.718,2a1.747,1.747,0,0,1,.461,1.453c-.094.823-.133,1.653-.2,2.6a12.244,12.244,0,0,0,1.537-.633,3.083,3.083,0,0,1,3.334.013,11.977,11.977,0,0,0,1.505.612c-.064-.887-.071-1.642-.186-2.381a2.081,2.081,0,0,1,.625-1.877c.52-.549.983-1.151,1.528-1.8-.969-.234-1.833-.389-2.658-.664A2.252,2.252,0,0,1,107.1,5.9c-.518-.7-.94-1.469-1.467-2.316" transform="translate(-85.178 0)"/>
    <path id="Trazado_765691" data-name="Trazado 765691" d="M293.765,14.652c.084-1.095.156-2.19.26-3.283a1.249,1.249,0,0,0-.337-1.045c-.815-.907-1.593-1.847-2.377-2.782a1.238,1.238,0,0,1,.71-2.168c1.2-.3,2.416-.558,3.611-.888a1.485,1.485,0,0,0,.776-.569c.672-1.017,1.284-2.073,1.929-3.108a1.264,1.264,0,0,1,2.354.01c.654,1.053,1.278,2.125,1.954,3.164a1.3,1.3,0,0,0,.7.495c1.156.314,2.327.577,3.492.86,1.389.338,1.677,1.259.74,2.361-.777.914-1.568,1.816-2.321,2.749a1.216,1.216,0,0,0-.25.759c.064,1.259.187,2.514.268,3.772.079,1.236-.73,1.82-1.874,1.358s-2.284-.967-3.443-1.405a1.4,1.4,0,0,0-.909.006,27.491,27.491,0,0,0-3.1,1.283c-1.256.653-2.486.093-2.181-1.569M302.7,13.4c-.069-.925-.1-1.735-.2-2.536A1.841,1.841,0,0,1,302.99,9.3c.556-.613,1.078-1.257,1.676-1.962-.865-.214-1.622-.439-2.395-.581a1.989,1.989,0,0,1-1.5-1.106c-.368-.687-.81-1.334-1.263-2.069-.5.8-.947,1.483-1.343,2.19a1.843,1.843,0,0,1-1.327.961c-.8.167-1.6.387-2.485.607.622.734,1.161,1.392,1.724,2.028a1.7,1.7,0,0,1,.441,1.4c-.092.837-.129,1.68-.2,2.626.875-.356,1.651-.648,2.405-.988a1.788,1.788,0,0,1,1.58.007c.751.342,1.526.634,2.385.986" transform="translate(-255.384 -0.009)"/>
    <path id="Trazado_765692" data-name="Trazado 765692" d="M14.374,170.918q.009.122.017.243c.091,1.314-.7,1.907-1.905,1.417-1.035-.421-2.075-.834-3.094-1.293a1.653,1.653,0,0,0-1.5-.008c-1.014.468-2.06.868-3.093,1.294-1.208.5-2.007-.073-1.923-1.391.076-1.2.2-2.392.25-3.59a1.611,1.611,0,0,0-.316-.976c-.7-.9-1.463-1.744-2.2-2.61-.992-1.161-.706-2.072.761-2.427,1.126-.273,2.259-.519,3.372-.837a1.592,1.592,0,0,0,.818-.6c.676-1.014,1.287-2.072,1.934-3.105a1.229,1.229,0,0,1,2.274-.011c.672,1.066,1.309,2.155,2,3.21a1.3,1.3,0,0,0,.689.495c1.2.324,2.408.591,3.61.892,1.239.311,1.541,1.247.72,2.23-.769.92-1.576,1.81-2.314,2.755a1.717,1.717,0,0,0-.33,1.03c.033,1.1.149,2.19.233,3.285h0m-10.9-7.328c.6.706,1.1,1.336,1.648,1.924a1.917,1.917,0,0,1,.514,1.67c-.1.788-.121,1.586-.183,2.47.864-.355,1.624-.637,2.357-.977a1.825,1.825,0,0,1,1.635-.005c.75.341,1.523.633,2.383.985a15.229,15.229,0,0,0-.151-1.737A3.023,3.023,0,0,1,12.7,164.87a12.947,12.947,0,0,0,1.086-1.281c-.92-.224-1.7-.442-2.5-.6a1.836,1.836,0,0,1-1.318-.969c-.406-.712-.858-1.4-1.339-2.174-.53.855-.96,1.639-1.483,2.354a2.116,2.116,0,0,1-.991.711c-.825.271-1.686.434-2.685.679" transform="translate(-0.023 -137.187)"/>
    <path id="Trazado_765693" data-name="Trazado 765693" d="M196.809,170.969c.088-1.155.2-2.289.246-3.426a1.411,1.411,0,0,0-.288-.867c-.763-.951-1.577-1.861-2.363-2.793-.822-.975-.52-1.934.709-2.241,1.2-.3,2.415-.565,3.611-.888a1.3,1.3,0,0,0,.691-.5c.69-1.054,1.33-2.141,2-3.209a1.236,1.236,0,0,1,2.279,0c.647,1.034,1.294,2.068,1.909,3.121a1.245,1.245,0,0,0,.891.639c1.132.246,2.253.541,3.38.807,1.357.32,1.683,1.267.789,2.317-.764.9-1.555,1.775-2.285,2.7a1.607,1.607,0,0,0-.319.975c.043,1.178.165,2.352.246,3.528.1,1.437-.672,1.975-2.021,1.419-1.09-.449-2.172-.919-3.275-1.332a1.412,1.412,0,0,0-.911,0,28.224,28.224,0,0,0-3.1,1.28c-1.45.746-2.5-.108-2.191-1.53m2.559-1.288c.868-.356,1.626-.647,2.365-.978a1.84,1.84,0,0,1,1.637,0c.748.348,1.525.633,2.367.976-.058-.828-.053-1.565-.176-2.28a2.239,2.239,0,0,1,.7-2.089c.5-.512.937-1.087,1.453-1.7-.939-.228-1.744-.444-2.558-.614a1.734,1.734,0,0,1-1.232-.9c-.418-.731-.881-1.436-1.379-2.239-.511.835-.906,1.6-1.416,2.27a2.537,2.537,0,0,1-1.128.818c-.813.283-1.672.434-2.612.665.587.691,1.092,1.323,1.638,1.917a1.86,1.86,0,0,1,.529,1.608c-.1.8-.126,1.617-.192,2.538" transform="translate(-170.267 -137.21)"/>
    <path id="Trazado_765694" data-name="Trazado 765694" d="M20.328,368.883h4.166v.727q0,8.942,0,17.884c0,1.3.362,1.653,1.678,1.654q3.784,0,7.569,0c1.041,0,1.477-.442,1.477-1.494q0-9,0-18.006v-.751H65.047v.752q0,8.912,0,17.823c0,1.3.367,1.677,1.661,1.678q3.693,0,7.386,0c1.311,0,1.678-.365,1.678-1.655q0-8.912,0-17.823V368.9h4.15v59.6H20.328ZM54.693,393.1c.371-.592.646-1.038.929-1.479.449-.7.943-1.378,1.348-2.1a10.994,10.994,0,0,0,.9-6.9,7.234,7.234,0,0,0-1.379-3.668,3.5,3.5,0,0,0-4.975-.827,5.628,5.628,0,0,0-1.644,1.6,22.528,22.528,0,0,0-1.9,3.8,47.036,47.036,0,0,1-3.992,8.748,11.54,11.54,0,0,1-2.857,3.3,3.141,3.141,0,0,1-1.979.655c-2.318-.033-4.637-.013-6.956-.013-1.877,0-2.088.213-2.088,2.105q0,9.977,0,19.954a3.278,3.278,0,0,0,.055.787c.154.616.644.885,1.545.885H65.632c.183,0,.366,0,.549-.015a4.235,4.235,0,0,0,3.861-3.275,4.33,4.33,0,0,0-1.1-4c1.648-2.551,1.648-3.734,0-6.138a4.4,4.4,0,0,0-.023-6.123,4.292,4.292,0,0,0-3.274-7.3c-3.234-.015-6.468,0-9.7,0H54.693" transform="translate(-17.846 -323.85)" fill="#dee4f0"/>
    <rect id="Rectángulo_361341" data-name="Rectángulo 361341" width="5.747" height="17.772" transform="translate(9.138 45.036)" fill="#f0dcc0"/>
    <rect id="Rectángulo_361342" data-name="Rectángulo 361342" width="5.748" height="17.78" transform="translate(49.688 45.054)" fill="#f0dcc0"/>
    <path id="Trazado_765695" data-name="Trazado 765695" d="M418.056,195.407c.076-1,.194-1.848.183-2.7a2.384,2.384,0,0,0-.4-1.275c-.5-.708-1.11-1.337-1.76-2.1a16.788,16.788,0,0,1,1.889-.443,2.727,2.727,0,0,0,2.281-1.671c.26-.538.62-1.027.993-1.634.507.819.963,1.53,1.392,2.257a1.689,1.689,0,0,0,1.182.863c.828.17,1.645.4,2.59.63-.589.692-1.09,1.321-1.635,1.91a1.908,1.908,0,0,0-.532,1.666c.106.782.128,1.575.2,2.495-.739-.308-1.419-.544-2.054-.867a2.321,2.321,0,0,0-2.263,0c-.628.318-1.3.549-2.067.865" transform="translate(-365.287 -162.934)" fill="#fe7062"/>
    <path id="Trazado_765696" data-name="Trazado 765696" d="M130.377,29.319c.527.847.949,1.617,1.467,2.316a2.252,2.252,0,0,0,1.029.758c.824.275,1.689.431,2.658.664-.545.647-1.009,1.249-1.528,1.8a2.081,2.081,0,0,0-.625,1.877c.115.738.121,1.494.186,2.381a11.976,11.976,0,0,1-1.505-.612,3.083,3.083,0,0,0-3.334-.013,12.243,12.243,0,0,1-1.537.633c.071-.945.111-1.775.2-2.6a1.747,1.747,0,0,0-.461-1.453c-.566-.632-1.106-1.287-1.718-2,.91-.225,1.711-.447,2.522-.614a1.77,1.77,0,0,0,1.281-.922c.4-.722.866-1.412,1.362-2.212" transform="translate(-109.926 -25.74)" fill="#57dbd8"/>
    <path id="Trazado_765697" data-name="Trazado 765697" d="M327.569,39.066c-.859-.352-1.634-.643-2.385-.986a1.788,1.788,0,0,0-1.58-.007c-.754.34-1.53.632-2.405.988.068-.946.1-1.789.2-2.626a1.7,1.7,0,0,0-.441-1.4c-.564-.636-1.1-1.294-1.724-2.028.889-.22,1.681-.441,2.485-.607a1.843,1.843,0,0,0,1.327-.961c.4-.708.846-1.386,1.343-2.19.453.735.9,1.382,1.263,2.069a1.989,1.989,0,0,0,1.5,1.106c.773.141,1.53.367,2.395.581-.6.7-1.12,1.349-1.676,1.962a1.841,1.841,0,0,0-.494,1.563c.1.8.13,1.611.2,2.536" transform="translate(-280.258 -25.678)" fill="#57dbd8"/>
    <path id="Trazado_765698" data-name="Trazado 765698" d="M28.286,189.361c1-.245,1.86-.408,2.685-.679a2.116,2.116,0,0,0,.991-.711c.523-.715.953-1.5,1.483-2.354.481.776.934,1.461,1.339,2.174a1.836,1.836,0,0,0,1.318.969c.794.157,1.576.375,2.5.6a12.945,12.945,0,0,1-1.086,1.281,3.023,3.023,0,0,0-1.023,3.052,15.229,15.229,0,0,1,.151,1.737c-.86-.353-1.633-.644-2.383-.985a1.825,1.825,0,0,0-1.635.005c-.733.341-1.493.623-2.357.977.062-.884.082-1.682.183-2.47a1.917,1.917,0,0,0-.514-1.67c-.547-.588-1.048-1.219-1.648-1.924" transform="translate(-24.833 -162.957)" fill="#fe7062"/>
    <path id="Trazado_765699" data-name="Trazado 765699" d="M224.173,195.39c.065-.921.087-1.735.192-2.538a1.86,1.86,0,0,0-.529-1.608c-.547-.593-1.051-1.226-1.638-1.917.94-.23,1.8-.382,2.612-.665a2.537,2.537,0,0,0,1.128-.818c.51-.674.905-1.435,1.416-2.27.5.8.961,1.508,1.379,2.239a1.734,1.734,0,0,0,1.232.9c.814.17,1.619.386,2.558.614-.517.608-.953,1.184-1.453,1.7a2.239,2.239,0,0,0-.7,2.089c.123.715.117,1.452.176,2.28-.842-.344-1.62-.628-2.367-.976a1.84,1.84,0,0,0-1.637,0c-.739.331-1.5.622-2.365.978" transform="translate(-195.071 -162.919)" fill="#fe7062"/>
    <path id="Trazado_765700" data-name="Trazado 765700" d="M125,454.616h1.258c3.234,0,6.468-.012,9.7,0a4.292,4.292,0,0,1,3.274,7.3,4.4,4.4,0,0,1,.023,6.123c1.645,2.4,1.645,3.588,0,6.138a4.329,4.329,0,0,1,1.1,4,4.235,4.235,0,0,1-3.861,3.275c-.183.012-.366.015-.549.015H102.008c-.9,0-1.39-.269-1.545-.885a3.278,3.278,0,0,1-.055-.787q0-9.977,0-19.954c0-1.892.211-2.1,2.088-2.105,2.319,0,4.638-.02,6.956.013a3.14,3.14,0,0,0,1.979-.655,11.538,11.538,0,0,0,2.857-3.3,47.039,47.039,0,0,0,3.992-8.748,22.525,22.525,0,0,1,1.9-3.8,5.629,5.629,0,0,1,1.644-1.6,3.5,3.5,0,0,1,4.975.827,7.234,7.234,0,0,1,1.379,3.668,10.994,10.994,0,0,1-.9,6.9c-.4.726-.9,1.4-1.348,2.1-.282.441-.557.887-.929,1.479m-13.5,24.408h.93q11.412,0,22.824,0a8.391,8.391,0,0,0,1.277-.047,1.808,1.808,0,0,0,.059-3.55,3.961,3.961,0,0,0-.788-.059c-1.281,0-2.563.009-3.845,0-.862-.009-1.383-.479-1.388-1.209s.523-1.205,1.371-1.228c.122,0,.244,0,.366,0,1.2,0,2.4.008,3.6,0a3.052,3.052,0,0,0,.9-.114,1.81,1.81,0,0,0,1.2-1.968,1.765,1.765,0,0,0-1.7-1.549c-1.423-.04-2.849.01-4.271-.043a2.123,2.123,0,0,1-1.148-.415,1.01,1.01,0,0,1-.23-1.233,1.236,1.236,0,0,1,1.262-.782c1.3-.007,2.6,0,3.906-.006,1.384-.009,2.2-.688,2.2-1.811s-.82-1.823-2.184-1.845c-.671-.011-1.342,0-2.014,0-.692,0-1.384.017-2.075-.01a1.171,1.171,0,0,1-1.181-1.157,1.2,1.2,0,0,1,1.092-1.247,4.226,4.226,0,0,1,.548-.018c1.363-.006,2.726.014,4.088-.024a1.772,1.772,0,0,0,1.725-1.722,1.8,1.8,0,0,0-1.623-1.885,5.877,5.877,0,0,0-.731-.031q-5.889,0-11.778,0c-1.088,0-1.615-.466-1.468-1.524a9.372,9.372,0,0,1,.806-2.647,22.04,22.04,0,0,1,1.483-2.3,8.561,8.561,0,0,0,.5-7.962c-.55-1.478-1.547-1.6-2.648-.447a9.045,9.045,0,0,0-1.885,3.385,45.228,45.228,0,0,1-4.345,9.59,11.991,11.991,0,0,1-4.282,4.417.9.9,0,0,0-.562.934c.018,5.92.012,11.839.012,17.759v.768m-8.621-.048h6.136V460.221h-6.136Z" transform="translate(-88.149 -385.364)"/>
    <path id="Trazado_765701" data-name="Trazado 765701" d="M191.129,496.619v-.768q0-8.88-.012-17.759a.9.9,0,0,1,.562-.935,11.99,11.99,0,0,0,4.282-4.417,45.23,45.23,0,0,0,4.345-9.59,9.043,9.043,0,0,1,1.885-3.385c1.1-1.149,2.1-1.03,2.648.447a8.561,8.561,0,0,1-.5,7.962,22.043,22.043,0,0,0-1.483,2.3,9.371,9.371,0,0,0-.806,2.647c-.146,1.058.38,1.523,1.468,1.524q5.889.008,11.778,0a5.893,5.893,0,0,1,.73.032,1.8,1.8,0,0,1,1.623,1.884,1.772,1.772,0,0,1-1.725,1.722c-1.362.039-2.726.018-4.088.024a4.235,4.235,0,0,0-.548.018,1.2,1.2,0,0,0-1.092,1.247,1.171,1.171,0,0,0,1.181,1.157c.691.026,1.383.009,2.075.01.671,0,1.343-.007,2.014,0,1.364.022,2.181.717,2.184,1.845s-.814,1.8-2.2,1.811c-1.3.008-2.6,0-3.906.005a1.236,1.236,0,0,0-1.262.782,1.01,1.01,0,0,0,.23,1.233,2.124,2.124,0,0,0,1.148.415c1.422.053,2.848,0,4.271.043a1.765,1.765,0,0,1,1.7,1.549,1.81,1.81,0,0,1-1.2,1.968,3.059,3.059,0,0,1-.9.115c-1.2.012-2.4,0-3.6,0-.122,0-.244,0-.366,0-.848.023-1.377.5-1.371,1.228s.526,1.2,1.388,1.209c1.281.013,2.563,0,3.845,0a3.962,3.962,0,0,1,.788.059,1.808,1.808,0,0,1-.059,3.55,8.384,8.384,0,0,1-1.277.047q-11.412,0-22.824,0h-.93" transform="translate(-167.786 -402.96)" fill="#57dbd8"/>
    <rect id="Rectángulo_361343" data-name="Rectángulo 361343" width="6.136" height="18.755" transform="translate(14.722 74.856)" fill="#91b3fa"/>
  </g>
</svg>
