<svg xmlns="http://www.w3.org/2000/svg" xmlns:xlink="http://www.w3.org/1999/xlink" width="152" height="152" viewBox="0 0 152 152">
  <defs>
    <clipPath id="clip-path">
      <rect id="Rectángulo_361321" data-name="Rectángulo 361321" width="71.979" height="74.325" fill="none"/>
    </clipPath>
  </defs>
  <g id="Grupo_1025441" data-name="Grupo 1025441" transform="translate(7.173 7)">
    <g id="Grupo_1020472" data-name="Grupo 1020472">
      <circle id="Elipse_8460" data-name="Elipse 8460" cx="76" cy="76" r="76" transform="translate(-7.173 -7)" fill="#57dbd8" opacity="0.45"/>
      <circle id="Elipse_8461" data-name="Elipse 8461" cx="62" cy="62" r="62" transform="translate(6.827 7)" fill="#fff"/>
      <g id="Grupo_1025456" data-name="Grupo 1025456" transform="translate(32.838 28.84)">
        <g id="Grupo_1025455" data-name="Grupo 1025455" clip-path="url(#clip-path)">
          <path id="Trazado_765674" data-name="Trazado 765674" d="M12.225,373.182l-.459-3.954c-.508-4.379-1.069-8.752-1.513-13.138A15.111,15.111,0,0,1,22.49,340c.867-.155,1.756-.19,2.635-.275a1.551,1.551,0,0,1,1.28.509,13.33,13.33,0,0,0,9.841,3.971,13.116,13.116,0,0,0,9.081-3.753,2.427,2.427,0,0,1,1.914-.732A15.146,15.146,0,0,1,61.7,356.348c-.534,5.025-1.161,10.041-1.746,15.06-.066.57-.127,1.14-.2,1.773H70.433c1.069,0,1.544.475,1.544,1.538q0,4.592,0,9.184a1.318,1.318,0,0,1-1.486,1.51H1.482A1.315,1.315,0,0,1,0,383.94q0-4.634,0-9.269a1.318,1.318,0,0,1,1.506-1.49q5.1,0,10.2,0Zm45.663-6.621c.03-.208.06-.387.081-.566.335-2.859.659-5.719,1.007-8.576a16.351,16.351,0,0,0,.019-4.74,12.607,12.607,0,0,0-11.4-10.326.928.928,0,0,0-.752.262,16.055,16.055,0,0,1-21.327.316,2.015,2.015,0,0,0-1.729-.522,12.58,12.58,0,0,0-10.92,13.726c.262,2.344.54,4.686.813,7.029.131,1.127.268,2.254.4,3.394h8.729c0-.49,0-.95,0-1.411q0-2.17,0-4.34a1.328,1.328,0,0,1,.979-1.438c.928-.223,1.626.428,1.625,1.5q-.006,5.92,0,11.839c0,.147.017.294.026.434H46.573v-.486q0-5.814,0-11.629a5.281,5.281,0,0,1,.014-.547,1.269,1.269,0,0,1,.991-1.12,1.292,1.292,0,0,1,1.59,1.369c.008,1.784,0,3.567,0,5.351v.478Zm11.466,9.255H2.632v6.957H69.353Zm-54.968-6.6c.144,1.225.3,2.392.411,3.562.033.329.15.411.466.41,2.371-.012,4.742-.006,7.113-.008.133,0,.266-.019.394-.028v-3.935Zm34.815,3.9c.057.027.082.049.107.049,2.525,0,5.05.012,7.575,0,.093,0,.252-.189.268-.306.126-.9.226-1.809.331-2.714.035-.3.064-.6.1-.924H49.2Z" transform="translate(0 -311.09)"/>
          <path id="Trazado_765675" data-name="Trazado 765675" d="M16.115,35.436H2.6V36q0,12.512,0,25.024a5.237,5.237,0,0,1-.011.547A1.3,1.3,0,0,1,0,61.489c-.007-.14,0-.281,0-.421Q0,37.35,0,13.632C0,12.454.451,12,1.626,12H17.171c1.06,0,1.546.482,1.546,1.538,0,8.046-.011,16.093.014,24.139a1.33,1.33,0,0,1-1.97,1.29,1.3,1.3,0,0,1-.647-1.2c0-.768,0-1.537,0-2.334M5.222,32.79c0-.674,0-1.3,0-1.932a1.245,1.245,0,0,1,.65-1.15,1.3,1.3,0,0,1,1.951,1.182c.013.625,0,1.251,0,1.915h3.07c0-.211,0-.363,0-.515,0-.505-.018-1.012.011-1.515a1.3,1.3,0,0,1,2.543-.3,2.844,2.844,0,0,1,.052.668c.007.542,0,1.084,0,1.637h2.586V23.993H2.64v8.8ZM16.089,14.638H2.643v6.688h2.58c0-.691-.016-1.349,0-2.006a1.289,1.289,0,0,1,2.553-.187,5.852,5.852,0,0,1,.042.922c.006.428,0,.855,0,1.268H10.9c0-.667-.02-1.3,0-1.929a1.3,1.3,0,1,1,2.6.039c.012.627,0,1.254,0,1.9h2.587Z" transform="translate(0 -10.99)"/>
          <path id="Trazado_765676" data-name="Trazado 765676" d="M648.12,35.435H634.609c0,.26,0,.506,0,.753,0,.562.014,1.124-.007,1.685a1.3,1.3,0,1,1-2.593-.035c-.01-1.18,0-2.359,0-3.539q0-10.322,0-20.644c0-1.209.439-1.648,1.648-1.649h15.5c1.09,0,1.566.476,1.566,1.561q0,23.719,0,47.438c0,.183.006.366-.007.547a1.28,1.28,0,0,1-1.163,1.188,1.266,1.266,0,0,1-1.368-.941,2.979,2.979,0,0,1-.061-.709q0-12.428,0-24.857ZM648.1,24H634.637v8.768h2.586c0-.643-.031-1.248.013-1.847a1.938,1.938,0,0,1,.289-.894,1.2,1.2,0,0,1,1.39-.427,1.268,1.268,0,0,1,.908,1.236c.018.641,0,1.282,0,1.948H642.9c0-.608,0-1.194,0-1.779a1.311,1.311,0,1,1,2.6,0c0,.585,0,1.17,0,1.77h2.6Zm-13.479-2.664h2.6c0-.652-.008-1.28,0-1.908a1.3,1.3,0,1,1,2.6-.066c.023.378.007.758.008,1.137,0,.275,0,.551,0,.835h3.07c0-.657-.016-1.286,0-1.915a1.3,1.3,0,1,1,2.6-.007c.01.64,0,1.28,0,1.921h2.581V14.648H634.623Z" transform="translate(-578.745 -10.995)"/>
          <path id="Trazado_765677" data-name="Trazado 765677" d="M297.044,13.187A13.179,13.179,0,1,1,283.816,0a13.192,13.192,0,0,1,13.228,13.186m-23.76-.017A10.581,10.581,0,1,0,283.931,2.607,10.608,10.608,0,0,0,273.284,13.17" transform="translate(-247.876 -0.001)"/>
          <path id="Trazado_765678" data-name="Trazado 765678" d="M196.872,395.16h-8.718v-.478c0-1.784.007-3.567,0-5.351a1.292,1.292,0,0,0-1.59-1.369,1.269,1.269,0,0,0-.991,1.12,5.3,5.3,0,0,0-.014.547q0,5.814,0,11.629v.486H164.415c-.009-.14-.026-.287-.026-.434q0-5.92,0-11.839c0-1.074-.7-1.726-1.625-1.5a1.328,1.328,0,0,0-.979,1.438q0,2.17,0,4.34c0,.46,0,.921,0,1.411h-8.728c-.136-1.14-.273-2.267-.4-3.394-.273-2.343-.551-4.685-.813-7.029a12.58,12.58,0,0,1,10.92-13.727,2.015,2.015,0,0,1,1.729.522,16.055,16.055,0,0,0,21.327-.316.927.927,0,0,1,.752-.262,12.607,12.607,0,0,1,11.4,10.326,16.345,16.345,0,0,1-.019,4.74c-.349,2.857-.672,5.717-1.007,8.576-.021.18-.051.359-.081.566m-18.845-11.769c-.838,0-1.635-.012-2.432,0a1.293,1.293,0,0,0-1.36,1.392q-.009,2.611,0,5.223a1.308,1.308,0,0,0,1.445,1.433q3.644,0,7.287,0a1.3,1.3,0,0,0,1.45-1.46c0-1.559-.047-3.119.014-4.675s-.6-2.006-1.94-1.923c-.61.038-1.225.006-1.865.006,0-.361,0-.655,0-.949a1.3,1.3,0,1,0-2.6-.023c-.009.306,0,.613,0,.973" transform="translate(-138.984 -339.689)" fill="#91b3fa"/>
          <rect id="Rectángulo_361319" data-name="Rectángulo 361319" width="66.722" height="6.957" transform="translate(2.632 64.725)" fill="#d2e1f1"/>
          <path id="Trazado_765681" data-name="Trazado 765681" d="M33.9,163.1H31.321v-8.8H44.77v8.786H42.184c0-.553,0-1.1,0-1.637a2.843,2.843,0,0,0-.052-.668,1.3,1.3,0,0,0-2.543.3c-.028.5-.009,1.01-.011,1.515,0,.152,0,.3,0,.515h-3.07c0-.664.01-1.29,0-1.915a1.3,1.3,0,0,0-1.951-1.182,1.245,1.245,0,0,0-.65,1.15c0,.629,0,1.258,0,1.932" transform="translate(-28.682 -141.296)" fill="#e6b046"/>
          <path id="Trazado_765682" data-name="Trazado 765682" d="M44.8,43.289v6.7H42.216c0-.648.009-1.275,0-1.9a1.3,1.3,0,1,0-2.6-.039c-.025.63,0,1.262,0,1.929H36.539c0-.412,0-.84,0-1.268a5.852,5.852,0,0,0-.042-.922,1.289,1.289,0,0,0-2.553.187c-.021.657,0,1.315,0,2.006h-2.58V43.289Z" transform="translate(-28.715 -39.641)" fill="#fe7062"/>
          <path id="Trazado_765683" data-name="Trazado 765683" d="M676.73,154.366v8.772h-2.6c0-.6,0-1.185,0-1.77a1.311,1.311,0,1,0-2.6,0c0,.585,0,1.171,0,1.779h-3.073c0-.665.014-1.307,0-1.948a1.268,1.268,0,0,0-.908-1.236,1.2,1.2,0,0,0-1.39.427,1.939,1.939,0,0,0-.289.894c-.044.6-.013,1.2-.013,1.847h-2.586v-8.768Z" transform="translate(-607.374 -141.358)" fill="#727997"/>
          <path id="Trazado_765684" data-name="Trazado 765684" d="M663.093,50.039V43.348h13.461v6.687h-2.581c0-.641.007-1.281,0-1.921a1.282,1.282,0,0,0-.924-1.262,1.3,1.3,0,0,0-1.672,1.269c-.02.628,0,1.258,0,1.915H668.3c0-.284,0-.559,0-.835,0-.379.015-.76-.008-1.137a1.3,1.3,0,1,0-2.6.066c-.011.628,0,1.256,0,1.908Z" transform="translate(-607.215 -39.695)" fill="#d2e1f1"/>
          <path id="Trazado_765685" data-name="Trazado 765685" d="M301.512,41.492a10.581,10.581,0,1,1,10.452,10.594,10.587,10.587,0,0,1-10.452-10.594" transform="translate(-276.104 -28.322)" fill="#fff"/>
          <path id="Trazado_765686" data-name="Trazado 765686" d="M422.066,493.323c0-.36-.008-.667,0-.973a1.3,1.3,0,1,1,2.6.023c0,.294,0,.588,0,.949.64,0,1.254.031,1.864-.006,1.339-.083,2,.353,1.94,1.923s-.011,3.117-.014,4.675a1.3,1.3,0,0,1-1.45,1.46q-3.644.006-7.287,0a1.308,1.308,0,0,1-1.445-1.433q-.011-2.612,0-5.223a1.293,1.293,0,0,1,1.36-1.392c.8-.016,1.594,0,2.432,0m-1.159,5.412h4.927v-2.782h-4.927Z" transform="translate(-383.023 -449.621)"/>
          <rect id="Rectángulo_361320" data-name="Rectángulo 361320" width="4.927" height="2.782" transform="translate(37.884 46.332)" fill="#e6b046"/>
        </g>
      </g>
    </g>
  </g>
</svg>
