<svg xmlns="http://www.w3.org/2000/svg" xmlns:xlink="http://www.w3.org/1999/xlink" width="152" height="152" viewBox="0 0 152 152">
  <defs>
    <clipPath id="clip-path">
      <rect id="Rectángulo_357371" data-name="Rectángulo 357371" width="75.115" height="75.103" fill="none"/>
    </clipPath>
  </defs>
  <g id="Grupo_1024434" data-name="Grupo 1024434" transform="translate(7.173 7)">
    <g id="Grupo_1020472" data-name="Grupo 1020472">
      <circle id="Elipse_8460" data-name="Elipse 8460" cx="76" cy="76" r="76" transform="translate(-7.173 -7)" fill="#57dbd8" opacity="0.45"/>
      <circle id="Elipse_8461" data-name="Elipse 8461" cx="62" cy="62" r="62" transform="translate(6.827 7)" fill="#fff"/>
      <g id="Grupo_1020670" data-name="Grupo 1020670" transform="translate(31.27 27.967)">
        <g id="Grupo_1020483" data-name="Grupo 1020483" clip-path="url(#clip-path)">
          <path id="Trazado_748271" data-name="Trazado 748271" d="M0,69.922v-.3c.2-.151.195-.3,0-.454V18.01q.292-.227,0-.454v-.3c.773-2.047,2.293-2.788,4.422-2.744,3.527.073,7.057.02,10.586.02q12.1,0,24.2.012c.556,0,.784-.088.752-.716-.059-1.157-.006-2.319-.024-3.479-.005-.36.09-.437.468-.542a13.37,13.37,0,0,1,2.13-.229c2.537-.29,5.089-.451,7.636-.642,1.679-.126,3.356-.3,5.033-.424,2.473-.185,4.941-.416,7.411-.632,1.56-.137,3.127-.19,4.689-.314,1.69-.134,1.674-.151,1.694-1.852a14.885,14.885,0,0,1,.085-3A3.816,3.816,0,0,1,71.867,0h.151c.1.157.2.157.3,0h2.723c0,.151,0,.3,0,.454-.01.627.22,1.466-.1,1.826-.368.419-1.231.166-1.871.128-1.4-.082-1.683.64-1.679,1.69q.043,10.214.009,20.428c0,1.633-.3,3.173-1.9,4.049-.326.178-.151.262-.065.434a5.63,5.63,0,0,1,.648,3.14,5,5,0,0,1-4.02,4.14c-.7.058-.716.292-.715.837q.021,13.354.02,26.708a2.105,2.105,0,0,1-.34,1.177C63.364,67.673,61.71,70.344,60.04,73a4.472,4.472,0,0,1-1.529,1.608,3.319,3.319,0,0,1-4.757-1.479.828.828,0,0,0-.854-.5c-1.538.021-3.076.008-4.614.008q-22.389,0-44.777-.011a3.387,3.387,0,0,1-.871-.1A4.01,4.01,0,0,1,0,69.922m60.97-6.389L60.8,63.41c-.254-.2-.443-.154-.719.045-.854.615-1.775,1.137-2.623,1.761a.9.9,0,0,1-1.248,0c-.592-.446-1.23-.832-1.847-1.245-1.173-.786-1.172-.786-2.259-.066-.976.646-.95.654-.269,1.635.7,1.013,1.366,2.056,2,3.113.708,1.179,1.384,2.378,2.2,3.483.608.818,1.217.734,1.773-.159,1.2-1.932,2.461-3.832,3.62-5.791.329-.557.918-1.007.9-1.748l-.175-.124-.279-.18-.175-.122-.279-.18-.175-.122-.279-.18m-1.815-2.355.288-.191.166-.112.277-.182.176-.121c.295-.314.587-.152.861.022.435.276.849.583,1.289.851.2.119.351.449.633.266.211-.138.09-.417.09-.629q.009-12.371.016-24.741a1.1,1.1,0,0,0-.492-1.011,4.521,4.521,0,0,1-1.954-3.788,6.528,6.528,0,0,1,.562-2.482c-.785,0-1.519.042-2.246-.013-.6-.045-.738.145-.737.736q.029,15.473.015,30.945c0,.294-.066.6.154.86l.046.208.1-.164a.239.239,0,0,1,.134-.039l.166-.112.288-.191.166-.112m-7.882.415.165-.112.278-.181.176-.123a1.784,1.784,0,0,1,2.77.081c.121.116.29.181.422.288s.258.268.455.186c.258-.107.132-.35.132-.525q.011-15.8.019-31.6c0-.508-.185-.565-.609-.556-1.133.025-2.269.049-3.4-.007-.672-.034-.865.141-.863.844q.038,15.536.018,31.071c0,.176-.009.353,0,.529.032.486.266.163.434.1m-13-26.2-.166-.118a4.23,4.23,0,0,1-1.753-2.963c-.068-.776-.3-.842-.952-.841q-16.07.029-32.14,0c-.664,0-.864.133-.862.84q.038,17.437.018,34.873c0,.656.019,1.312,0,1.966a1.063,1.063,0,0,0,.3.72c.386.5.9.354,1.378.354q22.385.01,44.77.006h2.967a1.523,1.523,0,0,0-.11-.358c-.8-1.272-1.573-2.558-2.413-3.8a5.106,5.106,0,0,1-.925-3.035c.046-10.389.027-20.778.027-31.167,0-.782-.017-1.564.008-2.345.012-.359-.09-.479-.46-.468-.881.026-1.764.008-2.691.008a6.078,6.078,0,0,1,.587,2.656,4.544,4.544,0,0,1-2.728,4.164,4.417,4.417,0,0,1-4.855-.491M21.6,16.951c-5.822,0-11.645.011-17.467-.009-1.167,0-1.763.255-1.732,1.669.069,3.226.04,6.454.006,9.681-.007.626.144.783.777.782q16.56-.032,33.12,0a1.117,1.117,0,0,0,1.07-.592,3.745,3.745,0,0,1,2.539-1.646,14.714,14.714,0,0,1,2.606-.21c4.612.029,9.225.014,13.838.014,1.757,0,1.726,0,1.761-1.75.012-.6-.187-.686-.722-.684-4.739.016-9.477-.008-14.216,0a3.645,3.645,0,0,1-3.224-3.2c.009-1.109-.043-2.22,0-3.327.025-.595-.147-.744-.74-.741-5.873.024-11.746.014-17.619.014m47.393-1.143c0-1.789-.019-3.578.012-5.366.009-.506-.143-.675-.633-.6a29.35,29.35,0,0,1-3.574.3c-.428.011-.66.171-.657.675q.029,5.215,0,10.43c0,.421.1.564.541.554q1.888-.043,3.777,0c.44.01.546-.134.541-.555-.021-1.814-.009-3.628-.009-5.441m-7.262.308c0-1.688-.029-3.376.015-5.063.015-.6-.23-.674-.706-.6a27.5,27.5,0,0,1-3.5.3c-.425.01-.666.158-.663.67q.03,4.912,0,9.825c0,.411.091.57.535.56q1.888-.043,3.777,0c.431.009.553-.119.547-.549-.023-1.713-.01-3.426-.01-5.139m-7.262.329c0-1.587-.024-3.174.013-4.761.013-.546-.155-.709-.678-.634a27.071,27.071,0,0,1-3.5.3c-.414.005-.692.117-.689.644q.028,4.647,0,9.295c0,.4.111.517.509.509,1.259-.024,2.519-.033,3.777,0,.488.014.581-.154.574-.6-.025-1.587-.01-3.174-.01-4.761m-7.262.35c0-1.486-.028-2.973.014-4.457.016-.571-.134-.772-.707-.68a25.259,25.259,0,0,1-3.5.3c-.425.009-.668.158-.663.67.024,2.669.007,5.339.019,8.009,0,.8.342,1.138,1.126,1.147,1.057.013,2.115-.014,3.172.017.435.013.552-.125.545-.551-.024-1.486-.009-2.972-.009-4.458m17.6,7.42H62.387c-1.925,0-1.907,0-1.881,1.914.006.461.17.519.566.516,2.015-.018,4.033-.064,6.045.013,1.225.046,2-.538,1.9-1.944-.035-.466-.2-.512-.579-.505-1.209.02-2.418.007-3.627.007M62.941,31.51a2.243,2.243,0,0,0,2.324,2.409,2.456,2.456,0,0,0,2.5-2.406A2.5,2.5,0,0,0,65.3,29.059a2.238,2.238,0,0,0-2.359,2.45m-24.208-.035a2.268,2.268,0,0,0,2.213,2.444,2.455,2.455,0,0,0,2.607-2.445,2.493,2.493,0,0,0-2.5-2.414,2.226,2.226,0,0,0-2.319,2.414" fill="#12263f"/>
          <path id="Trazado_748272" data-name="Trazado 748272" d="M0,115.719c.2.151.195.3,0,.454Z" transform="translate(0 -98.163)" fill="#010101"/>
          <path id="Trazado_748273" data-name="Trazado 748273" d="M0,455.895c.195.151.2.3,0,.454Z" transform="translate(0 -386.73)" fill="#010101"/>
          <path id="Trazado_748274" data-name="Trazado 748274" d="M475,0c-.1.157-.2.157-.3,0Z" transform="translate(-402.684)" fill="#020202"/>
          <path id="Trazado_748275" data-name="Trazado 748275" d="M51.712,197.814a4.417,4.417,0,0,0,4.855.491,4.544,4.544,0,0,0,2.728-4.164,6.08,6.08,0,0,0-.587-2.656c.927,0,1.81.017,2.691-.008.37-.011.472.11.46.469-.025.781-.008,1.563-.008,2.345,0,10.389.019,20.778-.027,31.167a5.106,5.106,0,0,0,.925,3.035c.84,1.243,1.616,2.53,2.413,3.8a1.519,1.519,0,0,1,.11.358H62.306q-22.385,0-44.77-.005c-.477,0-.993.146-1.378-.354a1.064,1.064,0,0,1-.3-.72c.017-.655,0-1.311,0-1.966q0-17.437-.018-34.873c0-.707.2-.841.862-.84q16.07.032,32.14,0c.655,0,.884.065.952.841a4.23,4.23,0,0,0,1.753,2.963c.025.082.059.151.166.118M25.543,230.23c2.191,0,4.383-.022,6.574.015.564.009.7-.129.7-.7-.03-3.452-.008-6.9-.024-10.356a1.15,1.15,0,0,1,.372-.918c.851-.823,1.665-1.684,2.525-2.5.32-.3.318-.491-.011-.762-.481-.4-.837-1.2-1.367-1.192-.445.01-.917.7-1.3,1.158a2.038,2.038,0,0,1-1.754.738c-4.106-.037-8.212-.009-12.318-.029-.5,0-.68.082-.677.639q.038,6.652,0,13.3c0,.511.154.614.629.609,2.216-.024,4.433-.011,6.65-.011m-.07-16.951c2.217,0,4.434-.023,6.65.016.575.01.7-.146.693-.7-.028-3.452-.007-6.9-.024-10.356a1.148,1.148,0,0,1,.377-.915c.832-.806,1.633-1.644,2.47-2.445.3-.291.453-.494.037-.817-.491-.382-.837-1.2-1.369-1.187-.448.014-.875.742-1.31,1.154a1.686,1.686,0,0,0-.21.217,1.347,1.347,0,0,1-1.232.521c-4.207-.022-8.414,0-12.62-.025-.51,0-.675.1-.671.644q.038,6.614,0,13.229c0,.494.067.693.633.683,2.191-.037,4.383-.015,6.574-.015m23.066-9.686h9.226c1.668,0,1.633,0,1.682-1.667.019-.64-.161-.773-.781-.77-6.428.025-12.855.015-19.283.015-1.75,0-1.721,0-1.757,1.743-.012.577.148.7.7.693,3.4-.028,6.806-.014,10.209-.014m-.079,14.529h9.3c1.671,0,1.637,0,1.685-1.664.018-.635-.152-.776-.778-.773-6.428.026-12.855.016-19.283.016-1.752,0-1.725,0-1.759,1.74-.011.57.139.7.7.7,3.377-.029,6.755-.015,10.133-.015m0-4.843h9.3c1.673,0,1.64,0,1.687-1.662.018-.631-.146-.778-.775-.776-6.428.026-12.855.016-19.283.016-1.754,0-1.727,0-1.761,1.738-.011.566.131.7.7.7,3.377-.03,6.755-.015,10.133-.015m2.575,12.108H44.229c-1.753,0-1.726,0-1.76,1.739-.011.568.135.7.7.7,4.814-.025,9.628-.014,14.442-.014,1.843,0,1.823,0,1.833-1.815,0-.495-.128-.624-.621-.619-2.6.025-5.192.012-7.788.012m-4.919-4.843H39.386c-1.752,0-1.724,0-1.758,1.74-.011.571.14.7.7.7,4.814-.025,9.628-.014,14.442-.014,1.841,0,1.821,0,1.832-1.816,0-.5-.133-.622-.623-.617-2.621.025-5.242.012-7.864.012m4.839-14.529H44.225c-1.75,0-1.721,0-1.757,1.743-.012.576.147.7.7.693,4.814-.024,9.628-.014,14.442-.014,1.84,0,1.819,0,1.83-1.818,0-.5-.14-.619-.625-.614-2.621.024-5.242.011-7.864.011m-12.086,0c-1.226,0-1.226,0-1.226,1.2,0,1.226,0,1.226,1.195,1.226,1.226,0,1.226,0,1.226-1.2,0-1.226,0-1.226-1.195-1.226m20.561,15.8c0-1.271,0-1.271-1.226-1.271-1.195,0-1.195,0-1.195,1.226,0,1.2,0,1.2,1.226,1.2,1.195,0,1.195,0,1.195-1.151m-20.5,3.572c-1.283,0-1.283,0-1.283,1.289,0,1.133,0,1.133,1.137,1.133,1.283,0,1.283,0,1.283-1.289,0-1.133,0-1.133-1.137-1.133" transform="translate(-13.435 -162.427)" fill="#e6e8ed"/>
          <path id="Trazado_748276" data-name="Trazado 748276" d="M35.006,111.649c5.873,0,11.746.009,17.619-.014.593,0,.765.147.74.741-.047,1.107.005,2.218,0,3.327a3.645,3.645,0,0,0,3.225,3.2c4.738-.011,9.477.012,14.216,0,.534,0,.734.085.722.684-.035,1.749,0,1.75-1.761,1.75-4.613,0-9.225.016-13.838-.014a14.718,14.718,0,0,0-2.606.21,3.745,3.745,0,0,0-2.539,1.646,1.117,1.117,0,0,1-1.07.592q-16.56-.027-33.12,0c-.633,0-.784-.156-.777-.782.035-3.227.063-6.455-.006-9.681-.03-1.414.565-1.673,1.733-1.669,5.822.02,11.645.009,17.467.009m.037,6.015A3.366,3.366,0,0,0,31.5,114.1a3.417,3.417,0,0,0-3.56,3.4,3.6,3.6,0,0,0,3.512,3.849c1.766.043,3.9-1.686,3.592-3.683m-16.795-.03a3.621,3.621,0,0,0,3.5,3.713,3.82,3.82,0,0,0,3.656-3.44,3.523,3.523,0,0,0-3.578-3.808,3.449,3.449,0,0,0-3.583,3.534m26.478.067a3.358,3.358,0,0,0-3.58-3.6,3.4,3.4,0,0,0-3.523,3.355,3.59,3.59,0,0,0,3.549,3.885c1.747.031,3.846-1.688,3.554-3.644" transform="translate(-13.407 -94.698)" fill="#57dbd8"/>
          <path id="Trazado_748277" data-name="Trazado 748277" d="M335.864,223.668l-.278.181c-.106-.038-.139.032-.165.112-.168.058-.4.381-.434-.1-.012-.176,0-.353,0-.529q0-15.535-.018-31.071c0-.7.191-.878.863-.844,1.131.056,2.267.032,3.4.007.424-.009.61.048.609.556q-.025,15.8-.019,31.6c0,.175.126.418-.132.525-.2.082-.319-.075-.455-.186s-.3-.172-.422-.288a1.784,1.784,0,0,0-2.77-.081c-.111-.034-.144.044-.176.123" transform="translate(-284.148 -162.369)" fill="#d2e1f1"/>
          <path id="Trazado_748278" data-name="Trazado 748278" d="M383.03,223.954c-.22-.256-.154-.566-.154-.86q0-15.473-.015-30.946c0-.591.141-.781.737-.736.727.055,1.461.013,2.246.013a6.528,6.528,0,0,0-.562,2.482,4.521,4.521,0,0,0,1.954,3.788,1.1,1.1,0,0,1,.491,1.011q-.023,12.371-.016,24.741c0,.212.122.492-.09.629-.282.183-.437-.146-.633-.266-.439-.268-.854-.575-1.289-.851-.274-.174-.566-.336-.861-.022-.112-.038-.144.042-.176.121l-.277.182c-.107-.04-.139.032-.166.112l-.288.191c-.107-.04-.139.032-.165.112l-.288.191c-.107-.04-.14.032-.166.112a.237.237,0,0,0-.134.039l-.148-.044" transform="translate(-324.776 -162.368)" fill="#d2e1f1"/>
          <path id="Trazado_748279" data-name="Trazado 748279" d="M427.629,70.737c0,1.814-.012,3.628.009,5.441.005.421-.1.565-.541.555q-1.888-.043-3.777,0c-.439.01-.543-.134-.541-.554q.023-5.215,0-10.43c0-.5.23-.664.658-.675a29.344,29.344,0,0,0,3.573-.3c.49-.073.642.1.633.6-.031,1.788-.012,3.577-.012,5.366" transform="translate(-358.636 -54.929)" fill="#fe7062"/>
          <path id="Trazado_748280" data-name="Trazado 748280" d="M379.759,74.425c0,1.713-.014,3.426.01,5.139.006.429-.116.558-.547.549q-1.888-.041-3.777,0c-.444.01-.537-.149-.535-.56q.022-4.912,0-9.824c0-.511.238-.66.663-.67a27.446,27.446,0,0,0,3.5-.3c.475-.072.721.007.706.6-.044,1.687-.015,3.375-.015,5.063" transform="translate(-318.029 -58.309)" fill="#fe7062"/>
          <path id="Trazado_748281" data-name="Trazado 748281" d="M348.936,417.976l.279.18c.032.079.067.153.175.124.013.741-.576,1.191-.9,1.748-1.158,1.959-2.415,3.86-3.62,5.791-.556.892-1.166.977-1.773.159-.82-1.1-1.5-2.3-2.2-3.483-.635-1.057-1.3-2.1-2-3.113-.681-.982-.706-.989.269-1.635,1.087-.72,1.087-.72,2.259.066.617.414,1.255.8,1.847,1.245a.9.9,0,0,0,1.248,0c.848-.623,1.769-1.146,2.623-1.761.276-.2.465-.241.72-.045.032.078.066.153.175.122l.279.18c.032.079.066.153.175.122l.279.18c.032.079.066.153.175.122" transform="translate(-287.058 -353.839)" fill="#a9b0bb"/>
          <path id="Trazado_748282" data-name="Trazado 748282" d="M331.895,78.138c0,1.587-.015,3.174.01,4.761.007.446-.086.615-.574.6-1.258-.037-2.518-.027-3.777,0-.4.007-.51-.112-.509-.509q.023-4.647,0-9.295c0-.527.274-.639.689-.644a27.072,27.072,0,0,0,3.5-.3c.523-.075.69.088.678.634-.037,1.586-.013,3.174-.013,4.761" transform="translate(-277.427 -61.693)" fill="#fe7062"/>
          <path id="Trazado_748283" data-name="Trazado 748283" d="M284.02,81.859c0,1.486-.015,2.972.009,4.458.007.426-.11.564-.545.551-1.057-.032-2.115,0-3.172-.017-.783-.01-1.122-.345-1.126-1.147-.011-2.67.005-5.339-.019-8.009,0-.511.238-.66.663-.669a25.261,25.261,0,0,0,3.5-.3c.572-.092.723.11.707.68-.043,1.485-.014,2.971-.014,4.457" transform="translate(-236.814 -65.064)" fill="#fe7062"/>
          <path id="Trazado_748284" data-name="Trazado 748284" d="M403.089,159.569c1.209,0,2.419.013,3.627-.007.384-.006.544.039.579.505.105,1.406-.67,1.99-1.9,1.944-2.012-.076-4.03-.03-6.045-.012-.4,0-.56-.055-.566-.516-.025-1.914-.044-1.914,1.881-1.914Z" transform="translate(-338.283 -135.353)" fill="#fff"/>
          <path id="Trazado_748285" data-name="Trazado 748285" d="M414.87,193.991a2.238,2.238,0,0,1,2.359-2.45,2.5,2.5,0,0,1,2.464,2.454,2.456,2.456,0,0,1-2.5,2.406,2.243,2.243,0,0,1-2.324-2.41" transform="translate(-351.929 -162.481)" fill="#959da8"/>
          <path id="Trazado_748286" data-name="Trazado 748286" d="M255.306,193.96a2.226,2.226,0,0,1,2.319-2.415,2.493,2.493,0,0,1,2.5,2.414,2.455,2.455,0,0,1-2.607,2.445,2.268,2.268,0,0,1-2.213-2.444" transform="translate(-216.573 -162.486)" fill="#959da8"/>
          <path id="Trazado_748287" data-name="Trazado 748287" d="M383.978,405.94l.148.044-.1.163-.046-.208" transform="translate(-325.724 -344.354)" fill="#020202"/>
          <path id="Trazado_748288" data-name="Trazado 748288" d="M340.883,403.312c.032-.079.066-.157.176-.123l-.176.123" transform="translate(-289.167 -342.013)" fill="#020202"/>
          <path id="Trazado_748289" data-name="Trazado 748289" d="M385.833,405.286c.026-.08.058-.152.166-.112l-.166.112" transform="translate(-327.297 -343.695)" fill="#020202"/>
          <path id="Trazado_748290" data-name="Trazado 748290" d="M337.964,405.29c.026-.08.059-.15.165-.112l-.165.112" transform="translate(-286.691 -343.698)" fill="#020202"/>
          <path id="Trazado_748291" data-name="Trazado 748291" d="M388.825,403.291c.026-.08.058-.152.166-.112l-.166.112" transform="translate(-329.836 -342.002)" fill="#020202"/>
          <path id="Trazado_748292" data-name="Trazado 748292" d="M391.816,401.3c.026-.08.058-.152.166-.112l-.166.112" transform="translate(-332.373 -340.309)" fill="#020202"/>
          <path id="Trazado_748293" data-name="Trazado 748293" d="M394.737,399.319c.032-.079.064-.159.176-.121l-.176.121" transform="translate(-334.851 -338.627)" fill="#020202"/>
          <path id="Trazado_748294" data-name="Trazado 748294" d="M400.9,418.083c-.108.031-.143-.044-.175-.122l.175.122" transform="translate(-339.933 -354.551)" fill="#020202"/>
          <path id="Trazado_748295" data-name="Trazado 748295" d="M403.895,420.079c-.108.031-.143-.044-.175-.122l.175.122" transform="translate(-342.471 -356.244)" fill="#020202"/>
          <path id="Trazado_748296" data-name="Trazado 748296" d="M406.887,422.074c-.108.031-.143-.044-.175-.122l.175.122" transform="translate(-345.009 -357.937)" fill="#020202"/>
          <path id="Trazado_748297" data-name="Trazado 748297" d="M409.878,424.07c-.108.029-.143-.045-.175-.124l.175.124" transform="translate(-347.546 -359.628)" fill="#020202"/>
          <path id="Trazado_748298" data-name="Trazado 748298" d="M251.37,232.594c-.107.033-.141-.036-.166-.118l.166.118" transform="translate(-213.093 -197.207)" fill="#010101"/>
          <path id="Trazado_748299" data-name="Trazado 748299" d="M39.1,355.176c-2.217,0-4.434-.013-6.65.011-.476.005-.632-.1-.629-.608q.033-6.652,0-13.3c0-.557.175-.641.677-.639,4.106.02,8.212-.008,12.318.029a2.037,2.037,0,0,0,1.754-.738c.384-.455.856-1.149,1.3-1.158.529-.011.886.8,1.367,1.192.329.271.331.46.011.762-.859.813-1.674,1.674-2.525,2.5a1.149,1.149,0,0,0-.372.918c.016,3.452-.006,6.9.024,10.356,0,.567-.135.706-.7.7-2.191-.036-4.383-.015-6.574-.015m-.15-7.858,4.285-4.249c-2.869,0-5.733.007-8.6-.007-.457,0-.383.278-.383.546,0,2.873.009,5.746-.01,8.619,0,.44.14.539.555.537q4.308-.025,8.616,0c.449,0,.535-.155.53-.562-.02-1.638-.008-3.276-.008-4.914V346.14a2.881,2.881,0,0,0-.834.684c-1.172,1.18-2.344,2.36-3.531,3.525-.214.21-.412.6-.823.181-.983-1-1.993-1.981-2.991-2.967,1.828-1.929,1.828-1.929,3.163-.3.031.037.046.088.029.056" transform="translate(-26.991 -287.373)" fill="#12263f"/>
          <path id="Trazado_748300" data-name="Trazado 748300" d="M39.03,243.443c-2.191,0-4.383-.022-6.574.015-.566.01-.635-.189-.633-.683q.028-6.614,0-13.229c0-.549.161-.647.671-.645,4.207.021,8.414,0,12.62.025a1.348,1.348,0,0,0,1.233-.521,1.685,1.685,0,0,1,.21-.216c.435-.413.862-1.14,1.31-1.154.532-.017.878.8,1.369,1.187.415.323.267.526-.037.817-.837.8-1.638,1.639-2.47,2.445a1.149,1.149,0,0,0-.377.916c.017,3.452,0,6.9.024,10.356,0,.557-.118.713-.693.7-2.216-.038-4.433-.015-6.65-.015m4.907-9.149-4.746,4.766-3.354-3.35c.392-.385.844-.79,1.246-1.24.279-.312.46-.277.714.017.375.435.785.84,1.109,1.183l4.345-4.335c-2.888,0-5.772,0-8.656-.006-.348,0-.342.188-.342.432,0,2.948.007,5.9,0,8.844,0,.338.111.423.433.422q4.421-.015,8.841,0c.257,0,.423-.019.421-.354-.012-2.084-.006-4.169-.006-6.377" transform="translate(-26.992 -192.59)" fill="#12263f"/>
          <path id="Trazado_748301" data-name="Trazado 748301" d="M170.366,257.715c-3.4,0-6.806-.014-10.209.014-.556,0-.716-.116-.7-.693.036-1.742.007-1.743,1.757-1.743,6.428,0,12.855.01,19.283-.016.62,0,.8.13.781.77-.049,1.666-.015,1.667-1.682,1.667Z" transform="translate(-135.262 -216.549)" fill="#12263f"/>
          <path id="Trazado_748302" data-name="Trazado 748302" d="M170.29,353.481c-3.378,0-6.756-.015-10.133.014-.562.005-.712-.126-.7-.7.034-1.739.007-1.74,1.759-1.74,6.428,0,12.855.01,19.283-.016.626,0,.8.139.778.773-.048,1.663-.014,1.664-1.685,1.664Z" transform="translate(-135.265 -297.786)" fill="#12263f"/>
          <path id="Trazado_748303" data-name="Trazado 748303" d="M170.29,321.558c-3.378,0-6.756-.015-10.133.015-.566.005-.709-.133-.7-.7.034-1.737.007-1.738,1.761-1.738,6.428,0,12.855.01,19.283-.016.629,0,.793.145.775.776-.047,1.661-.014,1.662-1.687,1.662Z" transform="translate(-135.266 -270.706)" fill="#12263f"/>
          <path id="Trazado_748304" data-name="Trazado 748304" d="M199.936,414.927c2.6,0,5.192.014,7.788-.012.493,0,.624.124.621.619-.01,1.815.01,1.815-1.833,1.815-4.814,0-9.628-.011-14.442.014-.564,0-.71-.129-.7-.7.034-1.738.007-1.739,1.76-1.739Z" transform="translate(-162.337 -351.967)" fill="#12263f"/>
          <path id="Trazado_748305" data-name="Trazado 748305" d="M167.945,383.006c2.621,0,5.243.013,7.864-.012.49,0,.626.119.623.617-.01,1.816.01,1.816-1.832,1.816-4.814,0-9.628-.01-14.442.014-.561,0-.712-.124-.7-.7.035-1.74.007-1.74,1.758-1.74Z" transform="translate(-135.265 -324.889)" fill="#12263f"/>
          <path id="Trazado_748306" data-name="Trazado 748306" d="M199.854,287.24c2.621,0,5.243.013,7.864-.011.486,0,.628.113.625.615-.011,1.818.01,1.818-1.83,1.818-4.814,0-9.628-.01-14.442.014-.556,0-.715-.117-.7-.693.035-1.742.007-1.742,1.757-1.742Z" transform="translate(-162.334 -243.652)" fill="#12263f"/>
          <path id="Trazado_748307" data-name="Trazado 748307" d="M160.79,287.3c1.195,0,1.195,0,1.195,1.226,0,1.2,0,1.2-1.226,1.2-1.195,0-1.195,0-1.195-1.226,0-1.2,0-1.2,1.226-1.2" transform="translate(-135.356 -243.716)" fill="#12263f"/>
          <path id="Trazado_748308" data-name="Trazado 748308" d="M289.636,384.343c0,1.151,0,1.151-1.195,1.151-1.226,0-1.226,0-1.226-1.2,0-1.226,0-1.226,1.195-1.226,1.226,0,1.226,0,1.226,1.271" transform="translate(-243.641 -324.955)" fill="#12263f"/>
          <path id="Trazado_748309" data-name="Trazado 748309" d="M160.847,414.994c1.137,0,1.137,0,1.137,1.133,0,1.289,0,1.289-1.283,1.289-1.137,0-1.137,0-1.137-1.133,0-1.289,0-1.289,1.283-1.289" transform="translate(-135.356 -352.034)" fill="#12263f"/>
          <path id="Trazado_748310" data-name="Trazado 748310" d="M102.887,131.442c.309,2-1.827,3.726-3.592,3.683a3.6,3.6,0,0,1-3.512-3.849,3.417,3.417,0,0,1,3.56-3.4,3.366,3.366,0,0,1,3.544,3.565m-3.6,1.243a1.208,1.208,0,1,0,.089-2.41,1.209,1.209,0,0,0-.089,2.41" transform="translate(-81.251 -108.477)" fill="#12263f"/>
          <path id="Trazado_748311" data-name="Trazado 748311" d="M31.909,131.409a3.45,3.45,0,0,1,3.582-3.534,3.523,3.523,0,0,1,3.578,3.808,3.82,3.82,0,0,1-3.656,3.44,3.621,3.621,0,0,1-3.5-3.713m3.513,1.273a1.417,1.417,0,0,0,1.324-1.163,1.4,1.4,0,0,0-1.242-1.248,1.209,1.209,0,0,0-.082,2.411" transform="translate(-27.068 -108.473)" fill="#12263f"/>
          <path id="Trazado_748312" data-name="Trazado 748312" d="M166.717,131.51c.292,1.956-1.807,3.675-3.554,3.644a3.59,3.59,0,0,1-3.549-3.885,3.4,3.4,0,0,1,3.523-3.354,3.358,3.358,0,0,1,3.58,3.6m-3.57-1.2a1.209,1.209,0,0,0,.022,2.412,1.209,1.209,0,1,0-.022-2.412" transform="translate(-135.398 -108.509)" fill="#12263f"/>
          <path id="Trazado_748313" data-name="Trazado 748313" d="M52.511,371.322c.016.033,0-.018-.029-.056-1.336-1.628-1.336-1.628-3.163.3,1,.986,2.008,1.963,2.991,2.967.411.42.609.029.823-.181,1.187-1.165,2.359-2.345,3.531-3.525a2.881,2.881,0,0,1,.834-.684v1.148c0,1.638-.012,3.277.008,4.914.005.407-.081.565-.53.562q-4.308-.03-8.616,0c-.415,0-.558-.1-.555-.537.019-2.873.01-5.746.01-8.619,0-.268-.074-.548.383-.546,2.864.015,5.729.007,8.6.007l-4.285,4.249" transform="translate(-40.552 -311.377)" fill="#91b3fa"/>
          <path id="Trazado_748314" data-name="Trazado 748314" d="M57.513,258.31c0,2.208-.006,4.292.006,6.377,0,.335-.165.354-.421.354q-4.421-.007-8.841,0c-.322,0-.434-.084-.433-.422.012-2.948.008-5.9,0-8.844,0-.244-.006-.433.342-.432,2.884.01,5.768.006,8.656.006l-4.345,4.335c-.324-.343-.733-.748-1.109-1.183-.254-.294-.435-.329-.714-.017-.4.449-.854.854-1.246,1.24l3.354,3.35,4.746-4.766" transform="translate(-40.568 -216.607)" fill="#e6b046"/>
          <path id="Trazado_748315" data-name="Trazado 748315" d="M112.8,146.08a1.209,1.209,0,0,1,.089-2.41,1.208,1.208,0,1,1-.089,2.41" transform="translate(-94.77 -121.872)" fill="#e3e6ea"/>
          <path id="Trazado_748316" data-name="Trazado 748316" d="M48.981,146.082a1.209,1.209,0,0,1,.082-2.411,1.4,1.4,0,0,1,1.242,1.248,1.417,1.417,0,0,1-1.324,1.163" transform="translate(-40.628 -121.873)" fill="#e3e6ea"/>
          <path id="Trazado_748317" data-name="Trazado 748317" d="M176.665,143.683a1.209,1.209,0,1,1,.022,2.412,1.209,1.209,0,0,1-.022-2.412" transform="translate(-148.915 -121.885)" fill="#e3e6ea"/>
        </g>
      </g>
    </g>
  </g>
</svg>
