<svg xmlns="http://www.w3.org/2000/svg" width="26.817" height="61.986" viewBox="0 0 26.817 61.986">
  <path id="Trazado_762802" data-name="Trazado 762802" d="M437.025,100.4q3.067-4.506,3.066-13.214a34.569,34.569,0,0,0-.575-6.623,14.3,14.3,0,0,0-1.931-5.031,8.577,8.577,0,0,0-3.727-3.185,7.97,7.97,0,0,0,4.676-4.59,20.561,20.561,0,0,0,1.457-8.115q0-7.861-3.152-11.79t-9.927-3.931q-6.946,0-9.757,3.862t-2.812,11.859v1.864h8.776v-1.8a23.965,23.965,0,0,1,.355-4.624,4.548,4.548,0,0,1,1.236-2.541,3.456,3.456,0,0,1,2.406-.8,3.659,3.659,0,0,1,2.2.66,4.193,4.193,0,0,1,1.388,2.355,19.163,19.163,0,0,1,.474,4.879,25.505,25.505,0,0,1-.491,5.574A5.356,5.356,0,0,1,429,68.3a5.251,5.251,0,0,1-3.371.965h-2.506v6.912h2.574a4.809,4.809,0,0,1,3.423,1.117,6.29,6.29,0,0,1,1.625,3.54,36.558,36.558,0,0,1,.441,6.319,39.743,39.743,0,0,1-.321,5.54,6.66,6.66,0,0,1-1.236,3.32,3.321,3.321,0,0,1-2.711,1.1A3.609,3.609,0,0,1,424.2,96.2a5.033,5.033,0,0,1-1.151-2.846,36.693,36.693,0,0,1-.271-4.947V84.274h-8.505v3.9q0,8.434,2.693,12.586t9.64,4.151Q433.959,104.908,437.025,100.4Z" transform="translate(-413.774 -43.422)" fill="none" stroke="#12263f" stroke-miterlimit="10" stroke-width="1"/>
</svg>
