<svg xmlns="http://www.w3.org/2000/svg" xmlns:xlink="http://www.w3.org/1999/xlink" width="152" height="152" viewBox="0 0 152 152">
  <defs>
    <clipPath id="clip-path">
      <rect id="Rectángulo_357369" data-name="Rectángulo 357369" width="72.983" height="72.981" fill="none"/>
    </clipPath>
  </defs>
  <g id="Grupo_1020665" data-name="Grupo 1020665" transform="translate(7.173 7)">
    <g id="Grupo_1020472" data-name="Grupo 1020472">
      <circle id="Elipse_8460" data-name="Elipse 8460" cx="76" cy="76" r="76" transform="translate(-7.173 -7)" fill="#57dbd8" opacity="0.45"/>
      <circle id="Elipse_8461" data-name="Elipse 8461" cx="62" cy="62" r="62" transform="translate(6.827 7)" fill="#fff"/>
      <g id="Grupo_1020666" data-name="Grupo 1020666" transform="translate(33.336 31.336)">
        <g id="Grupo_1020477" data-name="Grupo 1020477" clip-path="url(#clip-path)">
          <path id="Trazado_748210" data-name="Trazado 748210" d="M44.291,72.967H44c-.1-.152-.2-.151-.294,0H28.257V64.556c-1.4.478-2.724.969-4.054,1.438a.814.814,0,0,0-.662.954c.022,2.006.009,4.013.009,6.019q-11.474,0-22.947.014c-.5,0-.6-.1-.6-.6C.022,65.759.014,59.14.014,52.52c.175-.691.323-1.39.53-2.072A13.617,13.617,0,0,1,2.6,46.477a12.6,12.6,0,0,1,3.168-3.1,15.008,15.008,0,0,1,3.211-1.6.591.591,0,0,0,.456-.58c-.006-.44,0-.881,0-1.321,0-.248-.111-.354-.353-.458a12.667,12.667,0,0,1-2.738-1.637l-.171-.118c-.109-.094-.213-.193-.326-.281A15.054,15.054,0,0,1,.69,29.872c-.29-.913-.454-1.866-.676-2.8V25.748c.191-.147.19-.294,0-.441v-.441q.228-.147,0-.294V23.1c.04-.022.112-.04.116-.068a14.334,14.334,0,0,1,2.115-5.965l.119-.155A9.456,9.456,0,0,1,4.282,14.4q.155.036.12-.119a1.263,1.263,0,0,1,.468-.471c.1.025.142-.015.119-.118a2.422,2.422,0,0,1,1.06-.874c.084-.017.148-.051.119-.155.263-.2.517-.408.791-.589a16.944,16.944,0,0,1,9.3-2.645c1.712-.027,3.426-.055,5.136.012a7.151,7.151,0,0,1,3.8,1.006,6.48,6.48,0,0,1,3.021,5.617,3.874,3.874,0,0,1-1.1,3.069v.152a1.712,1.712,0,0,1-.46.8A7.248,7.248,0,0,1,24.5,21.734c-.344.169-.388.324-.216.645a26.879,26.879,0,0,1,1.493,3.135,14.972,14.972,0,0,1,1.289,5.818,3.156,3.156,0,0,1-.616.329c-.834.235-1.638.579-2.466.84-.261.082-.472.12-.407.455-.075.891-.034,1.782-.151,2.679a5.125,5.125,0,0,1-4.01,4.21c-.576.067-.581.262-.578.693.015,2.151.055,4.3-.013,6.452a3.7,3.7,0,0,0,.887,2.837,6.139,6.139,0,0,1,.457.634c.051.146-.108.518.3.278a.718.718,0,0,1,.186-.1c2.436-.483,4.765-1.361,7.173-1.946.368-.089.45-.326.44-.686-.026-.929.005-1.86-.016-2.79-.008-.361.06-.538.473-.5s.835-.025,1.247.017c.494.05.688-.078.655-.619-.051-.829-.013-1.664-.013-2.5,0-1.6,0-1.6,1.632-1.6a1.3,1.3,0,0,1,.22,0c.436.075.514-.135.51-.53-.018-1.836.014-3.672-.014-5.507a3.343,3.343,0,0,1,1.167-2.5l.161-.115c.878-.3,1.373-.815,1.036-1.81a.474.474,0,0,1,0-.146q0-13.2,0-26.4a1.689,1.689,0,0,1,.154-.688A3.627,3.627,0,0,1,39.153,0Q52.941.018,66.729,0a4.656,4.656,0,0,1,2.248.587c.031.076.06.155.17.119l.734.631c-.029.278.257.382.333.6a6.548,6.548,0,0,1,.415,2.394q-.02,12.162,0,24.323a3.914,3.914,0,0,1-.171,1.643c-.21.455.027.536.321.671a3.272,3.272,0,0,1,1.477,1.092,4.246,4.246,0,0,1,.722,2.425c0,4.238-.01,8.475.009,12.713a7.719,7.719,0,0,1-.467,2.808.479.479,0,0,0-.294.442l-1.018.874c-.229.1-.453.217-.69.3s-.272.165-.055.311a16.713,16.713,0,0,1,.159,3.479c.007,3.542-.013,7.084.013,10.625a7.409,7.409,0,0,1-.469,2.8.477.477,0,0,0-.293.442,1.842,1.842,0,0,0-.578.578.443.443,0,0,0-.441.293,5.552,5.552,0,0,1-2.8.465q-6.321-.023-12.642,0a5.075,5.075,0,0,1-2.044-.3l-.6-.406-.617-.618c-.01-.16-.121-.237-.246-.3a5.358,5.358,0,0,1-.467-2.661c.016-4.315.006-8.63.008-12.945,0-.528.014-1.057.022-1.586a16.434,16.434,0,0,1-1.689-.024c-.607-.067-.7.179-.7.725.02,5.3,0,10.591.022,15.886a7.525,7.525,0,0,1-.469,2.812.477.477,0,0,0-.293.442,1.842,1.842,0,0,0-.578.578.442.442,0,0,0-.441.294l-1.024.457M5.9,65.584l-.172-.124a14.466,14.466,0,0,1-3.356-3.515c0,2.85.016,5.447-.013,8.043-.006.527.147.639.652.636,3.944-.022,7.889-.012,11.833-.012,1.911,0,3.822-.01,5.733.008.43,0,.665-.035.639-.573-.049-1-.014-2.007-.014-3.071a13.886,13.886,0,0,1-2.991,1,15.087,15.087,0,0,1-4.486.281A12.618,12.618,0,0,1,5.9,65.584m10.446-20.1.1.16.043-.2c0-1.617-.019-3.235.019-4.851.012-.512-.17-.606-.623-.586-.556.024-1.31.188-1.623-.1-.372-.34-.062-1.107-.127-1.684-.05-.446.089-.588.556-.574,1.2.036,2.4.02,3.6.006a2.225,2.225,0,0,0,.862-.069c1.463-.587,1.935-1.51,2.036-3.129.063-1.025.026-2.058,0-3.086-.007-.32.077-.441.4-.533.841-.241,1.664-.549,2.494-.826.275-.092.595-.16.493-.557-.237-.922-.46-1.85-.758-2.752-.2-.6-.776-1.061-.59-1.793.041-.162-.105-.283-.247-.316-.266-.063-.33-.293-.4-.481a2.578,2.578,0,0,0-2.668-1.739c-1.984-.037-3.97-.046-5.953.009a2.351,2.351,0,0,0-2.189,2.25c.054.854.009,1.714.009,2.572,0,1.025,0,1.044-1.023,1.036-.592,0-1.145.191-1.278.732a1.53,1.53,0,0,0,.407,1.735c.477.377.849.885,1.314,1.281a1.613,1.613,0,0,1,.6,1.389c-.035,2.6-.013,5.194-.018,7.791,0,.322-.021.628.3.84a38.914,38.914,0,0,1,4.26,3.479M52.9,30.6c4.608,0,9.216-.03,13.822.021a1.382,1.382,0,0,0,1.55-1.543q-.005-12.61,0-25.219c0-1.025-.483-1.5-1.52-1.5-2.4,0-4.8.023-7.205-.018-.62-.011-.706.212-.7.747.028,1.911-.005,3.823.022,5.735.007.485-.135.609-.612.607-3.5-.02-7.01-.027-10.514.005-.584.005-.673-.188-.665-.706C47.1,6.818,47.067,4.906,47.1,3c.009-.516-.129-.655-.647-.649-2.45.028-4.9.01-7.352.014-1.072,0-1.426.362-1.426,1.461q0,12.683,0,25.366c0,1.152.26,1.412,1.4,1.413q6.912,0,13.823,0M18.482,20.011c1.029,0,2.062-.05,3.087.011a4.126,4.126,0,0,0,4.2-3.162,4.08,4.08,0,0,0-3.305-5.038c-2.465-.154-4.948-.069-7.422-.023a10.26,10.26,0,0,0-2.657.359,13.556,13.556,0,0,0-9.035,7.821,13.735,13.735,0,0,0-.989,5.889A13.27,13.27,0,0,0,4.49,32.475a12.694,12.694,0,0,0,3.777,3.779c.3.213.678.626,1,.469.367-.176.1-.7.157-1.073a3.665,3.665,0,0,0-1.355-3.592,3.57,3.57,0,0,1,.9-5.715.753.753,0,0,0,.465-.8,6.61,6.61,0,0,1,.133-2.1,4.452,4.452,0,0,1,3.644-3.273,39.343,39.343,0,0,1,5.266-.156M54.147,41.187c0,2.327,0,4.654,0,6.98,0,.96.3,1.261,1.254,1.261q6.907.006,13.813,0c.955,0,1.4-.412,1.4-1.368q.017-6.87,0-13.74a1.282,1.282,0,0,0-1.363-1.361c-.93-.017-1.863.025-2.791-.016-.48-.021-.566.158-.557.587.026,1.2-.007,2.4.018,3.6.008.408-.1.546-.526.541q-3.012-.033-6.025,0c-.426,0-.536-.13-.528-.54.025-1.224,0-2.449.016-3.674.005-.363-.07-.524-.479-.513-1,.028-2.008,0-3.012.014-.875.015-1.217.369-1.22,1.245-.007,2.327,0,4.653,0,6.98M51.793,60.021h0c0,2.351-.006,4.7,0,7.054,0,.864.323,1.18,1.184,1.181q6.943.008,13.887,0c.946,0,1.391-.42,1.393-1.374q.017-6.87,0-13.74a1.279,1.279,0,0,0-1.369-1.356c-.93-.016-1.863.026-2.791-.016-.488-.022-.559.173-.55.593.024,1.2-.008,2.4.018,3.6.009.416-.112.54-.532.535q-3.012-.031-6.025,0c-.432,0-.529-.146-.521-.546.023-1.2-.01-2.4.018-3.6.01-.437-.088-.6-.561-.583-.954.039-1.91,0-2.865.015s-1.286.34-1.288,1.326c-.005,2.3,0,4.6,0,6.907M30.611,50.7c.189-.081.345-.135.489-.211a4.538,4.538,0,0,1,5.169.722,2.437,2.437,0,0,0,1.8.713,4,4,0,0,1,3.925,2.8,4.491,4.491,0,0,1-.945,4.671A8.163,8.163,0,0,1,37.542,61.2q-3.138,1.117-6.276,2.235a.889.889,0,0,0-.675.993c.053,1.837.042,3.676.006,5.513-.011.543.117.688.675.684,3.921-.028,7.842-.043,11.763,0,1.133.013,1.7-.3,1.7-1.736q-.012-9.889,0-19.777c0-.392.009-.784,0-1.176-.016-.549-.192-.88-.859-.876-4.239.024-8.479.016-12.719,0-.383,0-.568.048-.553.5.035,1.026.011,2.055.011,3.132M2.377,54.392A8.631,8.631,0,0,0,2.783,57.6,11.957,11.957,0,0,0,6.961,63.52a.568.568,0,0,0,.882-.072c1.136-1.151,2.286-2.289,3.428-3.434.148-.148.317-.267.225-.552-.617-1.913-1.305-3.781-2.948-5.1-.4-.319-.817-.9-1.2-.881-.613.03-.931-.41-1.405-.556-.794-.245.011-.827-.032-1.267-.018-.179.125-.368.127-.554,0-.361.129-.365.452-.294a8.746,8.746,0,0,1,3.95,2.2,9.965,9.965,0,0,1,2.943,4.867c.2.7.49.754,1.107.543.9-.306,1.827-.5,2.74-.76.843-.237,1.692-.46,2.515-.756.193-.069.75-.076.461-.6-.564-1.018-.829-2.158-1.352-3.2a25.719,25.719,0,0,0-7.072-8.567c-.353-.283-.855-.418-1.232-.712-.2-.154-.327-.061-.515.009A11.46,11.46,0,0,0,4.62,47.593a10.087,10.087,0,0,0-2.242,6.8m7.2,10.56a1.986,1.986,0,0,0,.666.371A11.267,11.267,0,0,0,15,65.9a21.206,21.206,0,0,0,2.393-.1,23.22,23.22,0,0,0,4.067-1.3c1.89-.638,3.769-1.319,5.652-1.985,2.211-.783,4.408-1.607,6.6-2.43,1.223-.459,2.455-.914,3.685-1.329,1.995-.674,2.152-.667,2.34-2.555a1.583,1.583,0,0,0-1.65-1.919c-1.239-.071-2.543-.041-3.3-1.327a.509.509,0,0,0-.1-.1c-.907-.829-3.1-.669-3.506.788-.2.7-.488,1.382-.7,2.081a1.008,1.008,0,0,1-.683.752c-1.757.506-3.518,1-5.276,1.5-3.582,1.023-7.161,2.056-10.747,3.067a1.157,1.157,0,0,0-.557.293c-1.19,1.2-2.388,2.39-3.628,3.628M51.793,41.246c0-2.28.006-4.56,0-6.84a1.309,1.309,0,0,0-1.429-1.448c-.931-.011-1.864.017-2.794-.011-.4-.012-.495.129-.488.5.021,1.225-.008,2.452.016,3.677.008.4-.091.549-.524.544q-3.015-.033-6.03,0c-.433,0-.532-.14-.524-.544.024-1.225,0-2.452.016-3.677.006-.376-.09-.515-.488-.5-1,.027-2.01,0-3.015.014-.847.015-1.2.368-1.206,1.185-.01,1.691.024,3.384-.02,5.074-.016.618.107.813.783.818a69.912,69.912,0,0,1,8.057.132,3.118,3.118,0,0,1,2.371,1.561,5.3,5.3,0,0,1,.56,2.793c.042,1.47.022,2.942,0,4.412,0,.377.093.516.49.5a22.562,22.562,0,0,1,2.646.006c1.138.1,1.587-.614,1.582-1.581-.011-2.206,0-4.413,0-6.619M52.965,2.359c-.979,0-1.957.016-2.935-.008-.415-.01-.616.06-.6.55.035,1.222.024,2.446,0,3.669-.006.38.107.507.5.5q3.045-.025,6.091,0c.4,0,.492-.146.487-.513-.018-1.223-.022-2.446,0-3.669.008-.412-.113-.553-.535-.542-1,.027-2.006.009-3.008.009M38.424,44.722H43.5a1.053,1.053,0,0,0,1.045-.6,1.084,1.084,0,0,0-.1-1.269,1.369,1.369,0,0,0-1.194-.481q-4.227.005-8.454,0c-1.882,0-1.865,0-1.839,1.854.006.441.157.512.547.507,1.642-.019,3.284-.008,4.925-.01M28.257,52.77c0-.367-.008-.734,0-1.1.012-.428.047-.8-.6-.493a7.516,7.516,0,0,1-1.237.328q-2.325.652-4.646,1.318c-.337.1-.477.244-.295.649a10.555,10.555,0,0,1,.807,2.112c.074.35.192.567.681.408,1.187-.385,2.4-.672,3.607-1.009,1.679-.47,1.678-.474,1.678-2.213m31.717,1.369c1.233,0,1.233,0,1.233-1.212a2,2,0,0,1,0-.365c.125-.664-.168-.886-.8-.779a1.753,1.753,0,0,1-.292,0c-1.269,0-1.269,0-1.269,1.249,0,1.1,0,1.1,1.121,1.1M44.732,34.107c0-1.15,0-1.15-.855-1.151-1.5,0-1.5,0-1.5.946,0,1.407,0,1.407.965,1.407,1.389,0,1.389,0,1.389-1.2m18.829.075c0-1.227,0-1.227-1.218-1.227-1.135,0-1.135,0-1.135,1.164,0,1.19,0,1.19,1.182,1.19s1.172,0,1.172-1.127" transform="translate(0 0)" fill="#12263f"/>
          <path id="Trazado_748211" data-name="Trazado 748211" d="M.1,171.622c.19.147.191.294,0,.441Z" transform="translate(-0.084 -146.315)" fill="#030303"/>
          <path id="Trazado_748212" data-name="Trazado 748212" d="M.1,166.634q.227.147,0,.294Z" transform="translate(-0.084 -142.063)" fill="#030303"/>
          <path id="Trazado_748213" data-name="Trazado 748213" d="M296.379,494.183c.1-.151.2-.152.294,0Z" transform="translate(-252.676 -421.216)" fill="#020202"/>
          <path id="Trazado_748214" data-name="Trazado 748214" d="M270.7,44.142q-6.911,0-13.823,0c-1.142,0-1.4-.261-1.4-1.413q0-12.683,0-25.367c0-1.1.354-1.46,1.426-1.461,2.451,0,4.9.014,7.352-.014.518-.006.655.133.647.649-.032,1.911.005,3.824-.024,5.735-.008.518.081.711.665.706,3.5-.032,7.009-.025,10.514-.005.477,0,.619-.122.612-.607-.028-1.911.006-3.824-.022-5.735-.008-.535.078-.757.7-.747,2.4.042,4.8.014,7.205.018,1.037,0,1.52.476,1.52,1.5q0,12.61,0,25.22a1.382,1.382,0,0,1-1.55,1.543c-4.607-.051-9.215-.022-13.823-.022m7.151-7.061h4.191c1.695,0,1.671,0,1.689-1.727.005-.529-.156-.641-.658-.638-3.137.023-6.275.012-9.412.012-1.743,0-1.722,0-1.725,1.764,0,.5.154.606.621.6,1.764-.025,3.53-.01,5.294-.01m.013,2.354c-1.207,0-1.207,0-1.207,1.165,0,1.189,0,1.189,1.183,1.189s1.171,0,1.171-1.2c0-1.152,0-1.152-1.146-1.152m-4.706,0c-1.208,0-1.208,0-1.208,1.164,0,1.19,0,1.19,1.182,1.19s1.172,0,1.172-1.2c0-1.153,0-1.153-1.145-1.153m9.413,2.354c1.147,0,1.147,0,1.147-1.078,0-1.276,0-1.276-1.243-1.276-1.111,0-1.111,0-1.111,1.114,0,1.239,0,1.239,1.206,1.239" transform="translate(-217.804 -13.54)" fill="#f0dcc0"/>
          <path id="Trazado_748215" data-name="Trazado 748215" d="M32.092,87.851a39.588,39.588,0,0,0-5.266.157,4.452,4.452,0,0,0-3.644,3.273,6.611,6.611,0,0,0-.133,2.1.753.753,0,0,1-.465.8,3.57,3.57,0,0,0-.9,5.715,3.665,3.665,0,0,1,1.355,3.592c-.056.369.21.9-.157,1.073-.326.157-.7-.256-1-.469a12.693,12.693,0,0,1-3.777-3.779,13.27,13.27,0,0,1-2.132-6.607,13.734,13.734,0,0,1,.989-5.889A13.557,13.557,0,0,1,25.993,80a10.266,10.266,0,0,1,2.657-.359c2.474-.046,4.957-.131,7.422.023A4.08,4.08,0,0,1,39.377,84.7a4.126,4.126,0,0,1-4.2,3.162c-1.026-.061-2.058-.011-3.087-.012" transform="translate(-13.61 -67.841)" fill="#666d78"/>
          <path id="Trazado_748216" data-name="Trazado 748216" d="M367.2,231.649c0-2.327,0-4.654,0-6.98,0-.876.345-1.23,1.22-1.245,1-.017,2.009.014,3.012-.014.409-.012.484.149.479.512-.018,1.224.009,2.449-.016,3.674-.008.41.1.544.528.54q3.012-.033,6.025,0c.429,0,.534-.134.526-.541-.025-1.2.009-2.4-.018-3.6-.009-.43.077-.608.556-.587.929.041,1.861,0,2.791.016a1.282,1.282,0,0,1,1.363,1.361q.015,6.87,0,13.74c0,.956-.443,1.367-1.4,1.368q-6.907.006-13.813,0c-.951,0-1.251-.3-1.254-1.262-.007-2.327,0-4.654,0-6.98" transform="translate(-313.057 -190.463)" fill="#f0dcc0"/>
          <path id="Trazado_748217" data-name="Trazado 748217" d="M351.241,359.345c0-2.3,0-4.6,0-6.907,0-.986.321-1.315,1.288-1.327s1.911.025,2.865-.015c.473-.019.572.146.561.583-.028,1.2.005,2.4-.018,3.6-.008.4.089.55.521.546q3.012-.033,6.025,0c.42,0,.541-.119.532-.535-.026-1.2.007-2.4-.018-3.6-.008-.42.062-.615.55-.593.929.042,1.861,0,2.792.016a1.279,1.279,0,0,1,1.369,1.356q.015,6.87,0,13.74c0,.953-.447,1.373-1.393,1.374q-6.944.005-13.887,0c-.861,0-1.181-.317-1.184-1.181-.009-2.351,0-4.7,0-7.054Z" transform="translate(-299.447 -299.324)" fill="#f0dcc0"/>
          <path id="Trazado_748218" data-name="Trazado 748218" d="M207.476,322.823c0-1.078.024-2.106-.011-3.132-.016-.454.17-.5.553-.5,4.24.012,8.48.019,12.719,0,.667,0,.843.327.859.877.012.392,0,.784,0,1.176q0,9.889,0,19.777c0,1.431-.568,1.749-1.7,1.736-3.921-.047-7.842-.031-11.763,0-.558,0-.686-.141-.675-.684.037-1.837.047-3.677-.006-5.513a.888.888,0,0,1,.675-.993q3.136-1.124,6.276-2.235a8.165,8.165,0,0,0,3.506-1.805,4.491,4.491,0,0,0,.945-4.671,4,4,0,0,0-3.925-2.8,2.437,2.437,0,0,1-1.8-.713,4.538,4.538,0,0,0-5.169-.722c-.144.076-.3.13-.489.211" transform="translate(-176.865 -272.118)" fill="#91b3fa"/>
          <path id="Trazado_748219" data-name="Trazado 748219" d="M16.005,307.3a10.088,10.088,0,0,1,2.242-6.8,11.46,11.46,0,0,1,5.413-3.757c.188-.07.317-.164.515-.009.377.294.879.429,1.232.712a25.721,25.721,0,0,1,7.072,8.567c.523,1.043.788,2.182,1.352,3.2.289.521-.268.528-.461.6-.823.3-1.672.519-2.515.756-.913.256-1.845.454-2.74.76-.617.211-.908.16-1.107-.543a9.966,9.966,0,0,0-2.943-4.867,8.746,8.746,0,0,0-3.95-2.2c-.323-.07-.448-.066-.452.294,0,.186-.145.376-.127.554.043.44-.761,1.022.032,1.267.475.147.792.587,1.405.556.386-.019.8.561,1.2.881,1.643,1.317,2.331,3.185,2.948,5.1.092.285-.077.4-.225.552-1.142,1.146-2.292,2.283-3.428,3.434a.568.568,0,0,1-.882.072,11.957,11.957,0,0,1-4.178-5.917,8.635,8.635,0,0,1-.406-3.211" transform="translate(-13.628 -252.909)" fill="#57dbd8"/>
          <path id="Trazado_748220" data-name="Trazado 748220" d="M70.6,174.679a38.912,38.912,0,0,0-4.26-3.479c-.323-.212-.3-.518-.3-.84,0-2.6-.018-5.194.018-7.791a1.613,1.613,0,0,0-.6-1.388c-.465-.4-.837-.9-1.314-1.281a1.53,1.53,0,0,1-.407-1.735c.133-.54.686-.736,1.278-.731,1.023.008,1.023-.011,1.023-1.036,0-.857.046-1.718-.009-2.572a2.351,2.351,0,0,1,2.189-2.25c1.983-.055,3.969-.046,5.953-.009a2.578,2.578,0,0,1,2.668,1.739c.066.188.13.418.4.481.142.033.288.154.247.316-.186.732.393,1.2.59,1.793.3.9.521,1.831.758,2.753.1.4-.217.465-.492.557-.831.278-1.653.586-2.494.826-.322.092-.406.213-.4.533.022,1.028.06,2.061,0,3.086-.1,1.619-.573,2.542-2.036,3.129a2.224,2.224,0,0,1-.861.069c-1.2.014-2.4.03-3.6-.006-.467-.014-.606.128-.556.574.065.577-.245,1.344.127,1.684.313.286,1.067.122,1.623.1.452-.02.635.074.623.586-.038,1.616-.017,3.234-.019,4.851l-.141.044" transform="translate(-54.254 -129.192)" fill="#ebcdb0"/>
          <path id="Trazado_748221" data-name="Trazado 748221" d="M64.956,367.59c1.239-1.237,2.437-2.429,3.628-3.628a1.157,1.157,0,0,1,.557-.293c3.585-1.011,7.165-2.043,10.747-3.067,1.758-.5,3.519-.992,5.276-1.5a1.008,1.008,0,0,0,.683-.752c.217-.7.51-1.376.7-2.081.4-1.457,2.6-1.617,3.506-.788a.51.51,0,0,1,.1.1c.762,1.286,2.066,1.256,3.3,1.327a1.583,1.583,0,0,1,1.65,1.919c-.188,1.888-.345,1.881-2.34,2.556-1.229.416-2.462.871-3.685,1.329-2.2.823-4.393,1.647-6.6,2.43-1.883.666-3.761,1.348-5.652,1.986a23.2,23.2,0,0,1-4.067,1.3,21.2,21.2,0,0,1-2.393.1,11.266,11.266,0,0,1-4.753-.574,1.984,1.984,0,0,1-.666-.371" transform="translate(-55.378 -302.639)" fill="#eacdb0"/>
          <path id="Trazado_748222" data-name="Trazado 748222" d="M255.9,231.733c0,2.206-.007,4.413,0,6.619,0,.967-.445,1.679-1.582,1.581a22.527,22.527,0,0,0-2.646-.006c-.4.013-.495-.126-.49-.5.019-1.471.039-2.943,0-4.412a5.3,5.3,0,0,0-.56-2.793,3.117,3.117,0,0,0-2.371-1.561,69.881,69.881,0,0,0-8.058-.132c-.676-.005-.8-.2-.783-.818.043-1.69.01-3.383.02-5.074,0-.817.36-1.169,1.206-1.185,1-.018,2.011.013,3.015-.014.4-.011.495.129.488.5-.021,1.226.008,2.452-.016,3.677-.008.4.091.549.524.545q3.015-.034,6.03,0c.433,0,.531-.14.524-.545-.024-1.225,0-2.451-.016-3.677-.006-.376.09-.516.488-.5.931.028,1.863,0,2.794.011a1.309,1.309,0,0,1,1.429,1.448c.008,2.28,0,4.56,0,6.84" transform="translate(-204.106 -190.487)" fill="#f0dcc0"/>
          <path id="Trazado_748223" data-name="Trazado 748223" d="M19.508,423.739a12.617,12.617,0,0,0,7.823,2.67,15.088,15.088,0,0,0,4.486-.281,13.891,13.891,0,0,0,2.991-1c0,1.064-.035,2.07.014,3.071.026.538-.209.577-.639.573-1.911-.018-3.822-.008-5.733-.008-3.944,0-7.889-.01-11.833.012-.5,0-.658-.109-.652-.636.029-2.6.013-5.193.013-8.043a14.469,14.469,0,0,0,3.356,3.515c.031.078.066.15.172.124" transform="translate(-13.612 -358.154)" fill="#57dbd8"/>
          <path id="Trazado_748224" data-name="Trazado 748224" d="M338.74,15.944c1,0,2.006.019,3.009-.009.422-.012.543.129.535.542-.024,1.223-.02,2.446,0,3.669.005.368-.086.517-.487.513q-3.045-.027-6.091,0c-.39,0-.5-.123-.5-.5.02-1.223.031-2.447,0-3.669-.014-.49.187-.56.6-.55.978.024,1.957.008,2.935.008" transform="translate(-285.775 -13.585)" fill="#fe7062"/>
          <path id="Trazado_748225" data-name="Trazado 748225" d="M228.909,289.686c-1.642,0-3.284-.011-4.925.008-.39,0-.541-.066-.547-.507-.026-1.855-.043-1.854,1.839-1.854q4.227,0,8.454,0a1.369,1.369,0,0,1,1.194.481,1.084,1.084,0,0,1,.1,1.269,1.053,1.053,0,0,1-1.045.6h-5.073" transform="translate(-190.485 -244.963)" fill="#e6e8ed"/>
          <path id="Trazado_748226" data-name="Trazado 748226" d="M152.006,348c0,1.739,0,1.743-1.678,2.213-1.2.337-2.421.624-3.607,1.009-.489.159-.607-.058-.681-.408a10.56,10.56,0,0,0-.807-2.112c-.182-.4-.042-.552.295-.649q2.321-.666,4.646-1.318a7.518,7.518,0,0,0,1.237-.328c.645-.31.61.065.6.493-.011.366,0,.733,0,1.1" transform="translate(-123.749 -295.227)" fill="#eacdb0"/>
          <path id="Trazado_748227" data-name="Trazado 748227" d="M400.251,353.379c-1.121,0-1.121,0-1.121-1.1,0-1.249,0-1.249,1.269-1.249a1.753,1.753,0,0,0,.292,0c.628-.107.921.115.8.779a1.986,1.986,0,0,0,0,.365c0,1.212,0,1.212-1.233,1.212" transform="translate(-340.276 -299.241)" fill="#fe7062"/>
          <path id="Trazado_748228" data-name="Trazado 748228" d="M289.754,224.648c0,1.2,0,1.2-1.389,1.2-.965,0-.965,0-.964-1.407,0-.948,0-.948,1.5-.946.855,0,.855,0,.855,1.151" transform="translate(-245.022 -190.541)" fill="#fe7062"/>
          <path id="Trazado_748229" data-name="Trazado 748229" d="M417.445,224.724c0,1.127,0,1.127-1.172,1.127s-1.182,0-1.182-1.19c0-1.164,0-1.164,1.135-1.164,1.218,0,1.218,0,1.218,1.227" transform="translate(-353.885 -190.541)" fill="#fe7062"/>
          <path id="Trazado_748230" data-name="Trazado 748230" d="M473.905,8.22c.188-.234.384-.177.513.035a.346.346,0,0,1-.18.567c-.076-.22-.362-.324-.333-.6" transform="translate(-404.024 -6.878)" fill="#fff"/>
          <path id="Trazado_748231" data-name="Trazado 748231" d="M136.767,342.208a.468.468,0,0,1,.3.278c-.408.24-.249-.132-.3-.278" transform="translate(-116.6 -291.748)" fill="#020202"/>
          <path id="Trazado_748232" data-name="Trazado 748232" d="M338.129,468.153c-.161-.037-.5.071-.246-.3a.37.37,0,0,1,.246.3" transform="translate(-287.983 -398.863)" fill="#fff"/>
          <path id="Trazado_748233" data-name="Trazado 748233" d="M110.828,308.229l.141-.044-.043.2-.1-.16" transform="translate(-94.486 -262.741)" fill="#020202"/>
          <path id="Trazado_748234" data-name="Trazado 748234" d="M33.028,92.946l.119-.118c.023.1-.016.143-.119.118" transform="translate(-28.158 -79.14)" fill="#fdfdfd"/>
          <path id="Trazado_748235" data-name="Trazado 748235" d="M41.023,86l.119-.155c.029.1-.035.138-.119.155" transform="translate(-34.974 -73.188)" fill="#fdfdfd"/>
          <path id="Trazado_748236" data-name="Trazado 748236" d="M38.992,444.061c-.106.026-.141-.046-.172-.124l.172.124" transform="translate(-33.096 -378.477)" fill="#030303"/>
          <path id="Trazado_748237" data-name="Trazado 748237" d="M29.037,96.938l.12-.12q.035.156-.12.12" transform="translate(-24.755 -82.542)" fill="#fdfdfd"/>
          <path id="Trazado_748238" data-name="Trazado 748238" d="M15.188,114.852c-.028-.1.033-.139.119-.155l-.119.155" transform="translate(-12.943 -97.784)" fill="#030303"/>
          <path id="Trazado_748239" data-name="Trazado 748239" d="M231.431,212.769c.024-.08.056-.148.161-.115l-.161.115" transform="translate(-197.305 -181.29)" fill="#020202"/>
          <path id="Trazado_748240" data-name="Trazado 748240" d="M467.783,4.009l.17.119c-.11.037-.139-.042-.17-.119" transform="translate(-398.806 -3.418)" fill="#fff"/>
          <path id="Trazado_748241" data-name="Trazado 748241" d="M41.993,255.524c-.11.038-.14-.04-.171-.118l.171.118" transform="translate(-35.655 -217.746)" fill="#030303"/>
          <path id="Trazado_748242" data-name="Trazado 748242" d="M373.032,145.976c-1.765,0-3.53-.015-5.294.01-.466.007-.621-.1-.621-.6,0-1.764-.018-1.764,1.725-1.764,3.137,0,6.275.011,9.412-.012.5,0,.663.108.658.638-.018,1.727.006,1.727-1.689,1.727h-4.191" transform="translate(-312.984 -122.434)" fill="#12263f"/>
          <path id="Trazado_748243" data-name="Trazado 748243" d="M400.337,175.612c1.146,0,1.146,0,1.146,1.152,0,1.2,0,1.2-1.17,1.2s-1.183,0-1.183-1.189c0-1.165,0-1.165,1.208-1.165" transform="translate(-340.276 -149.717)" fill="#12263f"/>
          <path id="Trazado_748244" data-name="Trazado 748244" d="M368.415,175.612c1.145,0,1.145,0,1.145,1.153,0,1.2,0,1.2-1.172,1.2s-1.182,0-1.182-1.19c0-1.164,0-1.164,1.208-1.164" transform="translate(-313.06 -149.717)" fill="#12263f"/>
          <path id="Trazado_748245" data-name="Trazado 748245" d="M432.258,177.967c-1.207,0-1.207,0-1.207-1.239,0-1.114,0-1.114,1.111-1.114,1.243,0,1.243,0,1.243,1.276,0,1.078,0,1.078-1.147,1.078" transform="translate(-367.491 -149.718)" fill="#12263f"/>
        </g>
      </g>
    </g>
  </g>
</svg>
