<svg xmlns="http://www.w3.org/2000/svg" xmlns:xlink="http://www.w3.org/1999/xlink" width="93" height="94" viewBox="0 0 93 94">
  <defs>
    <clipPath id="clip-path">
      <rect id="Rectángulo_360878" data-name="Rectángulo 360878" width="57.186" height="51.529" fill="none"/>
    </clipPath>
  </defs>
  <g id="Grupo_1024498" data-name="Grupo 1024498" transform="translate(0.275 -0.334)">
    <ellipse id="Elipse_4870" data-name="Elipse 4870" cx="46.5" cy="47" rx="46.5" ry="47" transform="translate(-0.275 0.334)" fill="#57dbd8"/>
    <g id="Grupo_1024504" data-name="Grupo 1024504" transform="translate(14.404 22.785)">
      <g id="Grupo_1024503" data-name="Grupo 1024503" clip-path="url(#clip-path)">
        <path id="Trazado_762830" data-name="Trazado 762830" d="M53.054,201.648a5.935,5.935,0,0,0,0,11.871,5.935,5.935,0,1,0,0-11.871m0,9.646a3.618,3.618,0,0,1,0-7.235,3.683,3.683,0,0,1,3.617,3.618,3.621,3.621,0,0,1-3.617,3.618" transform="translate(-39.643 -169.652)"/>
        <path id="Trazado_762831" data-name="Trazado 762831" d="M52.456,0H18.977a4.75,4.75,0,0,0-4.731,4.729V27.636H13.32L12.3,25.318a1.1,1.1,0,0,0-1.391-.649l-2.133.556a1.147,1.147,0,0,0-.834,1.3l.278,2.412A10.263,10.263,0,0,0,5.9,30.7L3.581,29.77a1.15,1.15,0,0,0-1.391.464L1.077,32.181a1.159,1.159,0,0,0,.279,1.485L3.4,35.242a9.761,9.761,0,0,0-.371,2.875L.706,39.138a1.1,1.1,0,0,0-.649,1.391l.556,2.133a1.147,1.147,0,0,0,1.3.834l2.412-.279a8.515,8.515,0,0,0,1.762,2.319l-.927,2.318a1.149,1.149,0,0,0,.463,1.391l1.948,1.113a1.159,1.159,0,0,0,1.484-.278l1.485-1.856a10.175,10.175,0,0,0,2.874.371l.928,2.226a1.1,1.1,0,0,0,1.391.649l2.133-.556a1.149,1.149,0,0,0,.835-1.3L18.42,47.3a14.627,14.627,0,0,0,2.412-1.762l2.226.927A1.151,1.151,0,0,0,24.448,46l1.112-1.948a1.1,1.1,0,0,0,.093-.928h26.8a4.75,4.75,0,0,0,4.73-4.73V4.729A4.749,4.749,0,0,0,52.456,0M35.207,16.23H27.045V2.318h8.161ZM23.057,43.681l-2.041-.834a1.027,1.027,0,0,0-1.3.371,8.564,8.564,0,0,1-2.875,2.226,1.063,1.063,0,0,0-.65,1.205l.279,2.134-.185.093-.834-2.04a1.244,1.244,0,0,0-1.207-.742,9.018,9.018,0,0,1-3.523-.463,1.146,1.146,0,0,0-1.3.371L8.032,47.762l-.184-.093.834-2.133a1.024,1.024,0,0,0-.371-1.3,7.327,7.327,0,0,1-2.133-2.876,1.063,1.063,0,0,0-1.206-.649l-2.226.278-.185-.185,2.133-.928a1.242,1.242,0,0,0,.742-1.2A9.024,9.024,0,0,1,5.9,35.149a1.148,1.148,0,0,0-.371-1.3L3.674,32.46l.093-.185,2.133.834a1.026,1.026,0,0,0,1.3-.371A7.03,7.03,0,0,1,9.98,30.6a1.062,1.062,0,0,0,.65-1.2l-.279-2.226.186-.093.927,2.132a1.061,1.061,0,0,0,1.2.65,9.007,9.007,0,0,1,3.524.464,1.148,1.148,0,0,0,1.3-.371l1.391-1.762.186.093-.835,2.132a1.028,1.028,0,0,0,.371,1.3,8.572,8.572,0,0,1,2.226,2.875,1.06,1.06,0,0,0,1.2.65l2.226-.278.093.185-2.041.835a1.062,1.062,0,0,0-.648,1.2,9.723,9.723,0,0,1-.464,3.618,1.146,1.146,0,0,0,.371,1.3l.648.463,1.113.835Zm31.81-5.472a2.394,2.394,0,0,1-2.411,2.412H23.52a8.576,8.576,0,0,0,.279-2.69L26.025,37a1.1,1.1,0,0,0,.649-1.391l-.556-2.133a1.147,1.147,0,0,0-1.3-.834l-2.412.278A10.23,10.23,0,0,0,20.646,30.6l.928-2.225a1.149,1.149,0,0,0-.465-1.391l-1.947-1.206a1.157,1.157,0,0,0-1.484.278l-1.113,1.391V4.729a2.394,2.394,0,0,1,2.412-2.411h5.75V17.436a1.228,1.228,0,0,0,1.206,1.2h10.48a1.228,1.228,0,0,0,1.206-1.2V2.318H52.642a2.394,2.394,0,0,1,2.412,2.411v33.48Z" transform="translate(0)"/>
        <path id="Trazado_762832" data-name="Trazado 762832" d="M247.966,153.633a1.125,1.125,0,0,0-1.391-.185c-.092,0-.092.093-.185.093l-2.782,2.782-2.69-2.689a1.127,1.127,0,0,0-1.483-.093l-3.617,3.618a1.18,1.18,0,0,0,1.67,1.669l1.484-1.484v8.717a1.205,1.205,0,1,0,2.411,0v-8.81l1.484,1.484a1.175,1.175,0,0,0,1.669,0l1.485-1.484v8.81a1.205,1.205,0,1,0,2.411,0v-8.81l1.484,1.484a1.18,1.18,0,1,0,1.669-1.67Z" transform="translate(-198.107 -128.964)"/>
      </g>
    </g>
  </g>
</svg>
