<svg xmlns="http://www.w3.org/2000/svg" xmlns:xlink="http://www.w3.org/1999/xlink" width="93" height="94" viewBox="0 0 93 94">
  <defs>
    <clipPath id="clip-path">
      <rect id="Rectángulo_360879" data-name="Rectángulo 360879" width="53.859" height="52.91" fill="none"/>
    </clipPath>
  </defs>
  <g id="Grupo_1024497" data-name="Grupo 1024497" transform="translate(0.275 -0.334)">
    <ellipse id="Elipse_4870" data-name="Elipse 4870" cx="46.5" cy="47" rx="46.5" ry="47" transform="translate(-0.275 0.334)" fill="#91b3fa"/>
    <g id="Grupo_1024506" data-name="Grupo 1024506" transform="translate(17.313 17.708)">
      <g id="Grupo_1024505" data-name="Grupo 1024505" clip-path="url(#clip-path)">
        <path id="Trazado_762833" data-name="Trazado 762833" d="M79.752,252.964a1.185,1.185,0,0,0-1.163,1.163,3.4,3.4,0,1,1-3.4-3.4,1.163,1.163,0,1,0,0-2.326,5.67,5.67,0,0,0-5.636,5.637,5.613,5.613,0,0,0,5.636,5.636,5.67,5.67,0,0,0,5.637-5.636,1.031,1.031,0,0,0-1.073-1.074" transform="translate(-58.906 -210.378)"/>
        <path id="Trazado_762834" data-name="Trazado 762834" d="M44.913,5.637H38.2V4.474A1.184,1.184,0,0,0,37.04,3.31H33.372a5.029,5.029,0,0,0-9.484.089H20.22a1.184,1.184,0,0,0-1.163,1.163V5.726h-6.71a1.185,1.185,0,0,0-1.163,1.163v28.9A22.8,22.8,0,0,0,.269,43.213a1.091,1.091,0,0,0,0,1.432A21.77,21.77,0,0,0,14.4,52.7a8.265,8.265,0,0,0,3.31.089H44.824a1.184,1.184,0,0,0,1.162-1.163V6.889a1.139,1.139,0,0,0-1.074-1.253m-23.53,0h3.4a1.146,1.146,0,0,0,1.074-.985,2.8,2.8,0,0,1,5.547,0,1.145,1.145,0,0,0,1.074.985h3.4v3.4H21.383ZM30.062,43.75a21.222,21.222,0,0,1-6.084,4.742,9.049,9.049,0,0,0,0-9.485,19.637,19.637,0,0,1,6.084,4.742M14.853,50.281a6.7,6.7,0,0,1,0-13.062,18.151,18.151,0,0,1,3.131,0,6.7,6.7,0,0,1,0,13.062,18.337,18.337,0,0,1-3.131,0M2.774,43.75a20.065,20.065,0,0,1,6.084-4.742,8.683,8.683,0,0,0,0,9.485A19.65,19.65,0,0,1,2.774,43.75M43.75,50.37H25.319A22.22,22.22,0,0,0,32.03,45c.089-.09.447-.447.447-.537a1.074,1.074,0,0,0-.09-1.342,21.766,21.766,0,0,0-14.135-8.053,8.879,8.879,0,0,0-3.758,0c-.268,0-.625.089-.985.089V7.873h1.163V30.24a1.163,1.163,0,0,0,2.327,0V7.873h2.147V10.11a1.184,1.184,0,0,0,1.163,1.162H37.04A1.183,1.183,0,0,0,38.2,10.11V7.873H43.84v42.5Z" transform="translate(-0.001 -0.001)"/>
        <path id="Trazado_762835" data-name="Trazado 762835" d="M90.317,257.905a1.14,1.14,0,1,0-2.058.984l1.163,2.237a1.1,1.1,0,0,0,1.789.268l4.473-4.473a1.138,1.138,0,1,0-1.61-1.61l-3.4,3.4Z" transform="translate(-74.66 -215.946)"/>
        <path id="Trazado_762836" data-name="Trazado 762836" d="M139.689,88.833A1.184,1.184,0,0,0,140.852,90h18.967a1.163,1.163,0,1,0,0-2.326H140.852a1.184,1.184,0,0,0-1.163,1.163" transform="translate(-118.307 -74.25)"/>
        <path id="Trazado_762837" data-name="Trazado 762837" d="M117.963,88.151a1.139,1.139,0,1,0,1.611,0,1.133,1.133,0,0,0-1.611,0" transform="translate(-99.622 -74.374)"/>
        <path id="Trazado_762838" data-name="Trazado 762838" d="M159.818,109.874H140.851a1.163,1.163,0,1,0,0,2.327h18.967a1.163,1.163,0,1,0,0-2.327" transform="translate(-118.306 -93.056)"/>
        <path id="Trazado_762839" data-name="Trazado 762839" d="M117.963,109.774a1.139,1.139,0,1,0,1.611,0,1.134,1.134,0,0,0-1.611,0" transform="translate(-99.622 -92.686)"/>
        <path id="Trazado_762840" data-name="Trazado 762840" d="M159.818,131.506H140.851a1.163,1.163,0,1,0,0,2.326h18.967a1.163,1.163,0,1,0,0-2.326" transform="translate(-118.306 -111.376)"/>
        <path id="Trazado_762841" data-name="Trazado 762841" d="M119.573,133.01a1.139,1.139,0,1,0-1.611,0,1.325,1.325,0,0,0,1.611,0" transform="translate(-99.622 -111.002)"/>
        <path id="Trazado_762842" data-name="Trazado 762842" d="M159.818,153.715H140.851a1.163,1.163,0,1,0,0,2.326h18.967a1.163,1.163,0,1,0,0-2.326" transform="translate(-118.306 -130.186)"/>
        <path id="Trazado_762843" data-name="Trazado 762843" d="M119.573,155.223a1.139,1.139,0,1,0-1.611,0,1.482,1.482,0,0,0,1.611,0" transform="translate(-99.622 -129.815)"/>
        <path id="Trazado_762844" data-name="Trazado 762844" d="M159.818,175.341H140.851a1.163,1.163,0,1,0,0,2.327h18.967a1.163,1.163,0,1,0,0-2.327" transform="translate(-118.306 -148.502)"/>
        <path id="Trazado_762845" data-name="Trazado 762845" d="M117.963,175.824a1.132,1.132,0,0,0,0,1.609c.448.448,1.342.18,1.611,0a1.138,1.138,0,0,0-1.611-1.609" transform="translate(-99.622 -148.626)"/>
        <path id="Trazado_762846" data-name="Trazado 762846" d="M314.151,78.824l-2.237-5.637a1.163,1.163,0,0,0-2.147,0l-2.237,5.637a.669.669,0,0,0-.089.447v33.551a1.184,1.184,0,0,0,1.163,1.162h4.473a1.183,1.183,0,0,0,1.163-1.162V79.271c0-.179-.089-.268-.089-.447m-4.383,7.157H312v1.163h-2.236Zm1.073-9.305L312,79.45v4.3h-2.236v-4.3Zm-1.073,12.7H312v22.367h-2.236Z" transform="translate(-260.381 -61.379)"/>
      </g>
    </g>
  </g>
</svg>
