<svg xmlns="http://www.w3.org/2000/svg" xmlns:xlink="http://www.w3.org/1999/xlink" width="152" height="152" viewBox="0 0 152 152">
  <defs>
    <clipPath id="clip-path">
      <rect id="Rectángulo_357366" data-name="Rectángulo 357366" width="91" height="91" transform="translate(-0.06 -0.059)" fill="#12263f"/>
    </clipPath>
  </defs>
  <g id="Grupo_1024433" data-name="Grupo 1024433" transform="translate(7.173 7)">
    <g id="Grupo_1020472" data-name="Grupo 1020472">
      <circle id="Elipse_8460" data-name="Elipse 8460" cx="76" cy="76" r="76" transform="translate(-7.173 -7)" fill="#57dbd8" opacity="0.45"/>
      <circle id="Elipse_8461" data-name="Elipse 8461" cx="62" cy="62" r="62" transform="translate(6.827 7)" fill="#fff"/>
      <g id="Grupo_1020662" data-name="Grupo 1020662" transform="translate(22.886 18.061)">
        <g id="Grupo_1020473" data-name="Grupo 1020473" transform="translate(0.001 -0.001)" clip-path="url(#clip-path)">
          <path id="Trazado_748172" data-name="Trazado 748172" d="M0,286.953v-2.643c.968-.672,1.751-1.258,2.576-1.777,1.008-.634,2.052-1.212,3.191-1.878-.536-1.51-1.141-3.224-1.751-4.936Q2.155,270.5.291,265.29c-.548-1.539-.242-2.141,1.3-2.679,1.052-.367,2.407-.5,3.047-1.236.618-.712.5-2.068.694-3.142Q6.418,252.26,7.5,246.286c.249-1.364.717-1.746,2.1-1.75,1.8,0,3.6,0,5.531,0,0-1.316,0-2.575,0-3.833,0-1.747.469-2.212,2.206-2.213,1.686,0,3.372-.01,5.059,0,1.239.01,1.8.535,1.829,1.77.034,1.386.008,2.773.008,4.273h5.1c1.991,0,2.274.259,2.619,2.19.836,4.683,1.7,9.36,2.53,14.044a1.154,1.154,0,0,0,.948,1.071c.827.216,1.629.525,2.44.8,1.424.483,1.753,1.143,1.246,2.569q-2.641,7.428-5.3,14.852c-.089.25-.175.5-.3.853a8.15,8.15,0,0,1,4.225,2.43,6.2,6.2,0,0,0,1.654.753v2.857h-.887a8.565,8.565,0,0,1-3.874-2.309,2.5,2.5,0,0,0-3.589.027,9.376,9.376,0,0,1-3.9,2.282H25.383a8.638,8.638,0,0,1-3.872-2.327,2.576,2.576,0,0,0-3.616,0,8.755,8.755,0,0,1-3.872,2.328H12.248a9.469,9.469,0,0,1-3.9-2.276,2.505,2.505,0,0,0-3.591-.042,8.839,8.839,0,0,1-3.868,2.319ZM21.2,260.27v5.205c0,4.94-.007,9.88.018,14.82a1.322,1.322,0,0,0,.41.926c.852.666,1.825,1.183,2.645,1.882a2.856,2.856,0,0,0,4-.025c.388-.363.825-.677,1.186-1.064a3.883,3.883,0,0,0,.855-1.165c.747-1.958,1.432-3.94,2.135-5.915,1.148-3.223,2.293-6.448,3.468-9.752L21.2,260.27m-17.707,4.9c.107.347.174.6.262.849,1.51,4.223,3.052,8.435,4.522,12.671a8.212,8.212,0,0,0,2.76,4.347c1.437,1.055,2.9,1.165,4.208-.045a9.712,9.712,0,0,1,2.132-1.546,1.187,1.187,0,0,0,.8-1.249c-.027-6.326-.015-12.652-.018-18.977,0-.28-.029-.56-.049-.927L3.494,265.17m4.524-4.731c.487-.149.844-.251,1.2-.369,3.164-1.052,6.317-2.136,9.5-3.133a3.462,3.462,0,0,1,1.954,0c3.208,1.007,6.389,2.1,9.58,3.164.319.106.646.187,1.117.322l-2.323-12.8H10.34L8.018,260.439m10.206-15.966h2.936v-2.911H18.224Z" transform="translate(-0.001 -196.068)" fill="#12263f"/>
          <path id="Trazado_748173" data-name="Trazado 748173" d="M251.106,350.015a20.421,20.421,0,0,1-3.116-1.737,6.3,6.3,0,0,1-1.455-2.175.919.919,0,0,0-.97-.653c-1.715.03-3.432.022-5.147.007-1.407-.012-1.918-.531-1.918-1.942q-.006-13.18,0-26.359c0-1.457.508-1.962,1.983-1.963q14.688-.006,29.377,0c1.44,0,1.952.529,1.965,2,.012,1.322,0,2.644,0,4.055h5.409c1.065,0,2.132.041,3.194-.012a1.936,1.936,0,0,1,2.036,1.222c1.421,2.921,2.883,5.823,4.332,8.731a1,1,0,0,0,.163.189v12.958a1.878,1.878,0,0,1-2,1.133c-.825-.035-1.656.042-2.478-.019-1.129-.084-2.038-.006-2.373,1.377a3.936,3.936,0,0,1-1.09,1.476,6.572,6.572,0,0,1-3.418,1.714h-1.775c-.069-.051-.13-.13-.207-.148a6.024,6.024,0,0,1-4.468-3.906,1.108,1.108,0,0,0-.861-.478c-2.867-.036-5.736.028-8.6-.046-1.14-.03-2.019.057-2.27,1.388a2.148,2.148,0,0,1-.462.749,6.518,6.518,0,0,1-4.075,2.442Zm17.626-7.592V318.28H241.571v24.14c1.462,0,2.875.025,4.286-.026.217-.008.518-.324.618-.564a6.041,6.041,0,0,1,5.608-3.912,5.934,5.934,0,0,1,5.662,3.929.8.8,0,0,0,.917.583c1.212-.023,2.424-.008,3.637-.008h6.434m3.154-18.128v14.294a.8.8,0,0,0,.227-.02,6.041,6.041,0,0,1,8.429,3.388.762.762,0,0,0,.526.442c.932.045,1.867.021,2.809.021v-9.078c-2.422,0-4.782.007-7.142,0-1.348-.005-1.865-.525-1.873-1.886-.012-2.069,0-4.138,0-6.207v-.951Zm-22.766,19.69a3.015,3.015,0,0,0,2.988,3,3.082,3.082,0,0,0,3.05-3.059,3.037,3.037,0,0,0-3.107-2.98,2.977,2.977,0,0,0-2.931,3.038m22.72,0a3.015,3.015,0,0,0,2.989,3,3.083,3.083,0,0,0,3.049-3.061,3.037,3.037,0,0,0-3.108-2.978,2.977,2.977,0,0,0-2.929,3.039M282.979,330.3c-1-1.994-1.921-3.858-2.869-5.711a.656.656,0,0,0-.462-.3c-.573-.036-1.149-.014-1.687-.014V330.3Z" transform="translate(-196.081 -259.13)" fill="#12263f"/>
          <path id="Trazado_748174" data-name="Trazado 748174" d="M110.076,33.467c-1.72-.234-3.377-.353-4.986-.7a20.584,20.584,0,0,1-10.36-5.823c-2.925-2.931-5.846-5.867-8.792-8.777a2.792,2.792,0,0,1-.881-2.128c.014-4.644,0-9.288.009-13.931C85.068.5,85.582,0,87.2,0q3.15,0,6.3,0c1.532,0,1.874.258,2.322,1.752,1.254,4.186,2.516,8.369,3.747,12.561.174.593.4.847,1.076.839,3.46-.039,6.921-.018,10.382-.018h.823c-.1-.5-.166-.917-.268-1.328-.7-2.837-1.417-5.672-2.12-8.509-.369-1.488.242-2.258,1.8-2.271,1.242-.01,2.485.023,3.727-.011a1.98,1.98,0,0,1,1.885,1.065c2.1,3.395,4.238,6.761,6.318,10.165a1.625,1.625,0,0,0,1.605.912c3.9-.023,7.809-.058,11.709.078a18.05,18.05,0,0,1,12.379,5.59q2.015,2,4.016,4.015c1.779,1.782,2.314,3.7,1.46,5.6-.948,2.114-2.706,2.9-4.945,2.9-8.844-.015-17.688.012-26.531-.031a2.183,2.183,0,0,0-2.075,1.086c-2.226,3.276-4.523,6.5-6.8,9.749-.99,1.415-1.266,1.507-2.875.975-1.15-.38-2.3-.747-3.449-1.138-1.342-.457-1.7-1.246-1.134-2.538,1.042-2.38,2.1-4.752,3.157-7.128.118-.266.227-.536.36-.852M144.327,21.18,144.37,21c-.281-.192-.553-.4-.844-.574a15.871,15.871,0,0,0-8.366-2.26q-22.01,0-44.019,0c-.219,0-.439.042-.756.074.166.2.25.317.351.418,2.134,2.134,4.261,4.273,6.406,6.4A17.965,17.965,0,0,0,110.9,30.284a1.131,1.131,0,0,0,.832-.552c1.179-2.763,1.112-2.435,3.975-2.456.237,0,.473,0,.71,0,2.13,0,4.26-.027,6.389.016a1.484,1.484,0,0,1,1.346,2.348c-.1.193-.192.389-.329.667h13.251q6.257,0,12.513,0a1.871,1.871,0,0,0,1.979-1.041,1.785,1.785,0,0,0-.636-2.127c-.783-.765-1.514-1.588-2.342-2.3a2.346,2.346,0,0,0-1.369-.576c-4.2-.044-8.4-.026-12.6-.026H133.6V21.18ZM88.151,3.025V15.068h8.381a.866.866,0,0,0,.021-.241c-1.125-3.789-2.248-7.578-3.4-11.359a.74.74,0,0,0-.537-.424c-1.47-.035-2.942-.019-4.468-.019M120,30.307c-1.591,0-2.975.03-4.356-.014a1.066,1.066,0,0,0-1.183.766c-1.4,3.248-2.852,6.473-4.284,9.707-.1.229-.186.465-.291.727a5.525,5.525,0,0,1,.808.3c.781.44,1.227.158,1.691-.555,1.076-1.657,2.246-3.253,3.379-4.873,1.366-1.954,2.734-3.907,4.236-6.054M112.8,6.162l2.222,8.9h5.132l-4.978-7.977c-.748-1.2-.772-1.207-2.377-.919" transform="translate(-69.93 0.001)" fill="#12263f"/>
          <path id="Trazado_748175" data-name="Trazado 748175" d="M119.2,360.977l14.715,4.912c-1.175,3.3-2.32,6.528-3.468,9.752-.7,1.975-1.388,3.957-2.135,5.916a3.885,3.885,0,0,1-.855,1.165c-.362.386-.8.7-1.187,1.064a2.856,2.856,0,0,1-4,.026c-.82-.7-1.793-1.216-2.645-1.882a1.32,1.32,0,0,1-.41-.926c-.025-4.94-.018-9.88-.018-14.82v-5.205" transform="translate(-98.001 -296.775)" fill="#d2e1f1"/>
          <path id="Trazado_748176" data-name="Trazado 748176" d="M19.645,365.984l14.621-4.877c.02.367.049.647.049.927,0,6.326-.009,12.651.018,18.977a1.187,1.187,0,0,1-.8,1.249,9.706,9.706,0,0,0-2.132,1.546c-1.313,1.21-2.772,1.1-4.208.045a8.213,8.213,0,0,1-2.76-4.347c-1.47-4.237-3.012-8.449-4.522-12.671-.088-.247-.156-.5-.262-.849" transform="translate(-16.152 -296.882)" fill="#d2e1f1"/>
          <path id="Trazado_748177" data-name="Trazado 748177" d="M45.082,302.7,47.4,289.889H66.1l2.323,12.8c-.471-.135-.8-.216-1.117-.322-3.191-1.061-6.372-2.157-9.58-3.164a3.462,3.462,0,0,0-1.954,0c-3.181,1-6.334,2.081-9.5,3.133-.352.117-.709.219-1.2.368m17.687-9.809h-12v2.922h12Z" transform="translate(-37.065 -238.331)" fill="#afafaf"/>
          <rect id="Rectángulo_357359" data-name="Rectángulo 357359" width="2.936" height="2.911" transform="translate(18.223 45.494)" fill="#e6b046"/>
          <path id="Trazado_748178" data-name="Trazado 748178" d="M282.942,356.715h-6.434c-1.212,0-2.425-.016-3.637.008a.8.8,0,0,1-.917-.582,5.933,5.933,0,0,0-5.662-3.929,6.041,6.041,0,0,0-5.608,3.911c-.1.241-.4.556-.618.564-1.411.051-2.824.026-4.286.026v-24.14h27.161Z" transform="translate(-210.291 -273.423)" fill="#57dbd8"/>
          <path id="Trazado_748179" data-name="Trazado 748179" d="M426.232,366.387H429.2v.951c0,2.069-.008,4.138,0,6.207.008,1.361.525,1.881,1.873,1.886,2.36.009,4.72,0,7.143,0v9.078c-.942,0-1.877.025-2.809-.021a.761.761,0,0,1-.526-.442,6.041,6.041,0,0,0-8.429-3.388.8.8,0,0,1-.226.02Z" transform="translate(-350.427 -301.223)" fill="#afafaf"/>
          <path id="Trazado_748183" data-name="Trazado 748183" d="M168.959,105.158H158.236v3.06h1.018c4.2,0,8.4-.018,12.6.026a2.345,2.345,0,0,1,1.369.576c.828.712,1.559,1.534,2.342,2.3a1.785,1.785,0,0,1,.636,2.127,1.871,1.871,0,0,1-1.979,1.041q-6.257-.007-12.513,0H148.458c.137-.279.229-.475.329-.667a1.484,1.484,0,0,0-1.346-2.348c-2.129-.044-4.26-.015-6.389-.016-.237,0-.473,0-.71,0-2.863.022-2.8-.307-3.975,2.456a1.131,1.131,0,0,1-.832.552,17.965,17.965,0,0,1-13.759-5.228c-2.145-2.122-4.273-4.262-6.406-6.4-.1-.1-.185-.219-.351-.418.317-.032.537-.074.756-.074q22.01,0,44.019,0a15.871,15.871,0,0,1,8.366,2.26c.291.176.563.382.844.574l-.043.178m-28.913,3h2.916v-2.94h-2.916Zm-6.058-.027h2.94v-2.9h-2.94ZM155.1,105.3h-2.931v2.837H155.1Zm-9,2.866h2.914v-2.935H146.1Zm-18.119-.009h2.908v-2.917h-2.908Z" transform="translate(-94.563 -83.976)" fill="#91b3fa"/>
          <path id="Trazado_748184" data-name="Trazado 748184" d="M102.454,16.992c1.526,0,3-.016,4.468.019a.74.74,0,0,1,.537.424c1.15,3.781,2.273,7.57,3.4,11.359a.874.874,0,0,1-.021.241h-8.381Z" transform="translate(-84.233 -13.966)" fill="#7299ea"/>
          <path id="Trazado_748185" data-name="Trazado 748185" d="M234.784,170.34c-1.5,2.147-2.87,4.1-4.236,6.054-1.133,1.62-2.3,3.216-3.379,4.873-.464.714-.91,1-1.691.555a5.544,5.544,0,0,0-.808-.3c.1-.262.189-.5.291-.727,1.432-3.234,2.884-6.46,4.284-9.707a1.066,1.066,0,0,1,1.183-.766c1.381.044,2.765.014,4.356.014" transform="translate(-184.713 -140.031)" fill="#7299ea"/>
          <path id="Trazado_748186" data-name="Trazado 748186" d="M241.034,33.927c1.605-.288,1.629-.279,2.377.919l4.978,7.977h-5.132l-2.222-8.9" transform="translate(-198.167 -27.763)" fill="#7299ea"/>
          <rect id="Rectángulo_357360" data-name="Rectángulo 357360" width="12" height="2.922" transform="translate(13.703 54.562)" fill="#12263f"/>
          <rect id="Rectángulo_357361" data-name="Rectángulo 357361" width="2.916" height="2.94" transform="translate(45.484 21.246)" fill="#12263f"/>
          <rect id="Rectángulo_357362" data-name="Rectángulo 357362" width="2.94" height="2.896" transform="translate(39.425 21.264)" fill="#12263f"/>
          <rect id="Rectángulo_357363" data-name="Rectángulo 357363" width="2.931" height="2.837" transform="translate(57.606 21.325)" fill="#12263f"/>
          <rect id="Rectángulo_357364" data-name="Rectángulo 357364" width="2.914" height="2.935" transform="translate(51.533 21.256)" fill="#12263f"/>
          <rect id="Rectángulo_357365" data-name="Rectángulo 357365" width="2.908" height="2.917" transform="translate(33.413 21.265)" fill="#12263f"/>
        </g>
      </g>
    </g>
  </g>
</svg>
