<svg xmlns="http://www.w3.org/2000/svg" xmlns:xlink="http://www.w3.org/1999/xlink" width="78" height="77.472" viewBox="0 0 78 77.472">
  <defs>
    <clipPath id="clip-path">
      <rect id="Rectángulo_358088" data-name="Rectángulo 358088" width="78" height="77.472" fill="none"/>
    </clipPath>
  </defs>
  <g id="Grupo_1021715" data-name="Grupo 1021715" transform="translate(0 0)">
    <g id="Grupo_1021714" data-name="Grupo 1021714" transform="translate(0 0)" clip-path="url(#clip-path)">
      <path id="Trazado_752578" data-name="Trazado 752578" d="M63.073,35.585A23.323,23.323,0,1,1,39.749,12.262,23.323,23.323,0,0,1,63.073,35.585" transform="translate(4.508 3.365)" fill="#e9eaec"/>
      <path id="Trazado_752579" data-name="Trazado 752579" d="M16.044,36.04l6.6,3.729L15.95,43.593l-6.5-3.729Z" transform="translate(2.594 9.89)" fill="#57dbd8"/>
      <path id="Trazado_752580" data-name="Trazado 752580" d="M21.242,38.966v7.647l-6.6,3.823-.094-7.647Z" transform="translate(3.993 10.693)" fill="#fff"/>
      <path id="Trazado_752581" data-name="Trazado 752581" d="M15.95,42.769l.094,7.647-6.59-3.823V39.04Z" transform="translate(2.594 10.713)" fill="#57dbd8"/>
      <path id="Trazado_752582" data-name="Trazado 752582" d="M23.959,39.906a1.057,1.057,0,0,0-.572-.956c-.094-.094-6.6-3.628-6.6-3.628a1.193,1.193,0,0,0-1.144,0l-6.6,3.823a1.044,1.044,0,0,0-.572.956l.094,7.647a1.062,1.062,0,0,0,.572.956l6.6,3.729a1.4,1.4,0,0,0,.572.189,1.392,1.392,0,0,0,.579-.189l6.59-3.823a1.334,1.334,0,0,0,.579-1.056Zm-7.647-2.39,4.207,2.39-4.3,2.49-4.207-2.3Zm-5.54,4.5,4.3,2.39.094,4.873-4.3-2.39Zm6.691,7.452L17.369,44.5l4.3-2.484.094,4.968Z" transform="translate(2.326 9.653)" fill="#1a0f91"/>
      <path id="Trazado_752583" data-name="Trazado 752583" d="M36.448,47.966l6.6,3.723-6.691,3.823-6.5-3.723Z" transform="translate(8.192 13.163)" fill="#57dbd8"/>
      <path id="Trazado_752584" data-name="Trazado 752584" d="M41.645,50.887v7.647l-6.6,3.823-.094-7.647Z" transform="translate(9.592 13.964)" fill="#fff"/>
      <path id="Trazado_752585" data-name="Trazado 752585" d="M36.354,54.689l.094,7.647-6.6-3.823V50.966Z" transform="translate(8.192 13.986)" fill="#57dbd8"/>
      <path id="Trazado_752586" data-name="Trazado 752586" d="M44.363,51.832a1.062,1.062,0,0,0-.572-.956c-.1-.094-6.6-3.628-6.6-3.628a1.205,1.205,0,0,0-1.151,0l-6.59,3.823a1.05,1.05,0,0,0-.579.956l.1,7.647a1.057,1.057,0,0,0,.572.956l6.6,3.723a1.268,1.268,0,0,0,.572.195,1.294,1.294,0,0,0,.572-.195l6.6-3.823a1.307,1.307,0,0,0,.572-1.05Zm-7.647-2.39,4.207,2.39-4.3,2.484-4.207-2.289Zm-5.546,4.5,4.3,2.39.094,4.873-4.3-2.3Zm6.691,7.452-.094-4.968,4.3-2.484.094,4.968Z" transform="translate(7.924 12.925)" fill="#1a0f91"/>
      <path id="Trazado_752587" data-name="Trazado 752587" d="M56.566,36.04l6.6,3.729-6.691,3.823-6.6-3.729Z" transform="translate(13.687 9.89)" fill="#57dbd8"/>
      <path id="Trazado_752588" data-name="Trazado 752588" d="M61.742,38.966v7.647l-6.6,3.823-.094-7.647Z" transform="translate(15.107 10.693)" fill="#fff"/>
      <path id="Trazado_752589" data-name="Trazado 752589" d="M56.471,42.769l.094,7.647-6.691-3.823V39.04Z" transform="translate(13.687 10.713)" fill="#57dbd8"/>
      <path id="Trazado_752590" data-name="Trazado 752590" d="M64.459,39.906a1.057,1.057,0,0,0-.572-.956c-.094-.094-6.6-3.628-6.6-3.628a1.193,1.193,0,0,0-1.144,0l-6.6,3.823a1.044,1.044,0,0,0-.572.956l.094,7.647a1.062,1.062,0,0,0,.572.956l6.6,3.729a.972.972,0,0,0,1.151,0l6.59-3.823a1.334,1.334,0,0,0,.579-1.056Zm-7.647-2.39,4.207,2.39-4.3,2.49-4.207-2.3Zm-5.54,4.5,4.3,2.39.094,4.873-4.3-2.39Zm6.691,7.452L57.869,44.5l4.3-2.484.094,4.968Z" transform="translate(13.441 9.653)" fill="#1a0f91"/>
      <path id="Trazado_752591" data-name="Trazado 752591" d="M56.566,12.637l6.6,3.729L56.471,20.19l-6.6-3.729Z" transform="translate(13.687 3.468)" fill="#57dbd8"/>
      <path id="Trazado_752592" data-name="Trazado 752592" d="M61.742,15.563V23.21l-6.6,3.823-.094-7.647Z" transform="translate(15.107 4.271)" fill="#fff"/>
      <path id="Trazado_752593" data-name="Trazado 752593" d="M56.471,19.366l.094,7.647L49.875,23.19V15.637Z" transform="translate(13.687 4.291)" fill="#57dbd8"/>
      <path id="Trazado_752594" data-name="Trazado 752594" d="M64.459,16.508a1.044,1.044,0,0,0-.572-.956c-.094-.094-6.6-3.635-6.6-3.635a1.228,1.228,0,0,0-1.144,0l-6.6,3.823a1.057,1.057,0,0,0-.572.956l.094,7.647a1.055,1.055,0,0,0,.572.956l6.6,3.729a.946.946,0,0,0,1.151,0l6.59-3.823a1.314,1.314,0,0,0,.579-1.05Zm-7.647-2.39,4.207,2.39-4.3,2.484-4.207-2.3Zm-5.54,4.49,4.3,2.39.094,4.88-4.3-2.39Zm6.691,7.458L57.869,21.1l4.3-2.49.094,4.974Z" transform="translate(13.441 3.231)" fill="#1a0f91"/>
      <path id="Trazado_752595" data-name="Trazado 752595" d="M36.294,1.012l6.6,3.729L36.2,8.565,29.7,4.836Z" transform="translate(8.152 0.277)" fill="#57dbd8"/>
      <path id="Trazado_752596" data-name="Trazado 752596" d="M41.492,3.938v7.647l-6.6,3.823L34.8,7.762Z" transform="translate(9.55 1.08)" fill="#fff"/>
      <path id="Trazado_752597" data-name="Trazado 752597" d="M36.2,7.741l.094,7.647L29.7,11.565V4.012Z" transform="translate(8.152 1.101)" fill="#57dbd8"/>
      <path id="Trazado_752598" data-name="Trazado 752598" d="M44.209,4.883a1.044,1.044,0,0,0-.572-.956c-.094-.094-6.6-3.635-6.6-3.635a1.228,1.228,0,0,0-1.144,0L29.3,4.116a1.057,1.057,0,0,0-.572.956l.094,7.647a1.055,1.055,0,0,0,.572.956l6.6,3.729a.946.946,0,0,0,1.151,0l6.59-3.823a1.314,1.314,0,0,0,.579-1.05Zm-7.647-2.39,4.207,2.39-4.3,2.484-4.207-2.3Zm-5.54,4.49,4.3,2.39.094,4.88-4.3-2.39Zm6.691,7.458-.094-4.968,4.3-2.49.094,4.974Z" transform="translate(7.883 0.041)" fill="#1a0f91"/>
      <rect id="Rectángulo_358082" data-name="Rectángulo 358082" width="2.294" height="8.792" transform="translate(24.388 28.537) rotate(-60.014)" fill="#1a0f91"/>
      <rect id="Rectángulo_358083" data-name="Rectángulo 358083" width="2.294" height="8.603" transform="translate(56.103 46.94) rotate(-60.058)" fill="#1a0f91"/>
      <rect id="Rectángulo_358084" data-name="Rectángulo 358084" width="8.413" height="2.294" transform="translate(55.716 30.996) rotate(-30.011)" fill="#1a0f91"/>
      <rect id="Rectángulo_358085" data-name="Rectángulo 358085" width="8.603" height="2.295" transform="translate(24.477 48.987) rotate(-30.007)" fill="#1a0f91"/>
      <rect id="Rectángulo_358086" data-name="Rectángulo 358086" width="2.295" height="9.37" transform="translate(43.207 16.011)" fill="#1a0f91"/>
      <rect id="Rectángulo_358087" data-name="Rectángulo 358087" width="2.295" height="9.37" transform="translate(43.207 52.332)" fill="#1a0f91"/>
      <path id="Trazado_752599" data-name="Trazado 752599" d="M37.353,19.841l11.759,6.785L37.259,33.506,25.5,26.721Z" transform="translate(6.998 5.445)" fill="#57dbd8"/>
      <path id="Trazado_752600" data-name="Trazado 752600" d="M46.58,25.165l.189,13.664L34.916,45.715l-.189-13.671Z" transform="translate(9.53 6.906)" fill="#fff"/>
      <path id="Trazado_752601" data-name="Trazado 752601" d="M37.259,32.024,37.448,45.7,25.6,38.91l-.1-13.671Z" transform="translate(6.998 6.926)" fill="#57dbd8"/>
      <path id="Trazado_752602" data-name="Trazado 752602" d="M50.6,26.749a1.044,1.044,0,0,0-.572-.956c-.189-.1-11.853-6.6-11.853-6.6a1.193,1.193,0,0,0-1.144,0L25.174,26.076a1.05,1.05,0,0,0-.572.956c0,.195.189,13.671.189,13.671a1.057,1.057,0,0,0,.579.956l11.753,6.691a.972.972,0,0,0,1.151,0L50.12,41.463a1.314,1.314,0,0,0,.579-1.05Zm-13-5.358,9.464,5.452-9.558,5.54-9.464-5.446ZM26.992,39.935,26.9,28.943l3.534,2.006,5.93,3.446.094,10.992Zm11.853,5.452-.094-11.093,9.458-5.446.1,10.992Z" transform="translate(6.751 5.228)" fill="#1a0f91"/>
      <path id="Trazado_752603" data-name="Trazado 752603" d="M16.044,12.637l6.6,3.729L15.95,20.19l-6.5-3.729Z" transform="translate(2.594 3.468)" fill="#57dbd8"/>
      <path id="Trazado_752604" data-name="Trazado 752604" d="M21.242,15.563V23.21l-6.6,3.823-.094-7.647Z" transform="translate(3.993 4.271)" fill="#fff"/>
      <path id="Trazado_752605" data-name="Trazado 752605" d="M15.95,19.366l.094,7.647L9.454,23.19V15.637Z" transform="translate(2.594 4.291)" fill="#57dbd8"/>
      <path id="Trazado_752606" data-name="Trazado 752606" d="M23.959,16.508a1.044,1.044,0,0,0-.572-.956c-.094-.094-6.6-3.635-6.6-3.635a1.228,1.228,0,0,0-1.144,0l-6.6,3.823a1.057,1.057,0,0,0-.572.956l.094,7.647a1.055,1.055,0,0,0,.572.956l6.6,3.729a1.41,1.41,0,0,0,.572.195,1.405,1.405,0,0,0,.579-.195l6.59-3.823a1.314,1.314,0,0,0,.579-1.05Zm-7.647-2.39,4.207,2.39-4.3,2.484-4.207-2.3Zm-5.54,4.49,4.3,2.39.094,4.88-4.3-2.39Zm6.691,7.458L17.369,21.1l4.3-2.49.094,4.974Z" transform="translate(2.326 3.231)" fill="#1a0f91"/>
      <path id="Trazado_752607" data-name="Trazado 752607" d="M19.254,17.464l-1.629-1.528a30.091,30.091,0,0,1,15.293-8.7l.478,2.2a28.035,28.035,0,0,0-14.142,8.024" transform="translate(4.837 1.986)" fill="#1a0f91"/>
      <path id="Trazado_752608" data-name="Trazado 752608" d="M12.267,40.89a29.443,29.443,0,0,1-1.239-8.6,29.59,29.59,0,0,1,1.239-8.7l2.2.667a28.489,28.489,0,0,0-1.144,8.03,27.83,27.83,0,0,0,1.144,7.929Z" transform="translate(3.026 6.474)" fill="#1a0f91"/>
      <path id="Trazado_752609" data-name="Trazado 752609" d="M32.905,55.949a29.837,29.837,0,0,1-15.576-9.08l1.717-1.528a27.8,27.8,0,0,0,14.337,8.313Z" transform="translate(4.756 12.442)" fill="#1a0f91"/>
      <path id="Trazado_752610" data-name="Trazado 752610" d="M40.381,55.855l-.478-2.2a27.931,27.931,0,0,0,14.243-8.313l1.717,1.528a29.806,29.806,0,0,1-15.482,8.986" transform="translate(10.95 12.442)" fill="#1a0f91"/>
      <path id="Trazado_752611" data-name="Trazado 752611" d="M58.243,40.973,56.048,40.3a28.057,28.057,0,0,0,1.144-7.929,31.046,31.046,0,0,0-1.239-8.414l2.195-.667a29.527,29.527,0,0,1,1.434,9.08,42.168,42.168,0,0,1-1.339,8.6" transform="translate(15.355 6.391)" fill="#1a0f91"/>
      <path id="Trazado_752612" data-name="Trazado 752612" d="M53.836,17.464A28.72,28.72,0,0,0,39.977,9.44l.572-2.2a30.182,30.182,0,0,1,15.01,8.6Z" transform="translate(10.971 1.986)" fill="#1a0f91"/>
      <path id="Trazado_752613" data-name="Trazado 752613" d="M19.969,3.679a1.166,1.166,0,0,1-1.05-.667,1.192,1.192,0,0,1,.667-1.528,38.323,38.323,0,0,1,4.3-1.434A1.185,1.185,0,0,1,25.32.812a1.182,1.182,0,0,1-.761,1.434c-1.339.384-2.773.862-4.113,1.339a4.248,4.248,0,0,0-.478.094" transform="translate(5.172 0)" fill="#fff"/>
      <path id="Trazado_752614" data-name="Trazado 752614" d="M1.151,36.267A1.186,1.186,0,0,1,0,35.022,39.442,39.442,0,0,1,16.828,4.436a1.129,1.129,0,0,1,1.622.289,1.118,1.118,0,0,1-.289,1.622A37.115,37.115,0,0,0,2.3,35.123a1.1,1.1,0,0,1-1.144,1.144" transform="translate(0 1.155)" fill="#fff"/>
    </g>
  </g>
</svg>
