<svg id="Grupo_1024808" data-name="Grupo 1024808" xmlns="http://www.w3.org/2000/svg" xmlns:xlink="http://www.w3.org/1999/xlink" width="173.875" height="173.739" viewBox="0 0 173.875 173.739">
  <defs>
    <clipPath id="clip-path">
      <rect id="Rectángulo_360961" data-name="Rectángulo 360961" width="173.875" height="173.74" fill="none"/>
    </clipPath>
  </defs>
  <g id="Grupo_1024807" data-name="Grupo 1024807" clip-path="url(#clip-path)">
    <path id="Trazado_764773" data-name="Trazado 764773" d="M157.592,49.853c-1.635,1.143-3.59,1.342-5.443,1.841-.336-.033-.683-.158-1.012.152a2.72,2.72,0,0,0,.5.134,2.834,2.834,0,0,0,.513-.049L164.278,52c2.609.015,3.8,1.211,3.806,3.838.006,8.452.016,16.9-.016,25.355a3.014,3.014,0,0,0,.923,2.367c2.823,2.831,2.7,3.847-.6,6.1-.278.19-.5.3-.47.792.12,2.094.158,4.2.159,6.293q.015,28.887-.033,57.775c-.005,1.524.369,1.9,1.864,1.84,2.864-.123,4,1.087,3.96,4a35.8,35.8,0,0,1-.321,6.618c-.733,3.7-4.881,6.766-8.24,6.764q-78.966-.078-157.931-.056c-3.033,0-7.3-4.211-7.351-7.227-.035-2.293-.035-4.588-.013-6.882s.969-3.218,3.286-3.252c2.5-.038,2.5-.038,2.5-2.571V56.313C5.8,52.641,6.434,52,10.028,52c8.693,0,17.386-.026,26.08.029,1.219.008,1.629-.219,1.61-1.539-.062-4.284,0-4.285-4.267-4.285q-13.494,0-26.986,0c-2.676,0-3.483-.864-3.564-3.529C2.676,35.23,8.424,26.937,15.206,24.791c.619.646.959.457,1.088-.364l1.1-.623c.06.3.129.6.517.6.49,0,.531-.372.57-.735a19.646,19.646,0,0,1,4.279-.649q38.12.008,76.239.022c4.074.009,8.116.47,11.45,3.249.058.2.143.363.4.29a.4.4,0,0,0,.314.077c.061.486.2.908.778.986.583.8,1.185,1.6,1.746,2.415,1.964,2.862,2.053,6.2,2.2,9.462.166,3.73.05,7.473.029,11.211,0,.793-.01,1.3,1.1,1.294,8.736-.054,17.475-.03,26.234-.12a26.228,26.228,0,0,1-9.231-3.853c-.033-.733.037-1.624-1.086-.725a20.583,20.583,0,0,1-7.641-8.351c.317-.2.5-.482.278-.813-.24-.351-.451-.1-.62.134-1.726-2.125-2.1-4.782-2.874-7.283a9.822,9.822,0,0,1-.3-4.013c.437-.058.909-.172.872-.7-.035-.506-.54-.33-.868-.386a15,15,0,0,1,.357-5.433c.509-.1.847-.257.261-.74.1-.613-.1-1.306.469-1.8.374-.038.846.081.952-.455.087-.439-.233-.573-.595-.632l.617-1.1c.977-.171.805-.74.472-1.365a26.076,26.076,0,0,1,9.766-10.778,2.655,2.655,0,0,1,.657-.2c.656.63.66.072.714-.393.112-.435.6-.194.814-.453.613.157,1.253.372,1.355-.609l-.019.019.409-.256.712-.113c.629.649.965.451,1.085-.375,1.141-1.266,2.758-.781,4.126-.974a26.186,26.186,0,0,1,12.626,1.33,27.94,27.94,0,0,1,7.471,4.038c.076.194.156.38.425.3a23.473,23.473,0,0,1,5.854,7.285c-.63.637-.107.669.379.72.937,1.094,1.105,2.56,1.821,3.762-.059.262-.2.566.281.551q.51,3.652,1.019,7.306c-.311.061-.829-.123-.828.364s.519.3.83.361c-.481,3.19-.283,6.529-2.061,9.435-.476.062-.973.112-.368.723a2.644,2.644,0,0,1-.693,1.461c-.466.059-1.02.071-.381.718a21.971,21.971,0,0,1-9.817,9.8c-.607-.6-.664-.117-.726.364a1.085,1.085,0,0,1-1.085.722c-.608-.643-.952-.461-1.094.351m2.141-7.643a1.074,1.074,0,0,0,1.108-.721,48.221,48.221,0,0,0,3.215-3.625c3.628-4.982,4.528-10.53,3.326-16.523A20.039,20.039,0,0,0,151.53,6.053c-.5-.1-.883-.017-.815.577.1.865-.36,1.8.3,2.6.569.38,1.14.756,1.707,1.141,2.454,1.665,3.181,4.2,3.68,6.939.45,2.472.3,2.842-2.178,2.8-1.127-.02-2.5.467-3.3-.256-.5-.454-.128-1.816-.254-2.757a3.214,3.214,0,0,0-3.2-2.751c-1.685.091-2.537,1.125-2.566,3.127-.009.543.022,1.087-.007,1.629-.2,3.637.818,3.772,4.18,4.271a7.631,7.631,0,0,1,5.244,2.952,11.3,11.3,0,0,1,1.838,9.235c-.541,2.877-1.659,5.266-4.378,6.66a.641.641,0,0,0-.72.633,2.515,2.515,0,0,0-.121,2.841c.407.627,1.417-.039,2.15-.2,2.045-.436,3.721-1.679,5.564-2.558a.735.735,0,0,0,.736-.364l.341-.363M25.354,29.254a10.019,10.019,0,0,0-4.875-.114A14.908,14.908,0,0,0,9.5,38.1c-.58,1.462,0,2.3,1.412,2.3,6.866,0,13.733-.032,20.6-.051h5.734c-1.461-6.892-7.172-10.8-11.894-11.093m96.009,28.6c-1.484-.021-2.969-.006-4.45-.079-.784-.039-1.04.218-1,1,.072,1.481.057,2.967.078,4.45q0,7.781,0,15.563,0,5.983,0,11.966,0,7.424-.006,14.848c-.019,1.93.032,3.864-.082,5.788-.07,1.184.29,1.5,1.477,1.486q8.689-.1,17.38,0c1.184.013,1.495-.3,1.482-1.484-.063-5.732-.029-11.466-.029-17.2,0-4.707,0-4.707-4.709-4.471-1.323-.019-2.645-.057-3.968-.052a2.63,2.63,0,0,1-2.657-1.69,2.762,2.762,0,0,1,.415-3.122c3.5-4.025,7.031-8.017,10.53-12.039,2.987-3.433,5.978-6.863,8.9-10.347a3.459,3.459,0,0,1,5.388-.347c1.251,1.271,2.385,2.657,3.572,3.992l8.542,9.818V58.514c.206-.98-.538-.711-.992-.71-4.6.005-9.195.033-13.792.054l-11.24,0-14.841,0m22.186-15.294c-.44-.806-1.58-.872-1.905-1.8l-.286-.35a8.057,8.057,0,0,1-2.274-6.315c.113-2.382.025-2.387,2.377-2.387,3.275,0,3.317,0,3.442,3.287a2.372,2.372,0,0,0,1.547,2.365,3.323,3.323,0,0,0,3.1-.385c1.081-.783,1.583-4.271.969-5.955-.623-1.707-1.93-2.224-3.634-2.227a7.669,7.669,0,0,1-5.55-2.765c-3.006-3.177-2.524-7.176-1.978-10.98.416-2.909,2.723-4.591,5.211-5.9a3.213,3.213,0,0,0,.192-2.887c-.148-.567-1.139-.379-1.635-.218a24.94,24.94,0,0,0-5.849,2.369c-7.674,4.873-10.99,12.079-9.633,20.865,1.313,8.507,6.919,13.894,15.38,16.473.541.165,1.76.663,1.815-.555.043-.959.87-2.63-1.288-2.636M5.873,164.648c-.069,2.5.62,3.235,3.049,3.264.482.006.965,0,1.448,0H163.614c3.409,0,3.409,0,4.4-3.267.152-2.528.152-2.528-2.316-2.528H8.19c-2.469,0-2.469,0-2.316,2.529m133.587-19.86q-12.038-.028-24.075-.055-19.372-.013-38.744-.009c-.837,0-1.863-.14-1.943.968-.188,2.608-1.527,4.734-2.621,6.973l-2.852,3.592c.332.037.448.061.565.061,20.45,0,40.9-.033,61.351.019,6.01.015,12.523-5.537,13.195-11.55h-4.875M134.4,83.8c1.2.027,2.406.037,3.608.081,2.594.1,3.97,1.377,3.983,3.96.044,8.977.105,17.955-.037,26.93-.044,2.747-1.346,3.935-3.96,3.919-14.1-.081-28.2-.04-42.294-.041-.019-1.507.021-3.018-.079-4.521-.068-1.027.265-1.312,1.289-1.3,3.8.061,7.607-.057,11.4.064,1.507.048,1.858-.342,1.855-1.85-.054-24.139-.023-48.278-.048-72.416-.007-6.283-3.606-9.79-9.769-9.8q-30.6-.05-61.191-.012H37.143A17.611,17.611,0,0,1,40.284,32.8c-.075.261.075.34.294.364,2.214,3.624,2.777,7.7,2.854,11.794.153,8.08.045,16.167.045,24.25,0,2.981,0,2.981-2.893,3.132a4,4,0,0,0-.9-.051c-1.623.278-2.111-.331-2.047-2,.14-3.677-.006-7.364.072-11.045.025-1.179-.293-1.494-1.48-1.485-7.546.057-15.092.083-22.637-.015-1.655-.021-2.034.418-2.03,2.046q.077,47.269.038,94.536a6.5,6.5,0,0,1-.006.9c-.127.882.247,1.113,1.106,1.1,4.948-.057,9.9-.058,14.846-.079H41.991a17.135,17.135,0,0,1-4.369-10.434c.02-2.263.05-4.527.058-6.79.009-2.906,0-2.906,2.905-3.06a4.788,4.788,0,0,0,1.079.048c1.5-.268,1.98.3,1.848,1.82-.15,1.737-.052,3.5-.029,5.245a16.935,16.935,0,0,0,.187,4.475,12.093,12.093,0,0,0,12.059,8.844c6.673-.178,13.243-6.426,13.516-13.062.115-2.769.507-4.432,4.511-4.427,13.089.017,26.178-.027,39.266-.046.662.02,1.325.057,1.988.057q15.666.005,31.332.012c1.629,0,3.429.216,3.892,2.029a9.734,9.734,0,0,1-.045,4.466,21.919,21.919,0,0,1-5.769,10.883c5.6,0,10.893-.064,16.179.041,1.492.03,1.722-.463,1.719-1.8q-.06-31.513-.028-63.026a6.636,6.636,0,0,1,.007-.9c.117-.846-.33-.912-1.044-.99-1.442-.157-1.913.22-1.9,1.8.079,12.376.045,24.751.042,37.128,0,3.443-1.125,4.564-4.538,4.569q-20.916.027-41.832.059c-3.983-.02-7.965-.005-11.946-.076-1.785-.032-4.311.806-5.158-.338-.893-1.205-.212-3.577-.219-5.438,18.637,0,37.274-.029,55.912.04,1.715.006,2.031-.511,2.023-2.095-.063-12.485-.035-24.97-.034-37.455,0-3.033.871-3.919,3.916-3.96,1.278-.017,2.558,0,4.089,0-4.415-5.079-8.588-9.856-12.725-14.665-.844-.981-1.475-1.183-2.42-.07-4.023,4.732-8.109,9.412-12.171,14.111l-.489.424.6.122m14.519-32.2-.433.242c.1.049.2.14.3.137a2.367,2.367,0,0,0,.481-.112l-.346-.266m-1.741.214c-.1-.052-.2-.138-.286-.135s-.177.094-.266.146c.091.049.182.136.272.135s.179-.09.28-.146" transform="translate(0 0)" fill="#12263f"/>
    <path id="Trazado_764774" data-name="Trazado 764774" d="M142.159,30.253c.327.056.832-.121.867.386.038.529-.434.644-.872.7l.005-1.087" transform="translate(-20.373 -4.336)"/>
    <path id="Trazado_764775" data-name="Trazado 764775" d="M155.173,55.186c1.123-.9,1.053-.009,1.087.725l-1.087-.725" transform="translate(-22.238 -7.854)"/>
    <path id="Trazado_764776" data-name="Trazado 764776" d="M143.785,19.682c.362.059.682.194.595.632-.106.536-.578.417-.952.455l.357-1.087" transform="translate(-20.555 -2.821)"/>
    <path id="Trazado_764777" data-name="Trazado 764777" d="M21.393,27.632c-.039.363-.08.736-.57.735-.387,0-.457-.3-.517-.6l1.086-.133" transform="translate(-2.91 -3.96)"/>
    <path id="Trazado_764778" data-name="Trazado 764778" d="M145.855,44.657c.17-.23.38-.486.62-.134.226.332.039.618-.278.813-.382-.091-.318-.407-.343-.678" transform="translate(-20.903 -6.356)"/>
    <path id="Trazado_764779" data-name="Trazado 764779" d="M163.021,1.439c-.119.827-.456,1.023-1.085.376.212-.558.731-.229,1.085-.376" transform="translate(-23.208 -0.206)"/>
    <path id="Trazado_764780" data-name="Trazado 764780" d="M18.839,28.514c-.129.82-.469,1.01-1.088.364.215-.561.738-.206,1.088-.364" transform="translate(-2.544 -4.086)"/>
    <path id="Trazado_764781" data-name="Trazado 764781" d="M183.956,58.069c.141-.812.486-.993,1.093-.35-.22.566-.727.238-1.093.35" transform="translate(-26.363 -8.216)"/>
    <path id="Trazado_764782" data-name="Trazado 764782" d="M202.756,30.555c-.312-.06-.829.123-.831-.361s.517-.3.828-.364Z" transform="translate(-28.938 -4.275)"/>
    <path id="Trazado_764783" data-name="Trazado 764783" d="M145.037,16.8c.334.625.505,1.193-.472,1.366a1.653,1.653,0,0,1,.472-1.366" transform="translate(-20.718 -2.408)"/>
    <path id="Trazado_764784" data-name="Trazado 764784" d="M130.539,32.108c-.577-.079-.718-.5-.779-.986.718-.033.8.44.779.986" transform="translate(-18.596 -4.46)" fill="#fdfdfd"/>
    <path id="Trazado_764785" data-name="Trazado 764785" d="M160.423,2.286c-.1.981-.742.766-1.355.609l1.355-.609" transform="translate(-22.797 -0.328)"/>
    <path id="Trazado_764786" data-name="Trazado 764786" d="M199.136,16.147c-.486-.051-1.008-.083-.379-.721.427.082.314.448.379.721" transform="translate(-28.443 -2.211)"/>
    <path id="Trazado_764787" data-name="Trazado 764787" d="M158,3.527c-.055.464-.058,1.023-.714.393.093-.4.449-.312.714-.393" transform="translate(-22.541 -0.505)"/>
    <path id="Trazado_764788" data-name="Trazado 764788" d="M186.5,56.832c.062-.481.12-.969.726-.364-.075.454-.457.3-.726.364" transform="translate(-26.728 -8.052)"/>
    <path id="Trazado_764789" data-name="Trazado 764789" d="M198.757,44.956c-.639-.647-.085-.659.381-.718-.063.273.048.639-.381.718" transform="translate(-28.443 -6.34)"/>
    <path id="Trazado_764790" data-name="Trazado 764790" d="M200.012,42.413c-.606-.611-.109-.661.368-.723-.048.278.063.639-.368.723" transform="translate(-28.624 -5.975)"/>
    <path id="Trazado_764791" data-name="Trazado 764791" d="M142.828,23.047c.586.484.248.642-.26.74-.064-.3-.161-.612.26-.74" transform="translate(-20.424 -3.303)"/>
    <path id="Trazado_764792" data-name="Trazado 764792" d="M177.433,60.571a2.837,2.837,0,0,1-.514.049,2.8,2.8,0,0,1-.5-.134c.329-.309.676-.186,1.012-.152,0,.079,0,.158,0,.237" transform="translate(-25.283 -8.639)" fill="#fdfdfd"/>
    <path id="Trazado_764793" data-name="Trazado 764793" d="M191.9,6.873c-.269.076-.35-.111-.425-.3l.425.3" transform="translate(-27.441 -0.941)" fill="#fdfdfd"/>
    <path id="Trazado_764794" data-name="Trazado 764794" d="M161.036,2l-.409.257c.061-.206.159-.353.409-.257" transform="translate(-23.02 -0.283)"/>
    <path id="Trazado_764795" data-name="Trazado 764795" d="M129.327,30.983c-.256.074-.341-.09-.4-.29l.4.29" transform="translate(-18.477 -4.399)" fill="#fdfdfd"/>
    <path id="Trazado_764796" data-name="Trazado 764796" d="M201.645,21.21c-.483.015-.34-.289-.282-.551l.282.551" transform="translate(-28.849 -2.961)" fill="#fdfdfd"/>
    <path id="Trazado_764797" data-name="Trazado 764797" d="M46.5,37.624a17.652,17.652,0,0,0-3.141-3.989h2.016q30.6,0,61.191.012c6.163.011,9.762,3.518,9.769,9.8.025,24.138-.006,48.278.048,72.416,0,1.509-.348,1.9-1.855,1.851-3.8-.122-7.6,0-11.4-.064-1.025-.016-1.357.268-1.289,1.294.1,1.5.06,3.014.079,4.522v8.7c.007,1.862-.673,4.232.219,5.437.847,1.144,3.373.307,5.158.338,3.981.071,7.964.056,11.946.076V143.7c-13.088.02-26.177.063-39.266.046-4-.005-4.4,1.659-4.511,4.427-.273,6.636-6.843,12.883-13.516,13.061a12.092,12.092,0,0,1-12.059-8.844,16.935,16.935,0,0,1-.187-4.475c-.023-1.749-.121-3.509.029-5.245.132-1.521-.344-2.089-1.848-1.82A4.789,4.789,0,0,1,46.8,140.8v-5.676c2.251-.707,2.726-1.432,2.858-4.205.152-3.171.035-6.354.035-9.456.477-.237.674.027.934.157q10.1,5.059,20.214,10.1c1.707.851,3.911.376,4.453-1.145a9.3,9.3,0,0,0,.5-3.111q-.05-24.057-.027-48.115a24.655,24.655,0,0,0-.36-6.22l-.3-.363c-1.222-1.619-2.791-1.347-4.279-.613-6.564,3.234-13.114,6.5-19.624,9.84a7,7,0,0,1-4.407.853V77.164c2.893-.151,2.893-.151,2.893-3.133,0-8.083.108-16.169-.045-24.249-.078-4.091-.641-8.17-2.854-11.794l-.294-.364m37.993,77.125c-.009.479-.023.958-.024,1.438-.007,4.533-.007,4.506,4.6,4.409.9-.02,1.27-.191,1.212-1.175-.092-1.552-.039-3.113-.047-4.671.479.009.958.026,1.437.027,4.531.008,4.5.008,4.407-4.606-.019-.9-.194-1.269-1.176-1.211-1.551.092-3.112.038-4.67.047.009-.479.026-.958.027-1.437.008-4.53.008-4.5-4.6-4.407-.9.019-1.272.189-1.213,1.175.093,1.551.04,3.112.05,4.669-.479-.009-.958-.023-1.437-.024-4.533-.007-4.506-.007-4.409,4.6.019.9.187,1.272,1.174,1.213,1.552-.093,3.113-.04,4.67-.05m11.592-34.72C95.6,80.02,95.125,80,94.646,80c-4.531-.009-4.5-.008-4.407,4.6.019.9.194,1.27,1.176,1.21,1.551-.09,3.112-.038,4.67-.046-.009.479-.026.958-.027,1.437-.008,4.531-.008,4.5,4.6,4.407.9-.019,1.272-.188,1.213-1.174-.093-1.553-.04-3.112-.05-4.67.479.009.958.024,1.437.024,4.533.008,4.506.008,4.409-4.6-.019-.9-.187-1.273-1.174-1.215-1.552.094-3.113.042-4.67.051.009-.479.023-.958.024-1.437.007-4.533.007-4.506-4.6-4.409-.9.019-1.27.192-1.212,1.175.092,1.552.039,3.114.047,4.671m-14.517-40.6H59.473c-3.992,0-3.911,0-4.027,3.985-.045,1.518.36,1.855,1.858,1.849,15.393-.063,30.785-.039,46.178-.039,4.187,0,4.121,0,4.2-4.167.028-1.365-.327-1.675-1.673-1.664-8.149.07-16.3.035-24.447.035M78.487,56.818H97.682c4.19,0,4.126,0,4.208-4.162.027-1.356-.316-1.674-1.669-1.669-13.46.058-26.921.036-40.383.036-4.4,0-4.355,0-4.383,4.343-.008,1.181.3,1.49,1.482,1.479,7.182-.057,14.366-.028,21.549-.028m-2.9,11.593h16.3c4.188,0,4.123,0,4.206-4.165.027-1.359-.32-1.674-1.671-1.665-11.528.06-23.058.034-34.587.034-4.4,0-4.354,0-4.381,4.346-.008,1.183.3,1.49,1.484,1.479,6.216-.061,12.434-.028,18.651-.028m26.263,34.62c0,3.051,0,3.051,3.106,3.051,2.689,0,2.689,0,2.689-2.743,0-3.052,0-3.052-3.105-3.052-2.69,0-2.69,0-2.69,2.744" transform="translate(-6.214 -4.819)" fill="#fff"/>
    <path id="Trazado_764798" data-name="Trazado 764798" d="M42.519,139.963v5.676c-2.9.153-2.895.153-2.905,3.059-.008,2.263-.038,4.528-.058,6.791L29.48,165.923c-4.948.021-9.9.021-14.846.079-.859.009-1.233-.221-1.106-1.1a6.5,6.5,0,0,0,.007-.9q0-47.267-.039-94.535c0-1.629.375-2.067,2.03-2.046,7.545.1,15.092.07,22.637.014,1.187-.009,1.506.307,1.48,1.486-.078,3.68.068,7.368-.072,11.045-.063,1.665.425,2.274,2.047,2a3.945,3.945,0,0,1,.9.05V87.68c-2.29.021-4.585.137-6.87.039-3.732-.162-5.309,1.21-4.726,4.563.182,1.046-.287,1.307-1.288,1.277-2.35-.07-4.7-.077-7.055-.006a3.108,3.108,0,0,0-3.3,3.288c.137,6.511.049,13.026.057,19.539,0,2.217,1.038,3.228,3.286,3.236,2.292.008,4.587.08,6.873-.029,1.236-.059,1.468.374,1.455,1.509-.058,5.186-.031,10.374-.023,15.56,0,2.223,1.034,3.231,3.276,3.248l8.318.06" transform="translate(-1.934 -9.661)" fill="#d8edfe"/>
    <path id="Trazado_764799" data-name="Trazado 764799" d="M111.708,138.788v-8.7c14.1,0,28.2-.039,42.294.041,2.614.015,3.916-1.172,3.96-3.919.143-8.975.081-17.953.037-26.93-.012-2.583-1.388-3.861-3.983-3.96-1.2-.045-2.4-.055-3.608-.081q-.057-.272-.111-.546c4.062-4.7,8.148-9.379,12.17-14.112.946-1.112,1.577-.91,2.42.071,4.138,4.809,8.311,9.585,12.725,14.665-1.531,0-2.81-.014-4.089,0-3.045.039-3.916.927-3.916,3.96,0,12.485-.028,24.971.035,37.455.008,1.583-.308,2.1-2.023,2.095-18.636-.069-37.274-.042-55.911-.04" transform="translate(-16.009 -11.44)" fill="#57dbd8"/>
    <path id="Trazado_764800" data-name="Trazado 764800" d="M131.929,153.865V148.19q20.916-.03,41.832-.059c3.413-.005,4.537-1.126,4.538-4.57,0-12.376.037-24.751-.042-37.127-.009-1.583.462-1.96,1.9-1.8.714.078,1.162.144,1.044.99a6.639,6.639,0,0,0-.006.9q0,31.513.027,63.026c0,1.338-.227,1.832-1.719,1.8-5.287-.105-10.578-.041-16.179-.041a21.92,21.92,0,0,0,5.769-10.883,9.733,9.733,0,0,0,.045-4.466c-.463-1.813-2.262-2.025-3.892-2.029q-15.667-.028-31.332-.012c-.662,0-1.325-.038-1.988-.057" transform="translate(-18.907 -14.99)" fill="#d8edfe"/>
    <path id="Trazado_764801" data-name="Trazado 764801" d="M84.135,176.876c1.094-2.239,2.434-4.366,2.621-6.973.08-1.109,1.106-.968,1.943-.968q19.372.014,38.744.009,12.038.009,24.075.055c-2.953,5.332-7.676,8.43-13.551,8.528-17.48.294-34.968.108-52.454.106-.591,0-1.264.123-1.378-.756" transform="translate(-12.058 -24.21)" fill="#e4e4e4"/>
    <path id="Trazado_764802" data-name="Trazado 764802" d="M6.848,191.768c-.152-2.529-.152-2.529,2.316-2.529H166.676c2.469,0,2.469,0,2.316,2.528-3.163.621-6.363.358-9.547.359q-71.525.023-143.05,0c-3.183,0-6.384.26-9.547-.358" transform="translate(-0.974 -27.12)" fill="#6699eb"/>
    <path id="Trazado_764803" data-name="Trazado 764803" d="M6.856,192.191c3.163.619,6.363.357,9.547.358q71.525.022,143.05,0c3.183,0,6.384.262,9.547-.359-1,3.267-1,3.267-4.4,3.267H11.352c-.482,0-.965,0-1.447,0-2.43-.029-3.119-.768-3.049-3.264" transform="translate(-0.982 -27.543)" fill="#5d8cdd"/>
    <path id="Trazado_764804" data-name="Trazado 764804" d="M150.888,104.726c4.71-.236,4.71-.236,4.71,4.471,0,5.734-.035,11.467.028,17.2.013,1.181-.3,1.5-1.482,1.484q-8.689-.1-17.38,0c-1.187.013-1.547-.3-1.477-1.486.114-1.924.063-3.858.082-5.788a1.506,1.506,0,0,0,1.076-.588q6.988-7.174,13.981-14.346a1.412,1.412,0,0,0,.462-.947" transform="translate(-19.387 -14.997)" fill="#d8edfe"/>
    <path id="Trazado_764805" data-name="Trazado 764805" d="M155.607,67.533l11.24,0a1.613,1.613,0,0,1-.6,1.075c-4.9,5.138-9.78,10.3-14.707,15.416q-6.96,7.224-14.015,14.356c-.691.7-.894,1.932-2.138,2.055q0-5.983,0-11.966c7.035-6.694,13.481-13.959,20.219-20.94" transform="translate(-19.403 -9.678)" fill="#d8edfe"/>
    <path id="Trazado_764806" data-name="Trazado 764806" d="M176.019,43.715c2.719-1.393,3.837-3.783,4.379-6.659a11.3,11.3,0,0,0-1.838-9.236,7.627,7.627,0,0,0-5.244-2.951c-3.362-.5-4.374-.634-4.179-4.271.029-.541,0-1.085.006-1.629.03-2,.881-3.036,2.566-3.127a3.216,3.216,0,0,1,3.2,2.752c.127.94-.248,2.3.254,2.757.8.722,2.173.236,3.3.255,2.476.042,2.628-.328,2.178-2.8-.5-2.742-1.226-5.275-3.679-6.94-.566-.385-1.139-.761-1.707-1.14.41-.469.846-.223,1.318-.09a17.313,17.313,0,0,1,11.694,22.94,16.02,16.02,0,0,1-12.322,10.483c.03-.114.056-.228.077-.344" transform="translate(-24.236 -1.498)" fill="#f0dcc0"/>
    <path id="Trazado_764807" data-name="Trazado 764807" d="M135.39,100.426c1.244-.123,1.447-1.356,2.138-2.055q7.05-7.136,14.014-14.356c4.927-5.115,9.8-10.278,14.708-15.417a1.611,1.611,0,0,0,.6-1.074c4.6-.022,9.194-.05,13.792-.056.454,0,1.2-.269.992.712-1.952,1.033-3.207,2.806-4.665,4.369-1.154,1.238-1.979,2.887-3.877,3.24-1.186-1.335-2.321-2.721-3.572-3.993a3.459,3.459,0,0,0-5.388.347c-2.926,3.485-5.917,6.915-8.9,10.347-3.5,4.023-7.034,8.014-10.53,12.04a2.763,2.763,0,0,0-.416,3.122,2.631,2.631,0,0,0,2.657,1.689c1.323,0,2.645.033,3.968.053a1.412,1.412,0,0,1-.462.947q-6.994,7.17-13.982,14.345a1.5,1.5,0,0,1-1.075.589q0-7.424.006-14.848" transform="translate(-19.402 -9.664)" fill="#e7f4ff"/>
    <path id="Trazado_764808" data-name="Trazado 764808" d="M166.378,10.683c-2.489,1.311-4.795,2.992-5.211,5.9-.546,3.8-1.028,7.8,1.978,10.98a7.669,7.669,0,0,0,5.55,2.765c1.7,0,3.011.519,3.634,2.227.614,1.683.112,5.172-.969,5.955a3.322,3.322,0,0,1-3.1.385,2.372,2.372,0,0,1-1.547-2.365c-.125-3.289-.167-3.288-3.442-3.287-2.352,0-2.264,0-2.377,2.387a8.06,8.06,0,0,0,2.274,6.315c-.062.245.084.32.286.35.326.927,1.465.993,1.905,1.8-4.426-.366-7.373-3.21-9.769-6.44a17.194,17.194,0,0,1,3.483-24.015c2.1-1.6,4.405-3.123,7.3-2.956" transform="translate(-21.811 -1.529)" fill="#f0dcc0"/>
    <path id="Trazado_764809" data-name="Trazado 764809" d="M83.658,176.887c.114.88.787.756,1.378.756,17.486,0,34.974.188,52.454-.106,5.875-.1,10.6-3.2,13.551-8.528h4.875c-.672,6.013-7.186,11.565-13.195,11.55-20.45-.051-40.9-.018-61.352-.019-.117,0-.233-.024-.565-.061l2.853-3.592" transform="translate(-11.58 -24.221)" fill="#c7c7c7"/>
    <path id="Trazado_764810" data-name="Trazado 764810" d="M155.607,67.533c-6.738,6.981-13.184,14.246-20.219,20.94q0-7.781,0-15.563a17.582,17.582,0,0,0,5.373-5.374l14.841,0" transform="translate(-19.403 -9.678)" fill="#e7f4ff"/>
    <path id="Trazado_764811" data-name="Trazado 764811" d="M33.067,45.181c-6.866.02-13.733.049-20.6.051-1.413,0-1.992-.839-1.412-2.3a14.908,14.908,0,0,1,10.976-8.958,10.019,10.019,0,0,1,4.875.114c.35,1.25,1.515,1.82,2.282,2.722a15.608,15.608,0,0,1,3.878,8.372" transform="translate(-1.552 -4.834)" fill="#e4e4e4"/>
    <path id="Trazado_764812" data-name="Trazado 764812" d="M165.87,10.138c-2.9-.168-5.2,1.354-7.3,2.956a17.194,17.194,0,0,0-3.483,24.015c2.4,3.23,5.343,6.074,9.769,6.44,2.158.006,1.33,1.677,1.288,2.636-.055,1.218-1.274.72-1.815.555-8.462-2.579-14.067-7.966-15.38-16.473-1.356-8.785,1.959-15.992,9.634-20.865a24.918,24.918,0,0,1,5.849-2.369c.5-.16,1.486-.349,1.635.218a3.207,3.207,0,0,1-.192,2.887" transform="translate(-21.303 -0.984)" fill="#e6b046"/>
    <path id="Trazado_764813" data-name="Trazado 764813" d="M176.892,43.568a16.02,16.02,0,0,0,12.322-10.483,17.312,17.312,0,0,0-11.694-22.94c-.471-.133-.907-.38-1.318.09-.66-.8-.2-1.731-.3-2.6-.068-.595.32-.673.815-.578a20.038,20.038,0,0,1,15.851,15.288c1.2,5.993.3,11.541-3.326,16.523a48.047,48.047,0,0,1-3.214,3.625,1.22,1.22,0,0,0-1.109.721q-.17.182-.341.363c-.256.1-.617-.013-.735.364-1.844.879-3.52,2.123-5.565,2.559-.733.156-1.742.822-2.15.2a2.517,2.517,0,0,1,.122-2.842l.643-.29" transform="translate(-25.187 -1.007)" fill="#e6b046"/>
    <path id="Trazado_764814" data-name="Trazado 764814" d="M179.4,75.913c1.9-.353,2.723-2,3.877-3.24,1.458-1.563,2.713-3.336,4.666-4.369V85.731L179.4,75.913" transform="translate(-25.71 -9.789)" fill="#d8edfe"/>
    <path id="Trazado_764815" data-name="Trazado 764815" d="M32.154,180.657l10.075-10.434A17.137,17.137,0,0,0,46.6,180.657Z" transform="translate(-4.608 -24.395)" fill="#e7f4ff"/>
    <path id="Trazado_764816" data-name="Trazado 764816" d="M35.755,45.241a15.608,15.608,0,0,0-3.878-8.372c-.767-.9-1.932-1.472-2.282-2.722,4.722.293,10.434,4.2,11.894,11.093Z" transform="translate(-4.241 -4.894)" fill="#c7c7c7"/>
    <path id="Trazado_764817" data-name="Trazado 764817" d="M140.752,67.523a17.594,17.594,0,0,1-5.374,5.374c-.021-1.484-.006-2.969-.078-4.45-.039-.784.218-1.04,1-1,1.481.072,2.967.057,4.45.078" transform="translate(-19.39 -9.665)" fill="#d8edfe"/>
    <path id="Trazado_764818" data-name="Trazado 764818" d="M186.454,49.15a1.215,1.215,0,0,1,1.108-.721,1.074,1.074,0,0,1-1.108.721" transform="translate(-26.721 -6.941)"/>
    <path id="Trazado_764819" data-name="Trazado 764819" d="M173.757,60.228l.345.266a2.359,2.359,0,0,1-.48.112c-.1,0-.2-.088-.3-.137l.433-.242" transform="translate(-24.84 -8.631)"/>
    <path id="Trazado_764820" data-name="Trazado 764820" d="M171.7,60.455c-.1.057-.19.146-.28.146s-.182-.087-.272-.135c.089-.052.176-.143.266-.146s.182.083.286.135" transform="translate(-24.528 -8.645)"/>
    <path id="Trazado_764821" data-name="Trazado 764821" d="M176.977,49.624l-.643.29a.64.64,0,0,1,.72-.633c-.021.116-.047.23-.077.344" transform="translate(-25.271 -7.062)"/>
    <path id="Trazado_764822" data-name="Trazado 764822" d="M156.67,97.179c.037.182.074.364.111.546l-.6-.123.489-.423" transform="translate(-22.383 -13.927)" fill="#d88327"/>
    <path id="Trazado_764823" data-name="Trazado 764823" d="M185.2,50.059c.118-.377.48-.264.735-.364a.733.733,0,0,1-.735.364" transform="translate(-26.541 -7.122)"/>
    <path id="Trazado_764824" data-name="Trazado 764824" d="M165.289,47.526c-.2-.029-.348-.1-.285-.35l.285.35" transform="translate(-23.645 -6.761)"/>
    <path id="Trazado_764825" data-name="Trazado 764825" d="M47.02,38.291l.294.364c-.219-.023-.369-.1-.294-.364" transform="translate(-6.736 -5.488)" fill="#fdfdfd"/>
    <path id="Trazado_764826" data-name="Trazado 764826" d="M43.486,141.467l-8.318-.06c-2.241-.016-3.273-1.025-3.276-3.248-.008-5.186-.034-10.373.023-15.559.013-1.134-.218-1.568-1.455-1.509-2.286.109-4.582.037-6.873.03-2.248-.008-3.284-1.019-3.286-3.236-.008-6.514.081-13.028-.057-19.539a3.11,3.11,0,0,1,3.3-3.289c2.35-.071,4.7-.063,7.056.006,1,.03,1.468-.231,1.287-1.277-.583-3.353.995-4.723,4.726-4.562,2.285.1,4.58-.019,6.87-.038a7,7,0,0,0,4.407-.853c6.51-3.343,13.06-6.606,19.624-9.84,1.489-.733,3.058-1.007,4.279.613-.072.264.075.347.3.363a24.661,24.661,0,0,1,.36,6.22q.009,24.056.027,48.114a9.3,9.3,0,0,1-.5,3.111c-.541,1.521-2.747,2-4.453,1.145q-10.111-5.04-20.214-10.1c-.26-.129-.457-.394-.934-.158,0,3.1.117,6.286-.035,9.456-.132,2.773-.607,3.5-2.858,4.205m-14.5-40.57a8.5,8.5,0,0,1-1.079-.066c-1.515-.284-1.922.321-1.846,1.824.146,2.887.072,5.786.089,8.678-.179,4-.179,4,3.751,3.994a4.835,4.835,0,0,1,.722,0c1.035.161,1.311-.282,1.294-1.292-.058-3.5-.022-6.991-.022-10.488,0-2.806,0-2.806-2.908-2.654m11.6-5.795c-2.893-.153-2.893-.153-2.893,2.69v20.94c0,2.453,0,2.453,2.536,2.379.119,0,.238-.033.357-.049,2.9.152,2.9.152,2.9-2.69V97.612c0-2.645,0-2.645-2.724-2.536a1.421,1.421,0,0,0-.178.027m26.029,27.83q.028-18.139.064-36.28c0-1.034-.238-1.258-1.25-.738-4.391,2.26-8.822,4.441-13.238,6.65-2.266.587-3.044,1.891-2.98,4.358.2,7.77.117,15.549.035,23.322-.015,1.479.269,2.308,1.76,2.9,2.229.885,4.327,2.1,6.481,3.179,2.986,1.491,5.972,2.984,9.128,4.559Zm-26.024,8.336a29.64,29.64,0,0,1,.021-3.061c.131-1.265-.557-1.282-1.51-1.318-1.082-.04-1.489.256-1.433,1.4.093,1.918.069,3.843.008,5.763-.034,1.061.114,1.6,1.417,1.611,1.367.01,1.619-.529,1.514-1.695-.081-.893-.016-1.8-.016-2.7" transform="translate(-2.901 -11.166)" fill="#12263f"/>
    <path id="Trazado_764827" data-name="Trazado 764827" d="M83.588,40.4c8.149,0,16.3.035,24.447-.035,1.346-.011,1.7.3,1.673,1.665-.084,4.165-.018,4.166-4.2,4.166-15.393,0-30.785-.024-46.178.039-1.5.006-1.9-.331-1.858-1.849.117-3.983.035-3.985,4.027-3.985Z" transform="translate(-8.235 -5.784)" fill="#12263f"/>
    <path id="Trazado_764828" data-name="Trazado 764828" d="M80.511,59.722c-7.183,0-14.367-.029-21.549.028-1.182.009-1.49-.3-1.482-1.479.027-4.344-.02-4.344,4.383-4.344,13.461,0,26.922.022,40.383-.035,1.353-.005,1.7.312,1.669,1.668-.083,4.161-.018,4.163-4.208,4.163H80.511" transform="translate(-8.238 -7.723)" fill="#12263f"/>
    <path id="Trazado_764829" data-name="Trazado 764829" d="M77.615,73.253c-6.217,0-12.435-.033-18.651.028-1.18.012-1.491-.294-1.485-1.478.028-4.346-.02-4.346,4.382-4.346,11.529,0,23.058.026,34.587-.035,1.35-.007,1.7.307,1.671,1.666-.083,4.163-.018,4.164-4.206,4.164Z" transform="translate(-8.237 -9.662)" fill="#12263f"/>
    <path id="Trazado_764830" data-name="Trazado 764830" d="M110.638,94.5c.009,1.557-.043,3.117.05,4.669.059.985-.314,1.156-1.213,1.175-4.612.1-4.612.123-4.6-4.407,0-.479.017-.958.027-1.437l-.053.051h5.847Z" transform="translate(-15.026 -13.542)" fill="#12263f"/>
    <path id="Trazado_764831" data-name="Trazado 764831" d="M111.639,114.182c0-2.744,0-2.744,2.69-2.744,3.105,0,3.105,0,3.105,3.052,0,2.743,0,2.743-2.689,2.743-3.106,0-3.106,0-3.106-3.051" transform="translate(-15.999 -15.971)" fill="#12263f"/>
    <path id="Trazado_764832" data-name="Trazado 764832" d="M111.61,87.782c1.557-.009,3.117.044,4.67-.05.987-.059,1.155.316,1.174,1.214.1,4.61.123,4.61-4.409,4.6-.479,0-.958-.015-1.437-.024l.053.051V87.729l-.051.053" transform="translate(-15.995 -12.572)" fill="#12263f"/>
    <path id="Trazado_764833" data-name="Trazado 764833" d="M91.366,120.633c-.009-1.557.043-3.117-.05-4.669-.059-.986.314-1.156,1.213-1.175,4.612-.1,4.612-.123,4.6,4.407,0,.479-.017.958-.027,1.437l.053-.051H91.313Z" transform="translate(-13.086 -16.447)" fill="#12263f"/>
    <path id="Trazado_764834" data-name="Trazado 764834" d="M103.924,93.525c-1.557.009-3.117-.045-4.67.047-.983.057-1.157-.31-1.176-1.211-.1-4.613-.124-4.613,4.407-4.606.479,0,.958.017,1.437.027l-.051-.053v5.847Z" transform="translate(-14.052 -12.573)" fill="#12263f"/>
    <path id="Trazado_764835" data-name="Trazado 764835" d="M98.076,121.606c1.557-.009,3.117.045,4.67-.047.983-.057,1.157.31,1.176,1.211.1,4.613.124,4.613-4.407,4.606-.479,0-.958-.017-1.437-.027l.051.053v-5.847Z" transform="translate(-14.056 -17.42)" fill="#12263f"/>
    <path id="Trazado_764836" data-name="Trazado 764836" d="M90.39,127.35c-1.557.009-3.117-.044-4.67.05-.987.059-1.155-.316-1.174-1.214-.1-4.61-.123-4.61,4.409-4.6.479,0,.958.015,1.437.024l-.053-.051V127.4l.051-.053" transform="translate(-12.113 -17.421)" fill="#12263f"/>
    <path id="Trazado_764837" data-name="Trazado 764837" d="M97.109,128.319c.009,1.557-.045,3.118.047,4.671.058.984-.312,1.157-1.212,1.175-4.612.1-4.612.124-4.6-4.409,0-.479.015-.958.024-1.437l-.051.053H97.16Z" transform="translate(-13.086 -18.39)" fill="#12263f"/>
    <path id="Trazado_764838" data-name="Trazado 764838" d="M104.894,86.809c-.009-1.557.045-3.118-.047-4.671-.058-.984.312-1.157,1.212-1.175,4.612-.1,4.612-.124,4.6,4.409,0,.479-.015.958-.024,1.437l.051-.053h-5.847l.051.053" transform="translate(-15.025 -11.6)" fill="#12263f"/>
    <path id="Trazado_764839" data-name="Trazado 764839" d="M80.718,79.669c-.225-.018-.372-.1-.3-.363l.3.363" transform="translate(-11.522 -11.366)" fill="#fdfdfd"/>
    <path id="Trazado_764840" data-name="Trazado 764840" d="M57.515,93.858c4.416-2.209,8.848-4.391,13.238-6.65,1.012-.521,1.252-.3,1.25.738q-.045,18.139-.064,36.28c-.52-.149-1.037-.308-1.56-.445a17.21,17.21,0,0,1-12.907-17.612c.2-4.094.04-8.206.043-12.311" transform="translate(-8.233 -12.459)" fill="#f0dcc0"/>
    <path id="Trazado_764841" data-name="Trazado 764841" d="M57.027,95.016c0,4.1.157,8.216-.043,12.311a17.21,17.21,0,0,0,12.907,17.612c.523.137,1.04.3,1.56.445v7.952l-9.128-4.559c-2.154-1.077-4.252-2.294-6.481-3.179-1.491-.592-1.775-1.421-1.76-2.9.082-7.774.165-15.553-.035-23.322-.063-2.468.714-3.772,2.98-4.358" transform="translate(-7.745 -13.617)" fill="#e6b046"/>
    <path id="Trazado_764842" data-name="Trazado 764842" d="M43.5,123.929a3.4,3.4,0,0,1-.357.049c-2.535.074-2.536.074-2.536-2.379v-20.94c0-2.843,0-2.843,2.893-2.69v25.96" transform="translate(-5.819 -14.033)" fill="#91b3fa"/>
    <path id="Trazado_764843" data-name="Trazado 764843" d="M43.98,123.928V97.968a1.6,1.6,0,0,1,.178-.027c2.724-.109,2.724-.108,2.724,2.536v20.761c0,2.842,0,2.842-2.9,2.69" transform="translate(-6.303 -14.031)" fill="#91b3fa"/>
    <path id="Trazado_764844" data-name="Trazado 764844" d="M29.96,104.733c2.908-.152,2.908-.152,2.908,2.654,0,3.5-.036,6.993.022,10.488.017,1.01-.259,1.453-1.294,1.292a4.835,4.835,0,0,0-.722,0c-3.93,0-3.93,0-3.751-3.994,2.091-.789,2.715-2.55,2.821-4.526s.018-3.94.015-5.91" transform="translate(-3.879 -15.002)" fill="#c7c7c7"/>
    <path id="Trazado_764845" data-name="Trazado 764845" d="M29.953,104.719c0,1.97.091,3.945-.015,5.91s-.73,3.737-2.821,4.526c-.017-2.892.057-5.791-.089-8.677-.076-1.5.331-2.109,1.846-1.826a8.347,8.347,0,0,0,1.079.067" transform="translate(-3.872 -14.988)" fill="#e4e4e4"/>
    <path id="Trazado_764846" data-name="Trazado 764846" d="M43.5,139.461c0,.9-.064,1.808.016,2.7.1,1.165-.147,1.7-1.514,1.695-1.3-.009-1.451-.551-1.418-1.611.063-1.92.086-3.845-.008-5.763-.056-1.145.352-1.441,1.434-1.4.953.036,1.641.053,1.509,1.318a29.882,29.882,0,0,0-.021,3.061" transform="translate(-5.814 -19.358)" fill="#7e7e7e"/>
    <rect id="Rectángulo_360959" data-name="Rectángulo 360959" width="5.846" height="5.846" transform="translate(89.818 75.156)" fill="#fff"/>
    <rect id="Rectángulo_360960" data-name="Rectángulo 360960" width="5.846" height="5.847" transform="translate(78.228 104.135)" fill="#fff"/>
  </g>
</svg>
