<svg id="Grupo_1024811" data-name="Grupo 1024811" xmlns="http://www.w3.org/2000/svg" xmlns:xlink="http://www.w3.org/1999/xlink" width="165" height="164.03" viewBox="0 0 165 164.03">
  <defs>
    <clipPath id="clip-path">
      <rect id="Rectángulo_360963" data-name="Rectángulo 360963" width="165" height="164.03" fill="none"/>
    </clipPath>
  </defs>
  <g id="Grupo_1024811-2" data-name="Grupo 1024811" clip-path="url(#clip-path)">
    <path id="Trazado_764862" data-name="Trazado 764862" d="M54.45,319.4A21.6,21.6,0,0,1,71.426,311.6c10.135-.061,20.271-.08,30.406.007,6.632.057,11.378,3.358,13.323,9.393a11.006,11.006,0,0,1,.556,3.057c.06,2.054.814,2.457,2.621,1.628,1.454-.667,2.964-1.209,4.45-1.807.528.179.674-.119.7-.564,2.3-.489,4.294-1.743,6.482-2.509,3.959-1.386,7.694-3.315,11.669-4.691,1.883-.652,3.662-1.74,5.615-2.3,6.784-1.928,15.325,2.8,17.072,9.434.179.682-.044,1.482.678,1.974v.967c-.417.322-.415.645,0,.967v.645a.777.777,0,0,0,0,1.289v.967c-1.025,1.333-1.03,3.106-1.943,4.487-.192.114-.579-.081-.567.357a9.9,9.9,0,0,1-5.041,5.022,119.57,119.57,0,0,1-11.529,4.907c-2.735.979-3.548.62-4.716-1.276-.453-2.191-.086-3.472,1.336-4.177a37.148,37.148,0,0,1,3.72-1.579,57.374,57.374,0,0,0,7.633-3.153c3.73-2.026,5.055-4.41,4.281-9.007a7.248,7.248,0,0,0-6.6-5.632,16.5,16.5,0,0,0-6.787,1.67q-6.245,2.582-12.511,5.114c-5.123,2.073-10.274,4.076-15.373,6.205a53.546,53.546,0,0,0-8.281,3.791,9.034,9.034,0,0,1-4.655,1.6c-8.481.051-16.962-.008-25.443-.01-1.507,0-2.312-.946-3.074-2.044a2.307,2.307,0,0,1,.1-2.662,4.12,4.12,0,0,1,3.831-1.772c7.679.025,15.358-.018,23.037.021a6.931,6.931,0,0,0,6.513-9.258,6.78,6.78,0,0,0-6.593-4.629q-15.385-.034-30.77,0a20.183,20.183,0,0,0-4.981.691c-3.227.829-5.394,3.148-7.647,5.38-3.631,3.6-7.025,7.455-11.226,10.432-.629.446-.344.956-.345,1.416-.027,6.982.01,13.963-.047,20.944-.01,1.215.241,1.605,1.549,1.6,12.458-.056,24.917-.039,37.375-.022,1,0,2.063.417,2.992.2,1.558-.369,3.136-.28,4.694-.538,3.6-.6,7.169-1.239,10.447-2.95.292.1.645.371.673-.247,3.432-1.01,6.6-2.671,9.91-3.978,2.737-1.081,4.593-1.911,6.252.7.621,1.958.219,2.967-1.4,4.116a10.656,10.656,0,0,1-2.4,1.091c-5.366,2.129-10.487,4.838-16.167,6.231a62.65,62.65,0,0,1-15.622,1.843c-12.388-.112-24.778-.024-37.167-.058-.973,0-1.154.342-1.12,1.2.061,1.5.084,3.007,0,4.5-.132,2.406-1.347,3.882-3.182,4-2.515-.02-5.031-.059-7.546-.056q-16.867.017-33.733.054c-1.848-.376-2.83-1.377-2.88-2.935-.071-2.2.44-2.777,3.2-3.593,4.181.024,8.362.024,12.542.088.945.015,1.014-.443,1.008-1.181-.026-2.788-.01-5.577-.01-8.366,0-9.867-.012-19.735.019-29.6,0-.98-.133-1.434-1.262-1.7-4.078-.952-8.111-2.1-12.161-3.166-2.513-.735-3.333-1.584-3.334-3.455a3.067,3.067,0,0,1,4.045-3.1c4.808,1.259,9.624,2.494,14.414,3.82a12.732,12.732,0,0,0,3.437.491c6.971,0,13.942-.02,20.913.013,1.525.007,3.044.211,3.967,1.707-.069.231.073.3.259.342q.2,1.06.4,2.12l.451.454,3.954-4.544a2.76,2.76,0,0,0,2.6-2.6M40.6,328.445c-5.517-.032-11.035-.045-16.552-.117-.923-.012-.876.47-.874,1.1.013,3.431.006,6.862.006,10.293q0,13.51.014,27.02c0,.578-.422,1.433.851,1.418,5.518-.069,11.038-.068,16.557-.093.255.057.3-.073.255-.285.019-1.872.055-3.743.053-5.615q-.019-16.7-.053-33.391c.037-.206.033-.379-.257-.328" transform="translate(0 -210.833)"/>
    <path id="Trazado_764863" data-name="Trazado 764863" d="M50.207,506.462a1.428,1.428,0,0,1-.015.263H8.942a2.2,2.2,0,0,1-.015-.265q16.867-.029,33.733-.054c2.516,0,5.031.036,7.547.056" transform="translate(-6.041 -342.694)" fill="#ccc"/>
    <path id="Trazado_764864" data-name="Trazado 764864" d="M509.675,363.131a.778.778,0,0,1,0-1.289Z" transform="translate(-344.675 -244.865)" fill="#020202"/>
    <path id="Trazado_764865" data-name="Trazado 764865" d="M509.739,357.824c-.415-.322-.417-.645,0-.967Z" transform="translate(-344.739 -241.492)" fill="#020202"/>
    <path id="Trazado_764866" data-name="Trazado 764866" d="M144.8,4.873a20.128,20.128,0,0,1,25.4-.7c.068.171.136.341.377.264a17.717,17.717,0,0,1,2.88,2.972c.04.185.113.327.344.26a15.111,15.111,0,0,0,4.376-.2c.628-.193,1.269.842,2.072.3.087.453.228.754.659.232a27.214,27.214,0,0,1,8.285,4.2,19.451,19.451,0,0,1,6.834,11.154,7,7,0,0,1,.337,2.655c-.458,2.876.563,4.915,2.717,7.03a16.981,16.981,0,0,1,4.659,10.175,21.568,21.568,0,0,1-1.26,10.932,20.832,20.832,0,0,1-3.216,5.136l-.237.107.227.234c-.876.47-1.386,1.387-2.3,1.835a1.142,1.142,0,0,0-.544,1.216,21.047,21.047,0,0,1-2.835,12.8,16.651,16.651,0,0,1-5.274,5.467c-.233-.088-.3.069-.355.242l-1.268.939-.611.087c-.9-.68-.828.145-.973.632a31,31,0,0,1-4.8,1.454,32.257,32.257,0,0,1-5.285.41,2.6,2.6,0,0,0-2.253,1.01,17.079,17.079,0,0,1-8.8,5.861,19.332,19.332,0,0,1-9.379.8c-4.387-.8-8.472-2.62-11.286-6.391a3.171,3.171,0,0,0-3.036-1.258,19.01,19.01,0,0,1-8.988-1.645c-.285-.771-.522-1.632-1.628-.873a19.243,19.243,0,0,1-9-10.087,16.419,16.419,0,0,1-1.226-8.763c.251-1.781-1.074-2.293-1.876-3.034a17.95,17.95,0,0,1-5.6-10.716c-.327-2.011-.638-3.947.151-6.032.344-.91-.2-2.253.454-3.318.434-.059.864-.119.311-.65a16.781,16.781,0,0,1,5.569-8.35,2.151,2.151,0,0,0,.967-2.035c-.358-9.187,3.658-15.82,11.885-19.9a5.962,5.962,0,0,1,2.23-.684c.426.538.577.247.668-.222a11.913,11.913,0,0,1,5.871-.589,2.684,2.684,0,0,0,3.036-1.21,6.307,6.307,0,0,1,1.371-1.482l.354-.26m40.6,12.466-.352-.259a13.488,13.488,0,0,0-10.977-2.644c-2.031.384-4.011.219-5.1-2.13a8.994,8.994,0,0,0-3.087-3.333A13.4,13.4,0,0,0,154.2,6.952a12.957,12.957,0,0,0-7.92,6.1,3.147,3.147,0,0,1-3.9,1.558,12.349,12.349,0,0,0-11.013,2.1,12.689,12.689,0,0,0-5.254,13.551c.336,1.566.362,3.223-1.178,4.174a16.082,16.082,0,0,0-3.564,2.99,12.446,12.446,0,0,0-3.018,11.381,13.088,13.088,0,0,0,6.285,8.954,3.043,3.043,0,0,1,1.525,3.55,13.6,13.6,0,0,0,.255,7.632,14.367,14.367,0,0,0,5.915,7.5c3.275,2.132,6.686,2.125,10.289,1.563a3.347,3.347,0,0,1,3.774,1.649c.345.6.4,1.492.853,1.789,1.994,1.307,3.669,3.163,5.976,3.918,5.794,1.9,12.333.289,15.87-5.343,1.377-2.191,2.191-2.323,4.805-1.857a13.194,13.194,0,0,0,10.724-2.522c4.484-3.5,6.194-8.144,5.029-13.825-.279-1.359-.333-2.913,1.2-3.83l.35-.24a14.55,14.55,0,0,0,4.221-3.959c4.02-5.431,2.77-14.935-3.661-18.707-2.174-1.276-2.6-2.661-2.126-4.92A12.849,12.849,0,0,0,185.4,17.339" transform="translate(-75.513 0)"/>
    <path id="Trazado_764867" data-name="Trazado 764867" d="M10.054,350.51c4.05,1.071,8.083,2.214,12.161,3.166,1.129.264,1.265.718,1.262,1.7-.032,9.867-.019,19.734-.019,29.6,0,2.789-.016,5.577.01,8.366.007.738-.063,1.2-1.008,1.181-4.18-.065-8.361-.065-12.542-.088q.008-20.923.022-41.846c0-.693.074-1.386.114-2.079" transform="translate(-6.712 -237.197)" fill="#91b3fa"/>
    <path id="Trazado_764868" data-name="Trazado 764868" d="M162.984,335.817a2.76,2.76,0,0,1-2.6,2.6,17.154,17.154,0,0,1,2.6-2.6" transform="translate(-108.534 -227.254)"/>
    <path id="Trazado_764869" data-name="Trazado 764869" d="M167.421,253.684c1.106-.758,1.343.1,1.628.873-.625-.138-1.446.09-1.628-.873" transform="translate(-113.297 -171.474)"/>
    <path id="Trazado_764870" data-name="Trazado 764870" d="M338.969,254.407c.145-.487.071-1.311.973-.632a.417.417,0,0,0,.043.282c-.2.509-.677.232-1.015.35" transform="translate(-229.387 -171.56)"/>
    <path id="Trazado_764871" data-name="Trazado 764871" d="M114.836,122.524c.553.531.124.591-.311.65.076-.23-.048-.555.311-.65" transform="translate(-77.501 -82.914)"/>
    <path id="Trazado_764872" data-name="Trazado 764872" d="M380.5,347.945c-.027.445-.173.742-.7.563.035-.434.3-.589.7-.563" transform="translate(-257.019 -235.459)" fill="#fcfcfc"/>
    <path id="Trazado_764873" data-name="Trazado 764873" d="M180.031,25.92c-.091.469-.242.76-.668.222.128-.358.4-.281.668-.222" transform="translate(-121.378 -17.506)"/>
    <path id="Trazado_764874" data-name="Trazado 764874" d="M324.638,24.178c-.431.521-.571.22-.658-.232.267-.057.544-.143.658.232" transform="translate(-219.243 -16.17)"/>
    <path id="Trazado_764875" data-name="Trazado 764875" d="M342,254.417a.415.415,0,0,1-.043-.282l.611-.087c.046.485-.141.612-.568.369" transform="translate(-231.406 -171.919)" fill="#fcfcfc"/>
    <path id="Trazado_764876" data-name="Trazado 764876" d="M382.292,183.748l-.227-.234.237-.108c0,.114-.007.228-.01.342" transform="translate(-258.551 -124.114)" fill="#fcfcfc"/>
    <path id="Trazado_764877" data-name="Trazado 764877" d="M347.791,250.584c.055-.173.122-.329.354-.242l-.354.242" transform="translate(-235.357 -169.394)" fill="#fcfcfc"/>
    <path id="Trazado_764878" data-name="Trazado 764878" d="M144.939,349.233c-.186-.038-.327-.11-.259-.342l.259.342" transform="translate(-97.896 -236.101)" fill="#fcfcfc"/>
    <path id="Trazado_764879" data-name="Trazado 764879" d="M303.314,23.177c-.231.067-.3-.074-.344-.26l.344.26" transform="translate(-205.026 -15.508)" fill="#fcfcfc"/>
    <path id="Trazado_764880" data-name="Trazado 764880" d="M213.576,15.042l-.354.26c.05-.178.125-.323.354-.26" transform="translate(-144.291 -10.169)" fill="#020202"/>
    <path id="Trazado_764881" data-name="Trazado 764881" d="M293.272,13.171c-.241.077-.309-.093-.377-.264l.377.264" transform="translate(-198.208 -8.734)" fill="#fcfcfc"/>
    <path id="Trazado_764883" data-name="Trazado 764883" d="M89.03,403.181c-5.519.025-11.038.025-16.557.093-1.273.016-.85-.84-.852-1.417q-.03-13.51-.014-27.02c0-3.431.006-6.862-.006-10.293,0-.628-.049-1.11.874-1.1,5.517.071,11.034.084,16.552.117l.257.328q.028,16.7.053,33.391c0,1.872-.035,3.743-.053,5.615l-.255.285" transform="translate(-48.423 -245.95)" fill="#fff"/>
    <path id="Trazado_764884" data-name="Trazado 764884" d="M322.894,445.517c-.016-.736.329-.49.673-.247-.028.618-.381.349-.673.247" transform="translate(-218.508 -301.157)" fill="#020202"/>
    <path id="Trazado_764885" data-name="Trazado 764885" d="M503.193,382.7c.038.48-.154.594-.568.357-.012-.438.375-.243.568-.357" transform="translate(-340.136 -258.98)" fill="#fcfcfc"/>
    <path id="Trazado_764886" data-name="Trazado 764886" d="M125.86,364.116l-.257-.328c.29-.051.294.122.257.328" transform="translate(-84.998 -246.176)" fill="#fcfcfc"/>
    <path id="Trazado_764887" data-name="Trazado 764887" d="M125.61,485.763l.255-.285c.047.212,0,.342-.255.285" transform="translate(-85.003 -328.532)" fill="#fcfcfc"/>
    <path id="Trazado_764888" data-name="Trazado 764888" d="M396.84,417.914a3.463,3.463,0,0,1,1.045-4.332c1.265-.747,3.722,0,4.783,1.463.013.213.035.426.038.639.026,1.841-.76,3.59-1.9,3.809a3.444,3.444,0,0,1-3.968-1.579" transform="translate(-268.323 -279.681)" fill="#020202"/>
    <path id="Trazado_764889" data-name="Trazado 764889" d="M204.349,71.441c-1.534.917-1.48,2.471-1.2,3.831,1.164,5.681-.545,10.329-5.029,13.824a13.193,13.193,0,0,1-10.724,2.522c-2.615-.466-3.429-.334-4.805,1.857-3.537,5.631-10.077,7.239-15.871,5.343-2.308-.755-3.983-2.612-5.976-3.918-.454-.3-.508-1.192-.853-1.789a3.347,3.347,0,0,0-3.774-1.649c-3.6.562-7.014.57-10.289-1.563a14.368,14.368,0,0,1-5.915-7.5,13.6,13.6,0,0,1-.255-7.631,3.043,3.043,0,0,0-1.525-3.55,13.089,13.089,0,0,1-6.285-8.954,12.446,12.446,0,0,1,3.018-11.381,16.077,16.077,0,0,1,3.564-2.99c1.54-.951,1.513-2.608,1.177-4.174a12.69,12.69,0,0,1,5.254-13.551,12.351,12.351,0,0,1,11.013-2.1,3.147,3.147,0,0,0,3.9-1.557,12.957,12.957,0,0,1,7.92-6.1,13.4,13.4,0,0,1,11.689,2.022,9,9,0,0,1,3.087,3.332c1.088,2.349,3.069,2.515,5.1,2.13a13.487,13.487,0,0,1,10.977,2.644c.053.174.132.312.352.259a12.848,12.848,0,0,1,4.234,12.822c-.476,2.258-.048,3.644,2.126,4.919,6.43,3.773,7.681,13.277,3.661,18.707A14.55,14.55,0,0,1,204.7,71.2c-.225-.079-.295.07-.35.239M167.3,87.249c19.4-.021,31.611-12.042,31.484-27.58-.132-16.054-11.823-27.516-27.934-27.4-15.426.113-26.925,11.609-27.02,28.5a25.286,25.286,0,0,0,7.353,17.576c5.371,5.67,11.885,8.831,16.117,8.9" transform="translate(-89.012 -13.455)" fill="#e6b046"/>
    <path id="Trazado_764890" data-name="Trazado 764890" d="M356.767,178.822c.055-.17.125-.318.35-.24l-.35.24" transform="translate(-241.431 -120.835)"/>
    <path id="Trazado_764891" data-name="Trazado 764891" d="M339.176,53.094c-.22.054-.3-.085-.352-.259l.352.259" transform="translate(-229.289 -35.754)"/>
    <path id="Trazado_764892" data-name="Trazado 764892" d="M193.044,113.183c-4.232-.068-10.747-3.229-16.117-8.9a25.287,25.287,0,0,1-7.352-17.576c.094-16.893,11.594-28.388,27.02-28.5,16.111-.118,27.8,11.343,27.933,27.4.127,15.538-12.084,27.559-31.483,27.58m3.706-48.347c-10.189-.777-22.253,9.03-20.419,23.566a21,21,0,0,0,41.836-2.636c.05-11.5-8.728-21.386-21.417-20.929" transform="translate(-114.754 -39.389)"/>
    <path id="Trazado_764893" data-name="Trazado 764893" d="M210.5,78.628c12.688-.457,21.467,9.426,21.416,20.929a21,21,0,0,1-41.836,2.636c-1.834-14.536,10.23-24.343,20.419-23.566m-3.187,23.246c-1.352-1.367-2.663-2.637-3.9-3.971a4.58,4.58,0,0,0-2.406-1.4,2.235,2.235,0,0,0-2.36.787c-.565.7-1.619,1.341-1.088,2.379a9.453,9.453,0,0,0,1.879,3.05c1.948,1.759,3.816,3.62,5.582,5.562s3.221,1.543,4.733.073c4.576-4.446,9.054-8.993,13.55-13.523a3.339,3.339,0,0,0,.142-4.566,3.874,3.874,0,0,0-4.753.173c-3.781,3.793-7.555,7.593-11.374,11.431" transform="translate(-128.508 -53.18)" fill="#f0dcc0"/>
    <path id="Trazado_764894" data-name="Trazado 764894" d="M223.047,124.8c3.819-3.839,7.593-7.638,11.374-11.431a3.874,3.874,0,0,1,4.753-.173,3.339,3.339,0,0,1-.142,4.566c-4.5,4.529-8.974,9.077-13.55,13.522-1.513,1.47-2.974,1.862-4.733-.073s-3.634-3.8-5.582-5.562a9.452,9.452,0,0,1-1.879-3.05c-.531-1.038.523-1.68,1.088-2.379a2.235,2.235,0,0,1,2.36-.787,4.58,4.58,0,0,1,2.406,1.4c1.241,1.334,2.552,2.6,3.9,3.971" transform="translate(-144.238 -76.105)"/>
  </g>
</svg>
