<svg xmlns="http://www.w3.org/2000/svg" xmlns:xlink="http://www.w3.org/1999/xlink" width="436.322" height="250.245" viewBox="0 0 436.322 250.245">
  <defs>
    <clipPath id="clip-path">
      <rect id="Rectángulo_352791" data-name="Rectángulo 352791" width="197.998" height="101.009" fill="#12263f"/>
    </clipPath>
    <clipPath id="clip-path-2">
      <rect id="Rectángulo_35128" data-name="Rectángulo 35128" width="436.322" height="214.969" transform="translate(-0.037 -0.235)" fill="#fff" stroke="#707070" stroke-width="1"/>
    </clipPath>
  </defs>
  <g id="Grupo_1025530" data-name="Grupo 1025530" transform="translate(-915 -1280.425)">
    <g id="Grupo_1022327" data-name="Grupo 1022327" transform="translate(-628.904 11065.213)">
      <g id="Enmascarar_grupo_1018593" data-name="Enmascarar grupo 1018593" transform="translate(1765.905 -9775.788)" clip-path="url(#clip-path)">
        <path id="Trazado_151731" data-name="Trazado 151731" d="M94.274,148.853a54.579,54.579,0,1,1,54.579-54.579,54.641,54.641,0,0,1-54.579,54.579m0,39.694A94.273,94.273,0,1,0,0,94.273,94.274,94.274,0,0,0,94.274,188.547Z" transform="translate(4.09 6.736)" fill="#4adbd1"/>
      </g>
      <g id="Grupo_1018971" data-name="Grupo 1018971" transform="translate(1569.207 -9784.788)">
        <path id="Trazado_145969" data-name="Trazado 145969" d="M55.835,0A55.835,55.835,0,1,1,0,55.835,55.835,55.835,0,0,1,55.835,0Z" transform="translate(0 2.834)" fill="#ffca28" opacity="0.444" style="mix-blend-mode: multiply;isolation: isolate"/>
        <rect id="Rectángulo_34812" data-name="Rectángulo 34812" width="393.397" height="165.7" transform="translate(0)" fill="none"/>
        <path id="Trazado_145971" data-name="Trazado 145971" d="M6.372,0A6.372,6.372,0,1,1,0,6.372,6.372,6.372,0,0,1,6.372,0Z" transform="translate(25.175 140.327)" fill="#31313c" opacity="0.444" style="mix-blend-mode: multiply;isolation: isolate"/>
        <g id="Grupo_80270" data-name="Grupo 80270" transform="translate(254.038 124.887)">
          <path id="Trazado_145968" data-name="Trazado 145968" d="M62.679,0A62.679,62.679,0,1,1,0,62.679,62.679,62.679,0,0,1,62.679,0Z" transform="translate(0)" fill="#31313c" opacity="0.444" style="mix-blend-mode: multiply;isolation: isolate"/>
          <g id="Grupo_78276" data-name="Grupo 78276" transform="translate(24.472 25.912)">
            <g id="Grupo_53306" data-name="Grupo 53306">
              <path id="Trazado_99200" data-name="Trazado 99200" d="M415.916,51.038a.852.852,0,1,1-.852-.814A.833.833,0,0,1,415.916,51.038Z" transform="translate(-414.214 -50.224)" fill="#fff"/>
              <path id="Trazado_99201" data-name="Trazado 99201" d="M424.362,51.038a.852.852,0,1,1-.851-.814A.833.833,0,0,1,424.362,51.038Z" transform="translate(-415 -50.224)" fill="#fff"/>
              <path id="Trazado_99202" data-name="Trazado 99202" d="M432.808,51.038a.852.852,0,1,1-.851-.814A.833.833,0,0,1,432.808,51.038Z" transform="translate(-415.787 -50.224)" fill="#fff"/>
              <path id="Trazado_99203" data-name="Trazado 99203" d="M441.255,51.038a.852.852,0,1,1-.852-.814A.833.833,0,0,1,441.255,51.038Z" transform="translate(-416.573 -50.224)" fill="#fff"/>
              <path id="Trazado_99204" data-name="Trazado 99204" d="M449.7,51.038a.852.852,0,1,1-.851-.814A.833.833,0,0,1,449.7,51.038Z" transform="translate(-417.359 -50.224)" fill="#fff"/>
              <path id="Trazado_99205" data-name="Trazado 99205" d="M458.147,51.038a.852.852,0,1,1-.851-.814A.833.833,0,0,1,458.147,51.038Z" transform="translate(-418.146 -50.224)" fill="#fff"/>
              <path id="Trazado_99206" data-name="Trazado 99206" d="M466.594,51.038a.852.852,0,1,1-.852-.814A.834.834,0,0,1,466.594,51.038Z" transform="translate(-418.932 -50.224)" fill="#fff"/>
              <path id="Trazado_99207" data-name="Trazado 99207" d="M475.04,51.038a.852.852,0,1,1-.851-.814A.833.833,0,0,1,475.04,51.038Z" transform="translate(-419.718 -50.224)" fill="#fff"/>
              <path id="Trazado_99208" data-name="Trazado 99208" d="M483.486,51.038a.852.852,0,1,1-.851-.814A.833.833,0,0,1,483.486,51.038Z" transform="translate(-420.504 -50.224)" fill="#fff"/>
              <path id="Trazado_99209" data-name="Trazado 99209" d="M491.933,51.038a.852.852,0,1,1-.852-.814A.834.834,0,0,1,491.933,51.038Z" transform="translate(-421.291 -50.224)" fill="#fff"/>
              <path id="Trazado_99210" data-name="Trazado 99210" d="M500.379,51.038a.852.852,0,1,1-.852-.814A.833.833,0,0,1,500.379,51.038Z" transform="translate(-422.077 -50.224)" fill="#fff"/>
            </g>
            <g id="Grupo_53307" data-name="Grupo 53307" transform="translate(0 6.512)">
              <path id="Trazado_99211" data-name="Trazado 99211" d="M415.916,58.546a.852.852,0,1,1-.852-.814A.833.833,0,0,1,415.916,58.546Z" transform="translate(-414.214 -57.732)" fill="#fff"/>
              <path id="Trazado_99212" data-name="Trazado 99212" d="M424.362,58.546a.852.852,0,1,1-.851-.814A.833.833,0,0,1,424.362,58.546Z" transform="translate(-415 -57.732)" fill="#fff"/>
              <path id="Trazado_99213" data-name="Trazado 99213" d="M432.808,58.546a.852.852,0,1,1-.851-.814A.833.833,0,0,1,432.808,58.546Z" transform="translate(-415.787 -57.732)" fill="#fff"/>
              <path id="Trazado_99214" data-name="Trazado 99214" d="M441.255,58.546a.852.852,0,1,1-.852-.814A.833.833,0,0,1,441.255,58.546Z" transform="translate(-416.573 -57.732)" fill="#fff"/>
              <path id="Trazado_99215" data-name="Trazado 99215" d="M449.7,58.546a.852.852,0,1,1-.851-.814A.833.833,0,0,1,449.7,58.546Z" transform="translate(-417.359 -57.732)" fill="#fff"/>
              <path id="Trazado_99216" data-name="Trazado 99216" d="M458.147,58.546a.852.852,0,1,1-.851-.814A.833.833,0,0,1,458.147,58.546Z" transform="translate(-418.146 -57.732)" fill="#fff"/>
              <path id="Trazado_99217" data-name="Trazado 99217" d="M466.594,58.546a.852.852,0,1,1-.852-.814A.834.834,0,0,1,466.594,58.546Z" transform="translate(-418.932 -57.732)" fill="#fff"/>
              <path id="Trazado_99218" data-name="Trazado 99218" d="M475.04,58.546a.852.852,0,1,1-.851-.814A.833.833,0,0,1,475.04,58.546Z" transform="translate(-419.718 -57.732)" fill="#fff"/>
              <path id="Trazado_99219" data-name="Trazado 99219" d="M483.486,58.546a.852.852,0,1,1-.851-.814A.833.833,0,0,1,483.486,58.546Z" transform="translate(-420.504 -57.732)" fill="#fff"/>
              <path id="Trazado_99220" data-name="Trazado 99220" d="M491.933,58.546a.852.852,0,1,1-.852-.814A.834.834,0,0,1,491.933,58.546Z" transform="translate(-421.291 -57.732)" fill="#fff"/>
              <path id="Trazado_99221" data-name="Trazado 99221" d="M500.379,58.546a.852.852,0,1,1-.852-.814A.833.833,0,0,1,500.379,58.546Z" transform="translate(-422.077 -57.732)" fill="#fff"/>
            </g>
            <g id="Grupo_53308" data-name="Grupo 53308" transform="translate(0 13.023)">
              <ellipse id="Elipse_3955" data-name="Elipse 3955" cx="0.851" cy="0.814" rx="0.851" ry="0.814" fill="#fff"/>
              <path id="Trazado_99222" data-name="Trazado 99222" d="M424.362,66.054a.852.852,0,1,1-.851-.814A.833.833,0,0,1,424.362,66.054Z" transform="translate(-415 -65.24)" fill="#fff"/>
              <ellipse id="Elipse_3956" data-name="Elipse 3956" cx="0.851" cy="0.814" rx="0.851" ry="0.814" transform="translate(15.32)" fill="#fff"/>
              <path id="Trazado_99223" data-name="Trazado 99223" d="M441.255,66.054a.852.852,0,1,1-.852-.814A.834.834,0,0,1,441.255,66.054Z" transform="translate(-416.573 -65.24)" fill="#fff"/>
              <path id="Trazado_99224" data-name="Trazado 99224" d="M449.7,66.054a.852.852,0,1,1-.851-.814A.834.834,0,0,1,449.7,66.054Z" transform="translate(-417.359 -65.24)" fill="#fff"/>
              <ellipse id="Elipse_3957" data-name="Elipse 3957" cx="0.851" cy="0.814" rx="0.851" ry="0.814" transform="translate(38.3)" fill="#fff"/>
              <path id="Trazado_99225" data-name="Trazado 99225" d="M466.594,66.054a.852.852,0,1,1-.852-.814A.834.834,0,0,1,466.594,66.054Z" transform="translate(-418.932 -65.24)" fill="#fff"/>
              <ellipse id="Elipse_3958" data-name="Elipse 3958" cx="0.851" cy="0.814" rx="0.851" ry="0.814" transform="translate(53.62)" fill="#fff"/>
              <ellipse id="Elipse_3959" data-name="Elipse 3959" cx="0.851" cy="0.814" rx="0.851" ry="0.814" transform="translate(61.28)" fill="#fff"/>
              <path id="Trazado_99226" data-name="Trazado 99226" d="M491.933,66.054a.852.852,0,1,1-.852-.814A.834.834,0,0,1,491.933,66.054Z" transform="translate(-421.291 -65.24)" fill="#fff"/>
              <path id="Trazado_99227" data-name="Trazado 99227" d="M500.379,66.054a.852.852,0,1,1-.852-.814A.834.834,0,0,1,500.379,66.054Z" transform="translate(-422.077 -65.24)" fill="#fff"/>
            </g>
            <g id="Grupo_53309" data-name="Grupo 53309" transform="translate(0 19.534)">
              <ellipse id="Elipse_3960" data-name="Elipse 3960" cx="0.851" cy="0.814" rx="0.851" ry="0.814" transform="translate(0 0)" fill="#fff"/>
              <path id="Trazado_99228" data-name="Trazado 99228" d="M424.362,73.561a.852.852,0,1,1-.851-.814A.833.833,0,0,1,424.362,73.561Z" transform="translate(-415 -72.747)" fill="#fff"/>
              <ellipse id="Elipse_3961" data-name="Elipse 3961" cx="0.851" cy="0.814" rx="0.851" ry="0.814" transform="translate(15.32 0)" fill="#fff"/>
              <path id="Trazado_99229" data-name="Trazado 99229" d="M441.255,73.561a.852.852,0,1,1-.852-.814A.833.833,0,0,1,441.255,73.561Z" transform="translate(-416.573 -72.747)" fill="#fff"/>
              <path id="Trazado_99230" data-name="Trazado 99230" d="M449.7,73.561a.852.852,0,1,1-.851-.814A.833.833,0,0,1,449.7,73.561Z" transform="translate(-417.359 -72.747)" fill="#fff"/>
              <ellipse id="Elipse_3962" data-name="Elipse 3962" cx="0.851" cy="0.814" rx="0.851" ry="0.814" transform="translate(38.3 0)" fill="#fff"/>
              <path id="Trazado_99231" data-name="Trazado 99231" d="M466.594,73.561a.852.852,0,1,1-.852-.814A.834.834,0,0,1,466.594,73.561Z" transform="translate(-418.932 -72.747)" fill="#fff"/>
              <ellipse id="Elipse_3963" data-name="Elipse 3963" cx="0.851" cy="0.814" rx="0.851" ry="0.814" transform="translate(53.62 0)" fill="#fff"/>
              <ellipse id="Elipse_3964" data-name="Elipse 3964" cx="0.851" cy="0.814" rx="0.851" ry="0.814" transform="translate(61.28 0)" fill="#fff"/>
              <path id="Trazado_99232" data-name="Trazado 99232" d="M491.933,73.561a.852.852,0,1,1-.852-.814A.834.834,0,0,1,491.933,73.561Z" transform="translate(-421.291 -72.747)" fill="#fff"/>
              <path id="Trazado_99233" data-name="Trazado 99233" d="M500.379,73.561a.852.852,0,1,1-.852-.814A.833.833,0,0,1,500.379,73.561Z" transform="translate(-422.077 -72.747)" fill="#fff"/>
            </g>
            <g id="Grupo_53310" data-name="Grupo 53310" transform="translate(0 26.046)">
              <path id="Trazado_99234" data-name="Trazado 99234" d="M415.916,81.069a.852.852,0,1,1-.852-.814A.833.833,0,0,1,415.916,81.069Z" transform="translate(-414.214 -80.255)" fill="#fff"/>
              <path id="Trazado_99235" data-name="Trazado 99235" d="M424.362,81.069a.852.852,0,1,1-.851-.814A.833.833,0,0,1,424.362,81.069Z" transform="translate(-415 -80.255)" fill="#fff"/>
              <path id="Trazado_99236" data-name="Trazado 99236" d="M432.808,81.069a.852.852,0,1,1-.851-.814A.833.833,0,0,1,432.808,81.069Z" transform="translate(-415.787 -80.255)" fill="#fff"/>
              <path id="Trazado_99237" data-name="Trazado 99237" d="M441.255,81.069a.852.852,0,1,1-.852-.814A.833.833,0,0,1,441.255,81.069Z" transform="translate(-416.573 -80.255)" fill="#fff"/>
              <path id="Trazado_99238" data-name="Trazado 99238" d="M449.7,81.069a.852.852,0,1,1-.851-.814A.833.833,0,0,1,449.7,81.069Z" transform="translate(-417.359 -80.255)" fill="#fff"/>
              <path id="Trazado_99239" data-name="Trazado 99239" d="M458.147,81.069a.852.852,0,1,1-.851-.814A.833.833,0,0,1,458.147,81.069Z" transform="translate(-418.146 -80.255)" fill="#fff"/>
              <path id="Trazado_99240" data-name="Trazado 99240" d="M466.594,81.069a.852.852,0,1,1-.852-.814A.834.834,0,0,1,466.594,81.069Z" transform="translate(-418.932 -80.255)" fill="#fff"/>
              <path id="Trazado_99241" data-name="Trazado 99241" d="M475.04,81.069a.852.852,0,1,1-.851-.814A.833.833,0,0,1,475.04,81.069Z" transform="translate(-419.718 -80.255)" fill="#fff"/>
              <path id="Trazado_99242" data-name="Trazado 99242" d="M483.486,81.069a.852.852,0,1,1-.851-.814A.833.833,0,0,1,483.486,81.069Z" transform="translate(-420.504 -80.255)" fill="#fff"/>
              <path id="Trazado_99243" data-name="Trazado 99243" d="M491.933,81.069a.852.852,0,1,1-.852-.814A.834.834,0,0,1,491.933,81.069Z" transform="translate(-421.291 -80.255)" fill="#fff"/>
              <path id="Trazado_99244" data-name="Trazado 99244" d="M500.379,81.069a.852.852,0,1,1-.852-.814A.833.833,0,0,1,500.379,81.069Z" transform="translate(-422.077 -80.255)" fill="#fff"/>
            </g>
            <g id="Grupo_53311" data-name="Grupo 53311" transform="translate(0 32.557)">
              <ellipse id="Elipse_3965" data-name="Elipse 3965" cx="0.851" cy="0.814" rx="0.851" ry="0.814" transform="translate(0 0)" fill="#fff"/>
              <path id="Trazado_99245" data-name="Trazado 99245" d="M424.362,88.577a.852.852,0,1,1-.851-.814A.833.833,0,0,1,424.362,88.577Z" transform="translate(-415 -87.763)" fill="#fff"/>
              <ellipse id="Elipse_3966" data-name="Elipse 3966" cx="0.851" cy="0.814" rx="0.851" ry="0.814" transform="translate(15.32 0)" fill="#fff"/>
              <path id="Trazado_99246" data-name="Trazado 99246" d="M441.255,88.577a.852.852,0,1,1-.852-.814A.833.833,0,0,1,441.255,88.577Z" transform="translate(-416.573 -87.763)" fill="#fff"/>
              <path id="Trazado_99247" data-name="Trazado 99247" d="M449.7,88.577a.852.852,0,1,1-.851-.814A.833.833,0,0,1,449.7,88.577Z" transform="translate(-417.359 -87.763)" fill="#fff"/>
              <ellipse id="Elipse_3967" data-name="Elipse 3967" cx="0.851" cy="0.814" rx="0.851" ry="0.814" transform="translate(38.3 0)" fill="#fff"/>
              <path id="Trazado_99248" data-name="Trazado 99248" d="M466.594,88.577a.852.852,0,1,1-.852-.814A.834.834,0,0,1,466.594,88.577Z" transform="translate(-418.932 -87.763)" fill="#fff"/>
              <ellipse id="Elipse_3968" data-name="Elipse 3968" cx="0.851" cy="0.814" rx="0.851" ry="0.814" transform="translate(53.62 0)" fill="#fff"/>
              <ellipse id="Elipse_3969" data-name="Elipse 3969" cx="0.851" cy="0.814" rx="0.851" ry="0.814" transform="translate(61.28 0)" fill="#fff"/>
              <path id="Trazado_99249" data-name="Trazado 99249" d="M491.933,88.577a.852.852,0,1,1-.852-.814A.834.834,0,0,1,491.933,88.577Z" transform="translate(-421.291 -87.763)" fill="#fff"/>
              <path id="Trazado_99250" data-name="Trazado 99250" d="M500.379,88.577a.852.852,0,1,1-.852-.814A.833.833,0,0,1,500.379,88.577Z" transform="translate(-422.077 -87.763)" fill="#fff"/>
            </g>
            <g id="Grupo_53312" data-name="Grupo 53312" transform="translate(0 39.069)">
              <ellipse id="Elipse_3970" data-name="Elipse 3970" cx="0.851" cy="0.814" rx="0.851" ry="0.814" fill="#fff"/>
              <path id="Trazado_99251" data-name="Trazado 99251" d="M424.362,96.085a.852.852,0,1,1-.851-.814A.833.833,0,0,1,424.362,96.085Z" transform="translate(-415 -95.271)" fill="#fff"/>
              <ellipse id="Elipse_3971" data-name="Elipse 3971" cx="0.851" cy="0.814" rx="0.851" ry="0.814" transform="translate(15.32)" fill="#fff"/>
              <path id="Trazado_99252" data-name="Trazado 99252" d="M441.255,96.085a.852.852,0,1,1-.852-.814A.833.833,0,0,1,441.255,96.085Z" transform="translate(-416.573 -95.271)" fill="#fff"/>
              <path id="Trazado_99253" data-name="Trazado 99253" d="M449.7,96.085a.852.852,0,1,1-.851-.814A.833.833,0,0,1,449.7,96.085Z" transform="translate(-417.359 -95.271)" fill="#fff"/>
              <ellipse id="Elipse_3972" data-name="Elipse 3972" cx="0.851" cy="0.814" rx="0.851" ry="0.814" transform="translate(38.3)" fill="#fff"/>
              <path id="Trazado_99254" data-name="Trazado 99254" d="M466.594,96.085a.852.852,0,1,1-.852-.814A.834.834,0,0,1,466.594,96.085Z" transform="translate(-418.932 -95.271)" fill="#fff"/>
              <ellipse id="Elipse_3973" data-name="Elipse 3973" cx="0.851" cy="0.814" rx="0.851" ry="0.814" transform="translate(53.62)" fill="#fff"/>
              <ellipse id="Elipse_3974" data-name="Elipse 3974" cx="0.851" cy="0.814" rx="0.851" ry="0.814" transform="translate(61.28)" fill="#fff"/>
              <path id="Trazado_99255" data-name="Trazado 99255" d="M491.933,96.085a.852.852,0,1,1-.852-.814A.834.834,0,0,1,491.933,96.085Z" transform="translate(-421.291 -95.271)" fill="#fff"/>
              <path id="Trazado_99256" data-name="Trazado 99256" d="M500.379,96.085a.852.852,0,1,1-.852-.814A.833.833,0,0,1,500.379,96.085Z" transform="translate(-422.077 -95.271)" fill="#fff"/>
            </g>
            <g id="Grupo_53313" data-name="Grupo 53313" transform="translate(0 45.58)">
              <path id="Trazado_99257" data-name="Trazado 99257" d="M415.916,103.593a.852.852,0,1,1-.852-.813A.833.833,0,0,1,415.916,103.593Z" transform="translate(-414.214 -102.779)" fill="#fff"/>
              <path id="Trazado_99258" data-name="Trazado 99258" d="M424.362,103.593a.852.852,0,1,1-.851-.813A.833.833,0,0,1,424.362,103.593Z" transform="translate(-415 -102.779)" fill="#fff"/>
              <path id="Trazado_99259" data-name="Trazado 99259" d="M432.808,103.593a.852.852,0,1,1-.851-.813A.833.833,0,0,1,432.808,103.593Z" transform="translate(-415.787 -102.779)" fill="#fff"/>
              <path id="Trazado_99260" data-name="Trazado 99260" d="M441.255,103.593a.852.852,0,1,1-.852-.813A.833.833,0,0,1,441.255,103.593Z" transform="translate(-416.573 -102.779)" fill="#fff"/>
              <path id="Trazado_99261" data-name="Trazado 99261" d="M449.7,103.593a.852.852,0,1,1-.851-.813A.833.833,0,0,1,449.7,103.593Z" transform="translate(-417.359 -102.779)" fill="#fff"/>
              <path id="Trazado_99262" data-name="Trazado 99262" d="M458.147,103.593a.852.852,0,1,1-.851-.813A.833.833,0,0,1,458.147,103.593Z" transform="translate(-418.146 -102.779)" fill="#fff"/>
              <path id="Trazado_99263" data-name="Trazado 99263" d="M466.594,103.593a.852.852,0,1,1-.852-.813A.834.834,0,0,1,466.594,103.593Z" transform="translate(-418.932 -102.779)" fill="#fff"/>
              <path id="Trazado_99264" data-name="Trazado 99264" d="M475.04,103.593a.852.852,0,1,1-.851-.813A.833.833,0,0,1,475.04,103.593Z" transform="translate(-419.718 -102.779)" fill="#fff"/>
              <path id="Trazado_99265" data-name="Trazado 99265" d="M483.486,103.593a.852.852,0,1,1-.851-.813A.833.833,0,0,1,483.486,103.593Z" transform="translate(-420.504 -102.779)" fill="#fff"/>
              <path id="Trazado_99266" data-name="Trazado 99266" d="M491.933,103.593a.852.852,0,1,1-.852-.813A.834.834,0,0,1,491.933,103.593Z" transform="translate(-421.291 -102.779)" fill="#fff"/>
              <path id="Trazado_99267" data-name="Trazado 99267" d="M500.379,103.593a.852.852,0,1,1-.852-.813A.833.833,0,0,1,500.379,103.593Z" transform="translate(-422.077 -102.779)" fill="#fff"/>
            </g>
            <g id="Grupo_53314" data-name="Grupo 53314" transform="translate(0 52.092)">
              <ellipse id="Elipse_3975" data-name="Elipse 3975" cx="0.851" cy="0.814" rx="0.851" ry="0.814" fill="#fff"/>
              <path id="Trazado_99268" data-name="Trazado 99268" d="M424.362,111.1a.852.852,0,1,1-.851-.814A.833.833,0,0,1,424.362,111.1Z" transform="translate(-415 -110.287)" fill="#fff"/>
              <ellipse id="Elipse_3976" data-name="Elipse 3976" cx="0.851" cy="0.814" rx="0.851" ry="0.814" transform="translate(15.32)" fill="#fff"/>
              <path id="Trazado_99269" data-name="Trazado 99269" d="M441.255,111.1a.852.852,0,1,1-.852-.814A.834.834,0,0,1,441.255,111.1Z" transform="translate(-416.573 -110.287)" fill="#fff"/>
              <path id="Trazado_99270" data-name="Trazado 99270" d="M449.7,111.1a.852.852,0,1,1-.851-.814A.834.834,0,0,1,449.7,111.1Z" transform="translate(-417.359 -110.287)" fill="#fff"/>
              <ellipse id="Elipse_3977" data-name="Elipse 3977" cx="0.851" cy="0.814" rx="0.851" ry="0.814" transform="translate(38.3)" fill="#fff"/>
              <path id="Trazado_99271" data-name="Trazado 99271" d="M466.594,111.1a.852.852,0,1,1-.852-.814A.834.834,0,0,1,466.594,111.1Z" transform="translate(-418.932 -110.287)" fill="#fff"/>
              <ellipse id="Elipse_3978" data-name="Elipse 3978" cx="0.851" cy="0.814" rx="0.851" ry="0.814" transform="translate(53.62)" fill="#fff"/>
              <ellipse id="Elipse_3979" data-name="Elipse 3979" cx="0.851" cy="0.814" rx="0.851" ry="0.814" transform="translate(61.28)" fill="#fff"/>
              <path id="Trazado_99272" data-name="Trazado 99272" d="M491.933,111.1a.852.852,0,1,1-.852-.814A.834.834,0,0,1,491.933,111.1Z" transform="translate(-421.291 -110.287)" fill="#fff"/>
              <path id="Trazado_99273" data-name="Trazado 99273" d="M500.379,111.1a.852.852,0,1,1-.852-.814A.834.834,0,0,1,500.379,111.1Z" transform="translate(-422.077 -110.287)" fill="#fff"/>
            </g>
            <g id="Grupo_53315" data-name="Grupo 53315" transform="translate(0 58.603)">
              <path id="Trazado_99274" data-name="Trazado 99274" d="M415.916,118.608a.852.852,0,1,1-.852-.814A.834.834,0,0,1,415.916,118.608Z" transform="translate(-414.214 -117.794)" fill="#fff"/>
              <path id="Trazado_99275" data-name="Trazado 99275" d="M424.362,118.608a.852.852,0,1,1-.851-.814A.833.833,0,0,1,424.362,118.608Z" transform="translate(-415 -117.794)" fill="#fff"/>
              <path id="Trazado_99276" data-name="Trazado 99276" d="M432.808,118.608a.852.852,0,1,1-.851-.814A.833.833,0,0,1,432.808,118.608Z" transform="translate(-415.787 -117.794)" fill="#fff"/>
              <path id="Trazado_99277" data-name="Trazado 99277" d="M441.255,118.608a.852.852,0,1,1-.852-.814A.834.834,0,0,1,441.255,118.608Z" transform="translate(-416.573 -117.794)" fill="#fff"/>
              <path id="Trazado_99278" data-name="Trazado 99278" d="M449.7,118.608a.852.852,0,1,1-.851-.814A.834.834,0,0,1,449.7,118.608Z" transform="translate(-417.359 -117.794)" fill="#fff"/>
              <path id="Trazado_99279" data-name="Trazado 99279" d="M458.147,118.608a.852.852,0,1,1-.851-.814A.833.833,0,0,1,458.147,118.608Z" transform="translate(-418.146 -117.794)" fill="#fff"/>
              <path id="Trazado_99280" data-name="Trazado 99280" d="M466.594,118.608a.852.852,0,1,1-.852-.814A.834.834,0,0,1,466.594,118.608Z" transform="translate(-418.932 -117.794)" fill="#fff"/>
              <path id="Trazado_99281" data-name="Trazado 99281" d="M475.04,118.608a.852.852,0,1,1-.851-.814A.834.834,0,0,1,475.04,118.608Z" transform="translate(-419.718 -117.794)" fill="#fff"/>
              <path id="Trazado_99282" data-name="Trazado 99282" d="M483.486,118.608a.852.852,0,1,1-.851-.814A.834.834,0,0,1,483.486,118.608Z" transform="translate(-420.504 -117.794)" fill="#fff"/>
              <path id="Trazado_99283" data-name="Trazado 99283" d="M491.933,118.608a.852.852,0,1,1-.852-.814A.834.834,0,0,1,491.933,118.608Z" transform="translate(-421.291 -117.794)" fill="#fff"/>
              <path id="Trazado_99284" data-name="Trazado 99284" d="M500.379,118.608a.852.852,0,1,1-.852-.814A.834.834,0,0,1,500.379,118.608Z" transform="translate(-422.077 -117.794)" fill="#fff"/>
            </g>
            <g id="Grupo_53316" data-name="Grupo 53316" transform="translate(0 65.114)">
              <ellipse id="Elipse_3980" data-name="Elipse 3980" cx="0.851" cy="0.814" rx="0.851" ry="0.814" transform="translate(0 0)" fill="#fff"/>
              <path id="Trazado_99285" data-name="Trazado 99285" d="M424.362,126.116a.852.852,0,1,1-.851-.814A.833.833,0,0,1,424.362,126.116Z" transform="translate(-415 -125.302)" fill="#fff"/>
              <ellipse id="Elipse_3981" data-name="Elipse 3981" cx="0.851" cy="0.814" rx="0.851" ry="0.814" transform="translate(15.32 0)" fill="#fff"/>
              <path id="Trazado_99286" data-name="Trazado 99286" d="M441.255,126.116a.852.852,0,1,1-.852-.814A.833.833,0,0,1,441.255,126.116Z" transform="translate(-416.573 -125.302)" fill="#fff"/>
              <path id="Trazado_99287" data-name="Trazado 99287" d="M449.7,126.116a.852.852,0,1,1-.851-.814A.833.833,0,0,1,449.7,126.116Z" transform="translate(-417.359 -125.302)" fill="#fff"/>
              <ellipse id="Elipse_3982" data-name="Elipse 3982" cx="0.851" cy="0.814" rx="0.851" ry="0.814" transform="translate(38.3 0)" fill="#fff"/>
              <path id="Trazado_99288" data-name="Trazado 99288" d="M466.594,126.116a.852.852,0,1,1-.852-.814A.834.834,0,0,1,466.594,126.116Z" transform="translate(-418.932 -125.302)" fill="#fff"/>
              <ellipse id="Elipse_3983" data-name="Elipse 3983" cx="0.851" cy="0.814" rx="0.851" ry="0.814" transform="translate(53.62 0)" fill="#fff"/>
              <ellipse id="Elipse_3984" data-name="Elipse 3984" cx="0.851" cy="0.814" rx="0.851" ry="0.814" transform="translate(61.28 0)" fill="#fff"/>
              <path id="Trazado_99289" data-name="Trazado 99289" d="M491.933,126.116a.852.852,0,1,1-.852-.814A.834.834,0,0,1,491.933,126.116Z" transform="translate(-421.291 -125.302)" fill="#fff"/>
              <path id="Trazado_99290" data-name="Trazado 99290" d="M500.379,126.116a.852.852,0,1,1-.852-.814A.833.833,0,0,1,500.379,126.116Z" transform="translate(-422.077 -125.302)" fill="#fff"/>
            </g>
            <g id="Grupo_53317" data-name="Grupo 53317" transform="translate(0 71.627)">
              <ellipse id="Elipse_3985" data-name="Elipse 3985" cx="0.851" cy="0.814" rx="0.851" ry="0.814" transform="translate(0 0)" fill="#fff"/>
              <path id="Trazado_99291" data-name="Trazado 99291" d="M424.362,133.624a.852.852,0,1,1-.851-.814A.833.833,0,0,1,424.362,133.624Z" transform="translate(-415 -132.81)" fill="#fff"/>
              <ellipse id="Elipse_3986" data-name="Elipse 3986" cx="0.851" cy="0.814" rx="0.851" ry="0.814" transform="translate(15.32 0)" fill="#fff"/>
              <path id="Trazado_99292" data-name="Trazado 99292" d="M441.255,133.624a.852.852,0,1,1-.852-.814A.833.833,0,0,1,441.255,133.624Z" transform="translate(-416.573 -132.81)" fill="#fff"/>
              <path id="Trazado_99293" data-name="Trazado 99293" d="M449.7,133.624a.852.852,0,1,1-.851-.814A.833.833,0,0,1,449.7,133.624Z" transform="translate(-417.359 -132.81)" fill="#fff"/>
              <ellipse id="Elipse_3987" data-name="Elipse 3987" cx="0.851" cy="0.814" rx="0.851" ry="0.814" transform="translate(38.3 0)" fill="#fff"/>
              <path id="Trazado_99294" data-name="Trazado 99294" d="M466.594,133.624a.852.852,0,1,1-.852-.814A.834.834,0,0,1,466.594,133.624Z" transform="translate(-418.932 -132.81)" fill="#fff"/>
              <ellipse id="Elipse_3988" data-name="Elipse 3988" cx="0.851" cy="0.814" rx="0.851" ry="0.814" transform="translate(53.62 0)" fill="#fff"/>
              <ellipse id="Elipse_3989" data-name="Elipse 3989" cx="0.851" cy="0.814" rx="0.851" ry="0.814" transform="translate(61.28 0)" fill="#fff"/>
              <path id="Trazado_99295" data-name="Trazado 99295" d="M491.933,133.624a.852.852,0,1,1-.852-.814A.834.834,0,0,1,491.933,133.624Z" transform="translate(-421.291 -132.81)" fill="#fff"/>
              <path id="Trazado_99296" data-name="Trazado 99296" d="M500.379,133.624a.852.852,0,1,1-.852-.814A.833.833,0,0,1,500.379,133.624Z" transform="translate(-422.077 -132.81)" fill="#fff"/>
            </g>
          </g>
        </g>
        <line id="Línea_138" data-name="Línea 138" y2="118.993" transform="translate(13.67 28.642)" fill="none" stroke="#31313c" stroke-linecap="round" stroke-width="4" stroke-dasharray="8"/>
      </g>
    </g>
    <g id="Grupo_83" data-name="Grupo 83" transform="translate(915.037 1298.298)" clip-path="url(#clip-path-2)">
      <g id="Grupo_158106" data-name="Grupo 158106" transform="translate(39.395 -17.999)">
        <g id="Grupo_158107" data-name="Grupo 158107">
          <path id="Trazado_152836" data-name="Trazado 152836" d="M249.454,128.326H127.984a14.717,14.717,0,0,1-14.674-14.672V44.026a14.717,14.717,0,0,1,14.674-14.674h121.47a14.716,14.716,0,0,1,14.672,14.674v69.628a14.715,14.715,0,0,1-14.672,14.672" transform="translate(92.645 23.999)" fill="#f6f6f6"/>
          <path id="Trazado_152837" data-name="Trazado 152837" d="M250.511,29.352H126.925a13.654,13.654,0,0,0-13.614,13.616v.84H264.127v-.84a13.656,13.656,0,0,0-13.616-13.616" transform="translate(92.646 23.999)" fill="#1a1a1a"/>
          <path id="Trazado_152838" data-name="Trazado 152838" d="M206.528,107.467l-5.187,15.808s-4.791-16-18.287-21.2-20.9-3.659-20.9-3.659,4-2.766,3.483-6.273-6.324-6.3-6.324-6.3l-22.115.792s-5.188,1.93-5.509,5.8a6.915,6.915,0,0,0,2.754,5.98s-11.864-.6-18.749,2.541-16.42,6.932-21.519,22.319-5.595,32.859-5.595,32.859L65.4,162.016s-6.554,3.968-5.553,6.48l4.735,26.2s5.06,21.926,21.3,21.908,20.43-11.985,20.43-11.985-4.626,34.364-8.277,43.267H198.074s-7.376-28.346-9.633-51.159c0,0-2.259-17.653-1.187-24.64,0,0,2.125,18.971,15.61,22.151s21.692-4.417,26.419-15.6,7.525-31.585,8.5-37.692,4.38-28.081,4.38-28.081.662-4.633-15.89-7-18.427-1.969-19.747,1.6" transform="translate(48.847 70.188)" fill="#12263f"/>
          <path id="Trazado_152839" data-name="Trazado 152839" d="M135.748,161.891H45.439a14.716,14.716,0,0,1-14.672-14.672V93.326A14.715,14.715,0,0,1,45.439,78.654h90.309A14.714,14.714,0,0,1,150.42,93.326v53.893a14.715,14.715,0,0,1-14.672,14.672" transform="translate(25.156 64.31)" fill="#f6f6f6"/>
          <path id="Trazado_152840" data-name="Trazado 152840" d="M98.8,94.991s-4.453-17.182,3.8-19.565c0,0,3.328-3.6,6.436-4.958,0,0-7.736-9.493-5.825-14.672s7.358-6.467,13.95-6.538,13.845,1.932,14.268,7.02-6.193,14.034-6.193,14.034,9.659,2.476,10.108,10.526a56.657,56.657,0,0,1-.665,13.387l-2.236,1.639L100.4,97.81Z" transform="translate(79.805 40.273)" fill="#1a1a1a"/>
          <path id="Trazado_152841" data-name="Trazado 152841" d="M133.946,92.271s8.85,2.714,9.023-5.646c0,0-.616-7.052-8.212-5.073l-.411-1.654s-6.325,1.118-13.825-4.148a134.046,134.046,0,0,1-11.629-8.992s-3.623,8.739-5.109,10.857l-.011,4.091s-7.178-2.236-8.483,4.919c0,0,.022,5.7,4.591,6.136s4.351-.847,4.351-.847,1.051,8.8,5.971,11.351l-.476,6.46s3.463,3.175,10.055,2.392,8.634-2.539,8.634-2.539l-.371-6.313s4.773-3.143,5.9-10.995" transform="translate(77.911 54.584)" fill="#fda194"/>
          <path id="Trazado_152842" data-name="Trazado 152842" d="M145.668,111.192s3.781-8.557,3.383-10.493-4.177-6.2-6.047-7.774-1.892-4.726,0-5.784,4.866.009,7.725,2.494,6.42,6.327,7.71,6.278c0,0,9.842-7.425,14.027-8.5s6.156-1.3,7.216.431c0,0,3.484.182,4.288,2.65,0,0,2.975-.6,4.041,1.2s-.4,5.3-3.866,7.723-8.779,5.507-12.647,6.513-5.4,9.675-5.4,9.675-12.991-.429-20.428-4.415" transform="translate(115.769 70.789)" fill="#fda194"/>
          <path id="Trazado_152843" data-name="Trazado 152843" d="M92.744,153.287l-2.494-9.2s3.773-4.6,1.587-13.694-8.232-7.192-8.232-7.192-3.7-9.026-4.777-13.812-4.113-10.57-8.112-9.792-4.559,7.167-3.363,12.162,3.828,12.254,3.828,12.254-4.517-3.908-6.218-3.779-5.175,1.54-6.093,3.681a19.7,19.7,0,0,0-1.236,4.3s-3.384,1.832-3.493,5.242,2.261,7.032,11.262,12.5a7.943,7.943,0,0,0,6.367,5.2l1.325,8.061a50.722,50.722,0,0,0,10.51-2.2c4.649-1.658,9.139-3.742,9.139-3.742" transform="translate(44.265 81.378)" fill="#fda194"/>
          <path id="Trazado_152844" data-name="Trazado 152844" d="M204.493,92.271,177.806,75.755a1.65,1.65,0,0,0-2.517,1.483l1.536,31.349a1.649,1.649,0,0,0,2.486,1.34l7.212-4.253a1.649,1.649,0,0,1,2.259.583l10.491,17.791a1.651,1.651,0,0,0,2.259.583l5.709-3.366a1.648,1.648,0,0,0,.583-2.261l-10.488-17.791a1.646,1.646,0,0,1,.583-2.259L204.46,95.1a1.649,1.649,0,0,0,.033-2.825" transform="translate(143.319 61.735)" fill="#12263f"/>
          <path id="Trazado_152845" data-name="Trazado 152845" d="M80.9,102.413A11.875,11.875,0,1,1,69.023,90.538,11.875,11.875,0,0,1,80.9,102.413" transform="translate(46.726 74.026)" fill="#6f88da"/>
          <path id="Trazado_152846" data-name="Trazado 152846" d="M195.77,35.149a4.209,4.209,0,1,1-4.208-4.208,4.208,4.208,0,0,1,4.208,4.208" transform="translate(153.185 25.298)" fill="#219cd5"/>
          <path id="Trazado_152847" data-name="Trazado 152847" d="M188.884,35.149a4.209,4.209,0,1,1-4.208-4.208,4.208,4.208,0,0,1,4.208,4.208" transform="translate(147.555 25.298)" fill="#fff"/>
          <path id="Trazado_152848" data-name="Trazado 152848" d="M182,35.149a4.209,4.209,0,1,1-4.208-4.208A4.208,4.208,0,0,1,182,35.149" transform="translate(141.924 25.298)" fill="#fff"/>
          <path id="Trazado_152849" data-name="Trazado 152849" d="M64.822,127.752l2.047.46,1.958,8.076s-8.534.26-9.014-2.058,5.009-6.478,5.009-6.478" transform="translate(48.88 104.454)" fill="#1a1a1a"/>
          <path id="Trazado_152850" data-name="Trazado 152850" d="M74.277,125.2l2,7.71s7.62-3.948,5.846-6.9-7.847-.807-7.847-.807" transform="translate(60.731 101.752)" fill="#1a1a1a"/>
          <path id="Trazado_152851" data-name="Trazado 152851" d="M148.8,96.125s-1.143,6.516-2.328,7.3-6.682-2.512-5.749-5.166,8.078-2.13,8.078-2.13" transform="translate(114.97 78.56)" fill="#1a1a1a"/>
          <path id="Trazado_152852" data-name="Trazado 152852" d="M157.823,97.956s-2.846,5.858-2.579,8.223c0,0,8.354.042,8.852-3.214.393-2.579-6.273-5.009-6.273-5.009" transform="translate(126.917 80.092)" fill="#1a1a1a"/>
          <path id="Trazado_152853" data-name="Trazado 152853" d="M49.118,91.99A4.816,4.816,0,1,1,44.3,87.175a4.815,4.815,0,0,1,4.815,4.815" transform="translate(32.285 71.277)" fill="#1a1a1a"/>
          <path id="Trazado_152854" data-name="Trazado 152854" d="M97.972,104.378a4.815,4.815,0,1,1-4.815-4.815,4.815,4.815,0,0,1,4.815,4.815" transform="translate(72.231 81.406)" fill="#1a1a1a"/>
          <rect id="Rectángulo_35126" data-name="Rectángulo 35126" width="23.418" height="23.418" transform="translate(224.812 79.892)" fill="#4adbd1"/>
          <path id="Trazado_152857" data-name="Trazado 152857" d="M159.031,114.668a.584.584,0,0,1-.563-.653c.058-.373,1.443-9.112,5.833-10.142,4.25-1,15.281-6.378,16.45-11.822a1.844,1.844,0,0,0-.534-1.841,3.267,3.267,0,0,0-3.148-.462c-2.519.767-11.815,6.145-11.909,6.2a.517.517,0,0,1-.354.071c-.089-.009-9.432-1.12-13.585,3.377a.568.568,0,0,1-.834-.771c4.255-4.6,12.927-3.906,14.368-3.753,1.3-.753,9.5-5.455,11.984-6.211a4.4,4.4,0,0,1,4.246.713,3,3,0,0,1,.876,2.914c-1.365,6.351-13.6,11.818-17.3,12.689-3.028.713-4.613,6.889-4.968,9.208a.569.569,0,0,1-.56.483" transform="translate(122.836 72.297)" fill="#db5349"/>
          <path id="Trazado_152858" data-name="Trazado 152858" d="M154.029,96.989a.567.567,0,0,1-.3-1.051c1.52-.934,14.9-9.119,17.62-8.825a3.86,3.86,0,0,1,3.473,3.075.567.567,0,0,1-1.12.185,2.724,2.724,0,0,0-2.477-2.13c-1.72-.187-11.291,5.209-16.9,8.659a.581.581,0,0,1-.3.085" transform="translate(125.475 71.22)" fill="#db5349"/>
          <path id="Trazado_152859" data-name="Trazado 152859" d="M150.954,96.844a.568.568,0,0,1-.311-1.041c.236-.155,5.793-3.8,7.114-4.51.634-.338,1.385-.782,2.2-1.269,2.821-1.67,6.331-3.746,8.9-3.879,3.524-.178,4.253,2.072,4.282,2.168a.568.568,0,0,1-1.091.314c-.02-.071-.5-1.461-3.135-1.35-2.294.118-5.815,2.2-8.383,3.722-.836.5-1.6.949-2.247,1.294-1.278.685-6.971,4.419-7.029,4.455a.562.562,0,0,1-.311.094" transform="translate(122.961 70.427)" fill="#db5349"/>
          <path id="Trazado_152860" data-name="Trazado 152860" d="M104.3,74.912c.453-.071.756.124.887,1.754.145,1.819-.327,2.141-.734,2.125s-.818-.578-.8-1.878.051-1.909.645-2" transform="translate(84.75 61.24)"/>
          <path id="Trazado_152861" data-name="Trazado 152861" d="M112.878,74.992c.454-.06.752.142.84,1.778.1,1.823-.382,2.13-.789,2.1s-.8-.6-.749-1.9.1-1.9.7-1.983" transform="translate(91.718 61.308)"/>
          <path id="Trazado_152863" data-name="Trazado 152863" d="M98.263,83.219a.568.568,0,0,1-.345-1.018l3.4-2.623-3.8-2.814a.567.567,0,0,1,.674-.912l4.408,3.261a.572.572,0,0,1,.231.451.562.562,0,0,1-.222.454L98.608,83.1a.551.551,0,0,1-.345.12" transform="translate(79.538 61.928)" fill="#dc5349"/>
          <path id="Trazado_152865" data-name="Trazado 152865" d="M121.042,83.218a.552.552,0,0,1-.347-.12L116.7,80.017a.562.562,0,0,1-.222-.454.572.572,0,0,1,.231-.451l4.41-3.261a.567.567,0,0,1,.673.912l-3.8,2.814,3.4,2.623a.569.569,0,0,1-.345,1.018" transform="translate(95.239 61.928)" fill="#dc5349"/>
          <path id="Trazado_152866" data-name="Trazado 152866" d="M151.562,183.579c-.605,0-1.221-.024-1.852-.073-9.742-.763-20.085-8.339-19.894-27.314a.568.568,0,0,1,1.136.009c-.184,18.194,9.613,25.449,18.845,26.172,20.683,1.618,25.483-25.872,27.055-34.909,2.292-13.18,7.407-46.053,7.46-46.384a.568.568,0,0,1,1.122.174c-.051.331-5.171,33.214-7.463,46.4-1.569,9.015-6.251,35.92-26.408,35.92" transform="translate(106.139 82.257)"/>
          <path id="Trazado_152867" data-name="Trazado 152867" d="M133.661,151.439a.58.58,0,0,1-.565-.62,151.46,151.46,0,0,1,3.328-20.176,281.553,281.553,0,0,1,9.913-33.315.567.567,0,0,1,1.058.409,280.886,280.886,0,0,0-9.868,33.164,151.113,151.113,0,0,0-3.3,20.021.568.568,0,0,1-.565.516" transform="translate(108.821 79.282)"/>
          <path id="Trazado_152868" data-name="Trazado 152868" d="M115.564,101.563a16.4,16.4,0,0,1-10.17-3.126c-2.5-1.987-4.159-5.18-5.064-9.762-.6-3.032-.727-12.58-.676-15.7a.568.568,0,0,1,1.136.02c-.056,3.348.1,12.647.654,15.457.851,4.306,2.374,7.281,4.657,9.1a15.279,15.279,0,0,0,9.463,2.877.568.568,0,0,1,0,1.136" transform="translate(81.472 59.212)" fill="#dc5349"/>
          <path id="Trazado_152869" data-name="Trazado 152869" d="M108.658,100.536a.568.568,0,0,1,0-1.136,15.274,15.274,0,0,0,9.461-2.877c2.283-1.814,3.806-4.789,4.657-9.1.6-3.023.614-10.537.569-13.176a.568.568,0,0,1,1.136-.02c.045,2.674.025,10.3-.591,13.416-.905,4.582-2.563,7.776-5.064,9.762a16.4,16.4,0,0,1-10.168,3.126" transform="translate(88.378 60.239)" fill="#dc5349"/>
          <path id="Trazado_152874" data-name="Trazado 152874" d="M81.066,227.1a.582.582,0,0,1-.251-.058.566.566,0,0,1-.258-.76c2.859-5.8,13.921-63.548,10.273-80.1C87.111,129.3,93.082,112.5,93.144,112.33a.568.568,0,1,1,1.067.387c-.06.165-5.918,16.673-2.274,33.223,3.684,16.708-7.478,74.99-10.362,80.843a.565.565,0,0,1-.509.318" transform="translate(65.817 91.539)"/>
          <path id="Trazado_152875" data-name="Trazado 152875" d="M141.778,227.1a.565.565,0,0,1-.509-.318c-2.885-5.849-14.048-64.126-10.364-80.843,3.646-16.56-2.214-33.057-2.274-33.223a.568.568,0,1,1,1.067-.387c.062.169,6.033,16.975,2.314,33.853-3.648,16.56,7.416,74.3,10.275,80.1a.567.567,0,0,1-.258.76.583.583,0,0,1-.251.058" transform="translate(105.145 91.539)"/>
          <path id="Trazado_152876" data-name="Trazado 152876" d="M167.125,108.626a55.179,55.179,0,0,1-9.548-.909c-8.394-1.52-15.357-4.5-16.933-7.256a2.183,2.183,0,0,1-.234-1.9c1.125-3.065,5.573-3.085,9.1-2.557a.565.565,0,0,1,.476.643.548.548,0,0,1-.643.478c-2.554-.376-6.965-.643-7.872,1.827a1.09,1.09,0,0,0,.153.942c1.376,2.4,8.321,5.284,16.151,6.7,10.081,1.816,17.56.645,17.96-1.55.184-1.014-1.658-2.968-5.529-4.731a.569.569,0,0,1,.473-1.034c3.237,1.478,6.56,3.821,6.173,5.969-.431,2.376-4.531,3.372-9.73,3.372" transform="translate(114.705 78.286)"/>
          <path id="Trazado_152877" data-name="Trazado 152877" d="M87.826,180.311a20.377,20.377,0,0,1-11.538-3.381c-8.6-5.736-11.94-17.373-13.163-23.8-.516-2.712-1.138-6.514-1.8-10.539-.578-3.521-1.194-7.305-1.834-10.922a.568.568,0,0,1,1.118-.2c.64,3.623,1.26,7.412,1.836,10.939.656,4.015,1.278,7.81,1.79,10.508,1.191,6.253,4.42,17.564,12.68,23.068,4.573,3.048,10.119,3.919,16.48,2.581,3.508-.734,11.835-3.624,13.389-14.536a.557.557,0,0,1,.64-.482.567.567,0,0,1,.482.642,17.837,17.837,0,0,1-14.276,15.486,28.227,28.227,0,0,1-5.807.634" transform="translate(48.638 107.114)"/>
          <path id="Trazado_152878" data-name="Trazado 152878" d="M89.622,157.168a.568.568,0,0,1-.54-.394c-5.277-16.422-10.622-30.7-10.675-30.845a.567.567,0,1,1,1.062-.4c.053.142,5.407,14.447,10.693,30.9a.565.565,0,0,1-.365.713.54.54,0,0,1-.174.029" transform="translate(64.079 102.335)"/>
          <path id="Trazado_152879" data-name="Trazado 152879" d="M65.936,139.766c-3.4,0-5.9-.727-6.425-2.463a.568.568,0,1,1,1.087-.331c.645,2.139,8.2,2.45,18.018-.516,7.616-2.3,14.185-5.96,15.277-8.508a1.078,1.078,0,0,0,.045-.951c-1.123-2.227-4.706-1.8-7.514-1.047a.567.567,0,1,1-.293-1.1c4.679-1.258,7.641-.7,8.819,1.63a2.19,2.19,0,0,1-.015,1.91c-1.231,2.872-7.958,6.718-16,9.146a48.167,48.167,0,0,1-13.005,2.225" transform="translate(48.638 101.548)"/>
          <path id="Trazado_152880" data-name="Trazado 152880" d="M60.077,135.055a.569.569,0,0,1-.543-.4c-.6-1.994,2.541-5.164,5.806-7.131a.568.568,0,0,1,.585.974c-3.421,2.059-5.622,4.777-5.3,5.827a.567.567,0,0,1-.378.707.581.581,0,0,1-.165.025" transform="translate(48.615 104.198)"/>
          <path id="Trazado_152881" data-name="Trazado 152881" d="M102.107,75.742a.615.615,0,0,1-.194-.033.568.568,0,0,1-.338-.729c1.018-2.8,4.908-3.606,7.205-3.09a.569.569,0,0,1,.429.678.561.561,0,0,1-.678.429c-1.888-.423-5.133.287-5.891,2.372a.567.567,0,0,1-.533.373" transform="translate(83.022 58.66)"/>
          <path id="Trazado_152882" data-name="Trazado 152882" d="M110.126,86.668a8.761,8.761,0,0,1-2.474-.367.568.568,0,0,1,.351-1.08c.027.011,2.775.876,4.548-.331a4.115,4.115,0,0,0,1.556-3.363.563.563,0,0,1,.6-.531.57.57,0,0,1,.533.6,5.186,5.186,0,0,1-2.056,4.233,5.418,5.418,0,0,1-3.059.836" transform="translate(87.699 66.226)"/>
          <path id="Trazado_152883" data-name="Trazado 152883" d="M107.277,87.729a.558.558,0,0,1-.378-.145c-.2-.178-1.948-1.79-2-3.463a2.209,2.209,0,0,1,.647-1.643,2.446,2.446,0,0,1,1.79-.782,3.667,3.667,0,0,1,1.93.654c.347-3.125.587-7.505-.044-8.465a.568.568,0,0,1,.949-.623c1.138,1.73.282,8.828.1,10.235a.568.568,0,0,1-.967.325,3.326,3.326,0,0,0-1.967-.992,1.338,1.338,0,0,0-.982.443,1.049,1.049,0,0,0-.322.809,4.908,4.908,0,0,0,1.625,2.656.563.563,0,0,1,.044.8.555.555,0,0,1-.422.191" transform="translate(85.765 59.693)"/>
          <path id="Trazado_152884" data-name="Trazado 152884" d="M102.779,67.237a.573.573,0,0,1-.465-.238l-1.829-2.581a.568.568,0,0,1,.927-.656l1.829,2.579a.571.571,0,0,1-.133.792.586.586,0,0,1-.329.1" transform="translate(82.075 51.939)"/>
          <path id="Trazado_152891" data-name="Trazado 152891" d="M88.881,143.458a.567.567,0,0,1-.547-.418l-2.5-9.2a.565.565,0,0,1,.205-.6c1.361-1.029,3.533-12.391-.76-18.391-2.2-3.083-14.381-.874-21.284,3.006-3,1.685-4.411,3.364-3.882,4.6a6.594,6.594,0,0,0,4.3,3.759c3.906,1.238,9.617.075,14.552-2.968a.567.567,0,1,1,.6.965c-5.208,3.21-11.287,4.426-15.49,3.083a7.778,7.778,0,0,1-5-4.4c-.563-1.316-.262-3.432,4.37-6.036,6.947-3.906,19.912-6.662,22.762-2.679,4.411,6.164,2.619,17.327.811,19.661l2.412,8.89a.566.566,0,0,1-.4.7.53.53,0,0,1-.149.022" transform="translate(48.129 91.774)" fill="#db5349"/>
          <path id="Trazado_152892" data-name="Trazado 152892" d="M76.248,134.755a11.2,11.2,0,0,1-2.35-.26c-3-.651-6.085-2.259-9.715-5.06a35.507,35.507,0,0,1-5.945-5.8c-1.085-1.34-2.508-3.4-2.372-5.813a6.139,6.139,0,0,1,.494-2.067c1.071-2.539,3.746-5.186,6.616-5.14a6.772,6.772,0,0,1,4.042,1.89l.371.287c1.5,1.158,2.6,2.038,3.921,3.143a.566.566,0,1,1-.727.869c-1.309-1.092-2.4-1.965-3.888-3.114l-.376-.293a5.805,5.805,0,0,0-3.366-1.647c-2.328,0-4.615,2.245-5.547,4.446A5.015,5.015,0,0,0,57,117.882c-.085,1.54.587,3.137,2.123,5.035a34.227,34.227,0,0,0,5.755,5.62c3.493,2.694,6.436,4.235,9.264,4.849a8.377,8.377,0,0,0,4.593-.174A4.726,4.726,0,0,0,81,131.588c1.252-1.756.351-3.757-.3-4.791l-.147-.231c-.095-.149-.136-.214-.313-.453a.567.567,0,0,1,.912-.674c.2.271.251.347.36.52l.145.227c1.383,2.212,1.476,4.362.264,6.062a5.818,5.818,0,0,1-2.808,2.032,8.441,8.441,0,0,1-2.868.474" transform="translate(45.669 90.439)" fill="#db5349"/>
          <path id="Trazado_152893" data-name="Trazado 152893" d="M74.791,136.6q-.537,0-1.1-.051c-3.054-.287-6.311-1.512-10.251-3.855a35.644,35.644,0,0,1-6.6-5.051c-1.236-1.2-2.9-3.072-3.052-5.484a6.24,6.24,0,0,1,.242-2.11,7.769,7.769,0,0,1,3.837-4.993.568.568,0,0,1,.505,1.018,6.664,6.664,0,0,0-3.252,4.286,5.1,5.1,0,0,0-.2,1.725c.1,1.538.962,3.046,2.712,4.746a34.324,34.324,0,0,0,6.387,4.886c3.792,2.258,6.9,3.432,9.781,3.7a8.358,8.358,0,0,0,4.537-.723,4.731,4.731,0,0,0,2.058-1.885,2.874,2.874,0,0,0,.284-2.59.566.566,0,0,1,1.072-.365,3.968,3.968,0,0,1-.358,3.5,5.825,5.825,0,0,1-2.545,2.356,9.031,9.031,0,0,1-4.059.889" transform="translate(43.971 94.027)" fill="#db5349"/>
          <path id="Trazado_152895" data-name="Trazado 152895" d="M75.865,151.367a.568.568,0,0,1-.567-.556c-.005-.258-.449-26.163,10.7-43.289,11.237-17.266,36.164-14.977,36.411-14.954a.569.569,0,0,1,.509.622.547.547,0,0,1-.622.507c-.238-.024-24.491-2.236-35.346,14.443-10.958,16.835-10.52,42.391-10.515,42.647a.569.569,0,0,1-.554.58Z" transform="translate(61.563 75.595)"/>
          <path id="Trazado_152896" data-name="Trazado 152896" d="M155.532,118.486a.566.566,0,0,1-.538-.391c-1.143-3.453-5.111-9.852-5.151-9.915C138.985,91.5,116.622,93.6,116.4,93.623a.567.567,0,0,1-.118-1.129c.234-.025,23.28-2.2,34.52,15.077.173.276,4.088,6.587,5.271,10.17a.572.572,0,0,1-.538.745" transform="translate(94.657 75.544)"/>
          <path id="Trazado_152897" data-name="Trazado 152897" d="M43.935,95.627a4,4,0,1,1,4-4,4.007,4.007,0,0,1-4,4m0-6.869A2.866,2.866,0,1,0,46.8,91.624a2.869,2.869,0,0,0-2.866-2.866" transform="translate(32.65 71.642)" fill="#fff"/>
          <path id="Trazado_152898" data-name="Trazado 152898" d="M92.664,107.6a3.718,3.718,0,1,1,3.717-3.719,3.723,3.723,0,0,1-3.717,3.719m0-6.3a2.582,2.582,0,1,0,2.581,2.581,2.584,2.584,0,0,0-2.581-2.581" transform="translate(72.724 81.899)" fill="#fff"/>
          <path id="Trazado_152899" data-name="Trazado 152899" d="M55.692,128.444a7.864,7.864,0,0,1-5.424-2.216.568.568,0,1,1,.767-.838,6.752,6.752,0,0,0,4.657,1.918l.282,0a.579.579,0,0,1,.578.558.569.569,0,0,1-.558.578l-.294,0Zm5.849-1.709a.568.568,0,0,1-.309-1.043,15.2,15.2,0,0,0,3.99-4.013.567.567,0,1,1,.923.66,16.313,16.313,0,0,1-4.3,4.3.564.564,0,0,1-.309.093M47.3,121.555a.566.566,0,0,1-.511-.324,35.8,35.8,0,0,1-2.065-5.64.568.568,0,1,1,1.094-.309,34.46,34.46,0,0,0,1.994,5.46.57.57,0,0,1-.267.758.593.593,0,0,1-.245.055M68.7,117.5a.585.585,0,0,1-.262-.064.569.569,0,0,1-.244-.765c.493-.952.967-1.916,1.441-2.874.4-.814.8-1.621,1.2-2.41a.575.575,0,0,1,.763-.249.568.568,0,0,1,.249.763c-.4.785-.8,1.589-1.2,2.4-.476.963-.956,1.934-1.45,2.894a.57.57,0,0,1-.5.307m-24.731-7.263a.573.573,0,0,1-.56-.467c-.329-1.839-.616-3.822-.854-5.9a.567.567,0,0,1,.5-.629.579.579,0,0,1,.629.5c.233,2.05.516,4.01.845,5.822a.573.573,0,0,1-.458.662.66.66,0,0,1-.1.009M42.605,98.473a.567.567,0,0,1-.565-.533c-.211-3.375-.218-5.716-.218-5.971a.568.568,0,1,1,1.136,0c0,.253.005,2.559.214,5.9a.57.57,0,0,1-.531.6l-.036,0" transform="translate(34.195 74.732)"/>
          <path id="Trazado_152900" data-name="Trazado 152900" d="M94.118,138.964a8.52,8.52,0,0,1-4.7-1.5.566.566,0,0,1,.62-.947,7.51,7.51,0,0,0,5.2,1.236.558.558,0,0,1,.64.482.564.564,0,0,1-.48.642,8.946,8.946,0,0,1-1.278.091m6.331-2.748a.568.568,0,0,1-.394-.976,17.906,17.906,0,0,0,3.308-4.642.568.568,0,0,1,1.007.525,19.121,19.121,0,0,1-3.526,4.933.573.573,0,0,1-.394.16m-14.894-2.8a.561.561,0,0,1-.453-.227,42.427,42.427,0,0,1-3.214-5.053.567.567,0,1,1,.994-.547,41.549,41.549,0,0,0,3.125,4.919.566.566,0,0,1-.113.792.558.558,0,0,1-.34.116m20.57-7.452a.572.572,0,0,1-.538-.745c.569-1.725,1.089-3.628,1.543-5.656a.567.567,0,1,1,1.107.247c-.464,2.065-.992,4-1.574,5.764a.566.566,0,0,1-.538.391m-26.414-2.81a.57.57,0,0,1-.514-.325c-.831-1.761-1.645-3.579-2.447-5.4a.566.566,0,0,1,.289-.747.56.56,0,0,1,.747.289c.8,1.814,1.609,3.621,2.437,5.373a.57.57,0,0,1-.269.756.585.585,0,0,1-.244.055m29.048-8.723a.581.581,0,0,1-.56-.651c.507-3.412.662-5.829.663-5.855A.567.567,0,1,1,110,108c0,.025-.158,2.487-.674,5.951a.568.568,0,0,1-.562.484m-33.875-2.076a.571.571,0,0,1-.52-.338c-.971-2.181-1.758-3.881-2.481-5.344a.566.566,0,0,1,.26-.76.573.573,0,0,1,.76.258c.727,1.478,1.521,3.188,2.5,5.384a.567.567,0,0,1-.289.749.544.544,0,0,1-.229.051m-5.34-10.546a.568.568,0,0,1-.48-.265c-.289-.458-.582-.894-.874-1.305a.568.568,0,0,1,.923-.662q.461.646.911,1.36a.571.571,0,0,1-.176.783.562.562,0,0,1-.3.089" transform="translate(55.667 81.227)"/>
          <path id="Trazado_152902" data-name="Trazado 152902" d="M191.166,38.08a3.327,3.327,0,1,1,3.328-3.328,3.331,3.331,0,0,1-3.328,3.328m0-5.52a2.193,2.193,0,1,0,2.192,2.192,2.195,2.195,0,0,0-2.192-2.192" transform="translate(153.582 25.695)"/>
          <path id="Trazado_152903" data-name="Trazado 152903" d="M184.281,38.08a3.327,3.327,0,1,1,3.326-3.328,3.331,3.331,0,0,1-3.326,3.328m0-5.52a2.193,2.193,0,1,0,2.19,2.192,2.195,2.195,0,0,0-2.19-2.192" transform="translate(147.951 25.695)"/>
          <path id="Trazado_152904" data-name="Trazado 152904" d="M177.392,38.08a3.327,3.327,0,1,1,3.328-3.328,3.331,3.331,0,0,1-3.328,3.328m0-5.52a2.193,2.193,0,1,0,2.192,2.192,2.193,2.193,0,0,0-2.192-2.192" transform="translate(142.321 25.695)"/>
          <path id="Trazado_152908" data-name="Trazado 152908" d="M139.258,80.417H124a.567.567,0,0,1-.567-.567V64.594a.567.567,0,0,1,.567-.567h15.255a.567.567,0,0,1,.567.567V79.849a.567.567,0,0,1-.567.567m-14.686-1.134h14.119V65.161H124.572Z" transform="translate(100.925 52.35)" fill="#785549"/>
          <path id="Trazado_152909" data-name="Trazado 152909" d="M218.6,44.775H148.52a.567.567,0,1,1,0-1.134H218.6a.567.567,0,1,1,0,1.134" transform="translate(120.971 35.682)"/>
          <path id="Trazado_152910" data-name="Trazado 152910" d="M218.6,54.592H148.52a.567.567,0,1,1,0-1.134H218.6a.567.567,0,1,1,0,1.134" transform="translate(120.971 43.709)"/>
          <path id="Trazado_152911" data-name="Trazado 152911" d="M218.6,64.409H148.52a.567.567,0,1,1,0-1.134H218.6a.567.567,0,1,1,0,1.134" transform="translate(120.971 51.735)"/>
          <path id="Trazado_152914" data-name="Trazado 152914" d="M105.543,100.631a.573.573,0,0,1-.236-.053c-3.944-1.81-6.3-4.859-6.3-8.156,0-1.925,1.112-4.622,6.4-6.529a.568.568,0,0,1,.383,1.069c-3.75,1.35-5.651,3.188-5.651,5.46,0,2.841,2.107,5.506,5.635,7.125a.568.568,0,0,1-.236,1.083" transform="translate(80.953 70.201)"/>
          <path id="Trazado_152915" data-name="Trazado 152915" d="M110.954,102.709a37.256,37.256,0,0,1-4.593-.269.57.57,0,0,1-.493-.634.547.547,0,0,1,.634-.493,36.039,36.039,0,0,0,4.451.26c10.66,0,16.413-4.673,16.413-9.07,0-2.283-2.17-4.288-6.116-5.64a.567.567,0,0,1,.369-1.072c4.437,1.521,6.883,3.906,6.883,6.713,0,4.948-6.151,10.206-17.549,10.206" transform="translate(86.557 70.12)"/>
          <path id="Trazado_152916" data-name="Trazado 152916" d="M101.695,102.415a.578.578,0,0,1-.567-.611c.478-6.371-.653-8.845-.665-8.868a.57.57,0,0,1,.267-.756.561.561,0,0,1,.754.262c.053.105,1.281,2.706.776,9.448a.57.57,0,0,1-.565.525" transform="translate(82.097 75.322)"/>
          <path id="Trazado_152917" data-name="Trazado 152917" d="M116.347,102.383a.567.567,0,0,1-.565-.525c-.509-6.745.723-9.281.776-9.384a.567.567,0,0,1,1.014.507c-.02.044-1.136,2.456-.658,8.792a.572.572,0,0,1-.525.609l-.042,0" transform="translate(94.566 75.354)"/>
          <path id="Trazado_152918" data-name="Trazado 152918" d="M100.493,84.064H76.764a.568.568,0,0,1,0-1.136h23.729a.568.568,0,0,1,0,1.136" transform="translate(62.301 67.804)"/>
          <path id="Trazado_152919" data-name="Trazado 152919" d="M94.8,87.421H83.728a.568.568,0,0,1,0-1.136H94.8a.568.568,0,0,1,0,1.136" transform="translate(67.995 70.549)"/>
          <path id="Trazado_152920" data-name="Trazado 152920" d="M84.552,87.421H78.21a.568.568,0,1,1,0-1.136h6.342a.568.568,0,0,1,0,1.136" transform="translate(63.481 70.549)"/>
          <path id="Trazado_152921" data-name="Trazado 152921" d="M114.807,58.2A28.956,28.956,0,1,1,85.851,29.248,28.958,28.958,0,0,1,114.807,58.2" transform="translate(46.52 23.914)" fill="#ffca28"/>
          <path id="Trazado_152922" data-name="Trazado 152922" d="M71.759,62.884V74.262s1.007,5.667,8.425,5.667,9-5.066,9-5.066l.354-11.973s-7.254,3.359-17.784-.007" transform="translate(58.672 51.416)" fill="#1a1a1a"/>
          <path id="Trazado_152923" data-name="Trazado 152923" d="M82.6,80.751H79.176a7.735,7.735,0,0,1-7.729-7.723V63.665c0-.193.007-.38.022-.569a.573.573,0,0,1,.251-.425.562.562,0,0,1,.489-.067,28.584,28.584,0,0,0,17.355.02.574.574,0,0,1,.485.067.567.567,0,0,1,.253.42c.018.184.025.369.025.554v9.363a7.737,7.737,0,0,1-7.73,7.723M72.583,63.907v9.121a6.6,6.6,0,0,0,6.593,6.589H82.6a6.6,6.6,0,0,0,6.594-6.589v-9.1a29.745,29.745,0,0,1-16.608-.018" transform="translate(58.417 51.164)"/>
          <path id="Trazado_152924" data-name="Trazado 152924" d="M89.94,90.526a29.506,29.506,0,1,1,8.992-1.4,29.35,29.35,0,0,1-8.992,1.4m0-57.913A28.393,28.393,0,1,0,118.328,61,28.424,28.424,0,0,0,89.94,32.613" transform="translate(49.394 25.738)"/>
          <path id="Trazado_152925" data-name="Trazado 152925" d="M67.721,62.173c-.318,0-.623-.009-.909-.02a.567.567,0,0,1,.025-1.134c1.739.075,4.191.007,5.8-1.4a6.262,6.262,0,0,0,.943-1.038,8.943,8.943,0,0,1-1.889-1.81,8.633,8.633,0,0,1-1.689-6.389c.1-.778.818-3.866,2.408-4.737a1.8,1.8,0,0,1,1.687-.042c1.085.507,1.5,2,1.772,2.979l.062.218a13.241,13.241,0,0,1,.5,3.712,13.061,13.061,0,0,1-1.3,5.7c2.254,1.236,5.4,1.787,9.53,1.683a18.433,18.433,0,0,0,6.018-1.034,9.925,9.925,0,0,0,4.789-3.641c-.116-.06-.229-.12-.344-.184a5.791,5.791,0,0,1-3.088-4.151,5.387,5.387,0,0,1,.533-2.941,3.642,3.642,0,0,1,2.074-2.036,2.043,2.043,0,0,1,1.885.267c1.429,1.058,1.49,3.939,1.489,4.5a9.216,9.216,0,0,1-.936,4.022c2.825,1.091,6.227,1.2,9.512,1.2a.566.566,0,1,1,0,1.132c-3.455,0-7.041-.115-10.075-1.334a10.993,10.993,0,0,1-5.44,4.224A19.47,19.47,0,0,1,84.7,61.035c-4.355.111-7.709-.494-10.15-1.847a7.351,7.351,0,0,1-1.16,1.289,8.518,8.518,0,0,1-5.666,1.7M73.292,46.55a.672.672,0,0,0-.331.093c-.942.513-1.679,2.772-1.829,3.892a7.481,7.481,0,0,0,1.461,5.544,7.826,7.826,0,0,0,1.583,1.532A11.953,11.953,0,0,0,75.3,52.505a12.109,12.109,0,0,0-.453-3.392l-.064-.224c-.2-.738-.547-1.97-1.161-2.257a.757.757,0,0,0-.329-.082m22.081.384a1.276,1.276,0,0,0-.387.065A2.638,2.638,0,0,0,93.6,48.434a4.261,4.261,0,0,0-.433,2.317,4.667,4.667,0,0,0,2.517,3.3c.118.067.24.131.362.193a8.043,8.043,0,0,0,.84-3.561c.005-1.36-.314-3.063-1.027-3.59a.774.774,0,0,0-.487-.16" transform="translate(54.184 37.133)"/>
          <path id="Trazado_152926" data-name="Trazado 152926" d="M74.013,44.889a.566.566,0,0,1-.531-.369L61.337,12.1a.567.567,0,1,1,1.061-.4L74.544,44.123a.564.564,0,0,1-.333.729.545.545,0,0,1-.2.036" transform="translate(50.122 9.268)"/>
          <path id="Trazado_152927" data-name="Trazado 152927" d="M43.27,101.978a.567.567,0,0,1-.4-.967L79.061,64.428a.568.568,0,1,1,.807.8L43.674,101.811a.571.571,0,0,1-.4.167" transform="translate(34.915 52.54)"/>
          <path id="Trazado_152928" data-name="Trazado 152928" d="M95.706,46.785a.567.567,0,0,1-.282-1.06l21.981-12.594a.568.568,0,0,1,.565.985L95.988,46.71a.564.564,0,0,1-.282.075" transform="translate(77.788 27.028)"/>
          <path id="Trazado_152929" data-name="Trazado 152929" d="M59.975,52.849h-15a.567.567,0,0,1,0-1.134h15a.567.567,0,1,1,0,1.134" transform="translate(36.307 42.284)"/>
          <path id="Trazado_152930" data-name="Trazado 152930" d="M135.692,18.545a9.273,9.273,0,1,1,9.273-9.272,9.284,9.284,0,0,1-9.273,9.272m0-17.411a8.138,8.138,0,1,0,8.137,8.139,8.147,8.147,0,0,0-8.137-8.139" transform="translate(103.363)"/>
          <path id="Trazado_152931" data-name="Trazado 152931" d="M9.274,91.907a9.273,9.273,0,1,1,9.274-9.274,9.285,9.285,0,0,1-9.274,9.274m0-17.411a8.138,8.138,0,1,0,8.139,8.137A8.146,8.146,0,0,0,9.274,74.5" transform="translate(0 59.983)"/>
          <path id="Trazado_152932" data-name="Trazado 152932" d="M185.327,39.244a.569.569,0,0,1-.484-.269c-1.131-1.838-2.359-3.632-3.657-5.338a.567.567,0,1,1,.9-.687c1.32,1.736,2.572,3.563,3.723,5.431a.566.566,0,0,1-.483.863M177.433,28.87a.563.563,0,0,1-.414-.182c-1.463-1.569-3.023-3.086-4.635-4.51a.567.567,0,1,1,.749-.851c1.641,1.447,3.228,2.99,4.717,4.588a.568.568,0,0,1-.416.954m-9.764-8.626a.566.566,0,0,1-.333-.107c-1.727-1.251-3.546-2.447-5.406-3.555a.566.566,0,0,1,.578-.974c1.89,1.125,3.739,2.341,5.495,3.612a.566.566,0,0,1-.334,1.025m-11.191-6.673a.548.548,0,0,1-.247-.058c-1.914-.925-3.91-1.8-5.933-2.59a.567.567,0,1,1,.411-1.056c2.054.8,4.077,1.687,6.016,2.626a.567.567,0,0,1-.247,1.078m-12.131-4.76a.562.562,0,0,1-.169-.025c-2.018-.625-4.121-1.2-6.251-1.714a.567.567,0,1,1,.265-1.1c2.154.518,4.281,1.1,6.324,1.734a.567.567,0,0,1-.169,1.109" transform="translate(112.417 4.867)"/>
          <path id="Trazado_152933" data-name="Trazado 152933" d="M82.749,50.248a.567.567,0,0,1-.513-.809,54.473,54.473,0,0,1,3.3-5.749.568.568,0,0,1,.956.614,55.29,55.29,0,0,0-3.234,5.616.565.565,0,0,1-.513.327M89.767,39.2a.567.567,0,0,1-.453-.909c1.32-1.741,2.719-3.455,4.162-5.093a.568.568,0,1,1,.852.751c-1.425,1.616-2.808,3.308-4.11,5.028a.565.565,0,0,1-.453.224M98.4,29.4a.567.567,0,0,1-.4-.972c1.561-1.534,3.2-3.025,4.858-4.43a.566.566,0,1,1,.731.865c-1.638,1.387-3.252,2.859-4.795,4.375a.564.564,0,0,1-.4.162m9.97-8.423a.568.568,0,0,1-.333-1.027c1.776-1.281,3.617-2.507,5.477-3.637a.567.567,0,1,1,.589.969c-1.834,1.116-3.652,2.323-5.4,3.586a.547.547,0,0,1-.331.109M119.51,14.2a.568.568,0,0,1-.256-1.074c1.948-.982,3.964-1.894,5.985-2.714a.567.567,0,0,1,.425,1.051c-1.992.809-3.979,1.709-5.9,2.676a.559.559,0,0,1-.254.062m12.08-4.9a.568.568,0,0,1-.171-1.109c2.076-.653,4.21-1.231,6.342-1.718a.562.562,0,0,1,.68.425.57.57,0,0,1-.429.68c-2.1.482-4.2,1.052-6.251,1.7a.618.618,0,0,1-.171.025m12.7-2.917a.567.567,0,0,1-.082-1.129c2.134-.32,4.33-.565,6.522-.729a.562.562,0,0,1,.609.522.568.568,0,0,1-.523.609c-2.165.164-4.331.405-6.442.72a.433.433,0,0,1-.084.007m15.712-.962c-.74-.016-1.461-.025-2.178-.025l-.531,0a.517.517,0,0,1-.573-.563.569.569,0,0,1,.565-.571l.538,0q1.085,0,2.19.025a.567.567,0,0,1-.013,1.134" transform="translate(67.195 3.481)"/>
          <path id="Trazado_152934" data-name="Trazado 152934" d="M40.415,147.922a.581.581,0,0,1-.316-.1c-1.8-1.209-3.583-2.523-5.293-3.908a.567.567,0,1,1,.714-.88c1.681,1.361,3.435,2.656,5.211,3.842a.569.569,0,0,1-.316,1.042m-10.146-8.2a.565.565,0,0,1-.394-.16c-1.569-1.51-3.1-3.112-4.537-4.755a.567.567,0,1,1,.852-.749c1.421,1.621,2.925,3.2,4.473,4.688a.568.568,0,0,1-.394.976m-8.6-9.806a.564.564,0,0,1-.456-.231c-1.3-1.763-2.539-3.6-3.679-5.453a.566.566,0,0,1,.965-.593c1.125,1.825,2.343,3.633,3.626,5.371a.568.568,0,0,1-.456.905m-6.834-11.111a.568.568,0,0,1-.507-.313c-.972-1.927-1.89-3.941-2.728-5.98a.567.567,0,1,1,1.049-.429c.827,2.01,1.732,4,2.694,5.9a.568.568,0,0,1-.253.762.559.559,0,0,1-.254.062M9.871,106.742a.572.572,0,0,1-.54-.391c-.671-2.056-1.285-4.179-1.823-6.311a.567.567,0,0,1,.413-.689.559.559,0,0,1,.687.413c.533,2.1,1.138,4.2,1.8,6.234a.57.57,0,0,1-.364.716.533.533,0,0,1-.176.027m-3.2-12.654a.568.568,0,0,1-.558-.465c-.389-2.141-.713-4.326-.963-6.5A.568.568,0,0,1,6.283,87c.245,2.145.567,4.306.952,6.422a.569.569,0,0,1-.458.66.471.471,0,0,1-.1.009" transform="translate(4.212 70.719)"/>
          <path id="Trazado_152935" data-name="Trazado 152935" d="M6.1,100.84a.6.6,0,0,1-.1-.009.567.567,0,0,1-.463-.654c.373-2.17.823-4.333,1.341-6.431a.568.568,0,0,1,1.1.271c-.513,2.072-.96,4.208-1.325,6.351a.57.57,0,0,1-.56.473M9.247,88.175a.617.617,0,0,1-.18-.027.57.57,0,0,1-.36-.718c.693-2.1,1.472-4.164,2.317-6.153a.567.567,0,1,1,1.043.444c-.831,1.959-1.6,4-2.283,6.065a.57.57,0,0,1-.538.389m5.106-12a.578.578,0,0,1-.265-.065.567.567,0,0,1-.234-.767c1.038-1.952,2.167-3.857,3.354-5.66a.568.568,0,0,1,.949.623c-1.169,1.774-2.279,3.648-3.3,5.569a.568.568,0,0,1-.5.3m7.18-10.882a.554.554,0,0,1-.356-.125.567.567,0,0,1-.085-.8,63.493,63.493,0,0,1,4.4-4.9.566.566,0,1,1,.8.8,63.053,63.053,0,0,0-4.322,4.811.561.561,0,0,1-.44.209m9.212-9.223a.566.566,0,0,1-.358-1.007A61.709,61.709,0,0,1,35.721,51.2a.567.567,0,0,1,.614.952,60.747,60.747,0,0,0-5.235,3.79.561.561,0,0,1-.356.125m10.929-7.083a.567.567,0,0,1-.258-1.072c1.907-.978,3.917-1.9,5.98-2.737a.567.567,0,1,1,.425,1.051c-2.03.825-4.012,1.732-5.887,2.7a.581.581,0,0,1-.26.062M53.748,44.05a.567.567,0,0,1-.173-1.107C55.595,42.3,57.72,41.7,59.9,41.16a.566.566,0,1,1,.273,1.1c-2.15.534-4.255,1.127-6.249,1.763a.579.579,0,0,1-.173.027m12.671-3.166a.567.567,0,0,1-.107-1.123c2.056-.393,4.231-.754,6.469-1.078a.567.567,0,0,1,.162,1.123c-2.219.32-4.38.68-6.418,1.069a.528.528,0,0,1-.105.009M79.34,39a.568.568,0,0,1-.06-1.132q3.255-.349,6.518-.605a.543.543,0,0,1,.613.52.57.57,0,0,1-.52.611q-3.25.259-6.491.6c-.02,0-.04,0-.06,0m13.02-1.06a.567.567,0,0,1-.033-1.132q3.274-.2,6.522-.354a.53.53,0,0,1,.6.54.567.567,0,0,1-.538.593q-3.242.158-6.513.354H92.36" transform="translate(4.527 29.807)"/>
        </g>
      </g>
    </g>
  </g>
</svg>
