<svg xmlns="http://www.w3.org/2000/svg" xmlns:xlink="http://www.w3.org/1999/xlink" width="146" height="146" viewBox="0 0 146 146">
  <defs>
    <clipPath id="clip-path">
      <rect id="Rectángulo_351881" data-name="Rectángulo 351881" width="146" height="114.937" fill="none"/>
    </clipPath>
    <clipPath id="clip-path-3">
      <rect id="Rectángulo_351861" data-name="Rectángulo 351861" width="18.571" height="35.55" transform="translate(63.864 47.343)" fill="none"/>
    </clipPath>
    <clipPath id="clip-path-4">
      <rect id="Rectángulo_351866" data-name="Rectángulo 351866" width="14.326" height="19.384" transform="translate(45.172 63.509)" fill="none"/>
    </clipPath>
    <clipPath id="clip-path-5">
      <rect id="Rectángulo_351871" data-name="Rectángulo 351871" width="18.934" height="31.237" transform="translate(110.317 51.826)" fill="none"/>
    </clipPath>
    <clipPath id="clip-path-6">
      <rect id="Rectángulo_351876" data-name="Rectángulo 351876" width="7.541" height="14.937" transform="translate(101.67 36.889)" fill="none"/>
    </clipPath>
    <clipPath id="clip-path-7">
      <rect id="Rectángulo_351878" data-name="Rectángulo 351878" width="43.125" height="44.714" transform="translate(102.875 70.219)" fill="none"/>
    </clipPath>
  </defs>
  <g id="Grupo_1025428" data-name="Grupo 1025428" transform="translate(11257 9926)">
    <rect id="Rectángulo_351100" data-name="Rectángulo 351100" width="146" height="146" transform="translate(-11257 -9926)" fill="none"/>
    <g id="Grupo_1012822" data-name="Grupo 1012822" transform="translate(-11257 -9910)">
      <g id="Grupo_1012821" data-name="Grupo 1012821" clip-path="url(#clip-path)">
        <g id="Grupo_1012820" data-name="Grupo 1012820">
          <g id="Grupo_1012819" data-name="Grupo 1012819" clip-path="url(#clip-path)">
            <path id="Trazado_730666" data-name="Trazado 730666" d="M49.878,94.744a8.188,8.188,0,1,1-8.187-8.19,8.187,8.187,0,0,1,8.187,8.19" fill="#414042"/>
            <path id="Trazado_730667" data-name="Trazado 730667" d="M137.433,94.744a8.188,8.188,0,1,1-8.187-8.19,8.187,8.187,0,0,1,8.187,8.19" fill="#414042"/>
            <rect id="Rectángulo_351856" data-name="Rectángulo 351856" width="128.772" height="4.695" transform="translate(16.345 83.063)" fill="#787878"/>
            <path id="Trazado_730668" data-name="Trazado 730668" d="M22.937,86.539a1.445,1.445,0,0,1-1.444-1.446V28.842a11.543,11.543,0,0,0-4.06-8.795L2.17,7.036a1.445,1.445,0,0,1,1.875-2.2L19.306,17.847a14.424,14.424,0,0,1,5.077,10.995V85.093a1.445,1.445,0,0,1-1.446,1.446" fill="#787878"/>
            <path id="Trazado_730669" data-name="Trazado 730669" d="M14.024,19.163a3.9,3.9,0,0,1-2.542-.936L1.376,9.613A3.921,3.921,0,0,1,6.463,3.646l10.1,8.615a3.918,3.918,0,0,1-2.543,6.9" fill="#0082aa"/>
            <path id="Trazado_730670" data-name="Trazado 730670" d="M41.691,87.758H33.5l4.7,6.985h6.984l4.7-6.985Z" fill="#b4b4b4"/>
            <path id="Trazado_730671" data-name="Trazado 730671" d="M45.182,94.744a3.492,3.492,0,1,1-3.491-3.494,3.491,3.491,0,0,1,3.491,3.494" fill="#787878"/>
            <path id="Trazado_730672" data-name="Trazado 730672" d="M129.246,87.758h-8.189l4.7,6.985h6.984l4.7-6.985Z" fill="#b4b4b4"/>
            <path id="Trazado_730673" data-name="Trazado 730673" d="M132.737,94.744a3.492,3.492,0,1,1-3.491-3.494,3.489,3.489,0,0,1,3.491,3.494" fill="#787878"/>
            <rect id="Rectángulo_351857" data-name="Rectángulo 351857" width="24.381" height="24.021" transform="translate(79.196 59.042)" fill="#91b3fa"/>
            <rect id="Rectángulo_351858" data-name="Rectángulo 351858" width="37.138" height="35.542" transform="translate(45.292 47.348)" fill="#7aa0e2"/>
            <rect id="Rectángulo_351859" data-name="Rectángulo 351859" width="8.865" height="3.444" transform="translate(59.428 47.347)" fill="#91b3fa"/>
            <g id="Grupo_1012806" data-name="Grupo 1012806" opacity="0.15" style="mix-blend-mode: screen;isolation: isolate">
              <g id="Grupo_1012805" data-name="Grupo 1012805">
                <g id="Grupo_1012804" data-name="Grupo 1012804" clip-path="url(#clip-path-3)">
                  <rect id="Rectángulo_351860" data-name="Rectángulo 351860" width="18.571" height="35.55" transform="translate(63.864 47.343)" fill="#7aa0e2"/>
                </g>
              </g>
            </g>
            <rect id="Rectángulo_351862" data-name="Rectángulo 351862" width="13.112" height="6.585" transform="translate(66.874 71.76)" fill="#f4f4f4"/>
            <rect id="Rectángulo_351863" data-name="Rectángulo 351863" width="28.655" height="19.384" transform="translate(30.843 63.509)" fill="#91b3fa"/>
            <rect id="Rectángulo_351864" data-name="Rectángulo 351864" width="4.816" height="2.649" transform="translate(42.763 63.51)" fill="#7aa0e2"/>
            <g id="Grupo_1012809" data-name="Grupo 1012809" opacity="0.25" style="mix-blend-mode: screen;isolation: isolate">
              <g id="Grupo_1012808" data-name="Grupo 1012808">
                <g id="Grupo_1012807" data-name="Grupo 1012807" clip-path="url(#clip-path-4)">
                  <rect id="Rectángulo_351865" data-name="Rectángulo 351865" width="14.326" height="19.384" transform="translate(45.172 63.509)" fill="#91b3fa"/>
                </g>
              </g>
            </g>
            <rect id="Rectángulo_351867" data-name="Rectángulo 351867" width="7.044" height="5.72" transform="translate(33.07 66.158)" fill="#f4f4f4"/>
            <rect id="Rectángulo_351868" data-name="Rectángulo 351868" width="37.869" height="31.237" transform="translate(91.382 51.826)" fill="#7aa0e2"/>
            <rect id="Rectángulo_351869" data-name="Rectángulo 351869" width="6.748" height="3.149" transform="translate(106.944 51.826)" fill="#91b3fa"/>
            <g id="Grupo_1012812" data-name="Grupo 1012812" opacity="0.15" style="mix-blend-mode: screen;isolation: isolate">
              <g id="Grupo_1012811" data-name="Grupo 1012811">
                <g id="Grupo_1012810" data-name="Grupo 1012810" clip-path="url(#clip-path-5)">
                  <rect id="Rectángulo_351870" data-name="Rectángulo 351870" width="18.934" height="31.237" transform="translate(110.317 51.826)" fill="#7aa0e2"/>
                </g>
              </g>
            </g>
            <rect id="Rectángulo_351872" data-name="Rectángulo 351872" width="12.85" height="7.154" transform="translate(113.36 73.201)" fill="#fff"/>
            <rect id="Rectángulo_351873" data-name="Rectángulo 351873" width="15.08" height="14.937" transform="translate(94.131 36.889)" fill="#91b3fa"/>
            <rect id="Rectángulo_351874" data-name="Rectángulo 351874" width="3.212" height="1.324" transform="translate(100.064 36.889)" fill="#7aa0e2"/>
            <g id="Grupo_1012815" data-name="Grupo 1012815" opacity="0.25" style="mix-blend-mode: screen;isolation: isolate">
              <g id="Grupo_1012814" data-name="Grupo 1012814">
                <g id="Grupo_1012813" data-name="Grupo 1012813" clip-path="url(#clip-path-6)">
                  <rect id="Rectángulo_351875" data-name="Rectángulo 351875" width="7.541" height="14.937" transform="translate(101.67 36.889)" fill="#91b3fa"/>
                </g>
              </g>
            </g>
            <path id="Trazado_730674" data-name="Trazado 730674" d="M102.814,59.967c9.771,0,16.877-14.213,19.1-25.763S123.024,4,102.814,4s-21.321,18.656-19.1,30.2,9.328,25.763,19.1,25.763" fill="#ffdab9"/>
            <path id="Trazado_730675" data-name="Trazado 730675" d="M83.715,34.2a45.465,45.465,0,0,1-.759-6.29c-.035-.093-.056-.152-.056-.152-1.3-1.666-6.514-2.329-4.182,6.219s5.527,10.188,6.817,7.092a53.077,53.077,0,0,1-1.82-6.869" fill="#ffdab9"/>
            <path id="Trazado_730676" data-name="Trazado 730676" d="M121.824,34.2a45.63,45.63,0,0,0,.756-6.29c.035-.093.055-.152.055-.152,1.3-1.666,6.518-2.329,4.185,6.219S121.29,44.169,120,41.073a53.573,53.573,0,0,0,1.821-6.869" fill="#ffe4c3"/>
            <path id="Trazado_730677" data-name="Trazado 730677" d="M102.814,58.635c-3.387,0-6.452-1.709-9.106-4.421v18.3l9.168,7.89,9.044-7.89v-18.3c-2.656,2.712-5.719,4.421-9.106,4.421" fill="#ffdab9"/>
            <path id="Trazado_730678" data-name="Trazado 730678" d="M121.915,34.2c2.22-11.549,1.109-30.2-19.1-30.2V59.967c9.771,0,16.878-14.213,19.1-25.763" fill="#ffe4c3"/>
            <path id="Trazado_730679" data-name="Trazado 730679" d="M115.807,6.5c0,3.59-5.817,6.5-12.993,6.5S89.82,10.087,89.82,6.5,95.637,0,102.814,0s12.993,2.909,12.993,6.5" fill="#965000"/>
            <path id="Trazado_730680" data-name="Trazado 730680" d="M92.259,10.541c-2.68.429-4.343,3.25-5.385,6.71-.025.064-.038.13-.064.195a44.26,44.26,0,0,0-1.43,8.6c-.027.416-.052.832-.078,1.223v.051c-.17,2.718-.131,4.669-.131,4.669h-1.82a13.149,13.149,0,0,0-.651-3.472c-.025-.078-.052-.143-.077-.209a3.937,3.937,0,0,0-.43-.818c-.8-1.158-1.7-.742-1.7-.742-.064-.559-.116-1.118-.17-1.652v-.026l.613-3.536-.793-.65C80.152,6.522,87.5,4.091,90.19,5.73Z" fill="#965000"/>
            <path id="Trazado_730681" data-name="Trazado 730681" d="M138.343,77.731,118.8,71.073l-6.773-3.888-5.451,4.135-.064.13-2,4.241h-3.387L98.981,71.45l-.065-.13-5.19-4.135-6.773,3.888L67.408,77.731l-7.659,37.2H146Z" fill="#0082aa"/>
            <path id="Trazado_730682" data-name="Trazado 730682" d="M124.675,21.529l.638,3.758c-.039.48-.091.963-.143,1.456,0,0-.911-.416-1.7.768a3.41,3.41,0,0,0-.429.819c-.027.064-.052.13-.079.208a13.268,13.268,0,0,0-.636,3.446H120.5s.037-1.938-.118-4.643c0-.012-.011-.038-.011-.052-.015-.39-.053-.793-.079-1.208a44.713,44.713,0,0,0-1.431-8.6.88.88,0,0,0-.066-.207c-1.04-3.471-2.7-6.307-5.4-6.736L115.47,5.73c2.7-1.639,10.025.792,10.052,15.1Z" fill="#965000"/>
            <path id="Trazado_730683" data-name="Trazado 730683" d="M67.389,77.736l2.22,37.2H59.727Z" fill="#008cb4"/>
            <path id="Trazado_730684" data-name="Trazado 730684" d="M138.314,77.736l-2.218,37.2h9.883Z" fill="#008cb4"/>
            <path id="Trazado_730685" data-name="Trazado 730685" d="M98.912,71.318l-5.989-4.892-5.989,4.258,7.284,7.947Z" fill="#0096be"/>
            <path id="Trazado_730686" data-name="Trazado 730686" d="M111.92,55.546c-2.656,2.713-5.72,4.421-9.106,4.421s-6.452-1.708-9.106-4.421V58.19c2.654,2.713,5.719,4.421,9.106,4.421s6.45-1.708,9.106-4.421Z" fill="#f5c8aa"/>
            <rect id="Rectángulo_351877" data-name="Rectángulo 351877" width="3.349" height="15.369" transform="translate(101.128 75.691)" fill="#0096be"/>
            <g id="Grupo_1012818" data-name="Grupo 1012818" opacity="0.15" style="mix-blend-mode: screen;isolation: isolate">
              <g id="Grupo_1012817" data-name="Grupo 1012817">
                <g id="Grupo_1012816" data-name="Grupo 1012816" clip-path="url(#clip-path-7)">
                  <path id="Trazado_730687" data-name="Trazado 730687" d="M106.574,71.32l-.064.13-2,4.241h-1.64v39.242H146l-7.657-37.2L118.8,71.073l-1.486-.854h-9.286Z" fill="#0082aa"/>
                </g>
              </g>
            </g>
            <path id="Trazado_730688" data-name="Trazado 730688" d="M103.464,78.52a.649.649,0,1,1-.65-.651.651.651,0,0,1,.65.651" fill="#fff"/>
            <path id="Trazado_730689" data-name="Trazado 730689" d="M103.464,83.374a.649.649,0,1,1-.65-.65.65.65,0,0,1,.65.65" fill="#fff"/>
            <path id="Trazado_730690" data-name="Trazado 730690" d="M103.464,88.232a.649.649,0,1,1-.65-.651.651.651,0,0,1,.65.651" fill="#fff"/>
            <path id="Trazado_730691" data-name="Trazado 730691" d="M106.588,71.318l5.99-4.892,5.988,4.258-7.282,7.947Z" fill="#00a0c8"/>
            <rect id="Rectángulo_351879" data-name="Rectángulo 351879" width="13.232" height="7.043" transform="translate(76.303 94.06)" fill="#0096be"/>
          </g>
        </g>
      </g>
    </g>
  </g>
</svg>
