<svg xmlns="http://www.w3.org/2000/svg" xmlns:xlink="http://www.w3.org/1999/xlink" width="146" height="146" viewBox="0 0 146 146">
  <defs>
    <clipPath id="clip-path">
      <rect id="Rectángulo_351775" data-name="Rectángulo 351775" width="133.96" height="146" fill="none"/>
    </clipPath>
  </defs>
  <g id="Grupo_1025427" data-name="Grupo 1025427" transform="translate(-727 -1337)">
    <rect id="Rectángulo_351088" data-name="Rectángulo 351088" width="146" height="146" transform="translate(727 1337)" fill="none"/>
    <g id="Grupo_1012776" data-name="Grupo 1012776" transform="translate(733 1337)">
      <g id="Grupo_1012775" data-name="Grupo 1012775" clip-path="url(#clip-path)">
        <path id="Trazado_730619" data-name="Trazado 730619" d="M27.56,140.846A5.155,5.155,0,1,1,22.4,135.69a5.153,5.153,0,0,1,5.156,5.156" fill="#0082aa"/>
        <rect id="Rectángulo_351760" data-name="Rectángulo 351760" width="0.898" height="1.795" transform="translate(22.404 139.947)" fill="#0082aa"/>
        <path id="Trazado_730620" data-name="Trazado 730620" d="M35.214,141.742H33.227v-1.795h1.987Zm-3.971,0H29.258v-1.795h1.985Zm-3.972,0H25.286v-1.795h1.985Z" fill="#0082aa"/>
        <rect id="Rectángulo_351761" data-name="Rectángulo 351761" width="1.795" height="1.795" transform="translate(37.199 139.947)" fill="#0082aa"/>
        <path id="Trazado_730621" data-name="Trazado 730621" d="M38.994,138.128H37.2v-1.822h1.795Zm0-3.641H37.2v-1.822h1.795Zm0-3.643H37.2v-1.82h1.795Zm0-3.642H37.2v-1.82h1.795Zm0-3.639H37.2v-1.822h1.795Zm0-3.644H37.2V118.1h1.795Zm0-3.641H37.2v-1.822h1.795Zm0-3.641H37.2v-1.82h1.795Zm0-3.641H37.2v-1.822h1.795Z" fill="#0082aa"/>
        <rect id="Rectángulo_351762" data-name="Rectángulo 351762" width="1.795" height="1.792" transform="translate(37.199 103.562)" fill="#0082aa"/>
        <path id="Trazado_730622" data-name="Trazado 730622" d="M75.073,105.354H73.268v-1.792h1.805Zm-3.61,0h-1.8v-1.792h1.8Zm-3.606,0H66.052v-1.792h1.805Zm-3.61,0h-1.8v-1.792h1.8Zm-3.608,0h-1.8v-1.792h1.8Zm-3.606,0H55.228v-1.792h1.805Zm-3.61,0h-1.8v-1.792h1.8Zm-3.608,0h-1.8v-1.792h1.8Zm-3.606,0H44.4v-1.792h1.805Zm-3.61,0H40.8v-1.792h1.8Z" fill="#0082aa"/>
        <rect id="Rectángulo_351763" data-name="Rectángulo 351763" width="1.792" height="1.792" transform="translate(76.876 103.562)" fill="#0082aa"/>
        <path id="Trazado_730623" data-name="Trazado 730623" d="M78.668,101.625H76.876V99.69h1.792Zm0-3.867H76.876V95.821h1.792Zm0-3.871H76.876V91.955h1.792Zm0-3.869H76.876V88.083h1.792Z" fill="#0082aa"/>
        <rect id="Rectángulo_351764" data-name="Rectángulo 351764" width="1.792" height="1.795" transform="translate(76.876 84.356)" fill="#0082aa"/>
        <path id="Trazado_730624" data-name="Trazado 730624" d="M75.123,86.151H73.372V84.356h1.751Zm-3.5,0H69.866V84.356h1.753Zm-3.505,0H66.361V84.356h1.753Zm-3.506,0H62.855V84.356h1.753Zm-3.505,0H59.35V84.356H61.1Z" fill="#0082aa"/>
        <rect id="Rectángulo_351765" data-name="Rectángulo 351765" width="1.792" height="1.795" transform="translate(55.805 84.356)" fill="#0082aa"/>
        <path id="Trazado_730625" data-name="Trazado 730625" d="M57.6,82.5H55.805V80.642H57.6Zm0-3.714H55.805V76.928H57.6Zm0-3.715H55.805V73.213H57.6Z" fill="#0082aa"/>
        <rect id="Rectángulo_351766" data-name="Rectángulo 351766" width="1.792" height="1.792" transform="translate(55.805 69.564)" fill="#0082aa"/>
        <path id="Trazado_730626" data-name="Trazado 730626" d="M116.287,71.356h-1.834V69.564h1.834Zm-3.667,0h-1.836V69.564h1.836Zm-3.668,0h-1.834V69.564h1.834Zm-3.669,0h-1.834V69.564h1.834Zm-3.668,0H99.781V69.564h1.834Zm-3.669,0H96.112V69.564h1.834Zm-3.668,0H92.446V69.564h1.832Zm-3.667,0H88.777V69.564h1.834Zm-3.668,0H85.109V69.564h1.834Zm-3.669,0H81.44V69.564h1.834Zm-3.668,0H77.772V69.564h1.834Zm-3.666,0H74.1V69.564H75.94Zm-3.669,0H70.437V69.564h1.834Zm-3.668,0H66.769V69.564H68.6Zm-3.669,0H63.1V69.564h1.834Zm-3.666,0H59.432V69.564h1.836Z" fill="#0082aa"/>
        <rect id="Rectángulo_351767" data-name="Rectángulo 351767" width="1.792" height="1.792" transform="translate(118.121 69.564)" fill="#0082aa"/>
        <path id="Trazado_730627" data-name="Trazado 730627" d="M119.913,67.811h-1.792V66.056h1.792Zm0-3.506h-1.792V62.552h1.792Zm0-3.505h-1.792V59.047h1.792Zm0-3.5h-1.792V55.541h1.792Zm0-3.508h-1.792V52.035h1.792Z" fill="#0082aa"/>
        <rect id="Rectángulo_351768" data-name="Rectángulo 351768" width="1.792" height="0.896" transform="translate(118.121 49.389)" fill="#0082aa"/>
        <path id="Trazado_730628" data-name="Trazado 730628" d="M119.017,41.812a37.949,37.949,0,0,0,5.971,10.732l-5.971-2.16-5.969,2.16a37.9,37.9,0,0,0,5.969-10.732" fill="#0082aa"/>
        <path id="Trazado_730629" data-name="Trazado 730629" d="M44.81,99.975c0,12.374-22.406,31.372-22.406,31.372S0,112.349,0,99.975a22.405,22.405,0,0,1,44.81,0" fill="#f06400"/>
        <path id="Trazado_730630" data-name="Trazado 730630" d="M36.228,97.652A13.823,13.823,0,1,1,22.4,83.833,13.824,13.824,0,0,1,36.228,97.652" fill="#fff"/>
        <path id="Trazado_730631" data-name="Trazado 730631" d="M133.96,14.943c0,8.252-14.943,20.925-14.943,20.925s-14.944-12.673-14.944-20.925a14.944,14.944,0,0,1,29.887,0" fill="#00b4c8"/>
        <path id="Trazado_730632" data-name="Trazado 730632" d="M128.236,13.393a9.219,9.219,0,1,1-9.219-9.217,9.22,9.22,0,0,1,9.219,9.217" fill="#fff"/>
        <path id="Rectángulo_351769" data-name="Rectángulo 351769" d="M1.794,0H52.305A1.793,1.793,0,0,1,54.1,1.793V24.657a1.793,1.793,0,0,1-1.793,1.793H1.794A1.794,1.794,0,0,1,0,24.656V1.794A1.794,1.794,0,0,1,1.794,0Z" transform="translate(23.824 36.163)" fill="#91b3fa"/>
        <path id="Trazado_730633" data-name="Trazado 730633" d="M72.841,42.349H28.905a.9.9,0,1,1,0-1.792H72.841a.9.9,0,0,1,0,1.792" fill="#787878"/>
        <path id="Trazado_730634" data-name="Trazado 730634" d="M72.841,47.64H28.905a.9.9,0,1,1,0-1.792H72.841a.9.9,0,0,1,0,1.792" fill="#787878"/>
        <path id="Trazado_730635" data-name="Trazado 730635" d="M72.841,52.93H28.905a.9.9,0,0,1,0-1.8H72.841a.9.9,0,0,1,0,1.8" fill="#787878"/>
        <path id="Trazado_730636" data-name="Trazado 730636" d="M72.841,58.219H28.905a.9.9,0,0,1,0-1.792H72.841a.9.9,0,0,1,0,1.792" fill="#787878"/>
        <path id="Rectángulo_351770" data-name="Rectángulo 351770" d="M1.792,0H45.486a1.795,1.795,0,0,1,1.795,1.795V24.657a1.793,1.793,0,0,1-1.793,1.793H1.794A1.794,1.794,0,0,1,0,24.656V1.792A1.792,1.792,0,0,1,1.792,0Z" transform="translate(65.456 111.219)" fill="#91b3fa"/>
        <path id="Trazado_730637" data-name="Trazado 730637" d="M108.1,117.4H70.09a.905.905,0,0,1,0-1.792H108.1a.906.906,0,0,1,0,1.792" fill="#787878"/>
        <path id="Trazado_730638" data-name="Trazado 730638" d="M108.1,122.7H70.09a.907.907,0,0,1,0-1.795H108.1a.907.907,0,0,1,0,1.795" fill="#787878"/>
        <path id="Trazado_730639" data-name="Trazado 730639" d="M108.1,127.984H70.09a.905.905,0,0,1,0-1.792H108.1a.906.906,0,0,1,0,1.792" fill="#787878"/>
        <path id="Trazado_730640" data-name="Trazado 730640" d="M108.1,133.275H70.09a.907.907,0,0,1,0-1.795H108.1a.907.907,0,0,1,0,1.795" fill="#787878"/>
        <rect id="Rectángulo_351771" data-name="Rectángulo 351771" width="19.498" height="15.871" transform="translate(87.86 48.536)" fill="#c8c8c8"/>
        <rect id="Rectángulo_351772" data-name="Rectángulo 351772" width="10.611" height="22.648" transform="translate(83.301 78.977)" fill="#c8c8c8"/>
        <rect id="Rectángulo_351773" data-name="Rectángulo 351773" width="19.391" height="7.174" transform="translate(99.626 78.977)" fill="#c8c8c8"/>
        <rect id="Rectángulo_351774" data-name="Rectángulo 351774" width="11.476" height="20.674" transform="translate(45.492 113.497)" fill="#c8c8c8"/>
      </g>
    </g>
  </g>
</svg>
