<svg id="Grupo_1025445" data-name="Grupo 1025445" xmlns="http://www.w3.org/2000/svg" xmlns:xlink="http://www.w3.org/1999/xlink" width="155.514" height="144.915" viewBox="0 0 155.514 144.915">
  <defs>
    <clipPath id="clip-path">
      <rect id="Rectángulo_361313" data-name="Rectángulo 361313" width="155.514" height="144.915" fill="none"/>
    </clipPath>
  </defs>
  <g id="Grupo_1025445-2" data-name="Grupo 1025445" clip-path="url(#clip-path)">
    <path id="Trazado_765370" data-name="Trazado 765370" d="M141.441,0A3.9,3.9,0,0,0,143.3.96c1.945.625,2.717,2.182,3.622,3.686.511.85.025,1.863.669,2.648-.237,1.587.168,3.164-.445,4.827-.285.771-.233,2.05-.561,2.985-1.08,3.078-3.964,4.114-6.963,4.15-12.133.146-24.27-.034-36.4.111-3.559.043-7.789-3.688-7.48-7a49.175,49.175,0,0,0-.029-5.12,11.91,11.91,0,0,1,.475-2.738C97.339,2.088,99.417.842,101.923,0Zm-19.88,4.831c-5.938,0-11.876-.011-17.814.006-1.86.005-2.748.84-2.787,2.573-.032,1.408-.02,2.817-.006,4.225.021,2.1.841,2.846,3.147,2.851q6.478.013,12.956,0,11.012,0,22.025,0c1.923,0,2.547-.54,3.055-2.113a10.933,10.933,0,0,0,.213-4.61c-.233-2.18-.837-2.946-3.623-2.938-5.722.017-11.444.005-17.166.006" transform="translate(-64.64)"/>
    <path id="Trazado_765371" data-name="Trazado 765371" d="M376.486,221.04a4.982,4.982,0,0,0-1.77,1.187c-2.645,2.488-5.274,4.993-7.983,7.42-1.077.965-2.162,2.054-3.879,2-2.463-.016-4.927,0-7.388-.063a2.685,2.685,0,0,0-2.1.8c-1.852,1.77-3.77,3.48-5.662,5.213-.385.407-.743.84-1.161,1.216-3.221,2.9-6.617,5.637-9.605,8.76q-2.587,2.363-5.174,4.726c-1.344,1.23-2.6,1.415-3.607.526-1.307-1.159-1.271-2.587.107-3.907q2.415-2.311,4.839-4.613l11.328-10.528q2.871-2.608,5.747-5.211a1.285,1.285,0,0,0,.4-1.081c-.027-2.446-.038-4.891-.055-7.337a3.611,3.611,0,0,1,1.434-3.012c3.133-2.839,6.2-5.74,9.282-8.629.831-.779,1.691-1.4,2.947-.881a2.733,2.733,0,0,1,1.948,2.767c-.044,1.91.03,3.822-.031,5.731-.025.79.221,1.03,1.074,1,1.832-.06,3.677.083,5.5-.047a3.941,3.941,0,0,1,3.811,1.84Zm-17.4,5.654c1.449,0,2.728.369,3.319-.069a59.677,59.677,0,0,0,4.959-4.487c-1.273.025-2.483-.641-3.444.2-1.555,1.361-3.07,2.762-4.835,4.357m1.734-11.014c-2.015,2.492-5.9,3.463-4.87,7.722,1.6-2.719,5.669-3.541,4.87-7.722" transform="translate(-220.972 -144.674)"/>
    <path id="Trazado_765372" data-name="Trazado 765372" d="M36.774,23.942h5.081a49.173,49.173,0,0,1,.029,5.12c-.309,3.315,3.92,7.045,7.479,7,12.133-.145,24.27.034,36.4-.111,3-.036,5.883-1.073,6.963-4.15.328-.934.276-2.213.561-2.985.614-1.663.209-3.24.445-4.827l5.134-.049c.434,1.91,1.067,2.408,3.153,2.411,4.636.008,9.271,0,13.907,0,2.784,0,3.719.886,3.719,3.521q0,23.28,0,46.559c0,2.108.529,2.721,2.589,3.088q0,2.518,0,5.035c-1.618.012-3.227-.083-4.857-.022a48.447,48.447,0,0,0-8.6,1.218,38.89,38.89,0,0,0-17,8.56c-.22-.046-.3.081-.357.244a14.413,14.413,0,0,0-4.243,4.846l-.249.239-.338.362c-.438.011-.635.231-.628.629-1.352.94-1.441,2.61-2.6,3.737-1.884,1.841-2.009,4.54-3.242,6.729a1.634,1.634,0,0,0-.321,1.261q0,.161-.005.322c-.143.622-.825.514-1.173.723.173.445.542.9.45,1.244a36.022,36.022,0,0,0-.614,3.916,34.848,34.848,0,0,0,.853,13.721c1.428,5.84,4.6,10.929,8.447,15.592,2.751,3.335,6.542,5.732,10.23,8.15,2.072,1.358,4.533,1.979,6.739,3.082l-8.365.049c-.727-1.918-1.469-2.413-3.654-2.413q-36.6,0-73.2,0c-2.837,0-3.521-.633-3.521-3.245q0-15.393,0-30.787,0-46.482-.032-92.963c0-2.178.646-3.523,3.715-3.432,4.53.133,9.068.038,13.6.033,2.017,0,2.779-.537,3.493-2.412m-2.829,41.05c3.292,0,6.583.01,9.875,0,2.14-.009,3.264-1.049,3.267-3.039q.017-9.051,0-18.1c0-1.894-1.147-2.991-3.148-3q-9.956-.023-19.912,0c-1.959,0-2.836.817-2.841,2.659q-.027,9.429,0,18.857c.006,1.819.9,2.61,2.882,2.62,3.292.017,6.583,0,9.876.005M21.178,139.859c0,3.067-.011,6.135,0,9.2.01,2.114.821,2.855,3.122,2.857q9.714.011,19.427,0c2.255,0,3.355-1.019,3.358-3.107q.013-8.976,0-17.952c0-2.018-1.1-3.077-3.221-3.081q-9.875-.019-19.751,0c-2.063,0-2.92.8-2.933,2.727-.021,3.118-.006,6.235-.006,9.353m0-58c0,3.118-.014,6.235.005,9.353.012,1.944.858,2.748,2.907,2.752q9.876.019,19.751,0c2.138,0,3.243-1.049,3.246-3.058q.016-8.976,0-17.952c0-2.092-1.1-3.127-3.332-3.13q-9.794-.013-19.589,0c-2.156,0-2.976.783-2.986,2.831-.016,3.067,0,6.135,0,9.2m0,29.02c0,3.118-.016,6.235.006,9.353.014,1.926.866,2.705,2.952,2.709q9.876.017,19.751,0c2.037,0,3.193-1.07,3.2-2.95q.022-9.127,0-18.254c0-1.873-1.167-2.93-3.214-2.934q-9.875-.019-19.751,0c-2.067,0-2.925.8-2.938,2.723-.021,3.118-.006,6.235-.006,9.353m62.2-55.545H64.27c-3.13,0-6.261-.022-9.391.014A2.349,2.349,0,0,0,52.3,58.075c.163,1.372,1.143,2.084,2.962,2.084q27.93.008,55.86,0a6.729,6.729,0,0,0,.809-.013,3.022,3.022,0,0,0,2.528-2.352,2.929,2.929,0,0,0-2.583-2.452,12.815,12.815,0,0,0-1.294-.012h-27.2m5.031,19.318q-11.414,0-22.828,0c-1.8,0-2.778.736-2.919,2.126-.167,1.649.875,2.692,2.792,2.693q22.91.016,45.819.007a5.42,5.42,0,0,0,.647-.011,3.035,3.035,0,0,0,2.537-2.345,2.918,2.918,0,0,0-2.573-2.46,12.469,12.469,0,0,0-1.294-.013H88.406M88.273,50.5H105.92c1.889,0,3.778.029,5.666-.01a2.954,2.954,0,0,0,2.868-2.339c.051-1.179-1.374-2.406-2.889-2.477-.377-.018-.755,0-1.133,0H78.053c-4.21,0-8.419-.013-12.629.008-1.9.009-2.947,1.071-2.763,2.718.154,1.376,1.137,2.1,2.945,2.1q11.333.012,22.667,0M72.839,84.309q-8.661,0-17.322,0c-2.226,0-3.254.789-3.233,2.447.02,1.593,1.04,2.378,3.144,2.379q17.484.007,34.968,0c1.8,0,3.292-1.077,3.327-2.372.036-1.33-1.505-2.452-3.4-2.454q-8.742-.008-17.484,0m-6.582,62.783c3.777,0,7.554.009,11.33,0,1.689-.006,3.134-1.1,3.178-2.357.046-1.295-1.451-2.463-3.223-2.465q-11.169-.013-22.337,0c-1.935,0-2.935.859-2.923,2.431.012,1.552,1.023,2.384,2.967,2.39,3.669.012,7.338,0,11.007,0m-2.445-33.806c-2.859,0-5.718-.01-8.577,0-1.935.009-2.948.85-2.951,2.4s1.006,2.414,2.937,2.417q8.577.017,17.154,0c1.77,0,3.265-1.182,3.209-2.478-.055-1.258-1.5-2.337-3.194-2.344-2.859-.013-5.718,0-8.577,0m6.4-4.835v.005c1.672,0,3.344.025,5.016-.008,1.542-.03,2.954-1.218,2.949-2.414s-1.42-2.387-2.963-2.4q-5.016-.039-10.031.007a2.4,2.4,0,1,0,.015,4.8c1.671.039,3.344.008,5.015.008m-1.39,28.973v.009c1.294,0,2.59.031,3.882-.008,1.509-.045,2.934-1.3,2.88-2.477a2.944,2.944,0,0,0-2.869-2.334c-2.534-.034-5.069-.037-7.6.009a2.4,2.4,0,1,0-.012,4.791c1.238.046,2.48.009,3.72.009" transform="translate(-10.78 -16.697)" fill="#e8e8e8"/>
    <path id="Trazado_765373" data-name="Trazado 765373" d="M277.6,260.368c1.892-1.733,3.811-3.443,5.662-5.213a2.683,2.683,0,0,1,2.1-.8c2.462.062,4.925.047,7.388.063a6.353,6.353,0,0,0,1.872,2.608c-1.99,1.111-2.244,1.942-1.311,4.056a31.467,31.467,0,0,1,.1,24.952c-.169.05-.31.118-.24.322l-.5,1.3-.807,1.315a20.633,20.633,0,0,1-4.606,6.232c-.209-.058-.283.009-.221.2l-.432.883-1.428,1.3a.242.242,0,0,0-.116.107l-.723.71-2.912,2.233c-.217-.08-.282.057-.337.207-10.4,6.686-21.524,8.68-33.606,4.545-.068-.153-.138-.3-.37-.239-.889.068-1.378-.714-2.135-.888a20.575,20.575,0,0,1-6.6-3.305,33.272,33.272,0,0,1-5.98-5.259,33.727,33.727,0,0,1-6.035-8.7l-.239-.325a32.536,32.536,0,0,1-1.895-20.444,29.648,29.648,0,0,1,4.148-9.753l.257-.315a44.57,44.57,0,0,1,3.908-5.077l.649-.606a40.453,40.453,0,0,1,9.392-6.638,2.2,2.2,0,0,0,1.3-.606c2.222-.814,4.376-1.976,6.681-2.36a50.624,50.624,0,0,1,10.521-.75,41.694,41.694,0,0,1,12.465,2.433c1.627.585,3.14.51,4.2-1.413a4.411,4.411,0,0,0,2.671,1.778c.017,2.446.029,4.892.056,7.337a1.286,1.286,0,0,1-.4,1.081q-2.884,2.595-5.747,5.21c-.706-.11-1.076-.709-1.663-.993.576-1.8.188-2.722-1.709-3.512a29.66,29.66,0,0,0-13.5-2.283,25.806,25.806,0,0,0-17.126,7.848,21.222,21.222,0,0,0-6.025,10.983,22.851,22.851,0,0,0,1.541,14.761c-.063.2.073.271.245.316a22.7,22.7,0,0,0,8.4,9.645c.055.15.118.286.335.206a24.135,24.135,0,0,0,11.759,4.247c6.432.585,12.578-.511,17.879-4.259,6.809-4.814,10.872-11.013,10.879-19.191.464-.222.291-.593.252-.933-.253-3.377-.609-6.707-2.472-9.756-.939-1.537-2.142-2.215-3.9-1.7-.608-.458-.575-1.495-1.619-1.558" transform="translate(-150.871 -167.437)" fill="#fe7062"/>
    <path id="Trazado_765374" data-name="Trazado 765374" d="M236.71,294.265c12.082,4.136,23.209,2.141,33.606-4.545l.337-.207,2.912-2.233c.162.219.362.338.624.147a.521.521,0,0,0,.1-.857.241.241,0,0,1,.117-.107c1.057.123,1.982.12,1.428-1.3l.433-.883a.422.422,0,0,0,.221-.205,20.638,20.638,0,0,0,4.607-6.232c1.259.089.845-.713.806-1.315l.5-1.3.241-.322a31.47,31.47,0,0,0-.1-24.952c-.934-2.114-.679-2.945,1.311-4.057,1.83-.185,2.735.732,3.38,2.225a36.394,36.394,0,0,1-.052,29.085,34.3,34.3,0,0,1-6.059,9.536c-.644.707-1.03,1.646-2,2.089q-1.914.045-1.966,1.829A38.986,38.986,0,0,1,266.9,297.28a43.494,43.494,0,0,1-13.273,3.633,41.586,41.586,0,0,1-18.655-1.981,8.187,8.187,0,0,0-.921-.2c-2.207-1.1-4.668-1.724-6.739-3.082-3.688-2.418-7.479-4.815-10.23-8.15-3.848-4.664-7.02-9.753-8.447-15.592a34.85,34.85,0,0,1-.853-13.722,36.1,36.1,0,0,1,.613-3.916c.093-.346-.276-.8-.449-1.244.348-.209,1.031-.1,1.173-.723l.228-.107-.222-.215a1.634,1.634,0,0,1,.321-1.261c1.233-2.189,1.358-4.888,3.242-6.729,1.154-1.127,1.243-2.8,2.6-3.737.363-.077.838-.055.628-.628l.338-.362c.21.035.3-.039.249-.239a14.413,14.413,0,0,1,4.243-4.846l.357-.245a38.9,38.9,0,0,1,17-8.56,48.425,48.425,0,0,1,8.6-1.218c1.63-.061,3.239.034,4.857.022a42.034,42.034,0,0,1,13.49,2.872c1.319.5,2.34,1.384,1.928,2.967-1.059,1.924-2.573,2-4.2,1.414A41.683,41.683,0,0,0,250.307,229a50.6,50.6,0,0,0-10.52.75c-2.3.385-4.459,1.546-6.681,2.36-.837-.551-1.119-.069-1.3.606a40.456,40.456,0,0,0-9.392,6.638c-1.02-.546-.517.326-.649.606a44.6,44.6,0,0,0-3.908,5.077c-.175.042-.3.116-.257.316a29.642,29.642,0,0,0-4.148,9.753,32.535,32.535,0,0,0,1.894,20.444c-.073.206.069.274.239.325a33.735,33.735,0,0,0,6.035,8.7,33.248,33.248,0,0,0,5.98,5.259,20.567,20.567,0,0,0,6.6,3.305c.757.174,1.246.956,2.135.888l.37.239" transform="translate(-140.093 -156.315)"/>
    <path id="Trazado_765375" data-name="Trazado 765375" d="M294.7,73.9c-2.061-.367-2.589-.98-2.589-3.088q-.006-23.28,0-46.559c0-2.635-.935-3.52-3.72-3.521-4.635,0-9.271,0-13.906,0-2.086,0-2.72-.5-3.153-2.411.425-1.912,1.055-2.41,3.137-2.413,4.8-.008,9.605-.071,14.406.016,5.137.093,8.38,3.011,8.4,7.847.057,15.586.022,31.172.021,46.758,0,2-.506,2.653-2.591,3.375" transform="translate(-183.238 -11.069)"/>
    <path id="Trazado_765376" data-name="Trazado 765376" d="M25.994,18.34c-.713,1.875-1.476,2.41-3.493,2.412-4.535.005-9.073.1-13.6-.033-3.069-.09-3.718,1.254-3.714,3.432q.07,46.482.032,92.964,0,15.393,0,30.787c0,2.612.684,3.245,3.521,3.245q36.6,0,73.2,0c2.184,0,2.927.5,3.654,2.413a3.417,3.417,0,0,1-1.668,2.182,4.262,4.262,0,0,1-1.869.234c-25.047-.008-50.094-.051-75.14.024-2.88.008-6.924-3.787-6.919-6.509Q.115,85.964.056,22.435c0-3.115,3.522-6.413,7.092-6.472,5.289-.086,10.58-.048,15.869-.029a2.919,2.919,0,0,1,2.976,2.406" transform="translate(0 -11.095)"/>
    <path id="Trazado_765377" data-name="Trazado 765377" d="M422.17,439.779q.053-1.782,1.966-1.829a9.23,9.23,0,0,1-1.966,1.829" transform="translate(-285.108 -305.431)"/>
    <path id="Trazado_765378" data-name="Trazado 765378" d="M132.429,15.949c5.722,0,11.444.012,17.166-.005,2.787-.008,3.39.758,3.623,2.938a10.933,10.933,0,0,1-.213,4.61c-.509,1.573-1.132,2.111-3.055,2.113q-11.012.011-22.025,0-6.478,0-12.956,0c-2.306,0-3.126-.751-3.147-2.851-.014-1.408-.027-2.817.006-4.225.039-1.733.928-2.567,2.787-2.573,5.938-.017,11.876-.006,17.814-.007" transform="translate(-75.508 -11.119)" fill="#e6b046"/>
    <path id="Trazado_765379" data-name="Trazado 765379" d="M309.879,293.6c1.045.064,1.012,1.1,1.619,1.559-1.529,1.09-1.489,2.333-.72,3.885a16.783,16.783,0,0,1,1.7,10.018,18.639,18.639,0,0,1-8.536,13.54,21.44,21.44,0,0,1-15.868,3.336c-8.475-1.377-15.759-8.265-16.727-16.627a17.878,17.878,0,0,1,6.415-16.428,19.872,19.872,0,0,1,17.5-4.73h1.3a21.971,21.971,0,0,1,4.074,1.317c1.778.976,3.05.478,4.317-.683.587.284.957.883,1.663.993l-11.328,10.529-3.292-.6c-.857-1.8-1.676-2.236-3.723-1.814a6.092,6.092,0,0,0-1.821.8,9.314,9.314,0,0,0-4.072,11.9,9.646,9.646,0,0,0,8.352,5.937,10.53,10.53,0,0,0,10.463-5.36c1.164-2.171.733-3.309-1.434-4.24l-.638-3.358c2.989-3.123,6.385-5.858,9.605-8.761.417-.376.775-.809,1.161-1.215" transform="translate(-183.148 -200.671)" fill="#ffc6ba"/>
    <path id="Trazado_765380" data-name="Trazado 765380" d="M324.294,327.318l3.292.6q-2.42,2.306-4.839,4.613c-1.379,1.319-1.414,2.747-.107,3.907,1,.89,2.263.7,3.607-.526q2.585-2.365,5.174-4.726.318,1.679.638,3.358a2.893,2.893,0,0,0-3.086,1.9,4.927,4.927,0,0,1-4.31,2.869,5.372,5.372,0,0,1-5.473-3.5,4.877,4.877,0,0,1,2.969-5.717,2.858,2.858,0,0,0,2.134-2.782" transform="translate(-215.455 -228.275)" fill="#e6b046"/>
    <path id="Trazado_765381" data-name="Trazado 765381" d="M425.416,260.035c1.764-1.594,3.279-3,4.835-4.357.961-.841,2.171-.174,3.444-.2a59.68,59.68,0,0,1-4.959,4.487c-.592.438-1.87.069-3.319.069" transform="translate(-287.3 -178.016)" fill="#ffc6ba"/>
    <path id="Trazado_765382" data-name="Trazado 765382" d="M420.272,234.66c.8,4.181-3.271,5-4.87,7.722-1.031-4.259,2.855-5.23,4.87-7.722" transform="translate(-280.421 -163.654)" fill="#ffc6ba"/>
    <path id="Trazado_765383" data-name="Trazado 765383" d="M44.78,103.937c-3.292,0-6.584.012-9.876,0-1.983-.01-2.876-.8-2.882-2.621q-.032-9.428,0-18.857c.006-1.842.883-2.655,2.841-2.659q9.956-.021,19.913,0c2,0,3.143,1.1,3.147,3q.019,9.051,0,18.1c0,1.99-1.127,3.03-3.267,3.039-3.292.014-6.584,0-9.876,0M52.743,92c0-2.011-.054-4.023.023-6.032.038-.994-.17-1.4-1.377-1.38-4.314.071-8.631.056-12.947.007-.986-.011-1.285.225-1.272,1.169.056,4.071.043,8.144.008,12.215-.007.794.143,1.155,1.127,1.145q6.634-.07,13.271,0c.909.008,1.215-.222,1.187-1.091-.064-2.009-.02-4.021-.02-6.032" transform="translate(-21.615 -55.643)"/>
    <path id="Trazado_765384" data-name="Trazado 765384" d="M32.015,379.162c0-3.118-.015-6.235.006-9.353.013-1.927.871-2.724,2.933-2.727q9.875-.017,19.751,0c2.12,0,3.217,1.063,3.22,3.081q.014,8.976,0,17.952c0,2.088-1.1,3.1-3.358,3.107q-9.714.011-19.427,0c-2.3,0-3.111-.744-3.122-2.858-.015-3.067,0-6.135,0-9.2m20.73,0c0-2.061-.043-4.123.02-6.183.027-.868-.277-1.1-1.186-1.091-4.423.04-8.847.033-13.271,0-.8-.005-1.139.153-1.13.987q.064,6.258,0,12.517c-.008.8.263,1.02,1.1,1.013,4.424-.034,8.848-.051,13.271.009,1.075.015,1.234-.366,1.21-1.225-.056-2.01-.018-4.021-.018-6.032" transform="translate(-21.617 -256.001)"/>
    <path id="Trazado_765385" data-name="Trazado 765385" d="M32.015,187.593c0-3.067-.012-6.135,0-9.2.01-2.047.83-2.828,2.986-2.831q9.794-.015,19.589,0c2.23,0,3.329,1.038,3.332,3.13q.012,8.976,0,17.952c0,2.009-1.109,3.054-3.247,3.058q-9.875.017-19.751,0c-2.049,0-2.895-.808-2.907-2.752-.02-3.118-.005-6.235-.006-9.353m13.039-7.208c-2.212,0-4.424.028-6.635-.014-.838-.016-1.255.1-1.243,1.036.052,4.172.036,8.345.009,12.517,0,.7.188.968.988.963q6.8-.045,13.595,0c.8.005,1-.263.991-.961-.027-4.172-.043-8.345.009-12.517.011-.933-.4-1.055-1.241-1.039-2.157.043-4.315.014-6.473.014" transform="translate(-21.618 -122.432)"/>
    <path id="Trazado_765386" data-name="Trazado 765386" d="M32.015,283.4c0-3.118-.016-6.236.006-9.353.013-1.926.871-2.719,2.937-2.723q9.875-.017,19.751,0c2.046,0,3.209,1.061,3.214,2.934q.023,9.127,0,18.253c0,1.88-1.162,2.946-3.2,2.95q-9.875.02-19.751,0c-2.087,0-2.939-.783-2.953-2.709-.022-3.118-.006-6.235-.006-9.353m13.106-7.251c-2.158,0-4.318.05-6.473-.021-1.067-.035-1.5.158-1.481,1.283.077,4.021.06,8.043.008,12.064-.012.918.242,1.2,1.255,1.185,4.369-.053,8.739-.04,13.109-.008.852.006,1.24-.133,1.229-1.05q-.076-6.182,0-12.366c.009-.847-.238-1.132-1.171-1.106-2.156.06-4.315.019-6.473.019" transform="translate(-21.617 -189.216)"/>
    <path id="Trazado_765387" data-name="Trazado 765387" d="M158.907,127.658h27.2a12.821,12.821,0,0,1,1.294.012,2.929,2.929,0,0,1,2.583,2.452,3.022,3.022,0,0,1-2.528,2.352,6.731,6.731,0,0,1-.809.013q-27.93,0-55.86,0c-1.818,0-2.8-.712-2.962-2.084a2.348,2.348,0,0,1,2.583-2.728c3.13-.036,6.26-.013,9.391-.014h19.106" transform="translate(-86.312 -89.022)"/>
    <path id="Trazado_765388" data-name="Trazado 765388" d="M185.5,191.5h22.181a12.468,12.468,0,0,1,1.294.013,2.918,2.918,0,0,1,2.573,2.46,3.035,3.035,0,0,1-2.537,2.345,5.418,5.418,0,0,1-.647.011q-22.91,0-45.819-.007c-1.918,0-2.959-1.044-2.792-2.693.141-1.39,1.117-2.124,2.918-2.126q11.415-.013,22.829,0" transform="translate(-107.879 -133.546)"/>
    <path id="Trazado_765389" data-name="Trazado 765389" d="M185.367,100.578q-11.333,0-22.667,0c-1.808,0-2.791-.724-2.945-2.1-.184-1.646.862-2.708,2.763-2.717,4.209-.021,8.419-.008,12.628-.008h32.38c.378,0,.756-.015,1.133,0,1.515.071,2.939,1.3,2.888,2.477a2.954,2.954,0,0,1-2.868,2.339c-1.888.039-3.778.01-5.667.01H185.367" transform="translate(-107.875 -66.773)"/>
    <path id="Trazado_765390" data-name="Trazado 765390" d="M148.392,223.443q8.742,0,17.484,0c1.9,0,3.436,1.124,3.4,2.454-.035,1.3-1.522,2.371-3.327,2.372q-17.484.007-34.968,0c-2.1,0-3.125-.786-3.144-2.379-.021-1.658,1.007-2.445,3.233-2.447q8.661-.008,17.322,0" transform="translate(-86.333 -155.83)"/>
    <path id="Trazado_765391" data-name="Trazado 765391" d="M141.811,419.792c-3.669,0-7.338.008-11.007,0-1.944-.006-2.955-.838-2.967-2.39-.012-1.572.988-2.428,2.923-2.431q11.169-.015,22.337,0c1.772,0,3.269,1.17,3.223,2.465-.045,1.257-1.489,2.35-3.178,2.357-3.777.013-7.554,0-11.33,0" transform="translate(-86.333 -289.397)"/>
    <path id="Trazado_765392" data-name="Trazado 765392" d="M139.365,319.2c2.859,0,5.718-.009,8.577,0,1.692.008,3.14,1.087,3.195,2.344.056,1.3-1.439,2.475-3.209,2.478q-8.577.016-17.154,0c-1.93,0-2.94-.858-2.937-2.418s1.017-2.395,2.952-2.4c2.859-.013,5.718,0,8.577,0" transform="translate(-86.333 -222.611)"/>
    <path id="Trazado_765393" data-name="Trazado 765393" d="M167.323,292.087c-1.672,0-3.345.03-5.015-.009a2.4,2.4,0,1,1-.015-4.8q5.015-.052,10.031-.007c1.543.012,2.958,1.2,2.964,2.4s-1.408,2.384-2.949,2.414c-1.671.033-3.344.008-5.016.008Z" transform="translate(-107.893 -200.333)"/>
    <path id="Trazado_765394" data-name="Trazado 765394" d="M165.936,387.835c-1.24,0-2.482.037-3.72-.009a2.4,2.4,0,1,1,.012-4.791c2.534-.046,5.069-.044,7.6-.009a2.944,2.944,0,0,1,2.869,2.334c.053,1.176-1.371,2.432-2.88,2.477-1.293.038-2.588.008-3.882.008v-.009" transform="translate(-107.895 -267.108)"/>
    <path id="Trazado_765395" data-name="Trazado 765395" d="M232.229,275.324c.21.573-.265.552-.628.628-.008-.4.19-.617.628-.628" transform="translate(-156.409 -192.014)" fill="#00ccf7"/>
    <path id="Trazado_765396" data-name="Trazado 765396" d="M212.622,316.159l.223.215-.228.107c0-.107,0-.215.005-.322" transform="translate(-143.588 -220.493)" fill="#00ccf7"/>
    <path id="Trazado_765397" data-name="Trazado 765397" d="M234.826,273.339c.05.2-.039.274-.249.239l.249-.239" transform="translate(-158.419 -190.63)" fill="#00ccf7"/>
    <path id="Trazado_765398" data-name="Trazado 765398" d="M248.771,256.494l-.357.244c.055-.163.137-.29.357-.244" transform="translate(-167.764 -178.875)"/>
    <path id="Trazado_765399" data-name="Trazado 765399" d="M284.5,277.081a19.873,19.873,0,0,0-17.5,4.73,17.878,17.878,0,0,0-6.415,16.428c.968,8.362,8.252,15.25,16.727,16.627a21.444,21.444,0,0,0,15.867-3.336,18.64,18.64,0,0,0,8.536-13.54,16.784,16.784,0,0,0-1.7-10.018c-.768-1.552-.808-2.795.72-3.885,1.759-.514,2.962.163,3.9,1.7,1.863,3.049,2.219,6.38,2.472,9.756-.856.13-.377.573-.252.933-.007,8.178-4.07,14.377-10.879,19.191-5.3,3.748-11.448,4.844-17.879,4.26a24.135,24.135,0,0,1-11.759-4.248l-.335-.206a22.706,22.706,0,0,1-8.4-9.644l-.244-.316a22.851,22.851,0,0,1-1.541-14.761,21.223,21.223,0,0,1,6.025-10.983,25.807,25.807,0,0,1,17.126-7.848,29.668,29.668,0,0,1,13.5,2.283c1.9.789,2.285,1.711,1.709,3.512-1.267,1.161-2.54,1.659-4.317.683a21.991,21.991,0,0,0-4.074-1.317c-.011-.416-.018-.833-.648-.833s-.637.417-.648.833" transform="translate(-172.387 -189.597)"/>
    <path id="Trazado_765400" data-name="Trazado 765400" d="M415.126,425.834c.554,1.417-.37,1.42-1.428,1.3l1.428-1.3" transform="translate(-279.386 -296.981)"/>
    <path id="Trazado_765401" data-name="Trazado 765401" d="M282.495,250.541c.178-.675.46-1.156,1.3-.606a2.2,2.2,0,0,1-1.3.606" transform="translate(-190.78 -174.14)"/>
    <path id="Trazado_765402" data-name="Trazado 765402" d="M435.1,397.3c.039.6.453,1.4-.806,1.315l.806-1.315" transform="translate(-293.297 -277.08)"/>
    <path id="Trazado_765403" data-name="Trazado 765403" d="M411.834,430.471a.521.521,0,0,1-.1.857c-.262.19-.462.072-.624-.147l.723-.71" transform="translate(-277.639 -300.215)"/>
    <path id="Trazado_765404" data-name="Trazado 765404" d="M251.544,274.625c.133-.28-.371-1.152.649-.606l-.649.606" transform="translate(-169.87 -190.981)"/>
    <path id="Trazado_765405" data-name="Trazado 765405" d="M413.679,351.064c-.125-.36-.6-.8.252-.933.039.34.212.711-.252.933" transform="translate(-279.207 -244.185)" fill="#010000"/>
    <path id="Trazado_765406" data-name="Trazado 765406" d="M238.717,293.523c-.047-.2.082-.274.257-.316l-.257.316" transform="translate(-161.208 -204.486)" fill="#fd6d72"/>
    <path id="Trazado_765407" data-name="Trazado 765407" d="M261.691,383.074l.244.316c-.171-.045-.308-.113-.244-.316" transform="translate(-176.719 -267.16)" fill="#010000"/>
    <path id="Trazado_765408" data-name="Trazado 765408" d="M438.525,391.928l-.24.322c-.07-.2.071-.272.24-.322" transform="translate(-295.978 -273.335)"/>
    <path id="Trazado_765409" data-name="Trazado 765409" d="M231.994,394.372c-.169-.051-.312-.12-.239-.325l.239.325" transform="translate(-156.5 -274.813)" fill="#fd6d72"/>
    <path id="Trazado_765410" data-name="Trazado 765410" d="M288.362,415.992l.335.206c-.217.08-.281-.057-.335-.206" transform="translate(-194.742 -290.117)" fill="#010000"/>
    <path id="Trazado_765411" data-name="Trazado 765411" d="M419.6,422.193a.419.419,0,0,1-.221.2c-.062-.2.012-.263.221-.2" transform="translate(-283.211 -294.428)"/>
    <path id="Trazado_765412" data-name="Trazado 765412" d="M401.441,440.142l-.337.207c.055-.15.12-.287.337-.207" transform="translate(-270.881 -306.943)"/>
    <path id="Trazado_765413" data-name="Trazado 765413" d="M296.825,455.313l-.37-.239c.232-.066.3.086.37.239" transform="translate(-200.207 -317.363)"/>
    <path id="Trazado_765414" data-name="Trazado 765414" d="M313.583,322.794a2.858,2.858,0,0,1-2.134,2.782,4.877,4.877,0,0,0-2.969,5.716,5.372,5.372,0,0,0,5.473,3.5,4.927,4.927,0,0,0,4.31-2.869,2.893,2.893,0,0,1,3.086-1.9c2.167.932,2.6,2.069,1.434,4.24a10.53,10.53,0,0,1-10.463,5.36,9.646,9.646,0,0,1-8.352-5.937,9.313,9.313,0,0,1,4.072-11.9,6.079,6.079,0,0,1,1.821-.8c2.047-.422,2.866.014,3.723,1.814" transform="translate(-204.744 -223.751)" fill="#010101"/>
    <path id="Trazado_765415" data-name="Trazado 765415" d="M345.309,287.194c.011-.416.017-.834.648-.833s.637.417.648.833h-1.3" transform="translate(-233.2 -199.711)"/>
    <path id="Trazado_765416" data-name="Trazado 765416" d="M63.485,103.08c0,2.011-.044,4.023.02,6.032.028.869-.278,1.1-1.187,1.091q-6.635-.059-13.271,0c-.983.011-1.133-.35-1.127-1.145.034-4.072.048-8.144-.008-12.215-.013-.944.286-1.18,1.272-1.169,4.315.049,8.632.064,12.947-.007,1.206-.02,1.414.386,1.377,1.38-.077,2.008-.023,4.021-.023,6.032" transform="translate(-32.357 -66.712)" fill="#57dbd8"/>
    <path id="Trazado_765417" data-name="Trazado 765417" d="M63.5,390.263c0,2.011-.038,4.023.018,6.032.024.858-.135,1.239-1.21,1.225-4.423-.06-8.847-.043-13.271-.009-.839.007-1.11-.211-1.1-1.013q.059-6.258,0-12.517c-.008-.834.328-.992,1.13-.987,4.423.029,8.848.035,13.271,0,.909-.008,1.213.223,1.187,1.091-.064,2.059-.02,4.122-.02,6.183" transform="translate(-32.369 -267.1)" fill="#57dbd8"/>
    <path id="Trazado_765418" data-name="Trazado 765418" d="M55.8,191.488c2.158,0,4.316.029,6.473-.015.84-.017,1.252.106,1.241,1.039-.052,4.172-.037,8.345-.009,12.517,0,.7-.193.966-.991.961q-6.8-.045-13.595,0c-.8.005-.993-.267-.988-.963.027-4.172.043-8.345-.009-12.517-.012-.936.405-1.052,1.243-1.036,2.211.042,4.423.014,6.635.014" transform="translate(-32.362 -133.527)" fill="#57dbd8"/>
    <path id="Trazado_765419" data-name="Trazado 765419" d="M55.848,287.229c2.158,0,4.317.041,6.473-.019.933-.026,1.18.259,1.171,1.106q-.064,6.182,0,12.366c.011.917-.377,1.056-1.229,1.05-4.37-.032-8.74-.045-13.109.008-1.013.012-1.267-.267-1.255-1.185.052-4.021.069-8.044-.008-12.064-.021-1.124.414-1.318,1.481-1.283,2.155.071,4.314.021,6.473.021" transform="translate(-32.344 -200.299)" fill="#57dbd8"/>
  </g>
</svg>
