<svg id="Grupo_1025447" data-name="Grupo 1025447" xmlns="http://www.w3.org/2000/svg" xmlns:xlink="http://www.w3.org/1999/xlink" width="163.442" height="161.89" viewBox="0 0 163.442 161.89">
  <defs>
    <clipPath id="clip-path">
      <rect id="Rectángulo_361314" data-name="Rectángulo 361314" width="163.442" height="161.89" fill="none"/>
    </clipPath>
  </defs>
  <g id="Grupo_1025446" data-name="Grupo 1025446" clip-path="url(#clip-path)">
    <path id="Trazado_765420" data-name="Trazado 765420" d="M150.586,139.773a2.75,2.75,0,0,1,3.09.9q3.637,3.837,7.471,7.485a8,8,0,0,1,1.771,8.432,8.182,8.182,0,0,1-7.389,5.285,7.756,7.756,0,0,1-6.268-2.654c-8.224-8.318-16.52-16.564-24.791-24.835-1.942-1.943-1.941-1.966-.017-3.97a3.417,3.417,0,0,0,.35-.529c.39-.252.32-.543.046-.819q-2.124-2.136-4.261-4.26c-.279-.277-.57-.334-.816.057-2,.479-3.363,2.053-5.129,2.953a34.984,34.984,0,0,1-11.433,3.868c-2.236.294-4.443.462-6.68.547a27.653,27.653,0,0,1-11.993-2.1c-2.679-1.145-5.535-2.087-7.829-4.035l-.389-.266a6.989,6.989,0,0,0-5.092-1.712c-22.635.075-45.271.034-67.906.068-2.348,0-2.737-.341-2.681-2.629.069-2.856.038-5.715-.016-8.571-.006-.3.574-1.312-.625-.945V91.184c.966.3.626-.5.626-.841S.966,89.2,0,89.5V87.819c.651.588.655.028.649-.394-.015-1.167.61-1.652,1.7-1.681.607.248,1.791.29,1.6.961-.376,1.307.124,2.477.114,3.706-.074,9.587-.018,19.175-.069,28.762-.007,1.255.233,1.67,1.6,1.667q31.706-.076,63.413-.049c.392,0,.876.245,1.165-.153l-3.535-4.562-2.012-3.368A36.548,36.548,0,0,1,65.3,77.422c1.249-2.148,2.408-4.405,4.327-6.1,1.654-.029,2.972-1.357,2.7-2.719,1.8-1.393,3.525-2.912,5.441-4.125a1.953,1.953,0,0,0,.991-2c-.012-7.114-.05-14.229.03-21.342.016-1.382-.433-1.621-1.68-1.6-4.929.066-9.859.041-14.788.02-2.146-.009-3.079-.715-3.5-2.517q-.015-.361-.03-.722c.011-5.1-.019-10.2.063-15.3.02-1.232-.4-1.457-1.528-1.454q-25.9.05-51.8-.01c-1.306,0-1.549.372-1.542,1.593.054,8.969.029,17.938.029,26.907,0,7.848.073,15.7-.072,23.543-.024,1.3.594,3.272-1.6,3.84a2.215,2.215,0,0,1-2-2.48c.711-4.922.13-9.874.3-14.809.018-.527-.186-.773-.645-.263v-5.72c.916.573.643-.268.643-.594C.643,46.774.617,41.988.6,37.2q0-1.27.006-2.54c.018-4.626.042-9.251.04-13.877,0-.327.275-1.167-.643-.6V18.17q.348.653.719.012c1.085-.143.96-.962.958-1.713.517-.511,1.164-.24,1.739-.243,6.653-.024,13.306-.043,19.959.012,1.164.009,1.509-.291,1.487-1.476-.074-4.08-.016-8.162-.038-12.243C24.819,1.579,24.9.735,25.892.3L55.547.27c.266.41,1.093.278,1,1.035-.1.357-.565.721.02,1.065-.175,1.341-1.185,1.248-2.142,1.248q-12.4,0-24.8.007c-.652,0-1.489-.324-1.442.951.1,2.62.079,5.244.108,7.866a2.268,2.268,0,0,0-.143.3c-.853,2.758-.368,3.469,2.362,3.469,9.577,0,19.153.017,28.73-.02a4.208,4.208,0,0,1,3.256,1.331q8.985,9.072,18.065,18.05a4.97,4.97,0,0,1,1.578,3.814c-.019,7.5.012,15.007.026,22.511q.022.129.045.257l.273-.22c.277-.028.583,0,.7-.349.332.189.614.271.606-.279l2.038-.46A13.477,13.477,0,0,1,88.932,60c3.561-1.051,7.231-.9,10.862-.7a6.359,6.359,0,0,0,2.823-.126c.251.048.357-.043.288-.3V23.9c.069-.257-.036-.349-.287-.3q-7.812-.022-15.624-.044c-3.241-.007-4.007-.755-4.015-4.007-.011-4.817-.039-9.634.023-14.45.015-1.164-.3-1.528-1.49-1.507-4.087.07-8.177.011-12.266.036-1.195.007-2.052-.362-2.345-1.612A1.57,1.57,0,0,1,68.28.28Q76.289.306,84.3.327c.3,0,.688.123.83-.326H85.8a3.358,3.358,0,0,0,1.337,2.177C93.08,8.117,99,14.075,104.973,19.988A4.157,4.157,0,0,1,106.33,23.2c-.039,11.818-.019,23.637-.029,35.456,0,1.046.033,1.592,1.436,2.02A35.412,35.412,0,0,1,121.3,68.2a68.218,68.218,0,0,1,7.242,8.271l.247.236c.538,2.286,2.088,4.134,2.761,6.357a16.853,16.853,0,0,1,1.058,4.062c-.544.451-.227.6.244.689a39.822,39.822,0,0,1,.338,14.132c-.472.09-.789.236-.244.687a31.9,31.9,0,0,1-5.23,13.106c-1.613,2.438-1.621,2.433.352,4.4.791.791,1.625,1.542,2.363,2.38.675.766,1.183.759,1.911.03,1.145-1.144,2.1-1.086,3.227.043,2.414,2.41,4.793,4.854,7.247,7.222a2.237,2.237,0,0,1,.751,2.495c-1.119,1.275-2.1.982-3.174-.145-1.815-1.91-3.74-3.714-5.563-5.617-.631-.659-1.025-.787-1.714-.053-1.611,1.716-3.275,3.388-4.994,5-.88.822-.789,1.393.014,2.192,7.749,7.714,15.443,15.483,23.236,23.153,1.1,1.079,2.522,2.18,4.228,1.921a5.151,5.151,0,0,0,4.208-3.34,4.445,4.445,0,0,0-1.246-5.116c-2.47-2.447-4.92-4.913-7.378-7.371-.636-.636-1.27-1.274-1.058-2.3l.262-.381.2-.484m-22.4-14.9c-.2-1.208-2.41-3.7-3.484-3.923-.055-.011-.145.144-.218.222-1.106-.931-1.353.383-1.944.762-.482.309-.457.669-.028,1.082,1.292,1.244,2.514,2.563,3.848,3.759.435.39,1,1.02,1.757.092.62-.759.941-1.29.07-1.993m-13.051-1.048a.569.569,0,0,0,.616-.579l.634-.443.365-.248c.768-.621,1.562-1.212,2.3-1.868a35.254,35.254,0,0,0,8.975-12.54,23.757,23.757,0,0,0,1.909-6.19c.387-3,.978-6.083.285-9.151-.156-.691.433-1.31.283-1.927-.356-1.467-.861-2.9-1.3-4.345-2.12-6.96-5.829-12.934-11.709-17.243-8.774-6.43-15.808-7.578-26.241-6.329a24.037,24.037,0,0,0-11.325,4.051,47.605,47.605,0,0,0-6.177,4.764,48.461,48.461,0,0,0-6.062,7.991c-.863.074-.722.659-.622,1.223-.364.911-.731,1.82-1.09,2.732a34.5,34.5,0,0,0-2.044,13.627,29.215,29.215,0,0,0,3.313,13.132,33.212,33.212,0,0,0,13.613,14.247,34.5,34.5,0,0,0,16.627,4.487,33.174,33.174,0,0,0,7.167-1,35.517,35.517,0,0,0,10.485-4.389M75.749,36.189,62.195,22.638c0,4.022,0,8.268,0,12.514,0,.5-.083,1.042.7,1.04,4.349-.008,8.7,0,12.849,0M86.342,6.364c0,4.385,0,8.637-.005,12.889,0,.552.018.953.768.948,4.337-.026,8.675-.012,13.112-.012L86.342,6.364" transform="translate(0 -0.001)"/>
    <path id="Trazado_765421" data-name="Trazado 765421" d="M0,265.214c.965-.3.626.5.626.841S.965,267.2,0,266.9Z" transform="translate(0 -175.712)" fill="#fff"/>
    <path id="Trazado_765422" data-name="Trazado 765422" d="M400.62,388.2c-.212,1.027.422,1.665,1.059,2.3,2.458,2.458,4.909,4.924,7.378,7.371a4.445,4.445,0,0,1,1.246,5.115,5.151,5.151,0,0,1-4.207,3.34c-1.706.259-3.132-.842-4.229-1.921-7.793-7.67-15.487-15.439-23.236-23.153-.8-.8-.893-1.37-.014-2.192,1.719-1.608,3.383-3.279,4.994-5,.689-.734,1.083-.606,1.714.053,1.822,1.9,3.748,3.707,5.563,5.617,1.07,1.126,2.055,1.42,3.174.145.167,1.321,1.308,1.863,2.127,2.662-.318.886-.6,1.806.187,2.569s1.6.162,2.392-.073a7.782,7.782,0,0,0,2.312,2.3l-.2.484c-.183.061-.309.162-.263.381" transform="translate(-250.495 -247.565)" fill="#fe7062"/>
    <path id="Trazado_765423" data-name="Trazado 765423" d="M433.89,402.009c-.794.235-1.615.828-2.392.073s-.506-1.683-.187-2.569a1.941,1.941,0,0,1,2.391.151c.812.717.465,1.536.188,2.345" transform="translate(-285.616 -264.533)" fill="#010100"/>
    <path id="Trazado_765424" data-name="Trazado 765424" d="M355.086,369.65c.246-.391.538-.334.817-.057q2.137,2.123,4.261,4.26c.274.276.344.567-.046.819a59.6,59.6,0,0,1-5.032-5.022" transform="translate(-235.315 -244.781)" fill="#010100"/>
    <path id="Trazado_765425" data-name="Trazado 765425" d="M393.584,302.94c-.545-.451-.228-.6.244-.687.066.281.15.569-.244.687" transform="translate(-260.637 -200.303)"/>
    <path id="Trazado_765426" data-name="Trazado 765426" d="M392.826,259c-.471-.092-.788-.238-.244-.689.392.12.3.409.244.689" transform="translate(-259.974 -171.185)"/>
    <path id="Trazado_765427" data-name="Trazado 765427" d="M381.338,226.911l-.247-.236c.227-.074.3.019.247.236" transform="translate(-252.549 -150.201)" fill="#010202"/>
    <path id="Trazado_765428" data-name="Trazado 765428" d="M226.264,373.062l.389.266c-.253.091-.317-.093-.389-.266" transform="translate(-149.945 -247.228)" fill="#010100"/>
    <path id="Trazado_765429" data-name="Trazado 765429" d="M6.969,124.141q0-1.794,0-3.588c1.443-.04,1.537-1.292,1.609-2.177.063-.768-1-.721-1.609-.965q0-1.794,0-3.588c2.193-.567,1.575-2.541,1.6-3.84.145-7.845.072-15.695.072-23.542,0-8.969.025-17.938-.029-26.907-.007-1.221.236-1.6,1.541-1.593q25.9.074,51.8.01c1.129,0,1.547.223,1.527,1.454-.082,5.1-.052,10.2-.063,15.3-.232.017-.468.076-.453.356s.266.315.483.367c.417,1.8,1.35,2.507,3.5,2.517,4.93.021,9.86.047,14.789-.02,1.246-.017,1.695.223,1.679,1.6-.079,7.113-.042,14.228-.03,21.342a1.952,1.952,0,0,1-.991,2c-1.917,1.213-3.639,2.731-5.441,4.125a16.256,16.256,0,0,0-2.7,2.72c-1.919,1.692-3.078,3.949-4.327,6.1a36.547,36.547,0,0,0-.674,35.286l-51.641.008c-2.22,0-2.221,0-2.221-2.307q0-41.464,0-82.928c0-.5.029-1.012-.014-1.513a1.418,1.418,0,0,0-1.557-1.406c-1.352-.047-1.792.61-1.792,2.758q0,42.978,0,85.955c0,2.289.5,2.8,2.719,2.8q28.259,0,56.519,0l3.535,4.562c-.289.4-.773.153-1.165.153q-31.706.023-63.412.049c-1.371,0-1.612-.412-1.6-1.667.051-9.587-.005-19.175.069-28.762.009-1.229-.49-2.4-.114-3.706.193-.672-.99-.714-1.6-.962M66.53,98.008c-.005-2.175-1.134-3.656-3.51-4.473-2.692-.925-4.764.068-6.634,1.951-4.934,4.967-9.91,9.891-14.828,14.874-.712.722-1.1.813-1.834.024-1.676-1.8-3.494-3.475-5.2-5.258a5.825,5.825,0,0,0-4.619-1.713,5.309,5.309,0,0,0-3.269,8.973c3.475,3.572,7.011,7.087,10.572,10.573a5.049,5.049,0,0,0,6.74.081c2.244-2.162,4.506-4.306,6.755-6.461,4.487-4.3,8.767-8.815,13.227-13.144,1.51-1.465,2.69-2.95,2.595-5.426M40.046,146.43c6.158,0,12.317-.01,18.476.008,1.276,0,2.042-.4,1.957-1.83-.1-1.645-1.3-1.537-2.407-1.538-12.037-.009-24.075.015-36.112-.034-1.39-.005-2.466.44-2.456,1.766.009,1.246,1.129,1.653,2.4,1.645,6.046-.042,12.093-.019,18.14-.018m-.055-9.334q9.158,0,18.317,0c1.728,0,2.26-.522,2.169-1.987-.1-1.649-1.4-1.353-2.37-1.355q-17.98-.043-35.961-.01a9.2,9.2,0,0,0-1.492.163,1.434,1.434,0,0,0-1.175,1.568c.027.713.33,1.531,1.361,1.543.615.007,1.229.078,1.843.079q8.654.01,17.308,0m-6.125-52.56c4.037,0,8.074.007,12.111-.008.636,0,1.339.147,1.708-.684.254-.574.573-1.108.151-1.7a2.406,2.406,0,0,0-2.17-.991c-7.962.033-15.924.051-23.886-.011-1.38-.01-2.294.573-2.275,1.769.018,1.113,1,1.661,2.25,1.644,4.036-.053,8.074-.02,12.111-.019m-.014-12.2c-4.03,0-8.061.032-12.091-.019-1.247-.016-2.233.514-2.259,1.632-.029,1.255.969,1.78,2.31,1.773,7.948-.043,15.9-.029,23.846-.012,1.266,0,2.356-.361,2.325-1.756-.031-1.376-1.16-1.636-2.376-1.627-3.918.027-7.836.01-11.755.011" transform="translate(-4.618 -38.397)" fill="#efefef"/>
    <path id="Trazado_765430" data-name="Trazado 765430" d="M112.291,5.972h3.238c.049.911.387,1.574,1.4,1.689,1.276.145,1.619-.846,2.088-1.689h3.238c.293,1.25,1.151,1.619,2.346,1.612,4.088-.025,8.178.034,12.266-.036,1.188-.021,1.5.343,1.49,1.507-.061,4.816-.034,9.633-.023,14.45.008,3.252.774,4,4.015,4.007q7.812.018,15.624.044l.287.3V62.832l-.288.3a6.359,6.359,0,0,1-2.823.126c-3.631-.2-7.3-.35-10.862.7a13.472,13.472,0,0,0-3.11.845q-.007-11.757-.013-23.513a2.634,2.634,0,0,0-.629-2.153c-1.584-1.571-3.036-3.275-4.61-4.858-5.524-5.56-11.095-11.074-16.6-16.651a3.737,3.737,0,0,0-2.933-1.225c-10.917.036-21.834.006-32.75,0-.029-2.622-.01-5.246-.108-7.866-.048-1.275.789-.95,1.442-.951q12.4-.016,24.8-.007c.957,0,1.966.093,2.142-1.248l.367-.355" transform="translate(-55.358 -3.958)" fill="#efefef"/>
    <path id="Trazado_765431" data-name="Trazado 765431" d="M241.949,245.613l-.634.443c-.29-.088-.6-.183-.84.05-.05.049.143.346.224.529a35.51,35.51,0,0,1-10.485,4.389,33.173,33.173,0,0,1-7.167,1,34.5,34.5,0,0,1-16.627-4.487,33.218,33.218,0,0,1-13.613-14.247,29.215,29.215,0,0,1-3.313-13.132,34.5,34.5,0,0,1,2.044-13.627c.36-.912.727-1.822,1.089-2.733a1.968,1.968,0,0,0,.623-1.223,48.5,48.5,0,0,1,6.062-7.991,47.609,47.609,0,0,1,6.177-4.764,24.038,24.038,0,0,1,11.325-4.051c10.433-1.249,17.466-.1,26.241,6.329,5.881,4.309,9.589,10.284,11.709,17.243.441,1.447.946,2.878,1.3,4.345.15.617-.439,1.237-.284,1.927.693,3.068.1,6.151-.284,9.151a23.76,23.76,0,0,1-1.909,6.191,35.256,35.256,0,0,1-8.975,12.54c-.736.656-1.531,1.247-2.3,1.868-.224-.068-.3.075-.365.248m-12.092-3.768c.737.387,1.193,1.4,2.357.781,1.05-.556,1.092-1.379,1.012-2.336a4.6,4.6,0,0,0,2.713-1.437c1.053.642,2.417.761,3.087-.068,1.521-1.882,3.5-3.3,4.89-5.317a25.684,25.684,0,0,0,4.424-19.485,24.967,24.967,0,0,0-10.667-16.763,26.084,26.084,0,0,0-17.646-4.483c-8.07.64-13.988,4.66-18.629,10.908a21.463,21.463,0,0,0-3.736,8.577,32.814,32.814,0,0,0-1.047,6.449,38.818,38.818,0,0,0,.848,5.758c.5,3.395,2.277,6.34,4.117,9.16,2.091,3.207,5.227,5.361,8.352,7.458,1.917,1.287,4.215,1.644,6.337,2.423a22.523,22.523,0,0,0,7.451,1.161,2.778,2.778,0,0,0,3.15-2.281l2.99-.5m-38.734-24.37c.159,2.078.076,3.731.36,5.41,1.773,10.484,7.4,18.163,16.517,23.5,2.778,1.626,5.89,2.132,8.819,3.231,1.632.613,3.443.294,5.16.675a1.987,1.987,0,0,0,2.506-1.784c0-1.564-1.207-1.267-2.2-1.6-1.566-.532-3.123-.06-4.627-.37a28.047,28.047,0,0,1-14.71-8.193A30.9,30.9,0,0,1,197,229.794a28.363,28.363,0,0,1-2.357-15.3,25.041,25.041,0,0,1,6.239-13.747c.547-.631,1.022-1.332,1.614-1.916.823-.812,1.269-1.731.339-2.6a1.758,1.758,0,0,0-2.667.254c-5.686,6.006-9.116,12.957-9.048,20.988m43.251,28.983c-.045-.827-.3-1.581-1.613-1.526a14.581,14.581,0,0,0-3.963,1.123,1.367,1.367,0,0,0-.835,1.782c.352.836.978,1.648,2.01,1.413,1.168-.266,2.265-.834,3.417-1.192.736-.228.877-.769.984-1.6" transform="translate(-125.567 -122.814)" fill="#57dbd8"/>
    <path id="Trazado_765432" data-name="Trazado 765432" d="M81.186,164.328q-28.26,0-56.52,0c-2.222,0-2.719-.515-2.719-2.8q0-42.978,0-85.955c0-2.148.44-2.8,1.792-2.758A1.419,1.419,0,0,1,25.3,74.219c.043.5.014,1.009.014,1.513q0,41.463,0,82.927c0,2.306,0,2.308,2.221,2.307l51.641-.008,2.013,3.368" transform="translate(-14.544 -48.252)" fill="#fff"/>
    <path id="Trazado_765433" data-name="Trazado 765433" d="M82.828,36.884c10.917.01,21.834.04,32.75,0a3.737,3.737,0,0,1,2.933,1.225c5.507,5.577,11.077,11.091,16.6,16.651,1.573,1.583,3.025,3.287,4.609,4.858a2.634,2.634,0,0,1,.629,2.153q0,11.757.013,23.513l-2.038.46c-.251-.015-.566-.166-.606.279-.117.35-.423.321-.7.349a1.768,1.768,0,0,0-.318-.037c-.013-7.5-.044-15.007-.025-22.511a4.972,4.972,0,0,0-1.578-3.814q-9.088-8.968-18.065-18.05a4.208,4.208,0,0,0-3.256-1.331c-9.576.036-19.153.02-28.73.02-2.73,0-3.215-.711-2.362-3.469a2.246,2.246,0,0,1,.143-.3" transform="translate(-54.542 -24.443)" fill="#afafaf"/>
    <path id="Trazado_765434" data-name="Trazado 765434" d="M197.94,80.664c-4.151,0-8.5,0-12.849,0-.787,0-.7-.538-.7-1.04,0-4.246,0-8.492,0-12.514l13.554,13.55" transform="translate(-122.191 -44.476)" fill="#efefef"/>
    <path id="Trazado_765435" data-name="Trazado 765435" d="M255.967,18.864l13.875,13.825c-4.437,0-8.775-.013-13.112.012-.751,0-.769-.4-.768-.948.01-4.252.005-8.5.005-12.889" transform="translate(-169.626 -12.501)" fill="#efefef"/>
    <path id="Trazado_765436" data-name="Trazado 765436" d="M368.235,362.284c.871.7.55,1.234-.07,1.993-.757.928-1.321.3-1.757-.092-1.334-1.2-2.556-2.515-3.848-3.759-.429-.413-.453-.773.028-1.082.591-.378.838-1.692,1.944-.762a33.946,33.946,0,0,0,3.7,3.7" transform="translate(-240.052 -237.416)" fill="#afafaf"/>
    <path id="Trazado_765437" data-name="Trazado 765437" d="M372.753,362.489a33.949,33.949,0,0,1-3.7-3.7c.074-.078.163-.233.218-.222,1.074.218,3.279,2.716,3.484,3.923" transform="translate(-244.57 -237.621)" fill="#010100"/>
    <path id="Trazado_765438" data-name="Trazado 765438" d="M206.433,206.113a16.257,16.257,0,0,1,2.7-2.72c.275,1.362-1.043,2.691-2.7,2.72" transform="translate(-136.803 -134.788)"/>
    <path id="Trazado_765439" data-name="Trazado 765439" d="M2.029,50.539c-.05-.777-.29-1.661.958-1.712,0,.751.128,1.57-.958,1.712" transform="translate(-1.31 -32.358)"/>
    <path id="Trazado_765440" data-name="Trazado 765440" d="M199.288,236.471a1.97,1.97,0,0,1-.623,1.223c-.1-.563-.24-1.149.623-1.223" transform="translate(-131.606 -156.709)"/>
    <path id="Trazado_765441" data-name="Trazado 765441" d="M340.876,365.766c-.081-.183-.274-.48-.224-.529.237-.232.55-.138.84-.05a.569.569,0,0,1-.616.579" transform="translate(-225.745 -241.945)" fill="#010202"/>
    <path id="Trazado_765442" data-name="Trazado 765442" d="M167.5,4.577l-.367.355c-.585-.344-.116-.708-.02-1.065.378.1.293.454.387.71" transform="translate(-110.57 -2.563)"/>
    <path id="Trazado_765443" data-name="Trazado 765443" d="M173.453,108.369c-.217-.051-.469-.1-.483-.367s.22-.339.453-.356q.015.361.03.722" transform="translate(-114.626 -71.338)" fill="#afafaf"/>
    <path id="Trazado_765444" data-name="Trazado 765444" d="M246.6,181.962c.04-.445.355-.293.606-.279.008.549-.275.468-.606.279" transform="translate(-163.419 -120.377)" fill="#010202"/>
    <path id="Trazado_765445" data-name="Trazado 765445" d="M345.039,363.541c.061-.173.141-.316.365-.248l-.365.248" transform="translate(-228.657 -240.742)" fill="#010202"/>
    <path id="Trazado_765446" data-name="Trazado 765446" d="M243.577,183.508a1.765,1.765,0,0,1,.318.037l-.273.22-.046-.257" transform="translate(-161.418 -121.611)" fill="#909090"/>
    <path id="Trazado_765447" data-name="Trazado 765447" d="M304.228,174.844l.288-.3c.068.258-.038.349-.288.3" transform="translate(-201.612 -115.669)" fill="silver"/>
    <path id="Trazado_765448" data-name="Trazado 765448" d="M304.519,70.238l-.287-.3c.251-.047.356.045.287.3" transform="translate(-201.614 -46.339)" fill="silver"/>
    <path id="Trazado_765449" data-name="Trazado 765449" d="M445.056,416.2c-.047-.22.08-.32.263-.381l-.263.381" transform="translate(-294.932 -275.563)"/>
    <path id="Trazado_765450" data-name="Trazado 765450" d="M3.643,234.253c.607.244,1.672.2,1.609.965-.072.884-.166,2.136-1.609,2.177-.994.041-1.647-.279-1.691-1.418-.047-1.212.612-1.656,1.691-1.724" transform="translate(-1.292 -155.239)" fill="#010202"/>
    <path id="Trazado_765451" data-name="Trazado 765451" d="M181.881,2.634c-.469.843-.812,1.834-2.088,1.689-1.017-.115-1.355-.778-1.4-1.689.046-.9.339-1.605,1.373-1.689a1.832,1.832,0,0,1,2.119,1.689" transform="translate(-118.218 -0.619)" fill="#010202"/>
    <path id="Trazado_765452" data-name="Trazado 765452" d="M102.122,167.253c.1,2.476-1.085,3.961-2.595,5.427-4.46,4.329-8.739,8.844-13.227,13.144-2.249,2.155-4.511,4.3-6.755,6.461a5.048,5.048,0,0,1-6.74-.081c-3.562-3.486-7.1-7-10.572-10.573a5.309,5.309,0,0,1,3.269-8.973,5.822,5.822,0,0,1,4.619,1.713c1.7,1.782,3.519,3.453,5.2,5.257.734.79,1.122.7,1.834-.023,4.918-4.983,9.894-9.907,14.828-14.874,1.87-1.883,3.942-2.876,6.634-1.951,2.376.816,3.5,2.3,3.51,4.473m-3.365.339c.094-.655-.068-1.408-.79-1.594a2.383,2.383,0,0,0-2.625.4c-2.494,2.577-5.059,5.086-7.6,7.622-3.211,3.21-6.41,6.432-9.637,9.625-1.442,1.427-2.04,1.4-3.436.011-2.221-2.217-4.434-4.443-6.665-6.651-1.075-1.064-2.6-1.28-3.333-.423-1,1.162-.608,2.206.391,3.195,3.146,3.115,6.254,6.269,9.4,9.38,1.245,1.229,2.222,1.25,3.43.065q9.953-9.76,19.873-19.554a2.436,2.436,0,0,0,.983-2.077" transform="translate(-40.21 -107.642)" fill="#010202"/>
    <path id="Trazado_765453" data-name="Trazado 765453" d="M64.674,313.62c-6.047,0-12.094-.023-18.14.019-1.273.009-2.392-.4-2.4-1.645-.01-1.326,1.067-1.772,2.456-1.766,12.037.049,24.075.025,36.112.034,1.1,0,2.31-.107,2.407,1.538.085,1.426-.682,1.834-1.957,1.83-6.158-.019-12.317-.008-18.476-.009" transform="translate(-29.246 -205.588)"/>
    <path id="Trazado_765454" data-name="Trazado 765454" d="M64.566,286q-8.654,0-17.308,0c-.615,0-1.229-.072-1.844-.079-1.03-.012-1.333-.829-1.36-1.543a1.434,1.434,0,0,1,1.175-1.568,9.2,9.2,0,0,1,1.492-.163q17.98-.014,35.961.01c.972,0,2.266-.294,2.37,1.355.091,1.466-.441,1.984-2.169,1.987q-9.158.018-18.317,0" transform="translate(-29.194 -187.301)"/>
    <path id="Trazado_765455" data-name="Trazado 765455" d="M58.494,130.118c-4.037,0-8.075-.033-12.111.02-1.254.016-2.232-.531-2.25-1.644-.019-1.2.9-1.78,2.275-1.769,7.962.062,15.924.044,23.886.011a2.406,2.406,0,0,1,2.17.991c.422.593.1,1.126-.151,1.7-.369.832-1.072.682-1.708.684-4.037.016-8.074.008-12.111.007" transform="translate(-29.247 -83.98)"/>
    <path id="Trazado_765456" data-name="Trazado 765456" d="M58.473,100.588c3.918,0,7.837.017,11.755-.01,1.216-.008,2.345.251,2.376,1.627.031,1.4-1.059,1.759-2.325,1.756-7.949-.017-15.9-.031-23.846.012-1.341.007-2.339-.518-2.31-1.773.027-1.117,1.012-1.648,2.259-1.632,4.03.052,8.06.02,12.091.019" transform="translate(-29.24 -66.647)"/>
    <path id="Trazado_765457" data-name="Trazado 765457" d="M256.52,259.582a4.6,4.6,0,0,1-2.713,1.437,2.076,2.076,0,0,0-2.518-.6c-.8.376-.888,1.3-.85,2.156l-2.99.5a3.17,3.17,0,0,0-2.939-1.114,19.044,19.044,0,0,1-7.84-.909,23.886,23.886,0,0,1-11.195-7.931c-4.876-6.077-5.77-12.885-4.289-20.035a19.652,19.652,0,0,1,4.584-8.419,22.3,22.3,0,0,1,17.55-8.066,22.257,22.257,0,0,1,20.26,12.636,22.783,22.783,0,0,1,1.742,15.023,25.512,25.512,0,0,1-5.784,10.827c-1.162,1.354-3.707,1.876-3.017,4.493M252.5,231.511a1.231,1.231,0,0,0-.829-1.348,2.032,2.032,0,0,0-2.3.415q-7.391,7.461-14.845,14.86a1.425,1.425,0,0,0-.393,1.782c.633,1.43,1.687,1.6,2.943.379,4.462-4.319,8.722-8.841,13.223-13.124.836-.8,2.152-1.49,2.2-2.963m2.672,14.327c-.05-3.307-2.044-5.1-5.62-5.055a5.113,5.113,0,0,0-4.812,5.391,5.448,5.448,0,0,0,5.3,5.04,5.32,5.32,0,0,0,5.128-5.376m-18.8-18.514c-2.527-.388-5.174,2.329-5.1,5.085a5.49,5.49,0,0,0,5.193,5.347,5.592,5.592,0,0,0,5.3-4.922,5.051,5.051,0,0,0-5.389-5.51" transform="translate(-146.149 -143.543)" fill="#f9be00"/>
    <path id="Trazado_765458" data-name="Trazado 765458" d="M249.958,253.207c-.689-2.617,1.856-3.139,3.018-4.493a25.515,25.515,0,0,0,5.784-10.827,22.781,22.781,0,0,0-1.742-15.023,22.257,22.257,0,0,0-20.26-12.636,22.3,22.3,0,0,0-17.55,8.066,19.656,19.656,0,0,0-4.584,8.419c-1.481,7.15-.587,13.958,4.289,20.035a23.885,23.885,0,0,0,11.2,7.931,19.047,19.047,0,0,0,7.84.909,3.169,3.169,0,0,1,2.939,1.114,2.778,2.778,0,0,1-3.15,2.282,22.5,22.5,0,0,1-7.45-1.161c-2.122-.778-4.42-1.136-6.337-2.423-3.124-2.1-6.26-4.251-8.351-7.457-1.84-2.821-3.621-5.766-4.117-9.161a38.865,38.865,0,0,1-.848-5.758,32.841,32.841,0,0,1,1.047-6.449A21.465,21.465,0,0,1,215.416,218c4.641-6.248,10.559-10.269,18.629-10.908a26.085,26.085,0,0,1,17.646,4.483,24.967,24.967,0,0,1,10.667,16.763,25.686,25.686,0,0,1-4.424,19.485c-1.393,2.022-3.369,3.435-4.89,5.317-.67.829-2.033.71-3.087.068" transform="translate(-139.586 -137.168)"/>
    <path id="Trazado_765459" data-name="Trazado 765459" d="M194.354,237.918c-.068-8.031,3.362-14.983,9.048-20.988a1.758,1.758,0,0,1,2.667-.254c.93.871.484,1.79-.339,2.6-.592.584-1.067,1.285-1.614,1.916a25.037,25.037,0,0,0-6.239,13.747,28.364,28.364,0,0,0,2.357,15.3,30.891,30.891,0,0,0,5.944,8.542,28.041,28.041,0,0,0,14.71,8.193c1.5.311,3.061-.161,4.627.371.993.338,2.2.04,2.2,1.6a1.987,1.987,0,0,1-2.506,1.784c-1.717-.38-3.529-.062-5.161-.675-2.929-1.1-6.041-1.605-8.819-3.231-9.116-5.335-14.744-13.014-16.517-23.5-.284-1.678-.2-3.332-.36-5.41" transform="translate(-128.798 -143.257)" fill="#4aadab"/>
    <path id="Trazado_765460" data-name="Trazado 765460" d="M309.789,363.564c-.107.831-.248,1.372-.984,1.6-1.152.357-2.248.925-3.417,1.192-1.032.235-1.658-.576-2.01-1.413a1.367,1.367,0,0,1,.835-1.782,14.579,14.579,0,0,1,3.963-1.123c1.311-.055,1.568.7,1.613,1.526" transform="translate(-200.981 -239.921)" fill="#4aadab"/>
    <path id="Trazado_765461" data-name="Trazado 765461" d="M309.176,348.259c-.038-.851.051-1.78.85-2.156a2.076,2.076,0,0,1,2.518.6c.081.958.039,1.78-1.011,2.336-1.165.617-1.62-.394-2.357-.781" transform="translate(-204.886 -229.228)" fill="#010100"/>
    <path id="Trazado_765462" data-name="Trazado 765462" d="M105.476,174.191a2.436,2.436,0,0,1-.983,2.077q-9.934,9.779-19.873,19.554c-1.209,1.185-2.186,1.164-3.43-.065-3.15-3.111-6.258-6.265-9.4-9.38-1-.989-1.386-2.033-.391-3.195.734-.857,2.258-.641,3.333.423,2.231,2.208,4.443,4.434,6.665,6.651,1.4,1.393,1.993,1.416,3.436-.011,3.227-3.194,6.426-6.415,9.637-9.625,2.537-2.536,5.1-5.045,7.6-7.622a2.383,2.383,0,0,1,2.625-.4c.722.187.884.94.79,1.594" transform="translate(-46.929 -114.241)" fill="#91b3fa"/>
    <path id="Trazado_765463" data-name="Trazado 765463" d="M278.894,257.81c-.044,1.474-1.36,2.168-2.2,2.963-4.5,4.283-8.761,8.805-13.223,13.124-1.256,1.216-2.309,1.051-2.943-.379a1.425,1.425,0,0,1,.393-1.782q7.442-7.411,14.845-14.86a2.033,2.033,0,0,1,2.3-.415,1.231,1.231,0,0,1,.829,1.348" transform="translate(-172.548 -169.842)" fill="#010100"/>
    <path id="Trazado_765464" data-name="Trazado 765464" d="M302.713,293.341a5.321,5.321,0,0,1-5.128,5.376,5.448,5.448,0,0,1-5.3-5.04,5.114,5.114,0,0,1,4.812-5.391c3.576-.046,5.57,1.749,5.62,5.055m-5.144-1.7c-1.135.034-1.923.534-1.9,1.745a1.752,1.752,0,0,0,1.829,1.905,1.8,1.8,0,0,0,1.868-2.015c-.059-1.224-.663-1.667-1.8-1.635" transform="translate(-193.694 -191.046)" fill="#010100"/>
    <path id="Trazado_765465" data-name="Trazado 765465" d="M257.439,248.312a5.052,5.052,0,0,1,5.39,5.51,5.592,5.592,0,0,1-5.3,4.922,5.491,5.491,0,0,1-5.193-5.347c-.07-2.756,2.576-5.473,5.1-5.085m2,4.818c.051-.8-.4-1.439-1.622-1.459s-2.075.435-2.074,1.733a1.751,1.751,0,0,0,1.822,1.914c.963-.041,1.883-.583,1.874-2.188" transform="translate(-167.221 -164.531)" fill="#010100"/>
    <path id="Trazado_765466" data-name="Trazado 765466" d="M304.229,298.224c1.135-.032,1.739.41,1.8,1.635a1.8,1.8,0,0,1-1.868,2.015,1.752,1.752,0,0,1-1.829-1.905c-.024-1.211.763-1.711,1.9-1.745" transform="translate(-200.353 -197.631)" fill="#f9be00"/>
    <path id="Trazado_765467" data-name="Trazado 765467" d="M266.133,259.8c.009,1.605-.911,2.147-1.874,2.188a1.751,1.751,0,0,1-1.822-1.914c0-1.3.858-1.753,2.074-1.733s1.672.662,1.622,1.459" transform="translate(-173.917 -171.202)" fill="#f9be00"/>
  </g>
</svg>
