<svg id="Grupo_1025449" data-name="Grupo 1025449" xmlns="http://www.w3.org/2000/svg" xmlns:xlink="http://www.w3.org/1999/xlink" width="149.464" height="149.433" viewBox="0 0 149.464 149.433">
  <defs>
    <clipPath id="clip-path">
      <rect id="Rectángulo_361315" data-name="Rectángulo 361315" width="149.464" height="149.433" fill="none"/>
    </clipPath>
  </defs>
  <g id="Grupo_1025448" data-name="Grupo 1025448" clip-path="url(#clip-path)">
    <path id="Trazado_765468" data-name="Trazado 765468" d="M149.463,74.091v67.766a.856.856,0,0,0-.584.6,9.329,9.329,0,0,1-5.985,6.352c-2.642,1.08-5.4.389-8.1.569-4.874.324-9.563-4.565-9.458-9.41.131-6.018,0-12.042.059-18.063.012-1.173-.284-1.464-1.46-1.462q-34.7.057-69.4,0c-1.121,0-1.5.2-1.49,1.432q.1,10.988.017,21.977c-.024,3.423-1.723,5.434-4.64,5.461-14.7.135-29.406.068-44.109.052a4.766,4.766,0,0,1-4.235-4.32c-.006-22.58.02-45.16-.052-67.74a4.89,4.89,0,0,1,3.662-4.841c1.017-.268,1.224-.65,1.222-1.634q-.05-27.472-.025-54.945c0-.3-.009-.6,0-.9.011-.355-.124-.478-.5-.555C1.33,13.805.076,12.246.068,9.135A29.757,29.757,0,0,0,.049,5.975C-.276,3.021,1.019,1.11,3.682,0H145.849a7.191,7.191,0,0,1,3.615,3.915v7.228c-1.055,1.23-1.92,2.791-3.629,3.121-1.223.236-1.21.841-1.208,1.794q.039,22.2.021,44.406a4.039,4.039,0,0,0,.089,1.487c1.677,4.007,2.878,8.2,4.727,12.138M58.8,39.443c1.506-2.414,2.989-4.842,4.523-7.238,1.976-3.084,4.024-6.124,5.972-9.225.466-.741.667-.844,1.147-.063q1.987,3.233,4.045,6.422c1.745,2.7,3.541,5.376,5.282,8.083,1.9,2.959,3.7,5.984,5.671,8.9A47.173,47.173,0,0,0,89.23,51.9l.223.2a16.094,16.094,0,0,0,2.54,4.22c1.248-1.216,2.452-2.37,3.635-3.546,2.846-2.831,5.706-5.648,8.5-8.526a2.761,2.761,0,0,1,2.213-.9c6.724.036,13.449.019,20.173.019,3.745,0,3.7,0,3.7,3.718,0,.988-.327,1.128-1.2,1.12-4.315-.042-8.631-.022-12.947-.018-2.96,0-6.265-.806-8.785.251-2.57,1.079-4.341,4.024-6.512,6.1C98.9,56.332,97.291,58.4,95.138,59.9c-.838.581-.278,1.1.043,1.6,3.227,5.02,6.477,10.025,9.7,15.046,2.535,3.944,5.036,7.91,7.569,11.855,1.679,2.614,3.386,5.21,5.19,7.981h-1.88q-30.561,0-61.122-.037c-1.372,0-1.612.377-1.595,1.646q.111,8.127,0,16.257c-.018,1.231.372,1.436,1.494,1.434q34.7-.048,69.4.005c1.193,0,1.457-.316,1.453-1.472-.043-13.046-.027-26.093-.025-39.139a5.328,5.328,0,0,1,.33-2.007c1.646-4.243,3.146-8.543,4.819-12.775.842-2.13,1.158-4.578,3.226-6.07l.353-.241c1.374-.579,2.692-1.384,4.3-.685,1.159.505,1.461.005,1.457-1.191q-.06-18.144,0-36.288c0-1.133-.275-1.384-1.393-1.383q-63.7.048-127.394,0c-1.122,0-1.392.257-1.39,1.385q.06,27.555,0,55.11c0,1.127.266,1.395,1.39,1.387q12.573-.079,25.147,0a2.177,2.177,0,0,0,2.115-1.142q4.959-7.843,10-15.636c.411-.636.442-.994-.129-1.555q-4.887-4.8-9.692-9.684a3.067,3.067,0,0,0-2.378-.94c-6.023.031-12.047.015-18.07.015-3.561,0-3.511,0-3.561-3.555-.015-1.09.314-1.294,1.336-1.288q11.143.069,22.286,0a3.538,3.538,0,0,1,2.732,1.182c3.208,3.251,6.477,6.441,9.669,9.708.811.83,1.32.656,1.893-.159,1.025-1.46,1.645-3.217,3.155-4.319.36-.263.136-.66.271-.97l.249-.311a5.856,5.856,0,0,1,1.886-2.636,1.361,1.361,0,0,0,.575-1.27l.249-.311m-53.911,71.4c0,10.786.019,21.573-.028,32.359,0,1.127.273,1.4,1.4,1.4q20.32-.064,40.64,0c1.138,0,1.392-.291,1.39-1.4q-.053-32.359,0-64.718c0-1.126-.271-1.4-1.4-1.4q-20.32.064-40.64,0c-1.139,0-1.4.291-1.39,1.4.045,10.786.027,21.573.027,32.359M74.6,9.639h67c3.039,0,2.945,0,3.078-3,.067-1.51-.334-1.86-1.851-1.858Q75.454,4.852,8.075,4.82c-3.191,0-3.117,0-3.223,3.15-.046,1.364.323,1.7,1.7,1.7Q40.576,9.6,74.6,9.639m30.714,77.154.253-.315L72.6,35.129c-.241,10.924-.237,21.709-.252,32.493a1.231,1.231,0,0,0,.681,1.3q5.315,2.875,10.586,5.828C88.547,77.506,93.46,80.3,98.4,83.055c2.289,1.277,4.612,2.493,6.92,3.737m-1.481,4.767c-4.852-2.719-9.349-5.25-13.856-7.763-6.154-3.432-12.339-6.809-18.455-10.307a3.21,3.21,0,0,0-3.547.06c-4.628,2.62-9.255,5.241-13.915,7.8a1.685,1.685,0,0,0-1,1.758c.051,2.307.1,4.621-.014,6.924-.059,1.247.275,1.561,1.54,1.557,15.86-.049,31.72-.032,47.58-.032ZM52.94,76.469c4.584-2.515,9.053-4.986,13.545-7.412a1.872,1.872,0,0,0,1.069-1.911q-.043-15.2-.018-30.408a5.619,5.619,0,0,0-.007-.6c-.019-.181.076-.41-.171-.518-.3-.133-.473.09-.624.272a7.3,7.3,0,0,0-.489.733q-9.44,14.649-18.877,29.3c-1.32,2.051-2.606,4.125-4.018,6.362,1.609,0,2.912-.028,4.213.006,2.956.077,4.718,1.433,5.376,4.178M135.005,98.96V80.312c0-3.217,0-3.154-3.289-3.242-1.242-.033-1.567.278-1.562,1.543.052,12.833.032,25.666.032,38.5,0,3.381,0,3.331,3.44,3.388,1.111.019,1.419-.247,1.409-1.39-.06-6.717-.03-13.434-.03-20.152m4.819-.345v18.647c0,3.218,0,3.155,3.289,3.242,1.242.033,1.567-.278,1.562-1.544-.052-12.833-.032-25.665-.032-38.5,0-3.382,0-3.332-3.44-3.389-1.111-.018-1.419.248-1.409,1.39.06,6.716.029,13.434.029,20.151m-2.415,36.314c-2.1,0-4.2.027-6.3-.015-.716-.014-.959.2-.933.926.052,1.449,0,2.9.027,4.353a4.77,4.77,0,0,0,4.393,4.363c1.8.019,3.608.095,5.4-.02a4.469,4.469,0,0,0,3.772-2.2c1.318-2.2.773-4.619.853-6.96.022-.637-.557-.438-.906-.44-2.1-.017-4.2-.008-6.305-.008m-.121-4.819h3.76c3.65,0,3.6,0,3.625-3.636.006-1.033-.333-1.219-1.266-1.2-3.207.053-6.416.021-9.625.021-3.649,0-3.6,0-3.625,3.636-.006,1.033.332,1.235,1.267,1.2,1.953-.066,3.91-.02,5.865-.02m6.162-58c-.481-1.273-.995-2.542-1.436-3.835a1.082,1.082,0,0,0-1.219-.818c-2.358.027-4.717.014-7.076.008-.413,0-.869-.022-1.026.434-.494,1.439-.941,2.893-1.417,4.374,4,0,7.916,0,11.829,0,.083,0,.167-.074.344-.159m-3.578-9.462c-.492-1.361-.944-2.593-1.382-3.829a.967.967,0,0,0-1.129-.7c-.539.039-.929.116-1.126.732-.327,1.024-.761,2.014-1.143,3.021-.222.585-.011.8.608.787,1.342-.028,2.686-.009,4.172-.009" transform="translate(0 -0.001)"/>
    <path id="Trazado_765469" data-name="Trazado 765469" d="M111.575,85.211a47.116,47.116,0,0,1-3.793-5.576c-1.966-2.915-3.768-5.941-5.671-8.9-1.74-2.707-3.537-5.379-5.282-8.083q-2.058-3.188-4.045-6.422c-.48-.78-.681-.678-1.147.063-1.949,3.1-4,6.141-5.972,9.225-1.535,2.4-3.017,4.824-4.523,7.238-.178.028-.3.1-.249.311a1.361,1.361,0,0,1-.575,1.27,5.851,5.851,0,0,0-1.886,2.636c-.177.028-.3.1-.249.311-.135.31.089.708-.271.97-1.511,1.1-2.13,2.86-3.155,4.319-.572.815-1.081.989-1.892.159-3.191-3.267-6.461-6.457-9.669-9.708a3.538,3.538,0,0,0-2.732-1.182q-11.143.066-22.286,0c-1.022-.006-1.351.2-1.336,1.288.05,3.555,0,3.555,3.561,3.555,6.024,0,12.047.015,18.07-.015a3.068,3.068,0,0,1,2.378.94q4.817,4.871,9.692,9.684c.571.561.54.919.129,1.555q-5.04,7.791-10,15.636a2.177,2.177,0,0,1-2.115,1.142q-12.573-.075-25.147,0c-1.123.007-1.392-.26-1.389-1.387q.059-27.555,0-55.11c0-1.128.268-1.386,1.39-1.385q63.7.049,127.394,0c1.117,0,1.4.251,1.393,1.383q-.07,18.144,0,36.288c0,1.2-.3,1.7-1.457,1.191-1.6-.7-2.921.106-4.3.685-.226-.079-.288.084-.353.241-2.068,1.492-2.385,3.941-3.227,6.071-1.673,4.232-3.172,8.532-4.818,12.775a5.315,5.315,0,0,0-.33,2.007c0,13.046-.018,26.093.025,39.139,0,1.157-.26,1.475-1.454,1.472q-34.7-.059-69.4-.005c-1.122,0-1.511-.2-1.493-1.434q.116-8.127,0-16.257c-.018-1.268.222-1.649,1.594-1.646q30.561.081,61.122.037h1.88c-1.8-2.771-3.511-5.366-5.189-7.981-2.533-3.945-5.035-7.911-7.569-11.855-3.226-5.021-6.476-10.026-9.7-15.046-.32-.5-.88-1.02-.043-1.6,2.152-1.493,3.764-3.563,5.637-5.354,2.171-2.076,3.942-5.021,6.512-6.1,2.52-1.057,5.825-.248,8.785-.251,4.316,0,8.631-.024,12.947.018.869.008,1.2-.131,1.2-1.12,0-3.718.048-3.718-3.7-3.718-6.724,0-13.449.016-20.173-.019a2.761,2.761,0,0,0-2.213.9c-2.8,2.877-5.658,5.7-8.5,8.526-1.183,1.176-2.387,2.33-3.635,3.546a16.077,16.077,0,0,1-2.54-4.22c.044-.2-.011-.286-.223-.2M49.061,52.591H40.483c-3.66,0-3.618,0-3.64,3.621-.006,1,.284,1.227,1.247,1.22,6.421-.043,12.843-.022,19.264-.022,3.716,0,3.685,0,3.636-3.772-.011-.863-.257-1.076-1.093-1.066-3.612.044-7.224.019-10.836.019m91.576,4.819h-8.578c-3.668,0-3.629,0-3.649,3.61-.005.982.251,1.24,1.235,1.233,6.421-.046,12.843-.024,19.264-.024,3.722,0,3.692,0,3.646-3.761-.01-.847-.229-1.089-1.081-1.078-3.612.047-7.224.02-10.836.02m-96.58,9.638h3.611c3.821,0,3.787,0,3.686-3.873-.022-.85-.324-.965-1.046-.959-3.26.03-6.52.013-9.779.013-3.821,0-3.787,0-3.686,3.873.022.85.323.972,1.046.959,2.056-.037,4.112-.013,6.169-.013m91.574,4.819h3.611c3.734,0,3.687,0,3.681-3.731,0-1.007-.362-1.117-1.209-1.105-3.209.044-6.419.018-9.629.018-3.734,0-3.687,0-3.681,3.731,0,1.007.361,1.128,1.21,1.105,2-.054,4.012-.018,6.018-.018m-50.57,64.909c0,2.555,0,2.555,2.565,2.555,2.255,0,2.255,0,2.255-2.264,0-2.555,0-2.555-2.565-2.555-2.255,0-2.255,0-2.255,2.264m14.458.283c0-2.547,0-2.547-2.572-2.547-2.247,0-2.247,0-2.247,2.272,0,2.547,0,2.547,2.572,2.547,2.247,0,2.247,0,2.247-2.272m7.328-2.547c-2.509,0-2.509,0-2.509,2.46,0,2.359,0,2.359,2.31,2.359,2.509,0,2.509,0,2.509-2.46,0-2.359,0-2.359-2.31-2.359m43.419-67.464c-2.555,0-2.555,0-2.555,2.565,0,2.254,0,2.254,2.264,2.254,2.555,0,2.555,0,2.555-2.565,0-2.254,0-2.254-2.264-2.254m-89.3-2.33c0-2.489,0-2.489-2.481-2.489-2.339,0-2.339,0-2.339,2.33,0,2.489,0,2.489,2.48,2.489,2.339,0,2.339,0,2.339-2.33" transform="translate(-22.345 -33.316)" fill="#fff"/>
    <path id="Trazado_765470" data-name="Trazado 765470" d="M16.1,288.79c0-10.786.018-21.573-.027-32.359,0-1.114.252-1.409,1.39-1.405q20.32.066,40.64,0c1.126,0,1.4.272,1.4,1.4q-.055,32.359,0,64.719c0,1.113-.252,1.408-1.39,1.4q-20.32-.066-40.64,0c-1.125,0-1.4-.27-1.4-1.4.047-10.786.028-21.573.028-32.359m4.819,9.482c0,6.069.022,12.137-.023,18.206-.007.979.251,1.248,1.239,1.244q15.649-.054,31.3,0c.982,0,1.244-.256,1.242-1.24q-.051-18.056,0-36.111c0-.978-.251-1.248-1.238-1.244q-15.649.054-31.3,0c-.982,0-1.25.256-1.242,1.24.046,5.968.023,11.937.023,17.905M37.795,274.33c5.214,0,10.429-.025,15.643.023.979.009,1.259-.25,1.245-1.239q-.085-6.015,0-12.031c.015-1-.287-1.233-1.252-1.23q-15.643.051-31.286,0c-.978,0-1.258.249-1.245,1.238q.085,6.015,0,12.031c-.015,1,.286,1.24,1.253,1.231,5.214-.046,10.428-.022,15.643-.022" transform="translate(-11.218 -177.952)" fill="#d2e1f1"/>
    <path id="Trazado_765471" data-name="Trazado 765471" d="M85.8,20.675q-34.028,0-68.056.033c-1.372,0-1.742-.338-1.7-1.7.106-3.148.032-3.15,3.223-3.15q67.379,0,134.757-.038c1.517,0,1.918.348,1.851,1.859-.133,2.994-.039,3-3.078,3Z" transform="translate(-11.195 -11.037)" fill="#cbd1da"/>
    <path id="Trazado_765472" data-name="Trazado 765472" d="M272.352,167.9c-2.308-1.244-4.631-2.46-6.921-3.737-4.937-2.754-9.851-5.55-14.785-8.307q-5.274-2.948-10.586-5.828a1.23,1.23,0,0,1-.681-1.3c.015-10.785.011-21.57.252-32.494L272.6,167.581l-.253.315" transform="translate(-167.034 -81.105)" fill="#e6b046"/>
    <path id="Trazado_765473" data-name="Trazado 765473" d="M226.3,260.065h-1.668c-15.86,0-31.72-.017-47.58.032-1.265,0-1.6-.31-1.54-1.557.11-2.3.065-4.616.014-6.924a1.685,1.685,0,0,1,1-1.758c4.66-2.562,9.287-5.184,13.915-7.8a3.21,3.21,0,0,1,3.547-.06c6.116,3.5,12.3,6.875,18.455,10.307,4.507,2.513,9,5.044,13.855,7.763" transform="translate(-122.465 -168.507)" fill="#91b3fa"/>
    <path id="Trazado_765474" data-name="Trazado 765474" d="M153.033,158.609c-.659-2.746-2.42-4.1-5.376-4.178-1.3-.034-2.6-.006-4.213-.006,1.412-2.238,2.7-4.311,4.018-6.362q9.431-14.655,18.877-29.3a7.264,7.264,0,0,1,.488-.733c.151-.182.32-.4.624-.272.247.108.152.337.171.518a5.619,5.619,0,0,1,.007.6q0,15.2.018,30.408a1.872,1.872,0,0,1-1.069,1.911c-4.492,2.426-8.961,4.9-13.545,7.412" transform="translate(-100.093 -82.141)" fill="#57dbd8"/>
    <path id="Trazado_765475" data-name="Trazado 765475" d="M435.516,276.9c0,6.717-.031,13.435.03,20.152.01,1.143-.3,1.408-1.409,1.39-3.439-.057-3.44-.007-3.44-3.389,0-12.833.02-25.666-.032-38.5-.005-1.266.32-1.577,1.562-1.544,3.287.088,3.289.025,3.289,3.242V276.9" transform="translate(-300.51 -177.938)" fill="#e6b046"/>
    <path id="Trazado_765476" data-name="Trazado 765476" d="M462.595,276.564c0-6.717.031-13.435-.029-20.151-.01-1.143.3-1.409,1.409-1.39,3.439.057,3.44.007,3.44,3.389,0,12.833-.02,25.666.032,38.5.005,1.266-.319,1.577-1.562,1.544-3.287-.087-3.289-.024-3.289-3.242V276.564" transform="translate(-322.769 -177.95)" fill="#e6b046"/>
    <path id="Trazado_765477" data-name="Trazado 765477" d="M437.955,446.417c2.1,0,4.2-.009,6.305.008.349,0,.927-.2.906.44-.08,2.342.464,4.755-.853,6.96a4.469,4.469,0,0,1-3.772,2.2c-1.794.115-3.6.039-5.4.02a4.77,4.77,0,0,1-4.392-4.363c-.024-1.451.025-2.9-.028-4.353-.026-.726.217-.94.933-.926,2.1.041,4.2.015,6.3.015" transform="translate(-300.546 -311.488)" fill="#e8b085"/>
    <path id="Trazado_765478" data-name="Trazado 765478" d="M437.8,419.339c-1.955,0-3.912-.046-5.865.02-.935.032-1.273-.17-1.267-1.2.021-3.636-.024-3.636,3.625-3.636,3.208,0,6.417.033,9.624-.021.934-.015,1.273.171,1.266,1.2-.021,3.636.024,3.636-3.625,3.636H437.8" transform="translate(-300.516 -289.23)" fill="#ffe99e"/>
    <path id="Trazado_765479" data-name="Trazado 765479" d="M446.552,227.847c-.178.085-.261.159-.344.159-3.914.006-7.827,0-11.829,0,.476-1.481.922-2.936,1.417-4.374.157-.456.614-.435,1.026-.434,2.359.005,4.718.019,7.076-.008a1.081,1.081,0,0,1,1.219.817c.442,1.294.955,2.562,1.436,3.835" transform="translate(-303.101 -155.741)" fill="#e6b046"/>
    <path id="Trazado_765480" data-name="Trazado 765480" d="M451.586,196.811c-1.486,0-2.829-.02-4.172.009-.619.013-.83-.2-.608-.787.383-1.007.816-2,1.143-3.021.2-.616.587-.693,1.126-.732a.967.967,0,0,1,1.129.7c.438,1.236.889,2.468,1.382,3.829" transform="translate(-311.713 -134.166)" fill="#e6b046"/>
    <path id="Trazado_765481" data-name="Trazado 765481" d="M442.542,178.795c.065-.157.127-.32.353-.241l-.353.241" transform="translate(-308.798 -124.577)" fill="#020201"/>
    <path id="Trazado_765482" data-name="Trazado 765482" d="M295.25,171.646c.212-.082.267.007.223.2l-.223-.2" transform="translate(-206.02 -119.75)" fill="#030303"/>
    <path id="Trazado_765483" data-name="Trazado 765483" d="M184.732,144.77c-.051-.211.072-.283.249-.311l-.249.311" transform="translate(-128.894 -100.801)" fill="#030303"/>
    <path id="Trazado_765484" data-name="Trazado 765484" d="M193.7,130.819c-.051-.211.072-.283.249-.311l-.249.311" transform="translate(-135.154 -91.066)" fill="#030303"/>
    <path id="Trazado_765485" data-name="Trazado 765485" d="M60.19,63.736c3.612,0,7.225.025,10.836-.019.835-.01,1.082.2,1.093,1.066.049,3.772.08,3.772-3.636,3.772-6.422,0-12.843-.021-19.264.022-.962.006-1.253-.218-1.247-1.22.022-3.62-.02-3.621,3.64-3.621H60.19" transform="translate(-33.474 -44.46)"/>
    <path id="Trazado_765486" data-name="Trazado 765486" d="M363.182,79.679c3.612,0,7.225.027,10.836-.02.851-.011,1.07.231,1.081,1.078.046,3.761.076,3.761-3.646,3.761-6.422,0-12.843-.022-19.264.024-.983.007-1.24-.251-1.234-1.233.02-3.609-.019-3.61,3.649-3.61h8.579" transform="translate(-244.889 -55.584)"/>
    <path id="Trazado_765487" data-name="Trazado 765487" d="M55.122,100.458c-2.056,0-4.113-.024-6.168.013-.723.013-1.024-.109-1.046-.959-.1-3.874-.135-3.873,3.686-3.873,3.26,0,6.52.017,9.779-.013.722-.006,1.024.108,1.046.959.1,3.874.135,3.873-3.686,3.873H55.122" transform="translate(-33.41 -66.726)"/>
    <path id="Trazado_765488" data-name="Trazado 765488" d="M358.162,116.392c-2.006,0-4.013-.037-6.018.018-.849.023-1.208-.1-1.21-1.105-.006-3.731-.053-3.731,3.681-3.731,3.21,0,6.42.026,9.629-.018.847-.011,1.208.1,1.209,1.105.006,3.731.053,3.731-3.681,3.731h-3.611" transform="translate(-244.875 -77.841)"/>
    <path id="Trazado_765489" data-name="Trazado 765489" d="M207.524,337.109c0-2.264,0-2.264,2.255-2.264,2.565,0,2.565,0,2.565,2.555,0,2.264,0,2.264-2.255,2.264-2.565,0-2.565,0-2.565-2.555" transform="translate(-144.806 -233.649)"/>
    <path id="Trazado_765490" data-name="Trazado 765490" d="M244.235,337.393c0,2.272,0,2.272-2.247,2.272-2.572,0-2.572,0-2.572-2.547,0-2.271,0-2.271,2.247-2.271,2.572,0,2.572,0,2.572,2.547" transform="translate(-167.06 -233.649)"/>
    <path id="Trazado_765491" data-name="Trazado 765491" d="M273.817,334.845c2.31,0,2.31,0,2.31,2.358,0,2.46,0,2.46-2.509,2.46-2.31,0-2.31,0-2.31-2.358,0-2.46,0-2.46,2.509-2.46" transform="translate(-189.314 -233.649)"/>
    <path id="Trazado_765492" data-name="Trazado 765492" d="M417.379,111.615c2.264,0,2.264,0,2.264,2.254,0,2.565,0,2.565-2.555,2.565-2.264,0-2.264,0-2.264-2.254,0-2.565,0-2.565,2.555-2.565" transform="translate(-289.457 -77.883)"/>
    <path id="Trazado_765493" data-name="Trazado 765493" d="M116.666,98.159c0,2.33,0,2.33-2.339,2.33-2.48,0-2.48,0-2.48-2.489,0-2.33,0-2.33,2.339-2.33,2.481,0,2.481,0,2.481,2.489" transform="translate(-78.045 -66.757)"/>
    <path id="Trazado_765494" data-name="Trazado 765494" d="M32.063,353.917c0-5.969.023-11.937-.023-17.905-.008-.985.261-1.244,1.242-1.24q15.649.054,31.3,0c.988,0,1.241.266,1.238,1.244q-.05,18.056,0,36.111c0,.984-.26,1.244-1.242,1.24q-15.649-.053-31.3,0c-.988,0-1.246-.265-1.239-1.244.045-6.069.023-12.137.023-18.206m24.1,9.795v1.2c0,4.045,0,4.029,4.065,3.632.579-.057.766-.225.762-.793-.021-2.7-.012-5.4-.006-8.094,0-.439-.036-.788-.618-.769-1.341.044-2.906-.346-3.949.226-.766.42-.17,2.123-.249,3.251-.032.447-.005.9-.005,1.349m-4.819.126v-1.349c0-4.055,0-4.037-4.08-3.618-.595.061-.751.256-.747.809.019,2.7.013,5.4,0,8.094,0,.452.062.775.633.755,1.339-.048,2.9.337,3.943-.238.751-.416.164-2.125.241-3.254.027-.4,0-.8,0-1.2m-14.458-.215v1.2c0,3.855,0,3.83,3.825,3.725.777-.021,1.04-.21,1.012-1.008-.059-1.647-.018-3.3-.018-4.946,0-3.993,0-3.975-3.975-3.722-.639.041-.878.195-.856.856.043,1.3.013,2.6.012,3.9m2.33-9.553c2.489,0,2.489,0,2.489-2.479,0-2.339,0-2.339-2.33-2.339-2.489,0-2.489,0-2.489,2.48,0,2.339,0,2.339,2.33,2.339m.075-9.638c2.414,0,2.414,0,2.414-2.405s0-2.414-2.405-2.414-2.414,0-2.414,2.405,0,2.414,2.405,2.414m9.631,0c2.421,0,2.421,0,2.421-2.4,0-2.421,0-2.421-2.4-2.421-2.421,0-2.421,0-2.421,2.4,0,2.421,0,2.421,2.4,2.421m12.06-2.33c0-2.488,0-2.488-2.479-2.488-2.34,0-2.34,0-2.34,2.33,0,2.489,0,2.489,2.48,2.489,2.339,0,2.339,0,2.339-2.33m-9.638,9.58c0-2.429,0-2.429-1.641-2.43-3.178,0-3.178,0-3.178,1.79,0,3.028,0,3.028,1.79,3.029,3.029,0,3.029,0,3.029-2.388m7.317-2.43c-2.5,0-2.5,0-2.5,2.471,0,2.348,0,2.348,2.321,2.348,2.5,0,2.5,0,2.5-2.47,0-2.349,0-2.349-2.321-2.349" transform="translate(-22.357 -233.597)"/>
    <path id="Trazado_765495" data-name="Trazado 765495" d="M48.929,285.471c-5.214,0-10.429-.024-15.642.022-.967.009-1.268-.23-1.253-1.231q.088-6.015,0-12.031c-.014-.989.267-1.241,1.245-1.238q15.643.053,31.286,0c.966,0,1.267.229,1.252,1.23q-.089,6.015,0,12.031c.014.989-.265,1.248-1.244,1.239-5.214-.048-10.429-.023-15.643-.023m.139-9.638H40.5c-3.676,0-3.633,0-3.647,3.62,0,1.012.306,1.225,1.259,1.219,6.415-.04,12.83-.021,19.244-.021,3.738,0,3.706,0,3.644-3.771-.014-.87-.278-1.075-1.1-1.066-3.608.041-7.216.018-10.825.018" transform="translate(-22.352 -189.094)"/>
    <path id="Trazado_765496" data-name="Trazado 765496" d="M111.521,419.183c0-.45-.027-.9.005-1.349.08-1.128-.516-2.831.249-3.251,1.043-.572,2.608-.183,3.949-.226.582-.019.619.33.618.769-.006,2.7-.014,5.4.006,8.094,0,.569-.183.737-.762.793-4.067.4-4.065.414-4.065-3.631Z" transform="translate(-77.719 -289.069)" fill="#ff7966"/>
    <path id="Trazado_765497" data-name="Trazado 765497" d="M84.756,419.059c0,.4.023.8,0,1.2-.077,1.129.51,2.838-.241,3.254-1.039.575-2.6.189-3.943.238-.571.021-.635-.3-.633-.755.008-2.7.014-5.4,0-8.094,0-.553.152-.748.747-.809,4.081-.419,4.08-.436,4.08,3.618Z" transform="translate(-55.773 -288.819)" fill="#ff7966"/>
    <path id="Trazado_765498" data-name="Trazado 765498" d="M48.03,419.048c0-1.3.031-2.6-.013-3.9-.022-.661.218-.815.856-.856,3.976-.253,3.975-.271,3.975,3.722,0,1.649-.041,3.3.017,4.946.028.8-.234.987-1.012,1.008-3.826.105-3.825.131-3.825-3.725q0-.6,0-1.2" transform="translate(-33.505 -289.022)" fill="#ff7966"/>
    <path id="Trazado_765499" data-name="Trazado 765499" d="M50.392,387.5c-2.33,0-2.33,0-2.33-2.339,0-2.48,0-2.48,2.489-2.48,2.33,0,2.33,0,2.33,2.339,0,2.479,0,2.479-2.489,2.479" transform="translate(-33.537 -267.027)" fill="#ff7966"/>
    <path id="Trazado_765500" data-name="Trazado 765500" d="M50.467,355.609c-2.405,0-2.405,0-2.405-2.414s0-2.405,2.414-2.405,2.405,0,2.405,2.414,0,2.405-2.414,2.405" transform="translate(-33.537 -244.775)" fill="#ff7966"/>
    <path id="Trazado_765501" data-name="Trazado 765501" d="M82.352,355.609c-2.4,0-2.4,0-2.4-2.421,0-2.4,0-2.4,2.421-2.4,2.4,0,2.4,0,2.4,2.421,0,2.4,0,2.4-2.421,2.4" transform="translate(-55.79 -244.775)" fill="#ff7966"/>
    <path id="Trazado_765502" data-name="Trazado 765502" d="M116.666,353.279c0,2.33,0,2.33-2.339,2.33-2.48,0-2.48,0-2.48-2.489,0-2.33,0-2.33,2.34-2.33,2.479,0,2.479,0,2.479,2.488" transform="translate(-78.045 -244.775)" fill="#ff7966"/>
    <path id="Trazado_765503" data-name="Trazado 765503" d="M84.773,385.111c0,2.389,0,2.389-3.029,2.388-1.792,0-1.792,0-1.79-3.029,0-1.793,0-1.793,3.178-1.79,1.641,0,1.641,0,1.641,2.43" transform="translate(-55.79 -267.027)" fill="#ff7966"/>
    <path id="Trazado_765504" data-name="Trazado 765504" d="M114.345,382.68c2.321,0,2.321,0,2.321,2.349,0,2.47,0,2.47-2.5,2.47-2.321,0-2.321,0-2.321-2.348,0-2.471,0-2.471,2.5-2.471" transform="translate(-78.045 -267.027)" fill="#ff7966"/>
    <path id="Trazado_765505" data-name="Trazado 765505" d="M60.188,286.968c3.609,0,7.217.024,10.825-.018.827-.009,1.091.2,1.1,1.066.062,3.772.093,3.771-3.644,3.771-6.415,0-12.83-.019-19.244.021-.953.006-1.263-.208-1.259-1.219.015-3.62-.028-3.62,3.647-3.62h8.57" transform="translate(-33.473 -200.228)" fill="#91b3fa"/>
  </g>
</svg>
