<svg id="Grupo_1025452" data-name="Grupo 1025452" xmlns="http://www.w3.org/2000/svg" xmlns:xlink="http://www.w3.org/1999/xlink" width="171.985" height="158.322" viewBox="0 0 171.985 158.322">
  <defs>
    <clipPath id="clip-path">
      <rect id="Rectángulo_361317" data-name="Rectángulo 361317" width="171.985" height="158.321" fill="none"/>
    </clipPath>
  </defs>
  <g id="Grupo_1025451" data-name="Grupo 1025451" clip-path="url(#clip-path)">
    <path id="Trazado_765543" data-name="Trazado 765543" d="M.06,129.872l1.162-.111a24.169,24.169,0,0,1,2.494.095c1.613.221,2.1-.451,1.7-1.942v-14a10.273,10.273,0,0,1,1.764-6.292l.734-1.072,2.269-1.95c.31-.048.709.084.8-.4a13.744,13.744,0,0,1,6.582-1.271q14.406.038,28.812.078c1.546.005,3.091.042,4.637.065l.2.474.208-.477c.9.145,2.337-.85,2.384,1.118q0,.764,0,1.528c-.162,2.7-.162,2.69-2.91,2.689-11.4,0-22.809.064-34.213-.043-3.2-.03-6.032,2.191-5.831,5.809.23,4.134.051,8.291.05,12.439,0,3.28,0,3.2,3.264,3.3,1.632.051,2.156-.506,2.122-2.117-.086-4.08.04-8.166-.059-12.246-.036-1.488.451-1.821,1.871-1.813,10.626.058,21.254.032,31.881.033a13.1,13.1,0,0,1,3.1.067c1.484.371.093,2.025,1,2.756-.708.712-.174,1.593-.325,2.38q-8.408.058-16.817.117-6.957.054-13.915.125c-1.153-.426-1.453.052-1.425,1.176.061,2.524.1,5.055-.012,7.575-.07,1.518.4,1.932,1.933,1.916,7.706-.083,15.413-.02,23.12-.058,1.125-.005,1.746.076,1.711,1.5-.077,3.23.089,6.465.086,9.7q-.012,18.552-.069,37.1-12.382.013-24.763.031a4.275,4.275,0,0,0-2.092.223l-.239-.11c.033.041.059.106.1.118s.1-.027.151-.044c.032,2.783.147,5.569.062,8.348-.051,1.652.267,2.285,2.175,2.282q60.549-.1,121.1-.049c5.586,0,5.586.014,5.586-5.627q0-30.906-.006-61.812c0-.706-.085-1.412-.131-2.118a3.135,3.135,0,0,0,0-1.96q0-.225,0-.451l.112-.1-.214-.2c-.017-.128-.034-.255-.051-.382q.033-1.17.066-2.339l3.1-.092c.758.624,2.261-1.074,2.606.836q0,.4.007.795c-.048.77-.138,1.539-.139,2.309q-.011,36.975-.01,73.95c0,.773-.063,1.546-.1,2.319-1.673.876-3.428.222-5.134.223q-65.819.048-131.638.03c-.709,0-1.418.068-2.127.1-.747-.491-.526-1.261-.53-1.945-.015-3.365-.007-6.731-.007-10.1,0-3.965,0-3.906-3.879-3.919-1.225,0-1.513.353-1.5,1.527.056,5.759.128,11.523-.035,17.278-.058,2.049.618,2.385,2.479,2.378,16.7-.064,33.394-.027,50.091-.02.04.268.128.53.44.532s.405-.258.447-.525a.63.63,0,0,0,.333-.123l1.427.072a.182.182,0,0,0,.091.208l-.238.181.286.282.37.441c.951.589,1.672,1.629,2.926,1.628,10.823-.008,21.647-.049,32.471-.028a3.135,3.135,0,0,0,2.983-1.315,3.283,3.283,0,0,1,3.006-1.4q25.964.055,51.927.049c.084.436.316.682.788.583.416-.087.387-.434.409-.745a4.29,4.29,0,0,0,.076-.575q-.022-42.537-.046-85.075a2.94,2.94,0,0,0-.758-2.281c-.964-2.181-2.732-3.164-5.47-3.041a19.714,19.714,0,0,0-4.279.016c-.577-.312-.287-.911-.449-1.361q0-.214-.007-.427-.025-.309-.05-.617c.53-.991-.706-2.481.9-3.17l2.332,0a26.575,26.575,0,0,1,6.226.8c.37.2.663.574,1.151.5a12.615,12.615,0,0,1,4.678,4.625c-.111.5.286.79.477,1.164a37.585,37.585,0,0,1,.666,5.015q.068,40.871.044,81.742c0,.9.051,1.807.077,2.711-.08.276.035.368.3.319,1.645.38,3.407-.454,5,.485.044,3.768.238,7.544-.646,11.259l-.392.779-.493,1.546-1.062,1.566-.484.723-2.244,2.176-.477.549a4.649,4.649,0,0,0-1.926.916l-3.1,1.155a28.3,28.3,0,0,1-5.7.184q-70.449.005-140.9.035a14.819,14.819,0,0,1-10.559-3.82l-.77-.8A15.862,15.862,0,0,1,.448,211.12c-.8-3.6-.2-7.229-.307-10.843l.313-.337c.578-.021,1.155-.058,1.733-.059,3.452-.006,3.452,0,3.225-3.5q.008-8.75.017-17.5c.075-.284,0-.424-.319-.34l-4.264-.107c-.066-.4-.216-.723-.691-.743q-.077-.574-.154-1.148c.029-.516.084-1.031.084-1.547Q.077,152.432.06,129.872m107.981,75.549-.141.12-.487.534c-.4.093-.408.409-.411.727-.516.055-.861.247-.683.856a.545.545,0,0,0-.091.332l-1.979-.086-.013-.007a4.1,4.1,0,0,0-2.093-.2q-17.259-.022-34.518-.012a2.9,2.9,0,0,1-2.487-.712l-.9-.872c-.448-1.125-1.377-1.138-2.4-1.135-8.289.024-16.578.005-24.867.016q-14.956.019-29.913.064l-.779.016c-.976-.15-.742.505-.691,1.039l.008,1.944q0,.389-.01.777a5.781,5.781,0,0,0,1.581,3.64l.281.251a3.365,3.365,0,0,0,2.275,1.965c.055.232.172.372.436.3a6.779,6.779,0,0,0,4.058.779q16.333,0,32.665,0,54.928,0,109.855-.01c2.927,0,5.706-.545,7.765-2.924.492-.1.439-.526.529-.869a4.623,4.623,0,0,0,1.142-2.35c.461-.77.247-1.641.382-2.458.3-1.848-.5-2.234-2.226-2.2-5.955.1-11.912.033-17.869.041q-18.353.025-36.705.063l-.756-.009a.672.672,0,0,0-.958.384M15.982,135.253c-.352-.457-.729-.421-1.123-.056h-.82a24.888,24.888,0,0,0-8.547.054c-.983.78.227,1.6-.04,2.389-.449.405-.337.947-.338,1.451q-.006,15.979,0,31.959c0,.554-.19,1.185.416,1.593l1.186.17c.449.372.985.233,1.488.234q15.766.01,31.533,0c.5,0,1.039.138,1.487-.237l.879.027c.106.188.217.172.332.008a.963.963,0,0,0,.638-.972,6.167,6.167,0,0,0,.143-.944q.012-15.862,0-31.723c0-.374.1-.781-.24-1.085a2.96,2.96,0,0,1-.144-2.808,20.472,20.472,0,0,0-8.13-.114h-.84c-.546-.384-1.062-.494-1.491.168-.007,2.973-.082,5.948.011,8.918.043,1.377-.415,1.707-1.744,1.688-4.652-.064-9.3.008-13.957.028l-.081-.091-.113.046c-.785-.462-.451-1.165-.389-1.809a19.717,19.717,0,0,0,.088-5.992q0-.487,0-.975c.128-.581.371-1.17-.114-1.711q-.054-.1-.1-.212m5.461,2.587c.067,1.437-.609,3.161,2.126,2.971,3.539-.246,3.574-.058,3.711-3.823.074-2.039-1.45-1.68-2.69-1.684-3.146-.01-3.146-.005-3.147,2.536" transform="translate(0 -62.873)" fill="#010101"/>
    <path id="Trazado_765544" data-name="Trazado 765544" d="M201.79,5.918l2.012,3.5c-.079.273.068.378.309.414l-.015-.011.505,1.928.367,1.162c-.057.278.045.393.33.319l21,.119.323.346.208,8.165q-.068.784-.135,1.569c-.284.09-.477.195-.063.4a65.532,65.532,0,0,0,9.1.142c1.4-.005,1.871.284,1.848,1.8-.083,5.694,0,11.391.025,17.087l-.128.391-.455.212.462.216.126,10.1q.005.184.01.368c-.028.84-.079,1.68-.079,2.52q-.024,30.822-.039,61.645c-.676.552-.082,1.343-.371,1.968l-.336.326c-.71.019-1.42.054-2.13.054q-35.892.016-71.783.025c-.677-.5-.518-1.228-.531-1.913q-.061-3.131-.133-6.262c.293-2.607.293-2.594-2.18-2.612-2.681-.019-5.363-.064-8.044-.1l-.337-.412q-.029-10.2-.058-20.409-.04-17.592-.073-35.183l-.016-10.968c.029-1.287.095-2.575.082-3.861-.089-8.543.266-17.091-.3-25.629,6.777-.019,13.555-.059,20.333-.038,1.148,0,1.891-.213,1.8-1.538.6-.23.207-.794.391-1.163.457-.14.337-.476.27-.794l.116-.374a20.173,20.173,0,0,0,2.332-3.939c.574-.687,1.884-.623,1.921-1.873,1.055-.1,1.452-1.185,2.324-1.561.281-.093.691.062.781-.4A20.99,20.99,0,0,1,185.842.4L187.01,0l1.166.013c1.536.207,3.135-.195,4.624.47.065.207.144.4.424.292l.788.007c.96.094,1.657,1.012,2.7.862L198.681,3.1l1.263,1.089,1.846,1.728m-4.283,23.8c-.28-.094-.363.088-.423.3l-1.148.743-.764.141c-.272-.109-.388.037-.448.274-.707-.161-1.238.376-1.879.476a3.1,3.1,0,0,1-1.8.319,30.643,30.643,0,0,1-7.126-.435l-3.665-1.828-2.968-2.72-.76-.5a1.011,1.011,0,0,0-.488-.957q-.015-.309-.031-.618c-.727-1.736-2.348-3.011-2.574-5-.095-.7-.225-1.366-1.2-1.125l-.778,0H159.391c-1.967-.478-2.932.084-2.377,2.265a3.226,3.226,0,0,1,.009.776v78.956c0,1.227-.471,2.814.121,3.592.761,1,2.414.156,3.671.16q29.171.074,58.342.034c.519,0,1.041.038,1.555-.011,1.153-.11,1.045-.681.465-1.391.064-1.226.182-2.452.183-3.678q.016-39.175.008-78.351c0-.454-.037-.911.007-1.36.084-.865-.3-1.1-1.128-1.088-4.984.07-9.968.094-14.953.134a.839.839,0,0,0-.7,1.1l0,.394-.514,1.919-2.339,3.892-1.477,1.441-1.205,1.276c-.739-.1-1.018.614-1.553.877M224.718,109.9l-41.616,0c-4.667,0-9.334-.007-14,.01-.49,0-1.342-.24-1.4.281a14.085,14.085,0,0,0,.013,4.427c.242,1.132,1.555.617,2.388.619q30.238.061,60.477.064c.545.388,1.07.538,1.522-.133l.089-2.281c.552-.612.319-1.361.319-2.049q.018-38.989,0-77.978c0-.686.243-1.437-.319-2.046v-.782c.241-.217.158-.323-.123-.362-1.671-.616-3.338.289-5.008.016-.236-.02-.381.042-.293.319q0,.424,0,.849c-.033.385-.095.769-.095,1.154q-.006,37.8,0,75.607c0,.449.068.9.105,1.348l-.205.877-1.855.064M189.181,5.533A10.307,10.307,0,0,0,183.943,6.6a10.644,10.644,0,0,0-2.592,16.771c3.283,3.326,7.149,4.411,11.712,2.654,4.011-1.544,7.44-7,6.753-11.218-.1-.638-.1-1.547-.782-1.8-.816-.306-1.194.6-1.674,1.071q-3.614,3.564-7.178,7.178a1.227,1.227,0,0,1-1.962.141,36.715,36.715,0,0,1-3.418-3.118c-2.208-2.209-2.2-2.214-.071-4.39,1.757-1.792,1.871-1.855,3.41-.038.751.886,1.246.784,1.931.1,1.712-1.714,3.4-3.455,5.154-5.123.88-.836.736-1.342-.264-1.874-1.906-1.013-3.86-1.76-5.783-1.416" transform="translate(-92.427)" fill="#010101"/>
    <path id="Trazado_765545" data-name="Trazado 765545" d="M435.2,389.624l1.062-1.566c.391.069.8.124.633.7-.256.891-.96.911-1.695.87" transform="translate(-265.855 -237.057)" fill="#fefefe"/>
    <path id="Trazado_765546" data-name="Trazado 765546" d="M.292,295.063c.476.02.625.342.691.743q-.981.219-.691-.743" transform="translate(-0.138 -180.248)" fill="#292929"/>
    <path id="Trazado_765547" data-name="Trazado 765547" d="M131.5,103.294l-.208.477-.2-.474.409,0" transform="translate(-80.081 -63.1)" fill="#141414"/>
    <path id="Trazado_765548" data-name="Trazado 765548" d="M204.572,23.814c.028.052.082.106.078.155s-.067.091-.1.137q.012-.146.026-.292" transform="translate(-124.953 -14.548)" fill="#fefefe"/>
    <path id="Trazado_765549" data-name="Trazado 765549" d="M13.13,297.21c.317-.084.394.056.319.34l-.319-.34" transform="translate(-8.021 -181.545)" fill="#e3e3e3"/>
    <path id="Trazado_765550" data-name="Trazado 765550" d="M286.5,24.618c-.24-.036-.388-.14-.309-.414Z" transform="translate(-174.814 -14.786)" fill="#fefefe"/>
    <path id="Trazado_765551" data-name="Trazado 765551" d="M289.525,33.5c-.284.074-.386-.041-.329-.319l.329.319" transform="translate(-176.655 -20.268)" fill="#e3e3e3"/>
    <path id="Trazado_765552" data-name="Trazado 765552" d="M344.36,34.61l-.323-.346c.338-.1.36.1.323.346" transform="translate(-210.165 -20.915)" fill="#141414"/>
    <path id="Trazado_765553" data-name="Trazado 765553" d="M178.838,202.145q.017-30.822.039-61.645c0-.84.051-1.68.079-2.52l.328-.294.4-.137.774.025c.133.541-.325,1.5.666,1.465,1.08-.04.848-1.044.9-1.771a1.636,1.636,0,0,0,1.887-.03l.05.382a.6.6,0,0,0,.1.3c0,.151,0,.3,0,.451q-2,.975-.005,1.96c.046.706.131,1.412.131,2.118q.011,30.906.005,61.812c0,5.641,0,5.627-5.585,5.627q-60.549-.006-121.1.049c-1.908,0-2.226-.63-2.175-2.282.085-2.779-.031-5.565-.063-8.348l-.011.036a4.278,4.278,0,0,1,2.091-.223q12.382-.024,24.763-.031c2.29.721,2.594.468,2.3-1.836a14.026,14.026,0,0,1-.034-1.746q0-20.2.007-40.395a14,14,0,0,1,.189-2.3c.426-2.521-.071-3.149-2.6-3.15-7.7,0-15.407-.035-23.11.027-1.608.013-2.2-.515-2.131-2.13.1-2.456.03-4.919.032-7.379q6.958-.062,13.915-.124,8.409-.065,16.817-.117c3.494.921,3.423.923,3.505,4.535.38,16.715-.775,33.445.523,50.158.123,1.585.577,1.709,1.725,1.71q5.149,0,10.3.009c.045,2.087.093,4.174.133,6.262.013.686-.147,1.414.531,1.913.247,1.6,1.512,1.136,2.454,1.137,22.743.019,45.486,0,68.229.056,1.679,0,3.236-.6,4.9-.563.317.008,1.339-.081,1.053-.7-.418-.905-.2-2.57-2.016-2.3" transform="translate(-33.758 -83.836)" fill="#fff"/>
    <path id="Trazado_765554" data-name="Trazado 765554" d="M118.433,365.206q18.353-.032,36.705-.063c5.957-.008,11.914.062,17.869-.041,1.728-.03,2.53.356,2.226,2.2-.134.817.079,1.688-.381,2.458-.953-.179-2.118-.85-2.629.51-.44,1.172.73,1.426,1.487,1.839-.09.342-.037.772-.53.869-1.5.307-2.795-.591-4.224-.723-.575-.053-1.415-.364-1.4.426.036,2.311-1.57,1.737-2.807,1.738q-69.868.018-139.736.012a7.693,7.693,0,0,0-2.126.068,4.008,4.008,0,0,1-2.673-.288c0-.692,1.321-.541.66-1.406a1.22,1.22,0,0,0-1.676-.492c-.963.487-1.9,1.169-3.068.56l-.281-.251c.782-1.091-.058-3.025-1.581-3.639q0-.389.01-.777c1.032-.653,1.037-1.3-.009-1.945-.05-.533-.284-1.188.692-1.039.042.24.093.51.4.5s.343-.279.383-.519q14.956-.033,29.913-.064c8.289-.011,16.578.008,24.867-.016,1.021,0,1.95.011,2.4,1.135-.521.608-.678,1.381.028,1.775.626.349.74-.428.872-.9a2.9,2.9,0,0,0,2.487.712q17.259-.009,34.518.012a4.089,4.089,0,0,1,2.092.2c-.277.314-.314.611.057.882.353.962.83,1.475,1.952.853,1.142-.633.125-1.1-.016-1.642a.542.542,0,0,1,.09-.332c.532-.042.718-.361.684-.856,0-.318.009-.634.411-.727a.737.737,0,0,0,.774.412c1.034.076,1.629-.326,1.568-1.441m-44.088,4.153c-.076-.361-.268-.646-.625-.623a1.039,1.039,0,0,0-1.013.966c-.041.412.391.438.709.418.487-.03.862-.228.929-.762" transform="translate(-8.678 -223.033)" fill="#aeaeae"/>
    <path id="Trazado_765555" data-name="Trazado 765555" d="M51.085,222.536a.963.963,0,0,1-.638.972.229.229,0,0,0-.332-.008l-.878-.027c-6.85-.039-13.7-.1-20.552-.107-4.652,0-9.3.071-13.957.111l-1.186-.17q-.041-17.5-.082-35c.267-.792-.943-1.609.04-2.389l8.546-.054h.82l1.123.056c.03.072.063.143.1.211a2.875,2.875,0,0,0,.116,1.712c0,.325,0,.649,0,.973a29,29,0,0,0-.088,5.993c-.061.644-.4,1.347.388,1.809.025.179.082.23.195.046,4.652-.02,9.306-.092,13.957-.028,1.329.018,1.787-.311,1.744-1.688-.092-2.97-.017-5.945-.01-8.918l1.491-.168h.839l8.131.114a2.959,2.959,0,0,0,.143,2.807q-.031,16.6-.054,33.2a2.186,2.186,0,0,0,.149.555" transform="translate(-8.008 -113.539)" fill="#e6b046"/>
    <path id="Trazado_765556" data-name="Trazado 765556" d="M163.715,120.991l-.774-.025c.2-3.589-.425-7.208.387-10.775,1.265.018,2.56-.376,3.776.284.016.206.033.412.049.617-.3-.105-.776-.239-.806.1-.054.61.473.362.814.329.161.45-.128,1.049.449,1.362-.033.876.246,1.509,1.25,1.507,1.257,0,2.614.166,3.029-1.523,2.738-.123,4.506.86,5.47,3.041a6.675,6.675,0,0,0-.427,4.013,17.652,17.652,0,0,1,.424,3.446q-.041,38.119-.022,76.238c0,2.593-.112,2.709-2.77,2.709q-24.116.005-48.233.005a3.452,3.452,0,0,1-2.389-.569c-.526-.426-1.184,1.5-1.846-.046-.084-.2-.928.243-1.292.62a.767.767,0,0,0-.151.9c.105.214.3.569.542.276s.336-.781.657-.072c.21.463.07.691-.429.821-1.488.386-2.817,2.123-4.551.435-.234-.228-.877-.035-1.331-.035q-12.933,0-25.867,0c-.583,0-1.3.185-1.724-.082-1.644-1.035-3-.418-4.374.5l-.37-.441q-.023-.232-.047-.463a.183.183,0,0,1-.091-.208c.251-.2.6-.507.165-.7-.638-.277-1.4-.433-1.591.623a.627.627,0,0,1-.333.122l-.888-.006c-16.7-.007-33.394-.044-50.091.02-1.862.007-2.536-.329-2.479-2.378.163-5.755.09-11.518.035-17.278-.011-1.174.277-1.531,1.5-1.527,3.879.013,3.879-.046,3.879,3.919,0,3.365-.008,6.731.007,10.1,0,.684-.218,1.453.53,1.945-.783,1.953.651,1.576,1.679,1.576q65.893.006,131.787.012a14.223,14.223,0,0,1,3.852.271,2.742,2.742,0,0,0,2.819-1.242c.458-.682-.658-.807-1.236-.974.033-.773.1-1.546.1-2.32q.008-36.975.01-73.95c0-.77.091-1.539.139-2.309.3-.045.737.028.733-.4s-.441-.35-.74-.393c-.345-1.91-1.848-.212-2.606-.837-1.067-1.087-2.108-1.262-3.1.092q-.033,1.17-.066,2.339a1.635,1.635,0,0,1-1.886.029c-.544-.013-1.135-.273-1.562.307m12.363-5.168c-.756-.318-1.522-.532-1.982.058-.294.377,0,1.071.733,1.634-.044-.951.826-1.027,1.249-1.691M32.465,199.483l-.325-.14c-.046.109-.153.24-.122.319s.2.1.307.147l.139-.325m133.178-87.222-.171-.292c-.054.1-.152.195-.152.292s.1.195.151.292l.172-.291" transform="translate(-17.011 -67.253)" fill="#aeaeae"/>
    <path id="Trazado_765557" data-name="Trazado 765557" d="M70.817,110.073l5.287-.012.016,10.968-5.035-.078c-.9-.731.488-2.385-1-2.756a13.1,13.1,0,0,0-3.1-.067c-10.627,0-21.254.025-31.881-.033-1.42-.008-1.907.325-1.87,1.813.1,4.08-.028,8.165.058,12.245.034,1.611-.491,2.168-2.122,2.117-3.262-.1-3.265-.024-3.264-3.3,0-4.147.18-8.3-.05-12.438-.2-3.619,2.627-5.84,5.831-5.81,11.4.107,22.809.04,34.213.043,2.748,0,2.748.009,2.909-2.689" transform="translate(-17.015 -67.234)" fill="#aeaeae"/>
    <path id="Trazado_765558" data-name="Trazado 765558" d="M19.141,383.945c1.167.609,2.106-.074,3.068-.56a1.22,1.22,0,0,1,1.676.492c.661.866-.661.714-.66,1.407a4.009,4.009,0,0,0,2.673.288,7.694,7.694,0,0,1,2.127-.068q69.868,0,139.736-.012c1.236,0,2.843.574,2.807-1.737-.012-.79.828-.479,1.4-.426,1.429.132,2.724,1.031,4.224.723-2.058,2.38-4.838,2.923-7.764,2.924q-54.928.025-109.856.01-16.333,0-32.665,0a6.775,6.775,0,0,1-4.058-.779l-.436-.3a3.366,3.366,0,0,1-2.275-1.965" transform="translate(-11.693 -234.102)" fill="#aeaeae"/>
    <path id="Trazado_765559" data-name="Trazado 765559" d="M171.066,214.188c1.37-.914,2.73-1.532,4.374-.5.424.267,1.142.082,1.725.082q12.933,0,25.866,0c.454,0,1.1-.192,1.331.035,1.734,1.688,3.064-.049,4.552-.435.5-.13.639-.358.429-.821-.321-.709-.4-.233-.657.073s-.437-.062-.542-.276a.767.767,0,0,1,.151-.9c.364-.377,1.209-.815,1.292-.62.661,1.544,1.319-.381,1.846.046a3.451,3.451,0,0,0,2.388.568q24.116-.007,48.233-.005c2.658,0,2.77-.116,2.77-2.709q0-38.119.021-76.239a17.677,17.677,0,0,0-.424-3.446,6.673,6.673,0,0,1,.427-4.013,2.939,2.939,0,0,1,.758,2.281q.019,42.537.046,85.075a4.227,4.227,0,0,1-.076.575l-1.2.162q-25.963-.016-51.927-.049a3.284,3.284,0,0,0-3.007,1.4,3.135,3.135,0,0,1-2.983,1.315c-10.823-.02-21.647.021-32.471.028-1.253,0-1.975-1.04-2.926-1.628" transform="translate(-104.501 -76.38)" fill="#aeaeae"/>
    <path id="Trazado_765560" data-name="Trazado 765560" d="M181.7,337.12c.579.167,1.694.292,1.236.974a2.74,2.74,0,0,1-2.819,1.242,14.236,14.236,0,0,0-3.851-.271q-65.893-.016-131.787-.012c-1.027,0-2.461.377-1.679-1.576.709-.036,1.418-.1,2.127-.1q65.819-.008,131.638-.03c1.706,0,3.461.653,5.134-.223" transform="translate(-26.008 -205.94)" fill="#aeaeae"/>
    <path id="Trazado_765561" data-name="Trazado 765561" d="M56.875,144.541c0,2.46.07,4.923-.032,7.378-.067,1.616.523,2.144,2.131,2.131,7.7-.062,15.406-.03,23.11-.027,2.53,0,3.028.628,2.6,3.15a13.91,13.91,0,0,0-.189,2.3q-.016,20.2-.007,40.395a13.95,13.95,0,0,0,.035,1.746c.29,2.3-.014,2.557-2.3,1.836q.038-18.552.069-37.1c0-3.233-.163-6.468-.086-9.7.034-1.424-.587-1.505-1.711-1.5-7.707.037-15.414-.026-23.12.057-1.532.016-2-.4-1.934-1.916.115-2.52.074-5.051.012-7.575-.028-1.124.272-1.6,1.425-1.176" transform="translate(-33.862 -88.203)" fill="#fefefe"/>
    <path id="Trazado_765562" data-name="Trazado 765562" d="M138.362,138.046l5.035.078q.036,17.592.073,35.183.023,10.2.058,20.409c-.044.265-.06.507.336.412,2.681.033,5.363.079,8.044.1,2.474.018,2.474.005,2.181,2.612q-5.149,0-10.3-.008c-1.149,0-1.6-.125-1.725-1.71-1.3-16.713-.143-33.443-.523-50.158-.082-3.612-.012-3.613-3.505-4.535.15-.788-.383-1.669.325-2.38" transform="translate(-84.292 -84.33)" fill="#fefefe"/>
    <path id="Trazado_765563" data-name="Trazado 765563" d="M55.06,188.645c0-2.541,0-2.546,3.148-2.536,1.24,0,2.764-.355,2.69,1.684-.137,3.765-.172,3.576-3.711,3.823-2.735.19-2.059-1.534-2.126-2.97" transform="translate(-33.618 -113.677)" fill="#fe7062"/>
    <path id="Trazado_765564" data-name="Trazado 765564" d="M13.444,192.141q.041,17.5.082,35c-.606-.407-.416-1.039-.416-1.592q-.014-15.979,0-31.959c0-.5-.111-1.046.338-1.451" transform="translate(-7.992 -117.375)" fill="#141414"/>
    <path id="Trazado_765565" data-name="Trazado 765565" d="M17.273,282.357c4.652-.04,9.3-.114,13.957-.111,6.851.006,13.7.068,20.552.107-.448.375-.986.237-1.488.237q-15.766.011-31.533,0c-.5,0-1.039.138-1.488-.234" transform="translate(-10.552 -172.419)" fill="#292929"/>
    <path id="Trazado_765566" data-name="Trazado 765566" d="M110.469,227.124a2.186,2.186,0,0,1-.149-.555q.019-16.6.054-33.2c.338.305.241.712.241,1.086q.007,15.861,0,31.723a6.219,6.219,0,0,1-.143.943" transform="translate(-67.392 -118.127)" fill="#656565"/>
    <path id="Trazado_765567" data-name="Trazado 765567" d="M391.3,117.049c-.414,1.69-1.772,1.521-3.029,1.523-1,0-1.284-.631-1.25-1.507a19.69,19.69,0,0,1,4.279-.016" transform="translate(-236.421 -71.437)" fill="#aeaeae"/>
    <path id="Trazado_765568" data-name="Trazado 765568" d="M421.63,378.927c-.757-.414-1.928-.667-1.487-1.839.511-1.36,1.676-.689,2.629-.51a4.622,4.622,0,0,1-1.142,2.349" transform="translate(-256.598 -229.846)" fill="#aeaeae"/>
    <path id="Trazado_765569" data-name="Trazado 765569" d="M14.358,375.083c1.523.614,2.362,2.548,1.581,3.639a5.778,5.778,0,0,1-1.581-3.639" transform="translate(-8.771 -229.131)" fill="#aeaeae"/>
    <path id="Trazado_765570" data-name="Trazado 765570" d="M269.888,372.8c.141.54,1.158,1.008.016,1.642-1.122.622-1.6.11-1.951-.852q-.022-.438-.044-.876l1.979.086" transform="translate(-163.66 -227.686)" fill="#aeaeae"/>
    <path id="Trazado_765571" data-name="Trazado 765571" d="M22.661,185.325l-8.547.054a24.908,24.908,0,0,1,8.547-.054" transform="translate(-8.622 -113.002)" fill="#292929"/>
    <path id="Trazado_765572" data-name="Trazado 765572" d="M97.325,185.425l-8.131-.114a20.474,20.474,0,0,1,8.131.114" transform="translate(-54.487 -112.988)" fill="#292929"/>
    <path id="Trazado_765573" data-name="Trazado 765573" d="M386.047,129.716c.995-1.355,2.035-1.179,3.1-.092l-3.1.092" transform="translate(-235.829 -78.653)" fill="#aeaeae"/>
    <path id="Trazado_765574" data-name="Trazado 765574" d="M41.207,199.445a29,29,0,0,1,.088-5.994,19.742,19.742,0,0,1-.088,5.994" transform="translate(-25.104 -118.175)" fill="#77c836"/>
    <path id="Trazado_765575" data-name="Trazado 765575" d="M384.688,142.1q-2-.985.005-1.96a3.135,3.135,0,0,1-.005,1.96" transform="translate(-234.389 -85.608)" fill="#fefefe"/>
    <path id="Trazado_765576" data-name="Trazado 765576" d="M165.283,368.963c-.133.475-.246,1.253-.872.9-.706-.394-.549-1.166-.028-1.774l.9.871" transform="translate(-100.145 -224.86)" fill="#aeaeae"/>
    <path id="Trazado_765577" data-name="Trazado 765577" d="M279.147,365.357c.06,1.115-.534,1.517-1.568,1.442l-.287-.946.142-.12c.524.383.828.216.957-.384l.756.009" transform="translate(-169.392 -223.184)" fill="#aeaeae"/>
    <path id="Trazado_765578" data-name="Trazado 765578" d="M166.092,349.811c.193-1.057.953-.9,1.592-.624.433.188.086.5-.165.7l-1.426-.072" transform="translate(-101.462 -213.187)" fill="#aeaeae"/>
    <path id="Trazado_765579" data-name="Trazado 765579" d="M14.361,368.088c1.046.644,1.04,1.292.008,1.945l-.008-1.945" transform="translate(-8.773 -224.858)" fill="#aeaeae"/>
    <path id="Trazado_765580" data-name="Trazado 765580" d="M400.718,133.139c.3.044.736-.031.74.393s-.434.356-.732.4q0-.4-.008-.794" transform="translate(-244.791 -81.332)" fill="#aeaeae"/>
    <path id="Trazado_765581" data-name="Trazado 765581" d="M410.872,351.169l1.2-.162c-.022.312.007.658-.409.745-.473.1-.7-.147-.788-.583" transform="translate(-250.994 -214.423)" fill="#404040"/>
    <path id="Trazado_765582" data-name="Trazado 765582" d="M41.322,188.263a2.869,2.869,0,0,1-.116-1.712c.486.542.243,1.131.116,1.712" transform="translate(-25.127 -113.96)" fill="#77c836"/>
    <path id="Trazado_765583" data-name="Trazado 765583" d="M273.838,369.887c.034.495-.152.814-.684.856-.177-.609.167-.8.684-.856" transform="translate(-166.836 -225.957)" fill="#aeaeae"/>
    <path id="Trazado_765584" data-name="Trazado 765584" d="M384.586,112.907c-.34.033-.867.281-.814-.329.03-.339.508-.2.806-.1,0,.143.005.285.008.428" transform="translate(-234.437 -68.64)" fill="#aeaeae"/>
    <path id="Trazado_765585" data-name="Trazado 765585" d="M276.527,366.644l.287.946a.737.737,0,0,1-.774-.412l.487-.534" transform="translate(-168.627 -223.976)" fill="#8c8c8c"/>
    <path id="Trazado_765586" data-name="Trazado 765586" d="M84.7,185.376l-1.491.168c.429-.662.944-.552,1.491-.168" transform="translate(-50.829 -113.054)" fill="#292929"/>
    <path id="Trazado_765587" data-name="Trazado 765587" d="M278.613,365.239c-.129.6-.433.767-.957.384a.672.672,0,0,1,.957-.384" transform="translate(-169.615 -223.075)" fill="#8c8c8c"/>
    <path id="Trazado_765588" data-name="Trazado 765588" d="M16.918,365.377c-.04.24-.083.512-.383.519s-.354-.263-.4-.5l.779-.016" transform="translate(-9.859 -223.202)" fill="#aeaeae"/>
    <path id="Trazado_765589" data-name="Trazado 765589" d="M162.955,351.408l.888.007c-.042.268-.134.528-.447.525s-.4-.264-.44-.532" transform="translate(-99.546 -214.668)" fill="#404040"/>
    <path id="Trazado_765590" data-name="Trazado 765590" d="M39.307,185.483l-1.123-.056c.394-.365.771-.4,1.123.056" transform="translate(-23.326 -113.103)" fill="#292929"/>
    <path id="Trazado_765591" data-name="Trazado 765591" d="M267.552,372.707q.022.438.044.876c-.371-.272-.333-.569-.057-.883l.013.006" transform="translate(-163.303 -227.676)" fill="#8c8c8c"/>
    <path id="Trazado_765592" data-name="Trazado 765592" d="M108.212,282.485a.229.229,0,0,1,.332.008c-.115.164-.226.181-.332-.008" transform="translate(-66.105 -172.523)" fill="#292929"/>
    <path id="Trazado_765593" data-name="Trazado 765593" d="M428.206,351.083l.3.319c-.265.049-.381-.043-.3-.319" transform="translate(-261.567 -214.47)" fill="#e3e3e3"/>
    <path id="Trazado_765594" data-name="Trazado 765594" d="M.315,352.568c-.091-.294.034-.387.313-.337l-.313.337" transform="translate(-0.175 -215.163)" fill="#292929"/>
    <path id="Trazado_765595" data-name="Trazado 765595" d="M169.618,351.829l.048.463-.286-.283.238-.181" transform="translate(-103.471 -214.925)" fill="#aeaeae"/>
    <path id="Trazado_765596" data-name="Trazado 765596" d="M42.575,213.477c-.113.184-.17.133-.195-.046,0,0,.114-.045.114-.045Z" transform="translate(-25.889 -130.353)" fill="#77c836"/>
    <path id="Trazado_765597" data-name="Trazado 765597" d="M386.109,138.515a.594.594,0,0,1-.1-.3l.214.2-.112.1" transform="translate(-235.804 -84.436)" fill="#fefefe"/>
    <path id="Trazado_765598" data-name="Trazado 765598" d="M24.987,390.132l.436.3c-.264.075-.381-.066-.436-.3" transform="translate(-15.264 -238.324)" fill="#aeaeae"/>
    <path id="Trazado_765599" data-name="Trazado 765599" d="M54.887,296.66l.011-.036c-.051.017-.108.056-.151.044s-.067-.076-.1-.118l.239.11" transform="translate(-33.383 -181.157)" fill="#8c8c8c"/>
    <path id="Trazado_765600" data-name="Trazado 765600" d="M204.852,60.987c.641-.1,1.171-.638,1.879-.476l.447-.274.764-.141c.4.606,1.062.295,1.582.462,1.681.542,1.906-.227,1.564-1.614a3.573,3.573,0,0,1-.023-.771l1.206-1.276c.323.434.754.62,1.067.1.265-.444,1.258-.78.41-1.541l2.339-3.891.745.414c.212-.806.937-1.663-.231-2.333l0-.394c.722-.054.708-.578.7-1.1,4.985-.04,9.969-.065,14.953-.134.829-.012,1.211.223,1.128,1.088-.043.449-.007.906-.007,1.36q0,39.176-.008,78.351c0,1.226-.119,2.452-.183,3.678-19.9,0-39.8-.024-59.7.04-1.877.006-2.533-.339-2.527-2.414q.12-39.573.039-79.147a9.931,9.931,0,0,1,.4-2.86h12.059c.1.195.17.528.308.559.4.091.414-.281.47-.56.977-.241,1.107.423,1.2,1.125-3.361-.217-.612,2.534-1.677,3.477-.5.44-.069.967.26,1.345a.8.8,0,0,0,1.058.137c1.03-1.047,1.966-.289,2.934.046q.015.309.031.618c-.716-.281-1.088.125-1.294.715-.067.193,0,.6.132.667a1.286,1.286,0,0,0,1.649-.424l.761.5c.13,1,.265,2.005.387,3.009.075.617-.307,1.478.986,1.254.972-.168,2.056.012,1.594-1.544l3.665,1.828c.7,2.783,1.4,3.255,4.24,2.7a4.41,4.41,0,0,1,2.063-.11c1.9.476,2.786-.411,2.626-2.47m12.057-6.676.165.088-.162-.091-.146-.505-.147.1.291.412M200.184,85.431l.8-.011c.772.042,1.544.121,2.316.122,7.442.009,14.885-.051,22.326.049,1.675.023,2.525-.3,2.241-2.106,1.988.228,2.386-.2,2.273-2.235-.115-2.069-1.62-1.015-2.574-1.2-.7.051-1.406.145-2.109.146-7.492.011-14.984,0-22.476.022-.714,0-1.585-.361-2.086.547-2.1.776-2.53,1.978-1.276,3.716.221.307.545.53.56.952l-.089.164.091-.162m-15.243-2.725c-.487.058-1.338.042-.831.767.442.632-.826,2.016.9,1.957,2.321.039,4.641.111,6.962.1,1.165,0,2.368.819,3.5-.122.881.553,1.431.222,1.733-.676a6.163,6.163,0,0,0,0-3.732c-.408-1.441-1.16-1.9-2.481-.988l-1.115-.377c-.464-.081-.852-.035-.918.549-1.658,0-3.315.011-4.973.011-2.637,0-2.637,0-2.78,2.508m-1.485,34.959-6.613-.006c-.038-.253-.067-.556-.393-.553s-.349.308-.386.56l-1.546.142c-.289-.091-.382.026-.324.3q-.006,2.329-.012,4.659c-.056.272.03.405.326.33l.777.135c-.071,1.035.588,1.107,1.379,1.1q3.2-.032,6.393,0c.607.005,1.372-.205,1.546.728.171.914.831.955,1.465.714.759-.288.417-.93.3-1.489a8.3,8.3,0,0,1,.026-4.2c.407-1.329-.2-1.784-1.329-1.981-.136-.411-.535-.327-.83-.441-.038-.253-.065-.558-.39-.558s-.351.306-.389.559m22.953-10.451q-.035,2.334-.07,4.667c-1.23.029-1.356.553-.62,1.425a2.146,2.146,0,0,0,2.175.5c4.308-.723,8.642-.242,12.962-.35a44.274,44.274,0,0,1,7.359.144c1.592.228,1.865-.395,1.9-1.551.06-1.94.033-3.883.016-5.824-.014-1.627-1.284-2.539-2.431-1.516-1.338,1.193-2.722.923-4.143.938q-5.533.061-11.067,0c-1.628-.02-3.241.291-4.776-.951-1.245-1.007-1.507.694-1.982,1.381-.416.6-.411,1.271.676,1.141m21,15.883c.291.075.387-.044.322-.323q0-2.33.009-4.66c.059-.286-.039-.408-.337-.321q-8.145-.024-16.289-.046c-4.906-.008-4.906,0-4.646,5.025-.058.275.037.4.326.325h20.616M174.531,96.272c-.263.584-.725,1.256.023,1.722.624.389,1.382.844,2.162.317,1.388-.937,2.94-.83,4.5-.829q21.58.014,43.159.012a4.084,4.084,0,0,1,2.078.209c1.009.681,1.912-.562,2.968.122.514.333.713-.654.718-1.251a12.338,12.338,0,0,1-.1-2.272c.519-2.971-.984-4.594-4.045-4.595q-22.26,0-44.52,0a17.16,17.16,0,0,1-4.8-.437c-2.113-.6-2.7-.029-2.149,1.652a7.623,7.623,0,0,0,0,5.353m-.374-21.443c.126,1.482,1.092,1.893,2.314,1.546a11.624,11.624,0,0,1,3.269-.275c14-.009,28-.034,42,.027,1.952.009,4-.59,5.879.576.4.248.879-.135,1.2-.455,1.187-1.181,2.1-2.412,1.461-4.288a8.664,8.664,0,0,1-.353-3.045c.023-.656.36-1.345-.472-1.63-.728-.249-1.713-.453-2.211.141a2.9,2.9,0,0,1-2.608.891q-23.139-.008-46.279-.006a5.433,5.433,0,0,1-2.095-.277c-2.032-.807-2.1-.739-2.124,1.5l.016,5.294m12.01,42.792.156-.085c-.046-.037-.089-.1-.137-.1s-.1.05-.155.078l.136.111m42.618-32.339q-.012.146-.025.292c.037-.045.1-.088.1-.137s-.049-.1-.079-.155" transform="translate(-104.434 -29.335)" fill="#fff"/>
    <path id="Trazado_765601" data-name="Trazado 765601" d="M256.057,161.533q-30.238-.022-60.477-.064c-.833,0-2.146.514-2.388-.619a14.086,14.086,0,0,1-.013-4.427c.058-.52.91-.279,1.4-.281,4.667-.016,9.334-.01,14-.01l41.616,0a1.541,1.541,0,0,0,1.855-.064q.1-.439.205-.877a3.055,3.055,0,0,0,.221-1.886q.015-37.069,0-74.139a3.632,3.632,0,0,0-.233-2.084q0-.424,0-.848l.293-.32c1.67.274,3.337-.632,5.008-.016a1.039,1.039,0,0,0,.123.362q0,.391,0,.782c-.029.45-.083.9-.083,1.35q-.006,39.687,0,79.373c0,.45.054.9.083,1.35l-.089,2.281-1.522.133" transform="translate(-117.905 -46.233)" fill="#d2e1f1"/>
    <path id="Trazado_765602" data-name="Trazado 765602" d="M168.094,48.018a9.928,9.928,0,0,0-.4,2.86q.025,39.573-.04,79.147c-.006,2.076.65,2.42,2.527,2.414,19.9-.064,39.8-.04,59.7-.04.58.71.688,1.281-.465,1.391-.514.049-1.037.011-1.555.011q-29.171,0-58.341-.035c-1.257,0-2.91.842-3.671-.159-.592-.778-.121-2.365-.121-3.592q0-39.478,0-78.956a3.244,3.244,0,0,0-.008-.776c-.556-2.181.409-2.744,2.377-2.265" transform="translate(-101.13 -29.237)" fill="#fefefe"/>
    <path id="Trazado_765603" data-name="Trazado 765603" d="M231.65,14.087c1.922-.344,3.877.4,5.783,1.416,1,.532,1.144,1.039.264,1.874-1.756,1.668-3.442,3.409-5.154,5.123-.684.685-1.18.788-1.931-.1-1.539-1.817-1.653-1.754-3.41.038-2.133,2.176-2.137,2.18.071,4.39a36.716,36.716,0,0,0,3.418,3.118,1.227,1.227,0,0,0,1.962-.141q3.555-3.622,7.178-7.178c.481-.474.859-1.377,1.674-1.071.682.256.678,1.164.782,1.8.687,4.222-2.742,9.674-6.753,11.218-4.564,1.757-8.43.672-11.712-2.654a10.644,10.644,0,0,1,2.592-16.771,10.307,10.307,0,0,1,5.238-1.068" transform="translate(-134.896 -8.554)" fill="#57dbd8"/>
    <path id="Trazado_765604" data-name="Trazado 765604" d="M255.7,304c1.817-.268,1.6,1.4,2.016,2.3.286.62-.736.709-1.053.7-1.665-.041-3.221.568-4.9.563-22.743-.06-45.486-.036-68.229-.056-.942,0-2.207.464-2.454-1.137q35.891-.011,71.782-.025c.71,0,1.42-.036,2.13-.055.3.082.4-.038.335-.326.289-.625-.305-1.416.371-1.968" transform="translate(-110.616 -185.689)" fill="#fefefe"/>
    <path id="Trazado_765605" data-name="Trazado 765605" d="M359.042,161.26c-.029-.45-.083-.9-.083-1.35q-.006-39.687,0-79.373c0-.45.054-.9.083-1.35.562.609.318,1.36.319,2.046q.019,38.989,0,77.978c0,.688.233,1.437-.319,2.049" transform="translate(-219.279 -48.374)" fill="#141414"/>
    <path id="Trazado_765606" data-name="Trazado 765606" d="M345.086,79.288a3.629,3.629,0,0,1,.233,2.084q.015,37.069,0,74.139a3.053,3.053,0,0,1-.221,1.887c-.037-.45-.105-.9-.105-1.349q-.008-37.8,0-75.607c0-.384.061-.769.095-1.154" transform="translate(-210.747 -48.435)" fill="#8c8c8c"/>
    <path id="Trazado_765607" data-name="Trazado 765607" d="M244.049,81.16c.161,2.059-.725,2.945-2.626,2.47a4.41,4.41,0,0,0-2.063.11c-2.837.56-3.537.088-4.24-2.7a30.6,30.6,0,0,0,7.126.435,3.1,3.1,0,0,0,1.8-.318" transform="translate(-143.63 -49.508)" fill="#fefefe"/>
    <path id="Trazado_765608" data-name="Trazado 765608" d="M207.756,56.142c-.968-.335-1.9-1.093-2.934-.046a.8.8,0,0,1-1.058-.137c-.329-.377-.758-.9-.26-1.345,1.066-.942-1.684-3.694,1.677-3.477.226,1.993,1.847,3.269,2.574,5" transform="translate(-124.178 -31.231)" fill="#fefefe"/>
    <path id="Trazado_765609" data-name="Trazado 765609" d="M374.038,110.216c-.812,3.567-.189,7.186-.387,10.775l-.4.136a1.018,1.018,0,0,0-.338-.073q-.064-5.052-.126-10.1c0-.143,0-.286-.007-.428l.128-.391,1.135.084" transform="translate(-227.722 -67.277)" fill="#aeaeae"/>
    <path id="Trazado_765610" data-name="Trazado 765610" d="M221.042,72.079c.461,1.556-.622,1.376-1.594,1.544-1.294.224-.911-.637-.986-1.254-.122-1-.258-2.006-.388-3.009l2.968,2.719" transform="translate(-133.217 -42.371)" fill="#fefefe"/>
    <path id="Trazado_765611" data-name="Trazado 765611" d="M269.132,74.1a3.573,3.573,0,0,0,.023.771c.342,1.386.117,2.156-1.564,1.614-.519-.168-1.181.144-1.582-.462l1.148-.742.423-.3c.534-.263.813-.977,1.553-.877" transform="translate(-162.5 -45.26)" fill="#fefefe"/>
    <path id="Trazado_765612" data-name="Trazado 765612" d="M213.281,66.421a1.287,1.287,0,0,1-1.65.424c-.132-.07-.2-.474-.132-.666.206-.591.577-1,1.294-.715a1.011,1.011,0,0,1,.488.957" transform="translate(-129.185 -39.935)" fill="#fefefe"/>
    <path id="Trazado_765613" data-name="Trazado 765613" d="M287.454,52.2c1.168.67.444,1.527.231,2.334l-.745-.414.514-1.919" transform="translate(-175.286 -31.887)" fill="#fefefe"/>
    <path id="Trazado_765614" data-name="Trazado 765614" d="M278.611,67.132c.848.761-.144,1.1-.41,1.541-.312.521-.744.335-1.067-.1l1.477-1.441" transform="translate(-169.296 -41.01)" fill="#fefefe"/>
    <path id="Trazado_765615" data-name="Trazado 765615" d="M288.9,48.367c.006.519.02,1.044-.7,1.1a.839.839,0,0,1,.7-1.1" transform="translate(-176.034 -29.546)" fill="#fefefe"/>
    <path id="Trazado_765616" data-name="Trazado 765616" d="M341.83,282.275a1.541,1.541,0,0,1-1.855.064l1.855-.064" transform="translate(-207.684 -172.436)" fill="#7e7e7e"/>
    <path id="Trazado_765617" data-name="Trazado 765617" d="M355.037,296.1l1.522-.133c-.453.672-.977.522-1.522.133" transform="translate(-216.885 -180.802)" fill="#292929"/>
    <path id="Trazado_765618" data-name="Trazado 765618" d="M203.859,48.266c-.056.279-.066.651-.47.56-.137-.031-.207-.364-.308-.559h.778" transform="translate(-124.058 -29.485)" fill="#fefefe"/>
    <path id="Trazado_765619" data-name="Trazado 765619" d="M372.061,111.137q0,.214.007.428l-.462-.216.455-.213" transform="translate(-227.007 -67.891)" fill="#141414"/>
    <path id="Trazado_765620" data-name="Trazado 765620" d="M269.382,76.328l-.423.3c.06-.215.143-.4.423-.3" transform="translate(-164.302 -46.612)" fill="#fff"/>
    <path id="Trazado_765621" data-name="Trazado 765621" d="M257.951,1.241l.423.292c-.28.1-.358-.085-.423-.292" transform="translate(-157.577 -0.758)" fill="#fff"/>
    <path id="Trazado_765622" data-name="Trazado 765622" d="M371.36,309.1c.062.288-.039.408-.335.326l.335-.326" transform="translate(-226.652 -188.824)" fill="#141414"/>
    <path id="Trazado_765623" data-name="Trazado 765623" d="M152.53,281.523c-.4.094-.381-.147-.336-.412l.336.412" transform="translate(-92.959 -171.725)" fill="#141414"/>
    <path id="Trazado_765624" data-name="Trazado 765624" d="M263.342,79.358l-.448.274c.061-.237.176-.383.448-.274" transform="translate(-160.597 -48.456)" fill="#fefefe"/>
    <path id="Trazado_765625" data-name="Trazado 765625" d="M358.982,76.608a1.042,1.042,0,0,1-.123-.362c.281.039.365.146.123.362" transform="translate(-219.22 -46.577)" fill="#141414"/>
    <path id="Trazado_765626" data-name="Trazado 765626" d="M344.58,60.209c.084.149.177.3-.064.4-.414-.2-.221-.306.064-.4" transform="translate(-210.312 -36.781)" fill="#aeaeae"/>
    <path id="Trazado_765627" data-name="Trazado 765627" d="M373.118,138.2a1.016,1.016,0,0,1,.338.073l-.328.295c0-.123-.007-.245-.01-.368" transform="translate(-227.931 -84.425)" fill="#fefefe"/>
    <path id="Trazado_765628" data-name="Trazado 765628" d="M345.489,76.28l-.293.32c-.088-.277.057-.34.293-.32" transform="translate(-210.858 -46.596)" fill="#8c8c8c"/>
    <path id="Trazado_765629" data-name="Trazado 765629" d="M377.015,137.511c.427-.58,1.019-.32,1.562-.307-.048.728.184,1.732-.9,1.771-.991.036-.533-.923-.666-1.465" transform="translate(-230.311 -83.773)" fill="#fefefe"/>
    <path id="Trazado_765630" data-name="Trazado 765630" d="M166.182,375.065c-.067.533-.442.731-.929.762-.318.019-.75-.006-.709-.418a1.039,1.039,0,0,1,1.013-.966c.357-.023.549.262.625.623" transform="translate(-100.515 -228.739)" fill="#aeaeae"/>
    <path id="Trazado_765631" data-name="Trazado 765631" d="M405.5,124.329c-.423.664-1.293.74-1.249,1.691-.734-.562-1.027-1.256-.733-1.634.46-.59,1.226-.376,1.982-.058" transform="translate(-246.431 -75.758)" fill="#aeaeae"/>
    <path id="Trazado_765632" data-name="Trazado 765632" d="M39,339.6l-.14.324c-.108-.047-.277-.07-.307-.147s.076-.211.122-.319L39,339.6" transform="translate(-23.551 -207.369)" fill="#aeaeae"/>
    <path id="Trazado_765633" data-name="Trazado 765633" d="M381.46,115.208l-.172.291c-.054-.1-.151-.195-.151-.292s.1-.195.152-.292l.171.292" transform="translate(-232.829 -70.2)" fill="#aeaeae"/>
    <path id="Trazado_765634" data-name="Trazado 765634" d="M179.158,108.494q-.008-2.647-.017-5.294c.776-.024,1.552-.068,2.328-.069q24.391,0,48.783,0c2.551,0,2.551,0,2.551,2.53,0,2.946,0,2.936-2.92,2.872-1.3-.028-2.592,0-3.887-.005l-46.838-.033" transform="translate(-109.434 -63)" fill="#010101"/>
    <path id="Trazado_765635" data-name="Trazado 765635" d="M179.378,163.6a7.619,7.619,0,0,1,0-5.353l48.933-.011c4.517,0,4.517,0,4.28,4.623a.723.723,0,0,0-.727.732l-52.481.01" transform="translate(-109.281 -96.664)" fill="#010101"/>
    <path id="Trazado_765636" data-name="Trazado 765636" d="M179.158,104.684l46.838.033c1.3,0,2.592-.023,3.887.005,2.919.063,2.919.073,2.92-2.872,0-2.529,0-2.53-2.551-2.53q-24.391,0-48.783,0c-.776,0-1.552.045-2.328.069.028-2.241.092-2.309,2.125-1.5a5.44,5.44,0,0,0,2.095.277q23.139,0,46.279.006a2.9,2.9,0,0,0,2.608-.891c.5-.595,1.484-.39,2.211-.141.831.284.495.973.471,1.629a8.683,8.683,0,0,0,.353,3.046c.637,1.876-.274,3.107-1.461,4.288-.321.32-.8.7-1.2.455-1.879-1.167-3.927-.568-5.879-.576-14-.061-28-.035-42-.027a11.637,11.637,0,0,0-3.269.275c-1.223.348-2.189-.063-2.314-1.545" transform="translate(-109.434 -59.19)" fill="#fefefe"/>
    <path id="Trazado_765637" data-name="Trazado 765637" d="M232.749,159.92c.238-4.623.238-4.624-4.28-4.623l-48.933.011c-.553-1.681.037-2.251,2.149-1.652a17.155,17.155,0,0,0,4.8.437q22.26.011,44.52,0c3.06,0,4.564,1.624,4.045,4.595a12.368,12.368,0,0,0,.1,2.272c0,.6-.2,1.584-.718,1.251-1.056-.684-1.958.56-2.968-.122a4.084,4.084,0,0,0-2.078-.209q-21.58-.014-43.159-.012c-1.556,0-3.109-.109-4.5.829-.78.527-1.538.071-2.162-.318-.748-.466-.286-1.138-.023-1.722l52.481-.01.777.02c.171.344.421.276.518.005.139-.386-.249-.3-.447-.365l-.121-.393" transform="translate(-109.443 -93.724)" fill="#fefefe"/>
    <path id="Trazado_765638" data-name="Trazado 765638" d="M247.907,131.036c.5-.908,1.372-.545,2.087-.547,7.492-.025,14.984-.011,22.476-.022.7,0,1.405-.1,2.109-.146.567,1.106.017,2.309.3,3.439.284,1.808-.566,2.128-2.241,2.106-7.441-.1-14.884-.04-22.326-.049-.772,0-1.544-.079-2.316-.122l-.089-4.659" transform="translate(-151.442 -79.611)" fill="#010101"/>
    <path id="Trazado_765639" data-name="Trazado 765639" d="M262.086,232.233c-.259-5.027-.259-5.033,4.646-5.025q8.145.013,16.289.046l.337.32q0,2.33-.009,4.66l-.322.323H262.412l-.326-.325" transform="translate(-160.05 -138.797)" fill="#010101"/>
    <path id="Trazado_765640" data-name="Trazado 765640" d="M261.888,204.506q.035-2.334.069-4.667c.7-.062,1.408-.175,2.112-.177,5.109-.018,10.217-.013,15.326-.015,4.015,0,3.974,0,3.983,4,0,1.057-.2,1.416-1.344,1.4-6.207-.06-12.416-.024-18.624-.039-.542,0-1.2.2-1.522-.51" transform="translate(-159.982 -121.96)" fill="#010101"/>
    <path id="Trazado_765641" data-name="Trazado 765641" d="M260.2,200.193c.323.715.981.509,1.522.51,6.208.015,12.416-.021,18.624.039,1.141.011,1.347-.347,1.344-1.4-.009-4,.032-4.005-3.983-4-5.109,0-10.217,0-15.326.015-.7,0-1.408.116-2.112.177-1.087.131-1.092-.538-.676-1.141.475-.687.737-2.389,1.982-1.381,1.535,1.242,3.148.931,4.776.951q5.532.069,11.066,0c1.422-.016,2.806.255,4.143-.938,1.147-1.022,2.418-.111,2.432,1.517.017,1.941.044,3.884-.016,5.824-.036,1.156-.309,1.78-1.9,1.551a44.312,44.312,0,0,0-7.359-.144c-4.32.108-8.654-.374-12.962.35a2.144,2.144,0,0,1-2.174-.5c-.736-.871-.611-1.4.62-1.425" transform="translate(-158.296 -117.647)" fill="#fefefe"/>
    <path id="Trazado_765642" data-name="Trazado 765642" d="M179.585,227.134l1.546-.142.779-.007,6.612.006h.779c.294.114.693.03.83.441q-.058,2.334-.116,4.667l-.326.327-9.335.139-.777-.135-.327-.331q.006-2.329.012-4.659l.325-.3" transform="translate(-109.499 -138.66)" fill="#010101"/>
    <path id="Trazado_765643" data-name="Trazado 765643" d="M217.408,135.047c-1.132.941-2.335.118-3.5.122-2.321.008-4.641-.064-6.962-.1.4-.919-.169-1.814-.068-2.725.142-2.509.142-2.508,2.78-2.508,1.657,0,3.315-.007,4.973-.011.632.362.861.05.918-.549l1.115.377c1.478,1.629.561,3.589.744,5.4" transform="translate(-126.371 -78.971)" fill="#010101"/>
    <path id="Trazado_765644" data-name="Trazado 765644" d="M182.078,233.262l9.335-.139c.289.071.389-.047.326-.327q.058-2.334.116-4.667c1.131.2,1.736.652,1.329,1.981a8.3,8.3,0,0,0-.026,4.2c.121.559.462,1.2-.3,1.489-.634.241-1.295.2-1.465-.714-.174-.933-.939-.722-1.546-.728q-3.2-.029-6.393,0c-.791.008-1.451-.064-1.379-1.1" transform="translate(-111.224 -139.36)" fill="#fefefe"/>
    <path id="Trazado_765645" data-name="Trazado 765645" d="M232.789,134.9c-.184-1.808.734-3.767-.744-5.4,1.321-.909,2.073-.452,2.481.989a6.165,6.165,0,0,1,0,3.731c-.3.9-.851,1.229-1.733.677" transform="translate(-141.752 -78.826)" fill="#fefefe"/>
    <path id="Trazado_765646" data-name="Trazado 765646" d="M316.75,133.6c-.283-1.13.267-2.334-.3-3.439.954.189,2.458-.865,2.573,1.2.113,2.036-.285,2.463-2.273,2.235" transform="translate(-193.313 -79.447)" fill="#fefefe"/>
    <path id="Trazado_765647" data-name="Trazado 765647" d="M244.8,132.159l.089,4.659-.8.011,0,0c-.015-.422-.339-.645-.56-.952-1.254-1.738-.826-2.94,1.276-3.716" transform="translate(-148.336 -80.733)" fill="#fefefe"/>
    <path id="Trazado_765648" data-name="Trazado 765648" d="M205.349,137.157c-.1.911.464,1.806.067,2.725-1.725.059-.456-1.326-.9-1.957-.507-.725.344-.709.831-.767" transform="translate(-124.841 -83.787)" fill="#fefefe"/>
    <path id="Trazado_765649" data-name="Trazado 765649" d="M184.865,226.115l-.779.007c.037-.253.063-.557.386-.56s.354.3.393.553" transform="translate(-112.455 -137.791)" fill="#fefefe"/>
    <path id="Trazado_765650" data-name="Trazado 765650" d="M203.859,226.122h-.779c.038-.253.064-.558.389-.559s.352.3.39.558" transform="translate(-124.058 -137.793)" fill="#fefefe"/>
    <path id="Trazado_765651" data-name="Trazado 765651" d="M227.739,129.226c-.057.6-.286.911-.918.549.066-.584.453-.631.918-.549" transform="translate(-138.561 -78.923)" fill="#8c8c8c"/>
    <path id="Trazado_765652" data-name="Trazado 765652" d="M288.595,63.388l-.291-.412.147-.1.147.505,0,0" transform="translate(-176.119 -38.412)" fill="#fefefe"/>
    <path id="Trazado_765653" data-name="Trazado 765653" d="M209.835,226.588l-.136-.111c.052-.028.106-.082.156-.078s.091.067.137.1l-.156.085" transform="translate(-128.101 -138.302)" fill="#fefefe"/>
    <path id="Trazado_765654" data-name="Trazado 765654" d="M319.536,143.777c.028.052.082.106.078.155s-.067.091-.1.137c.008-.1.016-.195.026-.292" transform="translate(-195.182 -87.831)" fill="#fefefe"/>
    <path id="Trazado_765655" data-name="Trazado 765655" d="M316.042,240.451l.322-.323c.065.279-.031.4-.322.323" transform="translate(-193.064 -146.69)" fill="#141414"/>
    <path id="Trazado_765656" data-name="Trazado 765656" d="M262.2,240.122l.326.325c-.29.073-.384-.05-.326-.325" transform="translate(-160.162 -146.686)" fill="#141414"/>
    <path id="Trazado_765657" data-name="Trazado 765657" d="M179.224,240.122l.326.331c-.3.075-.382-.058-.326-.331" transform="translate(-109.475 -146.686)" fill="#141414"/>
    <path id="Trazado_765658" data-name="Trazado 765658" d="M316.364,227.605l-.337-.321c.3-.087.4.034.337.321" transform="translate(-193.055 -138.827)" fill="#292929"/>
    <path id="Trazado_765659" data-name="Trazado 765659" d="M179.578,227.321l-.325.3c-.057-.278.036-.4.325-.3" transform="translate(-109.493 -138.847)" fill="#292929"/>
    <path id="Trazado_765660" data-name="Trazado 765660" d="M289.055,64.178l.161.091-.164-.088,0,0" transform="translate(-176.576 -39.205)" fill="#fefefe"/>
    <path id="Trazado_765661" data-name="Trazado 765661" d="M245.928,144.157l-.091.162.089-.164,0,0" transform="translate(-150.177 -88.061)" fill="#fefefe"/>
    <path id="Trazado_765662" data-name="Trazado 765662" d="M315.793,170.869l-.777-.02a.722.722,0,0,1,.727-.732l.121.393a.652.652,0,0,0-.07.359" transform="translate(-192.437 -103.921)" fill="#292929"/>
    <path id="Trazado_765663" data-name="Trazado 765663" d="M317.01,171.485a.653.653,0,0,1,.07-.359c.2.069.586-.021.448.365-.1.271-.347.339-.518-.005" transform="translate(-193.654 -104.538)" fill="#e3e3e3"/>
    <path id="Trazado_765664" data-name="Trazado 765664" d="M206.4,240.122c.063.281-.038.4-.326.327l.326-.327" transform="translate(-125.888 -146.686)" fill="#141414"/>
  </g>
</svg>
