<svg xmlns="http://www.w3.org/2000/svg" xmlns:xlink="http://www.w3.org/1999/xlink" width="136.934" height="135.983" viewBox="0 0 136.934 135.983">
  <defs>
    <clipPath id="clip-path">
      <rect id="Rectángulo_358518" data-name="Rectángulo 358518" width="64.737" height="67.442" fill="none"/>
    </clipPath>
  </defs>
  <g id="Grupo_1024441" data-name="Grupo 1024441" transform="translate(-263 -595.534)">
    <g id="Grupo_156356" data-name="Grupo 156356" transform="translate(263 650.743)">
      <g id="Grupo_156332" data-name="Grupo 156332" transform="translate(0 0)">
        <path id="Trazado_99257" data-name="Trazado 99257" d="M419.306,105.213a2.549,2.549,0,1,1-2.548-2.434A2.492,2.492,0,0,1,419.306,105.213Z" transform="translate(-414.214 -102.779)" fill="#12263f"/>
        <path id="Trazado_116526" data-name="Trazado 116526" d="M419.306,105.213a2.549,2.549,0,1,1-2.548-2.434A2.492,2.492,0,0,1,419.306,105.213Z" transform="translate(-356.555 -102.779)" fill="#12263f"/>
        <path id="Trazado_99258" data-name="Trazado 99258" d="M427.752,105.213a2.549,2.549,0,1,1-2.545-2.434A2.492,2.492,0,0,1,427.752,105.213Z" transform="translate(-411.129 -102.779)" fill="#12263f"/>
        <path id="Trazado_116527" data-name="Trazado 116527" d="M427.752,105.213a2.549,2.549,0,1,1-2.545-2.434A2.492,2.492,0,0,1,427.752,105.213Z" transform="translate(-353.469 -102.779)" fill="#12263f"/>
        <path id="Trazado_99259" data-name="Trazado 99259" d="M436.2,105.213a2.549,2.549,0,1,1-2.545-2.434A2.492,2.492,0,0,1,436.2,105.213Z" transform="translate(-408.043 -102.779)" fill="#12263f"/>
        <path id="Trazado_116531" data-name="Trazado 116531" d="M436.2,105.213a2.549,2.549,0,1,1-2.545-2.434A2.492,2.492,0,0,1,436.2,105.213Z" transform="translate(-350.384 -102.779)" fill="#12263f"/>
        <path id="Trazado_99260" data-name="Trazado 99260" d="M444.645,105.213a2.549,2.549,0,1,1-2.547-2.434A2.492,2.492,0,0,1,444.645,105.213Z" transform="translate(-404.958 -102.779)" fill="#12263f"/>
        <path id="Trazado_116532" data-name="Trazado 116532" d="M444.645,105.213a2.549,2.549,0,1,1-2.547-2.434A2.492,2.492,0,0,1,444.645,105.213Z" transform="translate(-347.298 -102.779)" fill="#12263f"/>
        <path id="Trazado_99261" data-name="Trazado 99261" d="M453.091,105.213a2.549,2.549,0,1,1-2.545-2.434A2.492,2.492,0,0,1,453.091,105.213Z" transform="translate(-401.872 -102.779)" fill="#12263f"/>
      </g>
      <g id="Grupo_156331" data-name="Grupo 156331" transform="translate(0 12.649)">
        <ellipse id="Elipse_3975" data-name="Elipse 3975" cx="2.546" cy="2.435" rx="2.546" ry="2.435" transform="translate(0 0.001)" fill="#12263f"/>
        <ellipse id="Elipse_4742" data-name="Elipse 4742" cx="2.546" cy="2.435" rx="2.546" ry="2.435" transform="translate(57.659 0.001)" fill="#12263f"/>
        <path id="Trazado_99268" data-name="Trazado 99268" d="M427.752,112.721a2.549,2.549,0,1,1-2.545-2.434A2.493,2.493,0,0,1,427.752,112.721Z" transform="translate(-411.129 -110.287)" fill="#12263f"/>
        <path id="Trazado_116528" data-name="Trazado 116528" d="M427.752,112.721a2.549,2.549,0,1,1-2.545-2.434A2.493,2.493,0,0,1,427.752,112.721Z" transform="translate(-353.469 -110.287)" fill="#12263f"/>
        <ellipse id="Elipse_3976" data-name="Elipse 3976" cx="2.546" cy="2.435" rx="2.546" ry="2.435" transform="translate(23.064 0.001)" fill="#12263f"/>
        <ellipse id="Elipse_4743" data-name="Elipse 4743" cx="2.546" cy="2.435" rx="2.546" ry="2.435" transform="translate(80.723 0.001)" fill="#12263f"/>
        <path id="Trazado_99269" data-name="Trazado 99269" d="M444.645,112.721a2.549,2.549,0,1,1-2.547-2.434A2.494,2.494,0,0,1,444.645,112.721Z" transform="translate(-404.958 -110.287)" fill="#12263f"/>
        <path id="Trazado_116533" data-name="Trazado 116533" d="M444.645,112.721a2.549,2.549,0,1,1-2.547-2.434A2.494,2.494,0,0,1,444.645,112.721Z" transform="translate(-347.298 -110.287)" fill="#12263f"/>
        <path id="Trazado_99270" data-name="Trazado 99270" d="M453.091,112.721a2.549,2.549,0,1,1-2.545-2.434A2.493,2.493,0,0,1,453.091,112.721Z" transform="translate(-401.872 -110.287)" fill="#12263f"/>
      </g>
      <g id="Grupo_156330" data-name="Grupo 156330" transform="translate(0 25.3)">
        <path id="Trazado_99274" data-name="Trazado 99274" d="M419.306,120.23a2.549,2.549,0,1,1-2.548-2.436A2.494,2.494,0,0,1,419.306,120.23Z" transform="translate(-414.214 -117.794)" fill="#12263f"/>
        <path id="Trazado_116529" data-name="Trazado 116529" d="M419.306,120.23a2.549,2.549,0,1,1-2.548-2.436A2.494,2.494,0,0,1,419.306,120.23Z" transform="translate(-356.555 -117.794)" fill="#12263f"/>
        <path id="Trazado_99275" data-name="Trazado 99275" d="M427.752,120.23a2.549,2.549,0,1,1-2.545-2.436A2.493,2.493,0,0,1,427.752,120.23Z" transform="translate(-411.129 -117.794)" fill="#12263f"/>
        <path id="Trazado_116530" data-name="Trazado 116530" d="M427.752,120.23a2.549,2.549,0,1,1-2.545-2.436A2.493,2.493,0,0,1,427.752,120.23Z" transform="translate(-353.469 -117.794)" fill="#12263f"/>
        <path id="Trazado_99276" data-name="Trazado 99276" d="M436.2,120.23a2.549,2.549,0,1,1-2.545-2.436A2.493,2.493,0,0,1,436.2,120.23Z" transform="translate(-408.043 -117.794)" fill="#12263f"/>
        <path id="Trazado_116534" data-name="Trazado 116534" d="M436.2,120.23a2.549,2.549,0,1,1-2.545-2.436A2.493,2.493,0,0,1,436.2,120.23Z" transform="translate(-350.384 -117.794)" fill="#12263f"/>
        <path id="Trazado_99277" data-name="Trazado 99277" d="M444.645,120.23a2.549,2.549,0,1,1-2.547-2.436A2.494,2.494,0,0,1,444.645,120.23Z" transform="translate(-404.958 -117.794)" fill="#12263f"/>
        <path id="Trazado_116535" data-name="Trazado 116535" d="M444.645,120.23a2.549,2.549,0,1,1-2.547-2.436A2.494,2.494,0,0,1,444.645,120.23Z" transform="translate(-347.298 -117.794)" fill="#12263f"/>
        <path id="Trazado_99278" data-name="Trazado 99278" d="M453.091,120.23a2.549,2.549,0,1,1-2.545-2.436A2.493,2.493,0,0,1,453.091,120.23Z" transform="translate(-401.872 -117.794)" fill="#12263f"/>
      </g>
      <g id="Grupo_156327" data-name="Grupo 156327" transform="translate(0 63.252)">
        <path id="Trazado_116550" data-name="Trazado 116550" d="M419.306,120.23a2.549,2.549,0,1,1-2.548-2.436A2.494,2.494,0,0,1,419.306,120.23Z" transform="translate(-414.214 -117.794)" fill="#12263f"/>
        <path id="Trazado_116551" data-name="Trazado 116551" d="M419.306,120.23a2.549,2.549,0,1,1-2.548-2.436A2.494,2.494,0,0,1,419.306,120.23Z" transform="translate(-356.555 -117.794)" fill="#12263f"/>
        <path id="Trazado_116552" data-name="Trazado 116552" d="M427.752,120.23a2.549,2.549,0,1,1-2.545-2.436A2.493,2.493,0,0,1,427.752,120.23Z" transform="translate(-411.129 -117.794)" fill="#12263f"/>
        <path id="Trazado_116553" data-name="Trazado 116553" d="M427.752,120.23a2.549,2.549,0,1,1-2.545-2.436A2.493,2.493,0,0,1,427.752,120.23Z" transform="translate(-353.469 -117.794)" fill="#12263f"/>
        <path id="Trazado_116554" data-name="Trazado 116554" d="M436.2,120.23a2.549,2.549,0,1,1-2.545-2.436A2.493,2.493,0,0,1,436.2,120.23Z" transform="translate(-408.043 -117.794)" fill="#12263f"/>
        <path id="Trazado_116555" data-name="Trazado 116555" d="M436.2,120.23a2.549,2.549,0,1,1-2.545-2.436A2.493,2.493,0,0,1,436.2,120.23Z" transform="translate(-350.384 -117.794)" fill="#12263f"/>
        <path id="Trazado_116556" data-name="Trazado 116556" d="M444.645,120.23a2.549,2.549,0,1,1-2.547-2.436A2.494,2.494,0,0,1,444.645,120.23Z" transform="translate(-404.958 -117.794)" fill="#12263f"/>
        <path id="Trazado_116557" data-name="Trazado 116557" d="M444.645,120.23a2.549,2.549,0,1,1-2.547-2.436A2.494,2.494,0,0,1,444.645,120.23Z" transform="translate(-347.298 -117.794)" fill="#12263f"/>
        <path id="Trazado_116558" data-name="Trazado 116558" d="M453.091,120.23a2.549,2.549,0,1,1-2.545-2.436A2.493,2.493,0,0,1,453.091,120.23Z" transform="translate(-401.872 -117.794)" fill="#12263f"/>
      </g>
      <g id="Grupo_156329" data-name="Grupo 156329" transform="translate(0 37.951)">
        <ellipse id="Elipse_3980" data-name="Elipse 3980" cx="2.546" cy="2.435" rx="2.546" ry="2.435" transform="translate(0 0.002)" fill="#12263f"/>
        <ellipse id="Elipse_4744" data-name="Elipse 4744" cx="2.546" cy="2.435" rx="2.546" ry="2.435" transform="translate(57.659 0.002)" fill="#12263f"/>
        <path id="Trazado_99285" data-name="Trazado 99285" d="M427.752,127.738a2.549,2.549,0,1,1-2.545-2.436A2.491,2.491,0,0,1,427.752,127.738Z" transform="translate(-411.129 -125.302)" fill="#12263f"/>
        <path id="Trazado_116536" data-name="Trazado 116536" d="M427.752,127.738a2.549,2.549,0,1,1-2.545-2.436A2.491,2.491,0,0,1,427.752,127.738Z" transform="translate(-353.469 -125.302)" fill="#12263f"/>
        <ellipse id="Elipse_3981" data-name="Elipse 3981" cx="2.546" cy="2.435" rx="2.546" ry="2.435" transform="translate(23.064 0.002)" fill="#12263f"/>
        <ellipse id="Elipse_4745" data-name="Elipse 4745" cx="2.546" cy="2.435" rx="2.546" ry="2.435" transform="translate(80.723 0.002)" fill="#12263f"/>
        <path id="Trazado_99286" data-name="Trazado 99286" d="M444.645,127.738A2.549,2.549,0,1,1,442.1,125.3,2.492,2.492,0,0,1,444.645,127.738Z" transform="translate(-404.958 -125.302)" fill="#12263f"/>
        <path id="Trazado_116537" data-name="Trazado 116537" d="M444.645,127.738A2.549,2.549,0,1,1,442.1,125.3,2.492,2.492,0,0,1,444.645,127.738Z" transform="translate(-347.298 -125.302)" fill="#12263f"/>
        <path id="Trazado_99287" data-name="Trazado 99287" d="M453.091,127.738a2.549,2.549,0,1,1-2.545-2.436A2.491,2.491,0,0,1,453.091,127.738Z" transform="translate(-401.872 -125.302)" fill="#12263f"/>
      </g>
      <g id="Grupo_156326" data-name="Grupo 156326" transform="translate(0 75.904)">
        <ellipse id="Elipse_4754" data-name="Elipse 4754" cx="2.546" cy="2.435" rx="2.546" ry="2.435" transform="translate(0 0.001)" fill="#12263f"/>
        <ellipse id="Elipse_4750" data-name="Elipse 4750" cx="2.546" cy="2.435" rx="2.546" ry="2.435" transform="translate(57.659 0.001)" fill="#12263f"/>
        <path id="Trazado_116548" data-name="Trazado 116548" d="M427.752,127.738a2.549,2.549,0,1,1-2.545-2.436A2.491,2.491,0,0,1,427.752,127.738Z" transform="translate(-411.129 -125.302)" fill="#12263f"/>
        <path id="Trazado_116542" data-name="Trazado 116542" d="M427.752,127.738a2.549,2.549,0,1,1-2.545-2.436A2.491,2.491,0,0,1,427.752,127.738Z" transform="translate(-353.469 -125.302)" fill="#12263f"/>
        <ellipse id="Elipse_4751" data-name="Elipse 4751" cx="2.546" cy="2.435" rx="2.546" ry="2.435" transform="translate(23.064 0.001)" fill="#12263f"/>
        <ellipse id="Elipse_4752" data-name="Elipse 4752" cx="2.546" cy="2.435" rx="2.546" ry="2.435" transform="translate(80.723 0.001)" fill="#12263f"/>
        <path id="Trazado_116543" data-name="Trazado 116543" d="M444.645,127.738A2.549,2.549,0,1,1,442.1,125.3,2.492,2.492,0,0,1,444.645,127.738Z" transform="translate(-404.958 -125.302)" fill="#12263f"/>
        <path id="Trazado_116544" data-name="Trazado 116544" d="M444.645,127.738A2.549,2.549,0,1,1,442.1,125.3,2.492,2.492,0,0,1,444.645,127.738Z" transform="translate(-347.298 -125.302)" fill="#12263f"/>
        <path id="Trazado_116545" data-name="Trazado 116545" d="M453.091,127.738a2.549,2.549,0,1,1-2.545-2.436A2.491,2.491,0,0,1,453.091,127.738Z" transform="translate(-401.872 -125.302)" fill="#12263f"/>
      </g>
      <g id="Grupo_156328" data-name="Grupo 156328" transform="translate(0 50.602)">
        <ellipse id="Elipse_3985" data-name="Elipse 3985" cx="2.546" cy="2.435" rx="2.546" ry="2.435" transform="translate(0 0.001)" fill="#12263f"/>
        <ellipse id="Elipse_4746" data-name="Elipse 4746" cx="2.546" cy="2.435" rx="2.546" ry="2.435" transform="translate(57.659 0.001)" fill="#12263f"/>
        <path id="Trazado_99291" data-name="Trazado 99291" d="M427.752,135.246a2.549,2.549,0,1,1-2.545-2.436A2.491,2.491,0,0,1,427.752,135.246Z" transform="translate(-411.129 -132.81)" fill="#12263f"/>
        <path id="Trazado_116538" data-name="Trazado 116538" d="M427.752,135.246a2.549,2.549,0,1,1-2.545-2.436A2.491,2.491,0,0,1,427.752,135.246Z" transform="translate(-353.469 -132.81)" fill="#12263f"/>
        <ellipse id="Elipse_3986" data-name="Elipse 3986" cx="2.546" cy="2.435" rx="2.546" ry="2.435" transform="translate(23.064 0.001)" fill="#12263f"/>
        <ellipse id="Elipse_4747" data-name="Elipse 4747" cx="2.546" cy="2.435" rx="2.546" ry="2.435" transform="translate(80.723 0.001)" fill="#12263f"/>
        <path id="Trazado_99292" data-name="Trazado 99292" d="M444.645,135.246a2.549,2.549,0,1,1-2.547-2.436A2.492,2.492,0,0,1,444.645,135.246Z" transform="translate(-404.958 -132.81)" fill="#12263f"/>
        <path id="Trazado_116539" data-name="Trazado 116539" d="M444.645,135.246a2.549,2.549,0,1,1-2.547-2.436A2.492,2.492,0,0,1,444.645,135.246Z" transform="translate(-347.298 -132.81)" fill="#12263f"/>
        <path id="Trazado_99293" data-name="Trazado 99293" d="M453.091,135.246a2.549,2.549,0,1,1-2.545-2.436A2.491,2.491,0,0,1,453.091,135.246Z" transform="translate(-401.872 -132.81)" fill="#12263f"/>
      </g>
    </g>
    <g id="Grupo_1015138" data-name="Grupo 1015138" transform="translate(277.562 595.534)">
      <circle id="Elipse_8447" data-name="Elipse 8447" cx="61.186" cy="61.186" r="61.186" transform="translate(0 0)" fill="#91b3fa"/>
      <circle id="Elipse_8448" data-name="Elipse 8448" cx="51.264" cy="51.264" r="51.264" transform="translate(9.922 9.922)" fill="#fff"/>
      <g id="Grupo_1024442" data-name="Grupo 1024442" transform="translate(31.938 24.76)">
        <g id="Grupo_1022567" data-name="Grupo 1022567" clip-path="url(#clip-path)">
          <path id="Trazado_751852" data-name="Trazado 751852" d="M42.709,236.546q-.011,3.719-.023,7.437c0,1.107-.445,1.552-1.551,1.553q-19.816,0-39.631.011a1.539,1.539,0,0,1-1.5-.713V208.308a.283.283,0,0,0,.132-.3c.16-.636.657-.68,1.184-.68l15.533-.022h4.494c.907.35,1.123.65,1.123,1.58,0,5.24.011,10.48-.015,15.72,0,.586.14.72.721.718,6.009-.024,12.019-.016,18.028-.014a1.293,1.293,0,0,1,1.486,1.479q.013,2.631.023,5.262v4.5M2.269,224.178c-.057,1.128-.057,1.128,1.035,1.128,5.425,0,10.85-.008,16.275.013.524,0,.655-.125.653-.651-.023-4.679-.013-9.358-.013-14.037,0-1.093,0-1.093-1.128-1.036-.959-.008-1.918,0-2.875-.032-.41-.015-.5.131-.5.516.02,1.591.011,3.183.007,4.774a1.282,1.282,0,0,1-1.442,1.461q-3.088.007-6.176,0c-1.027,0-1.363-.344-1.366-1.388,0-1.615-.012-3.23.007-4.844,0-.382-.082-.528-.5-.518-1.192.027-2.386.021-3.579,0-.337-.005-.435.1-.434.436q.026,6.81.03,13.619,0,.279,0,.558m37.042,3.4c-.958-.008-1.918,0-2.875-.032-.41-.015-.5.13-.5.515.02,1.591.011,3.183.007,4.774A1.282,1.282,0,0,1,34.5,234.3q-3.088.007-6.175,0c-1.028,0-1.365-.344-1.368-1.387,0-1.615-.012-3.23.006-4.844,0-.379-.077-.53-.493-.52-1.192.027-2.386.02-3.578,0-.335,0-.437.095-.436.433q.026,7.09.029,14.18c-.058,1.128-.058,1.128,1.036,1.128,5.425,0,10.85-.008,16.275.013.524,0,.655-.126.652-.652-.022-4.679-.013-9.358-.013-14.037,0-1.093,0-1.093-1.128-1.035m-20.22,0c-.959-.008-1.918,0-2.875-.032-.41-.015-.5.13-.5.515.02,1.591.011,3.183.007,4.774a1.282,1.282,0,0,1-1.441,1.461q-3.087.007-6.175,0c-1.028,0-1.365-.344-1.368-1.387,0-1.615-.012-3.23.007-4.844,0-.379-.077-.53-.493-.52-1.192.027-2.386.02-3.578,0-.334,0-.437.095-.436.433q.026,7.09.029,14.18c-.058,1.128-.058,1.128,1.036,1.128,5.425,0,10.85-.008,16.275.013.524,0,.655-.126.652-.652-.022-4.679-.013-9.358-.013-14.037,0-1.093,0-1.093-1.128-1.035m-5.648-15.688c0-.744.292-1.745-.077-2.165-.424-.482-1.445-.122-2.205-.144-.7-.02-1.632-.251-2.028.1-.454.4-.123,1.358-.14,2.072-.017.743-.269,1.743.105,2.165.428.482,1.446.122,2.206.144.7.021,1.628.251,2.03-.1.463-.4.075-1.36.109-2.072M9.022,229.8c.028.736-.357,1.724.114,2.139.411.363,1.377.121,2.1.1.737-.019,1.724.324,2.138-.143.363-.409.121-1.377.1-2.1-.019-.737.324-1.725-.143-2.139-.408-.363-1.377-.121-2.1-.1-.737.019-1.727-.324-2.137.143-.357.407-.074,1.376-.074,2.1m22.5-2.209c-.744,0-1.745-.292-2.163.077-.479.424-.122,1.446-.143,2.207-.02.7-.25,1.634.1,2.028.4.452,1.358.123,2.072.139.743.016,1.744.268,2.163-.108.479-.429.121-1.447.143-2.208.02-.7.249-1.63-.1-2.029-.405-.461-1.36-.075-2.072-.106" transform="translate(0 -178.105)"/>
          <path id="Trazado_751853" data-name="Trazado 751853" d="M112.78,27c-1.122-.058-1.122-.058-1.122-1.212q0-8.488,0-16.976A4.105,4.105,0,0,1,113.747,5.2a4.765,4.765,0,0,1,2.651-.7c3.319,0,6.638-.008,9.957.009.506,0,.717-.022.489-.625a19.611,19.611,0,0,1-.505-2.033A1.47,1.47,0,0,1,126.963,0h10.11c.724.98.119,1.942-.048,2.905-.088.509-.492,1.2-.294,1.464.269.359.993.118,1.519.12,2.947.012,5.894-.016,8.841.017a4.905,4.905,0,0,1,3.039.83,4.081,4.081,0,0,1,1.825,3.071c.328,5.742.053,11.489.141,17.234.007.421,0,.842,0,1.264,0,1.156,0,1.156-1.122,1.214-1.124-.058-1.124-.058-1.124-1.237q0-8.744,0-17.488a2.37,2.37,0,0,0-2.654-2.65q-2.352,0-4.7,0c-1.646,0-1.616,0-1.645,1.626-.01.568.2.641.684.632,1.5-.028,2.995-.011,4.492-.01,1.166,0,1.579.418,1.579,1.6q0,8.709,0,17.418c0,1.179,0,1.179-1.124,1.237-1.122-.058-1.122-.058-1.122-1.218,0-5.384-.008-10.768.013-16.152,0-.525-.124-.649-.648-.648q-12.845.027-25.69,0c-.523,0-.651.121-.648.647.023,4.635.013,9.27.013,13.9,0,1.16,0,1.16-1.122,1.218a1.5,1.5,0,0,0-.349-.019c-.658.117-.793-.175-.79-.8.025-5.265.013-10.53.015-15.8,0-1.042.346-1.39,1.37-1.393,1.24,0,2.479,0,3.719,0,1.68,0,1.663,0,1.662-1.674,0-.459-.127-.59-.586-.584-2.035.024-4.07.006-6.1.012a2.2,2.2,0,0,0-2.306,2.306q0,8.354,0,16.708c0,1.179,0,1.179-1.124,1.237M129.6,5.764l-.1.158c-.117.619-.6.775-1.115.811-.558.039-1.12.009-1.681.009-1.577,0-1.552,0-1.579,1.607-.009.525.128.657.653.654,3.712-.025,7.425-.013,11.138-.013,1.76,0,1.746,0,1.713-1.75-.007-.4-.116-.517-.513-.507-.957.026-1.914.011-2.872,0a.883.883,0,0,1-.987-.675l-.091-.157a9.568,9.568,0,0,1,.6-3.211c.075-.371.026-.451-.323-.45q-2.625.01-5.25,0c-.321,0-.456.04-.341.436.253.871.434,1.763.644,2.647l.1.146q0,.145,0,.29" transform="translate(-95.931)"/>
          <path id="Trazado_751854" data-name="Trazado 751854" d="M0,212.314a.449.449,0,0,0,.132-.023.283.283,0,0,1-.132.3Z" transform="translate(0 -182.391)" fill="#030303"/>
          <path id="Trazado_751855" data-name="Trazado 751855" d="M212.469,208.088c1.8-.51,3.6-1,5.393-1.534a3.332,3.332,0,0,1,2.033,6.346c-1.063.313-2.112.676-3.18.972-.783.217-.5.851-.423,1.24a16.947,16.947,0,0,1,.094,2.921c.02.562-.47.741-.9.9-.989.374-2.048.535-3.011.989a28.336,28.336,0,0,0-4.525,1.393c-.992.039-.99.038-1.239-1.045a1.687,1.687,0,0,0-.156-.525c-.235-.37-.062-.445.276-.552a3,3,0,0,0,1.133-.422c1.546-.277,3.006-.857,4.51-1.283.451-.128.9-.261,1.354-.381.172-.046.31-.128.318-.309.029-.642.178-1.412-.235-1.861-.345-.375-.945.154-1.433.279-.015,0-.023.039-.035.059a28.783,28.783,0,0,0-4.471,1.283c-.265.054-.536.086-.794.163-5.326,1.605-10.646,3.229-15.98,4.81a5.362,5.362,0,0,1-2.2.48c-1.625-.2-3.224-.533-4.831-.827a1.042,1.042,0,0,1-.861-.686,1.157,1.157,0,0,1,.264-1.277c1.181-1.086,2.32-2.218,3.487-3.32a1.526,1.526,0,0,1,.581-.337c2.3-.7,4.589-1.431,6.9-2.078,3.1-.867,6.144-1.948,9.27-2.745,1.357-.346,2.678-.833,4.016-1.256.1.007.217.055.268-.091l4.369-1.311m1.4,3.362v-.612c0-.812,0-.819-.754-.594q-8.261,2.472-16.522,4.943c-.55.164-.861.418-.531.986.246.425.1,1.1.51,1.3s.9-.207,1.355-.343c4.982-1.484,9.959-2.989,14.955-4.426.806-.232,1.21-.52.987-1.257m-24.782,8.329a1.449,1.449,0,0,0,1.072-.127,8.616,8.616,0,0,1,2.6-.906c1.669-.53,1.659-.5,1.1-2.224-.127-.39-.216-.43-.605-.29-.834.3-1.7.507-2.559.737a7.021,7.021,0,0,0-3.632,2.025c-.137.156-.44.448-.018.459.681.017,1.293.331,2.049.327m27.029-9.286c0,.187.014.374,0,.559-.051.56.1.684.667.462.7-.273,1.446-.4,2.167-.614a1.31,1.31,0,0,0,.943-1.422,1.218,1.218,0,0,0-1.493-.791,12.9,12.9,0,0,0-1.239.376c-1.04.334-1.04.336-1.043,1.429" transform="translate(-157.423 -177.348)" fill="#010100"/>
          <path id="Trazado_751856" data-name="Trazado 751856" d="M329.038,71.868l-4.369,1.311-.162-.154q.017-1.327.034-2.654c1.124-.058,1.124-.058,1.124-1.237q0-8.709,0-17.418c0-1.178-.413-1.6-1.579-1.6-1.5,0-3-.019-4.492.01-.487.009-.694-.064-.684-.632.029-1.625,0-1.626,1.645-1.626,1.568,0,3.136,0,4.7,0a2.37,2.37,0,0,1,2.654,2.65q0,8.744,0,17.488c0,1.18,0,1.18,1.124,1.238l0,2.621" transform="translate(-273.992 -41.128)" fill="#91b3fa"/>
          <path id="Trazado_751857" data-name="Trazado 751857" d="M311.056,303.7a28.347,28.347,0,0,1,4.525-1.393q0,1.177-.009,2.354c-1.125.058-1.125.058-1.125,1.237q0,4.284,0,8.568a2.378,2.378,0,0,1-2.577,2.589c-1.731-.042-3.463-.009-5.195-.009-1.179,0-1.179,0-1.237,1.125h-2.2v-4.5h2.2a1.517,1.517,0,0,1,.019.348c-.114.65.162.812.791.792,1.491-.047,2.985-.012,4.477-.016,1.022,0,1.472-.456,1.474-1.482q.006-3.15,0-6.3c0-1.172,0-1.172-1.124-1.23q-.01-1.042-.021-2.084" transform="translate(-260.528 -259.725)" fill="#91b3fa"/>
          <path id="Trazado_751858" data-name="Trazado 751858" d="M318.786,332.524c.058-1.125.058-1.125,1.237-1.125,1.732,0,3.464-.032,5.195.009a2.378,2.378,0,0,0,2.577-2.589q.006-4.284,0-8.568c0-1.18,0-1.18,1.124-1.237,1.122.057,1.122.057,1.122,1.212,0,2.807.031,5.614-.016,8.42a4.731,4.731,0,0,1-.827,3.045,4.474,4.474,0,0,1-3.661,1.965c-1.963-.04-3.928-.047-5.891.011-.71.021-.973-.169-.842-.864a1.1,1.1,0,0,0-.019-.278" transform="translate(-273.876 -274.083)"/>
          <path id="Trazado_751859" data-name="Trazado 751859" d="M175.1,122.42h-2.2q-.011-2.631-.023-5.262a1.293,1.293,0,0,0-1.486-1.479c-6.009,0-12.019-.01-18.028.014-.58,0-.724-.131-.721-.717.026-5.24.015-10.48.015-15.721,0-.93-.216-1.231-1.123-1.58q0-1.1,0-2.2c1.123-.058,1.123-.058,1.123-1.218,0-4.635.01-9.27-.014-13.9,0-.526.125-.648.648-.647q12.845.027,25.69,0c.524,0,.65.123.648.647-.022,5.384-.013,10.768-.013,16.152,0,1.161,0,1.161,1.122,1.218q-.017,1.327-.034,2.654l-.106.245c-1.338.423-2.659.91-4.016,1.256-3.126.8-6.166,1.878-9.27,2.745-2.314.646-4.606,1.374-6.9,2.078a1.526,1.526,0,0,0-.581.337c-1.167,1.1-2.306,2.234-3.487,3.32a1.157,1.157,0,0,0-.264,1.277,1.043,1.043,0,0,0,.861.686c1.608.294,3.206.63,4.831.827a5.357,5.357,0,0,0,2.2-.48c5.333-1.581,10.654-3.2,15.98-4.81.257-.078.529-.11.794-.163q0,1.107-.009,2.213a3,3,0,0,1-1.133.422c-.338.107-.511.182-.276.553a1.683,1.683,0,0,1,.157.525c.248,1.083.247,1.084,1.238,1.045q.01,1.042.021,2.084a1.085,1.085,0,0,1-.278.02c-.7-.133-.886.141-.863.847.058,1.8.008,3.6.028,5.4,0,.4-.1.516-.5.5-.935-.029-1.871-.009-2.806-.009-1.159,0-1.159,0-1.217,1.123M154.91,95.438h0c0,.771-.008,1.542,0,2.313a.979.979,0,0,0,1.062,1.063q2.172.013,4.344,0a1.237,1.237,0,0,0,1.321-1.274q.025-2.1,0-4.206a1.245,1.245,0,0,0-1.21-1.254q-2.242-.029-4.484.005a1,1,0,0,0-1.036,1.105c-.009.748,0,1.5,0,2.243m0-10.106c0,.747-.015,1.5,0,2.242a1.025,1.025,0,0,0,1.117,1.126q2.171.023,4.341,0a1.247,1.247,0,0,0,1.27-1.263q.023-2.1,0-4.2a1.25,1.25,0,0,0-1.266-1.267q-2.171-.023-4.342,0a1.023,1.023,0,0,0-1.122,1.121c-.02.747,0,1.495,0,2.242m15.727,1.126h-5.122c-1.629,0-1.6,0-1.635,1.613-.01.525.122.652.648.649,3.718-.025,7.437-.014,11.156-.014,1.712,0,1.694,0,1.7-1.683,0-.457-.116-.582-.575-.576-2.058.026-4.116.011-6.174.011m0,12.362h5.122c1.626,0,1.6,0,1.632-1.616.011-.532-.132-.648-.651-.645-3.718.025-7.437.013-11.156.013-1.71,0-1.69,0-1.7,1.686,0,.463.126.578.579.572,2.058-.025,4.116-.011,6.174-.011m2.194-4.5h2.946c1.61,0,1.579,0,1.616-1.633.013-.567-.187-.631-.671-.625-2.2.024-4.4.011-6.593.011-1.795,0-1.778,0-1.752,1.774.006.427.158.486.526.481,1.309-.019,2.618-.007,3.928-.007m-.02-10.115h2.876c1.711,0,1.692,0,1.7-1.684,0-.458-.118-.58-.576-.575-2.244.025-4.489.011-6.734.011-1.736,0-1.722,0-1.7,1.754,0,.395.107.51.5.5,1.309-.024,2.618-.009,3.928-.009m-6.668,8.931c0-1.064,0-1.064-1.043-1.064-1.2,0-1.2,0-1.2,1.183,0,1.064,0,1.064,1.043,1.064,1.2,0,1.2,0,1.2-1.184m-2.247-10.114c0,1.184,0,1.184,1.2,1.184,1.043,0,1.043,0,1.043-1.064,0-1.183,0-1.183-1.2-1.183-1.043,0-1.043,0-1.043,1.064" transform="translate(-130.195 -68.476)" fill="#e3e4e2"/>
          <path id="Trazado_751860" data-name="Trazado 751860" d="M15.934,365.637q-.011-7.09-.029-14.18c0-.338.1-.438.436-.433,1.193.017,2.386.024,3.578,0,.416-.01.5.141.493.521-.018,1.615-.011,3.229-.006,4.844,0,1.043.34,1.385,1.368,1.387q3.088.006,6.175,0a1.282,1.282,0,0,0,1.441-1.461c0-1.591.013-3.183-.007-4.774,0-.385.088-.53.5-.515.957.035,1.917.024,2.875.032a2.338,2.338,0,0,0-1.141,2.23,20.572,20.572,0,0,1-.1,3.635,8.964,8.964,0,0,1-8.725,7.6c-1.544,0-3.09.049-4.632-.017a2.3,2.3,0,0,0-2.228,1.138" transform="translate(-13.665 -301.582)" fill="#ffb900"/>
          <path id="Trazado_751861" data-name="Trazado 751861" d="M159.5,365.637q-.011-7.09-.029-14.18c0-.338.1-.438.436-.433,1.193.017,2.386.024,3.578,0,.416-.01.5.141.493.521-.018,1.615-.011,3.229-.007,4.844,0,1.043.34,1.385,1.368,1.387q3.088.006,6.175,0a1.282,1.282,0,0,0,1.441-1.461c0-1.591.013-3.183-.007-4.774,0-.385.088-.53.5-.515.957.035,1.917.024,2.875.032a2.338,2.338,0,0,0-1.141,2.23,20.57,20.57,0,0,1-.1,3.635,8.964,8.964,0,0,1-8.725,7.6c-1.544,0-3.09.049-4.632-.017a2.3,2.3,0,0,0-2.228,1.138" transform="translate(-137.007 -301.582)" fill="#ffb900"/>
          <path id="Trazado_751862" data-name="Trazado 751862" d="M15.937,237.41q-.012-6.81-.03-13.619c0-.335.1-.441.433-.436,1.193.018,2.386.025,3.579,0,.413-.009.5.137.5.518-.019,1.615-.011,3.23-.007,4.845,0,1.044.34,1.386,1.366,1.388q3.088.006,6.176,0a1.282,1.282,0,0,0,1.442-1.461c0-1.591.013-3.183-.007-4.774,0-.385.087-.531.5-.516.958.036,1.917.024,2.875.032a2.337,2.337,0,0,0-1.141,2.225,20.248,20.248,0,0,1-.1,3.628,8.949,8.949,0,0,1-8.83,7.61c-1.565,0-3.13.019-4.694-.009a2.25,2.25,0,0,0-1.662.571h-.4" transform="translate(-13.667 -191.895)" fill="#ffb900"/>
          <path id="Trazado_751863" data-name="Trazado 751863" d="M15.994,365.718a2.3,2.3,0,0,1,2.228-1.138c1.541.066,3.087.018,4.632.017a8.964,8.964,0,0,0,8.725-7.6,20.573,20.573,0,0,0,.1-3.635,2.339,2.339,0,0,1,1.141-2.23c1.128-.058,1.128-.058,1.128,1.035,0,4.679-.009,9.358.013,14.037,0,.526-.128.654-.652.652-5.425-.021-10.85-.013-16.275-.013-1.094,0-1.094,0-1.036-1.128m15.7-2.234c0-1.133,0-1.133-.765-1.134-1.482,0-1.482,0-1.482.835,0,1.413,0,1.413.834,1.413,1.412,0,1.412,0,1.412-1.114" transform="translate(-13.724 -301.663)" fill="orange"/>
          <path id="Trazado_751864" data-name="Trazado 751864" d="M159.555,365.719a2.3,2.3,0,0,1,2.228-1.138c1.541.066,3.088.018,4.632.017a8.963,8.963,0,0,0,8.724-7.6,20.578,20.578,0,0,0,.1-3.635,2.338,2.338,0,0,1,1.141-2.23c1.128-.058,1.128-.058,1.128,1.035,0,4.679-.01,9.358.013,14.037,0,.526-.128.654-.652.652-5.425-.021-10.85-.013-16.275-.013-1.094,0-1.094,0-1.036-1.128m14.645-3.368c-1.188,0-1.188,0-1.188,1.2,0,1.049,0,1.049,1.059,1.049,1.187,0,1.187,0,1.187-1.2,0-1.049,0-1.049-1.059-1.049" transform="translate(-137.065 -301.664)" fill="orange"/>
          <path id="Trazado_751865" data-name="Trazado 751865" d="M16.392,237.491a2.251,2.251,0,0,1,1.662-.571c1.564.028,3.129.009,4.694.009a8.949,8.949,0,0,0,8.83-7.61,20.248,20.248,0,0,0,.1-3.628,2.337,2.337,0,0,1,1.141-2.225c1.128-.058,1.128-.058,1.128,1.035,0,4.679-.009,9.358.013,14.037,0,.526-.129.653-.653.651-5.425-.021-10.85-.013-16.276-.013-1.093,0-1.093,0-1.035-1.128l.4-.557m15.3-1.622c0-1.188,0-1.188-1.2-1.188-1.048,0-1.048,0-1.048,1.06,0,1.188,0,1.188,1.2,1.188,1.048,0,1.048,0,1.048-1.06" transform="translate(-13.724 -191.975)" fill="orange"/>
          <path id="Trazado_751866" data-name="Trazado 751866" d="M124.123,68.065q0,1.1,0,2.2h-4.494v-2.2c1.124-.058,1.124-.058,1.124-1.237q0-8.354,0-16.708a2.2,2.2,0,0,1,2.306-2.306c2.035-.006,4.07.012,6.1-.012.459-.005.586.125.586.584,0,1.674.019,1.674-1.662,1.674-1.24,0-2.479,0-3.719,0-1.024,0-1.369.351-1.37,1.393,0,5.265.009,10.53-.015,15.8,0,.622.132.914.79.8a1.494,1.494,0,0,1,.349.019" transform="translate(-102.779 -41.069)" fill="#91b3fa"/>
          <path id="Trazado_751867" data-name="Trazado 751867" d="M67.688,225.121c-.033.713.355,1.668-.109,2.073-.4.351-1.333.12-2.03.1-.761-.022-1.779.338-2.206-.144-.375-.422-.123-1.422-.105-2.165.017-.714-.314-1.669.14-2.072.4-.352,1.332-.121,2.028-.1.761.023,1.782-.338,2.205.144.369.42.077,1.421.077,2.165" transform="translate(-54.244 -191.337)" fill="#ffd946"/>
          <path id="Trazado_751868" data-name="Trazado 751868" d="M63.316,352.748c0-.721-.283-1.69.074-2.1.411-.467,1.4-.124,2.137-.143.72-.019,1.688-.261,2.1.1.467.415.124,1.4.143,2.139.018.72.261,1.689-.1,2.1-.414.467-1.4.124-2.138.143-.72.018-1.686.261-2.1-.1-.47-.415-.085-1.4-.114-2.139" transform="translate(-54.294 -301.052)" fill="#ffd946"/>
          <path id="Trazado_751869" data-name="Trazado 751869" d="M209.061,350.617c.713.03,1.667-.356,2.072.106.351.4.121,1.333.1,2.029-.021.761.336,1.78-.143,2.208-.419.375-1.42.124-2.163.107-.714-.016-1.668.313-2.072-.139-.352-.394-.122-1.332-.1-2.028.021-.761-.336-1.783.143-2.207.417-.369,1.419-.077,2.163-.077" transform="translate(-177.542 -301.129)" fill="#ffd946"/>
          <path id="Trazado_751870" data-name="Trazado 751870" d="M16.51,323.164l-.4.557q0-.279,0-.558h.4" transform="translate(-13.842 -277.647)" fill="#feb800"/>
          <path id="Trazado_751871" data-name="Trazado 751871" d="M211.636,19.023c-.21-.884-.391-1.776-.644-2.647-.115-.4.019-.437.341-.436q2.625.008,5.249,0c.35,0,.4.079.323.45a9.567,9.567,0,0,0-.6,3.211c-.033.089.021.127.091.157a.883.883,0,0,0,.987.675c.957.007,1.915.022,2.872,0,.4-.011.505.108.513.507.033,1.75.047,1.75-1.713,1.75-3.713,0-7.425-.012-11.138.013-.525,0-.662-.129-.653-.654.026-1.606,0-1.607,1.579-1.607.56,0,1.123.03,1.681-.009.518-.037,1-.192,1.115-.811.07-.029.122-.071.1-.158v-.29c.026-.09-.036-.119-.1-.146" transform="translate(-178.073 -13.694)" fill="#57dbd8"/>
          <path id="Trazado_751872" data-name="Trazado 751872" d="M271.5,42.089c-.069-.03-.124-.068-.091-.157l.091.157" transform="translate(-233.175 -36.026)" fill="#030303"/>
          <path id="Trazado_751873" data-name="Trazado 751873" d="M238.424,40.926c.025.088-.027.129-.1.158l.1-.158" transform="translate(-204.76 -35.162)" fill="#030303"/>
          <path id="Trazado_751874" data-name="Trazado 751874" d="M238.294,37.834c.065.027.127.056.1.146l-.1-.146" transform="translate(-204.732 -32.505)" fill="#030303"/>
          <path id="Trazado_751875" data-name="Trazado 751875" d="M291.326,234c.223.738-.181,1.026-.987,1.257-5,1.437-9.973,2.942-14.955,4.426-.456.136-.944.549-1.355.343s-.264-.878-.51-1.3c-.33-.568-.019-.823.531-.986q8.264-2.46,16.522-4.942c.752-.225.754-.217.754.594,0,.164,0,.327,0,.612" transform="translate(-234.879 -199.901)" fill="#feb800"/>
          <path id="Trazado_751876" data-name="Trazado 751876" d="M211.008,279.183c-.756,0-1.368-.31-2.049-.327-.422-.01-.119-.3.018-.459a7.022,7.022,0,0,1,3.632-2.025c.858-.23,1.724-.439,2.559-.737.39-.139.478-.1.606.29.563,1.719.573,1.694-1.1,2.224a8.628,8.628,0,0,0-2.6.906,1.449,1.449,0,0,1-1.072.127" transform="translate(-179.343 -236.75)" fill="#feb800"/>
          <path id="Trazado_751877" data-name="Trazado 751877" d="M358.852,272.806q0-1.107.009-2.213a28.781,28.781,0,0,1,4.471-1.283q.015,1.107.031,2.214c-1.5.425-2.964,1.006-4.51,1.283" transform="translate(-308.31 -231.379)" fill="#91b3fa"/>
          <path id="Trazado_751878" data-name="Trazado 751878" d="M416.655,224.123c0-1.093,0-1.095,1.043-1.429a12.944,12.944,0,0,1,1.239-.376,1.218,1.218,0,0,1,1.493.791,1.31,1.31,0,0,1-.943,1.422c-.721.211-1.472.34-2.167.613-.564.222-.718.1-.667-.462.017-.185,0-.373,0-.559" transform="translate(-357.962 -190.977)" fill="#feb800"/>
          <path id="Trazado_751879" data-name="Trazado 751879" d="M357.9,226.714l.106-.245.162.154c-.05.145-.166.1-.268.091" transform="translate(-307.495 -194.572)" fill="#e1e2e0"/>
          <path id="Trazado_751880" data-name="Trazado 751880" d="M318.826,334.8c.058-1.123.058-1.123,1.217-1.123.935,0,1.872-.019,2.806.009.4.012.507-.108.5-.5-.021-1.8.03-3.6-.028-5.4-.023-.707.161-.98.863-.848a1.084,1.084,0,0,0,.278-.019c1.124.058,1.124.058,1.124,1.23q0,3.15,0,6.3c0,1.026-.452,1.479-1.474,1.482-1.493,0-2.986-.031-4.478.016-.629.02-.9-.142-.791-.792a1.511,1.511,0,0,0-.019-.348" transform="translate(-273.916 -280.858)"/>
          <path id="Trazado_751881" data-name="Trazado 751881" d="M175.465,170.888c0-.748-.007-1.5,0-2.243a1,1,0,0,1,1.036-1.1q2.242-.036,4.484-.005a1.245,1.245,0,0,1,1.21,1.254q.024,2.1,0,4.206a1.237,1.237,0,0,1-1.321,1.274q-2.172.006-4.344,0a.979.979,0,0,1-1.062-1.063c-.011-.771,0-1.542,0-2.313h0m3.4-1.113c-1.152,0-1.152,0-1.152,1.165,0,1.083,0,1.083,1.094,1.083,1.152,0,1.152,0,1.152-1.165,0-1.083,0-1.083-1.094-1.083" transform="translate(-150.75 -143.926)"/>
          <path id="Trazado_751882" data-name="Trazado 751882" d="M175.443,99.086c0-.747-.015-1.5,0-2.242a1.023,1.023,0,0,1,1.122-1.121q2.171-.022,4.342,0a1.249,1.249,0,0,1,1.266,1.267q.022,2.1,0,4.2a1.247,1.247,0,0,1-1.27,1.263q-2.171.022-4.342,0a1.025,1.025,0,0,1-1.117-1.126c-.019-.747,0-1.495,0-2.242m4.491.062c0-1.184,0-1.184-1.2-1.184-1.043,0-1.043,0-1.043,1.064,0,1.183,0,1.183,1.2,1.183,1.043,0,1.043,0,1.043-1.064" transform="translate(-150.728 -82.231)"/>
          <path id="Trazado_751883" data-name="Trazado 751883" d="M245.921,127.6c2.058,0,4.116.014,6.174-.011.459-.006.578.119.576.576-.009,1.683.009,1.683-1.7,1.683-3.719,0-7.437-.012-11.156.014-.526,0-.658-.124-.648-.649.031-1.612.006-1.613,1.635-1.613h5.122" transform="translate(-205.479 -109.619)"/>
          <path id="Trazado_751884" data-name="Trazado 751884" d="M245.935,201.652c-2.058,0-4.116-.014-6.174.011-.453.005-.582-.109-.579-.572.009-1.686-.01-1.686,1.7-1.686,3.719,0,7.437.011,11.156-.013.519,0,.662.113.652.645-.032,1.615-.006,1.616-1.632,1.616h-5.122" transform="translate(-205.494 -171.308)"/>
          <path id="Trazado_751885" data-name="Trazado 751885" d="M275.5,169.748c-1.309,0-2.619-.012-3.928.007-.368.005-.52-.054-.526-.481-.026-1.774-.043-1.774,1.752-1.774,2.2,0,4.4.014,6.593-.011.484-.005.684.058.671.625-.037,1.633-.006,1.633-1.616,1.633H275.5" transform="translate(-232.867 -143.899)"/>
          <path id="Trazado_751886" data-name="Trazado 751886" d="M275.5,97.933c-1.309,0-2.619-.015-3.928.009-.4.007-.5-.108-.5-.5-.022-1.754-.036-1.754,1.7-1.754,2.245,0,4.489.013,6.733-.011.458-.005.578.117.576.575-.009,1.683.009,1.684-1.7,1.684H275.5" transform="translate(-232.886 -82.199)"/>
          <path id="Trazado_751887" data-name="Trazado 751887" d="M241.517,168.631c0,1.183,0,1.183-1.2,1.183-1.043,0-1.043,0-1.043-1.064,0-1.184,0-1.184,1.2-1.184,1.043,0,1.043,0,1.043,1.064" transform="translate(-205.57 -143.966)"/>
          <path id="Trazado_751888" data-name="Trazado 751888" d="M239.27,96.817c0-1.064,0-1.064,1.043-1.064,1.2,0,1.2,0,1.2,1.183,0,1.064,0,1.064-1.043,1.064-1.2,0-1.2,0-1.2-1.184" transform="translate(-205.57 -82.267)"/>
          <path id="Trazado_751889" data-name="Trazado 751889" d="M113.905,432.019c0,1.114,0,1.114-1.412,1.114-.835,0-.835,0-.835-1.413,0-.836,0-.836,1.482-.835.765,0,.765,0,.765,1.134" transform="translate(-95.932 -370.198)"/>
          <path id="Trazado_751890" data-name="Trazado 751890" d="M256.408,430.887c1.059,0,1.059,0,1.059,1.049,0,1.2,0,1.2-1.187,1.2-1.059,0-1.059,0-1.059-1.049,0-1.2,0-1.2,1.188-1.2" transform="translate(-219.274 -370.199)"/>
          <path id="Trazado_751891" data-name="Trazado 751891" d="M113.906,304.4c0,1.06,0,1.06-1.048,1.06-1.2,0-1.2,0-1.2-1.188,0-1.06,0-1.06,1.048-1.06,1.2,0,1.2,0,1.2,1.188" transform="translate(-95.932 -260.51)"/>
          <path id="Trazado_751892" data-name="Trazado 751892" d="M192.568,183.527c1.095,0,1.095,0,1.095,1.083,0,1.165,0,1.165-1.152,1.165-1.094,0-1.094,0-1.094-1.082,0-1.165,0-1.165,1.152-1.165" transform="translate(-164.456 -157.678)" fill="#e3e4e2"/>
          <path id="Trazado_751893" data-name="Trazado 751893" d="M193.662,112.9c0,1.064,0,1.064-1.043,1.064-1.2,0-1.2,0-1.2-1.183,0-1.064,0-1.064,1.043-1.064,1.2,0,1.2,0,1.2,1.184" transform="translate(-164.456 -95.978)" fill="#e3e4e2"/>
        </g>
      </g>
    </g>
  </g>
</svg>
