<svg xmlns="http://www.w3.org/2000/svg" width="508" height="70" viewBox="0 0 508 70">
  <g id="Grupo_1025531" data-name="Grupo 1025531" transform="translate(3620 4745)">
    <path id="Trazado_765804" data-name="Trazado 765804" d="M-103.055,0h-1.278l1.729-9.953h1.278Zm4.648-7.4-.178.937a2.916,2.916,0,0,1,2.27-1.066,1.835,1.835,0,0,1,1.545.725A2.815,2.815,0,0,1-94.4-4.847L-95.208,0h-1.237l.813-4.862a2.592,2.592,0,0,0,.007-.621,1.022,1.022,0,0,0-1.128-.976,2.329,2.329,0,0,0-1.955,1.188L-99.624,0h-1.237l1.285-7.4Zm5.462,3.691a5.755,5.755,0,0,1,.622-2.037,3.527,3.527,0,0,1,1.2-1.36,2.736,2.736,0,0,1,1.565-.431,2.31,2.31,0,0,1,1.9.9l.711-3.862h1.237L-87.531,0h-1.128l.13-.793a2.727,2.727,0,0,1-2.16.93,2.043,2.043,0,0,1-1.634-.8,3.5,3.5,0,0,1-.656-2.082A6.647,6.647,0,0,1-92.945-3.712Zm1.189.707a2.563,2.563,0,0,0,.349,1.516,1.258,1.258,0,0,0,1.08.553,2.235,2.235,0,0,0,1.907-1.079l.588-3.414a1.535,1.535,0,0,0-1.49-1.038,1.875,1.875,0,0,0-1.289.44,2.849,2.849,0,0,0-.848,1.29A5.321,5.321,0,0,0-91.755-3.005ZM-84.236,0h-1.23l1.285-7.4h1.23Zm1.019-10.1a.677.677,0,0,1,.523.188.7.7,0,0,1,.208.53.743.743,0,0,1-.208.526.748.748,0,0,1-.523.219.682.682,0,0,1-.526-.185.669.669,0,0,1-.2-.52.775.775,0,0,1,.205-.533A.723.723,0,0,1-83.217-10.1Zm4.129,9.208a1.877,1.877,0,0,0,1.2-.386,1.837,1.837,0,0,0,.7-1.049l1.169-.007a2.637,2.637,0,0,1-.557,1.271,3.109,3.109,0,0,1-1.145.9,3.107,3.107,0,0,1-1.415.3,2.64,2.64,0,0,1-1.562-.482,2.7,2.7,0,0,1-.94-1.306,4.35,4.35,0,0,1-.205-1.883l.034-.342a4.9,4.9,0,0,1,.622-1.907,3.6,3.6,0,0,1,1.285-1.309,3.192,3.192,0,0,1,1.75-.441,2.5,2.5,0,0,1,1.859.779,2.7,2.7,0,0,1,.7,1.907l-1.155-.007a1.775,1.775,0,0,0-.4-1.172A1.406,1.406,0,0,0-78.213-6.5a1.972,1.972,0,0,0-1.6.718,3.76,3.76,0,0,0-.8,2.064l-.021.178a5.929,5.929,0,0,0-.014.9A2.061,2.061,0,0,0-80.2-1.374,1.449,1.449,0,0,0-79.088-.889ZM-70.509,0a1.657,1.657,0,0,1-.048-.39l.021-.39A3.032,3.032,0,0,1-72.7.137a2.21,2.21,0,0,1-1.589-.619A1.872,1.872,0,0,1-74.843-2a2.277,2.277,0,0,1,1.029-1.835,4.38,4.38,0,0,1,2.526-.66L-70-4.484l.082-.588a1.352,1.352,0,0,0-.256-1.049,1.237,1.237,0,0,0-.974-.4,1.908,1.908,0,0,0-1.125.311,1.324,1.324,0,0,0-.6.858l-1.244.007A1.983,1.983,0,0,1-73.606-6.5a2.943,2.943,0,0,1,1.142-.779,3.688,3.688,0,0,1,1.442-.263,2.452,2.452,0,0,1,1.8.7,2.173,2.173,0,0,1,.54,1.788l-.6,3.664-.034.526a2.58,2.58,0,0,0,.082.745L-69.251,0Zm-1.941-.957a2.158,2.158,0,0,0,1.125-.284,2.847,2.847,0,0,0,.913-.824l.267-1.524-.937-.007a3.547,3.547,0,0,0-1.791.369,1.36,1.36,0,0,0-.7,1.046,1.059,1.059,0,0,0,.243.865A1.156,1.156,0,0,0-72.451-.957Zm5.229-2.755A5.755,5.755,0,0,1-66.6-5.749a3.527,3.527,0,0,1,1.2-1.36,2.736,2.736,0,0,1,1.565-.431,2.31,2.31,0,0,1,1.9.9l.711-3.862h1.237L-61.807,0h-1.128l.13-.793a2.727,2.727,0,0,1-2.16.93,2.043,2.043,0,0,1-1.634-.8,3.5,3.5,0,0,1-.656-2.082A6.647,6.647,0,0,1-67.221-3.712Zm1.189.707a2.563,2.563,0,0,0,.349,1.516,1.258,1.258,0,0,0,1.08.553A2.235,2.235,0,0,0-62.7-2.015l.588-3.414A1.535,1.535,0,0,0-63.6-6.467a1.875,1.875,0,0,0-1.289.44,2.849,2.849,0,0,0-.848,1.29A5.321,5.321,0,0,0-66.032-3.005Zm10.288-4.528a2.666,2.666,0,0,1,1.593.506A2.874,2.874,0,0,1-53.17-5.67a4.2,4.2,0,0,1,.215,1.89l-.014.15a4.975,4.975,0,0,1-.643,1.952A3.77,3.77,0,0,1-54.937-.321a3.234,3.234,0,0,1-1.784.458,2.671,2.671,0,0,1-1.589-.506,2.809,2.809,0,0,1-.974-1.34A4.314,4.314,0,0,1-59.5-3.575a5.04,5.04,0,0,1,.622-2.064,3.858,3.858,0,0,1,1.336-1.418A3.2,3.2,0,0,1-55.744-7.533Zm-2.516,3.965a4.2,4.2,0,0,0,0,.9,2.194,2.194,0,0,0,.482,1.285,1.447,1.447,0,0,0,1.1.5,1.971,1.971,0,0,0,1.135-.3,2.554,2.554,0,0,0,.875-.981,4.131,4.131,0,0,0,.458-1.456,6.558,6.558,0,0,0,.021-1.06A2.277,2.277,0,0,0-54.684-6,1.479,1.479,0,0,0-55.792-6.5a2.016,2.016,0,0,0-1.627.752,3.715,3.715,0,0,0-.827,2.023Zm10.821-2.7-.581-.062a2.117,2.117,0,0,0-1.873,1.073L-50.8,0h-1.237l1.285-7.4,1.2-.007-.185.861a2.211,2.211,0,0,1,1.853-1,2.27,2.27,0,0,1,.588.1Zm3.849,2.557a5.755,5.755,0,0,1,.622-2.037,3.527,3.527,0,0,1,1.2-1.36,2.736,2.736,0,0,1,1.565-.431,2.31,2.31,0,0,1,1.9.9l.711-3.862h1.237L-38.175,0H-39.3l.13-.793a2.727,2.727,0,0,1-2.16.93,2.043,2.043,0,0,1-1.634-.8,3.5,3.5,0,0,1-.656-2.082A6.648,6.648,0,0,1-43.589-3.712Zm1.189.707a2.563,2.563,0,0,0,.349,1.516,1.258,1.258,0,0,0,1.08.553,2.235,2.235,0,0,0,1.907-1.079l.588-3.414a1.535,1.535,0,0,0-1.49-1.038,1.875,1.875,0,0,0-1.289.44,2.849,2.849,0,0,0-.848,1.29A5.322,5.322,0,0,0-42.4-3.005ZM-33.021.137a2.667,2.667,0,0,1-2.16-1.019,3.505,3.505,0,0,1-.656-2.536l.034-.294a4.921,4.921,0,0,1,.653-2.01,3.8,3.8,0,0,1,1.309-1.371,3.054,3.054,0,0,1,1.668-.441,2.352,2.352,0,0,1,1.791.759,3.121,3.121,0,0,1,.711,1.982A5.793,5.793,0,0,1-29.7-3.9l-.075.567h-4.833a2.5,2.5,0,0,0,.332,1.709A1.57,1.57,0,0,0-32.918-.9,2.631,2.631,0,0,0-30.9-1.88l.711.6a3.253,3.253,0,0,1-1.2,1.049A3.4,3.4,0,0,1-33.021.137Zm.786-6.638a1.807,1.807,0,0,0-1.336.52,3.693,3.693,0,0,0-.906,1.606l3.6.007.027-.109a2.024,2.024,0,0,0-.277-1.432A1.3,1.3,0,0,0-32.235-6.5Zm11.307.232-.581-.062a2.117,2.117,0,0,0-1.873,1.073L-24.292,0h-1.237l1.285-7.4,1.2-.007-.185.861a2.211,2.211,0,0,1,1.853-1,2.27,2.27,0,0,1,.588.1ZM-16.9-7.533a2.666,2.666,0,0,1,1.593.506,2.874,2.874,0,0,1,.981,1.357,4.2,4.2,0,0,1,.215,1.89l-.014.15a4.975,4.975,0,0,1-.643,1.952A3.77,3.77,0,0,1-16.088-.321a3.234,3.234,0,0,1-1.784.458,2.671,2.671,0,0,1-1.589-.506,2.809,2.809,0,0,1-.974-1.34,4.314,4.314,0,0,1-.219-1.866,5.04,5.04,0,0,1,.622-2.064A3.858,3.858,0,0,1-18.7-7.058,3.2,3.2,0,0,1-16.9-7.533Zm-2.516,3.965a4.2,4.2,0,0,0,0,.9,2.194,2.194,0,0,0,.482,1.285,1.447,1.447,0,0,0,1.1.5,1.971,1.971,0,0,0,1.135-.3,2.554,2.554,0,0,0,.875-.981,4.131,4.131,0,0,0,.458-1.456,6.558,6.558,0,0,0,.021-1.06A2.277,2.277,0,0,0-15.835-6,1.479,1.479,0,0,0-16.943-6.5a2.016,2.016,0,0,0-1.627.752A3.715,3.715,0,0,0-19.4-3.726Zm9.488-5.619L-10.237-7.4H-8.89l-.171.978H-10.4l-.772,4.6a1.6,1.6,0,0,0-.007.328.521.521,0,0,0,.581.533,3.544,3.544,0,0,0,.6-.068l-.1,1.032A3.366,3.366,0,0,1-11,.13,1.292,1.292,0,0,1-12.1-.414a2.1,2.1,0,0,1-.287-1.425l.752-4.58h-1.306l.171-.978h1.306l.314-1.791ZM-4.16,0a1.657,1.657,0,0,1-.048-.39l.021-.39a3.032,3.032,0,0,1-2.16.916A2.21,2.21,0,0,1-7.937-.482,1.872,1.872,0,0,1-8.494-2,2.277,2.277,0,0,1-7.465-3.832a4.38,4.38,0,0,1,2.526-.66l1.292.007.082-.588a1.352,1.352,0,0,0-.256-1.049,1.237,1.237,0,0,0-.974-.4A1.908,1.908,0,0,0-5.92-6.21a1.324,1.324,0,0,0-.6.858l-1.244.007A1.983,1.983,0,0,1-7.256-6.5a2.943,2.943,0,0,1,1.142-.779A3.688,3.688,0,0,1-4.672-7.54a2.452,2.452,0,0,1,1.8.7,2.173,2.173,0,0,1,.54,1.788l-.6,3.664-.034.526a2.58,2.58,0,0,0,.082.745L-2.9,0ZM-6.1-.957a2.158,2.158,0,0,0,1.125-.284,2.847,2.847,0,0,0,.913-.824L-3.8-3.589-4.734-3.6a3.547,3.547,0,0,0-1.791.369,1.36,1.36,0,0,0-.7,1.046,1.059,1.059,0,0,0,.243.865A1.156,1.156,0,0,0-6.1-.957Zm8,.068a1.877,1.877,0,0,0,1.2-.386,1.837,1.837,0,0,0,.7-1.049l1.169-.007A2.638,2.638,0,0,1,4.4-1.06a3.109,3.109,0,0,1-1.145.9,3.107,3.107,0,0,1-1.415.3A2.64,2.64,0,0,1,.28-.345,2.7,2.7,0,0,1-.66-1.651,4.35,4.35,0,0,1-.865-3.534l.034-.342A4.9,4.9,0,0,1-.208-5.783,3.6,3.6,0,0,1,1.077-7.092a3.192,3.192,0,0,1,1.75-.441,2.5,2.5,0,0,1,1.859.779,2.7,2.7,0,0,1,.7,1.907L4.228-4.854a1.775,1.775,0,0,0-.4-1.172A1.406,1.406,0,0,0,2.772-6.5a1.972,1.972,0,0,0-1.6.718,3.76,3.76,0,0,0-.8,2.064l-.021.178a5.929,5.929,0,0,0-.014.9A2.061,2.061,0,0,0,.79-1.374,1.449,1.449,0,0,0,1.9-.889ZM7.291,0H6.06L7.345-7.4h1.23ZM8.309-10.1a.677.677,0,0,1,.523.188.7.7,0,0,1,.208.53.743.743,0,0,1-.208.526.748.748,0,0,1-.523.219.682.682,0,0,1-.526-.185.669.669,0,0,1-.2-.52.775.775,0,0,1,.205-.533A.723.723,0,0,1,8.309-10.1Zm5.113,2.563a2.666,2.666,0,0,1,1.593.506A2.874,2.874,0,0,1,16-5.67a4.2,4.2,0,0,1,.215,1.89l-.014.15a4.975,4.975,0,0,1-.643,1.952A3.77,3.77,0,0,1,14.229-.321a3.234,3.234,0,0,1-1.784.458,2.671,2.671,0,0,1-1.589-.506,2.809,2.809,0,0,1-.974-1.34,4.314,4.314,0,0,1-.219-1.866,5.04,5.04,0,0,1,.622-2.064,3.858,3.858,0,0,1,1.336-1.418A3.2,3.2,0,0,1,13.422-7.533ZM10.907-3.568a4.2,4.2,0,0,0,0,.9,2.194,2.194,0,0,0,.482,1.285,1.447,1.447,0,0,0,1.1.5,1.971,1.971,0,0,0,1.135-.3,2.554,2.554,0,0,0,.875-.981A4.131,4.131,0,0,0,14.96-3.63a6.558,6.558,0,0,0,.021-1.06A2.277,2.277,0,0,0,14.482-6,1.479,1.479,0,0,0,13.375-6.5a2.016,2.016,0,0,0-1.627.752,3.715,3.715,0,0,0-.827,2.023ZM14.475-10.5h1.579L13.962-8.49l-1.087,0Zm5.106,3.1-.178.937a2.916,2.916,0,0,1,2.27-1.066,1.835,1.835,0,0,1,1.545.725,2.815,2.815,0,0,1,.369,1.962L22.781,0H21.543l.813-4.862a2.592,2.592,0,0,0,.007-.621,1.022,1.022,0,0,0-1.128-.976,2.329,2.329,0,0,0-1.955,1.188L18.365,0H17.127l1.285-7.4Zm8.894,3.691A5.755,5.755,0,0,1,29.1-5.749a3.527,3.527,0,0,1,1.2-1.36,2.736,2.736,0,0,1,1.565-.431,2.31,2.31,0,0,1,1.9.9L34.47-10.5h1.237L33.889,0H32.761l.13-.793a2.727,2.727,0,0,1-2.16.93,2.043,2.043,0,0,1-1.634-.8,3.5,3.5,0,0,1-.656-2.082A6.648,6.648,0,0,1,28.475-3.712Zm1.189.707a2.563,2.563,0,0,0,.349,1.516,1.258,1.258,0,0,0,1.08.553A2.235,2.235,0,0,0,33-2.015l.588-3.414A1.535,1.535,0,0,0,32.1-6.467a1.875,1.875,0,0,0-1.289.44,2.849,2.849,0,0,0-.848,1.29A5.322,5.322,0,0,0,29.665-3.005ZM39.043.137a2.667,2.667,0,0,1-2.16-1.019,3.505,3.505,0,0,1-.656-2.536l.034-.294a4.921,4.921,0,0,1,.653-2.01,3.8,3.8,0,0,1,1.309-1.371,3.054,3.054,0,0,1,1.668-.441,2.352,2.352,0,0,1,1.791.759,3.121,3.121,0,0,1,.711,1.982,5.793,5.793,0,0,1-.027.889l-.075.567H37.458a2.5,2.5,0,0,0,.332,1.709A1.57,1.57,0,0,0,39.146-.9a2.631,2.631,0,0,0,2.023-.984l.711.6a3.253,3.253,0,0,1-1.2,1.049A3.4,3.4,0,0,1,39.043.137ZM39.83-6.5a1.807,1.807,0,0,0-1.336.52,3.693,3.693,0,0,0-.906,1.606l3.6.007.027-.109a2.024,2.024,0,0,0-.277-1.432A1.3,1.3,0,0,0,39.83-6.5ZM49.66-.889a1.877,1.877,0,0,0,1.2-.386,1.837,1.837,0,0,0,.7-1.049l1.169-.007a2.638,2.638,0,0,1-.557,1.271,3.109,3.109,0,0,1-1.145.9,3.107,3.107,0,0,1-1.415.3,2.64,2.64,0,0,1-1.562-.482,2.7,2.7,0,0,1-.94-1.306A4.35,4.35,0,0,1,46.9-3.534l.034-.342a4.9,4.9,0,0,1,.622-1.907,3.6,3.6,0,0,1,1.285-1.309,3.192,3.192,0,0,1,1.75-.441,2.5,2.5,0,0,1,1.859.779,2.7,2.7,0,0,1,.7,1.907l-1.155-.007a1.775,1.775,0,0,0-.4-1.172A1.406,1.406,0,0,0,50.535-6.5a1.972,1.972,0,0,0-1.6.718,3.76,3.76,0,0,0-.8,2.064l-.021.178a5.929,5.929,0,0,0-.014.9,2.061,2.061,0,0,0,.451,1.265A1.449,1.449,0,0,0,49.66-.889ZM55.053,0h-1.23l1.818-10.5h1.237Zm3.363,0h-1.23l1.285-7.4H59.7Zm1.019-10.1a.677.677,0,0,1,.523.188.7.7,0,0,1,.208.53.743.743,0,0,1-.208.526.748.748,0,0,1-.523.219.682.682,0,0,1-.526-.185.669.669,0,0,1-.2-.52.775.775,0,0,1,.205-.533A.723.723,0,0,1,59.435-10.1ZM63.639.137a2.667,2.667,0,0,1-2.16-1.019,3.505,3.505,0,0,1-.656-2.536l.034-.294a4.921,4.921,0,0,1,.653-2.01,3.8,3.8,0,0,1,1.309-1.371,3.054,3.054,0,0,1,1.668-.441,2.352,2.352,0,0,1,1.791.759,3.121,3.121,0,0,1,.711,1.982,5.793,5.793,0,0,1-.027.889l-.075.567H62.053a2.5,2.5,0,0,0,.332,1.709A1.57,1.57,0,0,0,63.742-.9a2.631,2.631,0,0,0,2.023-.984l.711.6a3.253,3.253,0,0,1-1.2,1.049A3.4,3.4,0,0,1,63.639.137ZM64.425-6.5a1.807,1.807,0,0,0-1.336.52,3.693,3.693,0,0,0-.906,1.606l3.6.007.027-.109a2.024,2.024,0,0,0-.277-1.432A1.3,1.3,0,0,0,64.425-6.5Zm5.729-.9-.178.937a2.916,2.916,0,0,1,2.27-1.066,1.835,1.835,0,0,1,1.545.725,2.815,2.815,0,0,1,.369,1.962L73.353,0H72.116l.813-4.862a2.592,2.592,0,0,0,.007-.621,1.022,1.022,0,0,0-1.128-.976,2.329,2.329,0,0,0-1.955,1.188L68.937,0H67.7l1.285-7.4Zm8.374-1.784L78.213-7.4H79.56l-.171.978h-1.34l-.772,4.6a1.6,1.6,0,0,0-.007.328.521.521,0,0,0,.581.533,3.544,3.544,0,0,0,.6-.068l-.1,1.032a3.366,3.366,0,0,1-.9.123,1.292,1.292,0,0,1-1.107-.543,2.1,2.1,0,0,1-.287-1.425l.752-4.58H75.506l.171-.978h1.306L77.3-9.187ZM82.964.137A2.667,2.667,0,0,1,80.8-.882a3.505,3.505,0,0,1-.656-2.536l.034-.294a4.921,4.921,0,0,1,.653-2.01,3.8,3.8,0,0,1,1.309-1.371,3.054,3.054,0,0,1,1.668-.441,2.352,2.352,0,0,1,1.791.759,3.121,3.121,0,0,1,.711,1.982,5.793,5.793,0,0,1-.027.889l-.075.567H81.378a2.5,2.5,0,0,0,.332,1.709A1.57,1.57,0,0,0,83.067-.9,2.631,2.631,0,0,0,85.09-1.88l.711.6A3.253,3.253,0,0,1,84.6-.229,3.4,3.4,0,0,1,82.964.137ZM83.75-6.5a1.807,1.807,0,0,0-1.336.52,3.693,3.693,0,0,0-.906,1.606l3.6.007.027-.109a2.024,2.024,0,0,0-.277-1.432A1.3,1.3,0,0,0,83.75-6.5ZM91.6-2q.1-.766-.841-1.08l-1.285-.376q-1.627-.561-1.572-1.859a2.048,2.048,0,0,1,.892-1.6,3.177,3.177,0,0,1,1.986-.612,2.649,2.649,0,0,1,1.822.653,2.068,2.068,0,0,1,.673,1.665l-1.23-.007a1.154,1.154,0,0,0-.349-.9,1.379,1.379,0,0,0-.964-.362,1.8,1.8,0,0,0-1.107.314,1.151,1.151,0,0,0-.5.807q-.089.643.786.937l.622.171a4.005,4.005,0,0,1,1.8.854A1.632,1.632,0,0,1,92.835-2.1a2.074,2.074,0,0,1-.451,1.2,2.58,2.58,0,0,1-1.094.783,3.658,3.658,0,0,1-1.456.25A2.885,2.885,0,0,1,87.893-.55a2.124,2.124,0,0,1-.738-1.733l1.237.007a1.311,1.311,0,0,0,.4,1A1.515,1.515,0,0,0,89.875-.9a2.132,2.132,0,0,0,1.169-.284A1.091,1.091,0,0,0,91.6-2Zm12.5-3.562H98.571l.191-1.1h5.544Zm-.492,2.837H98.079l.191-1.094h5.544Z" transform="translate(-3506 -4705)" fill="#12263f"/>
    <path id="Trazado_765805" data-name="Trazado 765805" d="M-83.207,0h-1.244l-3.555-7.725L-89.346,0h-1.292l1.729-9.953h1.244L-84.1-2.194l1.347-7.759h1.278Zm6.822-.731a2.856,2.856,0,0,1-2.208.868,1.843,1.843,0,0,1-1.569-.759,2.9,2.9,0,0,1-.379-2l.793-4.778h1.237l-.8,4.8a3.187,3.187,0,0,0-.014.588,1.223,1.223,0,0,0,.294.772,1,1,0,0,0,.725.3A2.219,2.219,0,0,0-76.255-2.01l.93-5.387h1.237L-75.373,0h-1.169Zm.492-9.769h1.579l-2.092,2.01-1.087,0Zm4.806,3.1-.157.827A2.892,2.892,0,0,1-69-7.533a2.282,2.282,0,0,1,1.193.321,1.576,1.576,0,0,1,.673.868,3.054,3.054,0,0,1,2.454-1.189,1.956,1.956,0,0,1,1.634.745,2.662,2.662,0,0,1,.39,1.928L-63.465,0H-64.7l.807-4.874a2.575,2.575,0,0,0,0-.649q-.13-.93-1.217-.95a1.869,1.869,0,0,0-1.227.42,1.945,1.945,0,0,0-.708,1.138L-67.881,0h-1.244l.82-4.867a1.563,1.563,0,0,0-.229-1.169,1.2,1.2,0,0,0-.988-.424A2.026,2.026,0,0,0-71.36-5.407L-72.3,0h-1.237l1.285-7.4ZM-58.358.137a2.667,2.667,0,0,1-2.16-1.019,3.505,3.505,0,0,1-.656-2.536l.034-.294a4.921,4.921,0,0,1,.653-2.01,3.8,3.8,0,0,1,1.309-1.371,3.054,3.054,0,0,1,1.668-.441,2.352,2.352,0,0,1,1.791.759,3.121,3.121,0,0,1,.711,1.982,5.793,5.793,0,0,1-.027.889l-.075.567h-4.833a2.5,2.5,0,0,0,.332,1.709A1.57,1.57,0,0,0-58.256-.9a2.631,2.631,0,0,0,2.023-.984l.711.6a3.253,3.253,0,0,1-1.2,1.049A3.4,3.4,0,0,1-58.358.137Zm.786-6.638a1.807,1.807,0,0,0-1.336.52,3.693,3.693,0,0,0-.906,1.606l3.6.007.027-.109a2.024,2.024,0,0,0-.277-1.432A1.3,1.3,0,0,0-57.572-6.5Zm7.875.232-.581-.062a2.117,2.117,0,0,0-1.873,1.073L-53.061,0H-54.3l1.285-7.4,1.2-.007L-52-6.542a2.211,2.211,0,0,1,1.853-1,2.27,2.27,0,0,1,.588.1Zm4.033-1.265a2.666,2.666,0,0,1,1.593.506A2.874,2.874,0,0,1-43.09-5.67a4.2,4.2,0,0,1,.215,1.89l-.014.15a4.975,4.975,0,0,1-.643,1.952A3.77,3.77,0,0,1-44.857-.321a3.234,3.234,0,0,1-1.784.458,2.671,2.671,0,0,1-1.589-.506,2.809,2.809,0,0,1-.974-1.34,4.314,4.314,0,0,1-.219-1.866A5.04,5.04,0,0,1-48.8-5.64a3.858,3.858,0,0,1,1.336-1.418A3.2,3.2,0,0,1-45.664-7.533ZM-48.18-3.568a4.2,4.2,0,0,0,0,.9A2.194,2.194,0,0,0-47.7-1.388a1.447,1.447,0,0,0,1.1.5,1.971,1.971,0,0,0,1.135-.3,2.554,2.554,0,0,0,.875-.981,4.131,4.131,0,0,0,.458-1.456,6.558,6.558,0,0,0,.021-1.06A2.277,2.277,0,0,0-44.6-6,1.479,1.479,0,0,0-45.712-6.5a2.016,2.016,0,0,0-1.627.752,3.715,3.715,0,0,0-.827,2.023ZM-37.379-2q.1-.766-.841-1.08L-39.5-3.459q-1.627-.561-1.572-1.859a2.048,2.048,0,0,1,.892-1.6A3.177,3.177,0,0,1-38.2-7.533a2.649,2.649,0,0,1,1.822.653A2.068,2.068,0,0,1-35.7-5.216l-1.23-.007a1.154,1.154,0,0,0-.349-.9,1.379,1.379,0,0,0-.964-.362,1.8,1.8,0,0,0-1.107.314,1.151,1.151,0,0,0-.5.807q-.089.643.786.937l.622.171a4.005,4.005,0,0,1,1.8.854A1.632,1.632,0,0,1-36.148-2.1,2.074,2.074,0,0,1-36.6-.9a2.58,2.58,0,0,1-1.094.783,3.658,3.658,0,0,1-1.456.25A2.885,2.885,0,0,1-41.091-.55a2.124,2.124,0,0,1-.738-1.733l1.237.007a1.311,1.311,0,0,0,.4,1A1.515,1.515,0,0,0-39.108-.9a2.132,2.132,0,0,0,1.169-.284A1.091,1.091,0,0,0-37.379-2ZM-31.1-3.712a5.755,5.755,0,0,1,.622-2.037,3.527,3.527,0,0,1,1.2-1.36A2.736,2.736,0,0,1-27.72-7.54a2.31,2.31,0,0,1,1.9.9l.711-3.862h1.237L-25.689,0h-1.128l.13-.793a2.727,2.727,0,0,1-2.16.93,2.043,2.043,0,0,1-1.634-.8,3.5,3.5,0,0,1-.656-2.082A6.648,6.648,0,0,1-31.1-3.712Zm1.189.707a2.563,2.563,0,0,0,.349,1.516,1.258,1.258,0,0,0,1.08.553,2.235,2.235,0,0,0,1.907-1.079l.588-3.414a1.535,1.535,0,0,0-1.49-1.038,1.875,1.875,0,0,0-1.289.44,2.849,2.849,0,0,0-.848,1.29A5.322,5.322,0,0,0-29.914-3.005ZM-20.535.137A2.667,2.667,0,0,1-22.7-.882a3.505,3.505,0,0,1-.656-2.536l.034-.294a4.921,4.921,0,0,1,.653-2.01,3.8,3.8,0,0,1,1.309-1.371,3.054,3.054,0,0,1,1.668-.441,2.352,2.352,0,0,1,1.791.759,3.121,3.121,0,0,1,.711,1.982,5.793,5.793,0,0,1-.027.889l-.075.567h-4.833a2.5,2.5,0,0,0,.332,1.709A1.57,1.57,0,0,0-20.433-.9a2.631,2.631,0,0,0,2.023-.984l.711.6A3.253,3.253,0,0,1-18.9-.229,3.4,3.4,0,0,1-20.535.137Zm.786-6.638a1.807,1.807,0,0,0-1.336.52,3.693,3.693,0,0,0-.906,1.606l3.6.007.027-.109a2.024,2.024,0,0,0-.277-1.432A1.3,1.3,0,0,0-19.749-6.5Zm9.83,5.612a1.877,1.877,0,0,0,1.2-.386,1.837,1.837,0,0,0,.7-1.049l1.169-.007A2.638,2.638,0,0,1-7.414-1.06a3.109,3.109,0,0,1-1.145.9,3.107,3.107,0,0,1-1.415.3,2.64,2.64,0,0,1-1.562-.482,2.7,2.7,0,0,1-.94-1.306,4.35,4.35,0,0,1-.205-1.883l.034-.342a4.9,4.9,0,0,1,.622-1.907,3.6,3.6,0,0,1,1.285-1.309,3.192,3.192,0,0,1,1.75-.441,2.5,2.5,0,0,1,1.859.779,2.7,2.7,0,0,1,.7,1.907l-1.155-.007a1.775,1.775,0,0,0-.4-1.172A1.406,1.406,0,0,0-9.044-6.5a1.972,1.972,0,0,0-1.6.718,3.76,3.76,0,0,0-.8,2.064l-.021.178a5.929,5.929,0,0,0-.014.9,2.061,2.061,0,0,0,.451,1.265A1.449,1.449,0,0,0-9.919-.889ZM-4.525,0h-1.23l1.818-10.5H-2.7Zm3.363,0h-1.23l1.285-7.4H.123ZM-.144-10.1a.677.677,0,0,1,.523.188.7.7,0,0,1,.208.53.743.743,0,0,1-.208.526.748.748,0,0,1-.523.219A.682.682,0,0,1-.67-8.818a.669.669,0,0,1-.2-.52.775.775,0,0,1,.205-.533A.723.723,0,0,1-.144-10.1ZM4.061.137A2.667,2.667,0,0,1,1.9-.882a3.505,3.505,0,0,1-.656-2.536l.034-.294a4.921,4.921,0,0,1,.653-2.01A3.8,3.8,0,0,1,3.24-7.092a3.054,3.054,0,0,1,1.668-.441A2.352,2.352,0,0,1,6.7-6.774,3.121,3.121,0,0,1,7.41-4.792a5.793,5.793,0,0,1-.027.889l-.075.567H2.475a2.5,2.5,0,0,0,.332,1.709A1.57,1.57,0,0,0,4.163-.9,2.631,2.631,0,0,0,6.187-1.88l.711.6A3.253,3.253,0,0,1,5.7-.229,3.4,3.4,0,0,1,4.061.137ZM4.847-6.5a1.807,1.807,0,0,0-1.336.52A3.693,3.693,0,0,0,2.6-4.375l3.6.007.027-.109A2.024,2.024,0,0,0,5.951-5.91,1.3,1.3,0,0,0,4.847-6.5Zm5.729-.9-.178.937a2.916,2.916,0,0,1,2.27-1.066,1.835,1.835,0,0,1,1.545.725,2.815,2.815,0,0,1,.369,1.962L13.774,0H12.537l.813-4.862a2.592,2.592,0,0,0,.007-.621,1.022,1.022,0,0,0-1.128-.976,2.329,2.329,0,0,0-1.955,1.188L9.358,0H8.121L9.406-7.4Zm8.374-1.784L18.635-7.4h1.347l-.171.978h-1.34l-.772,4.6a1.6,1.6,0,0,0-.007.328.521.521,0,0,0,.581.533,3.544,3.544,0,0,0,.6-.068l-.1,1.032a3.366,3.366,0,0,1-.9.123,1.292,1.292,0,0,1-1.107-.543,2.1,2.1,0,0,1-.287-1.425l.752-4.58H15.928L16.1-7.4H17.4l.314-1.791ZM23.386.137a2.667,2.667,0,0,1-2.16-1.019,3.505,3.505,0,0,1-.656-2.536l.034-.294a4.921,4.921,0,0,1,.653-2.01,3.8,3.8,0,0,1,1.309-1.371,3.054,3.054,0,0,1,1.668-.441,2.352,2.352,0,0,1,1.791.759,3.121,3.121,0,0,1,.711,1.982,5.793,5.793,0,0,1-.027.889l-.075.567H21.8a2.5,2.5,0,0,0,.332,1.709A1.57,1.57,0,0,0,23.488-.9a2.631,2.631,0,0,0,2.023-.984l.711.6a3.253,3.253,0,0,1-1.2,1.049A3.4,3.4,0,0,1,23.386.137ZM24.172-6.5a1.807,1.807,0,0,0-1.336.52,3.693,3.693,0,0,0-.906,1.606l3.6.007.027-.109a2.024,2.024,0,0,0-.277-1.432A1.3,1.3,0,0,0,24.172-6.5ZM32.026-2q.1-.766-.841-1.08L29.9-3.459q-1.627-.561-1.572-1.859a2.048,2.048,0,0,1,.892-1.6,3.177,3.177,0,0,1,1.986-.612,2.649,2.649,0,0,1,1.822.653A2.068,2.068,0,0,1,33.7-5.216l-1.23-.007a1.154,1.154,0,0,0-.349-.9,1.379,1.379,0,0,0-.964-.362,1.8,1.8,0,0,0-1.107.314,1.151,1.151,0,0,0-.5.807q-.089.643.786.937l.622.171a4.005,4.005,0,0,1,1.8.854A1.632,1.632,0,0,1,33.257-2.1a2.074,2.074,0,0,1-.451,1.2,2.58,2.58,0,0,1-1.094.783,3.658,3.658,0,0,1-1.456.25A2.885,2.885,0,0,1,28.314-.55a2.124,2.124,0,0,1-.738-1.733l1.237.007a1.311,1.311,0,0,0,.4,1A1.515,1.515,0,0,0,30.3-.9a2.132,2.132,0,0,0,1.169-.284A1.091,1.091,0,0,0,32.026-2ZM44.646-3.664a5.868,5.868,0,0,1-.608,2.03,3.455,3.455,0,0,1-1.169,1.35,2.676,2.676,0,0,1-1.545.427,2.463,2.463,0,0,1-1.969-.868l-.663,3.568H37.454L39.231-7.4,40.353-7.4l-.137.827a2.806,2.806,0,0,1,2.194-.957,2.063,2.063,0,0,1,1.661.786A3.46,3.46,0,0,1,44.7-4.655a7.361,7.361,0,0,1-.034.848ZM43.429-3.8l.034-.573A2.6,2.6,0,0,0,43.083-5.9a1.334,1.334,0,0,0-1.1-.556,2.194,2.194,0,0,0-1.853,1.017L39.512-1.9a1.548,1.548,0,0,0,1.5,1.01,1.946,1.946,0,0,0,1.569-.72A4.18,4.18,0,0,0,43.429-3.8ZM48.836.137a2.667,2.667,0,0,1-2.16-1.019,3.505,3.505,0,0,1-.656-2.536l.034-.294a4.921,4.921,0,0,1,.653-2.01,3.8,3.8,0,0,1,1.309-1.371,3.054,3.054,0,0,1,1.668-.441,2.352,2.352,0,0,1,1.791.759,3.121,3.121,0,0,1,.711,1.982,5.793,5.793,0,0,1-.027.889l-.075.567H47.25a2.5,2.5,0,0,0,.332,1.709A1.57,1.57,0,0,0,48.938-.9a2.631,2.631,0,0,0,2.023-.984l.711.6a3.253,3.253,0,0,1-1.2,1.049A3.4,3.4,0,0,1,48.836.137ZM49.622-6.5a1.807,1.807,0,0,0-1.336.52,3.693,3.693,0,0,0-.906,1.606l3.6.007L51-4.478a2.024,2.024,0,0,0-.277-1.432A1.3,1.3,0,0,0,49.622-6.5Zm7.875.232-.581-.062a2.117,2.117,0,0,0-1.873,1.073L54.134,0H52.9l1.285-7.4,1.2-.007-.185.861a2.211,2.211,0,0,1,1.853-1,2.27,2.27,0,0,1,.588.1Zm.417,2.557a5.755,5.755,0,0,1,.622-2.037,3.527,3.527,0,0,1,1.2-1.36A2.736,2.736,0,0,1,61.3-7.54a2.31,2.31,0,0,1,1.9.9l.711-3.862h1.237L63.328,0H62.2l.13-.793a2.727,2.727,0,0,1-2.16.93,2.043,2.043,0,0,1-1.634-.8,3.5,3.5,0,0,1-.656-2.082A6.648,6.648,0,0,1,57.914-3.712Zm1.189.707a2.563,2.563,0,0,0,.349,1.516,1.258,1.258,0,0,0,1.08.553,2.235,2.235,0,0,0,1.907-1.079l.588-3.414a1.535,1.535,0,0,0-1.49-1.038,1.875,1.875,0,0,0-1.289.44,2.849,2.849,0,0,0-.848,1.29A5.322,5.322,0,0,0,59.1-3.005ZM66.623,0h-1.23l1.285-7.4h1.23Zm1.019-10.1a.677.677,0,0,1,.523.188.7.7,0,0,1,.208.53.743.743,0,0,1-.208.526.748.748,0,0,1-.523.219.682.682,0,0,1-.526-.185.669.669,0,0,1-.2-.52.775.775,0,0,1,.205-.533A.723.723,0,0,1,67.642-10.1ZM69-3.712a5.755,5.755,0,0,1,.622-2.037,3.527,3.527,0,0,1,1.2-1.36,2.736,2.736,0,0,1,1.565-.431,2.31,2.31,0,0,1,1.9.9L75-10.5h1.237L74.416,0H73.288l.13-.793a2.727,2.727,0,0,1-2.16.93,2.043,2.043,0,0,1-1.634-.8,3.5,3.5,0,0,1-.656-2.082A6.647,6.647,0,0,1,69-3.712Zm1.189.707A2.563,2.563,0,0,0,70.54-1.49a1.258,1.258,0,0,0,1.08.553,2.235,2.235,0,0,0,1.907-1.079l.588-3.414a1.535,1.535,0,0,0-1.49-1.038,1.875,1.875,0,0,0-1.289.44,2.849,2.849,0,0,0-.848,1.29A5.321,5.321,0,0,0,70.191-3.005ZM80.479-7.533a2.666,2.666,0,0,1,1.593.506,2.874,2.874,0,0,1,.981,1.357,4.2,4.2,0,0,1,.215,1.89l-.014.15a4.975,4.975,0,0,1-.643,1.952A3.77,3.77,0,0,1,81.286-.321,3.234,3.234,0,0,1,79.5.137a2.671,2.671,0,0,1-1.589-.506,2.809,2.809,0,0,1-.974-1.34,4.315,4.315,0,0,1-.219-1.866,5.04,5.04,0,0,1,.622-2.064,3.858,3.858,0,0,1,1.336-1.418A3.2,3.2,0,0,1,80.479-7.533ZM77.964-3.568a4.2,4.2,0,0,0,0,.9,2.194,2.194,0,0,0,.482,1.285,1.447,1.447,0,0,0,1.1.5,1.971,1.971,0,0,0,1.135-.3,2.554,2.554,0,0,0,.875-.981,4.131,4.131,0,0,0,.458-1.456,6.557,6.557,0,0,0,.021-1.06A2.277,2.277,0,0,0,81.539-6,1.479,1.479,0,0,0,80.432-6.5a2.016,2.016,0,0,0-1.627.752,3.715,3.715,0,0,0-.827,2.023ZM88.765-2q.1-.766-.841-1.08l-1.285-.376q-1.627-.561-1.572-1.859a2.048,2.048,0,0,1,.892-1.6,3.177,3.177,0,0,1,1.986-.612,2.649,2.649,0,0,1,1.822.653,2.068,2.068,0,0,1,.673,1.665l-1.23-.007a1.154,1.154,0,0,0-.349-.9,1.379,1.379,0,0,0-.964-.362,1.8,1.8,0,0,0-1.107.314,1.151,1.151,0,0,0-.5.807q-.089.643.786.937l.622.171a4.005,4.005,0,0,1,1.8.854A1.632,1.632,0,0,1,90-2.1a2.074,2.074,0,0,1-.451,1.2,2.58,2.58,0,0,1-1.094.783,3.658,3.658,0,0,1-1.456.25A2.885,2.885,0,0,1,85.053-.55a2.124,2.124,0,0,1-.738-1.733l1.237.007a1.311,1.311,0,0,0,.4,1A1.515,1.515,0,0,0,87.035-.9,2.132,2.132,0,0,0,88.2-1.186,1.091,1.091,0,0,0,88.765-2Z" transform="translate(-3280 -4719)" fill="#12263f"/>
    <path id="Trazado_765806" data-name="Trazado 765806" d="M-96.435,0h-1.244l-3.555-7.725L-102.573,0h-1.292l1.729-9.953h1.244l3.562,7.759,1.347-7.759h1.278Zm6.822-.731A2.856,2.856,0,0,1-91.82.137a1.843,1.843,0,0,1-1.569-.759,2.9,2.9,0,0,1-.379-2l.793-4.778h1.237l-.8,4.8a3.187,3.187,0,0,0-.014.588,1.223,1.223,0,0,0,.294.772,1,1,0,0,0,.725.3A2.219,2.219,0,0,0-89.482-2.01l.93-5.387h1.237L-88.6,0H-89.77Zm.492-9.769h1.579l-2.092,2.01-1.087,0Zm4.806,3.1-.157.827a2.892,2.892,0,0,1,2.249-.957,2.282,2.282,0,0,1,1.193.321,1.576,1.576,0,0,1,.673.868A3.054,3.054,0,0,1-77.9-7.533a1.956,1.956,0,0,1,1.634.745,2.662,2.662,0,0,1,.39,1.928L-76.692,0h-1.23l.807-4.874a2.575,2.575,0,0,0,0-.649q-.13-.93-1.217-.95a1.869,1.869,0,0,0-1.227.42,1.945,1.945,0,0,0-.708,1.138L-81.108,0h-1.244l.82-4.867a1.563,1.563,0,0,0-.229-1.169,1.2,1.2,0,0,0-.988-.424,2.026,2.026,0,0,0-1.839,1.053L-85.524,0h-1.237l1.285-7.4ZM-71.586.137a2.667,2.667,0,0,1-2.16-1.019A3.505,3.505,0,0,1-74.4-3.418l.034-.294a4.921,4.921,0,0,1,.653-2.01,3.8,3.8,0,0,1,1.309-1.371,3.054,3.054,0,0,1,1.668-.441,2.352,2.352,0,0,1,1.791.759,3.121,3.121,0,0,1,.711,1.982,5.793,5.793,0,0,1-.027.889l-.075.567h-4.833a2.5,2.5,0,0,0,.332,1.709A1.57,1.57,0,0,0-71.483-.9,2.631,2.631,0,0,0-69.46-1.88l.711.6a3.253,3.253,0,0,1-1.2,1.049A3.4,3.4,0,0,1-71.586.137ZM-70.8-6.5a1.807,1.807,0,0,0-1.336.52,3.693,3.693,0,0,0-.906,1.606l3.6.007.027-.109A2.024,2.024,0,0,0-69.7-5.91,1.3,1.3,0,0,0-70.8-6.5Zm7.875.232-.581-.062a2.117,2.117,0,0,0-1.873,1.073L-66.288,0h-1.237l1.285-7.4,1.2-.007-.185.861a2.211,2.211,0,0,1,1.853-1,2.27,2.27,0,0,1,.588.1Zm4.033-1.265a2.666,2.666,0,0,1,1.593.506,2.874,2.874,0,0,1,.981,1.357A4.2,4.2,0,0,1-56.1-3.78l-.014.15a4.975,4.975,0,0,1-.643,1.952A3.77,3.77,0,0,1-58.085-.321a3.234,3.234,0,0,1-1.784.458,2.671,2.671,0,0,1-1.589-.506,2.809,2.809,0,0,1-.974-1.34,4.314,4.314,0,0,1-.219-1.866,5.04,5.04,0,0,1,.622-2.064,3.858,3.858,0,0,1,1.336-1.418A3.2,3.2,0,0,1-58.892-7.533Zm-2.516,3.965a4.2,4.2,0,0,0,0,.9,2.194,2.194,0,0,0,.482,1.285,1.447,1.447,0,0,0,1.1.5,1.971,1.971,0,0,0,1.135-.3,2.554,2.554,0,0,0,.875-.981,4.131,4.131,0,0,0,.458-1.456,6.558,6.558,0,0,0,.021-1.06A2.277,2.277,0,0,0-57.832-6,1.479,1.479,0,0,0-58.939-6.5a2.016,2.016,0,0,0-1.627.752,3.715,3.715,0,0,0-.827,2.023Zm12.92-5.619L-48.8-7.4h1.347l-.171.978h-1.34l-.772,4.6a1.6,1.6,0,0,0-.007.328.521.521,0,0,0,.581.533,3.544,3.544,0,0,0,.6-.068l-.1,1.032a3.366,3.366,0,0,1-.9.123,1.292,1.292,0,0,1-1.107-.543,2.1,2.1,0,0,1-.287-1.425l.752-4.58h-1.306l.171-.978h1.306l.314-1.791Zm5.209,1.654a2.666,2.666,0,0,1,1.593.506A2.874,2.874,0,0,1-40.7-5.67a4.2,4.2,0,0,1,.215,1.89l-.014.15a4.975,4.975,0,0,1-.643,1.952A3.77,3.77,0,0,1-42.472-.321a3.234,3.234,0,0,1-1.784.458,2.671,2.671,0,0,1-1.589-.506,2.809,2.809,0,0,1-.974-1.34,4.314,4.314,0,0,1-.219-1.866,5.04,5.04,0,0,1,.622-2.064A3.858,3.858,0,0,1-45.08-7.058,3.2,3.2,0,0,1-43.278-7.533Zm-2.516,3.965a4.2,4.2,0,0,0,0,.9,2.194,2.194,0,0,0,.482,1.285,1.447,1.447,0,0,0,1.1.5,1.971,1.971,0,0,0,1.135-.3,2.554,2.554,0,0,0,.875-.981A4.131,4.131,0,0,0-41.74-3.63a6.558,6.558,0,0,0,.021-1.06A2.277,2.277,0,0,0-42.219-6,1.479,1.479,0,0,0-43.326-6.5a2.016,2.016,0,0,0-1.627.752,3.715,3.715,0,0,0-.827,2.023Zm9.488-5.619L-36.62-7.4h1.347l-.171.978h-1.34l-.772,4.6a1.6,1.6,0,0,0-.007.328.521.521,0,0,0,.581.533,3.544,3.544,0,0,0,.6-.068l-.1,1.032a3.366,3.366,0,0,1-.9.123,1.292,1.292,0,0,1-1.107-.543,2.1,2.1,0,0,1-.287-1.425l.752-4.58h-1.306l.171-.978h1.306l.314-1.791ZM-30.543,0a1.657,1.657,0,0,1-.048-.39l.021-.39a3.032,3.032,0,0,1-2.16.916A2.21,2.21,0,0,1-34.32-.482,1.872,1.872,0,0,1-34.877-2a2.277,2.277,0,0,1,1.029-1.835,4.38,4.38,0,0,1,2.526-.66l1.292.007.082-.588A1.352,1.352,0,0,0-30.2-6.122a1.237,1.237,0,0,0-.974-.4A1.908,1.908,0,0,0-32.3-6.21a1.324,1.324,0,0,0-.6.858l-1.244.007A1.983,1.983,0,0,1-33.64-6.5,2.943,2.943,0,0,1-32.5-7.277a3.688,3.688,0,0,1,1.442-.263,2.452,2.452,0,0,1,1.8.7,2.173,2.173,0,0,1,.54,1.788l-.6,3.664-.034.526a2.58,2.58,0,0,0,.082.745L-29.285,0Zm-1.941-.957a2.158,2.158,0,0,0,1.125-.284,2.847,2.847,0,0,0,.913-.824l.267-1.524-.937-.007a3.547,3.547,0,0,0-1.791.369,1.36,1.36,0,0,0-.7,1.046,1.059,1.059,0,0,0,.243.865A1.156,1.156,0,0,0-32.484-.957ZM-26.271,0H-27.5l1.818-10.5h1.237Zm5.811-3.712a5.755,5.755,0,0,1,.622-2.037,3.527,3.527,0,0,1,1.2-1.36,2.736,2.736,0,0,1,1.565-.431,2.31,2.31,0,0,1,1.9.9l.711-3.862h1.237L-15.046,0h-1.128l.13-.793a2.727,2.727,0,0,1-2.16.93,2.043,2.043,0,0,1-1.634-.8,3.5,3.5,0,0,1-.656-2.082A6.648,6.648,0,0,1-20.46-3.712Zm1.189.707a2.563,2.563,0,0,0,.349,1.516,1.258,1.258,0,0,0,1.08.553,2.235,2.235,0,0,0,1.907-1.079l.588-3.414a1.535,1.535,0,0,0-1.49-1.038,1.875,1.875,0,0,0-1.289.44,2.849,2.849,0,0,0-.848,1.29A5.322,5.322,0,0,0-19.271-3.005ZM-9.892.137a2.667,2.667,0,0,1-2.16-1.019,3.505,3.505,0,0,1-.656-2.536l.034-.294a4.921,4.921,0,0,1,.653-2.01,3.8,3.8,0,0,1,1.309-1.371,3.054,3.054,0,0,1,1.668-.441,2.352,2.352,0,0,1,1.791.759,3.121,3.121,0,0,1,.711,1.982,5.793,5.793,0,0,1-.027.889l-.075.567h-4.833a2.5,2.5,0,0,0,.332,1.709A1.57,1.57,0,0,0-9.789-.9,2.631,2.631,0,0,0-7.766-1.88l.711.6a3.253,3.253,0,0,1-1.2,1.049A3.4,3.4,0,0,1-9.892.137ZM-9.105-6.5a1.807,1.807,0,0,0-1.336.52,3.693,3.693,0,0,0-.906,1.606l3.6.007.027-.109A2.024,2.024,0,0,0-8-5.91,1.3,1.3,0,0,0-9.105-6.5ZM.725-.889a1.877,1.877,0,0,0,1.2-.386,1.837,1.837,0,0,0,.7-1.049l1.169-.007A2.638,2.638,0,0,1,3.23-1.06a3.109,3.109,0,0,1-1.145.9A3.107,3.107,0,0,1,.67.137,2.64,2.64,0,0,1-.892-.345a2.7,2.7,0,0,1-.94-1.306,4.35,4.35,0,0,1-.205-1.883L-2-3.876a4.9,4.9,0,0,1,.622-1.907A3.6,3.6,0,0,1-.1-7.092a3.192,3.192,0,0,1,1.75-.441,2.5,2.5,0,0,1,1.859.779,2.7,2.7,0,0,1,.7,1.907L3.056-4.854a1.775,1.775,0,0,0-.4-1.172A1.406,1.406,0,0,0,1.6-6.5,1.972,1.972,0,0,0,0-5.783,3.76,3.76,0,0,0-.8-3.719l-.021.178a5.929,5.929,0,0,0-.014.9A2.061,2.061,0,0,0-.383-1.374,1.449,1.449,0,0,0,.725-.889ZM6.118,0H4.888L6.706-10.5H7.943ZM9.481,0H8.251L9.536-7.4h1.23ZM10.5-10.1a.677.677,0,0,1,.523.188.7.7,0,0,1,.208.53.743.743,0,0,1-.208.526.748.748,0,0,1-.523.219.682.682,0,0,1-.526-.185.669.669,0,0,1-.2-.52.775.775,0,0,1,.205-.533A.723.723,0,0,1,10.5-10.1ZM14.7.137a2.667,2.667,0,0,1-2.16-1.019,3.505,3.505,0,0,1-.656-2.536l.034-.294a4.921,4.921,0,0,1,.653-2.01,3.8,3.8,0,0,1,1.309-1.371,3.054,3.054,0,0,1,1.668-.441,2.352,2.352,0,0,1,1.791.759,3.121,3.121,0,0,1,.711,1.982,5.793,5.793,0,0,1-.027.889l-.075.567H13.118a2.5,2.5,0,0,0,.332,1.709A1.57,1.57,0,0,0,14.807-.9,2.631,2.631,0,0,0,16.83-1.88l.711.6a3.253,3.253,0,0,1-1.2,1.049A3.4,3.4,0,0,1,14.7.137ZM15.49-6.5a1.807,1.807,0,0,0-1.336.52,3.693,3.693,0,0,0-.906,1.606l3.6.007.027-.109a2.024,2.024,0,0,0-.277-1.432A1.3,1.3,0,0,0,15.49-6.5Zm5.729-.9-.178.937a2.916,2.916,0,0,1,2.27-1.066,1.835,1.835,0,0,1,1.545.725,2.815,2.815,0,0,1,.369,1.962L24.418,0H23.181l.813-4.862A2.592,2.592,0,0,0,24-5.483a1.022,1.022,0,0,0-1.128-.976,2.329,2.329,0,0,0-1.955,1.188L20,0H18.765L20.05-7.4Zm8.374-1.784L29.278-7.4h1.347l-.171.978h-1.34l-.772,4.6a1.6,1.6,0,0,0-.007.328.521.521,0,0,0,.581.533,3.544,3.544,0,0,0,.6-.068l-.1,1.032a3.366,3.366,0,0,1-.9.123,1.292,1.292,0,0,1-1.107-.543,2.1,2.1,0,0,1-.287-1.425l.752-4.58H26.571l.171-.978h1.306l.314-1.791ZM34.029.137a2.667,2.667,0,0,1-2.16-1.019,3.505,3.505,0,0,1-.656-2.536l.034-.294a4.921,4.921,0,0,1,.653-2.01,3.8,3.8,0,0,1,1.309-1.371,3.054,3.054,0,0,1,1.668-.441,2.352,2.352,0,0,1,1.791.759,3.121,3.121,0,0,1,.711,1.982,5.793,5.793,0,0,1-.027.889l-.075.567H32.443a2.5,2.5,0,0,0,.332,1.709A1.57,1.57,0,0,0,34.132-.9a2.631,2.631,0,0,0,2.023-.984l.711.6a3.253,3.253,0,0,1-1.2,1.049A3.4,3.4,0,0,1,34.029.137ZM34.815-6.5a1.807,1.807,0,0,0-1.336.52,3.693,3.693,0,0,0-.906,1.606l3.6.007.027-.109a2.024,2.024,0,0,0-.277-1.432A1.3,1.3,0,0,0,34.815-6.5ZM42.67-2q.1-.766-.841-1.08l-1.285-.376q-1.627-.561-1.572-1.859a2.048,2.048,0,0,1,.892-1.6,3.177,3.177,0,0,1,1.986-.612,2.649,2.649,0,0,1,1.822.653,2.068,2.068,0,0,1,.673,1.665l-1.23-.007a1.154,1.154,0,0,0-.349-.9,1.379,1.379,0,0,0-.964-.362,1.8,1.8,0,0,0-1.107.314,1.151,1.151,0,0,0-.5.807q-.089.643.786.937l.622.171a4.005,4.005,0,0,1,1.8.854A1.632,1.632,0,0,1,43.9-2.1a2.074,2.074,0,0,1-.451,1.2,2.58,2.58,0,0,1-1.094.783A3.658,3.658,0,0,1,40.9.137,2.885,2.885,0,0,1,38.958-.55a2.124,2.124,0,0,1-.738-1.733l1.237.007a1.311,1.311,0,0,0,.4,1A1.515,1.515,0,0,0,40.94-.9a2.132,2.132,0,0,0,1.169-.284A1.091,1.091,0,0,0,42.67-2Zm6.617-2.01a12.941,12.941,0,0,1,.837-3.076,9.532,9.532,0,0,1,1.5-2.553,6.164,6.164,0,0,1,1.982-1.6l.185.848A7.094,7.094,0,0,0,51.95-8.3,10.746,10.746,0,0,0,50.764-5.24a14.73,14.73,0,0,0-.4,3.5A7.744,7.744,0,0,0,50.726.749a3.932,3.932,0,0,0,1.056,1.7l-.308.766A4.936,4.936,0,0,1,49.728.868a9.044,9.044,0,0,1-.55-3.555,10.807,10.807,0,0,1,.1-1.251ZM60-3.664a5.868,5.868,0,0,1-.608,2.03,3.455,3.455,0,0,1-1.169,1.35,2.676,2.676,0,0,1-1.545.427,2.463,2.463,0,0,1-1.969-.868l-.663,3.568H52.808L54.585-7.4,55.706-7.4l-.137.827a2.806,2.806,0,0,1,2.194-.957,2.063,2.063,0,0,1,1.661.786,3.46,3.46,0,0,1,.629,2.092,7.361,7.361,0,0,1-.034.848ZM58.782-3.8l.034-.573A2.6,2.6,0,0,0,58.437-5.9a1.334,1.334,0,0,0-1.1-.556,2.194,2.194,0,0,0-1.853,1.017L54.865-1.9a1.548,1.548,0,0,0,1.5,1.01,1.946,1.946,0,0,0,1.569-.72A4.18,4.18,0,0,0,58.782-3.8ZM64.189.137a2.667,2.667,0,0,1-2.16-1.019,3.505,3.505,0,0,1-.656-2.536l.034-.294a4.921,4.921,0,0,1,.653-2.01,3.8,3.8,0,0,1,1.309-1.371,3.054,3.054,0,0,1,1.668-.441,2.352,2.352,0,0,1,1.791.759,3.121,3.121,0,0,1,.711,1.982,5.793,5.793,0,0,1-.027.889l-.075.567H62.6a2.5,2.5,0,0,0,.332,1.709A1.57,1.57,0,0,0,64.292-.9a2.631,2.631,0,0,0,2.023-.984l.711.6a3.253,3.253,0,0,1-1.2,1.049A3.4,3.4,0,0,1,64.189.137ZM64.976-6.5a1.807,1.807,0,0,0-1.336.52,3.693,3.693,0,0,0-.906,1.606l3.6.007.027-.109A2.024,2.024,0,0,0,66.08-5.91,1.3,1.3,0,0,0,64.976-6.5Zm7.875.232L72.27-6.33A2.117,2.117,0,0,0,70.4-5.257L69.487,0H68.25l1.285-7.4,1.2-.007-.185.861a2.211,2.211,0,0,1,1.853-1,2.27,2.27,0,0,1,.588.1ZM74.252,0H73.015L74.3-7.4h1.237Zm1.757-10.493h1.579L75.5-8.483l-1.087,0Zm4.437,2.96a2.666,2.666,0,0,1,1.593.506,2.874,2.874,0,0,1,.981,1.357,4.2,4.2,0,0,1,.215,1.89l-.014.15a4.975,4.975,0,0,1-.643,1.952A3.77,3.77,0,0,1,81.252-.321a3.234,3.234,0,0,1-1.784.458,2.671,2.671,0,0,1-1.589-.506,2.809,2.809,0,0,1-.974-1.34,4.315,4.315,0,0,1-.219-1.866,5.04,5.04,0,0,1,.622-2.064,3.858,3.858,0,0,1,1.336-1.418A3.2,3.2,0,0,1,80.445-7.533ZM77.93-3.568a4.2,4.2,0,0,0,0,.9,2.194,2.194,0,0,0,.482,1.285,1.447,1.447,0,0,0,1.1.5,1.971,1.971,0,0,0,1.135-.3,2.554,2.554,0,0,0,.875-.981,4.131,4.131,0,0,0,.458-1.456A6.557,6.557,0,0,0,82-4.689,2.277,2.277,0,0,0,81.5-6,1.479,1.479,0,0,0,80.4-6.5a2.016,2.016,0,0,0-1.627.752,3.715,3.715,0,0,0-.827,2.023Zm6.576-.144a5.755,5.755,0,0,1,.622-2.037,3.527,3.527,0,0,1,1.2-1.36A2.736,2.736,0,0,1,87.89-7.54a2.31,2.31,0,0,1,1.9.9L90.5-10.5h1.237L89.92,0H88.792l.13-.793a2.727,2.727,0,0,1-2.16.93,2.043,2.043,0,0,1-1.634-.8,3.5,3.5,0,0,1-.656-2.082A6.647,6.647,0,0,1,84.506-3.712Zm1.189.707a2.563,2.563,0,0,0,.349,1.516,1.258,1.258,0,0,0,1.08.553,2.235,2.235,0,0,0,1.907-1.079l.588-3.414a1.535,1.535,0,0,0-1.49-1.038,1.875,1.875,0,0,0-1.289.44,2.849,2.849,0,0,0-.848,1.29A5.321,5.321,0,0,0,85.7-3.005ZM95.983-7.533a2.666,2.666,0,0,1,1.593.506,2.874,2.874,0,0,1,.981,1.357,4.2,4.2,0,0,1,.215,1.89l-.014.15a4.975,4.975,0,0,1-.643,1.952A3.77,3.77,0,0,1,96.79-.321a3.234,3.234,0,0,1-1.784.458,2.671,2.671,0,0,1-1.589-.506,2.809,2.809,0,0,1-.974-1.34,4.315,4.315,0,0,1-.219-1.866,5.04,5.04,0,0,1,.622-2.064,3.858,3.858,0,0,1,1.336-1.418A3.2,3.2,0,0,1,95.983-7.533ZM93.468-3.568a4.2,4.2,0,0,0,0,.9,2.194,2.194,0,0,0,.482,1.285,1.447,1.447,0,0,0,1.1.5,1.971,1.971,0,0,0,1.135-.3,2.554,2.554,0,0,0,.875-.981,4.131,4.131,0,0,0,.458-1.456,6.557,6.557,0,0,0,.021-1.06A2.277,2.277,0,0,0,97.043-6,1.479,1.479,0,0,0,95.936-6.5a2.016,2.016,0,0,0-1.627.752,3.715,3.715,0,0,0-.827,2.023ZM103.216-4a12.684,12.684,0,0,1-.868,3.155,9.486,9.486,0,0,1-1.507,2.509A6.268,6.268,0,0,1,98.9,3.22L98.7,2.434a8.976,8.976,0,0,0,3.131-5.667,14.73,14.73,0,0,0,.3-3.028,5.572,5.572,0,0,0-1.422-4.2l.321-.766a4.532,4.532,0,0,1,1.3,1.418,6.689,6.689,0,0,1,.779,2.058,10.537,10.537,0,0,1,.222,2.43,11.676,11.676,0,0,1-.1,1.251Z" transform="translate(-3280 -4691)" fill="#12263f"/>
    <path id="Trazado_765687" data-name="Trazado 765687" d="M-3394.4-4705.5h221.638" transform="translate(5 -5)" fill="none" stroke="#12263f" stroke-width="1"/>
    <path id="Trazado_765807" data-name="Trazado 765807" d="M-13-6.146l2.905-3.808h1.586l-3.876,5L-10.066,0h-1.442l-1.764-3.876L-16.266,0h-1.586l3.958-5.079L-16.15-9.953h1.422ZM-1.412,0H-2.656l1.463-8.395-2.646.93.212-1.2L.065-10H.284ZM5.383.137A2.246,2.246,0,0,1,3.5-.755a3.96,3.96,0,0,1-.574-2.492q.014-.506.075-1l.246-1.661A6.162,6.162,0,0,1,4.495-9.078,2.991,2.991,0,0,1,6.928-10.09a2.273,2.273,0,0,1,1.9.872A3.872,3.872,0,0,1,9.4-6.768q-.021.513-.082,1L9.082-4.156A6.53,6.53,0,0,1,7.8-.868,2.972,2.972,0,0,1,5.383.137ZM8.125-5.988a10.581,10.581,0,0,0,.089-1.285Q8.179-9.01,6.867-9.058a1.8,1.8,0,0,0-1.548.708,4.9,4.9,0,0,0-.824,2.328L4.2-4.04a10.084,10.084,0,0,0-.089,1.292Q4.146-.937,5.452-.889a1.756,1.756,0,0,0,1.5-.67A4.75,4.75,0,0,0,7.8-3.814ZM13.081.137a2.246,2.246,0,0,1-1.887-.892,3.96,3.96,0,0,1-.574-2.492q.014-.506.075-1l.246-1.661a6.162,6.162,0,0,1,1.251-3.172,2.991,2.991,0,0,1,2.434-1.012,2.273,2.273,0,0,1,1.9.872A3.872,3.872,0,0,1,17.1-6.768q-.021.513-.082,1l-.239,1.606A6.53,6.53,0,0,1,15.5-.868,2.972,2.972,0,0,1,13.081.137Zm2.741-6.125a10.581,10.581,0,0,0,.089-1.285q-.034-1.736-1.347-1.784a1.8,1.8,0,0,0-1.548.708,4.9,4.9,0,0,0-.824,2.328L11.9-4.04a10.084,10.084,0,0,0-.089,1.292q.034,1.812,1.34,1.859a1.756,1.756,0,0,0,1.5-.67,4.75,4.75,0,0,0,.844-2.256Z" transform="translate(-3140 -4705)" fill="#12263f"/>
    <g id="Trazado_765803" data-name="Trazado 765803" transform="translate(-3620 -4745)" fill="none">
      <path d="M0,0H508V70H0Z" stroke="none"/>
      <path d="M 2 2 L 2 68 L 506 68 L 506 2 L 2 2 M 0 0 L 508 0 L 508 70 L 0 70 L 0 0 Z" stroke="none" fill="#12263f"/>
    </g>
  </g>
</svg>
