<svg id="Grupo_1025463" data-name="Grupo 1025463" xmlns="http://www.w3.org/2000/svg" xmlns:xlink="http://www.w3.org/1999/xlink" width="440.625" height="440.625" viewBox="0 0 440.625 440.625">
  <defs>
    <clipPath id="clip-path">
      <rect id="Rectángulo_361377" data-name="Rectángulo 361377" width="440.625" height="440.625" fill="none"/>
    </clipPath>
    <clipPath id="clip-path-3">
      <rect id="Rectángulo_361366" data-name="Rectángulo 361366" width="310.22" height="310.22" fill="none"/>
    </clipPath>
    <clipPath id="clip-path-4">
      <path id="Trazado_765706" data-name="Trazado 765706" d="M342.168,192.169a155.11,155.11,0,1,1-155.11-155.11,155.111,155.111,0,0,1,155.11,155.11" transform="translate(-31.947 -37.059)" fill="none"/>
    </clipPath>
    <radialGradient id="radial-gradient" cx="0.5" cy="0.5" r="0.5" gradientTransform="matrix(1, 0, 0, -1, 0, 2.227)" gradientUnits="objectBoundingBox">
      <stop offset="0"/>
      <stop offset="1" stop-color="#fff"/>
    </radialGradient>
    <clipPath id="clip-path-5">
      <rect id="Rectángulo_361368" data-name="Rectángulo 361368" width="219.642" height="219.644" fill="none"/>
    </clipPath>
    <clipPath id="clip-path-6">
      <path id="Trazado_765708" data-name="Trazado 765708" d="M269.777,159.375A109.821,109.821,0,1,1,159.956,49.554,109.823,109.823,0,0,1,269.777,159.375" transform="translate(-50.135 -49.554)" fill="none"/>
    </clipPath>
    <radialGradient id="radial-gradient-2" r="0.5" gradientTransform="matrix(1, 0, 0, -1, 0, 2.854)" xlink:href="#radial-gradient"/>
  </defs>
  <g id="Grupo_1025485" data-name="Grupo 1025485" clip-path="url(#clip-path)">
    <g id="Grupo_1025474" data-name="Grupo 1025474">
      <g id="Grupo_1025473" data-name="Grupo 1025473" clip-path="url(#clip-path)">
        <path id="Trazado_765702" data-name="Trazado 765702" d="M220.313,0V220.313H0v-.2A220.318,220.318,0,0,1,220.313,0" fill="#fe7062"/>
        <path id="Trazado_765703" data-name="Trazado 765703" d="M220.313,85.821V306.134A220.33,220.33,0,0,1,0,85.821Z" transform="translate(0 134.491)" fill="#91b3fa"/>
        <path id="Trazado_765704" data-name="Trazado 765704" d="M306.134,85.821A220.294,220.294,0,0,1,85.821,306.134V85.821Z" transform="translate(134.491 134.491)" fill="#57dbd8"/>
        <path id="Trazado_765705" data-name="Trazado 765705" d="M306.134,220.313H85.821V0A220.337,220.337,0,0,1,306.134,220.313" transform="translate(134.491)" fill="#e6b046"/>
        <g id="Grupo_1025467" data-name="Grupo 1025467" transform="translate(82.012 95.135)" style="mix-blend-mode: multiply;isolation: isolate">
          <g id="Grupo_1025466" data-name="Grupo 1025466">
            <g id="Grupo_1025465" data-name="Grupo 1025465" clip-path="url(#clip-path-3)">
              <g id="Grupo_1025464" data-name="Grupo 1025464" transform="translate(0 0)">
                <g id="Grupo_1025463-2" data-name="Grupo 1025463" clip-path="url(#clip-path-4)">
                  <rect id="Rectángulo_361365" data-name="Rectángulo 361365" width="310.221" height="310.221" transform="translate(0 0)" fill="url(#radial-gradient)"/>
                </g>
              </g>
            </g>
          </g>
        </g>
        <path id="Trazado_765707" data-name="Trazado 765707" d="M316.1,173.11A142.99,142.99,0,1,1,173.111,30.119,142.99,142.99,0,0,1,316.1,173.11" transform="translate(47.206 47.2)" fill="#fff"/>
        <g id="Grupo_1025472" data-name="Grupo 1025472" transform="translate(128.703 127.211)" style="mix-blend-mode: multiply;isolation: isolate">
          <g id="Grupo_1025471" data-name="Grupo 1025471">
            <g id="Grupo_1025470" data-name="Grupo 1025470" clip-path="url(#clip-path-5)">
              <g id="Grupo_1025469" data-name="Grupo 1025469" transform="translate(0)">
                <g id="Grupo_1025468" data-name="Grupo 1025468" clip-path="url(#clip-path-6)">
                  <rect id="Rectángulo_361367" data-name="Rectángulo 361367" width="219.643" height="219.645" transform="translate(0)" fill="url(#radial-gradient-2)"/>
                </g>
              </g>
            </g>
          </g>
        </g>
        <path id="Trazado_765709" data-name="Trazado 765709" d="M171.9,149.382V258.253A219.265,219.265,0,0,1,30.893,207.206V149.382h1.756a86.252,86.252,0,0,0,60.99-25.263l7.748-7.745,7.745,7.745a86.252,86.252,0,0,0,60.99,25.263Z" transform="translate(48.413 182.372)" fill="#57dbd8"/>
        <path id="Trazado_765710" data-name="Trazado 765710" d="M108.869,171.814H0A219.262,219.262,0,0,1,51.045,30.807h57.824v1.758a86.247,86.247,0,0,0,25.263,60.987l7.745,7.748-7.745,7.748a86.247,86.247,0,0,0-25.263,60.987Z" transform="translate(0 48.278)" fill="#91b3fa"/>
        <path id="Trazado_765711" data-name="Trazado 765711" d="M149.383,85.83H258.252a219.262,219.262,0,0,1-51.045,141.007H149.383v-1.756a86.253,86.253,0,0,0-25.263-60.99l-7.745-7.745,7.745-7.748a86.253,86.253,0,0,0,25.263-60.99Z" transform="translate(182.373 134.506)" fill="#e6b046"/>
        <path id="Trazado_765712" data-name="Trazado 765712" d="M85.821,108.87V0A219.25,219.25,0,0,1,226.828,51.046V108.87h-1.756a86.253,86.253,0,0,0-60.99,25.263l-7.748,7.745-7.745-7.745A86.253,86.253,0,0,0,87.6,108.87Z" transform="translate(134.491 -0.002)" fill="#fe7062"/>
        <path id="Trazado_765713" data-name="Trazado 765713" d="M102.307,167.114l6.736-1.242.472,2.549L99.6,170.248l-2.837-15.4,3.17-.585Z" transform="translate(151.645 241.752)" fill="#12263f"/>
        <path id="Trazado_765714" data-name="Trazado 765714" d="M101.24,155.259a1.54,1.54,0,0,1,.193-1.227,2.019,2.019,0,0,1,2.475-.58,1.635,1.635,0,0,1,.524,2.251,1.756,1.756,0,0,1-1.124.729,1.773,1.773,0,0,1-1.335-.151,1.536,1.536,0,0,1-.732-1.022m6.564,13.5-3.037.714-2.66-11.326,3.034-.714Z" transform="translate(158.578 240.141)" fill="#12263f"/>
        <path id="Trazado_765715" data-name="Trazado 765715" d="M106.437,156.449l.475,1.214a4.084,4.084,0,0,1,2.749-2.431,3.1,3.1,0,0,1,3.471.788,4.009,4.009,0,0,1,2.819-2.726,3.48,3.48,0,0,1,3.019.226,5.056,5.056,0,0,1,1.856,2.9l2.187,7.1-2.98.919-2.182-7.09a2.211,2.211,0,0,0-.793-1.271,1.72,1.72,0,0,0-1.443-.033,1.939,1.939,0,0,0-1.456,1.843l2.359,7.632-2.968.914-2.182-7.08a2.18,2.18,0,0,0-.811-1.281,1.722,1.722,0,0,0-1.425-.033,2.01,2.01,0,0,0-1.507,1.612l2.418,7.863-2.97.914-3.422-11.121Z" transform="translate(162.435 239.868)" fill="#12263f"/>
        <path id="Trazado_765716" data-name="Trazado 765716" d="M122.575,155.727a6.986,6.986,0,0,1,.485,4.451,3.908,3.908,0,0,1-2.449,2.737,3.616,3.616,0,0,1-3.1-.069l2.056,5.085-2.883,1.163-6.038-14.93,2.672-1.081.526,1.017a3.658,3.658,0,0,1,2.223-2.362,3.954,3.954,0,0,1,3.7.221,7.181,7.181,0,0,1,2.749,3.62Zm-2.965.958a4.579,4.579,0,0,0-1.471-2.108,1.876,1.876,0,0,0-1.882-.19,2.037,2.037,0,0,0-1.445,1.792l1.787,4.415a2.074,2.074,0,0,0,2.316.305q2.064-.836.7-4.215" transform="translate(173.395 237.237)" fill="#12263f"/>
        <path id="Trazado_765717" data-name="Trazado 765717" d="M114.66,151.022a1.531,1.531,0,0,1-.062-1.24,2.025,2.025,0,0,1,2.31-1.071,1.644,1.644,0,0,1,.965,2.1,1.994,1.994,0,0,1-2.292,1.06,1.522,1.522,0,0,1-.922-.852m9.152,11.9-2.832,1.312-4.89-10.559,2.832-1.309Z" transform="translate(179.428 232.923)" fill="#12263f"/>
        <path id="Trazado_765718" data-name="Trazado 765718" d="M127.8,158.772a3.449,3.449,0,0,1-.76-.78,3.755,3.755,0,0,1-2.018,2.475,4.136,4.136,0,0,1-2.97.439,3.188,3.188,0,0,1-2.151-1.689,3.3,3.3,0,0,1-.1-3.152,6.746,6.746,0,0,1,3.047-2.721l1.268-.665-.311-.59a1.909,1.909,0,0,0-.965-.95,1.625,1.625,0,0,0-1.381.175,1.845,1.845,0,0,0-.916.906,1.282,1.282,0,0,0,.082,1.122l-2.755,1.44a3.138,3.138,0,0,1-.313-1.948,4.11,4.11,0,0,1,.937-2.013,6.4,6.4,0,0,1,2.041-1.62,5.063,5.063,0,0,1,3.525-.624,3.78,3.78,0,0,1,2.529,2.1l2.339,4.469a5.583,5.583,0,0,0,1.571,2l.085.162Zm-3.278-.724a2.684,2.684,0,0,0,.983-.86,2.047,2.047,0,0,0,.38-1.127l-.927-1.771-1.029.537q-2.072,1.082-1.453,2.58l.074.167a1.237,1.237,0,0,0,.806.66,1.6,1.6,0,0,0,1.165-.185" transform="translate(184.165 232.675)" fill="#12263f"/>
        <path id="Trazado_765719" data-name="Trazado 765719" d="M128.2,148.808a8.337,8.337,0,0,0-1.006.5,2.275,2.275,0,0,0-1.379,2.205l3.884,6.549-2.672,1.584-5.938-10,2.526-1.5.783,1.147a2.877,2.877,0,0,1,1.409-2.7,3.281,3.281,0,0,1,.9-.375Z" transform="translate(189.761 229.136)" fill="#12263f"/>
        <path id="Trazado_765720" data-name="Trazado 765720" d="M12.615,87.45l15.552-1.794.552,4.785a7.287,7.287,0,0,1-.5,3.776,6.476,6.476,0,0,1-2.334,2.829A8.169,8.169,0,0,1,22.116,98.4l-.716.082a8.18,8.18,0,0,1-3.958-.447,6.428,6.428,0,0,1-2.909-2.213,7.37,7.37,0,0,1-1.363-3.555Zm13.326,1.71-10.381,1.2.177,1.548A3.5,3.5,0,0,0,17.3,94.638a5.583,5.583,0,0,0,3.63.611l.824-.1a5.656,5.656,0,0,0,3.481-1.4,3.488,3.488,0,0,0,.891-3.014Z" transform="translate(19.769 134.233)" fill="#12263f"/>
        <path id="Trazado_765721" data-name="Trazado 765721" d="M13.893,96.8l-.534-3.073L24.821,91.74l.534,3.073Zm13.862-5.761a1.53,1.53,0,0,1,1.214.264,2.021,2.021,0,0,1,.436,2.506,1.646,1.646,0,0,1-2.28.39,2,2,0,0,1-.434-2.49,1.528,1.528,0,0,1,1.063-.67" transform="translate(20.935 142.633)" fill="#12263f"/>
        <path id="Trazado_765722" data-name="Trazado 765722" d="M17.934,101.17a1,1,0,0,0,.752-.75,6.353,6.353,0,0,0,.175-1.895q-.062-4.24,2.531-4.824a3.2,3.2,0,0,1,2.8.685,5.2,5.2,0,0,1,1.751,3.052,5.571,5.571,0,0,1-.241,3.684,3.286,3.286,0,0,1-2.351,1.892l-.683-3.032a1.508,1.508,0,0,0,.983-.662,1.832,1.832,0,0,0,.128-1.407,1.873,1.873,0,0,0-.611-1.109,1.134,1.134,0,0,0-.978-.221.965.965,0,0,0-.706.66,5.118,5.118,0,0,0-.172,1.733,13.409,13.409,0,0,1-.08,2.023,3.212,3.212,0,0,1-2.511,3.088,3.033,3.033,0,0,1-2.814-.768,5.893,5.893,0,0,1-1.733-3.224,6.112,6.112,0,0,1-.062-2.649,4.372,4.372,0,0,1,1-2.049,3.334,3.334,0,0,1,1.774-1.06l.647,2.873a1.623,1.623,0,0,0-1.1.878,2.412,2.412,0,0,0-.095,1.586,2.247,2.247,0,0,0,.626,1.243,1.051,1.051,0,0,0,.965.252" transform="translate(21.939 146.711)" fill="#12263f"/>
        <path id="Trazado_765723" data-name="Trazado 765723" d="M17.834,104.463a2.044,2.044,0,0,0,.85,1.209,1.658,1.658,0,0,0,1.363.18l.824,2.8a3.988,3.988,0,0,1-2.262-.008,4.231,4.231,0,0,1-1.954-1.235,5.381,5.381,0,0,1-1.209-2.185A5.055,5.055,0,0,1,15.855,101a6.285,6.285,0,0,1,3.8-2.618l.2-.056a6.206,6.206,0,0,1,4.521.162,4.993,4.993,0,0,1,2.644,3.312,4.907,4.907,0,0,1-.2,3.71,4.4,4.4,0,0,1-2.8,2.218l-.821-2.8a2.139,2.139,0,0,0,1.258-.952,2.08,2.08,0,0,0-1.078-2.873,4.591,4.591,0,0,0-2.621.193l-.311.092a4.663,4.663,0,0,0-2.326,1.255,1.9,1.9,0,0,0-.282,1.82" transform="translate(23.779 153.545)" fill="#12263f"/>
        <path id="Trazado_765724" data-name="Trazado 765724" d="M17.232,109.5,16.2,106.554l10.985-3.83,1.027,2.944Zm12.741-7.938a1.527,1.527,0,0,1,1.24.062,2.018,2.018,0,0,1,.839,2.4,1.646,1.646,0,0,1-2.187.755,1.991,1.991,0,0,1-.832-2.385,1.53,1.53,0,0,1,.94-.834" transform="translate(25.395 158.999)" fill="#12263f"/>
        <path id="Trazado_765725" data-name="Trazado 765725" d="M28.763,115.936a6.981,6.981,0,0,1-4.446.5,3.909,3.909,0,0,1-2.744-2.441,3.611,3.611,0,0,1,.056-3.1l-5.075,2.072-1.176-2.88L30.29,104l1.091,2.67-1.017.529a3.668,3.668,0,0,1,2.369,2.218,3.942,3.942,0,0,1-.211,3.7,7.164,7.164,0,0,1-3.609,2.762Zm-.965-2.962a4.552,4.552,0,0,0,2.1-1.476,1.87,1.87,0,0,0,.185-1.882,2.033,2.033,0,0,0-1.794-1.443l-4.41,1.8a2.065,2.065,0,0,0-.3,2.316q.839,2.06,4.215.683" transform="translate(24.099 162.979)" fill="#12263f"/>
        <rect id="Rectángulo_361369" data-name="Rectángulo 361369" width="16.516" height="3.118" transform="translate(48.715 283.417) rotate(-25.194)" fill="#12263f"/>
        <path id="Trazado_765726" data-name="Trazado 765726" d="M21.432,119.622l-1.42-2.775,10.358-5.3,1.422,2.775Zm11.537-9.609a1.523,1.523,0,0,1,1.237-.108,2.021,2.021,0,0,1,1.158,2.264,1.648,1.648,0,0,1-2.064,1.05,2.006,2.006,0,0,1-1.15-2.251,1.533,1.533,0,0,1,.819-.955" transform="translate(31.361 172.102)" fill="#12263f"/>
        <path id="Trazado_765727" data-name="Trazado 765727" d="M32.627,114.939l-1.117.757a4.069,4.069,0,0,1,3.027,2.113,3.387,3.387,0,0,1,.439,2.926,5.081,5.081,0,0,1-2.349,2.428l-6.505,3.763-1.558-2.69L31,120.51a2.014,2.014,0,0,0,1.029-1.091,1.932,1.932,0,0,0-.331-1.461,2.14,2.14,0,0,0-1.954-1.142l-7.1,4.107-1.558-2.688,10.071-5.827Z" transform="translate(33.05 176.156)" fill="#12263f"/>
        <path id="Trazado_765728" data-name="Trazado 765728" d="M26.834,127.836a3.406,3.406,0,0,1,.691-.842,3.762,3.762,0,0,1-2.683-1.733,4.132,4.132,0,0,1-.762-2.9,3.173,3.173,0,0,1,1.443-2.323,3.279,3.279,0,0,1,3.119-.449,6.768,6.768,0,0,1,3.042,2.726l.8,1.186.552-.372a1.905,1.905,0,0,0,.839-1.063,1.64,1.64,0,0,0-.329-1.355,1.86,1.86,0,0,0-1-.811,1.281,1.281,0,0,0-1.1.208L29.7,117.527a3.129,3.129,0,0,1,1.9-.526,4.12,4.12,0,0,1,2.105.706,6.458,6.458,0,0,1,1.833,1.851,5.069,5.069,0,0,1,1.011,3.435,3.778,3.778,0,0,1-1.812,2.744l-4.184,2.819a5.54,5.54,0,0,0-1.818,1.782l-.154.1Zm.357-3.34a2.673,2.673,0,0,0,.963.881,2,2,0,0,0,1.163.254l1.661-1.117-.649-.963q-1.305-1.937-2.726-1.16l-.157.095a1.244,1.244,0,0,0-.567.873,1.586,1.586,0,0,0,.313,1.137" transform="translate(37.685 183.35)" fill="#12263f"/>
        <path id="Trazado_765729" data-name="Trazado 765729" d="M61.855,27.675a5.528,5.528,0,0,1,.678,4.341A6.535,6.535,0,0,1,59.667,35.7a5.89,5.89,0,0,1-5.06.968,8.307,8.307,0,0,1-4.544-3.645l-.534-.8a9.4,9.4,0,0,1-1.566-3.743,5.953,5.953,0,0,1,.411-3.46,7.105,7.105,0,0,1,6.764-3.92,5.962,5.962,0,0,1,3.866,2.308l-2.675,1.8a3.253,3.253,0,0,0-1.93-1.35,3.122,3.122,0,0,0-2.213.667,2.751,2.751,0,0,0-1.355,2.308,6.5,6.5,0,0,0,1.325,3.435l.66.981A6.927,6.927,0,0,0,55.529,33.9a2.683,2.683,0,0,0,2.665-.385A3.179,3.179,0,0,0,59.662,31.7a3.069,3.069,0,0,0-.483-2.223Z" transform="translate(75.024 33.004)" fill="#12263f"/>
        <rect id="Rectángulo_361370" data-name="Rectángulo 361370" width="3.119" height="16.516" transform="matrix(0.863, -0.506, 0.506, 0.863, 133.045, 49.931)" fill="#12263f"/>
        <path id="Trazado_765730" data-name="Trazado 765730" d="M65.524,29.016a3.417,3.417,0,0,1-.755-.786,3.745,3.745,0,0,1-2.038,2.457,4.13,4.13,0,0,1-2.973.411,3.184,3.184,0,0,1-2.138-1.71,3.294,3.294,0,0,1-.072-3.152,6.776,6.776,0,0,1,3.073-2.693l1.273-.652-.3-.593a1.92,1.92,0,0,0-.958-.96,1.625,1.625,0,0,0-1.384.164,1.848,1.848,0,0,0-.924.9A1.272,1.272,0,0,0,58.4,23.52l-2.767,1.414a3.118,3.118,0,0,1-.3-1.948,4.148,4.148,0,0,1,.955-2,6.448,6.448,0,0,1,2.056-1.6,5.085,5.085,0,0,1,3.53-.593,3.79,3.79,0,0,1,2.511,2.131l2.3,4.487a5.515,5.515,0,0,0,1.553,2.02l.082.162Zm-3.273-.752a2.682,2.682,0,0,0,.991-.85,2.007,2.007,0,0,0,.39-1.124l-.911-1.782-1.032.529Q59.609,26.1,60.212,27.6l.072.169a1.253,1.253,0,0,0,.8.665,1.584,1.584,0,0,0,1.168-.175" transform="translate(86.65 29.27)" fill="#12263f"/>
        <path id="Trazado_765731" data-name="Trazado 765731" d="M67.744,24.538a1,1,0,0,0-.868-.608,6.489,6.489,0,0,0-1.9.164q-4.163.812-5.2-1.635a3.206,3.206,0,0,1,.18-2.883,5.2,5.2,0,0,1,2.693-2.262,5.585,5.585,0,0,1,3.671-.418A3.281,3.281,0,0,1,68.6,18.878l-2.862,1.209a1.5,1.5,0,0,0-.824-.85,1.83,1.83,0,0,0-1.407.121,1.876,1.876,0,0,0-.983.8,1.114,1.114,0,0,0-.041,1,.946.946,0,0,0,.77.578,5,5,0,0,0,1.735-.136,13.49,13.49,0,0,1,2.007-.28,3.211,3.211,0,0,1,3.484,1.925,3.021,3.021,0,0,1-.257,2.9,5.889,5.889,0,0,1-2.867,2.277,6.146,6.146,0,0,1-2.593.529,4.373,4.373,0,0,1-2.2-.624,3.342,3.342,0,0,1-1.355-1.558l2.713-1.145a1.624,1.624,0,0,0,1.058.929,2.424,2.424,0,0,0,1.579-.187,2.229,2.229,0,0,0,1.112-.837,1.055,1.055,0,0,0,.077-.993" transform="translate(93.275 26.242)" fill="#12263f"/>
        <path id="Trazado_765732" data-name="Trazado 765732" d="M63.094,16.247a1.528,1.528,0,0,1,.051-1.24,2.014,2.014,0,0,1,2.393-.857,1.5,1.5,0,0,1,.834.922,1.523,1.523,0,0,1-.056,1.255,1.783,1.783,0,0,1-1.037.852,1.759,1.759,0,0,1-1.343,0,1.514,1.514,0,0,1-.842-.932m8.05,12.671-2.937,1.053L64.283,19.02l2.934-1.053Z" transform="translate(98.709 21.967)" fill="#12263f"/>
        <path id="Trazado_765733" data-name="Trazado 765733" d="M70.48,30.11l-2.767-8.936-1.653.511-.675-2.177,1.653-.513-.293-.942a4.025,4.025,0,0,1,.175-3.237A4.367,4.367,0,0,1,69.6,12.854a7.262,7.262,0,0,1,1.574-.262l.683,2.31a4,4,0,0,0-.934.187,1.5,1.5,0,0,0-1.186,2.09l.277.9,2.208-.685.673,2.177-2.205.685,2.765,8.936Z" transform="translate(102.464 19.733)" fill="#12263f"/>
        <path id="Trazado_765734" data-name="Trazado 765734" d="M68.511,14.4a1.539,1.539,0,0,1,.159-1.232,2.018,2.018,0,0,1,2.462-.644,1.637,1.637,0,0,1,.58,2.236,1.994,1.994,0,0,1-2.444.642,1.52,1.52,0,0,1-.757-1m6.908,13.328-3.016.791L69.451,17.265l3.016-.791Z" transform="translate(107.27 19.321)" fill="#12263f"/>
        <path id="Trazado_765735" data-name="Trazado 765735" d="M77.46,22.643a2.024,2.024,0,0,0,1.276-.744,1.655,1.655,0,0,0,.3-1.343l2.857-.583a4.006,4.006,0,0,1-.2,2.251,4.239,4.239,0,0,1-1.4,1.843,5.438,5.438,0,0,1-2.277,1.019,5.046,5.046,0,0,1-4.174-.768,6.277,6.277,0,0,1-2.287-4l-.041-.2a6.2,6.2,0,0,1,.544-4.49,5,5,0,0,1,3.527-2.354,4.9,4.9,0,0,1,3.676.516,4.4,4.4,0,0,1,1.972,2.973l-2.855.583a2.123,2.123,0,0,0-.842-1.332,2.082,2.082,0,0,0-2.955.829,4.618,4.618,0,0,0-.028,2.629l.064.316a4.668,4.668,0,0,0,1.055,2.423,1.9,1.9,0,0,0,1.789.436" transform="translate(111.788 20.582)" fill="#12263f"/>
        <path id="Trazado_765736" data-name="Trazado 765736" d="M83.792,23.966a3.372,3.372,0,0,1-.442-.993,3.762,3.762,0,0,1-2.754,1.62,4.117,4.117,0,0,1-2.934-.624,3.175,3.175,0,0,1-1.432-2.331,3.3,3.3,0,0,1,1-2.988,6.762,6.762,0,0,1,3.8-1.494l1.417-.182-.085-.662a1.907,1.907,0,0,0-.572-1.225,1.626,1.626,0,0,0-1.358-.318,1.861,1.861,0,0,0-1.173.534,1.266,1.266,0,0,0-.313,1.076l-3.081.4a3.128,3.128,0,0,1,.38-1.938,4.129,4.129,0,0,1,1.579-1.558,6.339,6.339,0,0,1,2.477-.809,5.068,5.068,0,0,1,3.522.637,3.782,3.782,0,0,1,1.638,2.855l.639,5a5.6,5.6,0,0,0,.778,2.428l.023.177Zm-2.824-1.818a2.638,2.638,0,0,0,1.219-.465,2.021,2.021,0,0,0,.75-.924l-.254-1.982-1.153.144q-2.314.3-2.259,1.915l.013.182a1.251,1.251,0,0,0,.526.9,1.588,1.588,0,0,0,1.158.228" transform="translate(118.856 19.444)" fill="#12263f"/>
        <path id="Trazado_765737" data-name="Trazado 765737" d="M87.254,15.041a8.336,8.336,0,0,0-1.122-.013A2.279,2.279,0,0,0,83.9,16.366l.488,7.6-3.1.2-.744-11.611,2.932-.187.172,1.379a2.881,2.881,0,0,1,2.488-1.764,3.262,3.262,0,0,1,.97.077Z" transform="translate(126.217 18.76)" fill="#12263f"/>
        <path id="Trazado_765738" data-name="Trazado 765738" d="M155.1,57.2a9.469,9.469,0,0,1-3.989,1.083,6.155,6.155,0,0,1-3.45-.891,6.458,6.458,0,0,1-2.408-2.7,6.523,6.523,0,0,1-.716-3.525,6.208,6.208,0,0,1,1.332-3.312,9.154,9.154,0,0,1,3.191-2.549l.693-.344a9.352,9.352,0,0,1,4.012-1.076,6.194,6.194,0,0,1,3.466.9,6.892,6.892,0,0,1,3.114,6.223,6.221,6.221,0,0,1-1.361,3.312,9.36,9.36,0,0,1-3.258,2.562Zm-.827-3.242a6.6,6.6,0,0,0,2.952-2.462A3.114,3.114,0,0,0,155,47a6.489,6.489,0,0,0-3.712.857l-.685.341a6.7,6.7,0,0,0-2.932,2.454,3.091,3.091,0,0,0,2.208,4.523,6.64,6.64,0,0,0,3.717-.875Z" transform="translate(226.47 68.78)" fill="#12263f"/>
        <path id="Trazado_765739" data-name="Trazado 765739" d="M156.913,56.436a8.005,8.005,0,0,0-.365-1.06,2.279,2.279,0,0,0-2.013-1.651l-6.985,3.021-1.235-2.852L157,49.279l1.163,2.7-1.237.629a2.879,2.879,0,0,1,2.5,1.743,3.41,3.41,0,0,1,.254.942Z" transform="translate(229.294 77.226)" fill="#12263f"/>
        <path id="Trazado_765740" data-name="Trazado 765740" d="M152.321,53.275a7.01,7.01,0,0,1,4.487-.377,3.958,3.958,0,0,1,2.683,2.559,3.575,3.575,0,0,1-.2,3.073l5.558-2.082,1.094,2.919-15.467,5.8-.983-2.629,1.1-.572a3.666,3.666,0,0,1-2.408-2.29,3.949,3.949,0,0,1,.359-3.656,7.248,7.248,0,0,1,3.776-2.742m.875,2.991a4.586,4.586,0,0,0-2.149,1.414,1.85,1.85,0,0,0-.236,1.856,2.074,2.074,0,0,0,1.853,1.476L156.97,59.4a2.048,2.048,0,0,0,.434-2.31q-.789-2.106-4.208-.824" transform="translate(231.771 82.556)" fill="#12263f"/>
        <path id="Trazado_765741" data-name="Trazado 765741" d="M149.909,65.054a5.711,5.711,0,0,1,.27-4.446,5.587,5.587,0,0,1,3.522-2.77l.285-.09a7.054,7.054,0,0,1,3.2-.277,4.955,4.955,0,0,1,2.6,1.2,5.393,5.393,0,0,1,1.553,2.485,4.842,4.842,0,0,1-.329,4.035,6.118,6.118,0,0,1-3.674,2.572l-1.214.375-2.187-7.078a2.858,2.858,0,0,0-1.476,1.407,2.733,2.733,0,0,0-.092,2.038,3.357,3.357,0,0,0,2.072,2.295l-1.183,1.964a4.663,4.663,0,0,1-2.033-1.353,6.244,6.244,0,0,1-1.309-2.362m9.029-3.163a1.938,1.938,0,0,0-1.042-1.248,3.225,3.225,0,0,0-1.93-.175l1.278,4.13.236-.074a2.319,2.319,0,0,0,1.368-1.009,2.024,2.024,0,0,0,.09-1.625" transform="translate(234.422 89.946)" fill="#12263f"/>
        <path id="Trazado_765742" data-name="Trazado 765742" d="M162.487,64.435l-1.281.416a4.061,4.061,0,0,1,2.313,2.873,3.376,3.376,0,0,1-.4,2.934,5.067,5.067,0,0,1-2.934,1.674l-7.3,1.8-.742-3.016,7.224-1.782a2.009,2.009,0,0,0,1.291-.762,1.922,1.922,0,0,0,.09-1.494,2.141,2.141,0,0,0-1.556-1.643L151.233,67.4l-.742-3.016,11.3-2.785Z" transform="translate(235.837 96.528)" fill="#12263f"/>
        <path id="Trazado_765743" data-name="Trazado 765743" d="M152.623,74.992a3.619,3.619,0,0,1,.968-.5,3.74,3.74,0,0,1-1.769-2.652,4.13,4.13,0,0,1,.457-2.97,3.18,3.18,0,0,1,2.246-1.558,3.282,3.282,0,0,1,3.039.829,6.77,6.77,0,0,1,1.707,3.712l.262,1.407.657-.121a1.936,1.936,0,0,0,1.191-.642,1.655,1.655,0,0,0,.236-1.376,1.847,1.847,0,0,0-.593-1.14,1.294,1.294,0,0,0-1.1-.252l-.565-3.052a3.1,3.1,0,0,1,1.954.27,4.148,4.148,0,0,1,1.648,1.486,6.412,6.412,0,0,1,.947,2.428,5.059,5.059,0,0,1-.439,3.553,3.772,3.772,0,0,1-2.755,1.8l-4.962.919a5.539,5.539,0,0,0-2.38.916l-.177.028Zm1.658-2.921a2.679,2.679,0,0,0,.531,1.191,1.989,1.989,0,0,0,.968.7l1.966-.362-.21-1.142q-.427-2.295-2.041-2.149l-.185.021a1.273,1.273,0,0,0-.868.578,1.6,1.6,0,0,0-.162,1.168" transform="translate(237.782 104.408)" fill="#12263f"/>
        <path id="Trazado_765744" data-name="Trazado 765744" d="M161.916,78.011a8.8,8.8,0,0,0-.067-1.119,2.273,2.273,0,0,0-1.5-2.128L152.81,75.8l-.421-3.081,11.526-1.576.4,2.909-1.363.275a2.867,2.867,0,0,1,1.938,2.349,3.115,3.115,0,0,1-.008.978Z" transform="translate(238.811 111.483)" fill="#12263f"/>
        <path id="Trazado_765745" data-name="Trazado 765745" d="M268.875,155.367A113.491,113.491,0,1,1,155.383,41.875,113.492,113.492,0,0,1,268.875,155.367" transform="translate(65.651 65.623)" fill="#fff"/>
      </g>
    </g>
    <text id="Estandarizar" transform="translate(148.306 258.912)" fill="#12263f" font-size="22" font-family="OpenSans-Bold, Open Sans" font-weight="700"><tspan x="0" y="0">Estandarizar</tspan></text>
    <g id="Grupo_1025476" data-name="Grupo 1025476">
      <g id="Grupo_1025475" data-name="Grupo 1025475" clip-path="url(#clip-path)">
        <path id="Trazado_765746" data-name="Trazado 765746" d="M159.6,46.148A29.468,29.468,0,1,1,130.133,16.68,29.467,29.467,0,0,1,159.6,46.148" transform="translate(157.754 26.14)" fill="#fff"/>
        <path id="Trazado_765747" data-name="Trazado 765747" d="M145.7,40.879a20.837,20.837,0,1,1-20.837-20.837A20.837,20.837,0,0,1,145.7,40.879" transform="translate(163.022 31.408)" fill="#fe7062"/>
      </g>
    </g>
    <text id="_01" data-name="01" transform="translate(274.561 79.982)" font-size="23" font-family="Roboto-Bold, Roboto" font-weight="700"><tspan x="0" y="0">01</tspan></text>
    <g id="Grupo_1025478" data-name="Grupo 1025478">
      <g id="Grupo_1025477" data-name="Grupo 1025477" clip-path="url(#clip-path)">
        <path id="Trazado_765748" data-name="Trazado 765748" d="M194.435,133.054a29.469,29.469,0,1,1-29.468-29.468,29.469,29.469,0,0,1,29.468,29.468" transform="translate(212.34 162.331)" fill="#fff"/>
        <path id="Trazado_765749" data-name="Trazado 765749" d="M180.534,127.785A20.837,20.837,0,1,1,159.7,106.948a20.837,20.837,0,0,1,20.837,20.837" transform="translate(217.608 167.6)" fill="#e6b046"/>
      </g>
    </g>
    <text id="_02" data-name="02" transform="translate(363.979 303.08)" font-size="23" font-family="Roboto-Bold, Roboto" font-weight="700"><tspan x="0" y="0">02</tspan></text>
    <g id="Grupo_1025480" data-name="Grupo 1025480">
      <g id="Grupo_1025479" data-name="Grupo 1025479" clip-path="url(#clip-path)">
        <path id="Trazado_765750" data-name="Trazado 765750" d="M108.721,166.455a29.468,29.468,0,1,1-29.468-29.468,29.467,29.467,0,0,1,29.468,29.468" transform="translate(78.019 214.675)" fill="#fff"/>
        <path id="Trazado_765751" data-name="Trazado 765751" d="M94.823,161.186a20.839,20.839,0,1,1-20.837-20.837,20.839,20.839,0,0,1,20.837,20.837" transform="translate(83.286 219.943)" fill="#57dbd8"/>
      </g>
    </g>
    <text id="_03" data-name="03" transform="translate(143.944 388.825)" font-size="23" font-family="Roboto-Bold, Roboto" font-weight="700"><tspan x="0" y="0">03</tspan></text>
    <g id="Grupo_1025482" data-name="Grupo 1025482">
      <g id="Grupo_1025481" data-name="Grupo 1025481" clip-path="url(#clip-path)">
        <path id="Trazado_765752" data-name="Trazado 765752" d="M75.091,73.256A29.468,29.468,0,1,1,45.623,43.788,29.467,29.467,0,0,1,75.091,73.256" transform="translate(25.317 68.621)" fill="#fff"/>
        <path id="Trazado_765753" data-name="Trazado 765753" d="M61.192,67.987A20.837,20.837,0,1,1,40.354,47.15,20.837,20.837,0,0,1,61.192,67.987" transform="translate(30.585 73.89)" fill="#91b3fa"/>
      </g>
    </g>
    <text id="_04" data-name="04" transform="translate(57.612 149.572)" font-size="23" font-family="Roboto-Bold, Roboto" font-weight="700"><tspan x="0" y="0">04</tspan></text>
    <g id="Grupo_1025484" data-name="Grupo 1025484">
      <g id="Grupo_1025483" data-name="Grupo 1025483" clip-path="url(#clip-path)">
        <path id="Trazado_765754" data-name="Trazado 765754" d="M116.207,77.439H131a5.944,5.944,0,0,1,5.922,4.826,5.488,5.488,0,0,1,.1,1.065q.008,13.543.005,27.083a1.109,1.109,0,0,1-1.545,1.135,1.064,1.064,0,0,1-.662-.94c-.013-.136-.005-.277-.005-.413q0-13.37,0-26.739a3.736,3.736,0,0,0-7.465-.28c-.005.139-.005.277-.005.416v34.972a6.7,6.7,0,0,1-5.827,6.777,7.653,7.653,0,0,1-1.137.059q-11.591,0-23.176,0a3.935,3.935,0,0,1-.552-.026,1.1,1.1,0,0,1-.051-2.162,3.039,3.039,0,0,1,.552-.036q9.011,0,18.021,0h.472c-.1-.134-.162-.223-.228-.308a6.543,6.543,0,0,1-1.425-4.1q0-2.353,0-4.7a1.112,1.112,0,1,1,2.213,0c0,1.535,0,3.068,0,4.6a4.421,4.421,0,0,0,4.433,4.516,4.482,4.482,0,0,0,4.49-4.521q.008-17.209-.01-34.417a6.781,6.781,0,0,1,1.322-4.559H116.207v.38c0,1.017,0,2.031,0,3.045a1.107,1.107,0,1,1-2.21-.01q0-7.817,0-15.636v-.475H76.981V118.69a4.414,4.414,0,0,0,4.5,4.487c2.259,0,4.521,0,6.78,0a1.114,1.114,0,0,1,1.25,1.16,1.09,1.09,0,0,1-.934,1.042,1.8,1.8,0,0,1-.205.018c-2.421,0-4.844.054-7.262-.028a6.578,6.578,0,0,1-6.338-6.646V66.113c0-1,.375-1.384,1.376-1.384q19.369,0,38.74,0c.924,0,1.325.408,1.325,1.332V77.439" transform="translate(117.167 101.437)" fill="#12263f"/>
        <path id="Trazado_765755" data-name="Trazado 765755" d="M104.6,75.086a4.354,4.354,0,0,1,6.269,5.838c-.262.406-.552.8-.847,1.178a.524.524,0,0,0-.087.534,14.589,14.589,0,1,1-5.586-7.724c.077.051.151.105.252.175M103.141,76.8a12.374,12.374,0,1,0-.454,20.483,12.451,12.451,0,0,0,4.644-5.447,11.711,11.711,0,0,0,.788-7.075c-.074.1-.144.193-.208.285q-2.615,3.616-5.224,7.232a4.283,4.283,0,0,1-3.612,1.9c-2.916.013-5.832,0-8.749,0a1.137,1.137,0,0,1-1.263-1.122,1.117,1.117,0,0,1,1.245-1.094H95.09c-.18-.19-.288-.311-.4-.426q-2.407-2.507-4.813-5.014a4.249,4.249,0,0,1-1.243-2.708,4.341,4.341,0,0,1,7.475-3.353c.75.768,1.486,1.545,2.226,2.323a2.571,2.571,0,0,1,.228.344c1.566-2.169,3.063-4.243,4.575-6.333m-12.3,6.893a2.152,2.152,0,0,0,.665,1.322q2.957,3.077,5.912,6.161a2.131,2.131,0,0,0,3.486-.221q2.072-2.853,4.131-5.714c1.3-1.8,2.611-3.6,3.9-5.411a2.126,2.126,0,0,0-2-3.36A2.329,2.329,0,0,0,105.29,77.6q-2.784,3.874-5.583,7.737A1.165,1.165,0,0,1,98.7,85.9a1.226,1.226,0,0,1-.891-.465q-1.648-1.725-3.3-3.442a2.1,2.1,0,0,0-2.351-.5,2.214,2.214,0,0,0-1.314,2.2" transform="translate(127.517 113.245)" fill="#12263f"/>
        <path id="Trazado_765756" data-name="Trazado 765756" d="M90.954,69.95h-12.1a1.109,1.109,0,0,1-.2-2.21c.08-.008.162,0,.241,0h24.131a1.118,1.118,0,0,1,1.258,1.078,1.1,1.1,0,0,1-1.029,1.132c-.126.008-.254,0-.38,0H90.954" transform="translate(121.685 106.149)" fill="#12263f"/>
        <path id="Trazado_765757" data-name="Trazado 765757" d="M90.957,70.079h12.135a1.109,1.109,0,1,1,.18,2.21c-.136.01-.277,0-.413,0H78.866a1.111,1.111,0,1,1-.008-2.213h12.1" transform="translate(121.685 109.822)" fill="#12263f"/>
        <path id="Trazado_765758" data-name="Trazado 765758" d="M84.613,86.37c-1.936,0-3.871.005-5.8,0a1.1,1.1,0,0,1-1.035-1.6,1.16,1.16,0,0,1,1.15-.611c1.82.005,3.64,0,5.46,0q2.973,0,5.945,0a1.123,1.123,0,0,1,1.237,1.032,1.084,1.084,0,0,1-1.15,1.178c-1.692.008-3.386,0-5.078,0h-.726" transform="translate(121.678 131.881)" fill="#12263f"/>
        <path id="Trazado_765759" data-name="Trazado 765759" d="M83.552,72.422h4.629a1.113,1.113,0,1,1,.013,2.213q-4.663,0-9.326,0a1.111,1.111,0,1,1-.013-2.213q2.349,0,4.7,0" transform="translate(121.683 113.491)" fill="#12263f"/>
        <path id="Trazado_765760" data-name="Trazado 765760" d="M81.787,74.765c.978,0,1.956,0,2.937,0a1.106,1.106,0,1,1,.013,2.21q-2.969.012-5.94,0a1.106,1.106,0,1,1,.021-2.21c.991,0,1.979,0,2.97,0" transform="translate(121.685 117.163)" fill="#12263f"/>
        <path id="Trazado_765761" data-name="Trazado 765761" d="M81.488,81.674c-.878,0-1.751,0-2.631,0a1.111,1.111,0,1,1,.008-2.213q2.63,0,5.257,0a1.111,1.111,0,1,1-.005,2.213c-.878,0-1.753,0-2.629,0" transform="translate(121.683 124.522)" fill="#12263f"/>
        <path id="Trazado_765762" data-name="Trazado 765762" d="M81.219,77.113c.819,0,1.638-.015,2.454.005a1.067,1.067,0,0,1,1.027.909,1.087,1.087,0,0,1-.667,1.2,1.539,1.539,0,0,1-.539.095q-2.314.012-4.634,0a1.117,1.117,0,0,1-1.163-.793,1.054,1.054,0,0,1,.452-1.235,1.571,1.571,0,0,1,.719-.182c.783-.023,1.569-.01,2.351-.01Z" transform="translate(121.681 120.827)" fill="#12263f"/>
        <path id="Trazado_765763" data-name="Trazado 765763" d="M101.786,75.442c-1.509,2.09-3.009,4.164-4.575,6.333a2.216,2.216,0,0,0-.228-.344c-.737-.778-1.476-1.556-2.226-2.323a4.34,4.34,0,0,0-7.475,3.353,4.275,4.275,0,0,0,1.242,2.708q2.411,2.5,4.813,5.014c.113.116.221.236.4.426H88.953A1.117,1.117,0,0,0,87.708,91.7a1.138,1.138,0,0,0,1.263,1.122c2.916,0,5.832.013,8.751,0a4.279,4.279,0,0,0,3.609-1.9q2.607-3.62,5.224-7.232l.208-.288a11.717,11.717,0,0,1-.788,7.078,12.394,12.394,0,1,1-4.19-15.036" transform="translate(128.872 114.602)" fill="#e6b046"/>
        <path id="Trazado_765764" data-name="Trazado 765764" d="M85.058,81.135a2.214,2.214,0,0,1,1.314-2.2,2.1,2.1,0,0,1,2.351.5q1.66,1.714,3.3,3.442a1.226,1.226,0,0,0,.891.465,1.165,1.165,0,0,0,1.009-.557q2.792-3.87,5.583-7.737a2.329,2.329,0,0,1,1.648-1.137,2.126,2.126,0,0,1,2,3.36c-1.294,1.81-2.6,3.607-3.9,5.411Q97.188,85.54,95.121,88.4a2.131,2.131,0,0,1-3.486.221q-2.957-3.081-5.912-6.161a2.152,2.152,0,0,1-.665-1.322" transform="translate(133.296 115.801)" fill="#57dbd8"/>
      </g>
    </g>
  </g>
</svg>
