<svg xmlns="http://www.w3.org/2000/svg" xmlns:xlink="http://www.w3.org/1999/xlink" width="152" height="152" viewBox="0 0 152 152">
  <defs>
    <clipPath id="clip-path">
      <rect id="Rectángulo_357370" data-name="Rectángulo 357370" width="79.976" height="79.806" fill="none"/>
    </clipPath>
  </defs>
  <g id="Grupo_1024435" data-name="Grupo 1024435" transform="translate(7.173 7)">
    <g id="Grupo_1020472" data-name="Grupo 1020472">
      <circle id="Elipse_8460" data-name="Elipse 8460" cx="76" cy="76" r="76" transform="translate(-7.173 -7)" fill="#91b3fa" opacity="0.45"/>
      <circle id="Elipse_8461" data-name="Elipse 8461" cx="62" cy="62" r="62" transform="translate(6.827 7)" fill="#fff"/>
      <g id="Grupo_1020668" data-name="Grupo 1020668" transform="translate(33.017 30.093)">
        <g id="Grupo_1020480" data-name="Grupo 1020480" clip-path="url(#clip-path)">
          <path id="Trazado_748246" data-name="Trazado 748246" d="M259.94,86.327q7.95,0,15.9,0a1.464,1.464,0,0,0,1.521-1.3,1.349,1.349,0,0,0-1.144-1.677,7.356,7.356,0,0,0-2.527-.118c-.786.046-.907-.222-.9-.941.035-4.624.02-9.248.017-13.872,0-1.255-.668-2.154-1.68-2.165q-3.7-.038-7.4.006a1.416,1.416,0,0,0-1.509,1.564c-.016.649-.037,1.3,0,1.947.032.508-.125.662-.644.652-1.766-.033-3.533-.021-5.3-.008-.9.006-1.741.682-1.633,1.345.167,1.027,0,2.055.092,3.076.05.567-.1.759-.71.742-1.661-.047-3.325-.021-4.988-.015-1.367.005-1.781.409-1.791,1.777-.013,1.766-.016,3.533.006,5.3.005.429-.092.6-.553.576-.778-.037-1.558-.021-2.338-.008a1.806,1.806,0,0,0-1.917,1.561,1.771,1.771,0,0,0,1.912,1.554H259.94m13.835-44.856a1.491,1.491,0,0,0-1.622-1.6,1.633,1.633,0,0,0-1.5,1.578,1.488,1.488,0,0,0,1.521,1.538,1.434,1.434,0,0,0,1.6-1.52" transform="translate(-204.556 -33.644)" fill="#fff"/>
          <path id="Trazado_748247" data-name="Trazado 748247" d="M30.047,18.845c.006-3.533.032-7.065.008-10.6A1.794,1.794,0,0,1,32.082,6.23h7.872q10.4,0,20.809-.013a5.1,5.1,0,0,1,1.347.212c.736.2.9.833.866,1.51a1.47,1.47,0,0,1-1.247,1.405c-.18.017-.363,0-.545,0-9.015,0-18.03.014-27.044-.022-.841,0-.986.243-.977,1.018.043,3.558.019,7.117.019,10.676a2.56,2.56,0,0,1-.013.621c-.07.272-.253.539.08.752s.514-.134.72-.271c.545-.364,1.038-.805,1.587-1.163a4.477,4.477,0,0,1,3.844-.41,4.4,4.4,0,0,1,3.013,2.908,4.821,4.821,0,0,1-1.757,5.464c-1.232,1.006-2.385,2.094-3.574,3.143a5.594,5.594,0,0,1-3.493,1.589c-.464.02-.406.274-.407.555q0,2.65,0,5.3c0,6.027.009,12.053-.014,18.08,0,.573.121.724.713.723q21.082-.029,42.164,0c.557,0,.67-.149.669-.684q-.023-23.808,0-47.615c0-.549-.131-.716-.679-.674-.671.052-1.351-.009-2.025.018a1.654,1.654,0,0,1-1.521-.972,1.393,1.393,0,0,1,.145-1.492,1.229,1.229,0,0,1,1.132-.624,27.569,27.569,0,0,1,4.633.092,1.712,1.712,0,0,1,1.257.825.323.323,0,0,0,.033.14,27.934,27.934,0,0,1,.124,4.466q.014,22.034,0,44.068a27.936,27.936,0,0,1-.124,4.466l-.156.312a1.75,1.75,0,0,1-1.622.792Q55.2,61.4,32.5,61.413a2.025,2.025,0,0,1-.466-.005c-.679-.166-1.528.032-1.848-.905a3.875,3.875,0,0,1-.112-1.3c-.005-8.257-.025-16.513.024-24.77A1.735,1.735,0,0,0,29,32.542c0-.255-.126-.218-.28-.126l-2.509-2.5-.641-.7V30.2q0,21.39.024,42.78c0,.49-.287.9-.2,1.374a4.971,4.971,0,0,1-2.237,4.39,15.975,15.975,0,0,1-2.266,1.06h-.623c-.052-.107-.1-.108-.156,0h-1.4a8.591,8.591,0,0,1-2.34-1.277l-.169-.121-.147-.144c-.015-.114,0-.265-.165-.255-.051,0-.094.137-.141.211a8.779,8.779,0,0,1-2.962,1.586H11.692q-.156-.241-.312,0h-.624c-.053-.049-.1-.132-.16-.141A5.577,5.577,0,0,1,6.221,74.32c.075-2.512.015-5.028.016-7.542,0-1.237.33-1.583,1.556-1.65a1.244,1.244,0,0,1,1.357.886,4.665,4.665,0,0,1,.216,1.346c-.027,2.227.08,4.459-.044,6.68a2.489,2.489,0,0,0,3.018,2.651,2.132,2.132,0,0,0,1.716-2.5c.166-.042.527.082.269-.318.006-.311.017-.623.017-.934q0-10.833,0-21.665a1.4,1.4,0,0,1,2-1.412c.806.279,1.112.849,1.113,2.108q0,11.223,0,22.445a1.873,1.873,0,0,0,.155.892A2.591,2.591,0,0,0,20.6,76.675a2.851,2.851,0,0,0,1.846-2.722q0-16.015.016-32.031c0-.6-.167-.726-.737-.723q-5.807.038-11.613,0c-.6,0-.782.133-.777.762q.047,5.728.009,11.456c-.008,1.5-.619,2.185-1.554,2.253a1.475,1.475,0,0,1-1.555-1.664c0-1.142,0-2.283,0-3.425,0-1.472,0-2.943,0-4.5A4.307,4.307,0,0,1,2.125,45.7,6.026,6.026,0,0,1,0,42.863V24.469Q.3,24.235,0,24V22.91a17.383,17.383,0,0,1,.636-1.941A13.863,13.863,0,0,1,3.487,16.7a3.469,3.469,0,0,1,.568-.373c.116.034.141-.021.119-.122.047-.188.223-.142.346-.19.43,0,1.006.221.91-.591,1.187-.892,2.647-1.085,4.119-1.523A8.78,8.78,0,0,1,7.812,7.259,7.606,7.606,0,0,1,9.323,3.378c.092-.124.212-.228.193-.4a1.224,1.224,0,0,0,.475-.48l.3-.3a1.166,1.166,0,0,0,.469-.464A8.935,8.935,0,0,1,15.092.042a8.094,8.094,0,0,1,3.955.671A8.693,8.693,0,0,1,21.04,1.884a1.11,1.11,0,0,0,.47.459l.15.149.633.775A7.226,7.226,0,0,1,23.854,7.8c-.006.724.007,1.448.011,2.172-.1.028-.245-.035-.3.106-.04.1.012.175.116.207a6.073,6.073,0,0,1-1.42,3.5c-.261.37-.284.436.18.566a12.1,12.1,0,0,1,3.7,1.58,18.254,18.254,0,0,1,3.276,2.63,3.415,3.415,0,0,0,.347.3l.219.135.066-.156M6.221,41.3c.006-.311.016-.623.016-.934q0-5.922,0-11.844a1.318,1.318,0,0,1,.528-1.2,1.591,1.591,0,0,1,2.451.97,4.868,4.868,0,0,1,.138,1.284c0,2.6.025,5.2-.015,7.792-.01.635.193.753.777.749,3.844-.025,7.689-.037,11.533.009.734.009.823-.233.819-.869-.027-3.948-.011-7.9-.015-11.844a1.246,1.246,0,0,1,.66-1.266,1.475,1.475,0,0,1,2.1.358c1.732,1.722,3.449,3.457,5.179,5.179,1.14,1.134,3.125,1.439,4.134.51,1.481-1.365,3.135-2.531,4.525-4a1.852,1.852,0,0,0,.36-2.105c-.254-.458-1.224-.634-1.9-.624-.7.01-.882.595-1.331.863a12.257,12.257,0,0,0-1.756,1.2c-.787.68-1.537.95-2.371.082C30.4,23.886,28.67,22.233,27,20.526a11.93,11.93,0,0,0-9.037-3.55c-.424,0-.515.14-.508.53.021,1.324-.006,2.649.016,3.974a3.8,3.8,0,0,1-.241,1.26,1.484,1.484,0,0,1-2.875-.65c-.02-1.506-.03-3.013.005-4.519.011-.491-.131-.61-.606-.6-1.262.039-2.522.015-3.784.15a9.075,9.075,0,0,0-2.34.569,8.176,8.176,0,0,0-2.61,1.974,5.862,5.862,0,0,0-1.87,4.221c-.076,5.921-.031,11.843-.03,17.765A1.614,1.614,0,0,0,4.59,43.33c.843.045,1.418-.545,1.517-1.559.343-.084.367-.245.114-.473M20.735,8.663c0-.5.03-.862-.007-1.221a3.461,3.461,0,0,0-.26-1.481A5.633,5.633,0,0,0,16.58,3.2a5.075,5.075,0,0,0-5.2,2.692,6.868,6.868,0,0,0-.455,3.283,4.355,4.355,0,0,0,.749,2.456A4.975,4.975,0,0,0,18.551,13.1a5.608,5.608,0,0,0,1.856-2.017,4.352,4.352,0,0,0,.327-2.424" transform="translate(0 0)" fill="#12263f"/>
          <path id="Trazado_748248" data-name="Trazado 748248" d="M509.148,386.032h.285v.312h-.441l.156-.312" transform="translate(-429.457 -325.711)" fill="#fff"/>
          <path id="Trazado_748249" data-name="Trazado 748249" d="M510.1,45.171h-.285a.219.219,0,0,1,.285-.312Z" transform="translate(-430.121 -37.849)" fill="#fff"/>
          <path id="Trazado_748250" data-name="Trazado 748250" d="M0,153.595q.3.234,0,.468Z" transform="translate(0 -129.594)" fill="#020202"/>
          <path id="Trazado_748251" data-name="Trazado 748251" d="M72.831,510.08q.156-.24.312,0Z" transform="translate(-61.45 -430.274)" fill="#020202"/>
          <path id="Trazado_748252" data-name="Trazado 748252" d="M128.7,510.295q.078-.161.156,0Z" transform="translate(-108.591 -430.489)" fill="#020202"/>
          <path id="Trazado_748253" data-name="Trazado 748253" d="M259.941,228.68H244.353a1.771,1.771,0,0,1-1.912-1.554,1.806,1.806,0,0,1,1.917-1.561c.779-.013,1.56-.03,2.338.008.461.022.559-.147.553-.576-.022-1.766-.019-3.533-.006-5.3.01-1.369.424-1.772,1.791-1.777,1.663-.006,3.326-.032,4.988.015.608.017.759-.175.71-.742-.089-1.021.075-2.049-.092-3.076-.108-.663.737-1.339,1.633-1.345,1.767-.013,3.534-.024,5.3.008.519.01.677-.144.645-.652-.041-.647-.019-1.3,0-1.947a1.416,1.416,0,0,1,1.51-1.564q3.7-.049,7.4-.006c1.011.01,1.679.909,1.68,2.164,0,4.624.019,9.248-.017,13.872-.005.719.116.987.9.941a7.355,7.355,0,0,1,2.527.118,1.349,1.349,0,0,1,1.144,1.677,1.464,1.464,0,0,1-1.52,1.3q-7.95,0-15.9,0m5.382-10.054c0,2.1.017,4.206-.012,6.308-.008.521.155.656.655.639,1.063-.035,2.129-.025,3.193,0,.393.008.543-.1.541-.518q-.021-6.386,0-12.773c0-.446-.141-.583-.579-.571-1.038.027-2.078.038-3.115,0-.545-.022-.7.145-.695.691.031,2.076.013,4.154.013,6.23m-7.483,2.091c0,1.452.01,2.905-.007,4.357,0,.354.065.506.465.5,1.141-.027,2.283-.03,3.424,0,.456.012.491-.2.49-.561q-.015-4.28,0-8.559c0-.429-.1-.592-.557-.579q-1.633.047-3.268,0c-.444-.012-.568.128-.56.565.026,1.426.01,2.853.01,4.28m-3.116,2.7c0-.225,0-.329,0-.433-.017-.616.2-1.426-.113-1.8-.369-.442-1.211-.127-1.845-.144-.771-.021-1.807-.27-2.245.121-.5.448-.15,1.5-.151,2.294,0,.685-.314,1.6.143,1.992.393.337,1.28.11,1.949.11.721,0,1.68.248,2.1-.115.492-.423.085-1.41.16-2.026" transform="translate(-204.557 -175.997)" fill="#12263f"/>
          <path id="Trazado_748254" data-name="Trazado 748254" d="M286.8,106.574a1.535,1.535,0,0,1-2.446-.165c-.782-.78-1.581-1.543-2.372-2.314-.167-.323-.332-.39-.627-.09q-3.033,3.09-6.091,6.155c-.71.56-1.556.7-2,.278-.709-.664-1.167-1.171-.321-2.425q3.892-3.758,7.65-7.649c1.128-.633,1.969-.227,2.776.655a14.617,14.617,0,0,0,2.2,2.118c.1-.011.23.015.284-.038,2.6-2.588,5.208-5.172,7.781-7.789.422-.429-.184-.15-.252-.26a1.816,1.816,0,0,1-.738-2.095c.383-.871,1.264-1.017,2.173-.973.854.041,1.712,0,2.567.012a1.763,1.763,0,0,1,1.846,1.822c.015.959.008,1.919,0,2.879a2.352,2.352,0,0,1-1.165,1.936c-.647.217-1.33-.124-1.891-.942-.081-.539-.293-.242-.467-.067" transform="translate(-229.903 -77.603)" fill="#12263f"/>
          <path id="Trazado_748255" data-name="Trazado 748255" d="M426.135,41.471a1.434,1.434,0,0,1-1.6,1.52,1.488,1.488,0,0,1-1.521-1.538,1.633,1.633,0,0,1,1.5-1.578,1.491,1.491,0,0,1,1.622,1.6" transform="translate(-356.916 -33.644)" fill="#12263f"/>
          <path id="Trazado_748256" data-name="Trazado 748256" d="M29.842,98.727c.1.812-.48.589-.91.591.106-.5.5-.554.91-.591" transform="translate(-24.411 -83.3)"/>
          <path id="Trazado_748257" data-name="Trazado 748257" d="M190.754,120.6l-.066.156-.219-.135.284-.021" transform="translate(-160.707 -101.753)" fill="#c5c5c5"/>
          <path id="Trazado_748258" data-name="Trazado 748258" d="M26.073,103.73c.022.1,0,.156-.119.122l.119-.122" transform="translate(-21.898 -87.521)" fill="#fff"/>
          <path id="Trazado_748259" data-name="Trazado 748259" d="M22.868,133.421c-.1,1.014-.673,1.6-1.517,1.559a1.614,1.614,0,0,1-1.472-1.676c0-5.922-.046-11.844.03-17.765a5.862,5.862,0,0,1,1.87-4.221,8.176,8.176,0,0,1,2.61-1.974,9.075,9.075,0,0,1,2.34-.569c1.262-.135,2.522-.111,3.784-.15.475-.015.617.1.606.6-.034,1.506-.025,3.013-.005,4.519a1.484,1.484,0,0,0,2.875.65,3.8,3.8,0,0,0,.241-1.26c-.021-1.324.005-2.649-.016-3.974-.006-.391.084-.528.508-.53a11.93,11.93,0,0,1,9.037,3.55c1.672,1.707,3.4,3.361,5.055,5.083.834.868,1.584.6,2.371-.082a12.252,12.252,0,0,1,1.756-1.2c.449-.268.631-.852,1.331-.863.676-.01,1.646.165,1.9.624a1.852,1.852,0,0,1-.36,2.105c-1.39,1.466-3.043,2.633-4.525,4-1.008.929-2.994.624-4.134-.51-1.731-1.722-3.448-3.458-5.179-5.179a1.475,1.475,0,0,0-2.1-.359,1.246,1.246,0,0,0-.66,1.266c0,3.948-.013,7.9.015,11.844,0,.637-.085.878-.819.869-3.844-.046-7.689-.033-11.533-.009-.584,0-.786-.114-.777-.749.04-2.6.018-5.194.015-7.792a4.862,4.862,0,0,0-.138-1.284,1.591,1.591,0,0,0-2.451-.97,1.317,1.317,0,0,0-.528,1.2q.013,5.922,0,11.844c0,.311-.011.623-.016.934-.235.11-.118.305-.114.473" transform="translate(-16.761 -91.649)" fill="#fe7062"/>
          <path id="Trazado_748260" data-name="Trazado 748260" d="M49.869,281.352V278.13c.935-.068,1.546-.757,1.554-2.253q.032-5.728-.009-11.456c-.005-.628.179-.766.777-.761q5.806.04,11.613,0c.57,0,.738.123.737.723q-.031,16.015-.016,32.031a2.851,2.851,0,0,1-1.846,2.722A2.591,2.591,0,0,1,59.7,297.77a1.872,1.872,0,0,1-.155-.892q0-11.223,0-22.445c0-1.259-.306-1.829-1.113-2.108a1.4,1.4,0,0,0-2,1.412q-.006,10.833,0,21.665c0,.311-.011.623-.017.934-.131.072-.267.138-.269.318a2.132,2.132,0,0,1-1.716,2.5A2.489,2.489,0,0,1,51.4,296.5c.123-2.22.017-4.453.044-6.68a4.666,4.666,0,0,0-.216-1.346,1.244,1.244,0,0,0-1.357-.886q0-1.613,0-3.226c1.126-.259,1.485-.724,1.405-1.822-.054-.742-.478-1.1-1.406-1.188" transform="translate(-42.077 -222.46)" fill="#57dbd8"/>
          <path id="Trazado_748261" data-name="Trazado 748261" d="M79.647,25.653a4.352,4.352,0,0,1-.327,2.424,5.608,5.608,0,0,1-1.856,2.017,4.975,4.975,0,0,1-6.881-1.467,4.355,4.355,0,0,1-.749-2.456,6.868,6.868,0,0,1,.455-3.283,5.075,5.075,0,0,1,5.2-2.692,5.633,5.633,0,0,1,3.887,2.755,3.461,3.461,0,0,1,.26,1.481c.037.36.007.726.007,1.221" transform="translate(-58.912 -16.991)" fill="#f7ce9e"/>
          <path id="Trazado_748262" data-name="Trazado 748262" d="M38.905,264.765c0-.168-.121-.363.114-.473.253.228.229.389-.114.473" transform="translate(-32.799 -222.994)" fill="#020202"/>
          <path id="Trazado_748263" data-name="Trazado 748263" d="M89.96,473.1c0-.18.139-.247.269-.318.258.4-.1.277-.269.318" transform="translate(-75.903 -398.906)" fill="#020202"/>
          <path id="Trazado_748264" data-name="Trazado 748264" d="M101.071,499.483l-.306-.044c.047-.074.09-.208.141-.211.165-.01.15.141.165.255" transform="translate(-85.02 -421.219)" fill="#020202"/>
          <path id="Trazado_748265" data-name="Trazado 748265" d="M184.062,207.2c-.114,0-.268.1-.28-.126.153-.091.283-.129.28.126" transform="translate(-155.064 -174.658)" fill="#020202"/>
          <path id="Trazado_748266" data-name="Trazado 748266" d="M103.831,501.908c-.11.035-.144-.036-.169-.121l.169.121" transform="translate(-87.464 -423.378)" fill="#020202"/>
          <path id="Trazado_748267" data-name="Trazado 748267" d="M41.479,376.888c.928.088,1.352.446,1.406,1.188.079,1.1-.28,1.563-1.405,1.822a1.49,1.49,0,0,1-1.554-1.7c.02-.883.452-1.248,1.553-1.309" transform="translate(-33.686 -317.996)" fill="#12263f"/>
          <path id="Trazado_748268" data-name="Trazado 748268" d="M388.808,235.424c0-2.077.018-4.154-.012-6.23-.008-.547.15-.713.695-.691,1.037.042,2.077.03,3.115,0,.438-.011.581.125.579.571q-.021,6.386,0,12.773c0,.423-.149.526-.541.518-1.064-.021-2.13-.032-3.193,0-.5.017-.662-.117-.655-.639.03-2.1.012-4.206.012-6.308" transform="translate(-328.042 -192.795)" fill="#e6b046"/>
          <path id="Trazado_748269" data-name="Trazado 748269" d="M340.934,260.031c0-1.427.016-2.853-.01-4.279-.008-.437.116-.577.56-.565q1.633.045,3.268,0c.458-.013.559.15.557.579q-.026,4.28,0,8.559c0,.363-.034.573-.49.561-1.141-.03-2.283-.027-3.424,0-.4.009-.469-.143-.465-.5.017-1.452.007-2.9.007-4.357" transform="translate(-287.651 -215.31)" fill="#91b3fa"/>
          <path id="Trazado_748270" data-name="Trazado 748270" d="M296.886,290.12c-.075.616.331,1.6-.16,2.026-.422.363-1.381.115-2.1.115-.669,0-1.556.227-1.949-.11-.457-.392-.144-1.307-.143-1.992,0-.79-.352-1.846.151-2.294.439-.391,1.475-.142,2.245-.121.635.017,1.477-.3,1.845.144.31.372.1,1.183.113,1.8,0,.1,0,.207,0,.433" transform="translate(-246.72 -242.7)" fill="#57dbd8"/>
        </g>
      </g>
    </g>
  </g>
</svg>
