<svg id="Grupo_1024805" data-name="Grupo 1024805" xmlns="http://www.w3.org/2000/svg" xmlns:xlink="http://www.w3.org/1999/xlink" width="173.875" height="173.905" viewBox="0 0 173.875 173.905">
  <defs>
    <clipPath id="clip-path">
      <rect id="Rectángulo_360956" data-name="Rectángulo 360956" width="173.875" height="173.905" fill="#12263f"/>
    </clipPath>
    <linearGradient id="linear-gradient" x1="0.5" x2="0.5" y2="1" gradientUnits="objectBoundingBox">
      <stop offset="0" stop-color="#fff"/>
      <stop offset="0.463" stop-color="#e9fffe"/>
      <stop offset="1" stop-color="#fff"/>
    </linearGradient>
  </defs>
  <g id="Grupo_1024804" data-name="Grupo 1024804" clip-path="url(#clip-path)">
    <path id="Trazado_764741" data-name="Trazado 764741" d="M309.045,359.036l-2.073-8.443-7.578,4.435c-4.8-4.818-9.567-9.573-14.272-14.386a1.688,1.688,0,0,1-.059-1.546c1.161-2.125,2.434-4.188,3.822-6.532l-8.331-2.217V309.195l8.321-2.219-4.5-7.65c.729-.643,1.52-1.27,2.231-1.976,3.974-3.95,7.946-7.9,11.873-11.9a1.416,1.416,0,0,1,2.138-.274c1.981,1.279,4.051,2.421,6.3,3.747.771-2.909,1.487-5.608,2.2-8.311H330.3l2.18,8.32c2.159-1.27,4.165-2.373,6.085-3.609a1.682,1.682,0,0,1,2.552.27c4.544,4.653,9.177,9.22,13.835,13.875l-4.439,7.548,8.455,2.088v21.4l-8.458,1.967,4.189,7.179-15.081,15.132-7.21-4.229-1.967,8.483Zm38.744-20.06c-.907-1.54-1.917-3.168-2.822-4.852a2.3,2.3,0,0,1-.24-1.658c1.776-4.754,1.8-4.746,6.7-5.98.219-.055.442-.1.665-.133.927-.138,1.3-.6,1.28-1.6-.062-3.338-.057-6.678,0-10.016.016-1.011-.4-1.388-1.325-1.572-1.327-.265-2.619-.712-3.947-.969a2.948,2.948,0,0,1-2.039-1.689c-1.923-3.073-1.419-5.761.789-8.373a2.447,2.447,0,0,0,.584-1.021c.08-.416.121-1.038-.117-1.286-2.659-2.771-5.375-5.488-8.105-8.249a9.322,9.322,0,0,0-1.749.966c-2.782,2.505-5.72,2.669-8.8.641a3.06,3.06,0,0,1-1.236-1.375c-.515-1.551-.8-3.178-1.292-4.737a1.56,1.56,0,0,0-1.054-.953c-3.836-.069-7.675-.043-11.555-.043a12.247,12.247,0,0,0-.563,2.063c-.294,3.351-1.8,5.561-5.258,6.4a3.082,3.082,0,0,1-2.789-.219c-1.452-.963-2.994-1.791-4.358-2.594l-8.917,8.833a7.992,7.992,0,0,0,.8,1.382c2.378,2.773,2.862,5.693.7,8.8a3.405,3.405,0,0,1-1.483,1.341c-1.819.59-3.7.992-5.528,1.461v12.442a11.665,11.665,0,0,0,1.735.461c3.422.352,5.934,1.77,6.584,5.454.01.054.065.1.063.156a5.73,5.73,0,0,1-.118,2.132c-.674,1.425-1.633,2.713-2.336,4.126a1.693,1.693,0,0,0,.192,1.539q3.574,3.744,7.317,7.324a1.832,1.832,0,0,0,1.663.216c1.465-.724,2.815-1.678,4.26-2.448a2.092,2.092,0,0,1,1.524-.149c4.664,1.732,4.658,1.749,5.913,6.554a6.113,6.113,0,0,1,.2.822c.113.977.644,1.278,1.612,1.262,3.168-.051,6.338-.075,9.5.008,1.3.034,2.047-.3,2.122-1.684.2-3.739,2.048-6.125,5.785-6.868a3,3,0,0,1,1.825.106c1.738.9,3.4,1.949,4.917,2.839l8.888-8.855" transform="translate(-185.091 -185.131)" fill="#12263f"/>
    <path id="Trazado_764742" data-name="Trazado 764742" d="M0,369.821V296.962H55.96c.04.418.1.744.1,1.071q-.009,35.895-.027,71.789Zm5.724-5.745H50.372v-61.41H5.724Z" transform="translate(0 -195.916)" fill="#12263f"/>
    <path id="Trazado_764743" data-name="Trazado 764743" d="M156.575,89.606c0-5.442-.341-10.782.092-16.058.47-5.725,3.878-9.631,9.26-11.7,3.9-1.5,7.824-2.935,11.735-4.407a2.073,2.073,0,0,0,.833-3.326c-1.377-1.911-2.621-3.917-3.989-5.835a2.908,2.908,0,0,0-1.38-1.029c-5.051-1.605-8.168-5.567-8.153-10.833.015-5.311-.27-10.7.5-15.916C167.2,8.747,178.125-.025,190.235,0c12.077.026,23.009,8.894,24.6,20.667a88.432,88.432,0,0,1,.31,17.435c-.3,4.619-3.411,7.574-7.8,9.123a4.2,4.2,0,0,0-1.751,1.52c-1.194,1.632-2.171,3.431-3.437,5-1.367,1.7-1.176,3.048.811,3.8,3.751,1.418,7.516,2.8,11.257,4.24,6.255,2.411,9.546,7.237,9.56,13.969.01,4.576,0,9.152,0,13.851ZM209.811,26.16c.077-7.165-2.653-13.283-9.034-17.341-6.988-4.445-14.266-4.423-21.251,0-6.387,4.049-9.116,10.168-9.03,17.477a60.059,60.059,0,0,1,6.552-1.063,16.5,16.5,0,0,0,10.966-4.664,23.875,23.875,0,0,0,1.95-2.489c.941,1.033,1.48,1.676,2.072,2.266a16.28,16.28,0,0,0,9.362,4.726c2.758.4,5.527.714,8.412,1.082M162.255,84.033h55.821c0-3.469.145-6.806-.047-10.123a7.129,7.129,0,0,0-3.818-5.893,56.651,56.651,0,0,0-5.555-2.416l-5.667,16.868c-3.971-1.984-7.732-3.812-11.438-5.747a2.693,2.693,0,0,0-2.8.022c-3.745,1.939-7.535,3.791-11.439,5.74l-5.638-16.827a53.188,53.188,0,0,0-5.153,2.083,7.29,7.29,0,0,0-4.21,6c-.224,3.369-.053,6.765-.053,10.291m16.686-53.34c0,3.82-.034,7.595.008,11.369A11.24,11.24,0,0,0,189.3,53.272a10.881,10.881,0,0,0,11.8-9.371c.507-4.332.1-8.772.1-13.246a22.652,22.652,0,0,1-10.472-4.009,1.272,1.272,0,0,0-1.172,0,23.015,23.015,0,0,1-10.622,4.044m1.642,43.9,5.6-2.833-5.664-9.4-3.566,1.354,3.63,10.874m19.148-.014,3.615-10.87-3.588-1.329-5.63,9.393,5.6,2.807M195.542,58.49H184.766l5.388,8.964,5.388-8.964m-22.3-26.734a5.3,5.3,0,0,0-2.7,5.032,4.959,4.959,0,0,0,2.7,4.305Zm33.862,9.393a5.316,5.316,0,0,0,2.647-4.972,5.011,5.011,0,0,0-2.647-4.335Z" transform="translate(-103.214 -0.001)" fill="#12263f"/>
    <path id="Trazado_764744" data-name="Trazado 764744" d="M95.035,87.523l-6.086-5.8L93,78.1l12.539,12.716-12.815,12.8-3.708-3.761,6.16-5.732-.21-.506H91.53c-2.772,0-5.544-.011-8.315,0-2.529.013-3.457.942-3.458,3.5q-.011,23.761,0,47.523v2.153H74.1v-1.822q0-23.761,0-47.523c0-6.051,3.413-9.469,9.456-9.49,3.77-.013,7.541,0,11.311,0l.17-.43" transform="translate(-48.883 -51.525)" fill="#12263f"/>
    <path id="Trazado_764745" data-name="Trazado 764745" d="M353.194,148.122l3.823-3.76,6.078,6.264c.059-.874.124-1.4.124-1.928q.009-16.036,0-32.072c0-3.2-.773-3.944-4.04-3.945-4.173,0-8.346,0-12.628,0V107.02c2.42,0,4.78,0,7.139,0,2.206,0,4.413-.058,6.616.021a8.426,8.426,0,0,1,8.552,8.826c.027,10.86.009,21.72.009,32.58v2.2l5.829-6.413,3.946,4.141-12.659,12.577-12.791-12.836" transform="translate(-228.633 -70.592)" fill="#12263f"/>
    <path id="Trazado_764746" data-name="Trazado 764746" d="M181.958,367.861h20.671v5.571H181.767l6.385,6.067-4.262,3.732-12.6-12.609,12.843-12.853,3.422,3.9-5.9,5.6.308.591" transform="translate(-113.005 -236.033)" fill="#12263f"/>
    <path id="Trazado_764747" data-name="Trazado 764747" d="M358.61,349.551l-8.888,8.855c-1.518-.89-3.18-1.937-4.918-2.839a3,3,0,0,0-1.824-.106c-3.737.743-5.583,3.129-5.785,6.868-.074,1.382-.824,1.719-2.121,1.685-3.166-.083-6.337-.06-9.5-.009-.967.016-1.5-.285-1.612-1.262a6.065,6.065,0,0,0-.2-.822c-1.256-4.8-1.249-4.822-5.913-6.554a2.092,2.092,0,0,0-1.524.149c-1.445.769-2.795,1.724-4.26,2.448a1.831,1.831,0,0,1-1.663-.216q-3.748-3.57-7.317-7.324a1.693,1.693,0,0,1-.192-1.539c.7-1.414,1.661-2.7,2.336-4.127a5.738,5.738,0,0,0,.118-2.132c0-.051-.053-.1-.063-.156-.651-3.684-3.163-5.1-6.585-5.454a11.662,11.662,0,0,1-1.734-.461V324.112c1.83-.469,3.709-.871,5.528-1.461a3.407,3.407,0,0,0,1.483-1.341c2.157-3.107,1.674-6.026-.7-8.8a8.033,8.033,0,0,1-.8-1.383l8.918-8.833c1.364.8,2.906,1.631,4.358,2.594a3.081,3.081,0,0,0,2.789.219c3.459-.836,4.964-3.046,5.258-6.4a12.221,12.221,0,0,1,.563-2.063c3.88,0,7.718-.027,11.555.043a1.559,1.559,0,0,1,1.054.952c.493,1.56.777,3.187,1.292,4.737a3.062,3.062,0,0,0,1.236,1.376c.489.322,1.746.92,1.746.92s4.712.545,7.051-1.561a9.316,9.316,0,0,1,1.749-.966c2.73,2.761,5.446,5.478,8.1,8.249.238.248.2.87.117,1.286a2.439,2.439,0,0,1-.584,1.021c-2.208,2.612-2.712,5.3-.789,8.373a2.948,2.948,0,0,0,2.039,1.689c1.328.257,2.62.7,3.947.969.924.184,1.341.561,1.324,1.572q-.081,5.007,0,10.016c.019,1-.353,1.464-1.28,1.6-.224.033-.446.078-.665.133-4.908,1.233-4.929,1.226-6.7,5.98a2.3,2.3,0,0,0,.24,1.657c.9,1.684,1.915,3.312,2.822,4.852m-5.675-19.186a22.432,22.432,0,1,0-22.482,22.393,22.461,22.461,0,0,0,22.482-22.393" transform="translate(-195.913 -195.706)" fill="#e6b046"/>
    <path id="Trazado_764748" data-name="Trazado 764748" d="M16.823,313.725H61.471v61.41H16.823ZM22.4,347.119H55.874v-5.426H22.4Zm0-22.436h33.41v-5.44H22.4Zm33.477,28.265H22.4v5.406H55.873ZM33.612,335.9h22.2v-5.437h-22.2Zm11.047,28.272H22.4v5.4H44.659ZM22.384,335.951h5.4v-5.478h-5.4Zm33.5,28.2H50.521v5.413H55.88Z" transform="translate(-11.099 -206.976)" fill="#d2e1f1"/>
    <path id="Trazado_764749" data-name="Trazado 764749" d="M237.047,36.812c-2.885-.368-5.654-.685-8.412-1.082A16.282,16.282,0,0,1,219.273,31c-.592-.59-1.131-1.233-2.072-2.266a23.925,23.925,0,0,1-1.949,2.489,16.5,16.5,0,0,1-10.966,4.664,60.061,60.061,0,0,0-6.552,1.063c-.086-7.309,2.642-13.427,9.03-17.477,6.985-4.428,14.263-4.449,21.251,0,6.381,4.058,9.11,10.176,9.034,17.341" transform="translate(-130.45 -10.653)" fill="url(#linear-gradient)"/>
    <path id="Trazado_764750" data-name="Trazado 764750" d="M173.4,211.224c0-3.526-.17-6.921.053-10.291a7.29,7.29,0,0,1,4.21-6,53.2,53.2,0,0,1,5.153-2.083l5.638,16.827c3.9-1.949,7.694-3.8,11.439-5.74a2.692,2.692,0,0,1,2.8-.022c3.705,1.935,7.466,3.763,11.438,5.747l5.667-16.868a56.562,56.562,0,0,1,5.555,2.416,7.129,7.129,0,0,1,3.819,5.893c.192,3.317.047,6.653.047,10.122Z" transform="translate(-114.355 -127.192)" fill="#57dbd8"/>
    <path id="Trazado_764752" data-name="Trazado 764752" d="M220.342,195.495l-3.63-10.874,3.566-1.354,5.664,9.395-5.6,2.833" transform="translate(-142.973 -120.908)" fill="#91b3fa"/>
    <path id="Trazado_764753" data-name="Trazado 764753" d="M272.789,195.508l-5.6-2.807,5.63-9.393,3.588,1.329-3.615,10.87" transform="translate(-176.272 -120.935)" fill="#91b3fa"/>
    <path id="Trazado_764757" data-name="Trazado 764757" d="M374.484,352.153a22.432,22.432,0,1,1-22.427-22.484,22.395,22.395,0,0,1,22.427,22.484m-22.3-16.821A16.817,16.817,0,1,0,368.9,352.278a16.761,16.761,0,0,0-16.722-16.946" transform="translate(-217.462 -217.494)" fill="#12263f"/>
    <rect id="Rectángulo_360949" data-name="Rectángulo 360949" width="33.479" height="5.426" transform="translate(11.297 134.718)" fill="#12263f"/>
    <rect id="Rectángulo_360950" data-name="Rectángulo 360950" width="33.41" height="5.44" transform="translate(11.297 112.267)" fill="#12263f"/>
    <rect id="Rectángulo_360951" data-name="Rectángulo 360951" width="33.474" height="5.406" transform="translate(11.301 145.973)" fill="#12263f"/>
    <rect id="Rectángulo_360952" data-name="Rectángulo 360952" width="22.196" height="5.437" transform="translate(22.513 123.489)" fill="#12263f"/>
    <rect id="Rectángulo_360953" data-name="Rectángulo 360953" width="22.261" height="5.401" transform="translate(11.299 157.198)" fill="#12263f"/>
    <rect id="Rectángulo_360954" data-name="Rectángulo 360954" width="5.395" height="5.478" transform="translate(11.285 123.498)" fill="#12263f"/>
    <rect id="Rectángulo_360955" data-name="Rectángulo 360955" width="5.359" height="5.413" transform="translate(39.422 157.178)" fill="#12263f"/>
    <path id="Trazado_764758" data-name="Trazado 764758" d="M363.153,346.311a16.817,16.817,0,1,1-16.9,16.734,16.833,16.833,0,0,1,16.9-16.734m11.071,16.78a11.2,11.2,0,1,0-11.206,11.2,11.21,11.21,0,0,0,11.206-11.2" transform="translate(-228.432 -228.473)" fill="#f0dcc0"/>
    <path id="Trazado_764759" data-name="Trazado 764759" d="M385.021,373.888a11.2,11.2,0,1,1-22.406-.052,11.2,11.2,0,0,1,22.406.052m-16.763.058a5.6,5.6,0,0,0,5.624,5.576,5.678,5.678,0,0,0,5.577-5.654,5.605,5.605,0,0,0-5.654-5.548,5.549,5.549,0,0,0-5.546,5.626" transform="translate(-239.23 -239.271)" fill="#12263f"/>
    <path id="Trazado_764760" data-name="Trazado 764760" d="M379.2,384.887a5.549,5.549,0,0,1,5.546-5.626,5.605,5.605,0,0,1,5.655,5.548,5.678,5.678,0,0,1-5.577,5.654,5.605,5.605,0,0,1-5.624-5.576" transform="translate(-250.171 -250.212)" fill="#faf0e2"/>
  </g>
</svg>
