<svg id="Grupo_1024806" data-name="Grupo 1024806" xmlns="http://www.w3.org/2000/svg" xmlns:xlink="http://www.w3.org/1999/xlink" width="172.992" height="173.008" viewBox="0 0 172.992 173.008">
  <defs>
    <clipPath id="clip-path">
      <rect id="Rect치ngulo_360958" data-name="Rect치ngulo 360958" width="172.992" height="173.008" fill="#12263f"/>
    </clipPath>
  </defs>
  <g id="Grupo_1024806-2" data-name="Grupo 1024806" clip-path="url(#clip-path)">
    <path id="Trazado_764761" data-name="Trazado 764761" d="M49.644,305.554a4.509,4.509,0,0,1-1.835-4.178c.073-8.829.029-17.659.035-26.489.007-10.984,7.3-18.309,18.256-18.346.585,0,1.169,0,1.921,0a30.171,30.171,0,0,0-.04-3.359,1.832,1.832,0,0,0-.856-1.156c-5.366-3.064-7.871-7.707-7.748-13.832.088-4.378-.221-8.81.37-13.119a13.86,13.86,0,0,1,13.7-11.75,50.488,50.488,0,0,1,8.8.319,14.057,14.057,0,0,1,11.7,13.779c.073,4.083.117,8.172-.014,12.252a13.969,13.969,0,0,1-6.076,11.316c-2.656,1.924-2.677,1.894-2.458,5.363,2.111.191,4.236.4,6.365.554a1.321,1.321,0,0,0,.919-.416c4.023-4.407,9.109-6.013,14.927-5.727a5.707,5.707,0,0,0,.772-.1,29.023,29.023,0,0,0-.043-3.314,1.867,1.867,0,0,0-.909-1.125c-5.222-3-7.723-7.519-7.7-13.5.017-3.6-.034-7.208.014-10.812a14.372,14.372,0,0,1,14.31-14.37,58.032,58.032,0,0,1,7.56.118c6.5.761,11.692,5.413,12.369,11.931a97.308,97.308,0,0,1-.028,16.519,11.187,11.187,0,0,1-5.843,9.062c-2.47,1.384-2.77,3.062-2.293,5.456,1.87.143,3.777.191,5.654.453a15.7,15.7,0,0,1,9.391,4.9,2.516,2.516,0,0,0,2.513.833c1.7-.256,3.442-.275,5.37-.409a16.13,16.13,0,0,0-.043-2.814,2.553,2.553,0,0,0-.983-1.617A14.511,14.511,0,0,1,140.1,238.6c0-3.544-.021-7.088.006-10.632a14.364,14.364,0,0,1,14.744-14.66,49.029,49.029,0,0,1,8.077.32,14.015,14.015,0,0,1,11.733,13.748,144.47,144.47,0,0,1-.342,14.563,11.375,11.375,0,0,1-6.042,9.133c-2.559,1.372-2.33,3.164-2.143,5.313,1.983.155,3.9.168,5.775.476a17.016,17.016,0,0,1,14.277,16.4c.13,9.669.1,19.341-.034,29.01-.015,1.1-1.121,2.187-1.721,3.28h-54.06c-2.268-1.323-1.7-3.683-1.857-5.671H105.529c-.006,2.135.3,4.329-1.825,5.671Zm70.277-23.168h-5.765v-2.043q0-10-.011-19.992c0-.514-.009-1.381-.259-1.483-1.814-.74-3.014-2.865-5.4-2.356a12.755,12.755,0,0,1-2.516.028c-7.065.055-11.987,4.983-12,12.04q-.017,11.8,0,23.594c0,.578.052,1.157.079,1.718h46.022c0-9.008.081-17.888-.073-26.764a11.464,11.464,0,0,0-1.585-4.888,9.656,9.656,0,0,0-6.958-5.252c-3.38-.559-6.9-1.5-10.09,1.1-.972.791-1.532,1.328-1.488,2.646.113,3.358.038,6.722.038,10.085v11.569m-46.13,5.782v-2.082q0-9.995-.012-19.989c0-.51-.023-1.373-.275-1.473-1.819-.728-3.005-2.895-5.4-2.344a10.852,10.852,0,0,1-2.335.027c-7.3.025-12.145,4.892-12.157,12.233q-.018,11.706,0,23.411c0,.577.052,1.155.082,1.78H89.3c-.36-1.164-1.057-2.35-1.038-3.523.19-11.249-.678-22.521.551-33.843-2.681.025-5.5-.661-8,1.582a2.83,2.83,0,0,0-1.277,2.4c.05,4.381.021,8.764.021,13.146v8.678Zm106.585,11.575c.042-.4.086-.629.086-.86,0-8.409.022-16.818-.025-25.226a11.4,11.4,0,0,0-.568-3.351,10.248,10.248,0,0,0-6.981-7.208c-3.619-1.022-7.367-1.917-10.963.631a3.225,3.225,0,0,0-1.679,3.089c.089,6.486.038,12.973.038,19.459v1.885h-5.765v-2.026c0-6.367.008-12.733-.01-19.1,0-.817.164-1.955-.285-2.384a8.144,8.144,0,0,0-3.572-2.238,24.561,24.561,0,0,0-5.243-.094c.159,3.611.407,7.008.438,10.407.067,7.147.026,14.295.016,21.442,0,1.952.426,4.017-1.667,5.573Zm-63.459-57.511.008-.107h1.8c6.453-.005,9.505-3.435,9.963-9.886.317-4.463-.916-7.458-5.037-9.123a4.969,4.969,0,0,0-2.769-.438c-3.142.743-6.241,1.678-9.342,2.589-2,.587-4.8.692-5.723,2.047-1.012,1.484-.338,4.16-.294,6.314a8.445,8.445,0,0,0,6.755,8.223,34.714,34.714,0,0,0,4.64.38m-51.77-9.458c0,2.385-.052,4.544.01,6.7a8.632,8.632,0,0,0,8.421,8.4c2.037.062,4.079.057,6.116,0a8.646,8.646,0,0,0,8.5-8.517c.053-2.038.067-4.08-.022-6.115a2.351,2.351,0,0,0-.776-1.6c-1.531-1.15-3.151-2.186-4.775-3.2a1.868,1.868,0,0,0-1.32-.265c-5.359,1.493-10.7,3.037-16.151,4.6m80.729,0c0,2.378-.051,4.536.011,6.691a8.632,8.632,0,0,0,8.413,8.409c2.037.063,4.079.057,6.116,0a8.647,8.647,0,0,0,8.5-8.509c.054-2.038.067-4.08-.022-6.115a2.354,2.354,0,0,0-.77-1.6c-1.531-1.15-3.151-2.186-4.775-3.2a1.87,1.87,0,0,0-1.319-.271c-5.359,1.492-10.7,3.037-16.159,4.6m-40.19-11.836c4.344-1.241,8.529-2.245,12.574-3.65,3.364-1.168,6.358-1.317,9.079,1.3.046.043.2-.033.311-.053a8.033,8.033,0,0,0-7.394-5.209c-2.153-.076-4.313-.083-6.466-.007a8.526,8.526,0,0,0-8.1,7.623M65.3,226.7c4.351-1.235,8.525-2.255,12.582-3.622,3.261-1.1,6.243-1.531,8.923,1.167.095.1.3.085.49.134a8.018,8.018,0,0,0-7.385-5.294c-2.093-.078-4.192-.068-6.287-.017-4.245.1-7.571,3.065-8.323,7.631m102.641-2.161a7.741,7.741,0,0,0-7.176-5.443c-2.271-.1-4.555-.117-6.824,0-4.169.211-7.8,3.784-7.682,7.526,3.985-1.114,8.006-2.052,11.894-3.38,3.53-1.206,6.821-1.995,9.788,1.3m-53.751,23.428c.073,1.978-.714,4.139,1.464,5.234a3.563,3.563,0,0,0,2.972-.13c1.921-1.19,1.2-3.233,1.245-5.1ZM79.413,253.8h-5.56c-.2,4.082.634,5.662,2.878,5.616,2.273-.047,3.122-1.8,2.682-5.616m75.149-.058c.059,1.893-.706,3.98,1.285,5.112a3.674,3.674,0,0,0,3.117-.008c1.954-1.147,1.234-3.219,1.274-5.1Z" transform="translate(-30.543 -132.546)" fill="#12263f"/>
    <path id="Trazado_764762" data-name="Trazado 764762" d="M392.466,133.468a4.512,4.512,0,0,1-4.178,1.835c-6.6-.085-13.207-.034-19.811-.034h-1.859v-5.678h19.96V77.631H343.545V71.84h1.88c14.288,0,28.577.026,42.866-.033a4.522,4.522,0,0,1,4.175,1.834Z" transform="translate(-219.474 -45.874)" fill="#12263f"/>
    <path id="Trazado_764763" data-name="Trazado 764763" d="M183.4,51.932a14.833,14.833,0,0,1-8.383,5.37A14.347,14.347,0,0,1,157.53,41.914a2.343,2.343,0,0,0-.88-2.285,14.258,14.258,0,0,1,.1-21.7,2.433,2.433,0,0,0,.771-1.742c-.546-6.58,2.7-12.364,8.478-14.923C171.813-1.312,178.183.108,182.718,5a5.621,5.621,0,0,1,.539.918A15.184,15.184,0,0,1,191.626.414a14.37,14.37,0,0,1,17.648,15.378,2.375,2.375,0,0,0,.9,2.284,14.293,14.293,0,0,1,.006,21.6,2.657,2.657,0,0,0-.883,1.858,14.563,14.563,0,0,1-8.514,14.91,14.369,14.369,0,0,1-16.6-3.649c-.237-.255-.468-.515-.789-.869m-20.032-8.906a8.563,8.563,0,1,0,17.113.645q.161-14.852-.008-29.706a8.535,8.535,0,0,0-9.34-8.158c-4.619.384-8.5,4.873-7.645,8.841,4.19-.423,7.033.1,9.763,1.825l-2.8,4.854c-4.5-1.894-8.392-1.107-11.021,2.061a8.557,8.557,0,0,0-.515,10.224c2.422,3.617,6.175,4.572,11.61,2.877l2.758,4.813a14.49,14.49,0,0,1-9.918,1.725M196.3,36.464c5.146,1.74,8.758.924,11.31-2.461a8.542,8.542,0,0,0,.268-9.945c-2.4-3.572-6-4.481-11.6-2.87L193.526,16.4a14.633,14.633,0,0,1,10.006-1.687,11.407,11.407,0,0,0-.007-1.311,8.737,8.737,0,0,0-8.875-7.576,8.536,8.536,0,0,0-8.311,8.149c-.113,9.907-.1,19.816-.01,29.723a8.538,8.538,0,0,0,7.346,8.138,8.653,8.653,0,0,0,9.387-5.673,22.3,22.3,0,0,0,.59-3.167,14.593,14.593,0,0,1-10.124-1.7l2.774-4.832" transform="translate(-96.909 0)" fill="#12263f"/>
    <path id="Trazado_764764" data-name="Trazado 764764" d="M5.9,129.6H25.86v5.619c-.511.035-1.026.1-1.542.1q-10.27.01-20.54,0c-2.819,0-3.775-.961-3.775-3.79Q0,103.606,0,75.68C0,72.851.955,71.9,3.784,71.9q21.8-.008,43.6,0H48.9V77.62H5.9Z" transform="translate(0 -45.931)" fill="#12263f"/>
    <rect id="Rect치ngulo_360957" data-name="Rect치ngulo 360957" width="5.595" height="11.325" transform="translate(83.683 57.8)" fill="#12263f"/>
    <path id="Trazado_764765" data-name="Trazado 764765" d="M201.575,368.844v-11.57c0-3.362.076-6.726-.038-10.084-.044-1.318.516-1.856,1.488-2.646,3.194-2.6,6.71-1.657,10.09-1.1a9.657,9.657,0,0,1,6.959,5.252,11.468,11.468,0,0,1,1.585,4.888c.153,8.876.073,17.757.073,26.765H175.709c-.027-.562-.079-1.14-.079-1.718q-.008-11.8,0-23.594c.01-7.057,4.932-11.986,12-12.04a12.753,12.753,0,0,0,2.516-.029c2.385-.509,3.585,1.616,5.4,2.356.25.1.257.97.259,1.483q.024,10,.01,19.992v2.043Z" transform="translate(-112.197 -219.005)" fill="#e6b046"/>
    <path id="Trazado_764766" data-name="Trazado 764766" d="M84.043,384.953h5.765v-8.678c0-4.382.03-8.764-.021-13.146a2.83,2.83,0,0,1,1.277-2.4c2.493-2.244,5.316-1.557,8-1.582-1.228,11.323-.36,22.595-.551,33.843-.02,1.174.678,2.359,1.038,3.523h-35.6c-.03-.626-.081-1.2-.082-1.78q-.008-11.706,0-23.411c.012-7.34,4.86-12.208,12.157-12.233a10.848,10.848,0,0,0,2.335-.027c2.4-.551,3.583,1.616,5.4,2.344.252.1.274.964.275,1.474q.026,9.994.012,19.989v2.082" transform="translate(-40.794 -229.332)" fill="#57dbd8"/>
    <path id="Trazado_764767" data-name="Trazado 764767" d="M350.883,396.321H314.7c2.094-1.555,1.665-3.62,1.668-5.573.01-7.147.05-14.3-.017-21.442-.032-3.4-.279-6.8-.438-10.408a24.563,24.563,0,0,1,5.243.094,8.147,8.147,0,0,1,3.573,2.238c.448.43.282,1.568.284,2.384.018,6.367.01,12.733.01,19.1v2.026h5.765v-1.884c0-6.487.051-12.974-.038-19.46a3.225,3.225,0,0,1,1.679-3.089c3.6-2.547,7.344-1.653,10.963-.631a10.248,10.248,0,0,1,6.981,7.208,11.4,11.4,0,0,1,.568,3.351c.047,8.408.028,16.817.025,25.226,0,.231-.045.461-.086.86" transform="translate(-201.05 -229.125)" fill="#91b3fa"/>
    <path id="Trazado_764768" data-name="Trazado 764768" d="M208.071,231.168a8.526,8.526,0,0,1,8.1-7.622c2.153-.076,4.313-.069,6.466.007a8.032,8.032,0,0,1,7.394,5.209c-.106.021-.266.1-.311.053-2.722-2.613-5.716-2.464-9.079-1.3-4.046,1.4-8.23,2.409-12.574,3.649" transform="translate(-132.926 -142.778)" fill="#afafaf"/>
    <path id="Trazado_764769" data-name="Trazado 764769" d="M96.248,247.143c.752-4.566,4.078-7.529,8.323-7.631,2.095-.051,4.194-.061,6.287.017a8.019,8.019,0,0,1,7.385,5.294c-.193-.049-.395-.038-.49-.134-2.681-2.7-5.662-2.265-8.924-1.167-4.057,1.366-8.231,2.387-12.582,3.622" transform="translate(-61.488 -152.987)" fill="#afafaf"/>
    <path id="Trazado_764770" data-name="Trazado 764770" d="M342.1,244.958c-2.967-3.294-6.257-2.5-9.788-1.3-3.888,1.328-7.909,2.266-11.894,3.38-.116-3.742,3.513-7.315,7.682-7.526,2.269-.115,4.553-.094,6.824,0a7.741,7.741,0,0,1,7.176,5.443" transform="translate(-204.695 -152.964)" fill="#afafaf"/>
    <path id="Trazado_764771" data-name="Trazado 764771" d="M173.571,53.244a14.492,14.492,0,0,0,9.918-1.725l-2.758-4.813c-5.436,1.695-9.189.74-11.611-2.877a8.558,8.558,0,0,1,.515-10.224c2.629-3.168,6.522-3.955,11.022-2.061l2.8-4.853c-2.73-1.727-5.573-2.248-9.763-1.825-.856-3.968,3.026-8.457,7.645-8.841a8.536,8.536,0,0,1,9.34,8.158q.186,14.851.007,29.707a8.563,8.563,0,1,1-17.113-.646" transform="translate(-107.116 -10.219)" fill="#f0dcc0"/>
    <path id="Trazado_764772" data-name="Trazado 764772" d="M257.445,46.753l-2.774,4.832a14.593,14.593,0,0,0,10.124,1.7,22.3,22.3,0,0,1-.59,3.167,8.653,8.653,0,0,1-9.387,5.673,8.538,8.538,0,0,1-7.346-8.138c-.087-9.907-.1-19.816.01-29.723a8.536,8.536,0,0,1,8.311-8.149,8.737,8.737,0,0,1,8.875,7.576A11.41,11.41,0,0,1,264.675,25a14.633,14.633,0,0,0-10.006,1.687l2.753,4.791c5.6-1.611,9.2-.7,11.6,2.87a8.542,8.542,0,0,1-.268,9.945c-2.551,3.385-6.164,4.2-11.31,2.461" transform="translate(-158.053 -10.289)" fill="#b0c0d2"/>
  </g>
</svg>
