<svg id="Grupo_1024810" data-name="Grupo 1024810" xmlns="http://www.w3.org/2000/svg" xmlns:xlink="http://www.w3.org/1999/xlink" width="148.914" height="204.913" viewBox="0 0 148.914 204.913">
  <defs>
    <clipPath id="clip-path">
      <rect id="Rectángulo_360962" data-name="Rectángulo 360962" width="148.914" height="204.913" fill="#12263f"/>
    </clipPath>
  </defs>
  <g id="Grupo_1024809" data-name="Grupo 1024809" clip-path="url(#clip-path)">
    <path id="Trazado_764847" data-name="Trazado 764847" d="M30.042,0c2.3.421,4.114,1.917,6.224,2.761a39.96,39.96,0,0,0,8.7,2.695,37.886,37.886,0,0,0,10.8.2,48.547,48.547,0,0,0,9.411-2.384A43.736,43.736,0,0,1,80.219.759,38.089,38.089,0,0,1,95.3,3.959a37.1,37.1,0,0,1,17.8,16.79,3.079,3.079,0,0,0,2.252,1.693,13.592,13.592,0,0,1,8.9,6.339,15.357,15.357,0,0,1,1.964,6.342,32.1,32.1,0,0,1-.718,10.369A73.029,73.029,0,0,1,120,60.924a1.352,1.352,0,0,0,.233,1.788,10.41,10.41,0,0,1-1.219,15.2,10.538,10.538,0,0,1-6.693,2.4c-.982.029-1.966.013-2.949-.01-.379-.009-.571.053-.57.5a31.03,31.03,0,0,1-1.322,8.764A33.435,33.435,0,0,1,95.9,106.488c-.1.079-.193.175-.288.263.566.791,1.13,1.549,1.662,2.329a19.284,19.284,0,0,1,2.83,6.989,1,1,0,0,0,.663.834,33.149,33.149,0,0,1,9.757,6.232,3.4,3.4,0,0,1,1.4,2.688,2.932,2.932,0,0,1-4.216,2.529,5.327,5.327,0,0,1-1.127-.816,30.265,30.265,0,0,0-5.781-4.086,1.824,1.824,0,0,0-.219-.082c-.152.927-.273,1.829-.449,2.72a26.3,26.3,0,0,1-7.416,13.776,28.341,28.341,0,0,1-6.758,4.835,4.247,4.247,0,0,1-6.265-3.468,12.611,12.611,0,0,0-.767-4.457,8.356,8.356,0,0,0-2.047-3.1,3.492,3.492,0,0,0-4.919,0,8.933,8.933,0,0,0-2.626,5.319,18.1,18.1,0,0,0-.2,2.239,4.207,4.207,0,0,1-5.833,3.651,26.833,26.833,0,0,1-7.787-5.594,25.662,25.662,0,0,1-7.1-14.933c-.038-.3-.084-.591-.136-.958a5.242,5.242,0,0,0-.484.211,28.724,28.724,0,0,0-14.449,19.365c-.291,1.26-.377,2.566-.572,3.849-.046.3.1.341.335.336q.675-.015,1.349-.016l79.133,0c.666,0,1.333.014,2,.021.16,0,.319,0,.6,0-.249-1.527-.447-2.974-.728-4.4a27.031,27.031,0,0,0-2-5.9,3.022,3.022,0,0,1-.2-2.557,2.915,2.915,0,0,1,2.662-1.879,2.6,2.6,0,0,1,2.6,1.458,40.049,40.049,0,0,1,1.865,4.566,28.934,28.934,0,0,1,1.617,8.254c.013.362.089.547.531.586a27.924,27.924,0,0,1,14.234,5.284,28.391,28.391,0,0,1,10.868,15.089,27.858,27.858,0,0,1,1.1,11.216,29.092,29.092,0,0,1-4.834,13.288,28.763,28.763,0,0,1-17.073,11.889,27.177,27.177,0,0,1-6.875.838q-45.415.011-90.83-.016C19.351,204.864,11.464,200.793,5.56,193A27.233,27.233,0,0,1,.235,179.6a28.1,28.1,0,0,1,6.858-22.478,28.345,28.345,0,0,1,16.082-9.412c1.151-.245,2.332-.344,3.556-.519.161-1.181.306-2.4.5-3.614A35.309,35.309,0,0,1,39.386,122.2a32.029,32.029,0,0,1,8.274-5.072,1.763,1.763,0,0,0,1.193-1.45,19.36,19.36,0,0,1,4-8.338c.146-.18.307-.347.483-.545-.133-.12-.247-.238-.377-.338a33.225,33.225,0,0,1-10.6-14.024,32.1,32.1,0,0,1-2.23-9.894c-.041-.565-.093-1.132-.085-1.7.006-.4-.1-.541-.53-.537-1.215.012-2.433,0-3.647-.059a10.68,10.68,0,0,1-9.837-9.029,10.229,10.229,0,0,1,3.987-9.828c.317-.261.164-.442.065-.679-1-2.393-2.086-4.755-2.98-7.187a72.529,72.529,0,0,1-3.369-13.953q-.066-.42-.114-.841a2.888,2.888,0,0,1,2.28-3.308,2.932,2.932,0,0,1,3.475,2.262c.283,1.214.439,2.457.664,3.685a63.615,63.615,0,0,0,4.8,15.6c.275.588.563,1.17.872,1.741a.571.571,0,0,0,.387.286c1.249,0,2.5-.036,3.746-.063.029,0,.058-.025.17-.078,0-.605,0-1.251,0-1.9a25.666,25.666,0,0,1,3.547-12.751,22.345,22.345,0,0,1,6.463-7.2,7.323,7.323,0,0,1,7.9-.594,62.369,62.369,0,0,0,6.384,2.943,30.981,30.981,0,0,0,12.49,1.6,30.161,30.161,0,0,0,13.582-4.279,7.769,7.769,0,0,1,9.113.806,36.988,36.988,0,0,1,2.812,2.7,24.674,24.674,0,0,1,5.958,11.752,28.846,28.846,0,0,1,.554,6.562c-.008.395.082.5.494.5q2.245.018,4.489.142a.626.626,0,0,0,.717-.415,70.932,70.932,0,0,0,4.111-10.385,42.853,42.853,0,0,0,1.747-8.646,18.07,18.07,0,0,0-.3-5.473,7.564,7.564,0,0,0-6.376-6.09,15.674,15.674,0,0,0-1.926-.274,3.057,3.057,0,0,1-2.655-1.905c-.449-.929-.9-1.859-1.4-2.761A31.567,31.567,0,0,0,93.448,9.659,29.187,29.187,0,0,0,82.535,6.881,41.6,41.6,0,0,0,72.147,7.5a63.863,63.863,0,0,0-7.7,2.241,41.915,41.915,0,0,1-14.881,2.237,42.356,42.356,0,0,1-16.84-4.361c-.822-.4-1.627-.838-2.441-1.256-.219-.112-.442-.215-.736-.357-.137,1.087-.309,2.1-.386,3.127-.268,3.572-.561,7.144-.73,10.722-.1,2.061.012,4.133.059,6.2A3.1,3.1,0,0,1,26.573,29.3a2.96,2.96,0,0,1-4.015-2.628c-.049-3.448-.089-6.9.063-10.347.14-3.192.528-6.374.824-9.559a13.816,13.816,0,0,1,.312-1.921A5.957,5.957,0,0,1,28.495.184,3.135,3.135,0,0,0,28.942,0ZM45.949,58.819c0,1.166.031,2.334-.01,3.5A2.651,2.651,0,0,1,44.7,64.434a3.625,3.625,0,0,1-2.191.534c-2.165.009-4.334-.039-6.494.074A4.582,4.582,0,0,0,32,68.446a4.775,4.775,0,0,0,1.705,4.9,5.048,5.048,0,0,0,3.278.979c2.033-.018,4.066-.045,6.1.012a2.946,2.946,0,0,1,2.866,2.852c.044.715.039,1.434.024,2.15A27.472,27.472,0,0,0,48.46,91.618a26.845,26.845,0,0,0,11.023,12.11,26.311,26.311,0,0,0,12.7,3.531,37.667,37.667,0,0,0,8.862-.409,26.823,26.823,0,0,0,15.9-9.633,26.211,26.211,0,0,0,4.588-8.525,25.061,25.061,0,0,0,1.29-6.9c.051-1.449.018-2.9.022-4.351a3.12,3.12,0,0,1,.616-1.914,2.98,2.98,0,0,1,2.551-1.225c2.132.009,4.266.054,6.4.018a4.585,4.585,0,0,0,4.52-3.777,4.5,4.5,0,0,0-3.084-5.219,9.03,9.03,0,0,0-2.549-.362c-1.764-.055-3.532,0-5.3-.028a3.033,3.033,0,0,1-3.153-3.157c-.01-.35,0-.7,0-1.05-.034-1.965.071-3.945-.133-5.893a18.773,18.773,0,0,0-6.6-12.5c-1.172-1.027-1.794-1.1-3.149-.324a37.434,37.434,0,0,1-16.234,4.94,35.764,35.764,0,0,1-11.92-1.209,38.507,38.507,0,0,1-8.9-3.735c-1.429-.814-1.958-.7-3.187.355a19.473,19.473,0,0,0-5.875,8.946,23.675,23.675,0,0,0-.894,7.511m28.668,94.338v-.01q-22.643,0-45.286.015a27.506,27.506,0,0,0-4.772.366,21.87,21.87,0,0,0-11.042,5.457A22.347,22.347,0,0,0,6.15,173a22.783,22.783,0,0,0,22.582,25.893q45.735.018,91.471,0a22.037,22.037,0,0,0,9.431-2.073,22.7,22.7,0,0,0,13.062-23.8c-1.15-8.376-5.74-14.36-13.385-17.951a21.934,21.934,0,0,0-9.508-1.929q-22.593.033-45.185.01M59.774,110.542a14.638,14.638,0,0,0,7.611,13.006,15.1,15.1,0,0,0,16.209-1.386c4.259-3.428,5.764-8.619,5.445-11.585a38.537,38.537,0,0,1-29.266-.035m3.7,27.688a14.915,14.915,0,0,1,3.74-8.238,21.675,21.675,0,0,1-7.743-5.165,22.287,22.287,0,0,1-4.772-8.092,19.978,19.978,0,0,0,1.652,13.683,21.343,21.343,0,0,0,7.123,7.812m21.957-.115a19.228,19.228,0,0,0,7.261-8.163,19.912,19.912,0,0,0,1.5-13.043A21.351,21.351,0,0,1,81.622,130a15.262,15.262,0,0,1,3.811,8.117" transform="translate(0)" fill="#12263f"/>
    <path id="Trazado_764848" data-name="Trazado 764848" d="M93.537,120.772a23.685,23.685,0,0,1,.895-7.511,19.47,19.47,0,0,1,5.874-8.946c1.23-1.058,1.758-1.169,3.187-.355a38.528,38.528,0,0,0,8.9,3.735,35.752,35.752,0,0,0,11.92,1.209,37.427,37.427,0,0,0,16.233-4.94c1.355-.775,1.976-.7,3.149.323a18.776,18.776,0,0,1,6.6,12.5c.2,1.948.1,3.928.133,5.893.006.35-.006.7,0,1.05a3.033,3.033,0,0,0,3.153,3.157c1.766.033,3.533-.026,5.3.028a9.028,9.028,0,0,1,2.549.362,4.5,4.5,0,0,1,3.084,5.219,4.584,4.584,0,0,1-4.52,3.777c-2.132.036-4.265-.008-6.4-.018a2.981,2.981,0,0,0-2.551,1.225,3.118,3.118,0,0,0-.616,1.914c0,1.451.03,2.9-.022,4.351a25.088,25.088,0,0,1-1.29,6.9,26.213,26.213,0,0,1-4.588,8.525,26.82,26.82,0,0,1-15.9,9.633,37.669,37.669,0,0,1-8.863.409,26.316,26.316,0,0,1-12.7-3.531,26.847,26.847,0,0,1-11.023-12.11A27.467,27.467,0,0,1,93.563,141.3c.015-.716.02-1.435-.024-2.15a2.946,2.946,0,0,0-2.866-2.852c-2.031-.058-4.065-.03-6.1-.012A5.047,5.047,0,0,1,81.3,135.3a4.773,4.773,0,0,1-1.705-4.9,4.583,4.583,0,0,1,4.008-3.4c2.16-.113,4.329-.065,6.493-.074a3.622,3.622,0,0,0,2.191-.534,2.651,2.651,0,0,0,1.242-2.116c.041-1.165.01-2.333.01-3.5M121.218,152a17.323,17.323,0,0,0,12.555-5.057,13.7,13.7,0,0,0,3.153-4.869,2.954,2.954,0,0,0-3.376-3.736,3.4,3.4,0,0,0-2.349,2.045,10.2,10.2,0,0,1-12.231,5.156,9.807,9.807,0,0,1-5.947-4.8,11.476,11.476,0,0,0-.873-1.393,2.9,2.9,0,0,0-4.455-.022,3.008,3.008,0,0,0-.215,3.593A16.218,16.218,0,0,0,121.218,152M106.69,116.578a12.247,12.247,0,0,0-1.863.451,9.418,9.418,0,0,0-4.513,4,2.75,2.75,0,0,0-.378,1.219,2.964,2.964,0,0,0,1.853,2.919,2.87,2.87,0,0,0,3.231-.766c.486-.524.964-1.056,1.442-1.588a.525.525,0,0,1,.889.01c.433.483.854.977,1.282,1.464a2.909,2.909,0,0,0,4.071.475,2.828,2.828,0,0,0,.632-3.988,12.319,12.319,0,0,0-2.56-2.78,6.421,6.421,0,0,0-4.084-1.416m30.42.011a9.558,9.558,0,0,0-1.07.153,8.724,8.724,0,0,0-5.565,4.456,2.92,2.92,0,0,0,4.779,3.232c.459-.482.863-1.016,1.327-1.492.5-.511.625-.5,1.133.015.43.44.822.917,1.237,1.372a2.908,2.908,0,0,0,4.655-3.47,16.7,16.7,0,0,0-2.544-2.786,5.955,5.955,0,0,0-3.952-1.482" transform="translate(-47.588 -61.953)" fill="#e8e8e8"/>
    <path id="Trazado_764849" data-name="Trazado 764849" d="M83.492,381.937q22.592,0,45.185-.01a21.952,21.952,0,0,1,9.508,1.929c7.645,3.592,12.236,9.575,13.385,17.951a22.7,22.7,0,0,1-13.062,23.8,22.037,22.037,0,0,1-9.431,2.072q-45.735.009-91.471,0a22.783,22.783,0,0,1-22.582-25.893,22.345,22.345,0,0,1,7.368-14.016,21.869,21.869,0,0,1,11.042-5.457,27.423,27.423,0,0,1,4.772-.365q22.643-.039,45.286-.016Zm59.559,19.9a5.586,5.586,0,0,0-4.471-5.569,32.325,32.325,0,0,0-3.614-.4c-1.077-.105-2.157-.172-3.231-.3a.792.792,0,0,1-.531-.409c-.809-1.879-1.561-3.782-2.382-5.656a5.379,5.379,0,0,0-2.687-2.844,5.54,5.54,0,0,0-7.536,2.905c-.8,1.793-1.557,3.6-2.3,5.423a.9.9,0,0,1-.864.66c-1.71.128-3.417.3-5.128.411a6.2,6.2,0,0,0-4.319,1.786,5.182,5.182,0,0,0-1.589,3.509,5.781,5.781,0,0,0,2.109,4.709c1.47,1.281,2.94,2.56,4.425,3.823a.642.642,0,0,1,.265.763q-.411,1.49-.751,3a26.366,26.366,0,0,0-.813,3.952,5.233,5.233,0,0,0,2.756,5.032,5.352,5.352,0,0,0,5.824-.017c1.316-.783,2.61-1.6,3.918-2.4.51-.311,1.037-.85,1.547-.839.559.012,1.115.524,1.658.842,1.537.9,3.028,1.885,4.608,2.7a4.975,4.975,0,0,0,5.628-.6,5.129,5.129,0,0,0,2.138-5.22c-.418-2.188-.974-4.35-1.446-6.529a.744.744,0,0,1,.176-.588c.413-.41.879-.765,1.315-1.152,1.26-1.115,2.554-2.195,3.762-3.364a5,5,0,0,0,1.529-3.633m-114.3,15.968c.1.575.136.99.235,1.391a5.555,5.555,0,0,0,8.286,3.426c1.628-.973,3.276-1.916,4.872-2.942a1.217,1.217,0,0,1,1.512.02c1.652,1.029,3.319,2.037,5.007,3.007a5.174,5.174,0,0,0,4.936.252,5.443,5.443,0,0,0,3.238-6.189c-.466-1.941-.861-3.9-1.352-5.834a1,1,0,0,1,.373-1.188c1.527-1.29,3.055-2.581,4.531-3.929A5.587,5.587,0,0,0,59,396.659a9.034,9.034,0,0,0-3.3-.687c-1.494-.12-2.99-.218-4.485-.32a.967.967,0,0,1-.944-.7c-.776-1.928-1.562-3.857-2.459-5.73a5.309,5.309,0,0,0-5.659-3.06,5.229,5.229,0,0,0-4.307,3.168c-.856,1.856-1.625,3.754-2.376,5.656a.937.937,0,0,1-.949.671c-1.992.152-3.983.312-5.971.51a5.533,5.533,0,0,0-4.882,6.636,5.635,5.635,0,0,0,1.984,3.258c1.49,1.282,2.968,2.578,4.461,3.856a.623.623,0,0,1,.238.729c-.292,1.144-.549,2.3-.8,3.452-.284,1.28-.552,2.564-.8,3.71M102.621,402.5c-.016-3.081-1.362-5.164-3.573-5.97a12.175,12.175,0,0,0-2.829-.535c-1.605-.174-3.219-.267-4.829-.392a.69.69,0,0,1-.637-.516c-.834-2.013-1.611-4.059-2.593-6a5.483,5.483,0,0,0-9.838.17c-.846,1.807-1.641,3.642-2.361,5.5a1.171,1.171,0,0,1-1.3.9,1.1,1.1,0,0,0-.15,0c-1.924.166-3.867.215-5.767.527a5.36,5.36,0,0,0-4.572,4.023,5.29,5.29,0,0,0,1.721,5.694q2.305,2.033,4.652,4.02a.6.6,0,0,1,.233.687c-.411,1.715-.832,3.428-1.2,5.152a8.64,8.64,0,0,0-.321,2.41,5.559,5.559,0,0,0,8.412,4.465q2.12-1.269,4.243-2.536c.468-.278.946-.757,1.416-.753s.952.487,1.424.767c1.561.924,3.1,1.9,4.685,2.767a5.568,5.568,0,0,0,7.631-3.1,5.142,5.142,0,0,0,.184-3c-.46-2.046-.918-4.092-1.4-6.133a.661.661,0,0,1,.247-.769c1.612-1.371,3.231-2.736,4.787-4.169a5.025,5.025,0,0,0,1.736-3.218" transform="translate(-8.875 -228.78)" fill="#dee4f0"/>
    <path id="Trazado_764850" data-name="Trazado 764850" d="M149.064,275.678a38.538,38.538,0,0,0,29.265.035c.319,2.966-1.186,8.157-5.445,11.585a15.1,15.1,0,0,1-16.209,1.386,14.637,14.637,0,0,1-7.611-13.005" transform="translate(-89.289 -165.136)" fill="#e8e8e8"/>
    <path id="Trazado_764851" data-name="Trazado 764851" d="M144.376,312.619a21.343,21.343,0,0,1-7.123-7.812,19.978,19.978,0,0,1-1.652-13.683,22.293,22.293,0,0,0,4.772,8.092,21.675,21.675,0,0,0,7.743,5.165,14.915,14.915,0,0,0-3.74,8.238" transform="translate(-80.9 -174.389)" fill="#91b3fa"/>
    <path id="Trazado_764852" data-name="Trazado 764852" d="M207.367,312.762a15.262,15.262,0,0,0-3.811-8.117,21.351,21.351,0,0,0,12.574-13.089,19.912,19.912,0,0,1-1.5,13.043,19.228,19.228,0,0,1-7.261,8.163" transform="translate(-121.934 -174.647)" fill="#91b3fa"/>
    <path id="Trazado_764853" data-name="Trazado 764853" d="M162.372,204.064a16.218,16.218,0,0,1-13.736-9.083,3.008,3.008,0,0,1,.215-3.593,2.9,2.9,0,0,1,4.454.023,11.475,11.475,0,0,1,.873,1.393,9.806,9.806,0,0,0,5.947,4.8,10.2,10.2,0,0,0,12.231-5.156A3.4,3.4,0,0,1,174.7,190.4a2.955,2.955,0,0,1,3.376,3.736,13.7,13.7,0,0,1-3.153,4.869,17.325,17.325,0,0,1-12.555,5.057" transform="translate(-88.742 -114.02)" fill="#12263f"/>
    <path id="Trazado_764854" data-name="Trazado 764854" d="M137.292,136.229a6.419,6.419,0,0,1,4.084,1.416,12.327,12.327,0,0,1,2.56,2.78,2.828,2.828,0,0,1-.632,3.989,2.91,2.91,0,0,1-4.071-.475c-.428-.487-.848-.982-1.282-1.464a.525.525,0,0,0-.889-.011c-.478.532-.955,1.064-1.442,1.588a2.87,2.87,0,0,1-3.231.766,2.964,2.964,0,0,1-1.852-2.92,2.746,2.746,0,0,1,.378-1.219,9.421,9.421,0,0,1,4.513-4,12.284,12.284,0,0,1,1.863-.45" transform="translate(-78.189 -81.604)" fill="#12263f"/>
    <path id="Trazado_764855" data-name="Trazado 764855" d="M212.875,136.255a5.955,5.955,0,0,1,3.952,1.482,16.7,16.7,0,0,1,2.544,2.786,2.908,2.908,0,0,1-4.655,3.47c-.415-.456-.807-.932-1.237-1.372-.508-.52-.633-.526-1.133-.015-.465.476-.869,1.01-1.327,1.492a2.92,2.92,0,0,1-4.779-3.232,8.724,8.724,0,0,1,5.565-4.456,9.557,9.557,0,0,1,1.07-.153" transform="translate(-123.352 -81.619)" fill="#12263f"/>
    <path id="Trazado_764856" data-name="Trazado 764856" d="M276.882,408.1a5,5,0,0,1-1.529,3.633c-1.208,1.169-2.5,2.25-3.762,3.364-.437.386-.9.741-1.316,1.151a.747.747,0,0,0-.176.589c.472,2.179,1.029,4.34,1.446,6.529a5.129,5.129,0,0,1-2.138,5.22,4.975,4.975,0,0,1-5.628.595c-1.58-.814-3.071-1.8-4.607-2.7-.544-.318-1.1-.83-1.658-.842-.51-.01-1.037.528-1.548.839-1.308.8-2.6,1.616-3.917,2.4a5.352,5.352,0,0,1-5.824.016,5.233,5.233,0,0,1-2.757-5.032,26.467,26.467,0,0,1,.813-3.951q.342-1.508.751-3a.644.644,0,0,0-.265-.763c-1.485-1.262-2.956-2.542-4.426-3.823a5.783,5.783,0,0,1-2.109-4.71,5.185,5.185,0,0,1,1.589-3.509,6.2,6.2,0,0,1,4.319-1.786c1.711-.108,3.418-.282,5.128-.41a.9.9,0,0,0,.864-.661c.739-1.818,1.5-3.63,2.3-5.422a5.539,5.539,0,0,1,7.536-2.9,5.375,5.375,0,0,1,2.687,2.845c.821,1.873,1.573,3.776,2.382,5.655a.8.8,0,0,0,.532.409c1.073.129,2.154.2,3.231.3a32.6,32.6,0,0,1,3.614.4,5.588,5.588,0,0,1,4.471,5.569m-6.59.234a1.992,1.992,0,0,0-.3-.085c-1.624-.143-3.248-.3-4.874-.419a5.728,5.728,0,0,1-5.219-3.5c-.72-1.608-1.381-3.244-2.073-4.864-.072-.169-.177-.325-.279-.508-.795,1.838-1.547,3.612-2.328,5.373a5.421,5.421,0,0,1-4.546,3.371c-1.767.216-3.544.348-5.316.518-.167.016-.333.041-.612.077.205.17.308.25.405.336,1.374,1.212,2.778,2.391,4.112,3.645a5.32,5.32,0,0,1,1.667,5.176c-.314,1.565-.7,3.116-1.053,4.673-.087.387-.162.778-.266,1.285.219-.124.3-.17.386-.22,1.55-.941,3.09-1.9,4.651-2.821a5.411,5.411,0,0,1,5.866.033c.974.575,1.94,1.165,2.91,1.747.65.39,1.3.778,2.026,1.21a5.4,5.4,0,0,0-.063-.633c-.365-1.571-.726-3.144-1.109-4.711a5.653,5.653,0,0,1,2.014-6.161c.245-.2.488-.4.724-.613,1.078-.957,2.154-1.917,3.273-2.915" transform="translate(-142.705 -235.038)" fill="#12263f"/>
    <path id="Trazado_764857" data-name="Trazado 764857" d="M41.8,424.065c.246-1.146.514-2.43.8-3.71.256-1.153.512-2.307.805-3.451a.623.623,0,0,0-.238-.729c-1.493-1.278-2.971-2.575-4.461-3.857a5.635,5.635,0,0,1-1.984-3.258,5.532,5.532,0,0,1,4.882-6.635c1.987-.2,3.979-.358,5.97-.51a.937.937,0,0,0,.949-.671c.751-1.9,1.52-3.8,2.377-5.656a5.228,5.228,0,0,1,4.307-3.167,5.309,5.309,0,0,1,5.659,3.059c.9,1.873,1.683,3.8,2.46,5.73a.966.966,0,0,0,.944.7c1.5.1,2.991.2,4.485.321a9.029,9.029,0,0,1,3.3.687,5.586,5.586,0,0,1,1.386,9.162c-1.476,1.347-3,2.639-4.53,3.929a1,1,0,0,0-.373,1.188c.491,1.934.887,3.893,1.352,5.834a5.444,5.444,0,0,1-3.238,6.189,5.175,5.175,0,0,1-4.936-.252c-1.688-.97-3.355-1.978-5.007-3.008a1.217,1.217,0,0,0-1.512-.019c-1.595,1.026-3.243,1.968-4.872,2.942a5.554,5.554,0,0,1-8.285-3.426c-.1-.4-.14-.817-.235-1.392m6.2-.647c.27-.157.422-.242.572-.333,1.539-.927,3.062-1.882,4.621-2.774a5.2,5.2,0,0,1,5.42-.1c1.506.848,2.96,1.79,4.44,2.686.243.148.5.275.794.437a1.76,1.76,0,0,0,0-.291c-.376-1.586-.723-3.179-1.139-4.755a5.808,5.808,0,0,1,1.867-6.359c.807-.7,1.6-1.4,2.405-2.107.546-.48,1.089-.963,1.7-1.507-.222-.042-.344-.076-.469-.088-1.756-.169-3.515-.317-5.268-.508a5.26,5.26,0,0,1-4.628-3.293q-1.05-2.481-2.1-4.96c-.076-.179-.159-.355-.264-.59-.081.157-.13.241-.168.33-.767,1.788-1.486,3.6-2.311,5.358a5.172,5.172,0,0,1-4.143,3.083c-1.284.18-2.583.253-3.874.378-.753.073-1.5.152-2.257.229l-.081.147a1.231,1.231,0,0,1,.261.134c1.37,1.191,2.752,2.369,4.1,3.583a5.351,5.351,0,0,1,1.83,5.346c-.361,1.742-.784,3.471-1.177,5.207-.045.2-.072.406-.131.744" transform="translate(-21.932 -235.038)" fill="#12263f"/>
    <path id="Trazado_764858" data-name="Trazado 764858" d="M176,408.745a5.024,5.024,0,0,1-1.736,3.217c-1.556,1.433-3.175,2.8-4.787,4.169a.661.661,0,0,0-.247.769c.477,2.042.935,4.088,1.4,6.133a5.143,5.143,0,0,1-.184,3,5.567,5.567,0,0,1-7.631,3.1c-1.59-.871-3.124-1.843-4.685-2.767-.472-.28-.947-.764-1.424-.767s-.948.475-1.416.753q-2.124,1.264-4.243,2.536a5.559,5.559,0,0,1-8.412-4.465,8.638,8.638,0,0,1,.321-2.41c.371-1.724.792-3.437,1.2-5.152a.6.6,0,0,0-.233-.687q-2.342-1.991-4.652-4.02a5.289,5.289,0,0,1-1.721-5.695,5.359,5.359,0,0,1,4.572-4.023c1.9-.313,3.843-.362,5.767-.527a1.038,1.038,0,0,1,.15,0,1.171,1.171,0,0,0,1.3-.9c.72-1.86,1.514-3.7,2.361-5.5a5.483,5.483,0,0,1,9.838-.169c.982,1.941,1.759,3.987,2.594,6a.69.69,0,0,0,.637.515c1.61.126,3.224.219,4.829.393a12.127,12.127,0,0,1,2.829.535c2.211.806,3.557,2.889,3.573,5.97m-32.119-.486c.186.178.3.292.417.4,1.333,1.158,2.7,2.279,3.993,3.481a5.53,5.53,0,0,1,1.725,5.585c-.385,1.7-.778,3.407-1.162,5.111a4.494,4.494,0,0,0-.047.526c.178-.091.266-.131.349-.181,1.538-.931,3.07-1.872,4.614-2.792a5.375,5.375,0,0,1,5.693-.093c1,.557,1.967,1.185,2.952,1.776.7.422,1.41.836,2.207,1.308-.046-.267-.062-.413-.1-.555-.358-1.471-.7-2.945-1.082-4.41a5.913,5.913,0,0,1,2.076-6.659c.808-.642,1.577-1.335,2.355-2.015.517-.452,1.02-.92,1.561-1.41a1,1,0,0,0-.21-.1c-1.492-.14-2.986-.262-4.476-.419a12.718,12.718,0,0,1-2.262-.346,5.5,5.5,0,0,1-3.555-3.339c-.663-1.544-1.308-3.1-1.966-4.642-.078-.184-.188-.354-.3-.558-.836,1.93-1.585,3.821-2.466,5.647a5.291,5.291,0,0,1-4.576,3.162c-1.875.154-3.747.343-5.746.529" transform="translate(-82.257 -235.027)" fill="#12263f"/>
    <path id="Trazado_764859" data-name="Trazado 764859" d="M280.029,418.167c-1.12,1-2.195,1.958-3.273,2.915-.236.21-.479.413-.724.613a5.653,5.653,0,0,0-2.014,6.161c.383,1.567.744,3.139,1.109,4.711a5.392,5.392,0,0,1,.063.633c-.724-.432-1.376-.82-2.026-1.21-.97-.582-1.936-1.173-2.91-1.748a5.411,5.411,0,0,0-5.866-.033c-1.56.923-3.1,1.88-4.651,2.821-.082.05-.167.1-.386.22.1-.507.179-.9.266-1.285.352-1.558.74-3.108,1.053-4.673A5.32,5.32,0,0,0,259,422.115c-1.334-1.254-2.738-2.434-4.112-3.645-.1-.086-.2-.166-.405-.336.28-.036.445-.061.612-.077,1.772-.17,3.549-.3,5.316-.518a5.421,5.421,0,0,0,4.546-3.371c.782-1.761,1.533-3.535,2.328-5.373.1.183.206.339.279.508.692,1.621,1.353,3.256,2.073,4.864a5.728,5.728,0,0,0,5.219,3.5c1.626.117,3.25.276,4.874.419a1.985,1.985,0,0,1,.3.085" transform="translate(-152.442 -244.875)" fill="#e6b046"/>
    <path id="Trazado_764860" data-name="Trazado 764860" d="M57.716,433.137c.059-.338.085-.543.131-.744.393-1.736.816-3.465,1.177-5.207a5.351,5.351,0,0,0-1.83-5.346c-1.35-1.214-2.731-2.393-4.1-3.583a1.231,1.231,0,0,0-.261-.134l.081-.147c.752-.076,1.5-.156,2.257-.229,1.292-.125,2.59-.2,3.874-.378a5.172,5.172,0,0,0,4.143-3.083c.826-1.76,1.545-3.57,2.311-5.358.038-.089.087-.172.168-.33.105.235.188.411.264.589q1.053,2.48,2.1,4.96a5.259,5.259,0,0,0,4.628,3.293c1.753.191,3.512.339,5.268.508.125.012.247.046.469.088-.615.544-1.158,1.027-1.7,1.507-.8.7-1.6,1.41-2.405,2.107a5.808,5.808,0,0,0-1.867,6.359c.416,1.575.763,3.169,1.139,4.755a1.762,1.762,0,0,1,0,.291c-.3-.162-.551-.289-.794-.437-1.479-.9-2.933-1.838-4.44-2.686a5.2,5.2,0,0,0-5.42.1c-1.559.893-3.082,1.848-4.621,2.774-.15.091-.3.176-.572.333" transform="translate(-31.647 -244.758)" fill="#57dbd8"/>
    <path id="Trazado_764861" data-name="Trazado 764861" d="M153.693,418.072c2-.185,3.871-.375,5.746-.529a5.291,5.291,0,0,0,4.576-3.162c.881-1.826,1.63-3.717,2.466-5.647.109.2.219.374.3.558.658,1.547,1.3,3.1,1.966,4.642a5.5,5.5,0,0,0,3.555,3.339,12.712,12.712,0,0,0,2.262.346c1.49.156,2.984.279,4.476.419a1,1,0,0,1,.21.1c-.541.49-1.043.958-1.561,1.41-.778.679-1.547,1.372-2.355,2.015a5.912,5.912,0,0,0-2.076,6.659c.38,1.465.724,2.94,1.082,4.41.034.142.051.288.1.555-.8-.472-1.5-.886-2.207-1.308-.985-.591-1.948-1.22-2.952-1.776a5.375,5.375,0,0,0-5.693.093c-1.544.921-3.076,1.862-4.614,2.793-.083.05-.171.089-.349.181a4.484,4.484,0,0,1,.047-.526c.384-1.7.777-3.407,1.162-5.111a5.53,5.53,0,0,0-1.725-5.585c-1.292-1.2-2.66-2.323-3.993-3.481-.119-.1-.23-.218-.417-.4" transform="translate(-92.065 -244.839)" fill="#fe7062"/>
  </g>
</svg>
