<svg xmlns="http://www.w3.org/2000/svg" width="25.156" height="61.308" viewBox="0 0 25.156 61.308">
  <path id="Trazado_762797" data-name="Trazado 762797" d="M235.192,104.23V97.116H221.436a33.821,33.821,0,0,1,1.507-4.812,46.388,46.388,0,0,1,1.966-4.269q1.067-2.033,2.151-4l5.488-9.758a31.037,31.037,0,0,0,1.932-4.048,27.25,27.25,0,0,0,1.337-4.59,26.4,26.4,0,0,0,.491-5.219,28.111,28.111,0,0,0-1.151-8.284,12.753,12.753,0,0,0-3.693-5.981,9.888,9.888,0,0,0-6.776-2.235q-5.456,0-8.132,2.456a12.352,12.352,0,0,0-3.54,7.065,60.922,60.922,0,0,0-.863,11.045v3.658h8.674V60.591a25.186,25.186,0,0,1,.474-5.71,4.452,4.452,0,0,1,1.3-2.506,3,3,0,0,1,1.847-.627,2.411,2.411,0,0,1,1.746.711,5,5,0,0,1,1.117,2.508,25.338,25.338,0,0,1,.39,5.083,35.149,35.149,0,0,1-.187,3.845,21.96,21.96,0,0,1-.525,3,15.108,15.108,0,0,1-.831,2.422,19.934,19.934,0,0,1-1.1,2.118l-5.9,9.792A61.908,61.908,0,0,0,215.608,88a33.905,33.905,0,0,0-2.118,6.336,29.227,29.227,0,0,0-.695,6.369v3.524Z" transform="translate(-211.653 -43.422)" fill="none" stroke="#12263f" stroke-miterlimit="10" stroke-width="1"/>
</svg>
