<svg xmlns="http://www.w3.org/2000/svg" width="400.909" height="281.003" viewBox="0 0 400.909 281.003">
  <g id="Grupo_1025530" data-name="Grupo 1025530" transform="translate(-599.499 -11757.5)">
    <path id="Trazado_765799" data-name="Trazado 765799" d="M10515.7,11744H10493a5,5,0,0,1-5-5v-25a5,5,0,0,1,5-5h389.909a5,5,0,0,1,5,5v25a5,5,0,0,1-5,5H10532.3l-8.3,14Z" transform="translate(-9888 49)" fill="#d8e4fd" stroke="rgba(0,0,0,0)" stroke-width="1" opacity="0.998"/>
    <path id="Trazado_765800" data-name="Trazado 765800" d="M10524,11758h0l-8.294-14H10493a5.005,5.005,0,0,1-5-5v-25a5.006,5.006,0,0,1,5-5h20.333l10.666,18,10.667-18h348.244a5,5,0,0,1,5,5v25a5,5,0,0,1-5,5h-350.616l-8.294,14Z" transform="translate(-9888 89.002)" fill="#c4f2f1" stroke="rgba(0,0,0,0)" stroke-width="1" opacity="0.998"/>
    <path id="Trazado_765801" data-name="Trazado 765801" d="M10524,11758h0l-8.294-14H10493a5.005,5.005,0,0,1-5-5v-25a5.006,5.006,0,0,1,5-5h20.333l10.666,18,10.667-18h348.244a5,5,0,0,1,5,5v25a5,5,0,0,1-5,5h-350.616l-8.294,14Z" transform="translate(-9888 169.002)" fill="#c4f2f1" stroke="rgba(0,0,0,0)" stroke-width="1" opacity="0.998"/>
    <path id="Trazado_765802" data-name="Trazado 765802" d="M10524,11758h0l-8.294-14H10493a5.005,5.005,0,0,1-5-5v-25a5.006,5.006,0,0,1,5-5h20.333l10.666,18,10.667-18h348.244a5,5,0,0,1,5,5v25a5,5,0,0,1-5,5h-350.616l-8.294,14Z" transform="translate(-9888 253.002)" fill="#c4f2f1" stroke="rgba(0,0,0,0)" stroke-width="1" opacity="0.998"/>
    <path id="Trazado_765803" data-name="Trazado 765803" d="M10524,11758h0l-8.294-14H10493a5.005,5.005,0,0,1-5-5v-25a5.006,5.006,0,0,1,5-5h20.333l10.666,18,10.667-18h348.244a5,5,0,0,1,5,5v25a5,5,0,0,1-5,5h-350.616l-8.294,14Z" transform="translate(-9888 130.002)" fill="#d8e4fd" stroke="rgba(0,0,0,0)" stroke-width="1" opacity="0.998"/>
    <path id="Trazado_765804" data-name="Trazado 765804" d="M10524,11758h0l-8.294-14H10493a5.005,5.005,0,0,1-5-5v-25a5.006,5.006,0,0,1,5-5h20.333l10.666,18,10.667-18h348.244a5,5,0,0,1,5,5v25a5,5,0,0,1-5,5h-350.616l-8.294,14Z" transform="translate(-9888 215.002)" fill="#d8e4fd" stroke="rgba(0,0,0,0)" stroke-width="1" opacity="0.998"/>
    <path id="Trazado_765805" data-name="Trazado 765805" d="M10882.91,11744H10493a5.008,5.008,0,0,1-5-5v-25a5.006,5.006,0,0,1,5-5h20.334l10.666,18,10.665-18h348.244a5,5,0,0,1,5,5v25A5.006,5.006,0,0,1,10882.91,11744Z" transform="translate(-9888 294.002)" fill="#d8e4fd" stroke="rgba(0,0,0,0)" stroke-width="1" opacity="0.998"/>
    <path id="Trazado_765806" data-name="Trazado 765806" d="M5.867,14H3.75V5.83l-2.527.78V4.9L5.64,3.321h.227Zm3.662-1.04a1.066,1.066,0,0,1,.341-.82,1.323,1.323,0,0,1,1.714,0,1.066,1.066,0,0,1,.341.82,1.051,1.051,0,0,1-.337.809,1.345,1.345,0,0,1-1.721,0A1.051,1.051,0,0,1,9.529,12.96ZM26.411,8.91a6.438,6.438,0,0,1-.557,2.761A4.192,4.192,0,0,1,24.261,13.5a4.707,4.707,0,0,1-4.742.007,4.233,4.233,0,0,1-1.611-1.82,6.253,6.253,0,0,1-.579-2.721V8.441A6.4,6.4,0,0,1,17.9,5.669,4.226,4.226,0,0,1,19.5,3.83a4.7,4.7,0,0,1,4.739,0,4.226,4.226,0,0,1,1.6,1.838,6.386,6.386,0,0,1,.568,2.765Zm-2.227-.483a4.488,4.488,0,0,0-.6-2.549,2.122,2.122,0,0,0-3.42-.011,4.436,4.436,0,0,0-.608,2.523v.52a4.544,4.544,0,0,0,.6,2.534,2.1,2.1,0,0,0,3.428.033,4.517,4.517,0,0,0,.6-2.531ZM35.01,10.111a4.8,4.8,0,0,1-.813,2.97,2.693,2.693,0,0,1-2.271,1.066,2.474,2.474,0,0,1-2.058-.989l-.1.842h-1.9V2.75h2.117V6.786a2.411,2.411,0,0,1,1.926-.857,2.715,2.715,0,0,1,2.274,1.066,4.806,4.806,0,0,1,.824,3Zm-2.117-.161a3.17,3.17,0,0,0-.381-1.76,1.287,1.287,0,0,0-1.135-.555,1.4,1.4,0,0,0-1.392.83V11.6a1.415,1.415,0,0,0,1.406.837,1.307,1.307,0,0,0,1.348-1.014A5.245,5.245,0,0,0,32.893,9.949Zm5.662-3.874v8.357a2.835,2.835,0,0,1-.7,2.04,2.645,2.645,0,0,1-2.007.729,4.3,4.3,0,0,1-1.047-.125V15.4a3.973,3.973,0,0,0,.667.066q.959,0,.959-1.018V6.075ZM36.262,4.024a1.042,1.042,0,0,1,.319-.784,1.378,1.378,0,0,1,1.736,0,1.042,1.042,0,0,1,.319.784,1.039,1.039,0,0,1-.326.791,1.358,1.358,0,0,1-1.721,0A1.039,1.039,0,0,1,36.262,4.024Zm7.6,10.122a3.89,3.89,0,0,1-2.838-1.069,3.8,3.8,0,0,1-1.095-2.849v-.205a4.787,4.787,0,0,1,.461-2.135,3.386,3.386,0,0,1,1.307-1.45,3.669,3.669,0,0,1,1.93-.509,3.289,3.289,0,0,1,2.56,1.025,4.167,4.167,0,0,1,.934,2.908v.864H42.07a1.966,1.966,0,0,0,.619,1.245A1.871,1.871,0,0,0,44,12.44a2.285,2.285,0,0,0,1.912-.886l1.04,1.165a3.178,3.178,0,0,1-1.289,1.051A4.229,4.229,0,0,1,43.857,14.146Zm-.242-6.511a1.323,1.323,0,0,0-1.022.427,2.209,2.209,0,0,0-.5,1.221h2.944V9.114a1.576,1.576,0,0,0-.381-1.092A1.365,1.365,0,0,0,43.616,7.635Zm7.236-3.508V6.075h1.355V7.628H50.852v3.955a.944.944,0,0,0,.168.63.846.846,0,0,0,.645.19,3.376,3.376,0,0,0,.623-.051v1.6a4.358,4.358,0,0,1-1.282.19A2.021,2.021,0,0,1,48.735,11.9V7.628H47.578V6.075h1.157V4.127ZM55.62,14H53.5V6.075H55.62ZM53.372,4.024a1.042,1.042,0,0,1,.319-.784,1.373,1.373,0,0,1,1.732,0,1.036,1.036,0,0,1,.322.784,1.039,1.039,0,0,1-.326.791,1.358,1.358,0,0,1-1.721,0A1.039,1.039,0,0,1,53.372,4.024Zm6.958,7.39L61.8,6.075h2.212L61.34,14H59.319L56.646,6.075h2.212ZM64.5,9.964a4.7,4.7,0,0,1,.454-2.1,3.324,3.324,0,0,1,1.307-1.428,3.814,3.814,0,0,1,1.981-.505,3.609,3.609,0,0,1,2.618.981A3.939,3.939,0,0,1,72,9.576l.015.542a4.142,4.142,0,0,1-1.018,2.926,3.946,3.946,0,0,1-5.468,0A4.215,4.215,0,0,1,64.5,10.06Zm2.117.15a2.962,2.962,0,0,0,.425,1.727,1.526,1.526,0,0,0,2.417.007A3.241,3.241,0,0,0,69.9,9.961a2.933,2.933,0,0,0-.432-1.716,1.4,1.4,0,0,0-1.216-.609,1.382,1.382,0,0,0-1.2.605A3.3,3.3,0,0,0,66.621,10.115Zm10.1-.15a4.7,4.7,0,0,1,.454-2.1,3.324,3.324,0,0,1,1.307-1.428,3.814,3.814,0,0,1,1.981-.505,3.609,3.609,0,0,1,2.618.981,3.939,3.939,0,0,1,1.132,2.666l.015.542a4.142,4.142,0,0,1-1.018,2.926,3.946,3.946,0,0,1-5.468,0,4.215,4.215,0,0,1-1.022-2.988Zm2.117.15a2.962,2.962,0,0,0,.425,1.727,1.526,1.526,0,0,0,2.417.007,3.241,3.241,0,0,0,.432-1.889,2.933,2.933,0,0,0-.432-1.716,1.4,1.4,0,0,0-1.216-.609,1.382,1.382,0,0,0-1.2.605A3.3,3.3,0,0,0,78.838,10.115ZM93.86,14a2.351,2.351,0,0,1-.212-.71,2.561,2.561,0,0,1-2,.857,2.814,2.814,0,0,1-1.93-.674,2.167,2.167,0,0,1-.765-1.7,2.24,2.24,0,0,1,.934-1.934,4.608,4.608,0,0,1,2.7-.681h.974V8.7a1.306,1.306,0,0,0-.282-.879,1.109,1.109,0,0,0-.89-.33,1.261,1.261,0,0,0-.839.256.871.871,0,0,0-.3.7H89.128a2.126,2.126,0,0,1,.425-1.274,2.808,2.808,0,0,1,1.2-.919A4.378,4.378,0,0,1,92.5,5.929a3.459,3.459,0,0,1,2.325.736,2.575,2.575,0,0,1,.861,2.069v3.435A3.789,3.789,0,0,0,96,13.875V14Zm-1.75-1.472a1.823,1.823,0,0,0,.864-.209,1.371,1.371,0,0,0,.586-.56V10.4h-.791q-1.589,0-1.692,1.1l-.007.125a.847.847,0,0,0,.278.652A1.081,1.081,0,0,0,92.109,12.528ZM99.543,14H97.419V2.75h2.124Zm5.039-1.56a1.388,1.388,0,0,0,.952-.322,1.129,1.129,0,0,0,.381-.857H107.9a2.715,2.715,0,0,1-.439,1.476,2.9,2.9,0,0,1-1.183,1.04,3.7,3.7,0,0,1-1.659.37,3.44,3.44,0,0,1-2.681-1.08,4.275,4.275,0,0,1-.981-2.985V9.942a4.226,4.226,0,0,1,.974-2.922A3.4,3.4,0,0,1,104.6,5.929a3.333,3.333,0,0,1,2.384.846,3,3,0,0,1,.912,2.252h-1.985a1.455,1.455,0,0,0-.381-1.005,1.416,1.416,0,0,0-2.084.153,3.125,3.125,0,0,0-.377,1.749v.22a3.164,3.164,0,0,0,.374,1.761A1.291,1.291,0,0,0,104.583,12.44ZM113.7,14a2.351,2.351,0,0,1-.212-.71,2.561,2.561,0,0,1-2,.857,2.814,2.814,0,0,1-1.93-.674,2.167,2.167,0,0,1-.765-1.7,2.24,2.24,0,0,1,.934-1.934,4.608,4.608,0,0,1,2.7-.681h.974V8.7a1.306,1.306,0,0,0-.282-.879,1.109,1.109,0,0,0-.89-.33,1.261,1.261,0,0,0-.839.256.871.871,0,0,0-.3.7H108.97a2.126,2.126,0,0,1,.425-1.274,2.808,2.808,0,0,1,1.2-.919,4.378,4.378,0,0,1,1.743-.333,3.459,3.459,0,0,1,2.325.736,2.575,2.575,0,0,1,.861,2.069v3.435a3.789,3.789,0,0,0,.315,1.707V14Zm-1.75-1.472a1.823,1.823,0,0,0,.864-.209,1.371,1.371,0,0,0,.586-.56V10.4h-.791q-1.589,0-1.692,1.1l-.007.125a.847.847,0,0,0,.278.652A1.081,1.081,0,0,0,111.951,12.528ZM119.1,6.075l.066.916a2.767,2.767,0,0,1,2.278-1.062,2.3,2.3,0,0,1,1.875.74,3.451,3.451,0,0,1,.63,2.212V14h-2.117V8.92a1.379,1.379,0,0,0-.293-.98,1.31,1.31,0,0,0-.974-.3,1.456,1.456,0,0,0-1.34.763V14h-2.117V6.075Zm9.749,6.365a1.388,1.388,0,0,0,.952-.322,1.129,1.129,0,0,0,.381-.857h1.985a2.715,2.715,0,0,1-.439,1.476,2.9,2.9,0,0,1-1.183,1.04,3.7,3.7,0,0,1-1.659.37,3.44,3.44,0,0,1-2.681-1.08,4.275,4.275,0,0,1-.981-2.985V9.942A4.226,4.226,0,0,1,126.2,7.02a3.4,3.4,0,0,1,2.673-1.091,3.333,3.333,0,0,1,2.384.846,3,3,0,0,1,.912,2.252h-1.985a1.455,1.455,0,0,0-.381-1.005,1.416,1.416,0,0,0-2.084.153,3.125,3.125,0,0,0-.377,1.749v.22a3.164,3.164,0,0,0,.374,1.761A1.291,1.291,0,0,0,128.848,12.44Zm8.174,1.707a3.89,3.89,0,0,1-2.838-1.069,3.8,3.8,0,0,1-1.095-2.849v-.205a4.787,4.787,0,0,1,.461-2.135,3.386,3.386,0,0,1,1.307-1.45,3.669,3.669,0,0,1,1.93-.509,3.289,3.289,0,0,1,2.56,1.025,4.167,4.167,0,0,1,.934,2.908v.864h-5.046a1.966,1.966,0,0,0,.619,1.245,1.871,1.871,0,0,0,1.307.469,2.285,2.285,0,0,0,1.912-.886l1.04,1.165a3.178,3.178,0,0,1-1.289,1.051A4.229,4.229,0,0,1,137.021,14.146Zm-.242-6.511a1.323,1.323,0,0,0-1.022.427,2.209,2.209,0,0,0-.5,1.221H138.2V9.114a1.576,1.576,0,0,0-.381-1.092A1.365,1.365,0,0,0,136.78,7.635ZM8.035,54H.725V52.55l3.45-3.677a8.51,8.51,0,0,0,1.051-1.355,2.177,2.177,0,0,0,.341-1.1A1.629,1.629,0,0,0,5.208,45.3,1.3,1.3,0,0,0,4.182,44.9a1.4,1.4,0,0,0-1.132.494,1.958,1.958,0,0,0-.414,1.3H.513a3.5,3.5,0,0,1,.465-1.78,3.278,3.278,0,0,1,1.315-1.263,4,4,0,0,1,1.926-.458,3.784,3.784,0,0,1,2.56.791,2.8,2.8,0,0,1,.912,2.234,3.586,3.586,0,0,1-.41,1.611,8.954,8.954,0,0,1-1.406,1.912L3.45,52.293H8.035Zm1.494-1.04a1.066,1.066,0,0,1,.341-.82,1.323,1.323,0,0,1,1.714,0,1.066,1.066,0,0,1,.341.82,1.051,1.051,0,0,1-.337.809,1.345,1.345,0,0,1-1.721,0A1.051,1.051,0,0,1,9.529,52.96ZM26.323,54h-2.2l-4.277-7.017V54h-2.2V43.336h2.2l4.285,7.031V43.336h2.19Zm1.45-4.036a4.7,4.7,0,0,1,.454-2.1,3.324,3.324,0,0,1,1.307-1.428,3.814,3.814,0,0,1,1.981-.505,3.609,3.609,0,0,1,2.618.981,3.939,3.939,0,0,1,1.132,2.666l.015.542a4.142,4.142,0,0,1-1.018,2.926,3.539,3.539,0,0,1-2.732,1.1,3.556,3.556,0,0,1-2.736-1.1,4.215,4.215,0,0,1-1.022-2.988Zm2.117.15a2.962,2.962,0,0,0,.425,1.727,1.526,1.526,0,0,0,2.417.007,3.241,3.241,0,0,0,.432-1.889,2.933,2.933,0,0,0-.432-1.716,1.4,1.4,0,0,0-1.216-.609,1.382,1.382,0,0,0-1.2.605A3.3,3.3,0,0,0,29.89,50.115ZM41.038,48.06A5.75,5.75,0,0,0,40.276,48a1.55,1.55,0,0,0-1.575.813V54H36.584V46.075h2l.059.945a1.961,1.961,0,0,1,1.765-1.091,2.218,2.218,0,0,1,.659.1Zm3-1.985.066.886a2.785,2.785,0,0,1,2.278-1.033,2.114,2.114,0,0,1,2.1,1.208,2.721,2.721,0,0,1,2.38-1.208,2.364,2.364,0,0,1,1.919.751,3.451,3.451,0,0,1,.63,2.26V54H51.292V48.935a1.515,1.515,0,0,0-.264-.987,1.167,1.167,0,0,0-.93-.312,1.321,1.321,0,0,0-1.318.91L48.787,54H46.67V48.942a1.5,1.5,0,0,0-.271-1,1.178,1.178,0,0,0-.923-.308,1.371,1.371,0,0,0-1.3.749V54H42.056V46.075ZM59.634,54a2.351,2.351,0,0,1-.212-.71,2.561,2.561,0,0,1-2,.857,2.814,2.814,0,0,1-1.93-.674,2.167,2.167,0,0,1-.765-1.7,2.24,2.24,0,0,1,.934-1.934,4.608,4.608,0,0,1,2.7-.681h.974V48.7a1.306,1.306,0,0,0-.282-.879,1.109,1.109,0,0,0-.89-.33,1.261,1.261,0,0,0-.839.256.871.871,0,0,0-.3.7H54.9a2.126,2.126,0,0,1,.425-1.274,2.808,2.808,0,0,1,1.2-.919,4.378,4.378,0,0,1,1.743-.333,3.459,3.459,0,0,1,2.325.736,2.575,2.575,0,0,1,.861,2.069v3.435a3.789,3.789,0,0,0,.315,1.707V54Zm-1.75-1.472a1.823,1.823,0,0,0,.864-.209,1.371,1.371,0,0,0,.586-.56V50.4h-.791q-1.589,0-1.692,1.1l-.007.125a.847.847,0,0,0,.278.652A1.081,1.081,0,0,0,57.883,52.528Zm7.734-8.4v1.948h1.355v1.553H65.618v3.955a.944.944,0,0,0,.168.63.846.846,0,0,0,.645.19,3.376,3.376,0,0,0,.623-.051v1.6a4.358,4.358,0,0,1-1.282.19A2.021,2.021,0,0,1,63.5,51.9v-4.27H62.344V46.075H63.5V44.127ZM70.386,54H68.262V46.075h2.124Zm-2.249-9.976a1.042,1.042,0,0,1,.319-.784,1.373,1.373,0,0,1,1.732,0,1.118,1.118,0,0,1,0,1.575,1.358,1.358,0,0,1-1.721,0A1.039,1.039,0,0,1,68.137,44.024Zm6.958,7.39,1.472-5.339h2.212L76.106,54H74.084l-2.673-7.925h2.212ZM81.943,54H79.819V46.075h2.124Zm-2.249-9.976a1.042,1.042,0,0,1,.319-.784,1.373,1.373,0,0,1,1.732,0,1.118,1.118,0,0,1,0,1.575,1.358,1.358,0,0,1-1.721,0A1.039,1.039,0,0,1,79.695,44.024Zm3.662,5.955a4.776,4.776,0,0,1,.831-2.952,2.7,2.7,0,0,1,2.274-1.1,2.427,2.427,0,0,1,1.912.864V42.75H90.5V54H88.586l-.1-.842a2.491,2.491,0,0,1-2.036.989,2.69,2.69,0,0,1-2.245-1.1A4.93,4.93,0,0,1,83.357,49.979Zm2.117.151a3.146,3.146,0,0,0,.388,1.714,1.263,1.263,0,0,0,1.128.6,1.416,1.416,0,0,0,1.384-.831V48.467A1.4,1.4,0,0,0,87,47.635Q85.474,47.635,85.474,50.13ZM96.731,54a2.351,2.351,0,0,1-.212-.71,2.561,2.561,0,0,1-2,.857,2.814,2.814,0,0,1-1.93-.674,2.167,2.167,0,0,1-.765-1.7,2.24,2.24,0,0,1,.934-1.934,4.608,4.608,0,0,1,2.7-.681h.974V48.7a1.306,1.306,0,0,0-.282-.879,1.109,1.109,0,0,0-.89-.33,1.261,1.261,0,0,0-.839.256.871.871,0,0,0-.3.7H92a2.126,2.126,0,0,1,.425-1.274,2.808,2.808,0,0,1,1.2-.919,4.378,4.378,0,0,1,1.743-.333,3.459,3.459,0,0,1,2.325.736,2.575,2.575,0,0,1,.861,2.069v3.435a3.789,3.789,0,0,0,.315,1.707V54Zm-1.75-1.472a1.823,1.823,0,0,0,.864-.209,1.371,1.371,0,0,0,.586-.56V50.4H95.64q-1.589,0-1.692,1.1l-.007.125a.847.847,0,0,0,.278.652A1.081,1.081,0,0,0,94.98,52.528Zm4.871-2.549a4.776,4.776,0,0,1,.831-2.952,2.7,2.7,0,0,1,2.274-1.1,2.427,2.427,0,0,1,1.912.864V42.75h2.124V54h-1.912l-.1-.842a2.491,2.491,0,0,1-2.036.989,2.69,2.69,0,0,1-2.245-1.1A4.93,4.93,0,0,1,99.851,49.979Zm2.117.151a3.146,3.146,0,0,0,.388,1.714,1.263,1.263,0,0,0,1.128.6,1.416,1.416,0,0,0,1.384-.831V48.467a1.4,1.4,0,0,0-1.37-.831Q101.968,47.635,101.968,50.13ZM2.878,87.73H4.006a1.589,1.589,0,0,0,1.194-.4,1.476,1.476,0,0,0,.388-1.069,1.305,1.305,0,0,0-.385-1A1.49,1.49,0,0,0,4.146,84.9a1.562,1.562,0,0,0-1.018.333,1.066,1.066,0,0,0-.41.868H.6a2.6,2.6,0,0,1,.45-1.5,3,3,0,0,1,1.26-1.036,4.2,4.2,0,0,1,1.783-.374A3.987,3.987,0,0,1,6.746,84a2.761,2.761,0,0,1,.959,2.23,2.244,2.244,0,0,1-.447,1.348,2.9,2.9,0,0,1-1.172.945,2.65,2.65,0,0,1,1.344.967,2.623,2.623,0,0,1,.443,1.523A2.807,2.807,0,0,1,6.837,93.29a4.167,4.167,0,0,1-2.743.857A3.951,3.951,0,0,1,1.483,93.3,2.751,2.751,0,0,1,.469,91.078H2.585a1.226,1.226,0,0,0,.45.981,1.66,1.66,0,0,0,1.11.381,1.668,1.668,0,0,0,1.183-.4,1.378,1.378,0,0,0,.428-1.058q0-1.6-1.758-1.6H2.878Zm6.65,5.229a1.066,1.066,0,0,1,.341-.82,1.323,1.323,0,0,1,1.714,0,1.066,1.066,0,0,1,.341.82,1.051,1.051,0,0,1-.337.809,1.345,1.345,0,0,1-1.721,0A1.051,1.051,0,0,1,9.529,92.96ZM17.651,94V83.336h3.281a4.983,4.983,0,0,1,2.516.634,4.418,4.418,0,0,1,1.732,1.8,5.557,5.557,0,0,1,.623,2.655v.491a5.573,5.573,0,0,1-.612,2.644,4.38,4.38,0,0,1-1.725,1.794A5.021,5.021,0,0,1,20.955,94Zm2.2-8.884v7.119h1.062a2.386,2.386,0,0,0,1.97-.842,3.806,3.806,0,0,0,.7-2.41v-.564a3.867,3.867,0,0,0-.674-2.465,2.378,2.378,0,0,0-1.97-.839Zm11.06,9.031a3.89,3.89,0,0,1-2.838-1.069,3.8,3.8,0,0,1-1.095-2.849v-.205a4.787,4.787,0,0,1,.461-2.135,3.386,3.386,0,0,1,1.307-1.45,3.669,3.669,0,0,1,1.93-.509,3.289,3.289,0,0,1,2.56,1.025,4.167,4.167,0,0,1,.934,2.908v.864H29.121a1.966,1.966,0,0,0,.619,1.245,1.871,1.871,0,0,0,1.307.469,2.285,2.285,0,0,0,1.912-.886L34,92.718a3.178,3.178,0,0,1-1.289,1.051A4.229,4.229,0,0,1,30.908,94.146Zm-.242-6.511a1.323,1.323,0,0,0-1.022.427,2.209,2.209,0,0,0-.5,1.221h2.944v-.169a1.576,1.576,0,0,0-.381-1.092A1.365,1.365,0,0,0,30.667,87.635ZM35.881,94V87.628H34.7V86.075h1.179v-.366a2.972,2.972,0,0,1,.919-2.3,3.7,3.7,0,0,1,2.552-.809,8.466,8.466,0,0,1,2.4.432l-.308,1.75a9.373,9.373,0,0,0-1.113-.275,5.47,5.47,0,0,0-.85-.062q-1.479,0-1.479,1.311v.322h1.56v1.553h-1.56V94Zm6.863,0H40.62V86.075h2.124Zm3.7-7.925.066.916a2.767,2.767,0,0,1,2.278-1.062,2.3,2.3,0,0,1,1.875.74,3.451,3.451,0,0,1,.63,2.212V94H49.175V88.92a1.379,1.379,0,0,0-.293-.98,1.31,1.31,0,0,0-.974-.3,1.456,1.456,0,0,0-1.34.763V94H44.451V86.075ZM55.129,94H53.005V86.075h2.124Zm-2.249-9.976a1.042,1.042,0,0,1,.319-.784,1.373,1.373,0,0,1,1.732,0,1.118,1.118,0,0,1,0,1.575,1.358,1.358,0,0,1-1.721,0A1.039,1.039,0,0,1,52.881,84.024Zm7.288,8.416a1.388,1.388,0,0,0,.952-.322,1.129,1.129,0,0,0,.381-.857h1.985a2.715,2.715,0,0,1-.439,1.476,2.9,2.9,0,0,1-1.183,1.04,3.7,3.7,0,0,1-1.659.37,3.44,3.44,0,0,1-2.681-1.08,4.275,4.275,0,0,1-.981-2.985v-.139a4.226,4.226,0,0,1,.974-2.922,3.4,3.4,0,0,1,2.673-1.091,3.333,3.333,0,0,1,2.384.846,3,3,0,0,1,.912,2.252H61.5a1.455,1.455,0,0,0-.381-1.005,1.416,1.416,0,0,0-2.084.153,3.125,3.125,0,0,0-.377,1.749v.22a3.164,3.164,0,0,0,.374,1.761A1.291,1.291,0,0,0,60.168,92.44ZM66.929,94H64.8V86.075h2.124ZM64.68,84.024A1.042,1.042,0,0,1,65,83.241a1.373,1.373,0,0,1,1.732,0,1.118,1.118,0,0,1,0,1.575,1.358,1.358,0,0,1-1.721,0A1.039,1.039,0,0,1,64.68,84.024Zm3.662,5.94a4.7,4.7,0,0,1,.454-2.1A3.324,3.324,0,0,1,70.1,86.434a3.814,3.814,0,0,1,1.981-.505,3.609,3.609,0,0,1,2.618.981,3.939,3.939,0,0,1,1.132,2.666l.015.542a4.142,4.142,0,0,1-1.018,2.926,3.946,3.946,0,0,1-5.468,0,4.215,4.215,0,0,1-1.022-2.988Zm2.117.15a2.962,2.962,0,0,0,.425,1.727,1.526,1.526,0,0,0,2.417.007,3.241,3.241,0,0,0,.432-1.889,2.933,2.933,0,0,0-.432-1.716,1.4,1.4,0,0,0-1.216-.609,1.382,1.382,0,0,0-1.2.605A3.3,3.3,0,0,0,70.459,90.115ZM79.1,86.075l.066.916a2.767,2.767,0,0,1,2.278-1.062,2.3,2.3,0,0,1,1.875.74,3.451,3.451,0,0,1,.63,2.212V94H81.833V88.92a1.379,1.379,0,0,0-.293-.98,1.31,1.31,0,0,0-.974-.3,1.456,1.456,0,0,0-1.34.763V94H77.109V86.075Zm10.1,8.071a3.89,3.89,0,0,1-2.838-1.069,3.8,3.8,0,0,1-1.095-2.849v-.205a4.787,4.787,0,0,1,.461-2.135,3.386,3.386,0,0,1,1.307-1.45,3.669,3.669,0,0,1,1.93-.509,3.289,3.289,0,0,1,2.56,1.025,4.167,4.167,0,0,1,.934,2.908v.864H87.415a1.966,1.966,0,0,0,.619,1.245,1.871,1.871,0,0,0,1.307.469,2.285,2.285,0,0,0,1.912-.886l1.04,1.165A3.178,3.178,0,0,1,91,93.769,4.229,4.229,0,0,1,89.2,94.146Zm-.242-6.511a1.323,1.323,0,0,0-1.022.427,2.209,2.209,0,0,0-.5,1.221h2.944v-.169A1.576,1.576,0,0,0,90,88.021,1.365,1.365,0,0,0,88.96,87.635Zm8.994,4.175a.682.682,0,0,0-.385-.612,4.368,4.368,0,0,0-1.234-.4q-2.827-.593-2.827-2.4a2.178,2.178,0,0,1,.875-1.761,3.531,3.531,0,0,1,2.289-.707,3.8,3.8,0,0,1,2.413.71,2.239,2.239,0,0,1,.9,1.846H97.874a1.024,1.024,0,0,0-.293-.751,1.24,1.24,0,0,0-.916-.3,1.267,1.267,0,0,0-.828.242.763.763,0,0,0-.293.615.652.652,0,0,0,.333.568A3.428,3.428,0,0,0,97,89.236a9.183,9.183,0,0,1,1.333.355,2.19,2.19,0,0,1,1.677,2.131,2.067,2.067,0,0,1-.93,1.754,4.013,4.013,0,0,1-2.4.67,4.191,4.191,0,0,1-1.769-.355,2.968,2.968,0,0,1-1.212-.974,2.263,2.263,0,0,1-.439-1.337h2.007a1.105,1.105,0,0,0,.417.864,1.656,1.656,0,0,0,1.04.3,1.533,1.533,0,0,0,.919-.231A.718.718,0,0,0,97.954,91.81ZM108.069,91l1.465-4.929H111.8l-3.186,9.155-.176.417A2.416,2.416,0,0,1,106.1,97.2a3.33,3.33,0,0,1-.937-.139v-1.6l.322.007a1.741,1.741,0,0,0,.9-.183,1.2,1.2,0,0,0,.465-.608l.249-.652-2.776-7.947H106.6Zm10.84-6.877v1.948h1.355v1.553h-1.355v3.955a.944.944,0,0,0,.168.63.846.846,0,0,0,.645.19,3.376,3.376,0,0,0,.623-.051v1.6a4.358,4.358,0,0,1-1.282.19,2.021,2.021,0,0,1-2.271-2.249v-4.27h-1.157V86.075h1.157V84.127Zm6.182,10.02a3.89,3.89,0,0,1-2.838-1.069,3.8,3.8,0,0,1-1.095-2.849v-.205a4.787,4.787,0,0,1,.461-2.135,3.386,3.386,0,0,1,1.307-1.45,3.669,3.669,0,0,1,1.93-.509,3.289,3.289,0,0,1,2.56,1.025,4.167,4.167,0,0,1,.934,2.908v.864H123.3a1.966,1.966,0,0,0,.619,1.245,1.871,1.871,0,0,0,1.307.469,2.285,2.285,0,0,0,1.912-.886l1.04,1.165a3.178,3.178,0,0,1-1.289,1.051A4.229,4.229,0,0,1,125.09,94.146Zm-.242-6.511a1.323,1.323,0,0,0-1.022.427,2.209,2.209,0,0,0-.5,1.221h2.944v-.169a1.576,1.576,0,0,0-.381-1.092A1.365,1.365,0,0,0,124.849,87.635Zm.19-4.885h2.307l-2.029,2.271H123.6ZM134,88.06a5.75,5.75,0,0,0-.762-.059,1.55,1.55,0,0,0-1.575.813V94h-2.117V86.075h2l.059.945a1.961,1.961,0,0,1,1.765-1.091,2.218,2.218,0,0,1,.659.1Zm3-1.985.066.886a2.785,2.785,0,0,1,2.278-1.033,2.114,2.114,0,0,1,2.1,1.208,2.721,2.721,0,0,1,2.38-1.208,2.364,2.364,0,0,1,1.919.751,3.451,3.451,0,0,1,.63,2.26V94h-2.124V88.935a1.515,1.515,0,0,0-.264-.987,1.167,1.167,0,0,0-.93-.312,1.321,1.321,0,0,0-1.318.91L141.753,94h-2.117V88.942a1.5,1.5,0,0,0-.271-1,1.178,1.178,0,0,0-.923-.308,1.371,1.371,0,0,0-1.3.749V94h-2.117V86.075ZM150.242,94h-2.124V86.075h2.124Zm-2.249-9.976a1.042,1.042,0,0,1,.319-.784,1.373,1.373,0,0,1,1.732,0,1.118,1.118,0,0,1,0,1.575,1.358,1.358,0,0,1-1.721,0A1.039,1.039,0,0,1,147.993,84.024Zm5.94,2.051.066.916a2.767,2.767,0,0,1,2.278-1.062,2.3,2.3,0,0,1,1.875.74,3.451,3.451,0,0,1,.63,2.212V94h-2.117V88.92a1.379,1.379,0,0,0-.293-.98,1.31,1.31,0,0,0-.974-.3,1.456,1.456,0,0,0-1.34.763V94h-2.117V86.075Zm6.123,3.889a4.7,4.7,0,0,1,.454-2.1,3.324,3.324,0,0,1,1.307-1.428,3.814,3.814,0,0,1,1.981-.505,3.609,3.609,0,0,1,2.618.981,3.939,3.939,0,0,1,1.132,2.666l.015.542a4.142,4.142,0,0,1-1.018,2.926,3.946,3.946,0,0,1-5.468,0,4.215,4.215,0,0,1-1.022-2.988Zm2.117.15a2.962,2.962,0,0,0,.425,1.727,1.526,1.526,0,0,0,2.417.007,3.241,3.241,0,0,0,.432-1.889,2.933,2.933,0,0,0-.432-1.716,1.4,1.4,0,0,0-1.216-.609,1.382,1.382,0,0,0-1.2.605A3.3,3.3,0,0,0,162.173,90.115Zm10.986,1.7a.682.682,0,0,0-.385-.612,4.368,4.368,0,0,0-1.234-.4q-2.827-.593-2.827-2.4a2.178,2.178,0,0,1,.875-1.761,3.531,3.531,0,0,1,2.289-.707,3.8,3.8,0,0,1,2.413.71,2.239,2.239,0,0,1,.9,1.846h-2.117a1.024,1.024,0,0,0-.293-.751,1.24,1.24,0,0,0-.916-.3,1.267,1.267,0,0,0-.828.242.763.763,0,0,0-.293.615.652.652,0,0,0,.333.568,3.428,3.428,0,0,0,1.124.374,9.183,9.183,0,0,1,1.333.355,2.19,2.19,0,0,1,1.677,2.131,2.067,2.067,0,0,1-.93,1.754,4.013,4.013,0,0,1-2.4.67,4.191,4.191,0,0,1-1.769-.355,2.968,2.968,0,0,1-1.212-.974,2.263,2.263,0,0,1-.439-1.337h2.007a1.105,1.105,0,0,0,.417.864,1.656,1.656,0,0,0,1.04.3,1.533,1.533,0,0,0,.919-.231A.718.718,0,0,0,173.159,91.81ZM6.987,129.986H8.2v1.707H6.987V134H4.871v-2.307H.5L.4,130.36l4.446-7.024H6.987Zm-4.475,0H4.871v-3.765l-.139.242Zm7.017,2.974a1.066,1.066,0,0,1,.341-.82,1.323,1.323,0,0,1,1.714,0,1.066,1.066,0,0,1,.341.82,1.051,1.051,0,0,1-.337.809,1.345,1.345,0,0,1-1.721,0A1.051,1.051,0,0,1,9.529,132.96Zm10.994-9.624,2.739,7.734,2.725-7.734h2.886V134h-2.2v-2.915l.22-5.032L24.009,134H22.5l-2.871-7.939.22,5.024V134h-2.2V123.336ZM35.244,134a2.351,2.351,0,0,1-.212-.71,2.561,2.561,0,0,1-2,.857,2.814,2.814,0,0,1-1.93-.674,2.167,2.167,0,0,1-.765-1.7,2.24,2.24,0,0,1,.934-1.934,4.608,4.608,0,0,1,2.7-.681h.974V128.7a1.306,1.306,0,0,0-.282-.879,1.109,1.109,0,0,0-.89-.33,1.261,1.261,0,0,0-.839.256.871.871,0,0,0-.3.7H30.513a2.126,2.126,0,0,1,.425-1.274,2.808,2.808,0,0,1,1.2-.919,4.378,4.378,0,0,1,1.743-.333,3.459,3.459,0,0,1,2.325.736,2.575,2.575,0,0,1,.861,2.069v3.435a3.789,3.789,0,0,0,.315,1.707V134Zm-1.75-1.472a1.823,1.823,0,0,0,.864-.209,1.371,1.371,0,0,0,.586-.56V130.4h-.791q-1.589,0-1.692,1.1l-.007.125a.847.847,0,0,0,.278.652A1.081,1.081,0,0,0,33.494,132.528Zm9.653-4.468a5.75,5.75,0,0,0-.762-.059,1.55,1.55,0,0,0-1.575.813V134H38.694v-7.925h2l.059.945a1.961,1.961,0,0,1,1.765-1.091,2.218,2.218,0,0,1,.659.1Zm4.175,4.38a1.388,1.388,0,0,0,.952-.322,1.129,1.129,0,0,0,.381-.857H50.64a2.715,2.715,0,0,1-.439,1.476,2.9,2.9,0,0,1-1.183,1.04,3.7,3.7,0,0,1-1.659.37,3.44,3.44,0,0,1-2.681-1.08,4.275,4.275,0,0,1-.981-2.985v-.139a4.226,4.226,0,0,1,.974-2.922,3.4,3.4,0,0,1,2.673-1.091,3.333,3.333,0,0,1,2.384.846,3,3,0,0,1,.912,2.252H48.655a1.455,1.455,0,0,0-.381-1.005,1.416,1.416,0,0,0-2.084.153,3.125,3.125,0,0,0-.377,1.749v.22a3.164,3.164,0,0,0,.374,1.761A1.291,1.291,0,0,0,47.322,132.44Zm4.2-2.476a4.7,4.7,0,0,1,.454-2.1,3.324,3.324,0,0,1,1.307-1.428,3.814,3.814,0,0,1,1.981-.505,3.609,3.609,0,0,1,2.618.981,3.939,3.939,0,0,1,1.132,2.666l.015.542a4.142,4.142,0,0,1-1.018,2.926,3.946,3.946,0,0,1-5.468,0,4.215,4.215,0,0,1-1.022-2.988Zm2.117.15a2.962,2.962,0,0,0,.425,1.727,1.526,1.526,0,0,0,2.417.007,3.241,3.241,0,0,0,.432-1.889,2.933,2.933,0,0,0-.432-1.716,1.4,1.4,0,0,0-1.216-.609,1.382,1.382,0,0,0-1.2.605A3.3,3.3,0,0,0,53.635,130.115Zm10.1-.136a4.776,4.776,0,0,1,.831-2.952,2.7,2.7,0,0,1,2.274-1.1,2.427,2.427,0,0,1,1.912.864V122.75h2.124V134H68.965l-.1-.842a2.491,2.491,0,0,1-2.036.989,2.69,2.69,0,0,1-2.245-1.1A4.93,4.93,0,0,1,63.735,129.979Zm2.117.151a3.146,3.146,0,0,0,.388,1.714,1.263,1.263,0,0,0,1.128.6,1.416,1.416,0,0,0,1.384-.831v-3.142a1.4,1.4,0,0,0-1.37-.831Q65.852,127.635,65.852,130.13Zm10.313,4.017a3.89,3.89,0,0,1-2.838-1.069,3.8,3.8,0,0,1-1.095-2.849v-.205a4.787,4.787,0,0,1,.461-2.135A3.386,3.386,0,0,1,74,126.438a3.669,3.669,0,0,1,1.93-.509,3.289,3.289,0,0,1,2.56,1.025,4.167,4.167,0,0,1,.934,2.908v.864H74.377A1.966,1.966,0,0,0,75,131.971a1.871,1.871,0,0,0,1.307.469,2.285,2.285,0,0,0,1.912-.886l1.04,1.165a3.178,3.178,0,0,1-1.289,1.051A4.229,4.229,0,0,1,76.165,134.146Zm-.242-6.511a1.323,1.323,0,0,0-1.022.427,2.21,2.21,0,0,0-.5,1.221h2.944v-.169a1.576,1.576,0,0,0-.381-1.092A1.365,1.365,0,0,0,75.923,127.635ZM86.594,134H84.47V122.75h2.124Zm6.335,0a2.351,2.351,0,0,1-.212-.71,2.561,2.561,0,0,1-2,.857,2.814,2.814,0,0,1-1.93-.674,2.167,2.167,0,0,1-.765-1.7,2.24,2.24,0,0,1,.934-1.934,4.608,4.608,0,0,1,2.7-.681h.974V128.7a1.306,1.306,0,0,0-.282-.879,1.109,1.109,0,0,0-.89-.33,1.261,1.261,0,0,0-.839.256.871.871,0,0,0-.3.7H88.2a2.126,2.126,0,0,1,.425-1.274,2.808,2.808,0,0,1,1.2-.919,4.378,4.378,0,0,1,1.743-.333,3.459,3.459,0,0,1,2.325.736,2.575,2.575,0,0,1,.861,2.069v3.435a3.789,3.789,0,0,0,.315,1.707V134Zm-1.75-1.472a1.823,1.823,0,0,0,.864-.209,1.371,1.371,0,0,0,.586-.56V130.4h-.791q-1.589,0-1.692,1.1l-.007.125a.847.847,0,0,0,.278.652A1.081,1.081,0,0,0,91.179,132.528Zm8.606-2.563a4.7,4.7,0,0,1,.454-2.1,3.324,3.324,0,0,1,1.307-1.428,3.814,3.814,0,0,1,1.981-.505,3.609,3.609,0,0,1,2.618.981,3.939,3.939,0,0,1,1.132,2.666l.015.542a4.142,4.142,0,0,1-1.018,2.926,3.946,3.946,0,0,1-5.468,0,4.215,4.215,0,0,1-1.022-2.988Zm2.117.15a2.962,2.962,0,0,0,.425,1.727,1.526,1.526,0,0,0,2.417.007,3.241,3.241,0,0,0,.432-1.889,2.933,2.933,0,0,0-.432-1.716,1.4,1.4,0,0,0-1.216-.609,1.382,1.382,0,0,0-1.2.605A3.3,3.3,0,0,0,101.9,130.115Zm11.147-2.055a5.75,5.75,0,0,0-.762-.059,1.55,1.55,0,0,0-1.575.813V134H108.6v-7.925h2l.059.945a1.961,1.961,0,0,1,1.765-1.091,2.218,2.218,0,0,1,.659.1Zm.571,1.919a4.644,4.644,0,0,1,.868-2.937,2.812,2.812,0,0,1,2.34-1.113,2.466,2.466,0,0,1,2.029.894l.088-.747h1.919v7.661a3.387,3.387,0,0,1-.472,1.809,3.034,3.034,0,0,1-1.329,1.172,4.673,4.673,0,0,1-2.007.4,4.346,4.346,0,0,1-1.7-.348,3.016,3.016,0,0,1-1.252-.9l.938-1.289a2.48,2.48,0,0,0,1.919.886,1.815,1.815,0,0,0,1.311-.45,1.69,1.69,0,0,0,.469-1.278v-.425a2.448,2.448,0,0,1-1.926.828,2.8,2.8,0,0,1-2.311-1.117,4.643,4.643,0,0,1-.883-2.963Zm2.117.151a2.907,2.907,0,0,0,.432,1.7,1.373,1.373,0,0,0,1.187.614,1.469,1.469,0,0,0,1.384-.728v-3.348a1.465,1.465,0,0,0-1.37-.728,1.382,1.382,0,0,0-1.2.625A3.277,3.277,0,0,0,115.737,130.13ZM127.083,134a2.351,2.351,0,0,1-.212-.71,2.561,2.561,0,0,1-2,.857,2.814,2.814,0,0,1-1.93-.674,2.167,2.167,0,0,1-.765-1.7,2.24,2.24,0,0,1,.934-1.934,4.608,4.608,0,0,1,2.7-.681h.974V128.7a1.306,1.306,0,0,0-.282-.879,1.109,1.109,0,0,0-.89-.33,1.261,1.261,0,0,0-.839.256.871.871,0,0,0-.3.7h-2.117a2.126,2.126,0,0,1,.425-1.274,2.808,2.808,0,0,1,1.2-.919,4.378,4.378,0,0,1,1.743-.333,3.459,3.459,0,0,1,2.325.736,2.575,2.575,0,0,1,.861,2.069v3.435a3.789,3.789,0,0,0,.315,1.707V134Zm-1.75-1.472a1.823,1.823,0,0,0,.864-.209,1.371,1.371,0,0,0,.586-.56V130.4h-.791q-1.589,0-1.692,1.1l-.007.125a.847.847,0,0,0,.278.652A1.081,1.081,0,0,0,125.332,132.528Zm7.148-6.453.066.916a2.767,2.767,0,0,1,2.278-1.062,2.3,2.3,0,0,1,1.875.74,3.451,3.451,0,0,1,.63,2.212V134h-2.117v-5.08a1.379,1.379,0,0,0-.293-.98,1.31,1.31,0,0,0-.974-.3,1.456,1.456,0,0,0-1.34.763V134h-2.117v-7.925ZM141.167,134h-2.124v-7.925h2.124Zm-2.249-9.976a1.042,1.042,0,0,1,.319-.784,1.373,1.373,0,0,1,1.732,0,1.118,1.118,0,0,1,0,1.575,1.358,1.358,0,0,1-1.721,0A1.039,1.039,0,0,1,138.918,124.024Zm6.423,8.269h3.875V134h-6.577v-1.289l3.728-4.929h-3.618v-1.707h6.35v1.247ZM155.134,134a2.351,2.351,0,0,1-.212-.71,2.561,2.561,0,0,1-2,.857,2.814,2.814,0,0,1-1.93-.674,2.167,2.167,0,0,1-.765-1.7,2.24,2.24,0,0,1,.934-1.934,4.608,4.608,0,0,1,2.7-.681h.974V128.7a1.306,1.306,0,0,0-.282-.879,1.109,1.109,0,0,0-.89-.33,1.261,1.261,0,0,0-.839.256.871.871,0,0,0-.3.7H150.4a2.126,2.126,0,0,1,.425-1.274,2.808,2.808,0,0,1,1.2-.919,4.378,4.378,0,0,1,1.743-.333,3.459,3.459,0,0,1,2.325.736,2.575,2.575,0,0,1,.861,2.069v3.435a3.789,3.789,0,0,0,.315,1.707V134Zm-1.75-1.472a1.823,1.823,0,0,0,.864-.209,1.371,1.371,0,0,0,.586-.56V130.4h-.791q-1.589,0-1.692,1.1l-.007.125a.847.847,0,0,0,.278.652A1.081,1.081,0,0,0,153.384,132.528Zm8.5-.088a1.388,1.388,0,0,0,.952-.322,1.129,1.129,0,0,0,.381-.857H165.2a2.715,2.715,0,0,1-.439,1.476,2.9,2.9,0,0,1-1.183,1.04,3.7,3.7,0,0,1-1.659.37,3.44,3.44,0,0,1-2.681-1.08,4.275,4.275,0,0,1-.981-2.985v-.139a4.226,4.226,0,0,1,.974-2.922,3.4,3.4,0,0,1,2.673-1.091,3.333,3.333,0,0,1,2.384.846,3,3,0,0,1,.912,2.252h-1.985a1.455,1.455,0,0,0-.381-1.005,1.416,1.416,0,0,0-2.084.153,3.125,3.125,0,0,0-.377,1.749v.22a3.164,3.164,0,0,0,.374,1.761A1.291,1.291,0,0,0,161.88,132.44Zm6.76,1.56h-2.124v-7.925h2.124Zm-2.249-9.976a1.042,1.042,0,0,1,.319-.784,1.373,1.373,0,0,1,1.732,0,1.118,1.118,0,0,1,0,1.575,1.358,1.358,0,0,1-1.721,0A1.039,1.039,0,0,1,166.392,124.024Zm3.662,5.94a4.7,4.7,0,0,1,.454-2.1,3.324,3.324,0,0,1,1.307-1.428,3.814,3.814,0,0,1,1.981-.505,3.609,3.609,0,0,1,2.618.981,3.939,3.939,0,0,1,1.132,2.666l.015.542a4.142,4.142,0,0,1-1.018,2.926,3.946,3.946,0,0,1-5.468,0,4.215,4.215,0,0,1-1.022-2.988Zm2.117.15a2.962,2.962,0,0,0,.425,1.727,1.526,1.526,0,0,0,2.417.007,3.241,3.241,0,0,0,.432-1.889,2.933,2.933,0,0,0-.432-1.716,1.4,1.4,0,0,0-1.216-.609,1.382,1.382,0,0,0-1.2.605A3.3,3.3,0,0,0,172.17,130.115Zm2.043-7.365h2.307l-2.029,2.271h-1.721Zm6.6,3.325.066.916a2.767,2.767,0,0,1,2.278-1.062,2.3,2.3,0,0,1,1.875.74,3.451,3.451,0,0,1,.63,2.212V134h-2.117v-5.08a1.379,1.379,0,0,0-.293-.98,1.31,1.31,0,0,0-.974-.3,1.456,1.456,0,0,0-1.34.763V134h-2.117v-7.925ZM1.04,168.756l.615-5.42H7.632V165.1H3.391l-.264,2.292a3.356,3.356,0,0,1,1.6-.4,3.074,3.074,0,0,1,2.388.945,3.774,3.774,0,0,1,.864,2.644,3.866,3.866,0,0,1-.436,1.849A3.076,3.076,0,0,1,6.3,173.7a3.9,3.9,0,0,1-1.919.45,4.14,4.14,0,0,1-1.794-.392,3.183,3.183,0,0,1-1.307-1.1,3,3,0,0,1-.509-1.619H2.864a1.565,1.565,0,0,0,.465,1.036,1.474,1.474,0,0,0,1.044.37,1.3,1.3,0,0,0,1.106-.516,2.392,2.392,0,0,0,.388-1.461,1.978,1.978,0,0,0-.447-1.392,1.64,1.64,0,0,0-1.267-.483,1.832,1.832,0,0,0-1.223.4l-.205.19Zm8.489,4.2a1.066,1.066,0,0,1,.341-.82,1.323,1.323,0,0,1,1.714,0,1.066,1.066,0,0,1,.341.82,1.051,1.051,0,0,1-.337.809,1.345,1.345,0,0,1-1.721,0A1.051,1.051,0,0,1,9.529,172.96Zm10.32-.725h4.666V174H17.651V163.336h2.2ZM27.869,174H25.745v-7.925h2.124Zm-2.249-9.976a1.042,1.042,0,0,1,.319-.784,1.373,1.373,0,0,1,1.732,0,1.118,1.118,0,0,1,0,1.575,1.358,1.358,0,0,1-1.721,0A1.039,1.039,0,0,1,25.62,164.024Zm3.662,5.955a4.776,4.776,0,0,1,.831-2.952,2.7,2.7,0,0,1,2.274-1.1,2.427,2.427,0,0,1,1.912.864V162.75h2.124V174H34.512l-.1-.842a2.491,2.491,0,0,1-2.036.989,2.69,2.69,0,0,1-2.245-1.1A4.93,4.93,0,0,1,29.282,169.979Zm2.117.151a3.146,3.146,0,0,0,.388,1.714,1.263,1.263,0,0,0,1.128.6,1.416,1.416,0,0,0,1.384-.831v-3.142a1.4,1.4,0,0,0-1.37-.831Q31.4,167.635,31.4,170.13Zm10.313,4.017a3.89,3.89,0,0,1-2.838-1.069,3.8,3.8,0,0,1-1.095-2.849v-.205a4.787,4.787,0,0,1,.461-2.135,3.386,3.386,0,0,1,1.307-1.45,3.669,3.669,0,0,1,1.93-.509,3.289,3.289,0,0,1,2.56,1.025,4.167,4.167,0,0,1,.934,2.908v.864H39.924a1.966,1.966,0,0,0,.619,1.245,1.871,1.871,0,0,0,1.307.469,2.285,2.285,0,0,0,1.912-.886l1.04,1.165a3.178,3.178,0,0,1-1.289,1.051A4.229,4.229,0,0,1,41.711,174.146Zm-.242-6.511a1.323,1.323,0,0,0-1.022.427,2.21,2.21,0,0,0-.5,1.221h2.944v-.169a1.576,1.576,0,0,0-.381-1.092A1.365,1.365,0,0,0,41.47,167.635Zm9.155.425a5.75,5.75,0,0,0-.762-.059,1.55,1.55,0,0,0-1.575.813V174H46.172v-7.925h2l.059.945A1.961,1.961,0,0,1,50,165.929a2.218,2.218,0,0,1,.659.1ZM56.016,174a2.351,2.351,0,0,1-.212-.71,2.561,2.561,0,0,1-2,.857,2.814,2.814,0,0,1-1.93-.674,2.167,2.167,0,0,1-.765-1.7,2.24,2.24,0,0,1,.934-1.934,4.608,4.608,0,0,1,2.7-.681h.974V168.7a1.306,1.306,0,0,0-.282-.879,1.109,1.109,0,0,0-.89-.33,1.261,1.261,0,0,0-.839.256.871.871,0,0,0-.3.7H51.284a2.126,2.126,0,0,1,.425-1.274,2.808,2.808,0,0,1,1.2-.919,4.378,4.378,0,0,1,1.743-.333,3.459,3.459,0,0,1,2.325.736,2.575,2.575,0,0,1,.861,2.069v3.435a3.789,3.789,0,0,0,.315,1.707V174Zm-1.75-1.472a1.823,1.823,0,0,0,.864-.209,1.371,1.371,0,0,0,.586-.56V170.4h-.791q-1.589,0-1.692,1.1l-.007.125a.847.847,0,0,0,.278.652A1.081,1.081,0,0,0,54.265,172.528Zm7.632-.234h3.875V174H59.194v-1.289l3.728-4.929H59.3v-1.707h6.35v1.247Zm4.775-2.314a4.644,4.644,0,0,1,.868-2.937,2.812,2.812,0,0,1,2.34-1.113,2.466,2.466,0,0,1,2.029.894l.088-.747h1.919v7.661a3.387,3.387,0,0,1-.472,1.809,3.034,3.034,0,0,1-1.329,1.172,4.673,4.673,0,0,1-2.007.4,4.346,4.346,0,0,1-1.7-.348,3.016,3.016,0,0,1-1.252-.9l.938-1.289a2.48,2.48,0,0,0,1.919.886,1.815,1.815,0,0,0,1.311-.45,1.69,1.69,0,0,0,.469-1.278v-.425a2.448,2.448,0,0,1-1.926.828,2.8,2.8,0,0,1-2.311-1.117,4.643,4.643,0,0,1-.883-2.963Zm2.117.151a2.907,2.907,0,0,0,.432,1.7,1.373,1.373,0,0,0,1.187.614,1.469,1.469,0,0,0,1.384-.728v-3.348a1.465,1.465,0,0,0-1.37-.728,1.382,1.382,0,0,0-1.2.625A3.277,3.277,0,0,0,68.789,170.13Zm6.423-.165a4.7,4.7,0,0,1,.454-2.1,3.324,3.324,0,0,1,1.307-1.428,3.814,3.814,0,0,1,1.981-.505,3.609,3.609,0,0,1,2.618.981,3.939,3.939,0,0,1,1.132,2.666l.015.542a4.142,4.142,0,0,1-1.018,2.926,3.946,3.946,0,0,1-5.468,0,4.215,4.215,0,0,1-1.022-2.988Zm2.117.15a2.962,2.962,0,0,0,.425,1.727,1.526,1.526,0,0,0,2.417.007,3.241,3.241,0,0,0,.432-1.889,2.933,2.933,0,0,0-.432-1.716,1.4,1.4,0,0,0-1.216-.609,1.382,1.382,0,0,0-1.2.605A3.3,3.3,0,0,0,77.329,170.115ZM6.467,203.226v1.743H6.262a3.6,3.6,0,0,0-2.311.747A3.035,3.035,0,0,0,2.9,207.73a2.883,2.883,0,0,1,2.146-.864,2.716,2.716,0,0,1,2.212,1,3.993,3.993,0,0,1,.82,2.622,3.928,3.928,0,0,1-.45,1.882,3.23,3.23,0,0,1-1.274,1.311,3.7,3.7,0,0,1-1.864.469,3.458,3.458,0,0,1-2.721-1.172,4.549,4.549,0,0,1-1.036-3.127v-.762a6.846,6.846,0,0,1,.656-3.065,4.807,4.807,0,0,1,1.882-2.058,5.516,5.516,0,0,1,2.845-.736ZM4.4,208.573a1.691,1.691,0,0,0-.93.267,1.608,1.608,0,0,0-.615.705v.643a2.85,2.85,0,0,0,.417,1.656,1.349,1.349,0,0,0,1.172.6,1.334,1.334,0,0,0,1.1-.537,2.522,2.522,0,0,0,0-2.8A1.385,1.385,0,0,0,4.4,208.573Zm5.127,4.387a1.066,1.066,0,0,1,.341-.82,1.323,1.323,0,0,1,1.714,0,1.066,1.066,0,0,1,.341.82,1.051,1.051,0,0,1-.337.809,1.345,1.345,0,0,1-1.721,0A1.051,1.051,0,0,1,9.529,212.96Zm10.32-.725h4.666V214H17.651V203.336h2.2ZM30.227,214a2.351,2.351,0,0,1-.212-.71,2.561,2.561,0,0,1-2,.857,2.814,2.814,0,0,1-1.93-.674,2.167,2.167,0,0,1-.765-1.7,2.24,2.24,0,0,1,.934-1.934,4.608,4.608,0,0,1,2.7-.681h.974V208.7a1.306,1.306,0,0,0-.282-.879,1.109,1.109,0,0,0-.89-.33,1.261,1.261,0,0,0-.839.256.871.871,0,0,0-.3.7H25.5a2.126,2.126,0,0,1,.425-1.274,2.808,2.808,0,0,1,1.2-.919,4.378,4.378,0,0,1,1.743-.333,3.459,3.459,0,0,1,2.325.736,2.575,2.575,0,0,1,.861,2.069v3.435a3.789,3.789,0,0,0,.315,1.707V214Zm-1.75-1.472a1.823,1.823,0,0,0,.864-.209,1.371,1.371,0,0,0,.586-.56V210.4h-.791q-1.589,0-1.692,1.1l-.007.125a.847.847,0,0,0,.278.652A1.081,1.081,0,0,0,28.477,212.528Zm16.069-2.417a4.753,4.753,0,0,1-.831,2.933,2.665,2.665,0,0,1-2.245,1.1,2.469,2.469,0,0,1-1.941-.835v3.735H37.412V206.075h1.963l.073.776a2.488,2.488,0,0,1,2.007-.923,2.683,2.683,0,0,1,2.278,1.084A4.882,4.882,0,0,1,44.546,210Zm-2.117-.161a3.136,3.136,0,0,0-.392-1.712,1.275,1.275,0,0,0-1.139-.6,1.385,1.385,0,0,0-1.37.764v3.255a1.409,1.409,0,0,0,1.384.786Q42.429,212.44,42.429,209.949ZM48.091,214H45.967V202.75h2.124Zm6.335,0a2.351,2.351,0,0,1-.212-.71,2.561,2.561,0,0,1-2,.857,2.814,2.814,0,0,1-1.93-.674,2.167,2.167,0,0,1-.765-1.7,2.24,2.24,0,0,1,.934-1.934,4.608,4.608,0,0,1,2.7-.681h.974V208.7a1.306,1.306,0,0,0-.282-.879,1.109,1.109,0,0,0-.89-.33,1.261,1.261,0,0,0-.839.256.871.871,0,0,0-.3.7H49.695a2.126,2.126,0,0,1,.425-1.274,2.808,2.808,0,0,1,1.2-.919,4.378,4.378,0,0,1,1.743-.333,3.459,3.459,0,0,1,2.325.736,2.575,2.575,0,0,1,.861,2.069v3.435a3.789,3.789,0,0,0,.315,1.707V214Zm-1.75-1.472a1.823,1.823,0,0,0,.864-.209,1.371,1.371,0,0,0,.586-.56V210.4h-.791q-1.589,0-1.692,1.1l-.007.125a.847.847,0,0,0,.278.652A1.081,1.081,0,0,0,52.676,212.528Zm7.148-6.453.066.916a2.767,2.767,0,0,1,2.278-1.062,2.3,2.3,0,0,1,1.875.74,3.451,3.451,0,0,1,.63,2.212V214H62.556v-5.08a1.379,1.379,0,0,0-.293-.98,1.31,1.31,0,0,0-.974-.3,1.456,1.456,0,0,0-1.34.763V214H57.832v-7.925ZM68.511,214H66.387v-7.925h2.124Zm-2.249-9.976a1.042,1.042,0,0,1,.319-.784,1.373,1.373,0,0,1,1.732,0,1.118,1.118,0,0,1,0,1.575,1.358,1.358,0,0,1-1.721,0A1.039,1.039,0,0,1,66.262,204.024Zm4.5,9.976v-6.372H69.587v-1.553h1.179v-.366a2.972,2.972,0,0,1,.919-2.3,3.7,3.7,0,0,1,2.552-.809,8.466,8.466,0,0,1,2.4.432l-.308,1.75a9.373,9.373,0,0,0-1.113-.275,5.47,5.47,0,0,0-.85-.062q-1.479,0-1.479,1.311v.322h1.56v1.553h-1.56V214Zm6.863,0H75.505v-7.925h2.124Zm5.046-1.56a1.388,1.388,0,0,0,.952-.322,1.129,1.129,0,0,0,.381-.857h1.985a2.715,2.715,0,0,1-.439,1.476,2.9,2.9,0,0,1-1.183,1.04,3.7,3.7,0,0,1-1.659.37,3.44,3.44,0,0,1-2.681-1.08,4.275,4.275,0,0,1-.981-2.985v-.139a4.226,4.226,0,0,1,.974-2.922,3.4,3.4,0,0,1,2.673-1.091,3.333,3.333,0,0,1,2.384.846,3,3,0,0,1,.912,2.252H84.009a1.455,1.455,0,0,0-.381-1.005,1.416,1.416,0,0,0-2.084.153,3.125,3.125,0,0,0-.377,1.749v.22a3.164,3.164,0,0,0,.374,1.761A1.291,1.291,0,0,0,82.676,212.44ZM91.794,214a2.351,2.351,0,0,1-.212-.71,2.561,2.561,0,0,1-2,.857,2.814,2.814,0,0,1-1.93-.674,2.167,2.167,0,0,1-.765-1.7,2.24,2.24,0,0,1,.934-1.934,4.608,4.608,0,0,1,2.7-.681h.974V208.7a1.306,1.306,0,0,0-.282-.879,1.109,1.109,0,0,0-.89-.33,1.261,1.261,0,0,0-.839.256.871.871,0,0,0-.3.7H87.063a2.126,2.126,0,0,1,.425-1.274,2.808,2.808,0,0,1,1.2-.919,4.378,4.378,0,0,1,1.743-.333,3.459,3.459,0,0,1,2.325.736,2.575,2.575,0,0,1,.861,2.069v3.435a3.789,3.789,0,0,0,.315,1.707V214Zm-1.75-1.472a1.823,1.823,0,0,0,.864-.209,1.371,1.371,0,0,0,.586-.56V210.4H90.7q-1.589,0-1.692,1.1L89,211.62a.847.847,0,0,0,.278.652A1.081,1.081,0,0,0,90.044,212.528Zm8.5-.088a1.388,1.388,0,0,0,.952-.322,1.129,1.129,0,0,0,.381-.857h1.985a2.715,2.715,0,0,1-.439,1.476,2.9,2.9,0,0,1-1.183,1.04,3.7,3.7,0,0,1-1.659.37,3.44,3.44,0,0,1-2.681-1.08,4.275,4.275,0,0,1-.981-2.985v-.139a4.226,4.226,0,0,1,.974-2.922,3.4,3.4,0,0,1,2.673-1.091,3.333,3.333,0,0,1,2.384.846,3,3,0,0,1,.912,2.252H99.873a1.455,1.455,0,0,0-.381-1.005,1.416,1.416,0,0,0-2.084.153,3.125,3.125,0,0,0-.377,1.749v.22A3.164,3.164,0,0,0,97.4,211.9,1.291,1.291,0,0,0,98.54,212.44ZM105.3,214h-2.124v-7.925H105.3Zm-2.249-9.976a1.042,1.042,0,0,1,.319-.784,1.373,1.373,0,0,1,1.732,0,1.118,1.118,0,0,1,0,1.575,1.358,1.358,0,0,1-1.721,0A1.039,1.039,0,0,1,103.052,204.024Zm3.662,5.94a4.7,4.7,0,0,1,.454-2.1,3.324,3.324,0,0,1,1.307-1.428,3.814,3.814,0,0,1,1.981-.505,3.609,3.609,0,0,1,2.618.981,3.939,3.939,0,0,1,1.132,2.666l.015.542a4.142,4.142,0,0,1-1.018,2.926,3.946,3.946,0,0,1-5.468,0,4.215,4.215,0,0,1-1.022-2.988Zm2.117.15a2.962,2.962,0,0,0,.425,1.727,1.526,1.526,0,0,0,2.417.007,3.241,3.241,0,0,0,.432-1.889,2.933,2.933,0,0,0-.432-1.716,1.4,1.4,0,0,0-1.216-.609,1.382,1.382,0,0,0-1.2.605A3.3,3.3,0,0,0,108.831,210.115Zm2.043-7.365h2.307l-2.029,2.271h-1.721Zm6.6,3.325.066.916a2.767,2.767,0,0,1,2.278-1.062,2.3,2.3,0,0,1,1.875.74,3.451,3.451,0,0,1,.63,2.212V214h-2.117v-5.08a1.379,1.379,0,0,0-.293-.98,1.31,1.31,0,0,0-.974-.3,1.456,1.456,0,0,0-1.34.763V214h-2.117v-7.925ZM7.976,244.517,3.853,254H1.619l4.131-8.958H.447v-1.707H7.976Zm1.553,8.443a1.066,1.066,0,0,1,.341-.82,1.323,1.323,0,0,1,1.714,0,1.066,1.066,0,0,1,.341.82,1.051,1.051,0,0,1-.337.809,1.345,1.345,0,0,1-1.721,0A1.051,1.051,0,0,1,9.529,252.96ZM23.181,251.2a1.128,1.128,0,0,0-.439-.956,5.764,5.764,0,0,0-1.582-.7,11.215,11.215,0,0,1-1.809-.729,2.956,2.956,0,0,1-1.816-2.644,2.575,2.575,0,0,1,.487-1.542,3.177,3.177,0,0,1,1.4-1.058,5.265,5.265,0,0,1,2.047-.381,4.793,4.793,0,0,1,2.036.414,3.242,3.242,0,0,1,1.388,1.168,3.057,3.057,0,0,1,.494,1.714h-2.2a1.438,1.438,0,0,0-.461-1.139,1.9,1.9,0,0,0-1.3-.406,2.026,2.026,0,0,0-1.252.341,1.074,1.074,0,0,0-.447.9,1.029,1.029,0,0,0,.524.872,5.916,5.916,0,0,0,1.542.659,6.661,6.661,0,0,1,2.732,1.4,2.786,2.786,0,0,1,.857,2.08,2.566,2.566,0,0,1-1.047,2.172,4.585,4.585,0,0,1-2.82.787,5.445,5.445,0,0,1-2.241-.45,3.546,3.546,0,0,1-1.542-1.234,3.161,3.161,0,0,1-.531-1.816h2.2q0,1.765,2.109,1.765a2.052,2.052,0,0,0,1.223-.319A1.037,1.037,0,0,0,23.181,251.2Zm3.223-1.238a4.7,4.7,0,0,1,.454-2.1,3.324,3.324,0,0,1,1.307-1.428,3.814,3.814,0,0,1,1.981-.505,3.609,3.609,0,0,1,2.618.981,3.939,3.939,0,0,1,1.132,2.666l.015.542a4.142,4.142,0,0,1-1.018,2.926,3.539,3.539,0,0,1-2.732,1.1,3.556,3.556,0,0,1-2.736-1.1A4.215,4.215,0,0,1,26.4,250.06Zm2.117.15a2.962,2.962,0,0,0,.425,1.727,1.526,1.526,0,0,0,2.417.007,3.241,3.241,0,0,0,.432-1.889,2.933,2.933,0,0,0-.432-1.716,1.4,1.4,0,0,0-1.216-.609,1.382,1.382,0,0,0-1.2.605A3.3,3.3,0,0,0,28.521,250.115Zm13.828,0a4.753,4.753,0,0,1-.831,2.933,2.665,2.665,0,0,1-2.245,1.1,2.469,2.469,0,0,1-1.941-.835v3.735H35.215V246.075h1.963l.073.776a2.488,2.488,0,0,1,2.007-.923,2.683,2.683,0,0,1,2.278,1.084A4.882,4.882,0,0,1,42.349,250Zm-2.117-.161a3.136,3.136,0,0,0-.392-1.712,1.275,1.275,0,0,0-1.139-.6,1.385,1.385,0,0,0-1.37.764v3.255a1.409,1.409,0,0,0,1.384.786Q40.232,252.44,40.232,249.949Zm3.1.015a4.7,4.7,0,0,1,.454-2.1,3.324,3.324,0,0,1,1.307-1.428,3.814,3.814,0,0,1,1.981-.505,3.609,3.609,0,0,1,2.618.981,3.939,3.939,0,0,1,1.132,2.666l.015.542a4.142,4.142,0,0,1-1.018,2.926,3.946,3.946,0,0,1-5.468,0,4.215,4.215,0,0,1-1.022-2.988Zm2.117.15a2.962,2.962,0,0,0,.425,1.727,1.526,1.526,0,0,0,2.417.007,3.241,3.241,0,0,0,.432-1.889,2.933,2.933,0,0,0-.432-1.716,1.4,1.4,0,0,0-1.216-.609,1.382,1.382,0,0,0-1.2.605A3.3,3.3,0,0,0,45.447,250.115Zm11.147-2.055a5.75,5.75,0,0,0-.762-.059,1.55,1.55,0,0,0-1.575.813V254H52.141v-7.925h2l.059.945a1.961,1.961,0,0,1,1.765-1.091,2.218,2.218,0,0,1,.659.1Zm3.918-3.933v1.948h1.355v1.553H60.513v3.955a.944.944,0,0,0,.168.63.846.846,0,0,0,.645.19,3.376,3.376,0,0,0,.623-.051v1.6a4.358,4.358,0,0,1-1.282.19A2.021,2.021,0,0,1,58.4,251.9v-4.27H57.239v-1.553H58.4v-1.948Zm6.182,10.02a3.89,3.89,0,0,1-2.838-1.069,3.8,3.8,0,0,1-1.095-2.849v-.205a4.787,4.787,0,0,1,.461-2.135,3.386,3.386,0,0,1,1.307-1.45,3.669,3.669,0,0,1,1.93-.509,3.289,3.289,0,0,1,2.56,1.025,4.167,4.167,0,0,1,.934,2.908v.864H64.907a1.966,1.966,0,0,0,.619,1.245,1.871,1.871,0,0,0,1.307.469,2.285,2.285,0,0,0,1.912-.886l1.04,1.165a3.178,3.178,0,0,1-1.289,1.051A4.229,4.229,0,0,1,66.694,254.146Zm-.242-6.511a1.323,1.323,0,0,0-1.022.427,2.21,2.21,0,0,0-.5,1.221h2.944v-.169a1.576,1.576,0,0,0-.381-1.092A1.365,1.365,0,0,0,66.453,247.635Z" transform="translate(660 11762)" fill="#12263f"/>
  </g>
</svg>
