<svg xmlns="http://www.w3.org/2000/svg" width="25.022" height="61.309" viewBox="0 0 25.022 61.309">
  <path id="Trazado_762810" data-name="Trazado 762810" d="M22.121,282.415a8.289,8.289,0,0,0,3.643-4.065,22.155,22.155,0,0,0,1.575-6.9q.373-4.168.373-9.792v-1.22a60.473,60.473,0,0,0-.831-11.045,12.561,12.561,0,0,0-2.846-6.437,7.4,7.4,0,0,0-5.607-2.1,8.81,8.81,0,0,0-3.658.762,4.552,4.552,0,0,0-2.338,2.05v-12.1H26.119v-8.131H4.062v30.086l8,.678a8.243,8.243,0,0,1,.915-4.371,2.925,2.925,0,0,1,2.609-1.423,2.566,2.566,0,0,1,2.711,1.779,14.842,14.842,0,0,1,.61,4.691v15.247a10.237,10.237,0,0,1-.73,4.4,2.7,2.7,0,0,1-2.659,1.457,2.573,2.573,0,0,1-2.745-1.574,11.5,11.5,0,0,1-.575-3.914v-6.539H3.689v7.488a16.232,16.232,0,0,0,1.2,6.522A8.916,8.916,0,0,0,8.7,282.245a13.514,13.514,0,0,0,6.81,1.508A13.794,13.794,0,0,0,22.121,282.415Z" transform="translate(-3.189 -222.945)" fill="none" stroke="#12263f" stroke-miterlimit="10" stroke-width="1"/>
</svg>
