<svg xmlns="http://www.w3.org/2000/svg" width="977.432" height="13.496" viewBox="0 0 977.432 13.496">
  <g id="Grupo_1025535" data-name="Grupo 1025535" transform="translate(-308.67 -8156.104)">
    <line id="Línea_3381" data-name="Línea 3381" x2="977.432" transform="translate(308.67 8163.121)" fill="none" stroke="#e8e8e8" stroke-miterlimit="10" stroke-width="2"/>
    <path id="Trazado_762788" data-name="Trazado 762788" d="M95.767,156.312a6.48,6.48,0,1,1-6.48-6.48,6.48,6.48,0,0,1,6.48,6.48" transform="translate(307.505 8006.809)" fill="#57dbd8"/>
    <path id="Trazado_762789" data-name="Trazado 762789" d="M302.767,156.312a6.48,6.48,0,1,1-6.48-6.48,6.48,6.48,0,0,1,6.48,6.48" transform="translate(368.76 8006.809)" fill="#91b3fa"/>
    <path id="Trazado_762790" data-name="Trazado 762790" d="M506.767,156.312a6.48,6.48,0,1,1-6.48-6.48,6.48,6.48,0,0,1,6.48,6.48" transform="translate(429.128 8006.809)" fill="#57dbd8"/>
    <path id="Trazado_762791" data-name="Trazado 762791" d="M695.005,155.9a6.48,6.48,0,1,1-6.48-6.48,6.48,6.48,0,0,1,6.48,6.48" transform="translate(484.831 8006.687)" fill="#91b3fa"/>
  </g>
</svg>
