<svg xmlns="http://www.w3.org/2000/svg" width="27.393" height="62.054" viewBox="0 0 27.393 62.054">
  <path id="Trazado_762814" data-name="Trazado 762814" d="M221.958,275.157a5.073,5.073,0,0,1-1.356-2.745,23.6,23.6,0,0,1-.389-4.726V256.912a3.186,3.186,0,0,1,.728-1.559,4.525,4.525,0,0,1,1.558-1.169,5.217,5.217,0,0,1,2.254-.457,3.185,3.185,0,0,1,2.405.915,5.561,5.561,0,0,1,1.238,2.915,31.668,31.668,0,0,1,.355,5.32v5.658a22.453,22.453,0,0,1-.355,4.523,3.751,3.751,0,0,1-1.271,2.321,4.191,4.191,0,0,1-2.541.678A3.7,3.7,0,0,1,221.958,275.157Zm10.571,6.861a10.088,10.088,0,0,0,3.9-5.742,34.392,34.392,0,0,0,1.1-9.4v-3.285a43.311,43.311,0,0,0-.947-9.861,10.945,10.945,0,0,0-3.253-5.946,9.213,9.213,0,0,0-6.371-1.914,10.942,10.942,0,0,0-3.963.762,6.212,6.212,0,0,0-2.778,2.084v-8.5a42.19,42.19,0,0,1,.288-5.574,5.269,5.269,0,0,1,1.152-2.947,3.438,3.438,0,0,1,2.592-.9,3.074,3.074,0,0,1,2.422.863,5.08,5.08,0,0,1,.965,2.847q.2,1.981.2,5.335v1.221h8.471v-3.084a26.067,26.067,0,0,0-1.288-8.859,8.813,8.813,0,0,0-3.813-4.761,13.058,13.058,0,0,0-6.521-1.457,15.5,15.5,0,0,0-7.573,1.66,10.194,10.194,0,0,0-4.489,5.591,31.166,31.166,0,0,0-1.49,10.741v24.5a48.879,48.879,0,0,0,.559,7.777A16.229,16.229,0,0,0,213.708,279a9.461,9.461,0,0,0,4.1,3.677,15.656,15.656,0,0,0,6.775,1.27Q229.735,283.948,232.529,282.017Z" transform="translate(-210.633 -222.395)" fill="none" stroke="#12263f" stroke-miterlimit="10" stroke-width="1"/>
</svg>
