<svg xmlns="http://www.w3.org/2000/svg" xmlns:xlink="http://www.w3.org/1999/xlink" width="478.401" height="70.723" viewBox="0 0 478.401 70.723">
  <defs>
    <clipPath id="clip-path">
      <rect id="Rectángulo_357510" data-name="Rectángulo 357510" width="48.76" height="36.935" fill="#12263f"/>
    </clipPath>
    <filter id="Trazado_752694" x="76.893" y="32.071" width="39.479" height="36.848" filterUnits="userSpaceOnUse">
      <feOffset dx="3" dy="3" input="SourceAlpha"/>
      <feGaussianBlur stdDeviation="3" result="blur"/>
      <feFlood flood-opacity="0.161"/>
      <feComposite operator="in" in2="blur"/>
      <feComposite in="SourceGraphic"/>
    </filter>
    <filter id="Trazado_752710" x="178.402" y="32.071" width="39.479" height="36.848" filterUnits="userSpaceOnUse">
      <feOffset dx="3" dy="3" input="SourceAlpha"/>
      <feGaussianBlur stdDeviation="3" result="blur-2"/>
      <feFlood flood-opacity="0.161"/>
      <feComposite operator="in" in2="blur-2"/>
      <feComposite in="SourceGraphic"/>
    </filter>
    <clipPath id="clip-path-2">
      <rect id="Rectángulo_358792" data-name="Rectángulo 358792" width="48.76" height="34.831" fill="#12263f"/>
    </clipPath>
    <clipPath id="clip-path-3">
      <rect id="Rectángulo_358793" data-name="Rectángulo 358793" width="63.721" height="48.56" fill="#12263f"/>
    </clipPath>
    <clipPath id="clip-path-5">
      <rect id="Rectángulo_358794" data-name="Rectángulo 358794" width="19.525" height="19.519" fill="#12263f"/>
    </clipPath>
    <filter id="Trazado_752715" x="282.395" y="32.071" width="39.479" height="36.848" filterUnits="userSpaceOnUse">
      <feOffset dx="3" dy="3" input="SourceAlpha"/>
      <feGaussianBlur stdDeviation="3" result="blur-3"/>
      <feFlood flood-opacity="0.161"/>
      <feComposite operator="in" in2="blur-3"/>
      <feComposite in="SourceGraphic"/>
    </filter>
    <filter id="Trazado_752718" x="376.273" y="32.071" width="39.479" height="36.848" filterUnits="userSpaceOnUse">
      <feOffset dx="3" dy="3" input="SourceAlpha"/>
      <feGaussianBlur stdDeviation="3" result="blur-4"/>
      <feFlood flood-opacity="0.161"/>
      <feComposite operator="in" in2="blur-4"/>
      <feComposite in="SourceGraphic"/>
    </filter>
    <clipPath id="clip-path-6">
      <rect id="Rectángulo_358799" data-name="Rectángulo 358799" width="25.344" height="25.339" fill="#12263f"/>
    </clipPath>
  </defs>
  <g id="Grupo_1025530" data-name="Grupo 1025530" transform="translate(7929.591 -3174.085)">
    <path id="Trazado_765799" data-name="Trazado 765799" d="M11.081,0A11.081,11.081,0,1,1,0,11.081,11.081,11.081,0,0,1,11.081,0Z" transform="translate(-7909.86 3174.085)" fill="#91b3fa"/>
    <path id="Trazado_765800" data-name="Trazado 765800" d="M9.284,0A9.284,9.284,0,1,1,0,9.284,9.284,9.284,0,0,1,9.284,0Z" transform="translate(-7908.063 3175.882)" fill="#fff"/>
    <path id="Trazado_765801" data-name="Trazado 765801" d="M4.693,0H3V-6.536L.979-5.912V-7.277L4.512-8.543h.182Z" transform="translate(-7902.17 3189.07)" fill="#12263f"/>
    <path id="Trazado_765802" data-name="Trazado 765802" d="M11.081,0A11.081,11.081,0,1,1,0,11.081,11.081,11.081,0,0,1,11.081,0Z" transform="translate(-7793.761 3174.085)" fill="#57dbd8"/>
    <path id="Trazado_765803" data-name="Trazado 765803" d="M9.284,0A9.284,9.284,0,1,1,0,9.284,9.284,9.284,0,0,1,9.284,0Z" transform="translate(-7791.964 3175.882)" fill="#fff"/>
    <path id="Trazado_765804" data-name="Trazado 765804" d="M6.428,0H.58V-1.16L3.34-4.1a6.808,6.808,0,0,0,.841-1.084,1.742,1.742,0,0,0,.272-.879,1.3,1.3,0,0,0-.287-.894,1.036,1.036,0,0,0-.82-.325,1.118,1.118,0,0,0-.905.4,1.567,1.567,0,0,0-.331,1.04H.41A2.8,2.8,0,0,1,.782-7.271,2.622,2.622,0,0,1,1.834-8.282a3.2,3.2,0,0,1,1.541-.366,3.027,3.027,0,0,1,2.048.633,2.239,2.239,0,0,1,.729,1.787,2.868,2.868,0,0,1-.328,1.289A7.164,7.164,0,0,1,4.7-3.41L2.76-1.365H6.428Z" transform="translate(-7786.071 3189.07)" fill="#12263f"/>
    <path id="Trazado_765805" data-name="Trazado 765805" d="M11.081,0A11.081,11.081,0,1,1,0,11.081,11.081,11.081,0,0,1,11.081,0Z" transform="translate(-7675.327 3174.085)" fill="#91b3fa"/>
    <path id="Trazado_765806" data-name="Trazado 765806" d="M9.284,0A9.284,9.284,0,1,1,0,9.284,9.284,9.284,0,0,1,9.284,0Z" transform="translate(-7673.53 3175.882)" fill="#fff"/>
    <path id="Trazado_765807" data-name="Trazado 765807" d="M2.3-5.016h.9a1.271,1.271,0,0,0,.955-.322,1.181,1.181,0,0,0,.311-.855A1.044,1.044,0,0,0,4.163-7a1.192,1.192,0,0,0-.847-.287,1.25,1.25,0,0,0-.814.267.852.852,0,0,0-.328.694H.48a2.083,2.083,0,0,1,.36-1.2A2.4,2.4,0,0,1,1.849-8.35a3.364,3.364,0,0,1,1.427-.3A3.19,3.19,0,0,1,5.4-8a2.209,2.209,0,0,1,.768,1.784,1.8,1.8,0,0,1-.357,1.078,2.322,2.322,0,0,1-.937.756,2.12,2.12,0,0,1,1.075.773A2.1,2.1,0,0,1,6.3-2.391,2.246,2.246,0,0,1,5.47-.568,3.334,3.334,0,0,1,3.275.117,3.161,3.161,0,0,1,1.187-.557,2.2,2.2,0,0,1,.375-2.338H2.068a.981.981,0,0,0,.36.785,1.328,1.328,0,0,0,.888.3,1.334,1.334,0,0,0,.946-.319,1.1,1.1,0,0,0,.343-.847q0-1.277-1.406-1.277H2.3Z" transform="translate(-7667.637 3189.07)" fill="#12263f"/>
    <path id="Trazado_765808" data-name="Trazado 765808" d="M11.081,0A11.081,11.081,0,1,1,0,11.081,11.081,11.081,0,0,1,11.081,0Z" transform="translate(-7584.202 3174.085)" fill="#57dbd8"/>
    <path id="Trazado_765809" data-name="Trazado 765809" d="M9.284,0A9.284,9.284,0,1,1,0,9.284,9.284,9.284,0,0,1,9.284,0Z" transform="translate(-7582.405 3175.882)" fill="#fff"/>
    <path id="Trazado_765810" data-name="Trazado 765810" d="M5.59-3.211h.967v1.365H5.59V0H3.9V-1.846H.4L.322-2.912,3.879-8.531H5.59Zm-3.58,0H3.9V-6.223l-.111.193Z" transform="translate(-7576.512 3189.07)" fill="#12263f"/>
    <g id="Grupo_1022816" data-name="Grupo 1022816" transform="translate(-7929.591 3203.112)">
      <g id="Grupo_1020854" data-name="Grupo 1020854" transform="translate(0)" clip-path="url(#clip-path)">
        <path id="Trazado_749379" data-name="Trazado 749379" d="M0,18.762V31.509a.11.11,0,0,1,.018.031.84.84,0,0,0,.924.684c.967-.007,1.933,0,2.9-.006.132,0,.17.043.191.164a5.361,5.361,0,0,0,1.712,3.111,5.486,5.486,0,0,0,3.726,1.439,4.636,4.636,0,0,0,1.51-.235,5.42,5.42,0,0,0,3.859-4.311c.026-.127.064-.169.2-.168q9.333.006,18.666,0c.18,0,.179,0,.211.178a5.482,5.482,0,0,0,6.607,4.378,5.333,5.333,0,0,0,4.082-3.87c.068-.221.108-.45.163-.686h.148q1.493,0,2.986,0a.759.759,0,0,0,.82-.61,1.506,1.506,0,0,0,.034-.341q0-9.283,0-18.566,0-4.9,0-9.8a2.806,2.806,0,0,0-.413-1.579A2.72,2.72,0,0,0,46.5.062c-.051-.009-.1-.014-.175-.023L46.4,0H19.833c-.071.017-.142.04-.214.05a2.548,2.548,0,0,0-1.157.475A2.788,2.788,0,0,0,17.3,2.886c0,1.347,0,2.693,0,4.04v.146H8.031c-.053,0-.106,0-.16,0a.8.8,0,0,0-.675.381c-.465.732-.936,1.46-1.4,2.189Q3.5,13.216,1.2,16.789A14.612,14.612,0,0,0,0,18.762m47.187,2.447H18.874v-.131q0-9.154,0-18.308a1.185,1.185,0,0,1,1.2-1.2q12.945,0,25.89,0A1.212,1.212,0,0,1,47.193,2.8q-.015,9.129-.006,18.259Zm-2.43,9.434c-.018-.1-.034-.182-.05-.266a5.506,5.506,0,0,0-4.881-4.418,4.957,4.957,0,0,0-2.364.313,5.41,5.41,0,0,0-3.546,4.234c-.021.107-.059.145-.173.144q-7.366,0-14.733,0h-.13V22.8h28.3v7.847Zm-29.885,0c-.017-.09-.033-.174-.049-.258a5.5,5.5,0,0,0-6.088-4.4,5.511,5.511,0,0,0-4.706,4.528c-.018.1-.056.139-.166.138-.725-.006-1.45,0-2.175,0-.036,0-.071,0-.107-.006V25.934c.5,0,.991,0,1.482,0a2.283,2.283,0,0,0,.89-.148A2.36,2.36,0,0,0,5.5,23.5a2.059,2.059,0,0,0-.414-1.236,2.272,2.272,0,0,0-1.749-1.024c-.543-.031-1.089-.016-1.633-.021H1.579V19.646H14.043a.8.8,0,0,0,.9-.9V10.358c0-.041,0-.082,0-.123a.756.756,0,0,0-.693-.785,1.862,1.862,0,0,0-.281-.02H7.77c.156-.242.3-.461.441-.687a.18.18,0,0,1,.182-.1q4.387,0,8.773,0H17.3v22ZM2.222,18.071a.4.4,0,0,1,.02-.048q.8-1.238,1.592-2.476,1.428-2.217,2.855-4.435A.213.213,0,0,1,6.895,11q3.169,0,6.339,0h.127v7.07ZM39.43,35.356a3.926,3.926,0,1,1,3.823-4.177,3.915,3.915,0,0,1-3.823,4.177m-29.886,0a3.926,3.926,0,1,1,3.824-4.176,3.915,3.915,0,0,1-3.824,4.176M1.578,22.79c.529,0,1.045,0,1.561,0a.783.783,0,0,1,.034,1.565c-.524.014-1.048,0-1.572,0-.007,0-.013-.008-.022-.014Z" transform="translate(0 0.001)" fill="#12263f"/>
        <path id="Trazado_749380" data-name="Trazado 749380" d="M203.513,248.911q1.542,0,3.084,0a.787.787,0,0,0,.834-.632.755.755,0,0,0-.463-.863,1.394,1.394,0,0,0-.432-.073q-3.059-.007-6.118,0a.787.787,0,1,0,.011,1.57c1,0,1.99,0,2.985,0h.1" transform="translate(-178.347 -222.977)" fill="#12263f"/>
        <path id="Trazado_749381" data-name="Trazado 749381" d="M241.481,272.835c.373,0,.745,0,1.118,0a.786.786,0,0,0,.821-.632.758.758,0,0,0-.463-.863,1.284,1.284,0,0,0-.4-.072q-1.124-.01-2.248,0a.786.786,0,1,0,.025,1.57c.381,0,.761,0,1.142,0" transform="translate(-218.268 -244.542)" fill="#12263f"/>
        <path id="Trazado_749382" data-name="Trazado 749382" d="M345.279,216.984c.373,0,.745,0,1.118,0a.786.786,0,0,0,.822-.632.756.756,0,0,0-.462-.863,1.375,1.375,0,0,0-.42-.073c-.737-.007-1.474-.006-2.211,0a.787.787,0,1,0,.011,1.571h1.142" transform="translate(-332.291 -194.193)" fill="#12263f"/>
        <path id="Trazado_749383" data-name="Trazado 749383" d="M72.007,297.542a2.368,2.368,0,0,0,2.4,2.421,2.353,2.353,0,0,0-.053-4.7,2.382,2.382,0,0,0-2.351,2.283m2.367.855a.786.786,0,1,1,.773-.8.786.786,0,0,1-.773.8" transform="translate(-35.039 -266.177)" fill="#12263f"/>
        <path id="Trazado_749384" data-name="Trazado 749384" d="M377.771,295.232a2.354,2.354,0,1,0,.042,4.707,2.354,2.354,0,0,0-.042-4.707m0,1.57a.786.786,0,1,1-.783.79.784.784,0,0,1,.783-.79" transform="translate(-368.331 -266.152)" fill="#12263f"/>
      </g>
    </g>
    <path id="Trazado_752693" data-name="Trazado 752693" d="M221.167,297.706v-.486q0-3.381,0-6.762c0-.735.219-.954.953-.955q3.822,0,7.644,0c.735,0,.954.219.954.954q0,7.923,0,15.845c0,.759-.209.964-.98.964H213.93c-.75,0-.971-.223-.972-.983q0-3.8,0-7.6c0-.757.217-.972.979-.973q3.362,0,6.724,0Zm-.047,8.178V299.1h-1.272a.4.4,0,0,0-.037.1c0,.546-.007,1.093-.01,1.639,0,.729-.235.964-.952.967-.693,0-1.386,0-2.08,0-.891,0-1.074-.184-1.074-1.082,0-.54,0-1.081,0-1.624h-1.344v6.782Zm6.87-6.769c0,.613,0,1.2,0,1.782,0,.673-.238.906-.923.91q-1.121.006-2.241,0c-.7,0-.925-.232-.926-.944,0-.582,0-1.163,0-1.747h-1.331v6.758h6.766v-6.759Zm-5.43-8.226v6.763h6.765v-6.764H227.99c0,.6,0,1.185,0,1.768,0,.735-.21.942-.956.944q-1.08,0-2.16,0c-.774,0-.973-.2-.975-.964,0-.581,0-1.162,0-1.747Zm2.724,1.319H226.6v-1.323h-1.315Zm0,8.205H226.6v-1.3h-1.316Zm-6.881-1.3h-1.313v1.311h1.313Z" transform="translate(-8088.464 2930.051)" fill="#12263f"/>
    <path id="Trazado_752719" data-name="Trazado 752719" d="M221.167,297.706v-.486q0-3.381,0-6.762c0-.735.219-.954.953-.955q3.822,0,7.644,0c.735,0,.954.219.954.954q0,7.923,0,15.845c0,.759-.209.964-.98.964H213.93c-.75,0-.971-.223-.972-.983q0-3.8,0-7.6c0-.757.217-.972.979-.973q3.362,0,6.724,0Zm-.047,8.178V299.1h-1.272a.4.4,0,0,0-.037.1c0,.546-.007,1.093-.01,1.639,0,.729-.235.964-.952.967-.693,0-1.386,0-2.08,0-.891,0-1.074-.184-1.074-1.082,0-.54,0-1.081,0-1.624h-1.344v6.782Zm6.87-6.769c0,.613,0,1.2,0,1.782,0,.673-.238.906-.923.91q-1.121.006-2.241,0c-.7,0-.925-.232-.926-.944,0-.582,0-1.163,0-1.747h-1.331v6.758h6.766v-6.759Zm-5.43-8.226v6.763h6.765v-6.764H227.99c0,.6,0,1.185,0,1.768,0,.735-.21.942-.956.944q-1.08,0-2.16,0c-.774,0-.973-.2-.975-.964,0-.581,0-1.162,0-1.747Zm2.724,1.319H226.6v-1.323h-1.315Zm0,8.205H226.6v-1.3h-1.316Zm-6.881-1.3h-1.313v1.311h1.313Z" transform="translate(-7733.241 2930.051)" fill="#12263f"/>
    <g transform="matrix(1, 0, 0, 1, -7929.59, 3174.08)" filter="url(#Trazado_752694)">
      <g id="Trazado_752694-2" data-name="Trazado 752694" transform="translate(-125.61 32.86)" fill="#fff">
        <path d="M 222.2044830322266 22.49302291870117 L 222.2044982910156 21.551513671875 C 222.2044982910156 20.06760406494141 220.9972381591797 18.86035346984863 219.5133361816406 18.86035346984863 L 210.191162109375 18.86035346984863 C 209.81005859375 18.86035346984863 209.5000152587891 18.55030250549316 209.5000152587891 18.16919326782227 L 209.5000152587891 11.0888729095459 C 209.5000152587891 10.707763671875 209.81005859375 10.39771366119385 210.191162109375 10.39771366119385 L 219.5105285644531 10.39771366119385 C 220.9944458007812 10.39771366119385 222.2016906738281 9.190463066101074 222.2016906738281 7.70655345916748 L 222.2016906738281 6.773022651672363 L 228.7539825439453 14.0441837310791 C 229.0550384521484 14.37891292572021 229.0550384521484 14.88479328155518 228.7533569335938 15.2202033996582 L 222.2044830322266 22.49302291870117 Z" stroke="none"/>
        <path d="M 222.9360504150391 9.081743240356445 C 222.3895874023438 10.43792152404785 221.0599975585938 11.39771270751953 219.5105285644531 11.39771270751953 L 210.5000152587891 11.39771270751953 L 210.5000152587891 17.86035346984863 L 219.5133361816406 17.86035346984863 C 221.0646667480469 17.86035346984863 222.3954925537109 18.82220649719238 222.9407196044922 20.18096923828125 L 227.9374542236328 14.63187980651855 L 222.9360504150391 9.081743240356445 M 221.8498992919922 5.208978652954102 C 222.0342102050781 5.209127426147461 222.2062377929688 5.285860061645508 222.3291625976562 5.420663833618164 L 229.4968566894531 13.37475299835205 C 230.1397705078125 14.0895528793335 230.1397705078125 15.17415332794189 229.4968566894531 15.88894367218018 L 222.3319702148438 23.84586334228516 C 222.0906982421875 24.11051559448242 221.6808624267578 24.12942123413086 221.4161987304688 23.88841247558594 C 221.2820129394531 23.76609420776367 221.2053527832031 23.59331321716309 221.2044982910156 23.41179275512695 L 221.2044982910156 21.551513671875 C 221.2044982910156 20.61743354797363 220.4474487304688 19.86035346984863 219.5133361816406 19.86035346984863 L 210.191162109375 19.86035346984863 C 209.2570953369141 19.86035346984863 208.5000152587891 19.10327339172363 208.5000152587891 18.16919326782227 L 208.5000152587891 11.0888729095459 C 208.5000152587891 10.15478324890137 209.2570953369141 9.397712707519531 210.191162109375 9.397712707519531 L 219.5105285644531 9.397712707519531 C 220.4446105957031 9.397712707519531 221.2016906738281 8.640632629394531 221.2016906738281 7.706552505493164 L 221.2016906738281 5.854732513427734 C 221.2030944824219 5.497636795043945 221.4931640625 5.208986282348633 221.8498992919922 5.208978652954102 Z" stroke="none" fill="#12263f"/>
      </g>
    </g>
    <g transform="matrix(1, 0, 0, 1, -7929.59, 3174.08)" filter="url(#Trazado_752710)">
      <g id="Trazado_752710-2" data-name="Trazado 752710" transform="translate(-24.1 32.86)" fill="#fff">
        <path d="M 222.2044830322266 22.49302291870117 L 222.2044982910156 21.551513671875 C 222.2044982910156 20.06760406494141 220.9972381591797 18.86035346984863 219.5133361816406 18.86035346984863 L 210.191162109375 18.86035346984863 C 209.81005859375 18.86035346984863 209.5000152587891 18.55030250549316 209.5000152587891 18.16919326782227 L 209.5000152587891 11.0888729095459 C 209.5000152587891 10.707763671875 209.81005859375 10.39771366119385 210.191162109375 10.39771366119385 L 219.5105285644531 10.39771366119385 C 220.9944458007812 10.39771366119385 222.2016906738281 9.190463066101074 222.2016906738281 7.70655345916748 L 222.2016906738281 6.773022651672363 L 228.7539825439453 14.0441837310791 C 229.0550384521484 14.37891292572021 229.0550384521484 14.88479328155518 228.7533569335938 15.2202033996582 L 222.2044830322266 22.49302291870117 Z" stroke="none"/>
        <path d="M 222.9360504150391 9.081743240356445 C 222.3895874023438 10.43792152404785 221.0599975585938 11.39771270751953 219.5105285644531 11.39771270751953 L 210.5000152587891 11.39771270751953 L 210.5000152587891 17.86035346984863 L 219.5133361816406 17.86035346984863 C 221.0646667480469 17.86035346984863 222.3954925537109 18.82220649719238 222.9407196044922 20.18096923828125 L 227.9374542236328 14.63187980651855 L 222.9360504150391 9.081743240356445 M 221.8498992919922 5.208978652954102 C 222.0342102050781 5.209127426147461 222.2062377929688 5.285860061645508 222.3291625976562 5.420663833618164 L 229.4968566894531 13.37475299835205 C 230.1397705078125 14.0895528793335 230.1397705078125 15.17415332794189 229.4968566894531 15.88894367218018 L 222.3319702148438 23.84586334228516 C 222.0906982421875 24.11051559448242 221.6808624267578 24.12942123413086 221.4161987304688 23.88841247558594 C 221.2820129394531 23.76609420776367 221.2053527832031 23.59331321716309 221.2044982910156 23.41179275512695 L 221.2044982910156 21.551513671875 C 221.2044982910156 20.61743354797363 220.4474487304688 19.86035346984863 219.5133361816406 19.86035346984863 L 210.191162109375 19.86035346984863 C 209.2570953369141 19.86035346984863 208.5000152587891 19.10327339172363 208.5000152587891 18.16919326782227 L 208.5000152587891 11.0888729095459 C 208.5000152587891 10.15478324890137 209.2570953369141 9.397712707519531 210.191162109375 9.397712707519531 L 219.5105285644531 9.397712707519531 C 220.4446105957031 9.397712707519531 221.2016906738281 8.640632629394531 221.2016906738281 7.706552505493164 L 221.2016906738281 5.854732513427734 C 221.2030944824219 5.497636795043945 221.4931640625 5.208986282348633 221.8498992919922 5.208978652954102 Z" stroke="none" fill="#12263f"/>
      </g>
    </g>
    <g id="Grupo_1022817" data-name="Grupo 1022817" transform="translate(-7499.95 3203.112)" clip-path="url(#clip-path-2)">
      <path id="Trazado_752695" data-name="Trazado 752695" d="M48.76,17.693v12.02a.1.1,0,0,0-.018.029.835.835,0,0,1-.924.645c-.967-.006-1.933,0-2.9-.005-.132,0-.17.041-.191.155a4.984,4.984,0,0,1-1.712,2.934,5.676,5.676,0,0,1-3.726,1.357,4.893,4.893,0,0,1-1.51-.222,5.228,5.228,0,0,1-3.859-4.065c-.026-.119-.064-.159-.2-.159q-9.333.006-18.665,0c-.18,0-.179,0-.211.168A4.859,4.859,0,0,1,13.3,33.313a5.479,5.479,0,0,1-5.069,1.368,5.212,5.212,0,0,1-4.082-3.649c-.068-.208-.108-.425-.163-.647H3.841q-1.493,0-2.986,0a.754.754,0,0,1-.82-.576A1.342,1.342,0,0,1,0,29.488q0-8.754,0-17.508,0-4.62,0-9.241A2.531,2.531,0,0,1,.413,1.25,2.727,2.727,0,0,1,2.261.058c.051-.009.1-.013.175-.022L2.359,0H28.927c.071.016.142.037.214.047A2.634,2.634,0,0,1,30.3.495a2.581,2.581,0,0,1,1.159,2.227c0,1.27,0,2.54,0,3.81v.138h9.27c.053,0,.106,0,.16,0a.806.806,0,0,1,.675.359c.465.69.936,1.377,1.4,2.065,1.53,2.245,3.066,4.487,4.589,6.737a13.659,13.659,0,0,1,1.2,1.861M1.573,20H29.885v-.123q0-8.632,0-17.265a1.153,1.153,0,0,0-1.2-1.132q-12.945,0-25.89,0A1.178,1.178,0,0,0,1.567,2.637q.015,8.609.006,17.218ZM4,28.9c.018-.092.034-.171.05-.251a5.394,5.394,0,0,1,4.881-4.166,5.233,5.233,0,0,1,2.364.3,5.192,5.192,0,0,1,3.546,3.992c.021.1.059.136.173.136q7.366,0,14.733,0h.13V21.5H1.581v7.4Zm29.885,0c.017-.085.033-.164.049-.244A5.48,5.48,0,0,1,40.025,24.5a5.545,5.545,0,0,1,2.814,1.168,5.036,5.036,0,0,1,1.892,3.1c.018.1.056.131.166.13.725-.005,1.45,0,2.175,0,.036,0,.071,0,.107-.006V24.456c-.5,0-.991,0-1.482,0a2.407,2.407,0,0,1-.89-.14,2.231,2.231,0,0,1-1.55-2.155,1.87,1.87,0,0,1,.414-1.165,2.3,2.3,0,0,1,1.749-.965c.543-.029,1.089-.015,1.633-.02h.126V18.527H34.716c-.593,0-.9-.29-.9-.85V9.768c0-.039,0-.077,0-.116a.729.729,0,0,1,.693-.74,1.973,1.973,0,0,1,.281-.019h6.2c-.156-.228-.3-.434-.441-.648a.183.183,0,0,0-.182-.095q-4.387,0-8.773,0h-.129V28.9Zm12.65-11.855a.367.367,0,0,0-.02-.045q-.8-1.168-1.592-2.335Q43.5,12.57,42.071,10.479a.216.216,0,0,0-.206-.106q-3.169,0-6.339,0H35.4v6.667ZM9.329,33.342a3.708,3.708,0,1,0,.243-7.4A3.848,3.848,0,0,0,5.506,29.4a3.79,3.79,0,0,0,3.823,3.939m29.886,0A3.711,3.711,0,1,0,35.391,29.4a3.828,3.828,0,0,0,3.824,3.938m7.967-11.85c-.529,0-1.045,0-1.561,0a.764.764,0,0,0-.792.729.753.753,0,0,0,.759.747c.524.013,1.048,0,1.572,0,.007,0,.013-.008.022-.013Z" transform="translate(0 0.001)" fill="#12263f"/>
      <path id="Trazado_752696" data-name="Trazado 752696" d="M203.517,248.822q-1.542,0-3.084,0a.781.781,0,0,1-.834-.6.705.705,0,0,1,.463-.814,1.47,1.47,0,0,1,.432-.069q3.059-.007,6.118,0a.747.747,0,1,1-.011,1.481c-1,0-1.99,0-2.985,0h-.1" transform="translate(-179.923 -224.365)" fill="#12263f"/>
      <path id="Trazado_752697" data-name="Trazado 752697" d="M241.459,272.745c-.373,0-.745,0-1.118,0a.779.779,0,0,1-.821-.6.707.707,0,0,1,.463-.814,1.353,1.353,0,0,1,.4-.068q1.124-.01,2.248,0a.761.761,0,0,1,.811.768.772.772,0,0,1-.836.712c-.381,0-.761,0-1.142,0" transform="translate(-215.912 -246.065)" fill="#12263f"/>
      <path id="Trazado_752698" data-name="Trazado 752698" d="M345.259,216.894c-.372,0-.745,0-1.118,0a.779.779,0,0,1-.822-.6.706.706,0,0,1,.462-.814,1.451,1.451,0,0,1,.42-.069c.737-.007,1.474-.005,2.211,0a.764.764,0,0,1,.824.768.775.775,0,0,1-.835.713h-1.142" transform="translate(-309.487 -195.402)" fill="#12263f"/>
      <path id="Trazado_752699" data-name="Trazado 752699" d="M76.707,297.412a2.3,2.3,0,0,1-2.4,2.283,2.221,2.221,0,1,1,.053-4.436,2.318,2.318,0,0,1,2.351,2.153m-2.367.806a.743.743,0,1,0-.773-.754.766.766,0,0,0,.773.754" transform="translate(-64.914 -267.834)" fill="#12263f"/>
      <path id="Trazado_752700" data-name="Trazado 752700" d="M377.76,295.232a2.225,2.225,0,1,1-.042,4.439,2.264,2.264,0,0,1-2.3-2.265,2.294,2.294,0,0,1,2.343-2.174m0,1.48a.742.742,0,1,0,.783.745.762.762,0,0,0-.783-.745" transform="translate(-338.439 -267.809)" fill="#12263f"/>
    </g>
    <g id="Grupo_1022819" data-name="Grupo 1022819" transform="translate(-7814.233 3196.248)">
      <g id="Grupo_1022818" data-name="Grupo 1022818" clip-path="url(#clip-path-3)">
        <path id="Trazado_752701" data-name="Trazado 752701" d="M207.2,176.117a6.871,6.871,0,0,1,4.311,2.519,6.9,6.9,0,0,1-4.5,11.155,6.847,6.847,0,0,1-.948.077q-14.728.006-29.456,0a6.906,6.906,0,0,1-.481-13.8c.393-.013.787,0,1.258,0,0-.266,0-.477,0-.688,0-2.027.042-4.056-.017-6.082a1.983,1.983,0,0,1,1.96-2.04c2.583-.028,5.168-.034,7.751,0a1.958,1.958,0,0,1,1.977,2.093c.006,2.205,0,4.41,0,6.711h2.139c.2,0,.434-.061.587.024.213.119.486.336.506.535a.87.87,0,0,1-.378.633,1.31,1.31,0,0,1-.69.09c-4.87,0-9.74.065-14.608-.021a5.685,5.685,0,0,0-5.764,5.6,5.62,5.62,0,0,0,5.691,5.664q14.847.022,29.695,0a5.638,5.638,0,0,0,.831-11.2,6.389,6.389,0,0,0-1.011-.042q-4.711,0-9.421,0c-.924,0-1.11-.283-.81-1.158a1.857,1.857,0,0,0,.048-.587q.006-4.531.005-9.062c0-.713.214-.936.917-.937q4.765,0,9.529,0c.67,0,.874.209.875.905q0,4.472,0,8.944c0,.214,0,.428,0,.663m-24.009-.056q1.908,0,3.815,0c.516,0,.79-.172.78-.771-.031-1.947-.01-3.895-.012-5.842,0-.683-.226-.923-.933-.926q-3.637-.013-7.273,0c-.7,0-.919.233-.92.933q0,2.832,0,5.664c0,.841.092.937.967.94,1.192,0,2.385,0,3.577,0m22.686-6.527h-8.686v6.413h8.686Zm.014-2.634h-8.7v1.26h8.7Z" transform="translate(-149.347 -145.849)" fill="#12263f"/>
        <path id="Trazado_752702" data-name="Trazado 752702" d="M360.132,281.324a4.043,4.043,0,0,1,8.086.04,4.043,4.043,0,1,1-8.086-.04m4.03,2.806a2.77,2.77,0,0,0,2.774-2.744,2.764,2.764,0,1,0-2.774,2.744" transform="translate(-317.175 -244.248)" fill="#12263f"/>
        <path id="Trazado_752703" data-name="Trazado 752703" d="M202.229,281.339a4.04,4.04,0,1,1-4.054-4.031,4.013,4.013,0,0,1,4.054,4.031m-4.059-2.748a2.726,2.726,0,0,0-2.741,2.761,2.763,2.763,0,0,0,5.526.013,2.722,2.722,0,0,0-2.785-2.774" transform="translate(-170.991 -244.231)" fill="#12263f"/>
        <path id="Trazado_752704" data-name="Trazado 752704" d="M286.52,281.37a4.022,4.022,0,0,1-4,4.025,4.042,4.042,0,1,1-.01-8.084,3.989,3.989,0,0,1,4.012,4.059m-4.016-2.778a2.766,2.766,0,0,0-2.787,2.731,2.814,2.814,0,0,0,2.744,2.8,2.774,2.774,0,0,0,2.8-2.779,2.734,2.734,0,0,0-2.76-2.747" transform="translate(-245.238 -244.233)" fill="#12263f"/>
        <path id="Trazado_752705" data-name="Trazado 752705" d="M441.859,281.361a4.028,4.028,0,1,1,8.056,0,4.028,4.028,0,1,1-8.056,0m4.036,2.754a2.818,2.818,0,0,0,2.77-2.771,2.788,2.788,0,0,0-5.575.029,2.816,2.816,0,0,0,2.805,2.743" transform="translate(-389.154 -244.232)" fill="#12263f"/>
        <path id="Trazado_752706" data-name="Trazado 752706" d="M369.894,252.537c.164.243.468.5.453.728a.87.87,0,0,1-.567.6.515.515,0,0,1-.627-.588c.038-.263.292-.495.45-.74Z" transform="translate(-325.114 -222.414)" fill="#12263f"/>
        <path id="Trazado_752707" data-name="Trazado 752707" d="M410,4.969c0,.874-.024,1.749.017,2.621a.961.961,0,0,0,.361.641,2.137,2.137,0,0,1,.97,2.1.818.818,0,0,0,.206.591c.579.571,1.217,1.083,1.783,1.666a1.433,1.433,0,0,1,.4.858c.044,1.21.011,2.422.021,3.634,0,.48-.141.867-.673.852-.5-.013-.623-.4-.62-.848.007-1.053.02-2.106-.012-3.157a1.175,1.175,0,0,0-.3-.711,14.1,14.1,0,0,0-1.407-1.283,1.111,1.111,0,0,0-.612-.108c-.52-.015-1.041-.019-1.561,0a3.3,3.3,0,0,0-.613.117c-.033.007-.057.053-.086.08-.537.5-1.382.918-1.54,1.518a13.265,13.265,0,0,0-.1,3.195c0,.179.073.394,0,.528-.138.248-.327.581-.555.639-.371.094-.63-.208-.664-.591-.041-.454-.035-.912-.038-1.369,0-.814-.039-1.631.019-2.441a1.6,1.6,0,0,1,.41-.918c.56-.587,1.2-1.1,1.779-1.669a.831.831,0,0,0,.2-.6,1.953,1.953,0,0,1,.947-2.026.751.751,0,0,0,.416-.754c-.017-1.767-.005-3.535-.008-5.3,0-.454.145-.82.658-.8.462.022.609.375.608.8,0,.914,0,1.827,0,2.741Zm.083,4.969a.725.725,0,1,0-.692.755.7.7,0,0,0,.692-.755" transform="translate(-356.655 -1.256)" fill="#12263f"/>
        <path id="Trazado_752708" data-name="Trazado 752708" d="M10.107,140.018c-.115.126-.216.243-.323.353A3.355,3.355,0,0,1,7.1,141.408a3.481,3.481,0,0,1-3.165-2.8,5.076,5.076,0,0,1-.073-.9q-.006-6.03,0-12.061c0-.024,0-.048-.006-.069-.217.071-.425.156-.641.208a2.616,2.616,0,0,1-3.175-2.063A2.02,2.02,0,0,1,0,123.358c0-4.426-.008-8.851,0-13.277a4.3,4.3,0,0,1,.66-2.194,4.859,4.859,0,0,1,3.483-2.382,5.073,5.073,0,0,1,.87-.072q5.076-.007,10.151,0a4.92,4.92,0,0,1,4.988,4.2,12.11,12.11,0,0,1,.057,1.926q.006,5.618,0,11.236a4.072,4.072,0,0,1-.089,1.132,2.546,2.546,0,0,1-1.945,1.883,2.588,2.588,0,0,1-1.824-.24c-.007.014-.018.028-.018.041q0,6.168.006,12.337a3.493,3.493,0,0,1-3.049,3.436,3.4,3.4,0,0,1-3.118-1.281l-.077-.088M5.254,125.408H5.237q0,.7,0,1.392c0,3.732-.009,7.464,0,11.2a1.95,1.95,0,0,0,1.2,1.843,1.935,1.935,0,0,0,2.058-.168A1.958,1.958,0,0,0,9.4,138q0-7.19,0-14.38c0-.038,0-.075,0-.113a.7.7,0,1,1,1.4.061q0,7.209,0,14.418a1.986,1.986,0,0,0,1.2,1.861,2.064,2.064,0,0,0,2.625-.765,2.424,2.424,0,0,0,.341-1.375q-.015-7.466-.023-14.931-.005-4.733,0-9.466c0-.2,0-.4.009-.6a.712.712,0,0,1,.657-.711.692.692,0,0,1,.727.558,1.33,1.33,0,0,1,.029.3q0,4.984,0,9.967c0,.2-.005.4.01.6a1.038,1.038,0,0,0,.082.35,1.245,1.245,0,0,0,1.337.709,1.2,1.2,0,0,0,1-.97,2.88,2.88,0,0,0,.039-.561q0-6.187,0-12.375a4.126,4.126,0,0,0-.214-1.414,3.482,3.482,0,0,0-1.909-2.058,3.963,3.963,0,0,0-1.7-.29q-4.888,0-9.776,0a6.4,6.4,0,0,0-.947.052,3.53,3.53,0,0,0-2.95,3.457q0,4.287,0,8.576,0,2.112,0,4.225a1.334,1.334,0,0,0,.418,1.06,1.185,1.185,0,0,0,1.318.2,1.109,1.109,0,0,0,.739-1.11q0-5.159,0-10.318a2.385,2.385,0,0,1,.02-.362.707.707,0,0,1,.682-.6.685.685,0,0,1,.689.585,2.681,2.681,0,0,1,.026.437q0,6.193,0,12.387" transform="translate(0 -92.854)" fill="#12263f"/>
        <path id="Trazado_752709" data-name="Trazado 752709" d="M39.086,5.44a5.436,5.436,0,0,1,10.873-.008,5.436,5.436,0,1,1-10.873.008m1.382.011a4.059,4.059,0,1,0,8.118,0,4.059,4.059,0,1,0-8.118,0" transform="translate(-34.424 0)" fill="#12263f"/>
      </g>
    </g>
    <g id="Grupo_1022820" data-name="Grupo 1022820" transform="translate(-7712.723 3196.248)">
      <g id="Grupo_1022818-2" data-name="Grupo 1022818" clip-path="url(#clip-path-3)">
        <path id="Trazado_752701-2" data-name="Trazado 752701" d="M207.2,176.117a6.871,6.871,0,0,1,4.311,2.519,6.9,6.9,0,0,1-4.5,11.155,6.847,6.847,0,0,1-.948.077q-14.728.006-29.456,0a6.906,6.906,0,0,1-.481-13.8c.393-.013.787,0,1.258,0,0-.266,0-.477,0-.688,0-2.027.042-4.056-.017-6.082a1.983,1.983,0,0,1,1.96-2.04c2.583-.028,5.168-.034,7.751,0a1.958,1.958,0,0,1,1.977,2.093c.006,2.205,0,4.41,0,6.711h2.139c.2,0,.434-.061.587.024.213.119.486.336.506.535a.87.87,0,0,1-.378.633,1.31,1.31,0,0,1-.69.09c-4.87,0-9.74.065-14.608-.021a5.685,5.685,0,0,0-5.764,5.6,5.62,5.62,0,0,0,5.691,5.664q14.847.022,29.695,0a5.638,5.638,0,0,0,.831-11.2,6.389,6.389,0,0,0-1.011-.042q-4.711,0-9.421,0c-.924,0-1.11-.283-.81-1.158a1.857,1.857,0,0,0,.048-.587q.006-4.531.005-9.062c0-.713.214-.936.917-.937q4.765,0,9.529,0c.67,0,.874.209.875.905q0,4.472,0,8.944c0,.214,0,.428,0,.663m-24.009-.056q1.908,0,3.815,0c.516,0,.79-.172.78-.771-.031-1.947-.01-3.895-.012-5.842,0-.683-.226-.923-.933-.926q-3.637-.013-7.273,0c-.7,0-.919.233-.92.933q0,2.832,0,5.664c0,.841.092.937.967.94,1.192,0,2.385,0,3.577,0m22.686-6.527h-8.686v6.413h8.686Zm.014-2.634h-8.7v1.26h8.7Z" transform="translate(-149.347 -145.849)" fill="#12263f"/>
        <path id="Trazado_752702-2" data-name="Trazado 752702" d="M360.132,281.324a4.043,4.043,0,0,1,8.086.04,4.043,4.043,0,1,1-8.086-.04m4.03,2.806a2.77,2.77,0,0,0,2.774-2.744,2.764,2.764,0,1,0-2.774,2.744" transform="translate(-317.175 -244.248)" fill="#12263f"/>
        <path id="Trazado_752703-2" data-name="Trazado 752703" d="M202.229,281.339a4.04,4.04,0,1,1-4.054-4.031,4.013,4.013,0,0,1,4.054,4.031m-4.059-2.748a2.726,2.726,0,0,0-2.741,2.761,2.763,2.763,0,0,0,5.526.013,2.722,2.722,0,0,0-2.785-2.774" transform="translate(-170.991 -244.231)" fill="#12263f"/>
        <path id="Trazado_752704-2" data-name="Trazado 752704" d="M286.52,281.37a4.022,4.022,0,0,1-4,4.025,4.042,4.042,0,1,1-.01-8.084,3.989,3.989,0,0,1,4.012,4.059m-4.016-2.778a2.766,2.766,0,0,0-2.787,2.731,2.814,2.814,0,0,0,2.744,2.8,2.774,2.774,0,0,0,2.8-2.779,2.734,2.734,0,0,0-2.76-2.747" transform="translate(-245.238 -244.233)" fill="#12263f"/>
        <path id="Trazado_752705-2" data-name="Trazado 752705" d="M441.859,281.361a4.028,4.028,0,1,1,8.056,0,4.028,4.028,0,1,1-8.056,0m4.036,2.754a2.818,2.818,0,0,0,2.77-2.771,2.788,2.788,0,0,0-5.575.029,2.816,2.816,0,0,0,2.805,2.743" transform="translate(-389.154 -244.232)" fill="#12263f"/>
        <path id="Trazado_752706-2" data-name="Trazado 752706" d="M369.894,252.537c.164.243.468.5.453.728a.87.87,0,0,1-.567.6.515.515,0,0,1-.627-.588c.038-.263.292-.495.45-.74Z" transform="translate(-325.114 -222.414)" fill="#12263f"/>
        <path id="Trazado_752708-2" data-name="Trazado 752708" d="M10.107,140.018c-.115.126-.216.243-.323.353A3.355,3.355,0,0,1,7.1,141.408a3.481,3.481,0,0,1-3.165-2.8,5.076,5.076,0,0,1-.073-.9q-.006-6.03,0-12.061c0-.024,0-.048-.006-.069-.217.071-.425.156-.641.208a2.616,2.616,0,0,1-3.175-2.063A2.02,2.02,0,0,1,0,123.358c0-4.426-.008-8.851,0-13.277a4.3,4.3,0,0,1,.66-2.194,4.859,4.859,0,0,1,3.483-2.382,5.073,5.073,0,0,1,.87-.072q5.076-.007,10.151,0a4.92,4.92,0,0,1,4.988,4.2,12.11,12.11,0,0,1,.057,1.926q.006,5.618,0,11.236a4.072,4.072,0,0,1-.089,1.132,2.546,2.546,0,0,1-1.945,1.883,2.588,2.588,0,0,1-1.824-.24c-.007.014-.018.028-.018.041q0,6.168.006,12.337a3.493,3.493,0,0,1-3.049,3.436,3.4,3.4,0,0,1-3.118-1.281l-.077-.088M5.254,125.408H5.237q0,.7,0,1.392c0,3.732-.009,7.464,0,11.2a1.95,1.95,0,0,0,1.2,1.843,1.935,1.935,0,0,0,2.058-.168A1.958,1.958,0,0,0,9.4,138q0-7.19,0-14.38c0-.038,0-.075,0-.113a.7.7,0,1,1,1.4.061q0,7.209,0,14.418a1.986,1.986,0,0,0,1.2,1.861,2.064,2.064,0,0,0,2.625-.765,2.424,2.424,0,0,0,.341-1.375q-.015-7.466-.023-14.931-.005-4.733,0-9.466c0-.2,0-.4.009-.6a.712.712,0,0,1,.657-.711.692.692,0,0,1,.727.558,1.33,1.33,0,0,1,.029.3q0,4.984,0,9.967c0,.2-.005.4.01.6a1.038,1.038,0,0,0,.082.35,1.245,1.245,0,0,0,1.337.709,1.2,1.2,0,0,0,1-.97,2.88,2.88,0,0,0,.039-.561q0-6.187,0-12.375a4.126,4.126,0,0,0-.214-1.414,3.482,3.482,0,0,0-1.909-2.058,3.963,3.963,0,0,0-1.7-.29q-4.888,0-9.776,0a6.4,6.4,0,0,0-.947.052,3.53,3.53,0,0,0-2.95,3.457q0,4.287,0,8.576,0,2.112,0,4.225a1.334,1.334,0,0,0,.418,1.06,1.185,1.185,0,0,0,1.318.2,1.109,1.109,0,0,0,.739-1.11q0-5.159,0-10.318a2.385,2.385,0,0,1,.02-.362.707.707,0,0,1,.682-.6.685.685,0,0,1,.689.585,2.681,2.681,0,0,1,.026.437q0,6.193,0,12.387" transform="translate(0 -92.854)" fill="#12263f"/>
        <path id="Trazado_752709-2" data-name="Trazado 752709" d="M39.086,5.44a5.436,5.436,0,0,1,10.873-.008,5.436,5.436,0,1,1-10.873.008m1.382.011a4.059,4.059,0,1,0,8.118,0,4.059,4.059,0,1,0-8.118,0" transform="translate(-34.424 0)" fill="#12263f"/>
      </g>
    </g>
    <g id="Grupo_1022822" data-name="Grupo 1022822" transform="translate(-7690.625 3196.248)">
      <g id="Grupo_1022821" data-name="Grupo 1022821" clip-path="url(#clip-path-5)">
        <path id="Trazado_752711" data-name="Trazado 752711" d="M2.4,19.519a2.451,2.451,0,0,0,1.025-.427,3.516,3.516,0,0,0,.286-.251Q5.752,16.8,7.793,14.757c.035-.035.067-.073.121-.131l-.694-.665L8.23,12.951c.2.125.415.265.635.389A7.135,7.135,0,0,0,19.315,8.835c.087-.35.118-.713.177-1.069.008-.049.022-.1.033-.147V6.665c-.062-.38-.108-.764-.189-1.141A7.132,7.132,0,0,0,5.483,5.33a6.974,6.974,0,0,0,.971,5.775c.035.053.07.106.1.159a.056.056,0,0,1,.006.025l-1,1L4.9,11.6c-.052.045-.081.067-.106.093q-2.07,2.069-4.138,4.14a2.143,2.143,0,0,0,.76,3.557c.147.053.3.087.453.13ZM6.96,14.633,5.526,16.067c-.778.778-1.551,1.559-2.334,2.331a1.467,1.467,0,1,1-2.056-2.093Q2.964,14.467,4.8,12.637c.021-.021.046-.039.095-.08l.636.681,1.918-1.916a6.468,6.468,0,1,1,10.332-.641,6.223,6.223,0,0,1-3.7,2.679,6.446,6.446,0,0,1-5.958-1.346L6.685,13.468l-.249-.316-.49.479,1.013,1" transform="translate(0 0)" fill="#12263f"/>
        <path id="Trazado_752712" data-name="Trazado 752712" d="M51.216,56.351a5.39,5.39,0,1,0-5.4-5.374,5.386,5.386,0,0,0,5.4,5.374m4.7-5.393A4.713,4.713,0,1,1,51.2,46.25a4.713,4.713,0,0,1,4.717,4.708" transform="translate(-38.825 -43.828)" fill="#12263f"/>
        <path id="Trazado_752713" data-name="Trazado 752713" d="M415.561,433.57a.776.776,0,0,0,1.109.03c.327-.31.64-.634.956-.949l-.489-.475c-.267.268-.545.554-.834.831a1.1,1.1,0,0,1-.235.12.736.736,0,0,0-.134.1c-.122.11-.242.224-.375.347" transform="translate(-413.985 -415.658)" fill="#12263f"/>
        <path id="Trazado_752714" data-name="Trazado 752714" d="M87.747,87.4v.652a3.161,3.161,0,0,1,3.122,3.119h.644A3.737,3.737,0,0,0,87.747,87.4" transform="translate(-75.348 -84.057)" fill="#12263f"/>
      </g>
    </g>
    <g transform="matrix(1, 0, 0, 1, -7929.59, 3174.08)" filter="url(#Trazado_752715)">
      <g id="Trazado_752715-2" data-name="Trazado 752715" transform="translate(79.89 32.86)" fill="#fff">
        <path d="M 222.2044830322266 22.49302291870117 L 222.2044982910156 21.551513671875 C 222.2044982910156 20.06760406494141 220.9972381591797 18.86035346984863 219.5133361816406 18.86035346984863 L 210.191162109375 18.86035346984863 C 209.81005859375 18.86035346984863 209.5000152587891 18.55030250549316 209.5000152587891 18.16919326782227 L 209.5000152587891 11.0888729095459 C 209.5000152587891 10.707763671875 209.81005859375 10.39771366119385 210.191162109375 10.39771366119385 L 219.5105285644531 10.39771366119385 C 220.9944458007812 10.39771366119385 222.2016906738281 9.190463066101074 222.2016906738281 7.70655345916748 L 222.2016906738281 6.773022651672363 L 228.7539825439453 14.0441837310791 C 229.0550384521484 14.37891292572021 229.0550384521484 14.88479328155518 228.7533569335938 15.2202033996582 L 222.2044830322266 22.49302291870117 Z" stroke="none"/>
        <path d="M 222.9360504150391 9.081743240356445 C 222.3895874023438 10.43792152404785 221.0599975585938 11.39771270751953 219.5105285644531 11.39771270751953 L 210.5000152587891 11.39771270751953 L 210.5000152587891 17.86035346984863 L 219.5133361816406 17.86035346984863 C 221.0646667480469 17.86035346984863 222.3954925537109 18.82220649719238 222.9407196044922 20.18096923828125 L 227.9374542236328 14.63187980651855 L 222.9360504150391 9.081743240356445 M 221.8498992919922 5.208978652954102 C 222.0342102050781 5.209127426147461 222.2062377929688 5.285860061645508 222.3291625976562 5.420663833618164 L 229.4968566894531 13.37475299835205 C 230.1397705078125 14.0895528793335 230.1397705078125 15.17415332794189 229.4968566894531 15.88894367218018 L 222.3319702148438 23.84586334228516 C 222.0906982421875 24.11051559448242 221.6808624267578 24.12942123413086 221.4161987304688 23.88841247558594 C 221.2820129394531 23.76609420776367 221.2053527832031 23.59331321716309 221.2044982910156 23.41179275512695 L 221.2044982910156 21.551513671875 C 221.2044982910156 20.61743354797363 220.4474487304688 19.86035346984863 219.5133361816406 19.86035346984863 L 210.191162109375 19.86035346984863 C 209.2570953369141 19.86035346984863 208.5000152587891 19.10327339172363 208.5000152587891 18.16919326782227 L 208.5000152587891 11.0888729095459 C 208.5000152587891 10.15478324890137 209.2570953369141 9.397712707519531 210.191162109375 9.397712707519531 L 219.5105285644531 9.397712707519531 C 220.4446105957031 9.397712707519531 221.2016906738281 8.640632629394531 221.2016906738281 7.706552505493164 L 221.2016906738281 5.854732513427734 C 221.2030944824219 5.497636795043945 221.4931640625 5.208986282348633 221.8498992919922 5.208978652954102 Z" stroke="none" fill="#12263f"/>
      </g>
    </g>
    <g transform="matrix(1, 0, 0, 1, -7929.59, 3174.08)" filter="url(#Trazado_752718)">
      <g id="Trazado_752718-2" data-name="Trazado 752718" transform="translate(173.77 32.86)" fill="#fff">
        <path d="M 222.2044830322266 22.49302291870117 L 222.2044982910156 21.551513671875 C 222.2044982910156 20.06760406494141 220.9972381591797 18.86035346984863 219.5133361816406 18.86035346984863 L 210.191162109375 18.86035346984863 C 209.81005859375 18.86035346984863 209.5000152587891 18.55030250549316 209.5000152587891 18.16919326782227 L 209.5000152587891 11.0888729095459 C 209.5000152587891 10.707763671875 209.81005859375 10.39771366119385 210.191162109375 10.39771366119385 L 219.5105285644531 10.39771366119385 C 220.9944458007812 10.39771366119385 222.2016906738281 9.190463066101074 222.2016906738281 7.70655345916748 L 222.2016906738281 6.773022651672363 L 228.7539825439453 14.0441837310791 C 229.0550384521484 14.37891292572021 229.0550384521484 14.88479328155518 228.7533569335938 15.2202033996582 L 222.2044830322266 22.49302291870117 Z" stroke="none"/>
        <path d="M 222.9360504150391 9.081743240356445 C 222.3895874023438 10.43792152404785 221.0599975585938 11.39771270751953 219.5105285644531 11.39771270751953 L 210.5000152587891 11.39771270751953 L 210.5000152587891 17.86035346984863 L 219.5133361816406 17.86035346984863 C 221.0646667480469 17.86035346984863 222.3954925537109 18.82220649719238 222.9407196044922 20.18096923828125 L 227.9374542236328 14.63187980651855 L 222.9360504150391 9.081743240356445 M 221.8498992919922 5.208978652954102 C 222.0342102050781 5.209127426147461 222.2062377929688 5.285860061645508 222.3291625976562 5.420663833618164 L 229.4968566894531 13.37475299835205 C 230.1397705078125 14.0895528793335 230.1397705078125 15.17415332794189 229.4968566894531 15.88894367218018 L 222.3319702148438 23.84586334228516 C 222.0906982421875 24.11051559448242 221.6808624267578 24.12942123413086 221.4161987304688 23.88841247558594 C 221.2820129394531 23.76609420776367 221.2053527832031 23.59331321716309 221.2044982910156 23.41179275512695 L 221.2044982910156 21.551513671875 C 221.2044982910156 20.61743354797363 220.4474487304688 19.86035346984863 219.5133361816406 19.86035346984863 L 210.191162109375 19.86035346984863 C 209.2570953369141 19.86035346984863 208.5000152587891 19.10327339172363 208.5000152587891 18.16919326782227 L 208.5000152587891 11.0888729095459 C 208.5000152587891 10.15478324890137 209.2570953369141 9.397712707519531 210.191162109375 9.397712707519531 L 219.5105285644531 9.397712707519531 C 220.4446105957031 9.397712707519531 221.2016906738281 8.640632629394531 221.2016906738281 7.706552505493164 L 221.2016906738281 5.854732513427734 C 221.2030944824219 5.497636795043945 221.4931640625 5.208986282348633 221.8498992919922 5.208978652954102 Z" stroke="none" fill="#12263f"/>
      </g>
    </g>
    <g id="Grupo_1022823" data-name="Grupo 1022823" transform="translate(-7608.731 3196.248)">
      <g id="Grupo_1022825" data-name="Grupo 1022825" transform="translate(0 0)">
        <path id="Trazado_752708-3" data-name="Trazado 752708" d="M10.107,140.018c-.115.126-.216.243-.323.353A3.355,3.355,0,0,1,7.1,141.408a3.481,3.481,0,0,1-3.165-2.8,5.076,5.076,0,0,1-.073-.9q-.006-6.03,0-12.061c0-.024,0-.048-.006-.069-.217.071-.425.156-.641.208a2.616,2.616,0,0,1-3.175-2.063A2.02,2.02,0,0,1,0,123.358c0-4.426-.008-8.851,0-13.277a4.3,4.3,0,0,1,.66-2.194,4.859,4.859,0,0,1,3.483-2.382,5.073,5.073,0,0,1,.87-.072q5.076-.007,10.151,0a4.92,4.92,0,0,1,4.988,4.2,12.11,12.11,0,0,1,.057,1.926q.006,5.618,0,11.236a4.072,4.072,0,0,1-.089,1.132,2.546,2.546,0,0,1-1.945,1.883,2.588,2.588,0,0,1-1.824-.24c-.007.014-.018.028-.018.041q0,6.168.006,12.337a3.493,3.493,0,0,1-3.049,3.436,3.4,3.4,0,0,1-3.118-1.281l-.077-.088M5.254,125.408H5.237q0,.7,0,1.392c0,3.732-.009,7.464,0,11.2a1.95,1.95,0,0,0,1.2,1.843,1.935,1.935,0,0,0,2.058-.168A1.958,1.958,0,0,0,9.4,138q0-7.19,0-14.38c0-.038,0-.075,0-.113a.7.7,0,1,1,1.4.061q0,7.209,0,14.418a1.986,1.986,0,0,0,1.2,1.861,2.064,2.064,0,0,0,2.625-.765,2.424,2.424,0,0,0,.341-1.375q-.015-7.466-.023-14.931-.005-4.733,0-9.466c0-.2,0-.4.009-.6a.712.712,0,0,1,.657-.711.692.692,0,0,1,.727.558,1.33,1.33,0,0,1,.029.3q0,4.984,0,9.967c0,.2-.005.4.01.6a1.038,1.038,0,0,0,.082.35,1.245,1.245,0,0,0,1.337.709,1.2,1.2,0,0,0,1-.97,2.88,2.88,0,0,0,.039-.561q0-6.187,0-12.375a4.126,4.126,0,0,0-.214-1.414,3.482,3.482,0,0,0-1.909-2.058,3.963,3.963,0,0,0-1.7-.29q-4.888,0-9.776,0a6.4,6.4,0,0,0-.947.052,3.53,3.53,0,0,0-2.95,3.457q0,4.287,0,8.576,0,2.112,0,4.225a1.334,1.334,0,0,0,.418,1.06,1.185,1.185,0,0,0,1.318.2,1.109,1.109,0,0,0,.739-1.11q0-5.159,0-10.318a2.385,2.385,0,0,1,.02-.362.707.707,0,0,1,.682-.6.685.685,0,0,1,.689.585,2.681,2.681,0,0,1,.026.437q0,6.193,0,12.387" transform="translate(0 -92.854)" fill="#12263f"/>
        <path id="Trazado_752709-3" data-name="Trazado 752709" d="M39.086,5.44a5.436,5.436,0,0,1,10.873-.008,5.436,5.436,0,1,1-10.873.008m1.382.011a4.059,4.059,0,1,0,8.118,0,4.059,4.059,0,1,0-8.118,0" transform="translate(-34.424 0)" fill="#12263f"/>
      </g>
    </g>
    <g id="Grupo_1022827" data-name="Grupo 1022827" transform="translate(-7583.518 3218.351)">
      <g id="Grupo_1022826" data-name="Grupo 1022826" clip-path="url(#clip-path-6)">
        <path id="Trazado_752716" data-name="Trazado 752716" d="M0,12.966c.148-.283.3-.565.445-.851q.87-1.734,1.732-3.471a.3.3,0,0,1,.32-.2c1.039.008,2.079,0,3.118,0H5.9V3.382H5.1A1.334,1.334,0,0,1,5.067,3.2c0-.627-.008-1.254,0-1.88A1.247,1.247,0,0,1,6.415,0h17.57a1.251,1.251,0,0,1,1.358,1.354q0,.891,0,1.781c0,.072-.007.144-.013.236h-.82V19.408H22.4V18.6h1.233V3.393H6.782V8.435h6.176L12.551,7.4c.086-.041.164-.081.244-.115L14.9,6.369a1.322,1.322,0,0,1,1.927.806q2.787,7.264,5.577,14.527a1.312,1.312,0,0,1-.021,1.254,1.2,1.2,0,0,1-.449.442c-.9.422-1.817.812-2.758,1.227L17.792,21l-.043,0c0,.076-.012.152-.012.228q0,1.905,0,3.81c0,.1-.01.2-.016.295H0V12.966M.849,24.48H16.878c.005-.07.013-.126.013-.182q0-2.746,0-5.492a.964.964,0,0,0-.069-.334c-.6-1.576-1.216-3.148-1.814-4.726a.314.314,0,0,0-.357-.238q-6.767.009-13.535,0H.849ZM13.644,7.814l6.04,15.709,1.661-.7c.4-.169.473-.337.313-.752L19.8,17.258,15.992,7.375c-.119-.31-.3-.43-.555-.326-.594.24-1.18.5-1.794.764m-7.718-5.3H24.5c0-.358,0-.695,0-1.032,0-.535-.1-.635-.633-.635H6.544A1.793,1.793,0,0,0,6.272.85a.351.351,0,0,0-.342.333c-.014.442,0,.886,0,1.327m8.64,10.148c-.133-.364-.268-.707-.38-1.057a.261.261,0,0,0-.3-.207c-.98.008-1.961.015-2.941,0a.45.45,0,0,0-.5.314c-.133.32-.3.625-.465.953ZM9.655,11.435c-.046-.021-.061-.032-.075-.032-1.162,0-2.324,0-3.486,0a.234.234,0,0,0-.177.091c-.2.376-.384.759-.574,1.139.034.018.047.031.06.031,1.17,0,2.341,0,3.511,0a.228.228,0,0,0,.171-.1c.2-.37.378-.747.572-1.135m1.051-2.1c-.043-.021-.057-.034-.071-.034q-1.753,0-3.506,0a.205.205,0,0,0-.156.081c-.2.376-.385.757-.573,1.134.032.02.039.027.045.027q1.765.006,3.529.009a.191.191,0,0,0,.146-.061c.2-.383.392-.77.585-1.156M5.026,11.4c-1.094,0-2.131,0-3.167,0a.211.211,0,0,0-.16.079c-.2.383-.391.772-.6,1.188,1.087,0,2.131,0,3.176,0a.2.2,0,0,0,.155-.082c.2-.377.383-.759.595-1.184m-2.868-.846c1.085,0,2.124,0,3.162,0a.214.214,0,0,0,.164-.075c.2-.376.383-.758.572-1.137C6.016,9.315,6,9.3,5.99,9.3,4.959,9.3,3.928,9.3,2.9,9.3a.205.205,0,0,0-.153.088c-.193.371-.377.747-.585,1.166m11.6-.013c-.156-.393-.3-.767-.457-1.135a.219.219,0,0,0-.164-.105c-.452-.009-.9-.007-1.357,0-.051,0-.129.019-.147.054-.2.387-.4.779-.6,1.189Z" transform="translate(0 0.001)" fill="#12263f"/>
        <rect id="Rectángulo_358795" data-name="Rectángulo 358795" width="3.341" height="0.821" transform="translate(19.024 4.663)" fill="#12263f"/>
        <rect id="Rectángulo_358796" data-name="Rectángulo 358796" width="3.347" height="0.817" transform="translate(19.023 6.348)" fill="#12263f"/>
        <path id="Trazado_752717" data-name="Trazado 752717" d="M51.524,145.573c-.874,0-1.748.011-2.621,0a1.185,1.185,0,0,1-1.121-.822,1.281,1.281,0,0,1,.359-1.4,1.252,1.252,0,0,1,.842-.3c1.682,0,3.364-.007,5.045,0a1.264,1.264,0,1,1,.018,2.527c-.841.013-1.682,0-2.523,0v0m-.006-.841h1.039c.5,0,1.006,0,1.508-.005a.382.382,0,0,0,.4-.385.407.407,0,0,0-.369-.446,1.5,1.5,0,0,0-.222-.008H49.151a1.465,1.465,0,0,0-.246.011.392.392,0,0,0-.348.436c.011.255.165.395.464.4.832,0,1.665,0,2.5,0" transform="translate(-42.638 -127.844)" fill="#12263f"/>
        <rect id="Rectángulo_358797" data-name="Rectángulo 358797" width="3.35" height="0.808" transform="translate(2.128 20.706)" fill="#12263f"/>
        <rect id="Rectángulo_358798" data-name="Rectángulo 358798" width="3.349" height="0.808" transform="translate(2.128 22.395)" fill="#12263f"/>
      </g>
    </g>
    <path id="Trazado_765811" data-name="Trazado 765811" d="M11.081,0A11.081,11.081,0,1,1,0,11.081,11.081,11.081,0,0,1,11.081,0Z" transform="translate(-7500.78 3174.085)" fill="#91b3fa"/>
    <path id="Trazado_765812" data-name="Trazado 765812" d="M9.284,0A9.284,9.284,0,1,1,0,9.284,9.284,9.284,0,0,1,9.284,0Z" transform="translate(-7498.983 3175.882)" fill="#fff"/>
    <path id="Trazado_765813" data-name="Trazado 765813" d="M.832-4.2l.492-4.336H6.105v1.412H2.713L2.5-5.285a2.685,2.685,0,0,1,1.283-.322,2.459,2.459,0,0,1,1.91.756,3.019,3.019,0,0,1,.691,2.115,3.093,3.093,0,0,1-.349,1.479,2.461,2.461,0,0,1-1,1.014A3.119,3.119,0,0,1,3.5.117,3.312,3.312,0,0,1,2.068-.2a2.546,2.546,0,0,1-1.046-.882A2.4,2.4,0,0,1,.615-2.373H2.291a1.252,1.252,0,0,0,.372.829,1.18,1.18,0,0,0,.835.3,1.041,1.041,0,0,0,.885-.413A1.914,1.914,0,0,0,4.693-2.83a1.582,1.582,0,0,0-.357-1.113A1.312,1.312,0,0,0,3.322-4.33a1.466,1.466,0,0,0-.979.316l-.164.152Z" transform="translate(-7493.09 3189.07)" fill="#12263f"/>
  </g>
</svg>
