<svg xmlns="http://www.w3.org/2000/svg" width="26.82" height="62.054" viewBox="0 0 26.82 62.054">
  <path id="Trazado_762823" data-name="Trazado 762823" d="M635.192,247.46a5.311,5.311,0,0,1-1.27-2.847,31.313,31.313,0,0,1-.425-5.929,30.426,30.426,0,0,1,.375-5.556,4.2,4.2,0,0,1,1.2-2.524,3.345,3.345,0,0,1,2.151-.661,3.743,3.743,0,0,1,2.2.575,3.816,3.816,0,0,1,1.186,2.423,31.418,31.418,0,0,1,.373,5.675,29.471,29.471,0,0,1-.458,5.946,5.724,5.724,0,0,1-1.288,2.881,2.806,2.806,0,0,1-2.015.8A2.9,2.9,0,0,1,635.192,247.46Zm-1.219,26.884a17.9,17.9,0,0,1-.711-5.946v-4.98a16.609,16.609,0,0,1,1.1-6.862q1.1-2.319,2.931-2.321,1.93,0,2.828,2.356a19.949,19.949,0,0,1,.9,6.792v4.879a37.657,37.657,0,0,1-.22,4.506,4.461,4.461,0,0,1-1.019,2.592,3.3,3.3,0,0,1-2.487.831Q634.682,276.191,633.973,274.344Zm12.959,5.794q3.134-3.812,3.135-11.672v-4.1a28.16,28.16,0,0,0-.56-5.692,19.138,19.138,0,0,0-1.626-4.812,8.546,8.546,0,0,0-2.592-3.185,9.658,9.658,0,0,0,3.643-5.133,25.01,25.01,0,0,0,1.1-7.741q0-7.962-2.931-11.435t-9.842-3.473q-6.777,0-9.809,3.557T624.418,237.8a24.15,24.15,0,0,0,1.135,7.69,10.078,10.078,0,0,0,3.641,5.184,8.564,8.564,0,0,0-2.693,3.169,18.424,18.424,0,0,0-1.678,4.794,27.623,27.623,0,0,0-.577,5.727v4.269q0,7.758,3.254,11.536t9.758,3.778Q643.8,283.949,646.932,280.138Z" transform="translate(-623.747 -222.396)" fill="none" stroke="#12263f" stroke-miterlimit="10" stroke-width="1"/>
</svg>
