<svg xmlns="http://www.w3.org/2000/svg" xmlns:xlink="http://www.w3.org/1999/xlink" width="152" height="152" viewBox="0 0 152 152">
  <defs>
    <clipPath id="clip-path">
      <rect id="Rect치ngulo_357368" data-name="Rect치ngulo 357368" width="76.296" height="74.999" fill="#12263f"/>
    </clipPath>
    <linearGradient id="linear-gradient" x1="0.5" x2="0.5" y2="1" gradientUnits="objectBoundingBox">
      <stop offset="0" stop-color="#fff"/>
      <stop offset="0.463" stop-color="#e9fffe"/>
      <stop offset="1" stop-color="#fff"/>
    </linearGradient>
  </defs>
  <g id="Grupo_1024436" data-name="Grupo 1024436" transform="translate(7.173 7)">
    <g id="Grupo_1020472" data-name="Grupo 1020472">
      <circle id="Elipse_8460" data-name="Elipse 8460" cx="76" cy="76" r="76" transform="translate(-7.173 -7)" fill="#91b3fa" opacity="0.45"/>
      <circle id="Elipse_8461" data-name="Elipse 8461" cx="62" cy="62" r="62" transform="translate(6.827 7)" fill="#fff"/>
      <g id="Grupo_1020664" data-name="Grupo 1020664" transform="translate(34.68 33.418)">
        <g id="Grupo_1020475" data-name="Grupo 1020475" clip-path="url(#clip-path)">
          <path id="Trazado_748187" data-name="Trazado 748187" d="M64.661,26.248c-.018.279-.051.555-.051.83-.006,4.53.031,9.061-.038,13.59-.017,1.116.395,1.364,1.389,1.344,2.524-.05,5.05-.041,7.575-.026a2.478,2.478,0,0,1,2.737,2.645q.045,8.956,0,17.912c-.011,1.859-.991,2.735-2.851,2.746-.94.005-1.881,0-2.905,0-.029.476-.071.85-.072,1.224-.006,1.756,0,3.512,0,5.268C70.44,74.049,69.5,75,67.264,75q-10.695,0-21.39,0c-2.251,0-3.135-.88-3.138-3.1q-.005-3.846,0-7.692c0-1.608,0-1.61-1.565-1.61H5.452c-.492,0-.984.012-1.475-.011a3.478,3.478,0,0,1,.054-6.939c.347-.014.694,0,1.143,0V26.3a10.709,10.709,0,0,1-2.5-.032,3.465,3.465,0,0,1-2.532-4.4Q2.88,12.275,5.7,2.7A3.463,3.463,0,0,1,8.859.022a3.608,3.608,0,0,1,3.783,2.255,1.111,1.111,0,0,0,.849.508,1.268,1.268,0,0,0,.923-.547A3.632,3.632,0,0,1,17.816,0a3.582,3.582,0,0,1,3.395,2.23,1.2,1.2,0,0,0,.927.541,1.267,1.267,0,0,0,.887-.606A3.6,3.6,0,0,1,26.356.006a3.669,3.669,0,0,1,3.426,2.2,1.236,1.236,0,0,0,.9.577,1.247,1.247,0,0,0,.905-.578A3.641,3.641,0,0,1,34.906.009,3.589,3.589,0,0,1,38.328,2.2a1,1,0,0,0,1.828.013A3.7,3.7,0,0,1,46.9,2.177a1.21,1.21,0,0,0,.9.592,1.4,1.4,0,0,0,.975-.651A3.575,3.575,0,0,1,52.145.005,3.4,3.4,0,0,1,55.4,2.1c.242.5.49.911,1.066.7a1.872,1.872,0,0,0,.9-.756A3.637,3.637,0,0,1,60.888.008a3.333,3.333,0,0,1,3.191,2.341c.742,2.188,1.33,4.429,1.979,6.649,1.178,4.034,2.335,8.075,3.534,12.1,1.037,3.483-1.019,5.815-4.573,5.149a2.232,2.232,0,0,0-.357,0m-2.62-2.282c-.4,0-.683.021-.958,0a2.369,2.369,0,0,0-2.512,1.131,3.4,3.4,0,0,1-5.577-.1,2.081,2.081,0,0,0-2.232-1.032,3.735,3.735,0,0,1-.842,0,1.354,1.354,0,0,0-1.481.8,3.558,3.558,0,0,1-6.055.019,1.473,1.473,0,0,0-1.6-.821,4.433,4.433,0,0,1-1.052,0,1.724,1.724,0,0,0-1.866.947,3.473,3.473,0,0,1-5.786.032,1.91,1.91,0,0,0-2.05-.975,4.921,4.921,0,0,1-.947,0,1.389,1.389,0,0,0-1.506.784,3.525,3.525,0,0,1-5.932.207,1.935,1.935,0,0,0-2.053-.993,9.158,9.158,0,0,0-1.257.031,1.91,1.91,0,0,0-1.061.609,3.634,3.634,0,0,1-6.4-.073A1.139,1.139,0,0,0,10.213,24c-.752-.069-1.514-.025-2.257-.025V55.635h2.6c1.531,0,1.534,0,1.534-1.557q0-10.114,0-20.228c0-1.669.319-1.976,1.954-1.978,2.177,0,4.355-.018,6.532.01a1.36,1.36,0,0,0,1.361-.7A4.7,4.7,0,0,1,30,31.207a1.267,1.267,0,0,0,1.262.672c2.177-.019,4.355-.011,6.532,0,1.369.005,1.723.363,1.725,1.755q.009,4.794,0,9.588c0,3.793-.011,7.586.019,11.378,0,.342.24.955.423.976a24.458,24.458,0,0,0,2.768.046c0-1.741-.01-3.317,0-4.892a2.6,2.6,0,0,1,2.888-2.852c1.334-.01,2.669,0,4,0h3.337c0-1.162-.029-2.176.007-3.188a2.565,2.565,0,0,1,2.8-2.721c1.72-.006,3.442-.024,5.16.047.911.038,1.208-.234,1.2-1.179-.042-5.268-.017-10.536-.019-15.8,0-.308-.04-.616-.071-1.064m5.748,26.427c-1.5,0-2.9.025-4.291-.01-.729-.018-.982.253-.971.984.035,2.212.039,4.425-.009,6.636a2.261,2.261,0,0,1-.464,1.419c-1.413,1.464-2.9,2.86-4.382,4.253-.823.772-1.367.762-2.189-.009-1.383-1.3-2.8-2.568-4.085-3.953a3.221,3.221,0,0,1-.8-1.913c-.093-2.414-.037-4.833-.037-7.41-1.455,0-2.817.054-4.171-.018-.963-.051-1.174.333-1.171,1.224q.041,9.849-.012,19.7c0,.89.208,1.225,1.169,1.22q10.165-.051,20.33.01c.842,0,1.152-.188,1.147-1.1-.034-6.671-.013-13.343-.013-20.014,0-.278-.028-.555-.053-1.021M37.007,34.447c-1.894,0-3.678.021-5.46-.011a.959.959,0,0,0-1.12.793,4.169,4.169,0,0,1-2.63,2.819c-.785.286-.929.716-.924,1.468.031,4.944.016,9.889.02,14.834,0,.339.039.679.061,1.049H37.007ZM24.4,55.429c0-5.664.006-11.2-.02-16.738a1,1,0,0,0-.469-.7A5.053,5.053,0,0,1,21.4,35.024c-.073-.232-.391-.548-.6-.553-2.023-.042-4.047-.025-6.087-.025V55.429Zm31.174-7.555h1.231q5.209,0,10.418,0c2.237,0,3.212.968,3.217,3.188.009,3.508,0,7.016.008,10.524,0,.373.037.745.057,1.131h3.154V44.536H55.576Zm-12.894,10.3c-.385-.024-.659-.056-.933-.056q-18.426-.005-36.853,0c-.28,0-.64-.078-.821.063-.324.251-.753.649-.741.97s.477.676.819.9c.2.131.546.04.827.04q18.268,0,36.537,0c.373,0,.746-.032,1.166-.052Zm13.9,3.021c1.105-1.066,2.178-2.067,3.2-3.116a1.363,1.363,0,0,0,.237-.868c.02-1.966-.013-3.934.025-5.9.013-.679-.2-.948-.891-.937-1.72.028-3.442.03-5.162-.007-.711-.015-.9.281-.9.941.027,1.966,0,3.933.024,5.9a1.486,1.486,0,0,0,.3.948c1,1.023,2.06,1.992,3.161,3.04M67.484,22.967c-.12-.408-.169-.575-.218-.742q-2.7-9.28-5.4-18.56c-.213-.732-.6-1.371-1.485-1.086-.807.261-1,.912-.674,1.7a5.966,5.966,0,0,1,.163.608q1.844,6.358,3.691,12.714c.519,1.782,1.054,3.56,1.58,5.34.2.666.656,1.084,1.32.877.416-.129.728-.6,1.021-.855M10.451,3.46c-.317-.279-.692-.872-1.071-.874a1.594,1.594,0,0,0-1.213.857c-.631,1.815-1.116,3.68-1.653,5.527q-1.877,6.449-3.756,12.9c-.229.782-.416,1.561.563,1.954.729.294,1.259-.175,1.618-1.34.021-.067.044-.133.064-.2q2.065-7.1,4.128-14.207c.419-1.444.828-2.891,1.32-4.614M57.006,22.966c-.365-1.886-.671-3.467-.977-5.046Q54.65,10.813,53.272,3.707c-.145-.747-.54-1.309-1.336-1.157-.821.156-1.056.772-.87,1.611.332,1.5.59,3.021.884,4.532q1.369,7.056,2.737,14.113c.143.742.58,1.206,1.3,1.02.426-.11.749-.617,1.023-.86M19,3.467c-.247-.235-.594-.832-.986-.864s-.9.437-1.252.79c-.187.188-.162.593-.222.9Q15.514,9.55,14.49,14.805q-.735,3.76-1.475,7.519c-.142.72.054,1.3.783,1.5.8.217,1.263-.208,1.427-.99.043-.206.094-.41.134-.616q1.259-6.489,2.516-12.979c.353-1.819.71-3.637,1.126-5.771M23.47,22h.016c-.007.14-.01.281-.022.42-.065.749.106,1.379.981,1.44.92.064,1.182-.556,1.236-1.35.04-.594.139-1.184.2-1.777q.79-8.217,1.578-16.435c.1-1.065-.225-1.718-.965-1.792s-1.213.527-1.3,1.59q-.149,1.728-.314,3.455-.7,7.224-1.4,14.448M42.448,4.117c.013.258.015.434.032.608q.642,6.645,1.288,13.289c.153,1.57.3,3.141.489,4.708.09.762.508,1.261,1.341,1.123.78-.13.966-.727.908-1.424-.032-.384-.118-.762-.155-1.146q-.837-8.634-1.659-17.269c-.077-.825-.3-1.547-1.244-1.466s-1.1.84-1,1.576m-6.381,9.127h0q0-4.315,0-8.629c0-.21-.008-.421,0-.631.03-.8-.239-1.472-1.124-1.448-.856.024-1.115.681-1.114,1.487q.015,9.155,0,18.309c0,.826.179,1.535,1.153,1.528,1-.007,1.1-.766,1.1-1.567-.011-3.017,0-6.033,0-9.049m-7.715,8.228h1.6c1.37,0,1.371,0,1.371-1.388q0-6.674,0-13.348V5.557c-1.131-.377-1.485-.072-1.555,1-.165,2.511-.5,5.012-.739,7.518-.233,2.4-.44,4.8-.677,7.4M47.4,5.539c.178,1.787.358,3.526.522,5.268.305,3.247.586,6.5.924,9.741.034.322.367.83.622.872a14.964,14.964,0,0,0,2.32.042c-.036-.365-.04-.536-.072-.7-.938-4.777-1.912-9.547-2.789-14.335-.174-.95-.506-1.2-1.527-.885m-8.751-.083c0,5.178-.007,10.232.023,15.285a.891.891,0,0,0,.517.682,22.6,22.6,0,0,0,2.4.033l-1.553-16ZM21.192,5.439,18.1,21.383H20.99c.518-5.35,1.029-10.621,1.545-15.944ZM7.908,21.342c2.6.395,2.645.378,3.109-1.951.623-3.125,1.216-6.256,1.822-9.385.289-1.493.577-2.986.862-4.46-.878-.315-1.212-.037-1.416.694-.715,2.565-1.494,5.112-2.238,7.669-.712,2.448-1.411,4.9-2.14,7.434m48.3-15.784c.991,5.106,1.97,10.189,2.988,15.264a.984.984,0,0,0,.673.608,16.192,16.192,0,0,0,2.077.029c-.07-.405-.09-.676-.164-.932C60.4,15.756,59.01,10.99,57.646,6.215c-.209-.732-.572-.988-1.437-.657M25.947,31.52a2.19,2.19,0,0,0-2.226,2.162,2.237,2.237,0,0,0,4.473-.031,2.152,2.152,0,0,0-2.247-2.131" transform="translate(0 0)" fill="#12263f"/>
          <path id="Trazado_748188" data-name="Trazado 748188" d="M91.829,113.579c.031.448.071.756.071,1.064,0,5.268-.023,10.536.019,15.8.008.945-.289,1.217-1.2,1.179-1.718-.071-3.44-.053-5.16-.047a2.565,2.565,0,0,0-2.8,2.721c-.035,1.011-.006,2.025-.006,3.188H79.418c-1.335,0-2.669-.009-4,0a2.6,2.6,0,0,0-2.888,2.852c-.012,1.576,0,3.151,0,4.893a24.457,24.457,0,0,1-2.768-.046c-.183-.021-.421-.634-.423-.976-.03-3.792-.019-7.585-.019-11.378q0-4.794,0-9.587c0-1.391-.356-1.75-1.725-1.755-2.177-.008-4.355-.016-6.532,0a1.268,1.268,0,0,1-1.262-.672,4.694,4.694,0,0,0-8.059-.023,1.361,1.361,0,0,1-1.361.7c-2.177-.029-4.355-.014-6.532-.011-1.636,0-1.953.31-1.954,1.978q-.01,10.114,0,20.228c0,1.556,0,1.557-1.534,1.557h-2.6V113.583c.743,0,1.505-.043,2.257.025a1.138,1.138,0,0,1,.667.529,3.634,3.634,0,0,0,6.4.073,1.909,1.909,0,0,1,1.061-.609,9.155,9.155,0,0,1,1.257-.031,1.935,1.935,0,0,1,2.054.993,3.525,3.525,0,0,0,5.932-.207,1.389,1.389,0,0,1,1.506-.784,4.886,4.886,0,0,0,.947,0,1.911,1.911,0,0,1,2.05.975,3.473,3.473,0,0,0,5.785-.032,1.725,1.725,0,0,1,1.866-.947,4.433,4.433,0,0,0,1.052,0,1.473,1.473,0,0,1,1.6.821,3.558,3.558,0,0,0,6.055-.019,1.355,1.355,0,0,1,1.481-.8,3.733,3.733,0,0,0,.842,0,2.082,2.082,0,0,1,2.232,1.032,3.4,3.4,0,0,0,5.577.1,2.368,2.368,0,0,1,2.512-1.131c.276.025.556,0,.958,0m-11.614,14.7h-.007c0-1.615.008-3.23,0-4.845-.008-1.347-.426-1.772-1.743-1.778q-2.422-.012-4.845,0c-1.1,0-1.621.385-1.637,1.456-.049,3.37-.042,6.741-.009,10.111a1.335,1.335,0,0,0,1.542,1.454c1.685-.032,3.37-.005,5.056-.013,1.179-.005,1.644-.479,1.645-1.656q0-2.365,0-4.729" transform="translate(-29.789 -89.613)" fill="#dee4f0"/>
          <path id="Trazado_748189" data-name="Trazado 748189" d="M237.068,239c.025.466.053.743.053,1.021,0,6.672-.021,13.343.013,20.014,0,.909-.305,1.1-1.147,1.1q-10.165-.052-20.33-.01c-.961,0-1.174-.33-1.169-1.22q.052-9.849.013-19.7c0-.891.208-1.276,1.171-1.224,1.355.072,2.716.018,4.171.018,0,2.577-.056,5,.037,7.41a3.22,3.22,0,0,0,.8,1.913c1.29,1.385,2.7,2.656,4.085,3.953.823.771,1.366.781,2.189.009,1.484-1.393,2.969-2.789,4.382-4.253a2.26,2.26,0,0,0,.464-1.419c.048-2.211.044-4.424.009-6.636-.012-.732.242-1,.971-.984,1.4.035,2.794.01,4.291.01" transform="translate(-169.28 -188.602)" fill="#f0dcc0"/>
          <path id="Trazado_748190" data-name="Trazado 748190" d="M137.629,163.388V184.34H127.577c-.022-.37-.061-.709-.061-1.049,0-4.945.012-9.89-.02-14.834,0-.752.14-1.182.924-1.468a4.169,4.169,0,0,0,2.63-2.819.959.959,0,0,1,1.12-.793c1.782.032,3.565.011,5.46.011" transform="translate(-100.623 -128.942)" fill="#727997"/>
          <path id="Trazado_748191" data-name="Trazado 748191" d="M79.487,184.4H69.8V163.421c2.039,0,4.064-.017,6.087.025.21,0,.528.32.6.553A5.052,5.052,0,0,0,79,166.968a1,1,0,0,1,.469.7c.026,5.537.02,11.074.02,16.738" transform="translate(-55.085 -128.974)" fill="#727997"/>
          <path id="Trazado_748192" data-name="Trazado 748192" d="M263.679,214.641V211.3h18.085v18.182H278.61c-.02-.386-.057-.759-.057-1.131-.005-3.508,0-7.016-.007-10.524-.006-2.219-.981-3.183-3.217-3.187q-5.209-.01-10.418,0h-1.231" transform="translate(-208.103 -166.767)" fill="#f0dcc0"/>
          <path id="Trazado_748194" data-name="Trazado 748194" d="M255.386,249.812c-1.1-1.048-2.159-2.017-3.161-3.04a1.487,1.487,0,0,1-.3-.948c-.027-1.966,0-3.933-.024-5.9-.009-.659.185-.956.9-.941,1.72.037,3.442.035,5.162.007.694-.011.9.258.89.937-.038,1.966,0,3.933-.024,5.9a1.364,1.364,0,0,1-.237.868c-1.024,1.049-2.1,2.051-3.2,3.117" transform="translate(-198.808 -188.613)" fill="#fe7062"/>
          <path id="Trazado_748195" data-name="Trazado 748195" d="M290.5,32.365c-.293.258-.6.725-1.021.855-.664.207-1.123-.211-1.32-.877-.526-1.78-1.061-3.558-1.581-5.34q-1.852-6.356-3.691-12.714a5.959,5.959,0,0,0-.163-.608c-.325-.792-.133-1.443.674-1.7.882-.285,1.272.355,1.485,1.086q2.705,9.278,5.4,18.56c.049.167.1.334.217.742" transform="translate(-223.016 -9.398)" fill="#e8e8e8"/>
          <path id="Trazado_748196" data-name="Trazado 748196" d="M20.092,13.142c-.493,1.723-.9,3.17-1.32,4.615q-2.061,7.1-4.128,14.207c-.02.067-.043.133-.064.2-.359,1.165-.889,1.633-1.618,1.34-.978-.394-.791-1.172-.563-1.955q1.885-6.447,3.756-12.9c.537-1.847,1.023-3.712,1.653-5.527a1.594,1.594,0,0,1,1.213-.856c.379,0,.755.6,1.071.874" transform="translate(-9.641 -9.682)" fill="#e8e8e8"/>
          <path id="Trazado_748197" data-name="Trazado 748197" d="M247.994,32.421c-.273.243-.6.75-1.022.86-.717.186-1.154-.279-1.3-1.02q-1.359-7.058-2.737-14.113c-.293-1.511-.552-3.029-.884-4.532-.185-.839.049-1.455.87-1.611.8-.152,1.192.41,1.336,1.157q1.375,7.107,2.757,14.212c.307,1.58.612,3.16.977,5.046" transform="translate(-190.989 -9.455)" fill="#e8e8e8"/>
          <path id="Trazado_748198" data-name="Trazado 748198" d="M67.575,13.209c-.417,2.134-.774,3.952-1.126,5.771q-1.259,6.489-2.516,12.979c-.04.206-.091.41-.134.616-.164.782-.631,1.206-1.427.99-.729-.2-.925-.778-.783-1.5q.744-3.758,1.475-7.519,1.027-5.254,2.052-10.51c.06-.309.035-.714.222-.9.353-.353.851-.823,1.252-.79s.739.629.986.864" transform="translate(-48.573 -9.742)" fill="#e8e8e8"/>
          <path id="Trazado_748199" data-name="Trazado 748199" d="M111.285,31.365q.7-7.224,1.4-14.448.167-1.727.314-3.455c.092-1.063.578-1.663,1.3-1.59s1.068.727.965,1.792q-.8,8.217-1.578,16.435c-.057.593-.156,1.183-.2,1.777-.054.794-.316,1.414-1.236,1.35-.874-.061-1.045-.691-.981-1.44.012-.14.015-.28.022-.42h-.016" transform="translate(-87.815 -9.365)" fill="#e8e8e8"/>
          <path id="Trazado_748200" data-name="Trazado 748200" d="M201.3,13.607c-.1-.736.058-1.5,1-1.576s1.167.641,1.244,1.466q.807,8.636,1.659,17.269c.037.383.124.762.155,1.146.058.7-.129,1.295-.908,1.424-.833.138-1.251-.36-1.341-1.123-.185-1.567-.336-3.138-.489-4.708q-.649-6.644-1.288-13.289c-.017-.175-.019-.351-.032-.608" transform="translate(-158.848 -9.49)" fill="#e8e8e8"/>
          <path id="Trazado_748201" data-name="Trazado 748201" d="M162.718,22.738c0,3.017-.007,6.033,0,9.049,0,.8-.092,1.56-1.1,1.568-.974.007-1.154-.7-1.153-1.528q.014-9.155,0-18.309c0-.806.258-1.464,1.114-1.487.885-.025,1.154.645,1.124,1.447-.008.21,0,.421,0,.631v8.628Z" transform="translate(-126.652 -9.494)" fill="#e8e8e8"/>
          <path id="Trazado_748202" data-name="Trazado 748202" d="M134.516,41.7c.237-2.6.444-5,.677-7.4.243-2.507.574-5.007.739-7.518.071-1.074.424-1.378,1.555-1v1.178q0,6.674,0,13.349c0,1.386,0,1.386-1.371,1.388h-1.6" transform="translate(-106.164 -20.228)" fill="#afafaf"/>
          <path id="Trazado_748203" data-name="Trazado 748203" d="M224.883,25.791c1.021-.32,1.353-.065,1.527.885.876,4.788,1.851,9.558,2.789,14.335.032.165.036.337.072.7a14.962,14.962,0,0,1-2.32-.042c-.255-.041-.588-.549-.622-.872-.339-3.244-.619-6.493-.925-9.741-.164-1.741-.344-3.481-.522-5.268" transform="translate(-177.484 -20.251)" fill="#afafaf"/>
          <path id="Trazado_748204" data-name="Trazado 748204" d="M183.36,25.885h1.385l1.553,16a22.6,22.6,0,0,1-2.4-.033.891.891,0,0,1-.517-.682c-.03-5.053-.023-10.107-.023-15.285" transform="translate(-144.713 -20.429)" fill="#afafaf"/>
          <path id="Trazado_748205" data-name="Trazado 748205" d="M88.972,25.8h1.343L88.77,41.749H85.882L88.972,25.8" transform="translate(-67.781 -20.366)" fill="#afafaf"/>
          <path id="Trazado_748206" data-name="Trazado 748206" d="M37.516,41.627c.729-2.535,1.428-4.986,2.14-7.434.744-2.557,1.522-5.1,2.238-7.669.2-.731.538-1.009,1.416-.694-.285,1.474-.573,2.967-.862,4.461-.606,3.128-1.2,6.259-1.822,9.385-.464,2.329-.51,2.346-3.109,1.951" transform="translate(-29.609 -20.285)" fill="#afafaf"/>
          <path id="Trazado_748207" data-name="Trazado 748207" d="M266.682,25.836c.866-.331,1.228-.075,1.437.657,1.364,4.775,2.758,9.541,4.137,14.312.074.256.094.527.164.932a16.112,16.112,0,0,1-2.077-.029.983.983,0,0,1-.673-.608c-1.017-5.075-2-10.158-2.988-15.264" transform="translate(-210.473 -20.278)" fill="#afafaf"/>
          <path id="Trazado_748208" data-name="Trazado 748208" d="M114.767,149.549a2.152,2.152,0,0,1,2.247,2.131,2.237,2.237,0,0,1-4.473.031,2.19,2.19,0,0,1,2.226-2.162" transform="translate(-88.82 -118.029)" fill="#e6b046"/>
          <path id="Trazado_748209" data-name="Trazado 748209" d="M208.281,158.636q0,2.365,0,4.729c0,1.177-.466,1.651-1.645,1.656-1.685.008-3.371-.019-5.056.013a1.335,1.335,0,0,1-1.542-1.454c-.032-3.37-.04-6.741.009-10.11.016-1.071.535-1.452,1.637-1.456q2.422-.01,4.845,0c1.317.007,1.734.431,1.743,1.778.01,1.615,0,3.23,0,4.845Zm-2.643-4.042h-2.946v7.9h2.946Z" transform="translate(-157.855 -119.969)" fill="#12263f"/>
          <rect id="Rect치ngulo_357367" data-name="Rect치ngulo 357367" width="2.946" height="7.904" transform="translate(44.837 34.625)" fill="url(#linear-gradient)"/>
        </g>
      </g>
    </g>
  </g>
</svg>
