<svg xmlns="http://www.w3.org/2000/svg" xmlns:xlink="http://www.w3.org/1999/xlink" width="602.032" height="359.617" viewBox="0 0 602.032 359.617">
  <defs>
    <clipPath id="clip-path">
      <rect id="Rectángulo_352791" data-name="Rectángulo 352791" width="303.005" height="154.578" fill="#12263f"/>
    </clipPath>
    <clipPath id="clip-path-2">
      <rect id="Rectángulo_360295" data-name="Rectángulo 360295" width="435.408" height="359.617" fill="none"/>
    </clipPath>
    <clipPath id="clip-path-6">
      <rect id="Rectángulo_360267" data-name="Rectángulo 360267" width="21.192" height="13.285" fill="none"/>
    </clipPath>
    <clipPath id="clip-path-7">
      <rect id="Rectángulo_360268" data-name="Rectángulo 360268" width="2.511" height="2.511" fill="none"/>
    </clipPath>
    <clipPath id="clip-path-8">
      <rect id="Rectángulo_360269" data-name="Rectángulo 360269" width="2.636" height="2.624" fill="none"/>
    </clipPath>
    <clipPath id="clip-path-9">
      <rect id="Rectángulo_360270" data-name="Rectángulo 360270" width="33.93" height="2.734" fill="none"/>
    </clipPath>
    <clipPath id="clip-path-10">
      <rect id="Rectángulo_360271" data-name="Rectángulo 360271" width="16.779" height="3.444" fill="none"/>
    </clipPath>
    <clipPath id="clip-path-14">
      <rect id="Rectángulo_360291" data-name="Rectángulo 360291" width="49.687" height="71.442" fill="#bfaf99"/>
    </clipPath>
    <clipPath id="clip-path-15">
      <rect id="Rectángulo_358199" data-name="Rectángulo 358199" width="242.3" height="181.892" fill="none"/>
    </clipPath>
    <clipPath id="clip-path-16">
      <rect id="Rectángulo_356484" data-name="Rectángulo 356484" width="115.079" height="20.743" fill="none"/>
    </clipPath>
    <clipPath id="clip-path-17">
      <rect id="Rectángulo_360296" data-name="Rectángulo 360296" width="80.539" height="80.539" fill="none"/>
    </clipPath>
  </defs>
  <g id="Grupo_1023331" data-name="Grupo 1023331" transform="translate(8715 -195.686)">
    <g id="Grupo_1022857" data-name="Grupo 1022857" transform="translate(-8715 195.685)">
      <g id="Grupo_1020694" data-name="Grupo 1020694" transform="translate(0 46.481)">
        <g id="Enmascarar_grupo_1018593" data-name="Enmascarar grupo 1018593" transform="translate(299.027 0)" clip-path="url(#clip-path)">
          <path id="Trazado_151731" data-name="Trazado 151731" d="M144.271,227.8A83.525,83.525,0,1,1,227.8,144.271,83.62,83.62,0,0,1,144.271,227.8m0,60.745A144.271,144.271,0,1,0,0,144.271,144.271,144.271,0,0,0,144.271,288.541Z" transform="translate(6.259 10.308)" fill="#4adbd1"/>
        </g>
        <g id="Grupo_1018971" data-name="Grupo 1018971" transform="translate(0 0)">
          <path id="Trazado_145969" data-name="Trazado 145969" d="M85.446,0A85.446,85.446,0,1,1,0,85.446,85.446,85.446,0,0,1,85.446,0Z" transform="translate(0 4.336)" fill="#ffca28" opacity="0.444" style="mix-blend-mode: multiply;isolation: isolate"/>
          <rect id="Rectángulo_34812" data-name="Rectángulo 34812" width="602.032" height="253.577" transform="translate(0)" fill="none"/>
          <path id="Trazado_145971" data-name="Trazado 145971" d="M9.752,0A9.752,9.752,0,1,1,0,9.752,9.752,9.752,0,0,1,9.752,0Z" transform="translate(38.527 214.748)" fill="#31313c" opacity="0.444" style="mix-blend-mode: multiply;isolation: isolate"/>
          <g id="Grupo_80270" data-name="Grupo 80270" transform="translate(410.19 74.813)">
            <path id="Trazado_145968" data-name="Trazado 145968" d="M95.921,0A95.921,95.921,0,1,1,0,95.921,95.921,95.921,0,0,1,95.921,0Z" transform="translate(0)" fill="#31313c" opacity="0.444" style="mix-blend-mode: multiply;isolation: isolate"/>
            <g id="Grupo_78276" data-name="Grupo 78276" transform="translate(37.451 39.654)">
              <g id="Grupo_53306" data-name="Grupo 53306">
                <path id="Trazado_99200" data-name="Trazado 99200" d="M416.819,51.469a1.3,1.3,0,1,1-1.3-1.245A1.275,1.275,0,0,1,416.819,51.469Z" transform="translate(-414.214 -50.224)" fill="#fff"/>
                <path id="Trazado_99201" data-name="Trazado 99201" d="M425.265,51.469a1.3,1.3,0,1,1-1.3-1.245A1.275,1.275,0,0,1,425.265,51.469Z" transform="translate(-410.938 -50.224)" fill="#fff"/>
                <path id="Trazado_99202" data-name="Trazado 99202" d="M433.711,51.469a1.3,1.3,0,1,1-1.3-1.245A1.275,1.275,0,0,1,433.711,51.469Z" transform="translate(-407.662 -50.224)" fill="#fff"/>
                <path id="Trazado_99203" data-name="Trazado 99203" d="M442.158,51.469a1.3,1.3,0,1,1-1.3-1.245A1.275,1.275,0,0,1,442.158,51.469Z" transform="translate(-404.386 -50.224)" fill="#fff"/>
                <path id="Trazado_99204" data-name="Trazado 99204" d="M450.6,51.469a1.3,1.3,0,1,1-1.3-1.245A1.275,1.275,0,0,1,450.6,51.469Z" transform="translate(-401.11 -50.224)" fill="#fff"/>
                <path id="Trazado_99205" data-name="Trazado 99205" d="M459.05,51.469a1.3,1.3,0,1,1-1.3-1.245A1.275,1.275,0,0,1,459.05,51.469Z" transform="translate(-397.834 -50.224)" fill="#fff"/>
                <path id="Trazado_99206" data-name="Trazado 99206" d="M467.5,51.469a1.3,1.3,0,1,1-1.3-1.245A1.276,1.276,0,0,1,467.5,51.469Z" transform="translate(-394.557 -50.224)" fill="#fff"/>
                <path id="Trazado_99207" data-name="Trazado 99207" d="M475.943,51.469a1.3,1.3,0,1,1-1.3-1.245A1.275,1.275,0,0,1,475.943,51.469Z" transform="translate(-391.281 -50.224)" fill="#fff"/>
                <path id="Trazado_99208" data-name="Trazado 99208" d="M484.389,51.469a1.3,1.3,0,1,1-1.3-1.245A1.275,1.275,0,0,1,484.389,51.469Z" transform="translate(-388.005 -50.224)" fill="#fff"/>
                <path id="Trazado_99209" data-name="Trazado 99209" d="M492.836,51.469a1.3,1.3,0,1,1-1.3-1.245A1.276,1.276,0,0,1,492.836,51.469Z" transform="translate(-384.729 -50.224)" fill="#fff"/>
                <path id="Trazado_99210" data-name="Trazado 99210" d="M501.282,51.469a1.3,1.3,0,1,1-1.3-1.245A1.275,1.275,0,0,1,501.282,51.469Z" transform="translate(-381.453 -50.224)" fill="#fff"/>
              </g>
              <g id="Grupo_53307" data-name="Grupo 53307" transform="translate(0 9.965)">
                <path id="Trazado_99211" data-name="Trazado 99211" d="M416.819,58.977a1.3,1.3,0,1,1-1.3-1.245A1.275,1.275,0,0,1,416.819,58.977Z" transform="translate(-414.214 -57.732)" fill="#fff"/>
                <path id="Trazado_99212" data-name="Trazado 99212" d="M425.265,58.977a1.3,1.3,0,1,1-1.3-1.245A1.275,1.275,0,0,1,425.265,58.977Z" transform="translate(-410.938 -57.732)" fill="#fff"/>
                <path id="Trazado_99213" data-name="Trazado 99213" d="M433.711,58.977a1.3,1.3,0,1,1-1.3-1.245A1.275,1.275,0,0,1,433.711,58.977Z" transform="translate(-407.662 -57.732)" fill="#fff"/>
                <path id="Trazado_99214" data-name="Trazado 99214" d="M442.158,58.977a1.3,1.3,0,1,1-1.3-1.245A1.275,1.275,0,0,1,442.158,58.977Z" transform="translate(-404.386 -57.732)" fill="#fff"/>
                <path id="Trazado_99215" data-name="Trazado 99215" d="M450.6,58.977a1.3,1.3,0,1,1-1.3-1.245A1.275,1.275,0,0,1,450.6,58.977Z" transform="translate(-401.11 -57.732)" fill="#fff"/>
                <path id="Trazado_99216" data-name="Trazado 99216" d="M459.05,58.977a1.3,1.3,0,1,1-1.3-1.245A1.275,1.275,0,0,1,459.05,58.977Z" transform="translate(-397.834 -57.732)" fill="#fff"/>
                <path id="Trazado_99217" data-name="Trazado 99217" d="M467.5,58.977a1.3,1.3,0,1,1-1.3-1.245A1.276,1.276,0,0,1,467.5,58.977Z" transform="translate(-394.557 -57.732)" fill="#fff"/>
                <path id="Trazado_99218" data-name="Trazado 99218" d="M475.943,58.977a1.3,1.3,0,1,1-1.3-1.245A1.275,1.275,0,0,1,475.943,58.977Z" transform="translate(-391.281 -57.732)" fill="#fff"/>
                <path id="Trazado_99219" data-name="Trazado 99219" d="M484.389,58.977a1.3,1.3,0,1,1-1.3-1.245A1.275,1.275,0,0,1,484.389,58.977Z" transform="translate(-388.005 -57.732)" fill="#fff"/>
                <path id="Trazado_99220" data-name="Trazado 99220" d="M492.836,58.977a1.3,1.3,0,1,1-1.3-1.245A1.276,1.276,0,0,1,492.836,58.977Z" transform="translate(-384.729 -57.732)" fill="#fff"/>
                <path id="Trazado_99221" data-name="Trazado 99221" d="M501.282,58.977a1.3,1.3,0,1,1-1.3-1.245A1.275,1.275,0,0,1,501.282,58.977Z" transform="translate(-381.453 -57.732)" fill="#fff"/>
              </g>
              <g id="Grupo_53308" data-name="Grupo 53308" transform="translate(0 19.93)">
                <ellipse id="Elipse_3955" data-name="Elipse 3955" cx="1.303" cy="1.246" rx="1.303" ry="1.246" fill="#fff"/>
                <path id="Trazado_99222" data-name="Trazado 99222" d="M425.265,66.485a1.3,1.3,0,1,1-1.3-1.245A1.275,1.275,0,0,1,425.265,66.485Z" transform="translate(-410.938 -65.239)" fill="#fff"/>
                <ellipse id="Elipse_3956" data-name="Elipse 3956" cx="1.303" cy="1.246" rx="1.303" ry="1.246" transform="translate(23.445)" fill="#fff"/>
                <path id="Trazado_99223" data-name="Trazado 99223" d="M442.158,66.485a1.3,1.3,0,1,1-1.3-1.245A1.276,1.276,0,0,1,442.158,66.485Z" transform="translate(-404.385 -65.239)" fill="#fff"/>
                <path id="Trazado_99224" data-name="Trazado 99224" d="M450.6,66.485a1.3,1.3,0,1,1-1.3-1.245A1.276,1.276,0,0,1,450.6,66.485Z" transform="translate(-401.11 -65.239)" fill="#fff"/>
                <ellipse id="Elipse_3957" data-name="Elipse 3957" cx="1.303" cy="1.246" rx="1.303" ry="1.246" transform="translate(58.612)" fill="#fff"/>
                <path id="Trazado_99225" data-name="Trazado 99225" d="M467.5,66.485a1.3,1.3,0,1,1-1.3-1.245A1.277,1.277,0,0,1,467.5,66.485Z" transform="translate(-394.557 -65.239)" fill="#fff"/>
                <ellipse id="Elipse_3958" data-name="Elipse 3958" cx="1.303" cy="1.246" rx="1.303" ry="1.246" transform="translate(82.057)" fill="#fff"/>
                <ellipse id="Elipse_3959" data-name="Elipse 3959" cx="1.303" cy="1.246" rx="1.303" ry="1.246" transform="translate(93.779)" fill="#fff"/>
                <path id="Trazado_99226" data-name="Trazado 99226" d="M492.836,66.485a1.3,1.3,0,1,1-1.3-1.245A1.277,1.277,0,0,1,492.836,66.485Z" transform="translate(-384.729 -65.239)" fill="#fff"/>
                <path id="Trazado_99227" data-name="Trazado 99227" d="M501.282,66.485a1.3,1.3,0,1,1-1.3-1.245A1.276,1.276,0,0,1,501.282,66.485Z" transform="translate(-381.453 -65.239)" fill="#fff"/>
              </g>
              <g id="Grupo_53309" data-name="Grupo 53309" transform="translate(0 29.894)">
                <ellipse id="Elipse_3960" data-name="Elipse 3960" cx="1.303" cy="1.246" rx="1.303" ry="1.246" transform="translate(0 0.001)" fill="#fff"/>
                <path id="Trazado_99228" data-name="Trazado 99228" d="M425.265,73.993a1.3,1.3,0,1,1-1.3-1.246A1.274,1.274,0,0,1,425.265,73.993Z" transform="translate(-410.938 -72.747)" fill="#fff"/>
                <ellipse id="Elipse_3961" data-name="Elipse 3961" cx="1.303" cy="1.246" rx="1.303" ry="1.246" transform="translate(23.445 0.001)" fill="#fff"/>
                <path id="Trazado_99229" data-name="Trazado 99229" d="M442.158,73.993a1.3,1.3,0,1,1-1.3-1.246A1.275,1.275,0,0,1,442.158,73.993Z" transform="translate(-404.385 -72.747)" fill="#fff"/>
                <path id="Trazado_99230" data-name="Trazado 99230" d="M450.6,73.993a1.3,1.3,0,1,1-1.3-1.246A1.275,1.275,0,0,1,450.6,73.993Z" transform="translate(-401.11 -72.747)" fill="#fff"/>
                <ellipse id="Elipse_3962" data-name="Elipse 3962" cx="1.303" cy="1.246" rx="1.303" ry="1.246" transform="translate(58.612 0.001)" fill="#fff"/>
                <path id="Trazado_99231" data-name="Trazado 99231" d="M467.5,73.993a1.3,1.3,0,1,1-1.3-1.246A1.276,1.276,0,0,1,467.5,73.993Z" transform="translate(-394.557 -72.747)" fill="#fff"/>
                <ellipse id="Elipse_3963" data-name="Elipse 3963" cx="1.303" cy="1.246" rx="1.303" ry="1.246" transform="translate(82.057 0.001)" fill="#fff"/>
                <ellipse id="Elipse_3964" data-name="Elipse 3964" cx="1.303" cy="1.246" rx="1.303" ry="1.246" transform="translate(93.779 0.001)" fill="#fff"/>
                <path id="Trazado_99232" data-name="Trazado 99232" d="M492.836,73.993a1.3,1.3,0,1,1-1.3-1.246A1.276,1.276,0,0,1,492.836,73.993Z" transform="translate(-384.729 -72.747)" fill="#fff"/>
                <path id="Trazado_99233" data-name="Trazado 99233" d="M501.282,73.993a1.3,1.3,0,1,1-1.3-1.246A1.275,1.275,0,0,1,501.282,73.993Z" transform="translate(-381.453 -72.747)" fill="#fff"/>
              </g>
              <g id="Grupo_53310" data-name="Grupo 53310" transform="translate(0 39.859)">
                <path id="Trazado_99234" data-name="Trazado 99234" d="M416.819,81.5a1.3,1.3,0,1,1-1.3-1.246A1.275,1.275,0,0,1,416.819,81.5Z" transform="translate(-414.214 -80.255)" fill="#fff"/>
                <path id="Trazado_99235" data-name="Trazado 99235" d="M425.265,81.5a1.3,1.3,0,1,1-1.3-1.246A1.274,1.274,0,0,1,425.265,81.5Z" transform="translate(-410.938 -80.255)" fill="#fff"/>
                <path id="Trazado_99236" data-name="Trazado 99236" d="M433.711,81.5a1.3,1.3,0,1,1-1.3-1.246A1.274,1.274,0,0,1,433.711,81.5Z" transform="translate(-407.662 -80.255)" fill="#fff"/>
                <path id="Trazado_99237" data-name="Trazado 99237" d="M442.158,81.5a1.3,1.3,0,1,1-1.3-1.246A1.275,1.275,0,0,1,442.158,81.5Z" transform="translate(-404.386 -80.255)" fill="#fff"/>
                <path id="Trazado_99238" data-name="Trazado 99238" d="M450.6,81.5a1.3,1.3,0,1,1-1.3-1.246A1.275,1.275,0,0,1,450.6,81.5Z" transform="translate(-401.11 -80.255)" fill="#fff"/>
                <path id="Trazado_99239" data-name="Trazado 99239" d="M459.05,81.5a1.3,1.3,0,1,1-1.3-1.246A1.274,1.274,0,0,1,459.05,81.5Z" transform="translate(-397.834 -80.255)" fill="#fff"/>
                <path id="Trazado_99240" data-name="Trazado 99240" d="M467.5,81.5a1.3,1.3,0,1,1-1.3-1.246A1.276,1.276,0,0,1,467.5,81.5Z" transform="translate(-394.557 -80.255)" fill="#fff"/>
                <path id="Trazado_99241" data-name="Trazado 99241" d="M475.943,81.5a1.3,1.3,0,1,1-1.3-1.246A1.274,1.274,0,0,1,475.943,81.5Z" transform="translate(-391.281 -80.255)" fill="#fff"/>
                <path id="Trazado_99242" data-name="Trazado 99242" d="M484.389,81.5a1.3,1.3,0,1,1-1.3-1.246A1.275,1.275,0,0,1,484.389,81.5Z" transform="translate(-388.005 -80.255)" fill="#fff"/>
                <path id="Trazado_99243" data-name="Trazado 99243" d="M492.836,81.5a1.3,1.3,0,1,1-1.3-1.246A1.276,1.276,0,0,1,492.836,81.5Z" transform="translate(-384.729 -80.255)" fill="#fff"/>
                <path id="Trazado_99244" data-name="Trazado 99244" d="M501.282,81.5a1.3,1.3,0,1,1-1.3-1.246A1.275,1.275,0,0,1,501.282,81.5Z" transform="translate(-381.453 -80.255)" fill="#fff"/>
              </g>
              <g id="Grupo_53311" data-name="Grupo 53311" transform="translate(0 49.824)">
                <ellipse id="Elipse_3965" data-name="Elipse 3965" cx="1.303" cy="1.246" rx="1.303" ry="1.246" transform="translate(0 0)" fill="#fff"/>
                <path id="Trazado_99245" data-name="Trazado 99245" d="M425.265,89.009a1.3,1.3,0,1,1-1.3-1.246A1.274,1.274,0,0,1,425.265,89.009Z" transform="translate(-410.938 -87.763)" fill="#fff"/>
                <ellipse id="Elipse_3966" data-name="Elipse 3966" cx="1.303" cy="1.246" rx="1.303" ry="1.246" transform="translate(23.445 0)" fill="#fff"/>
                <path id="Trazado_99246" data-name="Trazado 99246" d="M442.158,89.009a1.3,1.3,0,1,1-1.3-1.246A1.275,1.275,0,0,1,442.158,89.009Z" transform="translate(-404.385 -87.763)" fill="#fff"/>
                <path id="Trazado_99247" data-name="Trazado 99247" d="M450.6,89.009a1.3,1.3,0,1,1-1.3-1.246A1.275,1.275,0,0,1,450.6,89.009Z" transform="translate(-401.11 -87.763)" fill="#fff"/>
                <ellipse id="Elipse_3967" data-name="Elipse 3967" cx="1.303" cy="1.246" rx="1.303" ry="1.246" transform="translate(58.612 0)" fill="#fff"/>
                <path id="Trazado_99248" data-name="Trazado 99248" d="M467.5,89.009a1.3,1.3,0,1,1-1.3-1.246A1.276,1.276,0,0,1,467.5,89.009Z" transform="translate(-394.557 -87.763)" fill="#fff"/>
                <ellipse id="Elipse_3968" data-name="Elipse 3968" cx="1.303" cy="1.246" rx="1.303" ry="1.246" transform="translate(82.057 0)" fill="#fff"/>
                <ellipse id="Elipse_3969" data-name="Elipse 3969" cx="1.303" cy="1.246" rx="1.303" ry="1.246" transform="translate(93.779 0)" fill="#fff"/>
                <path id="Trazado_99249" data-name="Trazado 99249" d="M492.836,89.009a1.3,1.3,0,1,1-1.3-1.246A1.276,1.276,0,0,1,492.836,89.009Z" transform="translate(-384.729 -87.763)" fill="#fff"/>
                <path id="Trazado_99250" data-name="Trazado 99250" d="M501.282,89.009a1.3,1.3,0,1,1-1.3-1.246A1.275,1.275,0,0,1,501.282,89.009Z" transform="translate(-381.453 -87.763)" fill="#fff"/>
              </g>
              <g id="Grupo_53312" data-name="Grupo 53312" transform="translate(0 59.789)">
                <ellipse id="Elipse_3970" data-name="Elipse 3970" cx="1.303" cy="1.246" rx="1.303" ry="1.246" fill="#fff"/>
                <path id="Trazado_99251" data-name="Trazado 99251" d="M425.265,96.516a1.3,1.3,0,1,1-1.3-1.245A1.275,1.275,0,0,1,425.265,96.516Z" transform="translate(-410.938 -95.271)" fill="#fff"/>
                <ellipse id="Elipse_3971" data-name="Elipse 3971" cx="1.303" cy="1.246" rx="1.303" ry="1.246" transform="translate(23.445)" fill="#fff"/>
                <path id="Trazado_99252" data-name="Trazado 99252" d="M442.158,96.516a1.3,1.3,0,1,1-1.3-1.245A1.275,1.275,0,0,1,442.158,96.516Z" transform="translate(-404.385 -95.271)" fill="#fff"/>
                <path id="Trazado_99253" data-name="Trazado 99253" d="M450.6,96.516a1.3,1.3,0,1,1-1.3-1.245A1.275,1.275,0,0,1,450.6,96.516Z" transform="translate(-401.11 -95.271)" fill="#fff"/>
                <ellipse id="Elipse_3972" data-name="Elipse 3972" cx="1.303" cy="1.246" rx="1.303" ry="1.246" transform="translate(58.612)" fill="#fff"/>
                <path id="Trazado_99254" data-name="Trazado 99254" d="M467.5,96.516a1.3,1.3,0,1,1-1.3-1.245A1.276,1.276,0,0,1,467.5,96.516Z" transform="translate(-394.557 -95.271)" fill="#fff"/>
                <ellipse id="Elipse_3973" data-name="Elipse 3973" cx="1.303" cy="1.246" rx="1.303" ry="1.246" transform="translate(82.057)" fill="#fff"/>
                <ellipse id="Elipse_3974" data-name="Elipse 3974" cx="1.303" cy="1.246" rx="1.303" ry="1.246" transform="translate(93.779)" fill="#fff"/>
                <path id="Trazado_99255" data-name="Trazado 99255" d="M492.836,96.516a1.3,1.3,0,1,1-1.3-1.245A1.276,1.276,0,0,1,492.836,96.516Z" transform="translate(-384.729 -95.271)" fill="#fff"/>
                <path id="Trazado_99256" data-name="Trazado 99256" d="M501.282,96.516a1.3,1.3,0,1,1-1.3-1.245A1.275,1.275,0,0,1,501.282,96.516Z" transform="translate(-381.453 -95.271)" fill="#fff"/>
              </g>
              <g id="Grupo_53313" data-name="Grupo 53313" transform="translate(0 69.754)">
                <path id="Trazado_99257" data-name="Trazado 99257" d="M416.819,104.024a1.3,1.3,0,1,1-1.3-1.245A1.275,1.275,0,0,1,416.819,104.024Z" transform="translate(-414.214 -102.779)" fill="#fff"/>
                <path id="Trazado_99258" data-name="Trazado 99258" d="M425.265,104.024a1.3,1.3,0,1,1-1.3-1.245A1.275,1.275,0,0,1,425.265,104.024Z" transform="translate(-410.938 -102.779)" fill="#fff"/>
                <path id="Trazado_99259" data-name="Trazado 99259" d="M433.711,104.024a1.3,1.3,0,1,1-1.3-1.245A1.275,1.275,0,0,1,433.711,104.024Z" transform="translate(-407.662 -102.779)" fill="#fff"/>
                <path id="Trazado_99260" data-name="Trazado 99260" d="M442.158,104.024a1.3,1.3,0,1,1-1.3-1.245A1.275,1.275,0,0,1,442.158,104.024Z" transform="translate(-404.386 -102.779)" fill="#fff"/>
                <path id="Trazado_99261" data-name="Trazado 99261" d="M450.6,104.024a1.3,1.3,0,1,1-1.3-1.245A1.275,1.275,0,0,1,450.6,104.024Z" transform="translate(-401.11 -102.779)" fill="#fff"/>
                <path id="Trazado_99262" data-name="Trazado 99262" d="M459.05,104.024a1.3,1.3,0,1,1-1.3-1.245A1.275,1.275,0,0,1,459.05,104.024Z" transform="translate(-397.834 -102.779)" fill="#fff"/>
                <path id="Trazado_99263" data-name="Trazado 99263" d="M467.5,104.024a1.3,1.3,0,1,1-1.3-1.245A1.276,1.276,0,0,1,467.5,104.024Z" transform="translate(-394.557 -102.779)" fill="#fff"/>
                <path id="Trazado_99264" data-name="Trazado 99264" d="M475.943,104.024a1.3,1.3,0,1,1-1.3-1.245A1.275,1.275,0,0,1,475.943,104.024Z" transform="translate(-391.281 -102.779)" fill="#fff"/>
                <path id="Trazado_99265" data-name="Trazado 99265" d="M484.389,104.024a1.3,1.3,0,1,1-1.3-1.245A1.275,1.275,0,0,1,484.389,104.024Z" transform="translate(-388.005 -102.779)" fill="#fff"/>
                <path id="Trazado_99266" data-name="Trazado 99266" d="M492.836,104.024a1.3,1.3,0,1,1-1.3-1.245A1.276,1.276,0,0,1,492.836,104.024Z" transform="translate(-384.729 -102.779)" fill="#fff"/>
                <path id="Trazado_99267" data-name="Trazado 99267" d="M501.282,104.024a1.3,1.3,0,1,1-1.3-1.245A1.275,1.275,0,0,1,501.282,104.024Z" transform="translate(-381.453 -102.779)" fill="#fff"/>
              </g>
              <g id="Grupo_53314" data-name="Grupo 53314" transform="translate(0 79.718)">
                <ellipse id="Elipse_3975" data-name="Elipse 3975" cx="1.303" cy="1.246" rx="1.303" ry="1.246" fill="#fff"/>
                <path id="Trazado_99268" data-name="Trazado 99268" d="M425.265,111.532a1.3,1.3,0,1,1-1.3-1.245A1.275,1.275,0,0,1,425.265,111.532Z" transform="translate(-410.938 -110.286)" fill="#fff"/>
                <ellipse id="Elipse_3976" data-name="Elipse 3976" cx="1.303" cy="1.246" rx="1.303" ry="1.246" transform="translate(23.445)" fill="#fff"/>
                <path id="Trazado_99269" data-name="Trazado 99269" d="M442.158,111.532a1.3,1.3,0,1,1-1.3-1.245A1.276,1.276,0,0,1,442.158,111.532Z" transform="translate(-404.385 -110.286)" fill="#fff"/>
                <path id="Trazado_99270" data-name="Trazado 99270" d="M450.6,111.532a1.3,1.3,0,1,1-1.3-1.245A1.276,1.276,0,0,1,450.6,111.532Z" transform="translate(-401.11 -110.286)" fill="#fff"/>
                <ellipse id="Elipse_3977" data-name="Elipse 3977" cx="1.303" cy="1.246" rx="1.303" ry="1.246" transform="translate(58.612)" fill="#fff"/>
                <path id="Trazado_99271" data-name="Trazado 99271" d="M467.5,111.532a1.3,1.3,0,1,1-1.3-1.245A1.277,1.277,0,0,1,467.5,111.532Z" transform="translate(-394.557 -110.286)" fill="#fff"/>
                <ellipse id="Elipse_3978" data-name="Elipse 3978" cx="1.303" cy="1.246" rx="1.303" ry="1.246" transform="translate(82.057)" fill="#fff"/>
                <ellipse id="Elipse_3979" data-name="Elipse 3979" cx="1.303" cy="1.246" rx="1.303" ry="1.246" transform="translate(93.779)" fill="#fff"/>
                <path id="Trazado_99272" data-name="Trazado 99272" d="M492.836,111.532a1.3,1.3,0,1,1-1.3-1.245A1.277,1.277,0,0,1,492.836,111.532Z" transform="translate(-384.729 -110.286)" fill="#fff"/>
                <path id="Trazado_99273" data-name="Trazado 99273" d="M501.282,111.532a1.3,1.3,0,1,1-1.3-1.245A1.276,1.276,0,0,1,501.282,111.532Z" transform="translate(-381.453 -110.286)" fill="#fff"/>
              </g>
              <g id="Grupo_53315" data-name="Grupo 53315" transform="translate(0 89.682)">
                <path id="Trazado_99274" data-name="Trazado 99274" d="M416.819,119.04a1.3,1.3,0,1,1-1.3-1.246A1.276,1.276,0,0,1,416.819,119.04Z" transform="translate(-414.214 -117.794)" fill="#fff"/>
                <path id="Trazado_99275" data-name="Trazado 99275" d="M425.265,119.04a1.3,1.3,0,1,1-1.3-1.246A1.275,1.275,0,0,1,425.265,119.04Z" transform="translate(-410.938 -117.794)" fill="#fff"/>
                <path id="Trazado_99276" data-name="Trazado 99276" d="M433.711,119.04a1.3,1.3,0,1,1-1.3-1.246A1.276,1.276,0,0,1,433.711,119.04Z" transform="translate(-407.662 -117.794)" fill="#fff"/>
                <path id="Trazado_99277" data-name="Trazado 99277" d="M442.158,119.04a1.3,1.3,0,1,1-1.3-1.246A1.276,1.276,0,0,1,442.158,119.04Z" transform="translate(-404.386 -117.794)" fill="#fff"/>
                <path id="Trazado_99278" data-name="Trazado 99278" d="M450.6,119.04a1.3,1.3,0,1,1-1.3-1.246A1.276,1.276,0,0,1,450.6,119.04Z" transform="translate(-401.11 -117.794)" fill="#fff"/>
                <path id="Trazado_99279" data-name="Trazado 99279" d="M459.05,119.04a1.3,1.3,0,1,1-1.3-1.246A1.275,1.275,0,0,1,459.05,119.04Z" transform="translate(-397.834 -117.794)" fill="#fff"/>
                <path id="Trazado_99280" data-name="Trazado 99280" d="M467.5,119.04a1.3,1.3,0,1,1-1.3-1.246A1.277,1.277,0,0,1,467.5,119.04Z" transform="translate(-394.557 -117.794)" fill="#fff"/>
                <path id="Trazado_99281" data-name="Trazado 99281" d="M475.943,119.04a1.3,1.3,0,1,1-1.3-1.246A1.276,1.276,0,0,1,475.943,119.04Z" transform="translate(-391.281 -117.794)" fill="#fff"/>
                <path id="Trazado_99282" data-name="Trazado 99282" d="M484.389,119.04a1.3,1.3,0,1,1-1.3-1.246A1.276,1.276,0,0,1,484.389,119.04Z" transform="translate(-388.005 -117.794)" fill="#fff"/>
                <path id="Trazado_99283" data-name="Trazado 99283" d="M492.836,119.04a1.3,1.3,0,1,1-1.3-1.246A1.277,1.277,0,0,1,492.836,119.04Z" transform="translate(-384.729 -117.794)" fill="#fff"/>
                <path id="Trazado_99284" data-name="Trazado 99284" d="M501.282,119.04a1.3,1.3,0,1,1-1.3-1.246A1.276,1.276,0,0,1,501.282,119.04Z" transform="translate(-381.453 -117.794)" fill="#fff"/>
              </g>
              <g id="Grupo_53316" data-name="Grupo 53316" transform="translate(0 99.647)">
                <ellipse id="Elipse_3980" data-name="Elipse 3980" cx="1.303" cy="1.246" rx="1.303" ry="1.246" transform="translate(0 0)" fill="#fff"/>
                <path id="Trazado_99285" data-name="Trazado 99285" d="M425.265,126.548a1.3,1.3,0,1,1-1.3-1.246A1.274,1.274,0,0,1,425.265,126.548Z" transform="translate(-410.938 -125.302)" fill="#fff"/>
                <ellipse id="Elipse_3981" data-name="Elipse 3981" cx="1.303" cy="1.246" rx="1.303" ry="1.246" transform="translate(23.445 0)" fill="#fff"/>
                <path id="Trazado_99286" data-name="Trazado 99286" d="M442.158,126.548a1.3,1.3,0,1,1-1.3-1.246A1.275,1.275,0,0,1,442.158,126.548Z" transform="translate(-404.385 -125.302)" fill="#fff"/>
                <path id="Trazado_99287" data-name="Trazado 99287" d="M450.6,126.548a1.3,1.3,0,1,1-1.3-1.246A1.275,1.275,0,0,1,450.6,126.548Z" transform="translate(-401.11 -125.302)" fill="#fff"/>
                <ellipse id="Elipse_3982" data-name="Elipse 3982" cx="1.303" cy="1.246" rx="1.303" ry="1.246" transform="translate(58.612 0)" fill="#fff"/>
                <path id="Trazado_99288" data-name="Trazado 99288" d="M467.5,126.548a1.3,1.3,0,1,1-1.3-1.246A1.276,1.276,0,0,1,467.5,126.548Z" transform="translate(-394.557 -125.302)" fill="#fff"/>
                <ellipse id="Elipse_3983" data-name="Elipse 3983" cx="1.303" cy="1.246" rx="1.303" ry="1.246" transform="translate(82.057 0)" fill="#fff"/>
                <ellipse id="Elipse_3984" data-name="Elipse 3984" cx="1.303" cy="1.246" rx="1.303" ry="1.246" transform="translate(93.779 0)" fill="#fff"/>
                <path id="Trazado_99289" data-name="Trazado 99289" d="M492.836,126.548a1.3,1.3,0,1,1-1.3-1.246A1.276,1.276,0,0,1,492.836,126.548Z" transform="translate(-384.729 -125.302)" fill="#fff"/>
                <path id="Trazado_99290" data-name="Trazado 99290" d="M501.282,126.548a1.3,1.3,0,1,1-1.3-1.246A1.275,1.275,0,0,1,501.282,126.548Z" transform="translate(-381.453 -125.302)" fill="#fff"/>
              </g>
              <g id="Grupo_53317" data-name="Grupo 53317" transform="translate(0 109.613)">
                <ellipse id="Elipse_3985" data-name="Elipse 3985" cx="1.303" cy="1.246" rx="1.303" ry="1.246" transform="translate(0 0)" fill="#fff"/>
                <path id="Trazado_99291" data-name="Trazado 99291" d="M425.265,134.056a1.3,1.3,0,1,1-1.3-1.246A1.274,1.274,0,0,1,425.265,134.056Z" transform="translate(-410.938 -132.81)" fill="#fff"/>
                <ellipse id="Elipse_3986" data-name="Elipse 3986" cx="1.303" cy="1.246" rx="1.303" ry="1.246" transform="translate(23.445 0)" fill="#fff"/>
                <path id="Trazado_99292" data-name="Trazado 99292" d="M442.158,134.056a1.3,1.3,0,1,1-1.3-1.246A1.275,1.275,0,0,1,442.158,134.056Z" transform="translate(-404.385 -132.81)" fill="#fff"/>
                <path id="Trazado_99293" data-name="Trazado 99293" d="M450.6,134.056a1.3,1.3,0,1,1-1.3-1.246A1.275,1.275,0,0,1,450.6,134.056Z" transform="translate(-401.11 -132.81)" fill="#fff"/>
                <ellipse id="Elipse_3987" data-name="Elipse 3987" cx="1.303" cy="1.246" rx="1.303" ry="1.246" transform="translate(58.612 0)" fill="#fff"/>
                <path id="Trazado_99294" data-name="Trazado 99294" d="M467.5,134.056a1.3,1.3,0,1,1-1.3-1.246A1.276,1.276,0,0,1,467.5,134.056Z" transform="translate(-394.557 -132.81)" fill="#fff"/>
                <ellipse id="Elipse_3988" data-name="Elipse 3988" cx="1.303" cy="1.246" rx="1.303" ry="1.246" transform="translate(82.057 0)" fill="#fff"/>
                <ellipse id="Elipse_3989" data-name="Elipse 3989" cx="1.303" cy="1.246" rx="1.303" ry="1.246" transform="translate(93.779 0)" fill="#fff"/>
                <path id="Trazado_99295" data-name="Trazado 99295" d="M492.836,134.056a1.3,1.3,0,1,1-1.3-1.246A1.276,1.276,0,0,1,492.836,134.056Z" transform="translate(-384.729 -132.81)" fill="#fff"/>
                <path id="Trazado_99296" data-name="Trazado 99296" d="M501.282,134.056a1.3,1.3,0,1,1-1.3-1.246A1.275,1.275,0,0,1,501.282,134.056Z" transform="translate(-381.453 -132.81)" fill="#fff"/>
              </g>
            </g>
          </g>
          <line id="Línea_138" data-name="Línea 138" y2="182.1" transform="translate(20.92 43.832)" fill="none" stroke="#31313c" stroke-linecap="round" stroke-width="4" stroke-dasharray="8"/>
        </g>
      </g>
      <g id="Grupo_1023327" data-name="Grupo 1023327" transform="translate(54.886 0)">
        <g id="Grupo_1023326" data-name="Grupo 1023326" clip-path="url(#clip-path-2)">
          <rect id="Rectángulo_360250" data-name="Rectángulo 360250" width="105.806" height="190.073" transform="translate(287.642 12.389)" fill="#ebebeb"/>
          <rect id="Rectángulo_360251" data-name="Rectángulo 360251" width="96.26" height="178.899" transform="translate(291.87 17.901)" fill="#fafafa"/>
          <path id="Trazado_755248" data-name="Trazado 755248" d="M490.106,206.323l-4.475-1.714V11.314h4.475Z" transform="translate(-92.183 -2.148)" fill="#e0e0e0"/>
          <rect id="Rectángulo_360252" data-name="Rectángulo 360252" width="98.35" height="1.905" transform="translate(291.87 69.365)" fill="#e0e0e0"/>
          <rect id="Rectángulo_360253" data-name="Rectángulo 360253" width="98.35" height="1.905" transform="translate(291.87 111.968)" fill="#e0e0e0"/>
          <rect id="Rectángulo_360254" data-name="Rectángulo 360254" width="98.35" height="1.905" transform="translate(291.87 154.571)" fill="#e0e0e0"/>
          <rect id="Rectángulo_360255" data-name="Rectángulo 360255" width="4.863" height="131.554" transform="translate(337.568 70.318)" fill="#e0e0e0"/>
          <rect id="Rectángulo_360256" data-name="Rectángulo 360256" width="2.204" height="52.416" transform="translate(310.405 17.902)" fill="#e0e0e0"/>
          <rect id="Rectángulo_360257" data-name="Rectángulo 360257" width="2.203" height="52.416" transform="translate(329.408 17.902)" fill="#e0e0e0"/>
          <rect id="Rectángulo_360258" data-name="Rectángulo 360258" width="2.203" height="52.416" transform="translate(348.41 17.902)" fill="#e0e0e0"/>
          <rect id="Rectángulo_360259" data-name="Rectángulo 360259" width="2.203" height="52.416" transform="translate(367.413 17.902)" fill="#e0e0e0"/>
          <rect id="Rectángulo_360260" data-name="Rectángulo 360260" width="4.475" height="194.473" transform="translate(283.167 9.166)" fill="#e0e0e0"/>
          <rect id="Rectángulo_360261" data-name="Rectángulo 360261" width="114.756" height="5.186" transform="translate(283.166 7.203)" fill="#e0e0e0"/>
          <rect id="Rectángulo_360262" data-name="Rectángulo 360262" width="120.96" height="4.832" transform="translate(279.991 204.815)" fill="#e0e0e0"/>
          <path id="Trazado_755249" data-name="Trazado 755249" d="M459.048,249.9l7.5,2.353H345.593l7.65-2.353Z" transform="translate(-65.601 -47.436)" fill="#e0e0e0"/>
          <g id="Grupo_1023291" data-name="Grupo 1023291">
            <g id="Grupo_1023290" data-name="Grupo 1023290" clip-path="url(#clip-path-2)">
              <path id="Trazado_755250" data-name="Trazado 755250" d="M529.6,310.769a1.152,1.152,0,0,1-.01-.157c0-.116-.006-.262-.011-.444q-.008-.61-.024-1.7c-.013-1.493-.032-3.64-.056-6.347l.1.1-32.7.065c.073-.074-.168.167.164-.166v1.109q0,.553,0,1.1v2.183q0,2.165,0,4.255l-.163-.163,23.3.074,6.878.047,1.86.021.486.01a1.192,1.192,0,0,1,.173.01.751.751,0,0,1-.151.011l-.467.011-1.825.021-6.84.047-23.416.074h-.163v-.164q0-2.087,0-4.255,0-1.083,0-2.183,0-.551,0-1.1v-1.109c.334-.333.094-.092.169-.167l32.7.066h.1v.1c-.024,2.733-.043,4.9-.056,6.408q-.016,1.077-.024,1.68c0,.174-.008.314-.011.425a.656.656,0,0,1-.01.138" transform="translate(-94.29 -57.314)" fill="#e0e0e0"/>
              <path id="Trazado_755251" data-name="Trazado 755251" d="M524.02,88.1a1.094,1.094,0,0,1-.01-.157c0-.116-.007-.262-.011-.444q-.009-.61-.024-1.7c-.013-1.493-.032-3.64-.056-6.347l.1.1-32.7.066c.074-.075-.169.166.164-.167v2.213q0,1.1,0,2.183,0,2.166,0,4.255l-.163-.163,23.3.074,6.878.047,1.86.021.486.011a1.186,1.186,0,0,1,.172.011.75.75,0,0,1-.151.011l-.467.011-1.824.021-6.84.047-23.416.074h-.163V88.1q0-2.087,0-4.255,0-1.083,0-2.183V79.445c.333-.333.093-.092.169-.167l32.7.066h.1v.1c-.023,2.733-.043,4.9-.056,6.408q-.016,1.077-.024,1.68c0,.174-.008.314-.011.426a.677.677,0,0,1-.01.137" transform="translate(-93.232 -15.046)" fill="#e0e0e0"/>
              <path id="Trazado_755252" data-name="Trazado 755252" d="M532.549,77.413a.968.968,0,0,1-.012-.164c0-.125-.008-.275-.013-.459q-.011-.639-.03-1.735c-.015-1.517-.038-3.659-.065-6.293l.12.12L512.9,68.93c-.15.148.2-.2.165-.166V69.9q0,.564,0,1.121,0,1.116,0,2.2c0,1.447,0,2.85-.006,4.194l-.159-.159,14.054.075,4.094.044,1.1.02a3.36,3.36,0,0,1,.394.019,2.317,2.317,0,0,1-.357.019l-1.071.02-4.058.044-14.161.075h-.158v-.16c0-1.344,0-2.747-.006-4.194q0-1.085,0-2.2V68.764c-.036.035.316-.317.168-.168l19.645.047h.121v.12c-.028,2.665-.049,4.831-.065,6.366q-.018,1.078-.03,1.708a5.1,5.1,0,0,1-.025.577" transform="translate(-97.328 -13.014)" fill="#e0e0e0"/>
              <rect id="Rectángulo_360263" data-name="Rectángulo 360263" width="32.699" height="8.65" transform="translate(247.782 257.665)" fill="#e0e0e0"/>
              <rect id="Rectángulo_360264" data-name="Rectángulo 360264" width="32.699" height="8.65" transform="translate(271.292 239.904)" fill="#ebebeb"/>
              <path id="Trazado_755253" data-name="Trazado 755253" d="M350.448,315.966a1.128,1.128,0,0,1-.011-.157c0-.116-.006-.262-.01-.444q-.009-.61-.024-1.7c-.013-1.493-.032-3.64-.056-6.347l.1.1-32.7.066c.074-.075-.169.166.164-.167v2.213q0,1.1,0,2.183,0,2.166,0,4.255l-.163-.163,23.3.074,6.878.047,1.86.021.486.011a1.052,1.052,0,0,1,.173.011.754.754,0,0,1-.152.01l-.467.011-1.824.021-6.84.047-23.416.074h-.163v-.164q0-2.087,0-4.255,0-1.083,0-2.183v-2.213c.333-.333.093-.092.169-.167l32.7.066h.1v.1c-.023,2.733-.043,4.9-.056,6.408q-.016,1.077-.024,1.679c0,.174-.008.314-.011.425a.682.682,0,0,1-.01.138" transform="translate(-60.284 -58.3)" fill="#e0e0e0"/>
            </g>
          </g>
          <g id="Grupo_1023293" data-name="Grupo 1023293">
            <g id="Grupo_1023292" data-name="Grupo 1023292" clip-path="url(#clip-path-2)">
              <path id="Trazado_755254" data-name="Trazado 755254" d="M427.509,432.7c0,.117-95.709.211-213.745.211C95.688,432.908,0,432.814,0,432.7s95.688-.211,213.764-.211c118.036,0,213.745.094,213.745.211" transform="translate(0 -82.095)" fill="#263238"/>
            </g>
          </g>
          <g id="Grupo_1023316" data-name="Grupo 1023316">
            <g id="Grupo_1023315" data-name="Grupo 1023315" clip-path="url(#clip-path-2)">
              <path id="Trazado_755255" data-name="Trazado 755255" d="M489.044,395.58l5.207,20.664,8.831,15.156a2.183,2.183,0,0,1-2.917,3.024c-3.965-2.139-18.513-10.082-18.81-11.616-.343-1.776-6.939-21.432-6.939-21.432Z" transform="translate(-90.054 -75.09)" fill="#91b3fa"/>
              <g id="Grupo_1023296" data-name="Grupo 1023296" transform="translate(390.918 346.332)" opacity="0.6">
                <g id="Grupo_1023295" data-name="Grupo 1023295">
                  <g id="Grupo_1023294" data-name="Grupo 1023294" clip-path="url(#clip-path-6)">
                    <path id="Trazado_755256" data-name="Trazado 755256" d="M503.7,440.509l-21.192-13.033.241.87a3.282,3.282,0,0,0,1.319,1.846c1.728,1.172,6.57,4.3,17.572,10.3a2.181,2.181,0,0,0,2.06.014" transform="translate(-482.508 -427.476)" fill="#fff"/>
                  </g>
                </g>
              </g>
              <g id="Grupo_1023299" data-name="Grupo 1023299" transform="translate(391.647 338.465)" opacity="0.6">
                <g id="Grupo_1023298" data-name="Grupo 1023298">
                  <g id="Grupo_1023297" data-name="Grupo 1023297" clip-path="url(#clip-path-7)">
                    <path id="Trazado_755257" data-name="Trazado 755257" d="M485.062,417.842a1.321,1.321,0,0,1,.809,1.567,1.271,1.271,0,0,1-1.546.814,1.393,1.393,0,0,1-.847-1.663,1.318,1.318,0,0,1,1.7-.669" transform="translate(-483.408 -417.766)" fill="#fff"/>
                  </g>
                </g>
              </g>
              <path id="Trazado_755258" data-name="Trazado 755258" d="M499.8,433.315a4.711,4.711,0,0,1,3.6-3.2c0-.055-.3-.143-.8-.078a3.484,3.484,0,0,0-2.783,2.476c-.122.489-.07.8-.015.8" transform="translate(-94.86 -81.626)" fill="#263238"/>
              <path id="Trazado_755259" data-name="Trazado 755259" d="M502.547,436.444c.122.062.6-.788,1.575-1.386a17.642,17.642,0,0,1,1.935-.813,2.419,2.419,0,0,0-2.183.416c-1.111.688-1.449,1.757-1.326,1.783" transform="translate(-95.39 -82.408)" fill="#263238"/>
              <path id="Trazado_755260" data-name="Trazado 755260" d="M495.241,429.755a11.216,11.216,0,0,1,5.137-3.856,5.968,5.968,0,0,0-5.137,3.856" transform="translate(-94.005 -80.838)" fill="#263238"/>
              <path id="Trazado_755261" data-name="Trazado 755261" d="M492.642,422.634c.089.108,1.093-.68,2.554-1.142,1.455-.481,2.729-.43,2.739-.57a5.42,5.42,0,0,0-5.293,1.711" transform="translate(-93.513 -79.867)" fill="#263238"/>
              <path id="Trazado_755262" data-name="Trazado 755262" d="M490.565,415.205a6.939,6.939,0,0,1,5.541-1.328c.021-.052-.275-.248-.824-.39a4.756,4.756,0,0,0-4.159,1c-.425.376-.6.685-.557.721" transform="translate(-93.118 -78.464)" fill="#263238"/>
              <path id="Trazado_755263" data-name="Trazado 755263" d="M492.5,411.734a1.832,1.832,0,0,0-.187-.784,5.576,5.576,0,0,0-1.18-1.864,2.483,2.483,0,0,0-1.342-.859.876.876,0,0,0-.9.451,1.432,1.432,0,0,0-.069,1.018,3.087,3.087,0,0,0,3.368,2.031,3.578,3.578,0,0,0,2.89-2.742,1.237,1.237,0,0,0-.219-1.011.859.859,0,0,0-.989-.2,3.042,3.042,0,0,0-1.159,1.078,6.237,6.237,0,0,0-.961,1.983,1.889,1.889,0,0,0-.119.8,9.929,9.929,0,0,1,1.343-2.58,2.839,2.839,0,0,1,1.033-.914.458.458,0,0,1,.54.1.854.854,0,0,1,.1.673,3.2,3.2,0,0,1-2.533,2.349,2.68,2.68,0,0,1-2.884-1.684,1.041,1.041,0,0,1,.018-.712.478.478,0,0,1,.494-.257,2.248,2.248,0,0,1,1.15.706,8.283,8.283,0,0,1,1.6,2.416" transform="translate(-92.776 -77.39)" fill="#263238"/>
              <path id="Trazado_755264" data-name="Trazado 755264" d="M402.755,399.476l1.15,17.36s-17.278,5.734-17.378,8.962l33.758.245L419.6,398.92Z" transform="translate(-73.371 -75.723)" fill="#91b3fa"/>
              <g id="Grupo_1023302" data-name="Grupo 1023302" transform="translate(339.309 339.286)" opacity="0.6">
                <g id="Grupo_1023301" data-name="Grupo 1023301">
                  <g id="Grupo_1023300" data-name="Grupo 1023300" clip-path="url(#clip-path-8)">
                    <path id="Trazado_755265" data-name="Trazado 755265" d="M420.421,418.827a1.378,1.378,0,0,1,1,1.543,1.326,1.326,0,0,1-1.521,1.005,1.455,1.455,0,0,1-1.051-1.641,1.375,1.375,0,0,1,1.7-.87" transform="translate(-418.808 -418.779)" fill="#fff"/>
                  </g>
                </g>
              </g>
              <g id="Grupo_1023305" data-name="Grupo 1023305" transform="translate(312.983 347.585)" opacity="0.6">
                <g id="Grupo_1023304" data-name="Grupo 1023304">
                  <g id="Grupo_1023303" data-name="Grupo 1023303" clip-path="url(#clip-path-9)">
                    <path id="Trazado_755266" data-name="Trazado 755266" d="M420.244,431.757l-.069-2.734-32.6.9a2.335,2.335,0,0,0-1.257,1.834Z" transform="translate(-386.314 -429.023)" fill="#fff"/>
                  </g>
                </g>
              </g>
              <path id="Trazado_755267" data-name="Trazado 755267" d="M407.295,420.8c.01.164.836.215,1.663.719.84.484,1.279,1.184,1.428,1.115.152-.036-.124-1.014-1.136-1.608s-2-.376-1.956-.226" transform="translate(-77.313 -79.845)" fill="#263238"/>
              <path id="Trazado_755268" data-name="Trazado 755268" d="M402.982,422.763c-.033.16.689.42,1.269,1.1.6.663.765,1.412.929,1.4.156.021.241-.948-.5-1.779s-1.7-.877-1.7-.72" transform="translate(-76.494 -80.236)" fill="#263238"/>
              <path id="Trazado_755269" data-name="Trazado 755269" d="M400.33,427.426c.151.031.355-.8-.1-1.689s-1.231-1.225-1.3-1.086c-.089.139.426.608.784,1.343.376.727.444,1.42.608,1.432" transform="translate(-75.725 -80.602)" fill="#263238"/>
              <path id="Trazado_755270" data-name="Trazado 755270" d="M407.511,415.773c.074.148.822-.1,1.756-.067.934.016,1.668.307,1.749.163.092-.122-.634-.71-1.734-.736s-1.856.513-1.771.64" transform="translate(-77.353 -78.801)" fill="#263238"/>
              <g id="Grupo_1023308" data-name="Grupo 1023308" transform="translate(329.615 326.84)" opacity="0.3">
                <g id="Grupo_1023307" data-name="Grupo 1023307">
                  <g id="Grupo_1023306" data-name="Grupo 1023306" clip-path="url(#clip-path-10)">
                    <path id="Trazado_755271" data-name="Trazado 755271" d="M406.843,403.768l.2,3.094,16.578-.653-.064-2.791Z" transform="translate(-406.843 -403.418)"/>
                  </g>
                </g>
              </g>
              <path id="Trazado_755272" data-name="Trazado 755272" d="M407.306,410.927a3.162,3.162,0,0,0,1.689-.06,7.61,7.61,0,0,0,1.752-.6,8.119,8.119,0,0,0,.955-.544,2.078,2.078,0,0,0,.5-.413.719.719,0,0,0,.049-.878.9.9,0,0,0-.733-.355,2.2,2.2,0,0,0-.631.107,6.028,6.028,0,0,0-1.039.392,5.953,5.953,0,0,0-1.527,1.069c-.761.749-1.009,1.372-.952,1.4.076.052.442-.476,1.219-1.1a6.782,6.782,0,0,1,1.482-.894,6.326,6.326,0,0,1,.961-.329c.355-.1.659-.116.755.041.035.059.041.083-.032.19a1.718,1.718,0,0,1-.366.3,8.925,8.925,0,0,1-.877.537,9.447,9.447,0,0,1-1.614.676,11.574,11.574,0,0,0-1.588.452" transform="translate(-77.315 -77.462)" fill="#263238"/>
              <path id="Trazado_755273" data-name="Trazado 755273" d="M407.034,410.631a2.7,2.7,0,0,0,.4-1.646,5.459,5.459,0,0,0-.748-2.856,1.4,1.4,0,0,0-1.1-.821.79.79,0,0,0-.692.493,2.308,2.308,0,0,0-.155.625,3.764,3.764,0,0,0,.033,1.138,3.885,3.885,0,0,0,.774,1.723c.686.855,1.38,1.031,1.392.975.053-.084-.532-.385-1.061-1.21a3.875,3.875,0,0,1-.583-1.572,3.461,3.461,0,0,1,0-.977c.041-.36.168-.653.3-.621.168-.008.461.254.608.536a5.629,5.629,0,0,1,.446.9,6.107,6.107,0,0,1,.378,1.676c.076.988-.082,1.611.009,1.633" transform="translate(-76.821 -76.936)" fill="#263238"/>
              <path id="Trazado_755274" data-name="Trazado 755274" d="M405.58,212.694l51.437-.387,24.856,163.25-21.347,2.71L433.167,244.036l-8.188,134.708-.021.4-23.087-.4Z" transform="translate(-76.284 -40.3)" fill="#263238"/>
              <path id="Trazado_755275" data-name="Trazado 755275" d="M438.167,243.953a11.115,11.115,0,0,0-.133-1.993c-.116-1.223-.25-2.914-.308-4.787s-.023-3.569.018-4.8a11.019,11.019,0,0,0,.012-2,8.136,8.136,0,0,0-.313,1.978,40.433,40.433,0,0,0,.292,9.639,8.084,8.084,0,0,0,.432,1.956" transform="translate(-83.005 -43.731)" fill="#455a64"/>
              <path id="Trazado_755276" data-name="Trazado 755276" d="M432.723,230.929c.007-.021-.091-.094-.3-.115a1.307,1.307,0,0,0-.851.254,1.492,1.492,0,0,0-.643,1.177,1.5,1.5,0,0,0,2.6.881,1.49,1.49,0,0,0,.2-1.325,1.3,1.3,0,0,0-.522-.719c-.182-.112-.3-.113-.311-.093-.04.058.413.242.542.887a1.236,1.236,0,0,1-.22,1.007,1.131,1.131,0,0,1-1.9-.644,1.24,1.24,0,0,1,.437-.934,1.874,1.874,0,0,1,.97-.375" transform="translate(-81.799 -43.812)" fill="#455a64"/>
              <path id="Trazado_755277" data-name="Trazado 755277" d="M449.4,226.9c-.018.023.149.173.471.428a8.56,8.56,0,0,0,1.467.92,11.666,11.666,0,0,0,2.41.911,12.655,12.655,0,0,0,6.267,0,11.657,11.657,0,0,0,2.41-.91,8.551,8.551,0,0,0,1.468-.919c.322-.254.489-.4.471-.427-.047-.066-.763.484-2.068,1.074a13.121,13.121,0,0,1-2.373.8,13.4,13.4,0,0,1-6.082,0,13.129,13.129,0,0,1-2.373-.8c-1.3-.591-2.02-1.142-2.068-1.077" transform="translate(-85.306 -43.07)" fill="#455a64"/>
              <path id="Trazado_755278" data-name="Trazado 755278" d="M410.1,230.56a3.472,3.472,0,0,0,1.41.3,9.982,9.982,0,0,0,6.594-1.883c.717-.536,1.074-.962,1.04-1a13.352,13.352,0,0,1-9.044,2.582" transform="translate(-77.846 -43.274)" fill="#455a64"/>
              <path id="Trazado_755279" data-name="Trazado 755279" d="M484.386,381.547a1.85,1.85,0,0,1-.148-.347c-.077-.24-.177-.6-.29-1.08-.231-.957-.535-2.377-.9-4.211-.737-3.668-1.736-8.99-2.934-15.572-2.4-13.165-5.594-31.374-9.115-51.487-3.54-20.109-6.742-38.31-9.064-51.506-1.189-6.571-2.151-11.894-2.819-15.6-.342-1.824-.61-3.247-.795-4.236-.092-.468-.165-.834-.218-1.1-.052-.247-.089-.372-.089-.372s.009.13.047.38c.042.267.1.635.175,1.107.168.992.409,2.419.716,4.249.638,3.708,1.555,9.039,2.687,15.619,2.292,13.2,5.451,31.411,8.942,51.527,3.52,20.113,6.764,38.315,9.237,51.468,1.236,6.577,2.281,11.892,3.067,15.552s1.35,5.671,1.505,5.6" transform="translate(-86.94 -44.806)" fill="#455a64"/>
              <path id="Trazado_755280" data-name="Trazado 755280" d="M409.629,379.333s.015-.128.022-.377c0-.267.012-.634.021-1.105.009-.992.023-2.419.04-4.249.008-1.845.023-4.1.07-6.721s.062-5.6.152-8.9c.128-6.6.381-14.446.761-23.158.4-8.712.95-18.284,1.694-28.32.762-10.039,1.651-19.588,2.551-28.263.924-8.673,1.846-16.473,2.7-23.014.4-3.273.829-6.227,1.178-8.824s.668-4.831.935-6.656.455-3.224.595-4.206c.061-.467.109-.83.143-1.1.031-.247.035-.375.035-.375s-.033.124-.078.369c-.045.264-.106.625-.186,1.09-.157.979-.383,2.388-.673,4.194-.292,1.822-.638,4.053-1.006,6.648s-.818,5.546-1.241,8.817c-.9,6.538-1.849,14.338-2.8,23.012-.922,8.677-1.822,18.229-2.585,28.272-.744,10.041-1.279,19.618-1.663,28.335-.358,8.717-.579,16.571-.669,23.17-.07,3.3-.07,6.283-.089,8.9s-.014,4.879,0,6.724c.017,1.829.031,3.257.04,4.249.009.471.016.837.021,1.1.007.25.022.377.022.377" transform="translate(-77.737 -44.431)" fill="#455a64"/>
              <path id="Trazado_755281" data-name="Trazado 755281" d="M342.941,134.824l32.141,9.382,18-10.63,13.661,16.205-25.483,11.034a13.248,13.248,0,0,1-11.321-.375L338.37,144.206Z" transform="translate(-64.23 -25.356)" fill="#ffbe9d"/>
              <path id="Trazado_755282" data-name="Trazado 755282" d="M330.951,129.443l-3.98-2.066L315.9,121.618a1.031,1.031,0,0,0-1.278,1.463l7.058,5.8-2.953,1.125a2.511,2.511,0,0,0-1.347,1.218l-1.569,3.122s-1.791.191-1.971,1.355c-.191,1.235,1.164,1.566,1.164,1.566l-.337,1.361a2.321,2.321,0,0,0,.326,1.854c1.714.7,3.076-2.886,3.076-2.886l1.825.191,2,4.027c2.534.614,1.334-3.382,1.334-3.382l1.118.278c1.118.278,1.705,1.07,3.445,1.962a18.465,18.465,0,0,0,5.158,1.206l2.526,1.865,7.666-10.49Z" transform="translate(-59.57 -23.071)" fill="#fafafa"/>
              <path id="Trazado_755283" data-name="Trazado 755283" d="M330.9,129.406a.924.924,0,0,1,.218.048l.628.176,2.413.716,8.971,2.739.187.058-.116.159-7.63,10.516-.109.149-.149-.11L332.786,142l.1.036a18.162,18.162,0,0,1-4.989-1.106,15.286,15.286,0,0,1-2.3-1.389,4.606,4.606,0,0,0-1.144-.607c-.409-.117-.877-.222-1.316-.334l.246-.259a6.636,6.636,0,0,1,.274,2.3,1.656,1.656,0,0,1-.55,1.169,1.6,1.6,0,0,1-1.3.177l-.092-.018-.046-.093-2-4.025.167.116-1.6-.168-.228-.024.22-.135a9.056,9.056,0,0,1-.976,1.829,2.717,2.717,0,0,1-1.692,1.27l-.294,0a2.667,2.667,0,0,1-.284-.068l-.07-.019-.035-.011h0c.02.017-.18-.146-.1-.078l0,0,0-.007-.009-.015-.071-.115a2.488,2.488,0,0,1-.122-.24,2.522,2.522,0,0,1-.22-1.044,4.1,4.1,0,0,1,.177-1.012l.235-.945.152.252a1.981,1.981,0,0,1-1.1-.735,1.5,1.5,0,0,1-.157-1.321,1.765,1.765,0,0,1,.909-.924,3.827,3.827,0,0,1,1.179-.348l-.16.111.991-1.965q.245-.486.488-.967a2.971,2.971,0,0,1,.647-.928,2.729,2.729,0,0,1,.962-.591l.978-.37,1.919-.728-.053.325-7.043-5.82-.024-.02-.017-.029a1.2,1.2,0,0,1,.17-1.393,1.178,1.178,0,0,1,1.312-.3l.011,0,0,0,10.97,5.786,2.977,1.593.772.426a1.472,1.472,0,0,1,.257.16,1.441,1.441,0,0,1-.275-.117l-.79-.385-3.023-1.522-11.034-5.662.015.007a.854.854,0,0,0-.955.223.867.867,0,0,0-.117,1.014l-.041-.049,7.074,5.783.254.207-.307.117-1.916.735-.976.374a2.324,2.324,0,0,0-.828.51,2.556,2.556,0,0,0-.563.822q-.242.481-.485.968l-.987,1.968-.047.095-.113.017c-.685.1-1.509.387-1.743,1.006a1.094,1.094,0,0,0,.11.945,1.588,1.588,0,0,0,.853.566l.2.058-.048.194-.234.945a3.676,3.676,0,0,0-.164.913,2.118,2.118,0,0,0,.183.872c.031.068.066.135.1.2l.059.1.008.012,0,.006,0,0-.093-.076h0l.024.007.05.012c.066.015.131.039.2.05l.2,0a2.347,2.347,0,0,0,1.4-1.1,8.719,8.719,0,0,0,.924-1.734l.062-.152.158.016.228.024,1.6.167.116.012.051.1,2,4.027-.139-.11a1.2,1.2,0,0,0,.953-.1,1.266,1.266,0,0,0,.389-.881,6.277,6.277,0,0,0-.255-2.136l-.093-.348.34.088c.452.117.879.211,1.343.344a4.986,4.986,0,0,1,1.245.66,15.03,15.03,0,0,0,2.24,1.362,17.914,17.914,0,0,0,4.86,1.089l.055.007.04.03,2.522,1.871-.258.04,7.7-10.464.071.216-8.943-2.865-2.388-.785-.613-.212a.9.9,0,0,1-.2-.084" transform="translate(-59.523 -23.034)" fill="#263238"/>
              <path id="Trazado_755284" data-name="Trazado 755284" d="M323.448,140.178c-.01.047-.885-.111-2.382-.333s-3.621-.493-6.122-.7h.041a1.394,1.394,0,0,1-1.289-1.935,2.669,2.669,0,0,1,2.136-1.5c.95-.153,1.829-.2,2.691-.355.858-.139,1.679-.312,2.453-.507s1.5-.414,2.175-.641a2.327,2.327,0,0,0,.85-.437.588.588,0,0,0,.173-.691,2.078,2.078,0,0,0-.507-.624l-.548-.551c-.336-.347-.629-.637-.882-.859-.506-.444-.835-.632-.817-.663a2.8,2.8,0,0,1,.92.536,11.941,11.941,0,0,1,.943.817l.566.523a2.271,2.271,0,0,1,.6.7.9.9,0,0,1-.22,1.045,2.578,2.578,0,0,1-.961.532c-.677.245-1.411.478-2.193.687s-1.613.392-2.483.539c-.862.162-1.8.22-2.679.362a2.276,2.276,0,0,0-1.826,1.231,1,1,0,0,0,.856,1.4l.019,0,.021,0c2.507.241,4.635.566,6.127.857.745.145,1.334.277,1.734.379a2.326,2.326,0,0,1,.608.191" transform="translate(-59.526 -24.749)" fill="#263238"/>
              <path id="Trazado_755285" data-name="Trazado 755285" d="M324.551,135.417a3.829,3.829,0,0,1-2.115.284,7.426,7.426,0,0,1-1.124-.144l.194-.117c-.237.549-.433.9-.5.873s0-.42.169-.994l.037-.128.157.011,1.095.077a9.7,9.7,0,0,1,2.093.137" transform="translate(-60.928 -25.662)" fill="#263238"/>
              <path id="Trazado_755286" data-name="Trazado 755286" d="M410.1,119.05l-20.71,15.887,14.52,19.12,17.708-10.052Z" transform="translate(-73.914 -22.598)" fill="#91b3fa"/>
              <path id="Trazado_755287" data-name="Trazado 755287" d="M412.663,117.575h0c3-1.845,13.365-4.118,13.365-4.118l20.041-2.179,17.382,7.982-7.144,29.922,6.255,56.41-59.671,3.25Z" transform="translate(-76.477 -21.123)" fill="#91b3fa"/>
              <rect id="Rectángulo_360272" data-name="Rectángulo 360272" width="10.278" height="2.772" transform="translate(359.971 121.481)" fill="#fafafa"/>
              <path id="Trazado_755288" data-name="Trazado 755288" d="M454.605,152.731H444.287v-2.813h10.318Zm-10.278-.04h10.237v-2.732H444.328Z" transform="translate(-84.335 -28.458)" fill="#263238"/>
              <path id="Trazado_755289" data-name="Trazado 755289" d="M411.8,138.268a25.158,25.158,0,0,1-.294-4.594,25.15,25.15,0,0,1,.127-4.6,25.257,25.257,0,0,1,.294,4.595,25.226,25.226,0,0,1-.127,4.6" transform="translate(-78.109 -24.501)" fill="#263238"/>
              <path id="Trazado_755290" data-name="Trazado 755290" d="M451.533,73.856l-2.193,31.067a9.686,9.686,0,0,1-19.327-1.316c.194-2.957.37-5.379.37-5.379s-7.522-1.169-7.613-8.689c-.055-4.343.7-14.2,1.338-21.749a9.861,9.861,0,0,1,9.83-9.023h4.542a13.916,13.916,0,0,1,13.054,15.089" transform="translate(-80.25 -11.155)" fill="#ffbe9d"/>
              <path id="Trazado_755291" data-name="Trazado 755291" d="M432.149,106.687a17.486,17.486,0,0,0,9.8-2.786s-2.317,5.412-9.821,4.735Z" transform="translate(-82.028 -19.723)" fill="#eb996e"/>
              <path id="Trazado_755292" data-name="Trazado 755292" d="M426.31,81.406a1.074,1.074,0,0,0,1.035,1.083,1.027,1.027,0,0,0,1.107-.968,1.074,1.074,0,0,0-1.034-1.084,1.028,1.028,0,0,0-1.108.969" transform="translate(-80.923 -15.268)" fill="#263238"/>
              <path id="Trazado_755293" data-name="Trazado 755293" d="M426.017,78.947c.133.14.946-.462,2.1-.459,1.154-.014,2,.581,2.128.439.062-.063-.074-.315-.443-.584a2.942,2.942,0,0,0-1.7-.525,2.836,2.836,0,0,0-1.674.54c-.355.273-.476.527-.41.589" transform="translate(-80.864 -14.771)" fill="#263238"/>
              <path id="Trazado_755294" data-name="Trazado 755294" d="M440.021,81.406a1.074,1.074,0,0,0,1.035,1.083,1.027,1.027,0,0,0,1.107-.968,1.074,1.074,0,0,0-1.035-1.084,1.028,1.028,0,0,0-1.108.969" transform="translate(-83.525 -15.268)" fill="#263238"/>
              <path id="Trazado_755295" data-name="Trazado 755295" d="M440.037,79.213c.134.14.948-.462,2.1-.459,1.155-.014,2,.581,2.128.439.061-.062-.073-.315-.444-.584a2.941,2.941,0,0,0-1.7-.525,2.833,2.833,0,0,0-1.673.54c-.355.273-.476.527-.411.589" transform="translate(-83.525 -14.822)" fill="#263238"/>
              <path id="Trazado_755296" data-name="Trazado 755296" d="M434.307,87.447a7.662,7.662,0,0,0-1.876-.339c-.3-.03-.575-.089-.625-.29a1.507,1.507,0,0,1,.2-.875l.872-2.247a38.479,38.479,0,0,0,1.961-5.878,38.734,38.734,0,0,0-2.429,5.706q-.436,1.184-.836,2.26a1.71,1.71,0,0,0-.153,1.158.742.742,0,0,0,.485.432,2.027,2.027,0,0,0,.5.07,7.5,7.5,0,0,0,1.9,0" transform="translate(-81.882 -14.772)" fill="#263238"/>
              <path id="Trazado_755297" data-name="Trazado 755297" d="M439.672,74.327c.114.314,1.268.165,2.623.329,1.359.136,2.452.533,2.632.251.08-.134-.11-.43-.553-.735a4.594,4.594,0,0,0-4-.442c-.5.2-.748.447-.7.6" transform="translate(-83.458 -13.944)" fill="#263238"/>
              <path id="Trazado_755298" data-name="Trazado 755298" d="M426.03,76.132c.2.262,1-.01,1.957-.023.957-.046,1.768.177,1.954-.1.082-.134-.045-.4-.4-.645a2.834,2.834,0,0,0-3.152.1c-.338.27-.45.54-.36.668" transform="translate(-80.864 -14.224)" fill="#263238"/>
              <path id="Trazado_755299" data-name="Trazado 755299" d="M455.075,84.3c.128-.056,5.166-1.528,5,3.613s-5.292,3.916-5.3,3.768.293-7.381.293-7.381" transform="translate(-86.327 -15.957)" fill="#ffbe9d"/>
              <path id="Trazado_755300" data-name="Trazado 755300" d="M456.8,90.179c.023-.015.088.066.237.14a.9.9,0,0,0,.669.035A2.217,2.217,0,0,0,458.79,88.4a2.955,2.955,0,0,0-.21-1.291,1.035,1.035,0,0,0-.651-.709.455.455,0,0,0-.536.228c-.074.142-.045.245-.072.253s-.108-.089-.059-.3a.568.568,0,0,1,.212-.315.677.677,0,0,1,.5-.115,1.257,1.257,0,0,1,.91.826,3.037,3.037,0,0,1,.265,1.443,2.328,2.328,0,0,1-1.377,2.179.96.96,0,0,1-.815-.162c-.155-.132-.178-.248-.16-.257" transform="translate(-86.709 -16.352)" fill="#eb996e"/>
              <path id="Trazado_755301" data-name="Trazado 755301" d="M453.135,79.085a2.7,2.7,0,0,0-2.475,1.268c-.334.734-.407,1.566-.741,2.3a1.818,1.818,0,0,1-1.872,1.213,1.58,1.58,0,0,1-1.071-1.173,4.334,4.334,0,0,1-.015-1.658c.3-2.4.808-4.782.9-7.2a12.354,12.354,0,0,0-1.517-6.99,6.755,6.755,0,0,0-6.014-3.38c-1.6.129-3.063.962-4.65,1.184a6.277,6.277,0,0,1-5.218-1.742c-.173-.172-.975-.7-.975-.7a2.961,2.961,0,0,1,.54-1.59c3.149-2.912,8.824-3.725,12.984-2.678a15,15,0,0,1,9.848,7.882c1.79,3.9,1.259,9.319.273,13.264" transform="translate(-81.526 -10.915)" fill="#263238"/>
              <path id="Trazado_755302" data-name="Trazado 755302" d="M424.318,66.057s19.728-6.347,28.262,10.721a32.013,32.013,0,0,0,1.275-6.561c0-1.53-.915-10.637-10.285-13.5,0,0-14.117-5.388-19.251,9.341" transform="translate(-80.545 -10.583)" fill="#e6b046"/>
              <path id="Trazado_755303" data-name="Trazado 755303" d="M441.483,68.17a4.291,4.291,0,0,1-6.831.621,2.53,2.53,0,0,1-4.783-.251,5.726,5.726,0,0,1-1.919,1.4,1.958,1.958,0,0,1-2.192-.458,1.914,1.914,0,0,1,.136-2.263,4.677,4.677,0,0,1,2-1.347,14.455,14.455,0,0,1,7.444-1.129,10.033,10.033,0,0,1,6.527,3.555" transform="translate(-80.759 -12.27)" fill="#263238"/>
              <path id="Trazado_755305" data-name="Trazado 755305" d="M449.512,74.878a37.156,37.156,0,0,0-11.493-11.009c-4.534-2.833-12.034-5.635-17.2-7.006a11.223,11.223,0,0,0-4.751-.5,4.281,4.281,0,0,0-3.523,2.883c-.491,1.948,2.966,4.955,4.591,6.136a53.114,53.114,0,0,0,4.939,2.917s-.045-3.613,5.739-4.359c7.867-1.014,21.7,10.937,21.7,10.937" transform="translate(-78.301 -10.681)" fill="#f0dcc0"/>
              <path id="Trazado_755306" data-name="Trazado 755306" d="M436.879,60.37a18.6,18.6,0,0,0-5.7-1.939,7.331,7.331,0,0,1,1.548-.929A14.673,14.673,0,0,1,437.17,59Z" transform="translate(-81.847 -10.915)" fill="#e0e0e0"/>
              <path id="Trazado_755307" data-name="Trazado 755307" d="M455.049,84.575a9.42,9.42,0,0,1-1.065.8l-2.59,1.895a27.557,27.557,0,0,1-3.778,2.542,22.37,22.37,0,0,1,3.53-2.883c2.019-1.492,3.818-2.525,3.9-2.354" transform="translate(-84.967 -16.051)" fill="#ebebeb"/>
              <path id="Trazado_755308" data-name="Trazado 755308" d="M455.826,93.834a15.7,15.7,0,0,1-6.9,5.854c-.062-.112,1.709-1.12,3.608-2.741s3.191-3.192,3.291-3.113" transform="translate(-85.216 -17.811)" fill="#ebebeb"/>
              <path id="Trazado_755309" data-name="Trazado 755309" d="M422.39,90.72a15.942,15.942,0,0,0,2.57.552c3.723-.2,5.032-1.457,11.114-.161a8.462,8.462,0,0,0,2.985.093,25.667,25.667,0,0,1,3.644-.258l1.171,8.124s-7.217,6.312-13.718,5.6c-8.4-.914-9.4-10.719-7.767-13.954" transform="translate(-80.054 -17.185)" fill="#fafafa"/>
              <path id="Trazado_755310" data-name="Trazado 755310" d="M422.383,90.707s-.075.215-.221.594a9.131,9.131,0,0,0-.348,1.769,12.824,12.824,0,0,0,1.174,6.462,9.16,9.16,0,0,0,2.9,3.474,9.256,9.256,0,0,0,4.91,1.606,13.659,13.659,0,0,0,5.652-1.124,27.679,27.679,0,0,0,5.456-3.025c.662-.472,1.308-.957,1.911-1.469l-.028.076-1.167-8.127.079.068a32.663,32.663,0,0,0-4.3.323,8.429,8.429,0,0,1-2.03-.107c-.651-.119-1.268-.267-1.882-.356a19.422,19.422,0,0,0-3.466-.288,18.747,18.747,0,0,0-2.963.321c-.893.155-1.7.28-2.408.341a5.162,5.162,0,0,1-.991.027c-.3-.045-.57-.105-.809-.161-.959-.233-1.465-.4-1.465-.4a9.749,9.749,0,0,0,5.657.1,18.587,18.587,0,0,1,2.977-.341,19.422,19.422,0,0,1,3.489.273c.615.087,1.244.234,1.885.349a8.4,8.4,0,0,0,2,.1,32.594,32.594,0,0,1,4.31-.335h.069l.01.067c.369,2.545.764,5.277,1.176,8.125l.007.045-.035.029c-.613.52-1.259,1-1.925,1.479a27.57,27.57,0,0,1-5.491,3.041,13.743,13.743,0,0,1-5.72,1.126,9.4,9.4,0,0,1-4.984-1.646,9.27,9.27,0,0,1-2.922-3.537,12.737,12.737,0,0,1-1.132-6.52,8.551,8.551,0,0,1,.382-1.776c.164-.39.252-.58.252-.58" transform="translate(-80.047 -17.172)" fill="#263238"/>
              <path id="Trazado_755311" data-name="Trazado 755311" d="M423.38,96.536a19.861,19.861,0,0,0,18.045-.332,13.173,13.173,0,0,1-3.836,3.473,12.756,12.756,0,0,1-5.849.948,10.441,10.441,0,0,1-4.663-.745,10.742,10.742,0,0,1-3.491-3.362" transform="translate(-80.367 -18.262)" fill="#e0e0e0"/>
              <path id="Trazado_755312" data-name="Trazado 755312" d="M440.777,94.082a10.649,10.649,0,0,1-2.329.614,37.375,37.375,0,0,1-11.588.41,10.676,10.676,0,0,1-2.367-.449,19.025,19.025,0,0,1,2.4.152A51.016,51.016,0,0,0,438.4,94.4a18.786,18.786,0,0,1,2.38-.32" transform="translate(-80.578 -17.856)" fill="#e0e0e0"/>
              <path id="Trazado_755313" data-name="Trazado 755313" d="M443,98.257a6.605,6.605,0,0,1-1.593,1.616,13.661,13.661,0,0,1-10.347,2.865,6.6,6.6,0,0,1-2.2-.568c.018-.068.854.155,2.23.271a14.969,14.969,0,0,0,10.134-2.806c1.12-.807,1.722-1.428,1.773-1.379" transform="translate(-81.408 -18.651)" fill="#e0e0e0"/>
              <path id="Trazado_755314" data-name="Trazado 755314" d="M442.074,95.952a2.7,2.7,0,0,1-.649.416,14.2,14.2,0,0,1-1.9.883,19.109,19.109,0,0,1-2.991.886,20.107,20.107,0,0,1-7.61.121,19.081,19.081,0,0,1-3.018-.791,14.31,14.31,0,0,1-1.931-.822,2.7,2.7,0,0,1-.661-.4c.033-.07,1.014.417,2.686.933a22.142,22.142,0,0,0,2.988.691,21.723,21.723,0,0,0,7.471-.119,22.145,22.145,0,0,0,2.964-.785c1.655-.57,2.619-1.087,2.655-1.018" transform="translate(-80.353 -18.212)" fill="#263238"/>
              <path id="Trazado_755315" data-name="Trazado 755315" d="M436.771,95.867a20.891,20.891,0,0,1-9.59-.39c.023-.123,2.147.23,4.79.332s4.786-.066,4.8.058" transform="translate(-81.088 -18.119)" fill="#263238"/>
              <path id="Trazado_755316" data-name="Trazado 755316" d="M328.592,205.245v-65.7h91.384v65.7l-48.432.409Z" transform="translate(-62.374 -26.489)" fill="#bfaf99"/>
              <path id="Trazado_755317" data-name="Trazado 755317" d="M371.544,205.654l-42.952-.409v-65.7H371.4Z" transform="translate(-62.374 -26.489)" fill="#f0dcc0"/>
              <rect id="Rectángulo_360276" data-name="Rectángulo 360276" width="5.699" height="11.398" transform="translate(283.676 113.058)" fill="#263238"/>
              <rect id="Rectángulo_360277" data-name="Rectángulo 360277" width="11.343" height="11.343" transform="translate(269.266 164.257)" fill="#fafafa"/>
              <path id="Trazado_755318" data-name="Trazado 755318" d="M343.713,214.1H332.328V202.718h11.385Zm-11.343-.041h11.3v-11.3h-11.3Z" transform="translate(-63.083 -38.48)" fill="#263238"/>
              <path id="Trazado_755319" data-name="Trazado 755319" d="M461.585,157.719l1.889,15.292-28.355,16.83,4.408,9.7,32.227-13.02c3.909-1.98,7.251-4.914,6.974-9.308l-1.553-21.39Z" transform="translate(-82.595 -29.578)" fill="#ffbe9d"/>
              <path id="Trazado_755320" data-name="Trazado 755320" d="M475,121.129a15.4,15.4,0,0,1,5.175,9.21c1.086,5.926,4.774,22.481,4.774,22.481l-19.43,2.3s.013-4.545.011-4.549c-.032-.065-1.809-8.537-1.809-8.537l3.622-11.694Z" transform="translate(-88.023 -22.993)" fill="#91b3fa"/>
              <path id="Trazado_755321" data-name="Trazado 755321" d="M484.232,157.247a8.211,8.211,0,0,1-1.328.241l-3.638.5c-3.075.406-7.326.937-12.024,1.5l-1.644.2-.219.026-.016-.22c-.323-4.334-.681-8.188-.945-10.957-.127-1.33-.232-2.427-.313-3.267a6.883,6.883,0,0,1-.07-1.2,6.919,6.919,0,0,1,.224,1.176c.117.763.27,1.873.441,3.255.339,2.764.747,6.614,1.082,10.958l-.234-.194,1.644-.2c4.7-.561,8.955-1.045,12.038-1.375l3.655-.369a8.183,8.183,0,0,1,1.347-.078" transform="translate(-88.082 -27.348)" fill="#263238"/>
              <path id="Trazado_755322" data-name="Trazado 755322" d="M473.622,122.444c.028.067-.706.371-1.784,1.034a15.5,15.5,0,0,0-6.257,7.405c-.473,1.174-.65,1.947-.721,1.931a6.178,6.178,0,0,1,.442-2.036,13.785,13.785,0,0,1,6.387-7.559,6.193,6.193,0,0,1,1.933-.775" transform="translate(-88.238 -23.241)" fill="#263238"/>
              <path id="Trazado_755323" data-name="Trazado 755323" d="M429.192,196.756l-4.163,1.908-1.786-.689-9.087-.568-5.691,1.257-.163.325c0,3.086,5.846,1.867,7.633,2.355s.162,4.3.162,4.3-8.038,10.474-9.439,12.991c-.7,1.259-.472,1.948-.068,2.324a1.214,1.214,0,0,0,1.519.056l2.968-2.1s8.164.475,8.725.2a8.481,8.481,0,0,0,1.979-2.1,61.9,61.9,0,0,1,12.93-9.537Z" transform="translate(-77.107 -37.348)" fill="#fafafa"/>
              <path id="Trazado_755324" data-name="Trazado 755324" d="M429.143,196.756a.891.891,0,0,1,.1.168l.29.531,1.113,2.089,4.135,7.871.063.12-.121.065a62.558,62.558,0,0,0-12.865,9.554l.027-.031a8.6,8.6,0,0,1-1.9,2.084.96.96,0,0,1-.407.147l-.369.03-.723.015c-.481,0-.965-.006-1.454-.017-1.951-.049-3.962-.145-6.02-.258l.131-.038-1.926,1.365-.975.691a1.507,1.507,0,0,1-1.314.273,1.355,1.355,0,0,1-.941-1,2.236,2.236,0,0,1,.164-1.319,13.362,13.362,0,0,1,1.287-2.154c2.823-4.069,5.726-7.855,8.444-11.423l-.025.044a10.25,10.25,0,0,0,.53-1.692,3.75,3.75,0,0,0,.06-1.668.948.948,0,0,0-.4-.581,2.051,2.051,0,0,0-.758-.18c-.556-.053-1.126-.048-1.689-.052a16.783,16.783,0,0,1-3.33-.233,3.521,3.521,0,0,1-1.521-.67,2.023,2.023,0,0,1-.672-1.5v-.039l.019-.039.163-.324.038-.075.08-.018,5.695-1.238.022,0,.021,0,9.083.617.017,0,.015.006,1.781.7-.069,0,3.14-1.385.8-.343a1.629,1.629,0,0,1,.263-.1,2.444,2.444,0,0,1-.276.146l-.8.388-3.054,1.454-.033.015-.036-.014-1.791-.676.031.007-9.09-.519.043,0-5.687,1.278.118-.092-.161.326.019-.079a1.663,1.663,0,0,0,.555,1.23,3.191,3.191,0,0,0,1.367.586,16.573,16.573,0,0,0,3.253.209c.564,0,1.136-.007,1.727.047a2.346,2.346,0,0,1,.917.228,1.339,1.339,0,0,1,.584.811,4.1,4.1,0,0,1-.049,1.859,10.606,10.606,0,0,1-.548,1.768l-.009.021-.017.023c-2.705,3.57-5.607,7.364-8.416,11.413a13.234,13.234,0,0,0-1.244,2.072,1.844,1.844,0,0,0-.147,1.067.936.936,0,0,0,.646.689A1.083,1.083,0,0,0,408,220.8l.976-.689,1.927-1.363.059-.041.072,0c2.054.116,4.064.216,6.007.271.485.012.967.023,1.441.021l.706-.012.338-.026a.532.532,0,0,0,.249-.091,8.4,8.4,0,0,0,1.795-1.967l.015-.019.012-.012a61.54,61.54,0,0,1,12.994-9.52l-.058.185c-1.676-3.326-3.024-6-3.965-7.868l-1.066-2.146-.275-.565a1.461,1.461,0,0,1-.089-.2" transform="translate(-77.058 -37.348)" fill="#263238"/>
              <path id="Trazado_755325" data-name="Trazado 755325" d="M419.91,215.384a42.674,42.674,0,0,1-3.754,3.636c-1.06.976-2.028,1.853-2.739,2.476a6.675,6.675,0,0,1-1.2.957,48.122,48.122,0,0,1,7.694-7.069" transform="translate(-78.247 -40.884)" fill="#263238"/>
              <path id="Trazado_755326" data-name="Trazado 755326" d="M423.556,217.885a11.864,11.864,0,0,1-2.36,2.852,14.279,14.279,0,0,1-2.793,2.426,19.1,19.1,0,0,1,2.493-2.723,26.346,26.346,0,0,1,2.66-2.554" transform="translate(-79.421 -41.359)" fill="#263238"/>
            </g>
          </g>
          <rect id="Rectángulo_360279" data-name="Rectángulo 360279" width="26.042" height="36.499" transform="translate(218.371 82.061)" fill="#455a64"/>
          <rect id="Rectángulo_360280" data-name="Rectángulo 360280" width="26.042" height="4.231" transform="translate(218.371 82.061)" fill="#263238"/>
          <rect id="Rectángulo_360281" data-name="Rectángulo 360281" width="26.042" height="4.231" transform="translate(218.371 114.33)" fill="#263238"/>
          <rect id="Rectángulo_360282" data-name="Rectángulo 360282" width="15.822" height="8.245" transform="translate(223.451 88.894)" fill="#263238"/>
          <g id="Grupo_1023318" data-name="Grupo 1023318">
            <g id="Grupo_1023317" data-name="Grupo 1023317" clip-path="url(#clip-path-2)">
              <path id="Trazado_755327" data-name="Trazado 755327" d="M288.4,113.9c-.04,0-.036-.331-.2-.887a3.707,3.707,0,0,0-1.362-1.948,3.534,3.534,0,1,0,0,5.669,3.705,3.705,0,0,0,1.362-1.947c.16-.557.156-.889.2-.887.015,0,.024.082.031.24a2.818,2.818,0,0,1-.067.687,3.7,3.7,0,0,1-1.34,2.145,3.85,3.85,0,0,1-3.671.6,3.9,3.9,0,0,1,0-7.343,3.849,3.849,0,0,1,3.67.6,3.694,3.694,0,0,1,1.341,2.145,2.818,2.818,0,0,1,.067.687c-.006.158-.016.24-.031.24" transform="translate(-53.294 -20.881)" fill="#455a64"/>
              <path id="Trazado_755328" data-name="Trazado 755328" d="M277.765,123.669a.614.614,0,1,1-.614-.614.614.614,0,0,1,.614.614" transform="translate(-52.493 -23.358)" fill="#263238"/>
              <path id="Trazado_755329" data-name="Trazado 755329" d="M283.5,123.669a.614.614,0,1,1-.614-.614.614.614,0,0,1,.614.614" transform="translate(-53.581 -23.358)" fill="#263238"/>
              <path id="Trazado_755330" data-name="Trazado 755330" d="M289.23,123.669a.614.614,0,1,1-.614-.614.614.614,0,0,1,.614.614" transform="translate(-54.669 -23.358)" fill="#263238"/>
              <path id="Trazado_755331" data-name="Trazado 755331" d="M277.765,128.527a.614.614,0,1,1-.614-.614.614.614,0,0,1,.614.614" transform="translate(-52.493 -24.281)" fill="#263238"/>
              <path id="Trazado_755332" data-name="Trazado 755332" d="M283.5,128.527a.614.614,0,1,1-.614-.614.614.614,0,0,1,.614.614" transform="translate(-53.581 -24.281)" fill="#263238"/>
              <path id="Trazado_755333" data-name="Trazado 755333" d="M289.23,128.527a.614.614,0,1,1-.614-.614.614.614,0,0,1,.614.614" transform="translate(-54.669 -24.281)" fill="#263238"/>
              <path id="Trazado_755334" data-name="Trazado 755334" d="M277.765,133.385a.614.614,0,1,1-.614-.614.614.614,0,0,1,.614.614" transform="translate(-52.493 -25.203)" fill="#263238"/>
              <path id="Trazado_755335" data-name="Trazado 755335" d="M283.5,133.385a.614.614,0,1,1-.614-.614.614.614,0,0,1,.614.614" transform="translate(-53.581 -25.203)" fill="#263238"/>
              <path id="Trazado_755336" data-name="Trazado 755336" d="M289.23,133.385a.614.614,0,1,1-.614-.614.614.614,0,0,1,.614.614" transform="translate(-54.669 -25.203)" fill="#263238"/>
              <path id="Trazado_755337" data-name="Trazado 755337" d="M296.427,128.15a2.226,2.226,0,1,1-2.226-2.226,2.226,2.226,0,0,1,2.226,2.226" transform="translate(-55.423 -23.903)" fill="#e8505b"/>
            </g>
          </g>
          <rect id="Rectángulo_360284" data-name="Rectángulo 360284" width="15.072" height="350.6" transform="translate(192.187 0.002)" fill="#263238"/>
          <rect id="Rectángulo_360285" data-name="Rectángulo 360285" width="150.054" height="335.809" transform="translate(42.133 14.794)" fill="#455a64"/>
          <rect id="Rectángulo_360286" data-name="Rectángulo 360286" width="13.886" height="350.6" transform="translate(32.452 0.002)" fill="#263238"/>
          <rect id="Rectángulo_360287" data-name="Rectángulo 360287" width="174.807" height="14.791" transform="translate(32.452 0.002)" fill="#263238"/>
          <g id="Grupo_1023320" data-name="Grupo 1023320">
            <g id="Grupo_1023319" data-name="Grupo 1023319" clip-path="url(#clip-path-2)">
              <path id="Trazado_755338" data-name="Trazado 755338" d="M252.38,0a3.143,3.143,0,0,1-.563.587L250.189,2.08c-1.465,1.324-3.333,3.015-5.4,4.885-2.1,1.92-3.967,3.687-5.248,5.031a17.238,17.238,0,0,0-1.434,1.654,3.6,3.6,0,0,0-.307.5c-.038.122-.066.191-.082.192s-.015-.071,0-.219a2.457,2.457,0,0,1,.251-.561,12.424,12.424,0,0,1,1.351-1.766A72.952,72.952,0,0,1,244.5,6.653c2.1-1.924,4.056-3.605,5.488-4.8.719-.6,1.305-1.071,1.719-1.39A3.008,3.008,0,0,1,252.38,0" transform="translate(-45.122 0)" fill="#455a64"/>
              <path id="Trazado_755339" data-name="Trazado 755339" d="M53.941,15.1c-.086.079-3.264-3.237-7.1-7.4S39.97.08,40.056,0s3.263,3.236,7.1,7.405,6.874,7.612,6.788,7.69" transform="translate(-7.603 0)" fill="#455a64"/>
              <path id="Trazado_755340" data-name="Trazado 755340" d="M67.321,251.706h-.43a4.833,4.833,0,0,1-4.834-4.834V211.692a4.833,4.833,0,0,1,4.834-4.834h.43a4.833,4.833,0,0,1,4.834,4.834v35.181a4.833,4.833,0,0,1-4.834,4.834" transform="translate(-11.78 -39.266)" fill="#263238"/>
              <path id="Trazado_755341" data-name="Trazado 755341" d="M70.022,248.222a1.7,1.7,0,1,0-2.466,1.513v1.976a.764.764,0,0,0,1.529,0v-1.976a1.7,1.7,0,0,0,.937-1.513" transform="translate(-12.646 -46.795)" fill="#455a64"/>
              <path id="Trazado_755342" data-name="Trazado 755342" d="M93.352,230.866H70.69a2.568,2.568,0,0,1-2.567-2.567v-.228A2.568,2.568,0,0,1,70.69,225.5H93.352a2.568,2.568,0,0,1,2.567,2.567v.228a2.568,2.568,0,0,1-2.567,2.567" transform="translate(-12.931 -42.805)" fill="#263238"/>
              <path id="Trazado_755343" data-name="Trazado 755343" d="M78.1,230.944a3.6,3.6,0,0,1-.844.071l-2.3.1A20.615,20.615,0,0,1,71.517,231a7.584,7.584,0,0,1-2-.506A3.556,3.556,0,0,1,67.8,229.02a2.56,2.56,0,0,1-.109-2.277,1.848,1.848,0,0,1,.768-.831,4.823,4.823,0,0,1,.945-.4,10.86,10.86,0,0,1,3.43-.405c.977,0,1.763.049,2.306.082a3.379,3.379,0,0,1,.843.095,27.961,27.961,0,0,1-3.144.122,11.3,11.3,0,0,0-3.313.476,2.217,2.217,0,0,0-1.462,1.043,2.16,2.16,0,0,0,.1,1.9,3.182,3.182,0,0,0,1.515,1.3,7.437,7.437,0,0,0,1.89.5,23.431,23.431,0,0,0,3.378.2,17.1,17.1,0,0,1,3.148.128" transform="translate(-12.808 -42.729)" fill="#455a64"/>
              <path id="Trazado_755344" data-name="Trazado 755344" d="M129.024,98.164s-.007-.094-.011-.268-.007-.442-.011-.771c0-.692-.012-1.688-.022-2.982-.012-2.613-.029-6.413-.05-11.228-.023-9.633-.056-23.319-.095-39.6l.189.188L84.5,43.528h0l.211-.211c-.013,20.291-.025,39.157-.035,54.847l-.176-.176,32.28.091,9.033.045,2.386.02c.541.006.83.019.83.019s-.263.013-.793.019l-2.353.02-8.992.045L84.5,98.34H84.32v-.177c-.011-15.69-.022-34.556-.036-54.847v-.211H84.5l44.524.023h.189v.189c-.039,16.328-.072,30.056-.095,39.718-.021,4.8-.038,8.583-.05,11.186-.01,1.278-.017,2.262-.022,2.945,0,.321-.008.569-.011.75a2.059,2.059,0,0,1-.011.247" transform="translate(-15.999 -8.182)" fill="#263238"/>
              <path id="Trazado_755345" data-name="Trazado 755345" d="M123.21,92.838a1.626,1.626,0,0,1-.011-.209c0-.15-.006-.345-.011-.594,0-.54-.013-1.3-.023-2.29-.012-2.012-.029-4.92-.051-8.594-.023-7.363-.056-17.789-.095-30.126l.191.191-30.678.02c-.052.044.4-.395.207-.2v2.9q0,1.45,0,2.885,0,2.868,0,5.671c0,3.735-.006,7.373-.007,10.89-.011,7.033-.02,13.583-.029,19.457l-.172-.173c9.264.039,16.911.069,22.263.09L121,92.8l1.639.019c.373.006.574.019.574.019s-.177.013-.537.019l-1.607.019-6.167.045-22.371.089h-.173v-.173c-.008-5.874-.018-12.424-.028-19.457,0-3.518,0-7.155-.007-10.89q0-2.8,0-5.671,0-1.435,0-2.885v-2.9c-.188.186.255-.267.215-.219l30.678.019h.191v.19c-.039,12.388-.072,22.858-.095,30.251-.022,3.656-.04,6.549-.051,8.551-.01.97-.018,1.722-.023,2.252,0,.241-.008.429-.011.574a1.054,1.054,0,0,1-.011.186" transform="translate(-17.515 -9.645)" fill="#263238"/>
              <path id="Trazado_755346" data-name="Trazado 755346" d="M129.024,229.884s-.008-.176-.012-.51-.007-.833-.013-1.476c-.006-1.307-.014-3.22-.025-5.7-.013-4.974-.032-12.209-.055-21.305-.024-18.18-.057-43.789-.1-73.554l.2.2-44.522.01H84.5l.211-.211c-.023,39.936-.045,76.15-.06,102.546l-.151-.152,32.537.082,8.875.037,2.317.017c.524,0,.8.015.8.015s-.255.011-.77.015l-2.29.017-8.841.037-32.628.081h-.151v-.151c-.015-26.4-.036-62.61-.06-102.546v-.211H84.5l44.522.011h.2v.2c-.038,29.82-.071,55.475-.1,73.689-.023,9.077-.042,16.3-.055,21.26-.011,2.462-.019,4.362-.025,5.659q-.008.949-.013,1.453c0,.325-.012.485-.012.485" transform="translate(-15.999 -24.131)" fill="#263238"/>
              <path id="Trazado_755347" data-name="Trazado 755347" d="M123.221,225.684s-.009-.159-.013-.456-.007-.747-.013-1.319c-.006-1.169-.015-2.875-.026-5.081-.014-4.43-.033-10.86-.058-18.918-.023-16.106-.057-38.714-.095-64.77l.2.2-30.676.006h-.006l.211-.211c-.028,36.2-.054,68.687-.071,90.543l-.139-.139,22.512.076,6.054.034,1.572.015c.356,0,.544.015.544.015s-.169.01-.515.015l-1.547.015-6.023.034-22.6.076H92.4v-.14c-.018-21.856-.043-54.344-.072-90.543v-.211h.217l30.676.007h.2v.2c-.038,26.113-.071,48.769-.095,64.91-.024,8.039-.044,14.452-.058,18.871-.011,2.187-.02,3.878-.026,5.038-.006.561-.01.991-.013,1.294s-.013.431-.013.431" transform="translate(-17.526 -25.613)" fill="#263238"/>
              <path id="Trazado_755348" data-name="Trazado 755348" d="M129.024,390.183s-.008-.176-.012-.51-.007-.834-.013-1.476c-.006-1.307-.014-3.22-.025-5.7-.013-4.974-.032-12.209-.055-21.305-.024-18.18-.057-43.789-.1-73.554l.2.2-44.522.01H84.5l.211-.211c-.023,39.936-.045,76.149-.06,102.546l-.151-.152,32.537.082,8.875.037,2.317.017c.524,0,.8.015.8.015s-.255.01-.77.015l-2.29.016-8.841.038-32.628.081h-.151v-.152c-.015-26.4-.036-62.61-.06-102.546v-.212H84.5l44.522.011h.2v.2c-.038,29.82-.071,55.475-.1,73.689-.023,9.077-.042,16.3-.055,21.26-.011,2.462-.019,4.362-.025,5.659-.006.633-.01,1.116-.013,1.453s-.012.484-.012.484" transform="translate(-15.999 -54.56)" fill="#263238"/>
              <path id="Trazado_755349" data-name="Trazado 755349" d="M123.221,385.983s-.009-.159-.013-.456-.007-.747-.013-1.319c-.006-1.169-.015-2.875-.026-5.081-.014-4.43-.033-10.859-.058-18.918-.023-16.106-.057-38.714-.095-64.77l.2.2-30.676.007h-.006l.211-.211c-.028,36.2-.054,68.687-.071,90.543l-.139-.139,22.512.076,6.054.034,1.572.015c.356,0,.544.015.544.015s-.169.01-.515.015l-1.547.015-6.023.034-22.6.076H92.4v-.14c-.018-21.856-.043-54.344-.072-90.543v-.211h.217l30.676.007h.2v.2c-.038,26.113-.071,48.769-.095,64.91-.024,8.039-.044,14.452-.058,18.871-.011,2.188-.02,3.878-.026,5.038-.006.561-.01.991-.013,1.294s-.013.431-.013.431" transform="translate(-17.526 -56.041)" fill="#263238"/>
              <path id="Trazado_755350" data-name="Trazado 755350" d="M91.627,102.662a30.682,30.682,0,0,1-3.807,3.371,30.82,30.82,0,0,1-4.074,3.044,30.756,30.756,0,0,1,3.807-3.371,30.844,30.844,0,0,1,4.074-3.044" transform="translate(-15.896 -19.487)" fill="#263238"/>
              <path id="Trazado_755351" data-name="Trazado 755351" d="M138.111,108.674a18.061,18.061,0,0,1-3.9-2.651,18.047,18.047,0,0,1-3.382-3.289c.085-.087,1.641,1.329,3.649,2.962s3.7,2.877,3.636,2.978" transform="translate(-24.833 -19.5)" fill="#263238"/>
              <path id="Trazado_755352" data-name="Trazado 755352" d="M137.055,44.971a22.188,22.188,0,0,1-3.361,2.7,22.2,22.2,0,0,1-3.609,2.364,22.255,22.255,0,0,1,3.361-2.705,22.2,22.2,0,0,1,3.609-2.363" transform="translate(-24.693 -8.535)" fill="#263238"/>
              <path id="Trazado_755353" data-name="Trazado 755353" d="M91.12,49.1a15.277,15.277,0,0,1-3.686-2.076,15.24,15.24,0,0,1-3.254-2.7,35.374,35.374,0,0,1,3.494,2.357A35.312,35.312,0,0,1,91.12,49.1" transform="translate(-15.979 -8.412)" fill="#263238"/>
              <path id="Trazado_755354" data-name="Trazado 755354" d="M90.911,133.679a14.958,14.958,0,0,1-6.308-7.129c.114-.062,1.137,1.836,2.888,3.8,1.735,1.977,3.5,3.223,3.42,3.328" transform="translate(-16.058 -24.022)" fill="#263238"/>
              <path id="Trazado_755355" data-name="Trazado 755355" d="M137.274,127.328a23.009,23.009,0,0,1-3.157,3.056,22.985,22.985,0,0,1-3.437,2.739,23.044,23.044,0,0,1,3.158-3.056,23.016,23.016,0,0,1,3.436-2.739" transform="translate(-24.805 -24.169)" fill="#263238"/>
              <path id="Trazado_755356" data-name="Trazado 755356" d="M90.94,247.522c.068.1-1.411,1.175-3.088,2.665s-2.929,2.821-3.022,2.741a17.847,17.847,0,0,1,6.11-5.405" transform="translate(-16.102 -46.984)" fill="#263238"/>
              <path id="Trazado_755357" data-name="Trazado 755357" d="M136.579,252.565A19.156,19.156,0,0,1,133.488,250a19.13,19.13,0,0,1-2.8-2.877,19.322,19.322,0,0,1,3.091,2.568,19.2,19.2,0,0,1,2.8,2.876" transform="translate(-24.806 -46.908)" fill="#263238"/>
              <path id="Trazado_755358" data-name="Trazado 755358" d="M91.622,295.237a31.993,31.993,0,0,1-3.741-3.591,32.151,32.151,0,0,1-3.438-3.883,31.949,31.949,0,0,1,3.742,3.591,31.959,31.959,0,0,1,3.437,3.883" transform="translate(-16.029 -54.623)" fill="#263238"/>
              <path id="Trazado_755359" data-name="Trazado 755359" d="M137.653,287.367a29.063,29.063,0,0,1-3.408,3.575,29.093,29.093,0,0,1-3.7,3.272,29.115,29.115,0,0,1,3.408-3.575,28.978,28.978,0,0,1,3.7-3.271" transform="translate(-24.779 -54.548)" fill="#263238"/>
              <path id="Trazado_755360" data-name="Trazado 755360" d="M90.174,406.594a20.406,20.406,0,0,1-2.618,3.208,20.43,20.43,0,0,1-2.931,2.925,20.456,20.456,0,0,1,2.619-3.208,20.448,20.448,0,0,1,2.931-2.925" transform="translate(-16.063 -77.18)" fill="#263238"/>
              <path id="Trazado_755361" data-name="Trazado 755361" d="M137.1,412.851a25.651,25.651,0,0,1-6.4-6,37.624,37.624,0,0,1,3.232,2.967,37.8,37.8,0,0,1,3.17,3.03" transform="translate(-24.808 -77.229)" fill="#263238"/>
              <path id="Trazado_755362" data-name="Trazado 755362" d="M202.175,98.164s-.007-.094-.011-.268-.006-.442-.011-.771c0-.692-.012-1.688-.022-2.982-.012-2.613-.029-6.413-.05-11.228-.023-9.633-.056-23.319-.094-39.6l.188.188-44.524.023h0l.211-.211c-.013,20.291-.025,39.157-.035,54.847l-.176-.176,32.28.091,9.033.045,2.386.02c.541.006.83.019.83.019s-.263.013-.793.019l-2.353.02-8.992.045-32.391.091h-.176v-.177c-.01-15.69-.022-34.556-.036-54.847v-.211h.216l44.524.023h.189v.189c-.038,16.328-.071,30.056-.094,39.718-.021,4.8-.038,8.583-.05,11.186-.01,1.278-.017,2.262-.022,2.945,0,.321-.008.569-.011.75a1.853,1.853,0,0,1-.01.247" transform="translate(-29.885 -8.182)" fill="#263238"/>
              <path id="Trazado_755363" data-name="Trazado 755363" d="M196.36,92.838a1.612,1.612,0,0,1-.011-.209c0-.15-.006-.345-.011-.594-.006-.54-.014-1.3-.024-2.29-.011-2.012-.029-4.92-.051-8.594-.023-7.363-.056-17.789-.095-30.126l.191.191-30.678.02c-.051.044.4-.395.207-.2v2.9q0,1.45,0,2.885,0,2.868,0,5.671c0,3.735,0,7.373-.007,10.89-.011,7.033-.02,13.583-.029,19.457l-.172-.173c9.264.039,16.911.069,22.263.09l6.206.045,1.639.019c.373.006.574.019.574.019s-.177.013-.537.019l-1.607.019-6.167.045-22.371.089h-.172v-.173c-.008-5.874-.018-12.424-.028-19.457,0-3.518,0-7.155-.007-10.89q0-2.8,0-5.671V51.032c-.187.186.255-.267.215-.219l30.678.019h.192v.19c-.039,12.388-.072,22.858-.095,30.251-.022,3.656-.039,6.549-.051,8.551-.01.97-.018,1.722-.023,2.252,0,.241-.009.429-.011.574a1.057,1.057,0,0,1-.011.186" transform="translate(-31.4 -9.645)" fill="#263238"/>
              <path id="Trazado_755364" data-name="Trazado 755364" d="M202.175,229.884s-.008-.176-.012-.51-.007-.833-.013-1.476c-.006-1.307-.014-3.22-.025-5.7-.013-4.974-.032-12.209-.055-21.305-.024-18.18-.057-43.789-.1-73.554l.2.2-44.522.01h-.007l.211-.211c-.023,39.936-.045,76.15-.06,102.546l-.151-.152,32.537.082,8.875.037,2.317.017c.524,0,.8.015.8.015s-.255.011-.77.015l-2.29.017-8.842.037-32.628.081H157.5v-.151c-.015-26.4-.036-62.61-.06-102.546v-.211h.219l44.522.011h.2v.2c-.039,29.82-.071,55.475-.1,73.689-.024,9.077-.042,16.3-.055,21.26-.011,2.462-.019,4.362-.025,5.659q-.009.949-.013,1.453c0,.325-.012.485-.012.485" transform="translate(-29.885 -24.131)" fill="#263238"/>
              <path id="Trazado_755365" data-name="Trazado 755365" d="M196.371,225.684s-.009-.159-.013-.456-.007-.747-.013-1.319c-.006-1.169-.015-2.875-.026-5.081-.014-4.43-.033-10.86-.057-18.918-.023-16.106-.057-38.714-.095-64.77l.2.2-30.676.006h-.006l.211-.211c-.028,36.2-.054,68.687-.071,90.543l-.139-.139,22.512.076,6.055.034,1.572.015c.356,0,.544.015.544.015s-.169.01-.515.015l-1.547.015-6.023.034-22.6.076h-.139v-.14c-.017-21.856-.042-54.344-.071-90.543v-.211h.217l30.676.007h.2v.2c-.038,26.113-.071,48.769-.095,64.91-.024,8.039-.044,14.452-.058,18.871-.011,2.187-.02,3.878-.026,5.038-.006.561-.01.991-.013,1.294s-.013.431-.013.431" transform="translate(-31.411 -25.613)" fill="#263238"/>
              <path id="Trazado_755366" data-name="Trazado 755366" d="M202.175,390.183s-.008-.176-.012-.51-.007-.834-.013-1.476c-.006-1.307-.014-3.22-.025-5.7-.013-4.974-.032-12.209-.055-21.305-.024-18.18-.057-43.789-.1-73.554l.2.2-44.522.01h-.007l.211-.211c-.023,39.936-.045,76.149-.06,102.546l-.151-.152,32.537.082,8.875.037,2.317.017c.524,0,.8.015.8.015s-.255.01-.77.015l-2.29.016-8.842.038-32.628.081H157.5v-.152c-.015-26.4-.036-62.61-.06-102.546v-.212h.219l44.522.011h.2v.2c-.039,29.82-.071,55.475-.1,73.689-.024,9.077-.042,16.3-.055,21.26-.011,2.462-.019,4.362-.025,5.659-.006.633-.01,1.116-.013,1.453s-.012.484-.012.484" transform="translate(-29.885 -54.56)" fill="#263238"/>
              <path id="Trazado_755367" data-name="Trazado 755367" d="M196.371,385.983s-.009-.159-.013-.456-.007-.747-.013-1.319c-.006-1.169-.015-2.875-.026-5.081-.014-4.43-.033-10.859-.057-18.918-.023-16.106-.057-38.714-.095-64.77l.2.2-30.676.007h-.006l.211-.211c-.028,36.2-.054,68.687-.071,90.543l-.139-.139,22.512.076,6.055.034,1.572.015c.356,0,.544.015.544.015s-.169.01-.515.015l-1.547.015-6.023.034-22.6.076h-.139v-.14c-.017-21.856-.042-54.344-.071-90.543v-.211h.217l30.676.007h.2v.2c-.038,26.113-.071,48.769-.095,64.91-.024,8.039-.044,14.452-.058,18.871-.011,2.188-.02,3.878-.026,5.038-.006.561-.01.991-.013,1.294s-.013.431-.013.431" transform="translate(-31.411 -56.041)" fill="#263238"/>
              <path id="Trazado_755368" data-name="Trazado 755368" d="M164.777,102.662a30.68,30.68,0,0,1-3.807,3.371,30.819,30.819,0,0,1-4.074,3.044,30.753,30.753,0,0,1,3.807-3.371,30.845,30.845,0,0,1,4.074-3.044" transform="translate(-29.782 -19.487)" fill="#263238"/>
              <path id="Trazado_755369" data-name="Trazado 755369" d="M211.261,108.674a18.06,18.06,0,0,1-3.9-2.651,18.048,18.048,0,0,1-3.383-3.289c.085-.087,1.641,1.329,3.649,2.962s3.7,2.877,3.636,2.978" transform="translate(-38.718 -19.5)" fill="#263238"/>
              <path id="Trazado_755370" data-name="Trazado 755370" d="M210.205,44.971a22.19,22.19,0,0,1-3.361,2.7,22.2,22.2,0,0,1-3.609,2.364,22.253,22.253,0,0,1,3.361-2.705,22.2,22.2,0,0,1,3.609-2.363" transform="translate(-38.578 -8.535)" fill="#263238"/>
              <path id="Trazado_755371" data-name="Trazado 755371" d="M164.27,49.1a15.275,15.275,0,0,1-3.686-2.076,15.239,15.239,0,0,1-3.254-2.7,35.384,35.384,0,0,1,3.493,2.357A35.321,35.321,0,0,1,164.27,49.1" transform="translate(-29.864 -8.412)" fill="#263238"/>
              <path id="Trazado_755372" data-name="Trazado 755372" d="M164.062,133.679a14.951,14.951,0,0,1-6.307-7.129c.113-.062,1.136,1.836,2.887,3.8,1.736,1.977,3.5,3.223,3.42,3.328" transform="translate(-29.944 -24.022)" fill="#263238"/>
              <path id="Trazado_755373" data-name="Trazado 755373" d="M210.424,127.328a23,23,0,0,1-3.157,3.056,22.982,22.982,0,0,1-3.437,2.739,45.826,45.826,0,0,1,6.594-5.8" transform="translate(-38.691 -24.169)" fill="#263238"/>
              <path id="Trazado_755374" data-name="Trazado 755374" d="M164.09,247.522c.068.1-1.411,1.175-3.088,2.665s-2.929,2.821-3.022,2.741a17.848,17.848,0,0,1,6.11-5.405" transform="translate(-29.987 -46.984)" fill="#263238"/>
              <path id="Trazado_755375" data-name="Trazado 755375" d="M209.729,252.565a38.317,38.317,0,0,1-5.9-5.444,38.419,38.419,0,0,1,5.9,5.444" transform="translate(-38.691 -46.908)" fill="#263238"/>
              <path id="Trazado_755376" data-name="Trazado 755376" d="M164.773,295.237a63.763,63.763,0,0,1-7.179-7.474,31.952,31.952,0,0,1,3.742,3.591,31.956,31.956,0,0,1,3.437,3.883" transform="translate(-29.914 -54.623)" fill="#263238"/>
              <path id="Trazado_755377" data-name="Trazado 755377" d="M210.8,287.367a57.712,57.712,0,0,1-7.109,6.847,57.85,57.85,0,0,1,7.109-6.847" transform="translate(-38.665 -54.548)" fill="#263238"/>
              <path id="Trazado_755378" data-name="Trazado 755378" d="M163.324,406.594a40.619,40.619,0,0,1-5.55,6.133,40.623,40.623,0,0,1,5.55-6.133" transform="translate(-29.948 -77.18)" fill="#263238"/>
              <path id="Trazado_755379" data-name="Trazado 755379" d="M210.247,412.851a25.629,25.629,0,0,1-6.4-6,37.849,37.849,0,0,1,3.231,2.967,37.812,37.812,0,0,1,3.17,3.03" transform="translate(-38.694 -77.229)" fill="#263238"/>
            </g>
          </g>
          <rect id="Rectángulo_360289" data-name="Rectángulo 360289" width="99.374" height="71.442" transform="translate(160.297 279.16)" fill="#f0dcc0"/>
          <g id="Grupo_1023325" data-name="Grupo 1023325">
            <g id="Grupo_1023324" data-name="Grupo 1023324" clip-path="url(#clip-path-2)">
              <path id="Trazado_755380" data-name="Trazado 755380" d="M229.03,344.566c.142,0,0,15.084,0,15.084h-7.356V344.566Z" transform="translate(-42.078 -65.406)" fill="#263238"/>
              <g id="Grupo_1023323" data-name="Grupo 1023323" transform="translate(209.984 279.16)" opacity="0.4">
                <g id="Grupo_1023322" data-name="Grupo 1023322">
                  <g id="Grupo_1023321" data-name="Grupo 1023321" clip-path="url(#clip-path-14)">
                    <rect id="Rectángulo_360290" data-name="Rectángulo 360290" width="49.687" height="71.442" transform="translate(0 0)" fill="#bfaf99"/>
                  </g>
                </g>
              </g>
              <rect id="Rectángulo_360292" data-name="Rectángulo 360292" width="13.302" height="9.414" transform="translate(163.326 336.615)" fill="#fafafa"/>
              <path id="Trazado_755381" data-name="Trazado 755381" d="M214.912,424.914H201.568v-9.456h13.344Zm-13.3-.041H214.87V415.5H201.608Z" transform="translate(-38.262 -78.863)" fill="#263238"/>
              <rect id="Rectángulo_360293" data-name="Rectángulo 360293" width="6.652" height="9.414" transform="translate(179.084 336.615)" fill="#fafafa"/>
              <path id="Trazado_755382" data-name="Trazado 755382" d="M227.71,424.914h-6.692v-9.456h6.692Zm-6.651-.041h6.609V415.5h-6.609Z" transform="translate(-41.954 -78.863)" fill="#263238"/>
            </g>
          </g>
        </g>
      </g>
    </g>
    <g id="Grupo_1023328" data-name="Grupo 1023328" transform="translate(-8387.14 368.863)">
      <g id="Grupo_1022381" data-name="Grupo 1022381" clip-path="url(#clip-path-15)">
        <path id="Trazado_751235" data-name="Trazado 751235" d="M331.309,0H299.737A4.163,4.163,0,0,0,295.7,3.155l-38.9,155.8,2.865,0L298.244,4.435a1.961,1.961,0,0,1,1.9-1.486h31.163a1.475,1.475,0,1,0,0-2.949" transform="translate(-202.972)" fill="#12263f"/>
        <path id="Trazado_751236" data-name="Trazado 751236" d="M867.813.613H836.19a4.163,4.163,0,0,0-4.039,3.155l-38.9,155.8,2.865,0L834.7,5.048a1.961,1.961,0,0,1,1.9-1.486h31.214a1.475,1.475,0,1,0,0-2.949" transform="translate(-626.988 -0.485)" fill="#12263f"/>
        <path id="Trazado_751237" data-name="Trazado 751237" d="M331.56,735.926c-.064-6.016-2.359-12.9-8.4-15.025-2.774-.633-5.708-.188-8.538-.294-7.493-1.1-12.841,5.531-12.991,15.319.151,9.789,5.5,16.412,12.991,15.318,2.829-.1,5.764.339,8.538-.293,6-2.042,8.377-9.135,8.4-15.025" transform="translate(-238.411 -569.479)" fill="#12263f"/>
        <path id="Trazado_751238" data-name="Trazado 751238" d="M80.72,729.654c-1.361-4.206-4.683-8.665-9.485-8.688-3,.014-6.116.008-9.06,0-5.789.136-10.441,7.089-10.347,15.588.1,8.383,4.784,15.128,10.592,15.083q4.406-.017,8.815,0c7.341-.334,10.561-8.927,10.522-15.337a21.251,21.251,0,0,0-1.038-6.649" transform="translate(-40.965 -569.857)" fill="#12263f"/>
        <rect id="Rectángulo_358193" data-name="Rectángulo 358193" width="75.675" height="93.304" transform="translate(112.337 67.904)" fill="#bfaf99"/>
        <rect id="Rectángulo_358194" data-name="Rectángulo 358194" width="8.965" height="10.64" transform="translate(152.567 67.904)" fill="#fdf1e6"/>
        <path id="Trazado_751245" data-name="Trazado 751245" d="M0,0H114.018V93.3H0Z" transform="translate(10.862 67.904)" fill="#f0dcc0"/>
        <rect id="Rectángulo_358196" data-name="Rectángulo 358196" width="13.508" height="10.64" transform="translate(61.118 67.904)" fill="#fdf1e6"/>
        <rect id="Rectángulo_358197" data-name="Rectángulo 358197" width="198.874" height="5.321" transform="translate(0 160.39)" fill="#727997"/>
        <rect id="Rectángulo_358198" data-name="Rectángulo 358198" width="99.437" height="5.321" transform="translate(0 160.39)" fill="#12263f"/>
        <path id="Trazado_751239" data-name="Trazado 751239" d="M794.226,720.555q-3.456.018-6.911,0c-15.639-2.22-16.543,30.172-1.974,30.674q3.455-.018,6.911,0c15.639,2.22,16.543-30.171,1.974-30.673" transform="translate(-612.546 -569.446)" fill="#12263f"/>
        <path id="Trazado_751240" data-name="Trazado 751240" d="M837.668,737.054c-.274,20.185-20.773,20.183-21.045,0,.274-20.184,20.773-20.182,21.045,0" transform="translate(-645.466 -570.608)" fill="#b0c0d2"/>
        <path id="Trazado_751241" data-name="Trazado 751241" d="M856.371,772.146c-.1,7.777-7.449,7.776-7.547,0,.1-7.777,7.449-7.776,7.547,0" transform="translate(-670.917 -605.7)" fill="#12263f"/>
        <rect id="Rectángulo_358200" data-name="Rectángulo 358200" width="1.078" height="15.191" transform="translate(38.023 138.385)" fill="#263238"/>
        <rect id="Rectángulo_358201" data-name="Rectángulo 358201" width="1.078" height="15.191" transform="translate(35.438 138.385)" fill="#263238"/>
        <rect id="Rectángulo_358202" data-name="Rectángulo 358202" width="1.076" height="15.191" transform="translate(32.853 138.385)" fill="#263238"/>
        <rect id="Rectángulo_358203" data-name="Rectángulo 358203" width="1.078" height="15.191" transform="translate(30.267 138.385)" fill="#263238"/>
        <rect id="Rectángulo_358204" data-name="Rectángulo 358204" width="1.078" height="15.191" transform="translate(27.682 138.385)" fill="#263238"/>
        <rect id="Rectángulo_358205" data-name="Rectángulo 358205" width="1.078" height="15.191" transform="translate(25.098 138.385)" fill="#263238"/>
        <rect id="Rectángulo_358206" data-name="Rectángulo 358206" width="1.078" height="15.191" transform="translate(22.514 138.385)" fill="#263238"/>
        <rect id="Rectángulo_358207" data-name="Rectángulo 358207" width="1.078" height="15.191" transform="translate(19.928 138.385)" fill="#263238"/>
        <rect id="Rectángulo_358208" data-name="Rectángulo 358208" width="1.078" height="15.191" transform="translate(17.342 138.385)" fill="#263238"/>
        <path id="Trazado_751246" data-name="Trazado 751246" d="M211.145,142.782,207,143.935h9.729l-4.146-1.167v-5.584c2.967-.389,4.146-3.316,4.146-8.434H207c0,5.1,1.179,8.045,4.146,8.434Z" transform="translate(-161.473 9.638)" fill="#263238"/>
        <path id="Trazado_751247" data-name="Trazado 751247" d="M215.082,136.5h2.54v7.436h6.5V136.5h2.551l-5.8-7.748Z" transform="translate(-157.559 9.638)" fill="#263238"/>
        <g id="Grupo_1022383" data-name="Grupo 1022383" transform="translate(9.925 139.731)" opacity="0.1">
          <g id="Grupo_1019470" data-name="Grupo 1019470" transform="translate(0 0)">
            <g id="Grupo_1019469" data-name="Grupo 1019469" clip-path="url(#clip-path-16)">
              <path id="Trazado_747756" data-name="Trazado 747756" d="M183.014,150.4v-7.274l115.077-13.468v20.737Z" transform="translate(-183.014 -129.655)"/>
            </g>
          </g>
        </g>
        <path id="Trazado_751248" data-name="Trazado 751248" d="M544.422,720.555q-3.456.018-6.911,0c-15.639-2.22-16.543,30.172-1.974,30.674q3.455-.018,6.911,0c15.639,2.22,16.543-30.171,1.975-30.673" transform="translate(-415.099 -569.446)" fill="#12263f"/>
        <path id="Trazado_751249" data-name="Trazado 751249" d="M587.864,737.054c-.274,20.185-20.773,20.183-21.044,0,.273-20.184,20.772-20.182,21.044,0" transform="translate(-448.019 -570.608)" fill="#b0c0d2"/>
        <path id="Trazado_751250" data-name="Trazado 751250" d="M606.567,772.146c-.1,7.777-7.449,7.776-7.547,0,.1-7.777,7.449-7.776,7.547,0" transform="translate(-473.47 -605.699)" fill="#12263f"/>
      </g>
    </g>
    <g id="Grupo_1023330" data-name="Grupo 1023330" transform="translate(-8255.835 220.332)">
      <g id="Grupo_1023329" data-name="Grupo 1023329" transform="translate(0 0)" clip-path="url(#clip-path-17)">
        <path id="Trazado_755383" data-name="Trazado 755383" d="M78.179,22.261H2.36A2.36,2.36,0,0,0,0,24.621V73.9a8.689,8.689,0,0,0,8.678,8.678H63.015a2.359,2.359,0,0,0,1.668-.692L79.848,66.727a2.361,2.361,0,0,0,.69-1.669V24.621a2.36,2.36,0,0,0-2.36-2.36" transform="translate(0 -2.043)" fill="#e8e8e8"/>
        <path id="Trazado_755384" data-name="Trazado 755384" d="M71.861,5.566H8.677A8.687,8.687,0,0,0,0,14.244v8.844H80.539V14.244a8.688,8.688,0,0,0-8.678-8.678" transform="translate(0 -0.511)" fill="#12263f"/>
        <path id="Trazado_755385" data-name="Trazado 755385" d="M27.4,14.829a2.36,2.36,0,0,1-2.36-2.36V2.36a2.36,2.36,0,1,1,4.719,0V12.469a2.359,2.359,0,0,1-2.36,2.36" transform="translate(-2.298 0)" fill="#fefbfa"/>
        <path id="Trazado_755386" data-name="Trazado 755386" d="M16.273,14.829a2.359,2.359,0,0,1-2.36-2.36V2.36a2.36,2.36,0,1,1,4.719,0V12.469a2.36,2.36,0,0,1-2.36,2.36" transform="translate(-1.277 0)" fill="#fefbfa"/>
        <path id="Trazado_755387" data-name="Trazado 755387" d="M49.666,14.829a2.359,2.359,0,0,1-2.36-2.36V2.36a2.36,2.36,0,1,1,4.719,0V12.469a2.36,2.36,0,0,1-2.36,2.36" transform="translate(-4.341 0)" fill="#fefbfa"/>
        <path id="Trazado_755388" data-name="Trazado 755388" d="M38.535,14.829a2.36,2.36,0,0,1-2.36-2.36V2.36a2.36,2.36,0,0,1,4.719,0V12.469a2.359,2.359,0,0,1-2.36,2.36" transform="translate(-3.32 0)" fill="#fefbfa"/>
        <path id="Trazado_755389" data-name="Trazado 755389" d="M71.927,14.829a2.36,2.36,0,0,1-2.36-2.36V2.36a2.36,2.36,0,1,1,4.719,0V12.469a2.359,2.359,0,0,1-2.36,2.36" transform="translate(-6.384 0)" fill="#fefbfa"/>
        <path id="Trazado_755390" data-name="Trazado 755390" d="M60.8,14.829a2.359,2.359,0,0,1-2.36-2.36V2.36a2.36,2.36,0,1,1,4.719,0V12.469a2.359,2.359,0,0,1-2.36,2.36" transform="translate(-5.363 0)" fill="#fefbfa"/>
        <path id="Trazado_755391" data-name="Trazado 755391" d="M27.4,40.894a2.357,2.357,0,1,1,1.669-.69,2.379,2.379,0,0,1-1.669.69" transform="translate(-2.298 -3.32)" fill="#57dbd8"/>
        <path id="Trazado_755392" data-name="Trazado 755392" d="M38.535,40.894A2.357,2.357,0,1,1,40.2,40.2a2.379,2.379,0,0,1-1.669.69" transform="translate(-3.32 -3.32)" fill="#57dbd8"/>
        <path id="Trazado_755393" data-name="Trazado 755393" d="M49.666,40.894a2.358,2.358,0,1,1,1.668-.69,2.376,2.376,0,0,1-1.668.69" transform="translate(-4.341 -3.32)" fill="#393d68"/>
        <path id="Trazado_755394" data-name="Trazado 755394" d="M60.8,40.894a2.357,2.357,0,1,1,1.669-.69,2.379,2.379,0,0,1-1.669.69" transform="translate(-5.363 -3.32)" fill="#393d68"/>
        <path id="Trazado_755395" data-name="Trazado 755395" d="M71.927,40.894A2.357,2.357,0,1,1,73.6,40.2a2.379,2.379,0,0,1-1.669.69" transform="translate(-6.384 -3.32)" fill="#393d68"/>
        <path id="Trazado_755396" data-name="Trazado 755396" d="M16.273,52.025a2.361,2.361,0,1,1,1.668-.691,2.374,2.374,0,0,1-1.668.691" transform="translate(-1.277 -4.341)" fill="#393d68"/>
        <path id="Trazado_755397" data-name="Trazado 755397" d="M27.4,52.025a2.358,2.358,0,1,1,1.669-.691,2.373,2.373,0,0,1-1.669.691" transform="translate(-2.298 -4.341)" fill="#393d68"/>
        <path id="Trazado_755398" data-name="Trazado 755398" d="M38.535,52.025a2.358,2.358,0,1,1,1.669-.691,2.376,2.376,0,0,1-1.669.691" transform="translate(-3.32 -4.341)" fill="#393d68"/>
        <path id="Trazado_755399" data-name="Trazado 755399" d="M49.666,52.025a2.36,2.36,0,1,1,1.668-.691,2.373,2.373,0,0,1-1.668.691" transform="translate(-4.341 -4.341)" fill="#393d68"/>
        <path id="Trazado_755400" data-name="Trazado 755400" d="M16.274,63.155a2.36,2.36,0,1,1,1.668-.69,2.377,2.377,0,0,1-1.668.69" transform="translate(-1.277 -5.363)" fill="#393d68"/>
        <path id="Trazado_755401" data-name="Trazado 755401" d="M27.4,63.155a2.357,2.357,0,1,1,1.669-.69,2.376,2.376,0,0,1-1.669.69" transform="translate(-2.298 -5.363)" fill="#393d68"/>
        <path id="Trazado_755402" data-name="Trazado 755402" d="M38.535,63.155a2.357,2.357,0,1,1,1.669-.69,2.376,2.376,0,0,1-1.669.69" transform="translate(-3.32 -5.363)" fill="#393d68"/>
        <path id="Trazado_755403" data-name="Trazado 755403" d="M16.272,74.286a2.361,2.361,0,1,1,1.669-.69,2.379,2.379,0,0,1-1.669.69" transform="translate(-1.277 -6.384)" fill="#393d68"/>
        <path id="Trazado_755404" data-name="Trazado 755404" d="M27.4,74.286a2.357,2.357,0,1,1,1.669-.69,2.376,2.376,0,0,1-1.669.69" transform="translate(-2.298 -6.384)" fill="#393d68"/>
        <path id="Trazado_755405" data-name="Trazado 755405" d="M38.535,74.286A2.357,2.357,0,1,1,40.2,73.6a2.376,2.376,0,0,1-1.669.69" transform="translate(-3.32 -6.384)" fill="#393d68"/>
        <path id="Trazado_755406" data-name="Trazado 755406" d="M83.014,67.851A15.164,15.164,0,1,1,67.851,52.687,15.164,15.164,0,0,1,83.014,67.851" transform="translate(-4.835 -4.835)" fill="#91b3fa"/>
        <path id="Trazado_755407" data-name="Trazado 755407" d="M67.611,85.136A17.523,17.523,0,1,1,85.135,67.611,17.542,17.542,0,0,1,67.611,85.136m0-30.328a12.8,12.8,0,1,0,12.8,12.8,12.817,12.817,0,0,0-12.8-12.8" transform="translate(-4.597 -4.597)" fill="#393d68"/>
        <path id="Trazado_755408" data-name="Trazado 755408" d="M74.2,70.993H69.144a2.36,2.36,0,0,1-2.36-2.36V63.58a2.36,2.36,0,0,1,4.719,0v2.695h2.7a2.36,2.36,0,1,1,0,4.719" transform="translate(-6.129 -5.618)" fill="#fefbfa"/>
      </g>
    </g>
  </g>
</svg>
