<svg xmlns="http://www.w3.org/2000/svg" xmlns:xlink="http://www.w3.org/1999/xlink" width="93" height="94" viewBox="0 0 93 94">
  <defs>
    <clipPath id="clip-path">
      <rect id="Rectángulo_360884" data-name="Rectángulo 360884" width="59.411" height="59.343" fill="none"/>
    </clipPath>
  </defs>
  <g id="Grupo_1024496" data-name="Grupo 1024496" transform="translate(0.275 -0.334)">
    <ellipse id="Elipse_4870" data-name="Elipse 4870" cx="46.5" cy="47" rx="46.5" ry="47" transform="translate(-0.275 0.334)" fill="#57dbd8"/>
    <g id="Grupo_1024508" data-name="Grupo 1024508" transform="translate(18.725 18.334)">
      <g id="Grupo_1024507" data-name="Grupo 1024507" clip-path="url(#clip-path)">
        <path id="Trazado_762847" data-name="Trazado 762847" d="M59.367,30.068A29.291,29.291,0,0,0,50.656,8.686a29.585,29.585,0,1,0,8.711,22.075v-.5c.1,0,0-.1,0-.2m-2.475.594A3.075,3.075,0,1,1,53.823,27.3a3.049,3.049,0,0,1,3.068,2.871Zm-.3-5.246a5.694,5.694,0,0,0-6.632.791V15.121a5.746,5.746,0,0,0-5.742-5.742h-9.3a5.507,5.507,0,0,0,.2-6.334,27.184,27.184,0,0,1,21.48,22.371M30.364,56.2a3.069,3.069,0,1,1,3.068-3.068A3.15,3.15,0,0,1,30.364,56.2M14.922,47.291a3.3,3.3,0,0,1-3.267-3.266v-28.9a3.3,3.3,0,0,1,3.267-3.268h29.3a3.3,3.3,0,0,1,3.267,3.268v28.9a3.3,3.3,0,0,1-3.267,3.266ZM30.462,2.945a3.068,3.068,0,1,1-3.068,3.069,3.084,3.084,0,0,1,3.068-3.069m-4.454-.2a5.494,5.494,0,0,0,0,6.632H14.922a5.745,5.745,0,0,0-5.741,5.742V25.316a5.753,5.753,0,0,0-6.237-.693A27.347,27.347,0,0,1,26.008,2.747M2.549,29.374a3.118,3.118,0,1,1,0,.1Zm.4,5.049a5.552,5.552,0,0,0,6.237-.594v10.2a5.746,5.746,0,0,0,5.741,5.742H25.81a5.648,5.648,0,0,0,.2,6.929A27.212,27.212,0,0,1,2.944,34.423M34.818,56.4a5.493,5.493,0,0,0,0-6.631h9.4a5.746,5.746,0,0,0,5.742-5.742v-9.7a5.419,5.419,0,0,0,6.335.89A26.935,26.935,0,0,1,34.818,56.4" transform="translate(0.001 0)"/>
        <path id="Trazado_762848" data-name="Trazado 762848" d="M151.888,112.235a1.157,1.157,0,0,0-1.682.4c-.2.4-7.325,11.482-11.087,17.322a1.223,1.223,0,1,0,2.08,1.287c2.573-4.058,10.988-17.124,11.185-17.322a1.322,1.322,0,0,0-.5-1.683" transform="translate(-115.387 -93.056)"/>
        <path id="Trazado_762849" data-name="Trazado 762849" d="M221.816,140.454l-6.236-6.237A1.26,1.26,0,0,0,213.8,136l5.148,5.148-6.039,4.158a1.208,1.208,0,1,0,1.386,1.979l7.424-4.949a1.21,1.21,0,0,0,.1-1.88" transform="translate(-176.406 -111.178)"/>
        <path id="Trazado_762850" data-name="Trazado 762850" d="M88.759,134.422l-7.424,4.95a1.223,1.223,0,0,0-.2,1.88l6.236,6.237a1.26,1.26,0,1,0,1.782-1.781l-5.148-5.148,6.138-4.157a1.168,1.168,0,0,0,.3-1.683,1.255,1.255,0,0,0-1.683-.3" transform="translate(-67.106 -111.482)"/>
        <rect id="Rectángulo_360880" data-name="Rectángulo 360880" width="2.474" height="2.475" transform="translate(14.923 14.131)"/>
        <rect id="Rectángulo_360881" data-name="Rectángulo 360881" width="2.474" height="2.475" transform="translate(43.332 14.131)"/>
        <rect id="Rectángulo_360882" data-name="Rectángulo 360882" width="2.474" height="2.474" transform="translate(43.332 42.54)"/>
        <rect id="Rectángulo_360883" data-name="Rectángulo 360883" width="2.474" height="2.474" transform="translate(14.923 42.54)"/>
      </g>
    </g>
  </g>
</svg>
