<svg xmlns="http://www.w3.org/2000/svg" xmlns:xlink="http://www.w3.org/1999/xlink" width="146" height="146" viewBox="0 0 146 146">
  <defs>
    <clipPath id="clip-path">
      <rect id="Rectángulo_351759" data-name="Rectángulo 351759" width="118.675" height="146" fill="none"/>
    </clipPath>
    <clipPath id="clip-path-3">
      <rect id="Rectángulo_351738" data-name="Rectángulo 351738" width="43.038" height="121.663" transform="translate(43.04 4.16)" fill="none"/>
    </clipPath>
  </defs>
  <g id="Grupo_1012788" data-name="Grupo 1012788" transform="translate(-376 -1337)">
    <rect id="Rectángulo_351087" data-name="Rectángulo 351087" width="146" height="146" transform="translate(376 1337)" fill="none"/>
    <g id="Grupo_1012774" data-name="Grupo 1012774" transform="translate(390 1337)">
      <g id="Enmascarar_grupo_1012773" data-name="Enmascarar grupo 1012773" clip-path="url(#clip-path)">
        <rect id="Rectángulo_351726" data-name="Rectángulo 351726" width="86.079" height="121.663" transform="translate(0 4.16)" fill="#1a0f91"/>
        <rect id="Rectángulo_351727" data-name="Rectángulo 351727" width="76.997" height="112.581" transform="translate(4.541 8.699)" fill="#e6e6e6"/>
        <rect id="Rectángulo_351728" data-name="Rectángulo 351728" width="34.249" height="13.242" transform="translate(25.915)" fill="#00b4c8"/>
        <path id="Trazado_730603" data-name="Trazado 730603" d="M26.485,30.649h-10.6v-10.6h10.6Zm3.027-13.623H12.866V33.678H29.512Z" fill="#c8c8c8"/>
        <path id="Trazado_730604" data-name="Trazado 730604" d="M26.485,56.883h-10.6V46.289h10.6Zm3.027-13.618H12.866V59.913H29.512Z" fill="#c8c8c8"/>
        <path id="Trazado_730605" data-name="Trazado 730605" d="M26.485,83.122h-10.6v-10.6h10.6ZM29.512,69.5H12.866V86.147H29.512Z" fill="#c8c8c8"/>
        <path id="Trazado_730606" data-name="Trazado 730606" d="M26.485,109.358h-10.6v-10.6h10.6Zm3.027-13.623H12.866v16.65H29.512Z" fill="#c8c8c8"/>
        <rect id="Rectángulo_351729" data-name="Rectángulo 351729" width="36.453" height="4.481" transform="translate(36.896 17.027)" fill="#c8c8c8"/>
        <rect id="Rectángulo_351730" data-name="Rectángulo 351730" width="36.453" height="4.482" transform="translate(36.896 29.197)" fill="#c8c8c8"/>
        <rect id="Rectángulo_351731" data-name="Rectángulo 351731" width="36.453" height="4.475" transform="translate(36.896 43.265)" fill="#c8c8c8"/>
        <rect id="Rectángulo_351732" data-name="Rectángulo 351732" width="36.453" height="4.479" transform="translate(36.896 55.434)" fill="#c8c8c8"/>
        <rect id="Rectángulo_351733" data-name="Rectángulo 351733" width="36.453" height="4.475" transform="translate(36.896 69.501)" fill="#c8c8c8"/>
        <rect id="Rectángulo_351734" data-name="Rectángulo 351734" width="36.453" height="4.482" transform="translate(36.896 81.669)" fill="#c8c8c8"/>
        <rect id="Rectángulo_351735" data-name="Rectángulo 351735" width="36.453" height="4.477" transform="translate(36.896 95.735)" fill="#c8c8c8"/>
        <rect id="Rectángulo_351736" data-name="Rectángulo 351736" width="36.453" height="4.481" transform="translate(36.896 107.904)" fill="#c8c8c8"/>
        <g id="Grupo_1012770" data-name="Grupo 1012770">
          <g id="Grupo_1012769" data-name="Grupo 1012769" clip-path="url(#clip-path)">
            <g id="Grupo_1012768" data-name="Grupo 1012768" opacity="0.1" style="mix-blend-mode: screen;isolation: isolate">
              <g id="Grupo_1012767" data-name="Grupo 1012767">
                <g id="Grupo_1012766" data-name="Grupo 1012766" clip-path="url(#clip-path-3)">
                  <rect id="Rectángulo_351737" data-name="Rectángulo 351737" width="43.038" height="121.663" transform="translate(43.04 4.16)" fill="#fff"/>
                </g>
              </g>
            </g>
          </g>
        </g>
        <rect id="Rectángulo_351740" data-name="Rectángulo 351740" width="17.122" height="13.242" transform="translate(43.042)" fill="#00bed2"/>
        <rect id="Rectángulo_351741" data-name="Rectángulo 351741" width="5.764" height="10.314" transform="translate(80.752 66.669)" fill="#0082aa"/>
        <rect id="Rectángulo_351742" data-name="Rectángulo 351742" width="6.756" height="4.669" transform="translate(101.731 81.897) rotate(-60.03)" fill="#0082aa"/>
        <rect id="Rectángulo_351743" data-name="Rectángulo 351743" width="4.667" height="6.759" transform="translate(58.991 77.844) rotate(-29.989)" fill="#0082aa"/>
        <g id="Grupo_1012772" data-name="Grupo 1012772">
          <g id="Grupo_1012771" data-name="Grupo 1012771" clip-path="url(#clip-path)">
            <path id="Trazado_730607" data-name="Trazado 730607" d="M118.675,110.961A35.041,35.041,0,1,1,83.634,75.923a35.04,35.04,0,0,1,35.041,35.038" fill="#7aa0e2"/>
            <path id="Trazado_730608" data-name="Trazado 730608" d="M118.675,110.961A35.037,35.037,0,0,0,83.634,75.923V146a35.04,35.04,0,0,0,35.041-35.039" fill="#91b3fa"/>
            <path id="Trazado_730609" data-name="Trazado 730609" d="M112.884,110.961a29.25,29.25,0,1,1-29.25-29.249,29.249,29.249,0,0,1,29.25,29.249" fill="#ebebeb"/>
            <path id="Trazado_730610" data-name="Trazado 730610" d="M112.884,110.961a29.248,29.248,0,0,0-29.25-29.249v58.5a29.249,29.249,0,0,0,29.25-29.25" fill="#f5f5f5"/>
            <path id="Trazado_730611" data-name="Trazado 730611" d="M83.634,118.167a7.2,7.2,0,1,1,7.2-7.205,7.213,7.213,0,0,1-7.2,7.205m0-13.2a5.992,5.992,0,1,0,5.989,5.991,6,6,0,0,0-5.989-5.991" fill="#c8c8c8"/>
            <path id="Trazado_730612" data-name="Trazado 730612" d="M84.855,111.87l-2.143-2.145,20.254-18.109Z" fill="#0082aa"/>
            <rect id="Rectángulo_351744" data-name="Rectángulo 351744" width="17.293" height="7.434" transform="translate(74.987 62.117)" fill="#00b4c8"/>
            <rect id="Rectángulo_351745" data-name="Rectángulo 351745" width="8.107" height="8.602" transform="translate(54.059 72.749) rotate(-30.012)" fill="#00b4c8"/>
            <rect id="Rectángulo_351746" data-name="Rectángulo 351746" width="8.599" height="8.112" transform="translate(102.758 76.673) rotate(-59.993)" fill="#00b4c8"/>
            <rect id="Rectángulo_351747" data-name="Rectángulo 351747" width="11.204" height="4.249" transform="matrix(0.707, -0.708, 0.708, 0.707, 73.858, 117.724)" fill="#0082aa"/>
            <path id="Trazado_730613" data-name="Trazado 730613" d="M85.57,112.587a2.529,2.529,0,1,1,0-3.577,2.526,2.526,0,0,1,0,3.577" fill="#00b4c8"/>
            <rect id="Rectángulo_351748" data-name="Rectángulo 351748" width="2.429" height="4.299" transform="translate(82.42 83.504)" fill="#c8c8c8"/>
            <rect id="Rectángulo_351749" data-name="Rectángulo 351749" width="2.429" height="4.301" transform="translate(82.42 134.118)" fill="#c8c8c8"/>
            <rect id="Rectángulo_351750" data-name="Rectángulo 351750" width="4.299" height="2.427" transform="translate(106.792 109.747)" fill="#c8c8c8"/>
            <rect id="Rectángulo_351751" data-name="Rectángulo 351751" width="4.299" height="2.427" transform="translate(56.177 109.747)" fill="#c8c8c8"/>
            <rect id="Rectángulo_351752" data-name="Rectángulo 351752" width="1.213" height="4.299" transform="translate(59.555 97.759) rotate(-59.999)" fill="#c8c8c8"/>
            <rect id="Rectángulo_351753" data-name="Rectángulo 351753" width="1.213" height="4.3" transform="translate(103.386 123.064) rotate(-60.006)" fill="#c8c8c8"/>
            <rect id="Rectángulo_351754" data-name="Rectángulo 351754" width="4.3" height="1.212" transform="translate(94.689 90.602) rotate(-60.026)" fill="#c8c8c8"/>
            <rect id="Rectángulo_351755" data-name="Rectángulo 351755" width="4.296" height="1.213" transform="translate(69.381 134.434) rotate(-59.944)" fill="#c8c8c8"/>
            <path id="Trazado_730614" data-name="Trazado 730614" d="M71.532,91.209l-2.149-3.72,1.049-.612L72.579,90.6Z" fill="#c8c8c8"/>
            <rect id="Rectángulo_351756" data-name="Rectángulo 351756" width="1.214" height="4.301" transform="translate(94.688 131.318) rotate(-30.016)" fill="#c8c8c8"/>
            <path id="Trazado_730615" data-name="Trazado 730615" d="M103.992,99.908l-.605-1.052,3.723-2.149.609,1.049Z" fill="#c8c8c8"/>
            <rect id="Rectángulo_351757" data-name="Rectángulo 351757" width="4.298" height="1.213" transform="matrix(0.866, -0.5, 0.5, 0.866, 59.555, 124.165)" fill="#c8c8c8"/>
            <path id="Trazado_730616" data-name="Trazado 730616" d="M20.472,30.073,14.8,19.319l1.67-.882,4.055,7.691,5.392-9.566,1.646.927Z" fill="#f06400"/>
            <path id="Trazado_730617" data-name="Trazado 730617" d="M20.472,56.311,14.8,45.557l1.67-.882,4.055,7.693L25.919,42.8l1.646.926Z" fill="#f06400"/>
            <path id="Trazado_730618" data-name="Trazado 730618" d="M20.472,82.547,14.8,71.793l1.67-.882L20.527,78.6l5.392-9.566,1.646.925Z" fill="#f06400"/>
          </g>
        </g>
      </g>
    </g>
  </g>
</svg>
