<svg xmlns="http://www.w3.org/2000/svg" xmlns:xlink="http://www.w3.org/1999/xlink" width="146" height="146" viewBox="0 0 146 146">
  <defs>
    <clipPath id="clip-path">
      <rect id="Rectángulo_351805" data-name="Rectángulo 351805" width="124.85" height="107.621" fill="none"/>
    </clipPath>
    <clipPath id="clip-path-3">
      <rect id="Rectángulo_351798" data-name="Rectángulo 351798" width="53.812" height="107.621" fill="none"/>
    </clipPath>
    <clipPath id="clip-path-4">
      <rect id="Rectángulo_351800" data-name="Rectángulo 351800" width="33.755" height="33.759" fill="none"/>
    </clipPath>
  </defs>
  <g id="Grupo_1012789" data-name="Grupo 1012789" transform="translate(-1078 -1337)">
    <rect id="Rectángulo_351089" data-name="Rectángulo 351089" width="146" height="146" transform="translate(1078 1337)" fill="none"/>
    <g id="Grupo_1012786" data-name="Grupo 1012786" transform="translate(1089 1356)">
      <g id="Grupo_1012785" data-name="Grupo 1012785" clip-path="url(#clip-path)">
        <rect id="Rectángulo_351776" data-name="Rectángulo 351776" width="107.62" height="107.62" transform="translate(0 0.001)" fill="#91b3fa"/>
        <rect id="Rectángulo_351777" data-name="Rectángulo 351777" width="0.513" height="17.397" transform="translate(70.27 37.083)"/>
        <rect id="Rectángulo_351778" data-name="Rectángulo 351778" width="0.517" height="17.397" transform="translate(71.983 37.083)"/>
        <rect id="Rectángulo_351779" data-name="Rectángulo 351779" width="1.029" height="14.858" transform="translate(73.353 37.083)"/>
        <rect id="Rectángulo_351780" data-name="Rectángulo 351780" width="1.027" height="14.858" transform="translate(74.77 37.083)"/>
        <rect id="Rectángulo_351781" data-name="Rectángulo 351781" width="0.513" height="14.858" transform="translate(76.741 37.083)"/>
        <rect id="Rectángulo_351782" data-name="Rectángulo 351782" width="1.029" height="14.858" transform="translate(77.939 37.083)"/>
        <rect id="Rectángulo_351783" data-name="Rectángulo 351783" width="0.516" height="14.858" transform="translate(79.651 37.083)"/>
        <rect id="Rectángulo_351784" data-name="Rectángulo 351784" width="0.513" height="14.858" transform="translate(81.368 37.083)"/>
        <rect id="Rectángulo_351785" data-name="Rectángulo 351785" width="1.029" height="14.858" transform="translate(82.481 37.083)"/>
        <rect id="Rectángulo_351786" data-name="Rectángulo 351786" width="1.03" height="14.858" transform="translate(83.897 37.083)"/>
        <rect id="Rectángulo_351787" data-name="Rectángulo 351787" width="0.513" height="14.858" transform="translate(85.566 37.083)"/>
        <rect id="Rectángulo_351788" data-name="Rectángulo 351788" width="0.513" height="14.858" transform="translate(87.282 37.083)"/>
        <rect id="Rectángulo_351789" data-name="Rectángulo 351789" width="1.029" height="14.858" transform="translate(88.65 37.083)"/>
        <rect id="Rectángulo_351790" data-name="Rectángulo 351790" width="1.027" height="17.397" transform="translate(97.78 37.083)"/>
        <rect id="Rectángulo_351791" data-name="Rectángulo 351791" width="0.513" height="14.858" transform="translate(96.324 37.083)"/>
        <rect id="Rectángulo_351792" data-name="Rectángulo 351792" width="1.029" height="14.858" transform="translate(94.609 37.083)"/>
        <rect id="Rectángulo_351793" data-name="Rectángulo 351793" width="0.513" height="14.858" transform="translate(93.413 37.083)"/>
        <rect id="Rectángulo_351794" data-name="Rectángulo 351794" width="0.513" height="14.858" transform="translate(91.696 37.083)"/>
        <rect id="Rectángulo_351795" data-name="Rectángulo 351795" width="1.029" height="14.858" transform="translate(90.065 37.083)"/>
        <g id="Grupo_1012784" data-name="Grupo 1012784">
          <g id="Grupo_1012783" data-name="Grupo 1012783" clip-path="url(#clip-path)">
            <path id="Trazado_730641" data-name="Trazado 730641" d="M80.767,61.56h.385v3.594h-.513V62.33h-.385v-.386a.875.875,0,0,0,.513-.385" transform="translate(-11.626 -8.918)"/>
            <path id="Trazado_730642" data-name="Trazado 730642" d="M86.318,63.251a.9.9,0,0,1-.337-.8c0-.577.271-.934.848-.934s.844.358.844.934a.9.9,0,0,1-.334.8.917.917,0,0,1,.387.872c0,.654-.242,1.061-.9,1.061s-.9-.407-.9-1.061a.9.9,0,0,1,.389-.872m.511,1.512c.345,0,.383-.3.383-.64,0-.313-.066-.616-.383-.616s-.387.3-.387.616c0,.343.04.64.387.64m0-2.824c-.265,0-.325.249-.325.513,0,.281.042.564.325.564s.321-.283.321-.564c0-.26-.06-.513-.321-.513" transform="translate(-12.448 -8.912)"/>
            <path id="Trazado_730643" data-name="Trazado 730643" d="M90.5,63.835c0-.355-.027-.634-.383-.634a.431.431,0,0,0-.383.3H89.3V61.56h1.588v.514H89.767l-.032.871a.972.972,0,0,1,.514-.128c.593,0,.77.459.77,1.054,0,.726-.178,1.319-.908,1.319-.668,0-.888-.4-.888-1.063h.513v.08c0,.3.043.574.347.574.447,0,.423-.489.423-.947" transform="translate(-12.925 -8.918)"/>
            <path id="Trazado_730644" data-name="Trazado 730644" d="M93.375,61.518a.83.83,0,0,1,.9.935.732.732,0,0,1-.514.77.844.844,0,0,1,.514.9c0,.644-.255,1.063-.9,1.063a.83.83,0,0,1-.9-.935v-.128h.514c0,.357.04.641.385.641s.385-.285.385-.641c0-.385-.128-.642-.513-.642v-.513c.375,0,.513-.136.513-.513,0-.313-.078-.514-.385-.514-.345,0-.385.285-.385.642h-.514v-.128a.833.833,0,0,1,.9-.935" transform="translate(-13.397 -8.912)"/>
            <path id="Trazado_730645" data-name="Trazado 730645" d="M96.689,61.519a.834.834,0,0,1,.9.934h-.514c0-.315-.076-.513-.385-.513q-.385,0-.385.77v.513a.549.549,0,0,1,.513-.257c.6,0,.77.437.77,1.026,0,.652-.249,1.192-.9,1.192-.63,0-.9-.546-.9-1.192V62.838c0-.7.2-1.319.9-1.319m0,3.244c.307,0,.385-.328.385-.641,0-.386,0-.77-.385-.77a.432.432,0,0,0-.385.257v.514c0,.315.08.641.385.641" transform="translate(-13.877 -8.912)"/>
            <path id="Trazado_730646" data-name="Trazado 730646" d="M99.962,61.94c-.307,0-.385.329-.385.641v.129h-.514v-.129c0-.643.255-1.062.9-1.062a.83.83,0,0,1,.9.934,1.642,1.642,0,0,1-.386,1.027l-.9,1.155h1.284v.513h-1.8v-.513l.9-1.284a1.446,1.446,0,0,0,.385-.9c0-.264-.12-.513-.385-.513" transform="translate(-14.351 -8.912)"/>
            <path id="Trazado_730647" data-name="Trazado 730647" d="M103.194,61.518a.83.83,0,0,1,.9.935.732.732,0,0,1-.514.77.844.844,0,0,1,.514.9c0,.644-.255,1.063-.9,1.063a.83.83,0,0,1-.9-.935v-.128h.514c0,.357.04.641.385.641s.385-.285.385-.641c0-.385-.128-.642-.513-.642v-.513c.375,0,.513-.136.513-.513,0-.313-.078-.514-.385-.514-.345,0-.385.285-.385.642h-.514v-.128a.833.833,0,0,1,.9-.935" transform="translate(-14.819 -8.912)"/>
            <path id="Trazado_730648" data-name="Trazado 730648" d="M105.886,63.251a.9.9,0,0,1-.337-.8c0-.577.271-.934.848-.934s.844.358.844.934a.9.9,0,0,1-.334.8.917.917,0,0,1,.387.872c0,.654-.242,1.061-.9,1.061s-.9-.407-.9-1.061a.9.9,0,0,1,.389-.872m.511,1.512c.345,0,.383-.3.383-.64,0-.313-.066-.616-.383-.616s-.387.3-.387.616c0,.343.039.64.387.64m0-2.824c-.265,0-.325.249-.325.513,0,.281.042.564.325.564s.321-.283.321-.564c0-.26-.06-.513-.321-.513" transform="translate(-15.283 -8.912)"/>
            <path id="Trazado_730649" data-name="Trazado 730649" d="M108.768,64.231V63.66l.9-2.1h.641v2.188h.4v.485h-.4v.923H109.8v-.923ZM109.8,62.2l-.513,1.544h.513Z" transform="translate(-15.757 -8.918)"/>
            <path id="Trazado_730650" data-name="Trazado 730650" d="M112.612,61.56H113v3.594h-.513V62.33H112.1v-.386a.875.875,0,0,0,.513-.385" transform="translate(-16.239 -8.918)"/>
            <rect id="Rectángulo_351796" data-name="Rectángulo 351796" width="23.137" height="11.226" transform="translate(42.242 0.001)" fill="#7aa0e2"/>
            <g id="Grupo_1012779" data-name="Grupo 1012779" transform="translate(53.809)" opacity="0.25" style="mix-blend-mode: screen;isolation: isolate">
              <g id="Grupo_1012778" data-name="Grupo 1012778">
                <g id="Grupo_1012777" data-name="Grupo 1012777" clip-path="url(#clip-path-3)">
                  <rect id="Rectángulo_351797" data-name="Rectángulo 351797" width="53.812" height="107.621" transform="translate(0)" fill="#91b3fa"/>
                </g>
              </g>
            </g>
            <rect id="Rectángulo_351799" data-name="Rectángulo 351799" width="3.628" height="37.122" transform="translate(93.861 63.296) rotate(-45)" fill="#323232"/>
            <path id="Trazado_730651" data-name="Trazado 730651" d="M92.882,75.006a20.86,20.86,0,0,1-10.43-38.926,21.225,21.225,0,0,1,20.866,0A20.859,20.859,0,0,1,92.882,75.006m0-37.486a16.623,16.623,0,0,0-8.308,31.028,16.624,16.624,0,0,0,22.712-6.086,16.624,16.624,0,0,0-14.4-24.942" transform="translate(-10.434 -4.83)" fill="#323232"/>
            <path id="Trazado_730652" data-name="Trazado 730652" d="M140.116,102.232a2.421,2.421,0,0,1-3.421,0L116.565,82.1a1.206,1.206,0,0,1,0-1.71l2.566-2.565a1.209,1.209,0,0,1,1.709,0L140.97,97.956a2.419,2.419,0,0,1,0,3.421Z" transform="translate(-16.835 -11.223)" fill="#1e466e"/>
            <g id="Grupo_1012782" data-name="Grupo 1012782" transform="translate(65.571 32.438)" opacity="0.5">
              <g id="Grupo_1012781" data-name="Grupo 1012781">
                <g id="Grupo_1012780" data-name="Grupo 1012780" clip-path="url(#clip-path-4)">
                  <path id="Trazado_730653" data-name="Trazado 730653" d="M110.435,54.815a16.868,16.868,0,1,1-2.258-8.443,16.813,16.813,0,0,1,2.258,8.443" transform="translate(-76.68 -37.933)" fill="#e6ffff"/>
                </g>
              </g>
            </g>
            <path id="Trazado_730654" data-name="Trazado 730654" d="M121.135,77.823a1.21,1.21,0,0,0-1.707,0l-1.2,1.193,22.7,22.7.341-.34a2.412,2.412,0,0,0,0-3.418Z" transform="translate(-17.128 -11.223)" fill="#325a82"/>
            <rect id="Rectángulo_351801" data-name="Rectángulo 351801" width="7.612" height="21.188" transform="translate(9.277 82.329)" fill="#0082aa"/>
            <path id="Trazado_730655" data-name="Trazado 730655" d="M13.981,89.968,6.2,99.814H21.764Z" transform="translate(-0.898 -13.033)" fill="#0082aa"/>
            <path id="Trazado_730656" data-name="Trazado 730656" d="M40.046,103.371a5.8,5.8,0,1,1-5.8-5.8,5.8,5.8,0,0,1,5.8,5.8" transform="translate(-4.121 -14.135)" fill="#0082aa"/>
            <rect id="Rectángulo_351802" data-name="Rectángulo 351802" width="11.597" height="12.426" transform="translate(24.328 76.81)" fill="#0082aa"/>
            <rect id="Rectángulo_351803" data-name="Rectángulo 351803" width="1.895" height="14.318" transform="translate(29.179 89.236)" fill="#0082aa"/>
            <path id="Trazado_730657" data-name="Trazado 730657" d="M39.114,120.777H29.763v-.71l4.674-1.181,4.677,1.181Z" transform="translate(-4.312 -17.223)" fill="#0082aa"/>
            <path id="Trazado_730658" data-name="Trazado 730658" d="M114.238,115.216a1.9,1.9,0,0,1-1.895,1.891H78.349a1.9,1.9,0,0,1-1.895-1.891V95.453a1.9,1.9,0,0,1,1.895-1.893h33.994a1.9,1.9,0,0,1,1.895,1.893Z" transform="translate(-11.076 -13.554)" fill="#f4f4f4"/>
            <path id="Trazado_730659" data-name="Trazado 730659" d="M19.363,33.132A12.781,12.781,0,1,1,32.143,20.351,12.8,12.8,0,0,1,19.363,33.132m0-23.668A10.888,10.888,0,1,0,30.25,20.351,10.9,10.9,0,0,0,19.363,9.463" transform="translate(-0.953 -1.097)" fill="#f06400"/>
            <path id="Trazado_730660" data-name="Trazado 730660" d="M28.2,21.156a8.03,8.03,0,1,1-8.031-8.028A8.031,8.031,0,0,1,28.2,21.156" transform="translate(-1.759 -1.902)" fill="#f06400"/>
            <path id="Trazado_730661" data-name="Trazado 730661" d="M110.7,101.232H81.048a.947.947,0,0,1,0-1.893H110.7a.947.947,0,0,1,0,1.893" transform="translate(-11.604 -14.391)" fill="#c8c8c8"/>
            <path id="Trazado_730662" data-name="Trazado 730662" d="M110.7,108.115H81.048a.947.947,0,0,1,0-1.893H110.7a.947.947,0,0,1,0,1.893" transform="translate(-11.604 -15.388)" fill="#c8c8c8"/>
            <path id="Trazado_730663" data-name="Trazado 730663" d="M110.7,115H81.048a.945.945,0,1,1,0-1.891H110.7a.945.945,0,1,1,0,1.891" transform="translate(-11.604 -16.385)" fill="#c8c8c8"/>
          </g>
        </g>
      </g>
    </g>
  </g>
</svg>
