<svg xmlns="http://www.w3.org/2000/svg" xmlns:xlink="http://www.w3.org/1999/xlink" width="394.696" height="250.245" viewBox="0 0 394.696 250.245">
  <defs>
    <clipPath id="clip-path">
      <rect id="Rectángulo_352791" data-name="Rectángulo 352791" width="197.998" height="101.009" fill="#12263f"/>
    </clipPath>
  </defs>
  <g id="Grupo_1025531" data-name="Grupo 1025531" transform="translate(4988.697 10419.575)">
    <g id="Grupo_1024527" data-name="Grupo 1024527" transform="translate(-6557.904 -634.787)">
      <g id="Enmascarar_grupo_1018593" data-name="Enmascarar grupo 1018593" transform="translate(1765.905 -9775.788)" clip-path="url(#clip-path)">
        <path id="Trazado_151731" data-name="Trazado 151731" d="M94.274,148.853a54.579,54.579,0,1,1,54.579-54.579,54.641,54.641,0,0,1-54.579,54.579m0,39.694A94.273,94.273,0,1,0,0,94.273,94.274,94.274,0,0,0,94.274,188.547Z" transform="translate(4.09 6.736)" fill="#4adbd1"/>
      </g>
      <g id="Grupo_1018971" data-name="Grupo 1018971" transform="translate(1569.207 -9784.788)">
        <path id="Trazado_145969" data-name="Trazado 145969" d="M55.835,0A55.835,55.835,0,1,1,0,55.835,55.835,55.835,0,0,1,55.835,0Z" transform="translate(0 2.834)" fill="#ffca28" opacity="0.444" style="mix-blend-mode: multiply;isolation: isolate"/>
        <rect id="Rectángulo_34812" data-name="Rectángulo 34812" width="393.397" height="165.7" transform="translate(0)" fill="none"/>
        <path id="Trazado_145971" data-name="Trazado 145971" d="M6.372,0A6.372,6.372,0,1,1,0,6.372,6.372,6.372,0,0,1,6.372,0Z" transform="translate(25.175 140.327)" fill="#31313c" opacity="0.444" style="mix-blend-mode: multiply;isolation: isolate"/>
        <g id="Grupo_80270" data-name="Grupo 80270" transform="translate(254.038 124.887)">
          <path id="Trazado_145968" data-name="Trazado 145968" d="M62.679,0A62.679,62.679,0,1,1,0,62.679,62.679,62.679,0,0,1,62.679,0Z" transform="translate(0)" fill="#31313c" opacity="0.444" style="mix-blend-mode: multiply;isolation: isolate"/>
          <g id="Grupo_78276" data-name="Grupo 78276" transform="translate(24.472 25.912)">
            <g id="Grupo_53306" data-name="Grupo 53306">
              <path id="Trazado_99200" data-name="Trazado 99200" d="M415.916,51.038a.852.852,0,1,1-.852-.814A.833.833,0,0,1,415.916,51.038Z" transform="translate(-414.214 -50.224)" fill="#fff"/>
              <path id="Trazado_99201" data-name="Trazado 99201" d="M424.362,51.038a.852.852,0,1,1-.851-.814A.833.833,0,0,1,424.362,51.038Z" transform="translate(-415 -50.224)" fill="#fff"/>
              <path id="Trazado_99202" data-name="Trazado 99202" d="M432.808,51.038a.852.852,0,1,1-.851-.814A.833.833,0,0,1,432.808,51.038Z" transform="translate(-415.787 -50.224)" fill="#fff"/>
              <path id="Trazado_99203" data-name="Trazado 99203" d="M441.255,51.038a.852.852,0,1,1-.852-.814A.833.833,0,0,1,441.255,51.038Z" transform="translate(-416.573 -50.224)" fill="#fff"/>
              <path id="Trazado_99204" data-name="Trazado 99204" d="M449.7,51.038a.852.852,0,1,1-.851-.814A.833.833,0,0,1,449.7,51.038Z" transform="translate(-417.359 -50.224)" fill="#fff"/>
              <path id="Trazado_99205" data-name="Trazado 99205" d="M458.147,51.038a.852.852,0,1,1-.851-.814A.833.833,0,0,1,458.147,51.038Z" transform="translate(-418.146 -50.224)" fill="#fff"/>
              <path id="Trazado_99206" data-name="Trazado 99206" d="M466.594,51.038a.852.852,0,1,1-.852-.814A.834.834,0,0,1,466.594,51.038Z" transform="translate(-418.932 -50.224)" fill="#fff"/>
              <path id="Trazado_99207" data-name="Trazado 99207" d="M475.04,51.038a.852.852,0,1,1-.851-.814A.833.833,0,0,1,475.04,51.038Z" transform="translate(-419.718 -50.224)" fill="#fff"/>
              <path id="Trazado_99208" data-name="Trazado 99208" d="M483.486,51.038a.852.852,0,1,1-.851-.814A.833.833,0,0,1,483.486,51.038Z" transform="translate(-420.504 -50.224)" fill="#fff"/>
              <path id="Trazado_99209" data-name="Trazado 99209" d="M491.933,51.038a.852.852,0,1,1-.852-.814A.834.834,0,0,1,491.933,51.038Z" transform="translate(-421.291 -50.224)" fill="#fff"/>
              <path id="Trazado_99210" data-name="Trazado 99210" d="M500.379,51.038a.852.852,0,1,1-.852-.814A.833.833,0,0,1,500.379,51.038Z" transform="translate(-422.077 -50.224)" fill="#fff"/>
            </g>
            <g id="Grupo_53307" data-name="Grupo 53307" transform="translate(0 6.512)">
              <path id="Trazado_99211" data-name="Trazado 99211" d="M415.916,58.546a.852.852,0,1,1-.852-.814A.833.833,0,0,1,415.916,58.546Z" transform="translate(-414.214 -57.732)" fill="#fff"/>
              <path id="Trazado_99212" data-name="Trazado 99212" d="M424.362,58.546a.852.852,0,1,1-.851-.814A.833.833,0,0,1,424.362,58.546Z" transform="translate(-415 -57.732)" fill="#fff"/>
              <path id="Trazado_99213" data-name="Trazado 99213" d="M432.808,58.546a.852.852,0,1,1-.851-.814A.833.833,0,0,1,432.808,58.546Z" transform="translate(-415.787 -57.732)" fill="#fff"/>
              <path id="Trazado_99214" data-name="Trazado 99214" d="M441.255,58.546a.852.852,0,1,1-.852-.814A.833.833,0,0,1,441.255,58.546Z" transform="translate(-416.573 -57.732)" fill="#fff"/>
              <path id="Trazado_99215" data-name="Trazado 99215" d="M449.7,58.546a.852.852,0,1,1-.851-.814A.833.833,0,0,1,449.7,58.546Z" transform="translate(-417.359 -57.732)" fill="#fff"/>
              <path id="Trazado_99216" data-name="Trazado 99216" d="M458.147,58.546a.852.852,0,1,1-.851-.814A.833.833,0,0,1,458.147,58.546Z" transform="translate(-418.146 -57.732)" fill="#fff"/>
              <path id="Trazado_99217" data-name="Trazado 99217" d="M466.594,58.546a.852.852,0,1,1-.852-.814A.834.834,0,0,1,466.594,58.546Z" transform="translate(-418.932 -57.732)" fill="#fff"/>
              <path id="Trazado_99218" data-name="Trazado 99218" d="M475.04,58.546a.852.852,0,1,1-.851-.814A.833.833,0,0,1,475.04,58.546Z" transform="translate(-419.718 -57.732)" fill="#fff"/>
              <path id="Trazado_99219" data-name="Trazado 99219" d="M483.486,58.546a.852.852,0,1,1-.851-.814A.833.833,0,0,1,483.486,58.546Z" transform="translate(-420.504 -57.732)" fill="#fff"/>
              <path id="Trazado_99220" data-name="Trazado 99220" d="M491.933,58.546a.852.852,0,1,1-.852-.814A.834.834,0,0,1,491.933,58.546Z" transform="translate(-421.291 -57.732)" fill="#fff"/>
              <path id="Trazado_99221" data-name="Trazado 99221" d="M500.379,58.546a.852.852,0,1,1-.852-.814A.833.833,0,0,1,500.379,58.546Z" transform="translate(-422.077 -57.732)" fill="#fff"/>
            </g>
            <g id="Grupo_53308" data-name="Grupo 53308" transform="translate(0 13.023)">
              <ellipse id="Elipse_3955" data-name="Elipse 3955" cx="0.851" cy="0.814" rx="0.851" ry="0.814" fill="#fff"/>
              <path id="Trazado_99222" data-name="Trazado 99222" d="M424.362,66.054a.852.852,0,1,1-.851-.814A.833.833,0,0,1,424.362,66.054Z" transform="translate(-415 -65.24)" fill="#fff"/>
              <ellipse id="Elipse_3956" data-name="Elipse 3956" cx="0.851" cy="0.814" rx="0.851" ry="0.814" transform="translate(15.32)" fill="#fff"/>
              <path id="Trazado_99223" data-name="Trazado 99223" d="M441.255,66.054a.852.852,0,1,1-.852-.814A.834.834,0,0,1,441.255,66.054Z" transform="translate(-416.573 -65.24)" fill="#fff"/>
              <path id="Trazado_99224" data-name="Trazado 99224" d="M449.7,66.054a.852.852,0,1,1-.851-.814A.834.834,0,0,1,449.7,66.054Z" transform="translate(-417.359 -65.24)" fill="#fff"/>
              <ellipse id="Elipse_3957" data-name="Elipse 3957" cx="0.851" cy="0.814" rx="0.851" ry="0.814" transform="translate(38.3)" fill="#fff"/>
              <path id="Trazado_99225" data-name="Trazado 99225" d="M466.594,66.054a.852.852,0,1,1-.852-.814A.834.834,0,0,1,466.594,66.054Z" transform="translate(-418.932 -65.24)" fill="#fff"/>
              <ellipse id="Elipse_3958" data-name="Elipse 3958" cx="0.851" cy="0.814" rx="0.851" ry="0.814" transform="translate(53.62)" fill="#fff"/>
              <ellipse id="Elipse_3959" data-name="Elipse 3959" cx="0.851" cy="0.814" rx="0.851" ry="0.814" transform="translate(61.28)" fill="#fff"/>
              <path id="Trazado_99226" data-name="Trazado 99226" d="M491.933,66.054a.852.852,0,1,1-.852-.814A.834.834,0,0,1,491.933,66.054Z" transform="translate(-421.291 -65.24)" fill="#fff"/>
              <path id="Trazado_99227" data-name="Trazado 99227" d="M500.379,66.054a.852.852,0,1,1-.852-.814A.834.834,0,0,1,500.379,66.054Z" transform="translate(-422.077 -65.24)" fill="#fff"/>
            </g>
            <g id="Grupo_53309" data-name="Grupo 53309" transform="translate(0 19.534)">
              <ellipse id="Elipse_3960" data-name="Elipse 3960" cx="0.851" cy="0.814" rx="0.851" ry="0.814" transform="translate(0 0)" fill="#fff"/>
              <path id="Trazado_99228" data-name="Trazado 99228" d="M424.362,73.561a.852.852,0,1,1-.851-.814A.833.833,0,0,1,424.362,73.561Z" transform="translate(-415 -72.747)" fill="#fff"/>
              <ellipse id="Elipse_3961" data-name="Elipse 3961" cx="0.851" cy="0.814" rx="0.851" ry="0.814" transform="translate(15.32 0)" fill="#fff"/>
              <path id="Trazado_99229" data-name="Trazado 99229" d="M441.255,73.561a.852.852,0,1,1-.852-.814A.833.833,0,0,1,441.255,73.561Z" transform="translate(-416.573 -72.747)" fill="#fff"/>
              <path id="Trazado_99230" data-name="Trazado 99230" d="M449.7,73.561a.852.852,0,1,1-.851-.814A.833.833,0,0,1,449.7,73.561Z" transform="translate(-417.359 -72.747)" fill="#fff"/>
              <ellipse id="Elipse_3962" data-name="Elipse 3962" cx="0.851" cy="0.814" rx="0.851" ry="0.814" transform="translate(38.3 0)" fill="#fff"/>
              <path id="Trazado_99231" data-name="Trazado 99231" d="M466.594,73.561a.852.852,0,1,1-.852-.814A.834.834,0,0,1,466.594,73.561Z" transform="translate(-418.932 -72.747)" fill="#fff"/>
              <ellipse id="Elipse_3963" data-name="Elipse 3963" cx="0.851" cy="0.814" rx="0.851" ry="0.814" transform="translate(53.62 0)" fill="#fff"/>
              <ellipse id="Elipse_3964" data-name="Elipse 3964" cx="0.851" cy="0.814" rx="0.851" ry="0.814" transform="translate(61.28 0)" fill="#fff"/>
              <path id="Trazado_99232" data-name="Trazado 99232" d="M491.933,73.561a.852.852,0,1,1-.852-.814A.834.834,0,0,1,491.933,73.561Z" transform="translate(-421.291 -72.747)" fill="#fff"/>
              <path id="Trazado_99233" data-name="Trazado 99233" d="M500.379,73.561a.852.852,0,1,1-.852-.814A.833.833,0,0,1,500.379,73.561Z" transform="translate(-422.077 -72.747)" fill="#fff"/>
            </g>
            <g id="Grupo_53310" data-name="Grupo 53310" transform="translate(0 26.046)">
              <path id="Trazado_99234" data-name="Trazado 99234" d="M415.916,81.069a.852.852,0,1,1-.852-.814A.833.833,0,0,1,415.916,81.069Z" transform="translate(-414.214 -80.255)" fill="#fff"/>
              <path id="Trazado_99235" data-name="Trazado 99235" d="M424.362,81.069a.852.852,0,1,1-.851-.814A.833.833,0,0,1,424.362,81.069Z" transform="translate(-415 -80.255)" fill="#fff"/>
              <path id="Trazado_99236" data-name="Trazado 99236" d="M432.808,81.069a.852.852,0,1,1-.851-.814A.833.833,0,0,1,432.808,81.069Z" transform="translate(-415.787 -80.255)" fill="#fff"/>
              <path id="Trazado_99237" data-name="Trazado 99237" d="M441.255,81.069a.852.852,0,1,1-.852-.814A.833.833,0,0,1,441.255,81.069Z" transform="translate(-416.573 -80.255)" fill="#fff"/>
              <path id="Trazado_99238" data-name="Trazado 99238" d="M449.7,81.069a.852.852,0,1,1-.851-.814A.833.833,0,0,1,449.7,81.069Z" transform="translate(-417.359 -80.255)" fill="#fff"/>
              <path id="Trazado_99239" data-name="Trazado 99239" d="M458.147,81.069a.852.852,0,1,1-.851-.814A.833.833,0,0,1,458.147,81.069Z" transform="translate(-418.146 -80.255)" fill="#fff"/>
              <path id="Trazado_99240" data-name="Trazado 99240" d="M466.594,81.069a.852.852,0,1,1-.852-.814A.834.834,0,0,1,466.594,81.069Z" transform="translate(-418.932 -80.255)" fill="#fff"/>
              <path id="Trazado_99241" data-name="Trazado 99241" d="M475.04,81.069a.852.852,0,1,1-.851-.814A.833.833,0,0,1,475.04,81.069Z" transform="translate(-419.718 -80.255)" fill="#fff"/>
              <path id="Trazado_99242" data-name="Trazado 99242" d="M483.486,81.069a.852.852,0,1,1-.851-.814A.833.833,0,0,1,483.486,81.069Z" transform="translate(-420.504 -80.255)" fill="#fff"/>
              <path id="Trazado_99243" data-name="Trazado 99243" d="M491.933,81.069a.852.852,0,1,1-.852-.814A.834.834,0,0,1,491.933,81.069Z" transform="translate(-421.291 -80.255)" fill="#fff"/>
              <path id="Trazado_99244" data-name="Trazado 99244" d="M500.379,81.069a.852.852,0,1,1-.852-.814A.833.833,0,0,1,500.379,81.069Z" transform="translate(-422.077 -80.255)" fill="#fff"/>
            </g>
            <g id="Grupo_53311" data-name="Grupo 53311" transform="translate(0 32.557)">
              <ellipse id="Elipse_3965" data-name="Elipse 3965" cx="0.851" cy="0.814" rx="0.851" ry="0.814" transform="translate(0 0)" fill="#fff"/>
              <path id="Trazado_99245" data-name="Trazado 99245" d="M424.362,88.577a.852.852,0,1,1-.851-.814A.833.833,0,0,1,424.362,88.577Z" transform="translate(-415 -87.763)" fill="#fff"/>
              <ellipse id="Elipse_3966" data-name="Elipse 3966" cx="0.851" cy="0.814" rx="0.851" ry="0.814" transform="translate(15.32 0)" fill="#fff"/>
              <path id="Trazado_99246" data-name="Trazado 99246" d="M441.255,88.577a.852.852,0,1,1-.852-.814A.833.833,0,0,1,441.255,88.577Z" transform="translate(-416.573 -87.763)" fill="#fff"/>
              <path id="Trazado_99247" data-name="Trazado 99247" d="M449.7,88.577a.852.852,0,1,1-.851-.814A.833.833,0,0,1,449.7,88.577Z" transform="translate(-417.359 -87.763)" fill="#fff"/>
              <ellipse id="Elipse_3967" data-name="Elipse 3967" cx="0.851" cy="0.814" rx="0.851" ry="0.814" transform="translate(38.3 0)" fill="#fff"/>
              <path id="Trazado_99248" data-name="Trazado 99248" d="M466.594,88.577a.852.852,0,1,1-.852-.814A.834.834,0,0,1,466.594,88.577Z" transform="translate(-418.932 -87.763)" fill="#fff"/>
              <ellipse id="Elipse_3968" data-name="Elipse 3968" cx="0.851" cy="0.814" rx="0.851" ry="0.814" transform="translate(53.62 0)" fill="#fff"/>
              <ellipse id="Elipse_3969" data-name="Elipse 3969" cx="0.851" cy="0.814" rx="0.851" ry="0.814" transform="translate(61.28 0)" fill="#fff"/>
              <path id="Trazado_99249" data-name="Trazado 99249" d="M491.933,88.577a.852.852,0,1,1-.852-.814A.834.834,0,0,1,491.933,88.577Z" transform="translate(-421.291 -87.763)" fill="#fff"/>
              <path id="Trazado_99250" data-name="Trazado 99250" d="M500.379,88.577a.852.852,0,1,1-.852-.814A.833.833,0,0,1,500.379,88.577Z" transform="translate(-422.077 -87.763)" fill="#fff"/>
            </g>
            <g id="Grupo_53312" data-name="Grupo 53312" transform="translate(0 39.069)">
              <ellipse id="Elipse_3970" data-name="Elipse 3970" cx="0.851" cy="0.814" rx="0.851" ry="0.814" fill="#fff"/>
              <path id="Trazado_99251" data-name="Trazado 99251" d="M424.362,96.085a.852.852,0,1,1-.851-.814A.833.833,0,0,1,424.362,96.085Z" transform="translate(-415 -95.271)" fill="#fff"/>
              <ellipse id="Elipse_3971" data-name="Elipse 3971" cx="0.851" cy="0.814" rx="0.851" ry="0.814" transform="translate(15.32)" fill="#fff"/>
              <path id="Trazado_99252" data-name="Trazado 99252" d="M441.255,96.085a.852.852,0,1,1-.852-.814A.833.833,0,0,1,441.255,96.085Z" transform="translate(-416.573 -95.271)" fill="#fff"/>
              <path id="Trazado_99253" data-name="Trazado 99253" d="M449.7,96.085a.852.852,0,1,1-.851-.814A.833.833,0,0,1,449.7,96.085Z" transform="translate(-417.359 -95.271)" fill="#fff"/>
              <ellipse id="Elipse_3972" data-name="Elipse 3972" cx="0.851" cy="0.814" rx="0.851" ry="0.814" transform="translate(38.3)" fill="#fff"/>
              <path id="Trazado_99254" data-name="Trazado 99254" d="M466.594,96.085a.852.852,0,1,1-.852-.814A.834.834,0,0,1,466.594,96.085Z" transform="translate(-418.932 -95.271)" fill="#fff"/>
              <ellipse id="Elipse_3973" data-name="Elipse 3973" cx="0.851" cy="0.814" rx="0.851" ry="0.814" transform="translate(53.62)" fill="#fff"/>
              <ellipse id="Elipse_3974" data-name="Elipse 3974" cx="0.851" cy="0.814" rx="0.851" ry="0.814" transform="translate(61.28)" fill="#fff"/>
              <path id="Trazado_99255" data-name="Trazado 99255" d="M491.933,96.085a.852.852,0,1,1-.852-.814A.834.834,0,0,1,491.933,96.085Z" transform="translate(-421.291 -95.271)" fill="#fff"/>
              <path id="Trazado_99256" data-name="Trazado 99256" d="M500.379,96.085a.852.852,0,1,1-.852-.814A.833.833,0,0,1,500.379,96.085Z" transform="translate(-422.077 -95.271)" fill="#fff"/>
            </g>
            <g id="Grupo_53313" data-name="Grupo 53313" transform="translate(0 45.58)">
              <path id="Trazado_99257" data-name="Trazado 99257" d="M415.916,103.593a.852.852,0,1,1-.852-.813A.833.833,0,0,1,415.916,103.593Z" transform="translate(-414.214 -102.779)" fill="#fff"/>
              <path id="Trazado_99258" data-name="Trazado 99258" d="M424.362,103.593a.852.852,0,1,1-.851-.813A.833.833,0,0,1,424.362,103.593Z" transform="translate(-415 -102.779)" fill="#fff"/>
              <path id="Trazado_99259" data-name="Trazado 99259" d="M432.808,103.593a.852.852,0,1,1-.851-.813A.833.833,0,0,1,432.808,103.593Z" transform="translate(-415.787 -102.779)" fill="#fff"/>
              <path id="Trazado_99260" data-name="Trazado 99260" d="M441.255,103.593a.852.852,0,1,1-.852-.813A.833.833,0,0,1,441.255,103.593Z" transform="translate(-416.573 -102.779)" fill="#fff"/>
              <path id="Trazado_99261" data-name="Trazado 99261" d="M449.7,103.593a.852.852,0,1,1-.851-.813A.833.833,0,0,1,449.7,103.593Z" transform="translate(-417.359 -102.779)" fill="#fff"/>
              <path id="Trazado_99262" data-name="Trazado 99262" d="M458.147,103.593a.852.852,0,1,1-.851-.813A.833.833,0,0,1,458.147,103.593Z" transform="translate(-418.146 -102.779)" fill="#fff"/>
              <path id="Trazado_99263" data-name="Trazado 99263" d="M466.594,103.593a.852.852,0,1,1-.852-.813A.834.834,0,0,1,466.594,103.593Z" transform="translate(-418.932 -102.779)" fill="#fff"/>
              <path id="Trazado_99264" data-name="Trazado 99264" d="M475.04,103.593a.852.852,0,1,1-.851-.813A.833.833,0,0,1,475.04,103.593Z" transform="translate(-419.718 -102.779)" fill="#fff"/>
              <path id="Trazado_99265" data-name="Trazado 99265" d="M483.486,103.593a.852.852,0,1,1-.851-.813A.833.833,0,0,1,483.486,103.593Z" transform="translate(-420.504 -102.779)" fill="#fff"/>
              <path id="Trazado_99266" data-name="Trazado 99266" d="M491.933,103.593a.852.852,0,1,1-.852-.813A.834.834,0,0,1,491.933,103.593Z" transform="translate(-421.291 -102.779)" fill="#fff"/>
              <path id="Trazado_99267" data-name="Trazado 99267" d="M500.379,103.593a.852.852,0,1,1-.852-.813A.833.833,0,0,1,500.379,103.593Z" transform="translate(-422.077 -102.779)" fill="#fff"/>
            </g>
            <g id="Grupo_53314" data-name="Grupo 53314" transform="translate(0 52.092)">
              <ellipse id="Elipse_3975" data-name="Elipse 3975" cx="0.851" cy="0.814" rx="0.851" ry="0.814" fill="#fff"/>
              <path id="Trazado_99268" data-name="Trazado 99268" d="M424.362,111.1a.852.852,0,1,1-.851-.814A.833.833,0,0,1,424.362,111.1Z" transform="translate(-415 -110.287)" fill="#fff"/>
              <ellipse id="Elipse_3976" data-name="Elipse 3976" cx="0.851" cy="0.814" rx="0.851" ry="0.814" transform="translate(15.32)" fill="#fff"/>
              <path id="Trazado_99269" data-name="Trazado 99269" d="M441.255,111.1a.852.852,0,1,1-.852-.814A.834.834,0,0,1,441.255,111.1Z" transform="translate(-416.573 -110.287)" fill="#fff"/>
              <path id="Trazado_99270" data-name="Trazado 99270" d="M449.7,111.1a.852.852,0,1,1-.851-.814A.834.834,0,0,1,449.7,111.1Z" transform="translate(-417.359 -110.287)" fill="#fff"/>
              <ellipse id="Elipse_3977" data-name="Elipse 3977" cx="0.851" cy="0.814" rx="0.851" ry="0.814" transform="translate(38.3)" fill="#fff"/>
              <path id="Trazado_99271" data-name="Trazado 99271" d="M466.594,111.1a.852.852,0,1,1-.852-.814A.834.834,0,0,1,466.594,111.1Z" transform="translate(-418.932 -110.287)" fill="#fff"/>
              <ellipse id="Elipse_3978" data-name="Elipse 3978" cx="0.851" cy="0.814" rx="0.851" ry="0.814" transform="translate(53.62)" fill="#fff"/>
              <ellipse id="Elipse_3979" data-name="Elipse 3979" cx="0.851" cy="0.814" rx="0.851" ry="0.814" transform="translate(61.28)" fill="#fff"/>
              <path id="Trazado_99272" data-name="Trazado 99272" d="M491.933,111.1a.852.852,0,1,1-.852-.814A.834.834,0,0,1,491.933,111.1Z" transform="translate(-421.291 -110.287)" fill="#fff"/>
              <path id="Trazado_99273" data-name="Trazado 99273" d="M500.379,111.1a.852.852,0,1,1-.852-.814A.834.834,0,0,1,500.379,111.1Z" transform="translate(-422.077 -110.287)" fill="#fff"/>
            </g>
            <g id="Grupo_53315" data-name="Grupo 53315" transform="translate(0 58.603)">
              <path id="Trazado_99274" data-name="Trazado 99274" d="M415.916,118.608a.852.852,0,1,1-.852-.814A.834.834,0,0,1,415.916,118.608Z" transform="translate(-414.214 -117.794)" fill="#fff"/>
              <path id="Trazado_99275" data-name="Trazado 99275" d="M424.362,118.608a.852.852,0,1,1-.851-.814A.833.833,0,0,1,424.362,118.608Z" transform="translate(-415 -117.794)" fill="#fff"/>
              <path id="Trazado_99276" data-name="Trazado 99276" d="M432.808,118.608a.852.852,0,1,1-.851-.814A.833.833,0,0,1,432.808,118.608Z" transform="translate(-415.787 -117.794)" fill="#fff"/>
              <path id="Trazado_99277" data-name="Trazado 99277" d="M441.255,118.608a.852.852,0,1,1-.852-.814A.834.834,0,0,1,441.255,118.608Z" transform="translate(-416.573 -117.794)" fill="#fff"/>
              <path id="Trazado_99278" data-name="Trazado 99278" d="M449.7,118.608a.852.852,0,1,1-.851-.814A.834.834,0,0,1,449.7,118.608Z" transform="translate(-417.359 -117.794)" fill="#fff"/>
              <path id="Trazado_99279" data-name="Trazado 99279" d="M458.147,118.608a.852.852,0,1,1-.851-.814A.833.833,0,0,1,458.147,118.608Z" transform="translate(-418.146 -117.794)" fill="#fff"/>
              <path id="Trazado_99280" data-name="Trazado 99280" d="M466.594,118.608a.852.852,0,1,1-.852-.814A.834.834,0,0,1,466.594,118.608Z" transform="translate(-418.932 -117.794)" fill="#fff"/>
              <path id="Trazado_99281" data-name="Trazado 99281" d="M475.04,118.608a.852.852,0,1,1-.851-.814A.834.834,0,0,1,475.04,118.608Z" transform="translate(-419.718 -117.794)" fill="#fff"/>
              <path id="Trazado_99282" data-name="Trazado 99282" d="M483.486,118.608a.852.852,0,1,1-.851-.814A.834.834,0,0,1,483.486,118.608Z" transform="translate(-420.504 -117.794)" fill="#fff"/>
              <path id="Trazado_99283" data-name="Trazado 99283" d="M491.933,118.608a.852.852,0,1,1-.852-.814A.834.834,0,0,1,491.933,118.608Z" transform="translate(-421.291 -117.794)" fill="#fff"/>
              <path id="Trazado_99284" data-name="Trazado 99284" d="M500.379,118.608a.852.852,0,1,1-.852-.814A.834.834,0,0,1,500.379,118.608Z" transform="translate(-422.077 -117.794)" fill="#fff"/>
            </g>
            <g id="Grupo_53316" data-name="Grupo 53316" transform="translate(0 65.114)">
              <ellipse id="Elipse_3980" data-name="Elipse 3980" cx="0.851" cy="0.814" rx="0.851" ry="0.814" transform="translate(0 0)" fill="#fff"/>
              <path id="Trazado_99285" data-name="Trazado 99285" d="M424.362,126.116a.852.852,0,1,1-.851-.814A.833.833,0,0,1,424.362,126.116Z" transform="translate(-415 -125.302)" fill="#fff"/>
              <ellipse id="Elipse_3981" data-name="Elipse 3981" cx="0.851" cy="0.814" rx="0.851" ry="0.814" transform="translate(15.32 0)" fill="#fff"/>
              <path id="Trazado_99286" data-name="Trazado 99286" d="M441.255,126.116a.852.852,0,1,1-.852-.814A.833.833,0,0,1,441.255,126.116Z" transform="translate(-416.573 -125.302)" fill="#fff"/>
              <path id="Trazado_99287" data-name="Trazado 99287" d="M449.7,126.116a.852.852,0,1,1-.851-.814A.833.833,0,0,1,449.7,126.116Z" transform="translate(-417.359 -125.302)" fill="#fff"/>
              <ellipse id="Elipse_3982" data-name="Elipse 3982" cx="0.851" cy="0.814" rx="0.851" ry="0.814" transform="translate(38.3 0)" fill="#fff"/>
              <path id="Trazado_99288" data-name="Trazado 99288" d="M466.594,126.116a.852.852,0,1,1-.852-.814A.834.834,0,0,1,466.594,126.116Z" transform="translate(-418.932 -125.302)" fill="#fff"/>
              <ellipse id="Elipse_3983" data-name="Elipse 3983" cx="0.851" cy="0.814" rx="0.851" ry="0.814" transform="translate(53.62 0)" fill="#fff"/>
              <ellipse id="Elipse_3984" data-name="Elipse 3984" cx="0.851" cy="0.814" rx="0.851" ry="0.814" transform="translate(61.28 0)" fill="#fff"/>
              <path id="Trazado_99289" data-name="Trazado 99289" d="M491.933,126.116a.852.852,0,1,1-.852-.814A.834.834,0,0,1,491.933,126.116Z" transform="translate(-421.291 -125.302)" fill="#fff"/>
              <path id="Trazado_99290" data-name="Trazado 99290" d="M500.379,126.116a.852.852,0,1,1-.852-.814A.833.833,0,0,1,500.379,126.116Z" transform="translate(-422.077 -125.302)" fill="#fff"/>
            </g>
            <g id="Grupo_53317" data-name="Grupo 53317" transform="translate(0 71.627)">
              <ellipse id="Elipse_3985" data-name="Elipse 3985" cx="0.851" cy="0.814" rx="0.851" ry="0.814" transform="translate(0 0)" fill="#fff"/>
              <path id="Trazado_99291" data-name="Trazado 99291" d="M424.362,133.624a.852.852,0,1,1-.851-.814A.833.833,0,0,1,424.362,133.624Z" transform="translate(-415 -132.81)" fill="#fff"/>
              <ellipse id="Elipse_3986" data-name="Elipse 3986" cx="0.851" cy="0.814" rx="0.851" ry="0.814" transform="translate(15.32 0)" fill="#fff"/>
              <path id="Trazado_99292" data-name="Trazado 99292" d="M441.255,133.624a.852.852,0,1,1-.852-.814A.833.833,0,0,1,441.255,133.624Z" transform="translate(-416.573 -132.81)" fill="#fff"/>
              <path id="Trazado_99293" data-name="Trazado 99293" d="M449.7,133.624a.852.852,0,1,1-.851-.814A.833.833,0,0,1,449.7,133.624Z" transform="translate(-417.359 -132.81)" fill="#fff"/>
              <ellipse id="Elipse_3987" data-name="Elipse 3987" cx="0.851" cy="0.814" rx="0.851" ry="0.814" transform="translate(38.3 0)" fill="#fff"/>
              <path id="Trazado_99294" data-name="Trazado 99294" d="M466.594,133.624a.852.852,0,1,1-.852-.814A.834.834,0,0,1,466.594,133.624Z" transform="translate(-418.932 -132.81)" fill="#fff"/>
              <ellipse id="Elipse_3988" data-name="Elipse 3988" cx="0.851" cy="0.814" rx="0.851" ry="0.814" transform="translate(53.62 0)" fill="#fff"/>
              <ellipse id="Elipse_3989" data-name="Elipse 3989" cx="0.851" cy="0.814" rx="0.851" ry="0.814" transform="translate(61.28 0)" fill="#fff"/>
              <path id="Trazado_99295" data-name="Trazado 99295" d="M491.933,133.624a.852.852,0,1,1-.852-.814A.834.834,0,0,1,491.933,133.624Z" transform="translate(-421.291 -132.81)" fill="#fff"/>
              <path id="Trazado_99296" data-name="Trazado 99296" d="M500.379,133.624a.852.852,0,1,1-.852-.814A.833.833,0,0,1,500.379,133.624Z" transform="translate(-422.077 -132.81)" fill="#fff"/>
            </g>
          </g>
        </g>
        <line id="Línea_138" data-name="Línea 138" y2="118.993" transform="translate(13.67 28.642)" fill="none" stroke="#31313c" stroke-linecap="round" stroke-width="4" stroke-dasharray="8"/>
      </g>
    </g>
    <g id="Grupo_1024537" data-name="Grupo 1024537" transform="translate(-4969.855 -10401.52)">
      <g id="Grupo_158098" data-name="Grupo 158098">
        <g id="Grupo_158095" data-name="Grupo 158095">
          <g id="Grupo_158099" data-name="Grupo 158099">
            <path id="Trazado_152760" data-name="Trazado 152760" d="M924.674,525.217A15.216,15.216,0,0,0,909.458,510H894.111V591.04H993.2V525.217Z" transform="translate(-655.529 -375.498)" fill="#eac145"/>
            <path id="Trazado_152761" data-name="Trazado 152761" d="M1207.826,752.252a5.808,5.808,0,1,1-5.808-5.808,5.808,5.808,0,0,1,5.808,5.808" transform="translate(-876.905 -548.762)" fill="#fffeeb"/>
            <path id="Trazado_152762" data-name="Trazado 152762" d="M1125.976,756.762a6.553,6.553,0,1,1,6.553-6.553,6.56,6.56,0,0,1-6.553,6.553m0-11.616a5.063,5.063,0,1,0,5.063,5.063,5.069,5.069,0,0,0-5.063-5.063" transform="translate(-820.637 -546.719)" fill="#fffeeb"/>
            <path id="Trazado_152764" data-name="Trazado 152764" d="M521.615,253.134c0-.008-.071-4.853-.143-8.831-.1-5.561,1.979-9.826,8.409-12.227s7.757-10.262,11.832-9.816,1.981,5.7-.3,9.748c0,0,3.737-6.488,5.056-7.784s3.658-3.146,5.035-1.474c0,0,2.042-3.127,4.776-1.9s.887,4.375.887,4.375,3.761-2.7,5.961,1.191-4.293,7.04-4.293,7.04,3.69,1.422-.821,5.93-10.055,9.588-10.055,9.588l.236,2.7Z" transform="translate(-382.284 -162.189)" fill="#ffa194"/>
            <path id="Trazado_152765" data-name="Trazado 152765" d="M315.126,399.822c-10.913,15.829-29.8,23.238-48.868,22.27-22.332-1.133-31.454-8.784-50.8-26.2l26.22-27.875c8.669,9.233,25.293,11.791,37.5,8.128,12.262-3.681,19.464-20.547,18.2-37.714l26.582-1.468c6.238,31.135,3.838,44.479-8.83,62.854" transform="translate(-157.972 -248.127)" fill="#e8e8e8"/>
            <path id="Trazado_152766" data-name="Trazado 152766" d="M241.68,453.184l-26.22,27.875c14.654,13.19,23.444,20.778,36.553,24.175l.18-11.829s4.722-5.692,4.932-16.477c.133-6.811-.954-11.992-2.739-16.068a30.043,30.043,0,0,1-12.706-7.676" transform="translate(-157.952 -333.382)" fill="#ddd4d1"/>
            <path id="Trazado_152767" data-name="Trazado 152767" d="M603.5,247.884a.745.745,0,0,1-.481-1.314l13.235-11.184a.745.745,0,0,1,.962,1.138l-13.235,11.184a.74.74,0,0,1-.48.176" transform="translate(-441.86 -172.903)" fill="#db5349"/>
            <path id="Trazado_152768" data-name="Trazado 152768" d="M552.417,278.352a.762.762,0,0,1-.12-.01.745.745,0,0,1-.616-.854,9.993,9.993,0,0,1,4.259-6.968c5.03-3.431,12.64-2.3,14.427-1.967,7.262-6.276,10.891-3.747,11.044-3.635l-.881,1.2c-.017-.011-3.012-1.9-9.454,3.793a.745.745,0,0,1-.651.17c-.085-.018-8.572-1.8-13.648,1.671a8.558,8.558,0,0,0-3.624,5.973.745.745,0,0,1-.734.626" transform="translate(-404.419 -194.305)" fill="#db5349"/>
            <path id="Trazado_152769" data-name="Trazado 152769" d="M144.412,288.775a12.941,12.941,0,1,0,12.941-12.941,12.941,12.941,0,0,0-12.941,12.941" transform="translate(-105.824 -202.809)" fill="#28121f"/>
            <path id="Trazado_152770" data-name="Trazado 152770" d="M61.281,410.331a19.018,19.018,0,1,1-19.018-19.018,19.018,19.018,0,0,1,19.018,19.018" transform="translate(-17.035 -287.78)" fill="#28121f"/>
            <path id="Trazado_152771" data-name="Trazado 152771" d="M118.725,353.547a12.531,12.531,0,1,1-12.531-12.531,12.531,12.531,0,0,1,12.531,12.531" transform="translate(-68.637 -250.731)" fill="#28121f"/>
            <path id="Trazado_152772" data-name="Trazado 152772" d="M98.934,360.033a13.275,13.275,0,1,1,13.275-13.276,13.29,13.29,0,0,1-13.275,13.276m0-25.061a11.786,11.786,0,1,0,11.786,11.786,11.8,11.8,0,0,0-11.786-11.786" transform="translate(-62.771 -245.197)" fill="#28121f"/>
            <path id="Trazado_152773" data-name="Trazado 152773" d="M194.5,371.77a10.377,10.377,0,1,0,10.377-10.377A10.377,10.377,0,0,0,194.5,371.77" transform="translate(-142.585 -265.693)" fill="#28121f"/>
            <path id="Trazado_152774" data-name="Trazado 152774" d="M689.135,161.922a.745.745,0,0,1-.608-1.174l6.345-8.994a.745.745,0,0,1,1.038-.179l4.516,3.186,5.483-7.773a.745.745,0,1,1,1.217.858l-5.912,8.382a.745.745,0,0,1-1.038.179l-4.516-3.186-5.915,8.386a.744.744,0,0,1-.609.316" transform="translate(-504.639 -107.822)" fill="#31313c"/>
            <path id="Trazado_152775" data-name="Trazado 152775" d="M62.868,734.885h76.113l-6.4-24.518H62.867Z" transform="translate(-46.069 -522.324)" fill="#28121f"/>
            <path id="Trazado_152776" data-name="Trazado 152776" d="M86.268,488.611l.4-26.128s4.675-5.693,4.932-16.477c.44-18.511-7.919-24.708-15.025-29.6-9.229-6.355-33.367-8.754-47.306,1.988C8.013,434.774-.994,463.482.087,483.837,1.142,503.71,17.552,516.9,36.164,518.025c20.453,1.231,32.474-8.353,51.113-19.624Z" transform="translate(0 -302.941)" fill="#e8e8e8"/>
            <path id="Trazado_152777" data-name="Trazado 152777" d="M462.566,74.19a.745.745,0,0,1-.687-.456l-2.735-6.5a.745.745,0,1,1,1.373-.578l2.735,6.5a.745.745,0,0,1-.686,1.034" transform="translate(-336.537 -48.513)" fill="#31313c"/>
            <path id="Trazado_152778" data-name="Trazado 152778" d="M415.756,123.842a.74.74,0,0,1-.39-.111L404.951,117.3a.745.745,0,1,1,.782-1.268l10.415,6.428a.745.745,0,0,1-.392,1.379" transform="translate(-296.595 -84.949)" fill="#31313c"/>
            <path id="Trazado_152779" data-name="Trazado 152779" d="M26.208,706.814a21.385,21.385,0,0,0-15.035,6.151c5.659,12.856,18.757,20.972,33.178,21.841.768.046,1.523.075,2.269.091a21.468,21.468,0,0,0-20.412-28.083" transform="translate(-8.188 -519.721)" fill="#ffca28"/>
            <path id="Trazado_152780" data-name="Trazado 152780" d="M140.509,446.454c-10.9,0-22.21-5.221-29.779-9.6l-1.7-.984a.745.745,0,0,1,.746-1.29l1.7.984c7.412,4.288,18.465,9.4,29.033,9.4.589,0,1.178-.016,1.75-.048a19.292,19.292,0,0,0,16.138-9.639.745.745,0,0,1,1.278.766,20.724,20.724,0,0,1-17.333,10.36c-.6.033-1.216.051-1.833.051" transform="translate(-79.623 -319.382)" fill="#31313c"/>
            <path id="Trazado_152781" data-name="Trazado 152781" d="M167.825,416.262c-8.513-5.667-28.959-8.071-43.008-.5,6.954,4.023,18.564,9.544,29.117,8.954a16.289,16.289,0,0,0,13.891-8.45" transform="translate(-91.465 -302.122)" fill="#ffa194"/>
            <path id="Trazado_152782" data-name="Trazado 152782" d="M190.041,322.04l-.651-6.924c10.427-.98,10.75-3.164,9.165-14.453-.491-3.5-.875-7.216-5.963-10.343-6.8-4.18-16.158-.551-17.986,7.219q-.034.144-.066.29c-1.073,4.958-1.152,9.412,2.067,12.193l1.237,13.164Z" transform="translate(-127.414 -212.202)" fill="#ffa194"/>
            <path id="Trazado_152783" data-name="Trazado 152783" d="M211.165,389.709a11.014,11.014,0,0,0,5.9,3.524l-.5-5.3-4.82.382a.85.85,0,0,0-.585,1.393" transform="translate(-154.594 -285.138)" fill="#db5349"/>
            <path id="Trazado_152784" data-name="Trazado 152784" d="M226.412,327.045c.006-.013-1.338-.654-1.338-.654a2.336,2.336,0,0,1,3.869-.411l-1.183.906a.851.851,0,0,0-1.348.159" transform="translate(-164.933 -238.969)" fill="#28121f"/>
            <path id="Trazado_152785" data-name="Trazado 152785" d="M203.439,348.552l.128-.269c-.046.088-.089.177-.128.269" transform="translate(-149.079 -255.976)" fill="#3180b5"/>
            <path id="Trazado_152786" data-name="Trazado 152786" d="M152.88,364.813a10.721,10.721,0,1,1-8.53-12.535,10.721,10.721,0,0,1,8.53,12.535" transform="translate(-96.454 -258.855)" fill="#28121f"/>
            <path id="Trazado_152787" data-name="Trazado 152787" d="M254.253,520.664h-.045a.744.744,0,0,1-.7-.788c.669-11.2,1.13-21.95-.547-30.358a53.833,53.833,0,0,0-6.377-16.882.745.745,0,0,1,1.252-.807,54.272,54.272,0,0,1,6.586,17.4c1.711,8.582,1.248,19.437.573,30.738a.745.745,0,0,1-.743.7" transform="translate(-180.675 -346.823)" fill="#31313c"/>
            <path id="Trazado_152788" data-name="Trazado 152788" d="M191.634,539.73a5.385,5.385,0,1,1-5.384-5.384,5.385,5.385,0,0,1,5.384,5.384" transform="translate(-132.537 -392.785)" fill="#fffeeb"/>
            <path id="Trazado_152789" data-name="Trazado 152789" d="M248.936,355.306l-4.543.511a.559.559,0,0,0-.435.816,2.986,2.986,0,0,0,2.892,1.55,2.691,2.691,0,0,0,2.691-2.177.56.56,0,0,0-.605-.7" transform="translate(-178.788 -261.145)" fill="#fffeeb"/>
            <path id="Trazado_152790" data-name="Trazado 152790" d="M232.891,338.339a.748.748,0,1,1-.748-.748.748.748,0,0,1,.748.748" transform="translate(-169.565 -248.122)" fill="#28121f"/>
            <path id="Trazado_152791" data-name="Trazado 152791" d="M259.168,335.2a.748.748,0,1,1-.748-.748.748.748,0,0,1,.748.748" transform="translate(-188.888 -245.818)" fill="#28121f"/>
            <path id="Trazado_152792" data-name="Trazado 152792" d="M251.58,332.94a.745.745,0,0,1-.606-1.178l.985-1.38-1,.094a.744.744,0,0,1-.756-.452c-.125-.294-1.183-2.921-.054-4.579a.745.745,0,1,1,1.231.838,3.561,3.561,0,0,0,.016,2.655l1.072-.1a1.192,1.192,0,0,1,1.082,1.88l-1.364,1.91a.744.744,0,0,1-.607.312" transform="translate(-182.996 -238.978)" fill="#db5349"/>
            <path id="Trazado_152793" data-name="Trazado 152793" d="M252.689,323.917c.006-.013-1.338-.654-1.338-.654a2.335,2.335,0,0,1,3.869-.411l-1.183.906a.852.852,0,0,0-1.348.159" transform="translate(-184.255 -236.67)" fill="#28121f"/>
            <path id="Trazado_152794" data-name="Trazado 152794" d="M190.133,285.017c-.815-5.8-6.571-10.333-14.569-8.1,0,0-11.805,4.182-12.1,11.922-.241,6.231,5.612,13.31,5.612,13.31,4.692-2.006,3.073-5.977,3.073-5.977,6.575-1.156,4.2-13.468,4.2-13.468a6.636,6.636,0,0,1,2.463,3.93.855.855,0,0,0,.95.663l9.641-1.315a.857.857,0,0,0,.731-.969" transform="translate(-119.777 -203.18)" fill="#28121f"/>
            <path id="Trazado_152795" data-name="Trazado 152795" d="M182.643,341.7a3.6,3.6,0,1,0,2.459-4.461,3.6,3.6,0,0,0-2.459,4.461" transform="translate(-133.735 -247.778)" fill="#ffa194"/>
            <path id="Trazado_152796" data-name="Trazado 152796" d="M187.807,345.136a2.208,2.208,0,1,0,1.507-2.734,2.208,2.208,0,0,0-1.507,2.734" transform="translate(-137.56 -251.604)" fill="#db5349"/>
            <path id="Trazado_152797" data-name="Trazado 152797" d="M195.915,362.386a2.344,2.344,0,1,1-2.113-2.554,2.344,2.344,0,0,1,2.113,2.554" transform="translate(-140.138 -264.473)" fill="#fffeeb"/>
            <path id="Trazado_152798" data-name="Trazado 152798" d="M205.715,273a.745.745,0,0,1-.474-1.32,11.388,11.388,0,0,1,3.846-1.916,9.318,9.318,0,0,1,8.578,1.789.745.745,0,1,1-.923,1.169c-5.258-4.153-10.5.065-10.554.108a.742.742,0,0,1-.473.17" transform="translate(-150.256 -198.006)" fill="#28121f"/>
            <path id="Trazado_152799" data-name="Trazado 152799" d="M188.015,306.709a.745.745,0,0,1-.5-1.3c2.8-2.5,2.082-7.107,2.075-7.154a.745.745,0,0,1,1.47-.243c.037.221.862,5.452-2.551,8.507a.741.741,0,0,1-.5.19" transform="translate(-137.231 -218.6)" fill="#70529e"/>
            <path id="Trazado_152800" data-name="Trazado 152800" d="M227.509,348.934a2.208,2.208,0,1,1-1.756-2.581,2.208,2.208,0,0,1,1.756,2.581" transform="translate(-163.51 -254.544)" fill="#f4756e"/>
            <path id="Trazado_152801" data-name="Trazado 152801" d="M519.974,337.138a.745.745,0,0,1-.04-1.488l26.581-1.468a.745.745,0,1,1,.082,1.487l-26.582,1.468h-.042" transform="translate(-380.636 -245.621)" fill="#31313c"/>
            <path id="Trazado_152802" data-name="Trazado 152802" d="M244.673,298.216a.745.745,0,0,1-.733-.621,5.063,5.063,0,0,0-1.249-2.615.745.745,0,0,1,1.022-1.084,6.475,6.475,0,0,1,1.7,3.452.745.745,0,0,1-.611.858.769.769,0,0,1-.125.01" transform="translate(-177.734 -215.867)" fill="#70529e"/>
            <path id="Trazado_152803" data-name="Trazado 152803" d="M359.884,528.683a15.216,15.216,0,0,0-15.216-15.216H329.321v81.039h99.086V528.683Z" transform="translate(-241.446 -378.037)" fill="#12263f"/>
            <path id="Trazado_152804" data-name="Trazado 152804" d="M643.036,755.718a5.808,5.808,0,1,1-5.808-5.808,5.808,5.808,0,0,1,5.808,5.808" transform="translate(-462.871 -551.302)" fill="#fffeeb"/>
            <path id="Trazado_152805" data-name="Trazado 152805" d="M561.187,760.228a6.553,6.553,0,1,1,6.553-6.553,6.56,6.56,0,0,1-6.553,6.553m0-11.616a5.063,5.063,0,1,0,5.063,5.063,5.069,5.069,0,0,0-5.063-5.063" transform="translate(-406.583 -549.259)" fill="#fffeeb"/>
            <path id="Trazado_152807" data-name="Trazado 152807" d="M522.137,102.4a28.509,28.509,0,1,1-28.509-28.509A28.509,28.509,0,0,1,522.137,102.4" transform="translate(-340.981 -54.143)" fill="#6f88da"/>
            <path id="Trazado_152808" data-name="Trazado 152808" d="M516.35,184.5a23.729,23.729,0,0,0-20.223,11.338,23.706,23.706,0,0,0,40.447,0A23.728,23.728,0,0,0,516.35,184.5" transform="translate(-363.706 -135.647)" fill="#fffeeb"/>
            <path id="Trazado_152809" data-name="Trazado 152809" d="M554.427,110.5a9.978,9.978,0,1,1-9.978-9.978,9.978,9.978,0,0,1,9.978,9.978" transform="translate(-391.805 -73.664)" fill="#fffeeb"/>
            <path id="Trazado_152811" data-name="Trazado 152811" d="M358.854,278.874a20.267,20.267,0,1,1-20.267-20.267,20.267,20.267,0,0,1,20.267,20.267" transform="translate(-233.357 -190.195)" fill="#31313c"/>
            <path id="Trazado_152812" data-name="Trazado 152812" d="M354.742,337.241a16.868,16.868,0,0,0-14.377,8.06,16.852,16.852,0,0,0,28.754,0,16.868,16.868,0,0,0-14.377-8.06" transform="translate(-249.514 -247.918)" fill="#fffeeb"/>
            <path id="Trazado_152813" data-name="Trazado 152813" d="M381.81,284.638a7.093,7.093,0,1,1-7.093-7.093,7.093,7.093,0,0,1,7.093,7.093" transform="translate(-269.492 -204.027)" fill="#fffeeb"/>
            <path id="Trazado_152814" data-name="Trazado 152814" d="M1070.753,415.905a20.267,20.267,0,1,1-20.267-20.267,20.267,20.267,0,0,1,20.267,20.267" transform="translate(-755.268 -290.975)" fill="#12263f"/>
            <path id="Trazado_152815" data-name="Trazado 152815" d="M1066.641,474.271a16.869,16.869,0,0,0-14.377,8.06,16.852,16.852,0,0,0,28.754,0,16.868,16.868,0,0,0-14.377-8.06" transform="translate(-771.422 -348.654)" fill="#fffeeb"/>
            <path id="Trazado_152816" data-name="Trazado 152816" d="M1093.709,421.668a7.093,7.093,0,1,1-7.093-7.093,7.093,7.093,0,0,1,7.093,7.093" transform="translate(-791.397 -304.76)" fill="#fffeeb"/>
            <path id="Trazado_152817" data-name="Trazado 152817" d="M884.849,573.113a20.267,20.267,0,1,1-20.267-20.267,20.267,20.267,0,0,1,20.267,20.267" transform="translate(-618.958 -406.894)" fill="#12263f"/>
            <path id="Trazado_152818" data-name="Trazado 152818" d="M880.736,631.479a16.868,16.868,0,0,0-14.377,8.06,16.852,16.852,0,0,0,28.754,0,16.868,16.868,0,0,0-14.377-8.06" transform="translate(-635.109 -464.223)" fill="#fffeeb"/>
            <path id="Trazado_152819" data-name="Trazado 152819" d="M907.8,578.876a7.093,7.093,0,1,1-7.093-7.093,7.093,7.093,0,0,1,7.093,7.093" transform="translate(-655.08 -420.326)" fill="#fffeeb"/>
            <path id="Trazado_152820" data-name="Trazado 152820" d="M696.521,414.525a20.267,20.267,0,1,1-20.267-20.267,20.267,20.267,0,0,1,20.267,20.267" transform="translate(-480.897 -289.96)" fill="#31313c"/>
            <path id="Trazado_152821" data-name="Trazado 152821" d="M692.076,418.445l-3.513,7.117a1.1,1.1,0,0,1-.832.6l-7.854,1.141a1.1,1.1,0,0,0-.613,1.885l5.684,5.54a1.1,1.1,0,0,1,.318.978l-1.342,7.822a1.105,1.105,0,0,0,1.6,1.165L692.552,441a1.1,1.1,0,0,1,1.028,0l7.025,3.693a1.1,1.1,0,0,0,1.6-1.165l-1.342-7.822a1.1,1.1,0,0,1,.318-.978l5.683-5.54a1.1,1.1,0,0,0-.612-1.885l-7.854-1.141a1.106,1.106,0,0,1-.832-.6l-3.512-7.117a1.1,1.1,0,0,0-1.982,0" transform="translate(-497.709 -307.217)" fill="#fffeeb"/>
            <path id="Trazado_152822" data-name="Trazado 152822" d="M265.7,156.851l-2.451,4.967a.772.772,0,0,1-.581.422l-5.481.8a.771.771,0,0,0-.427,1.315l3.966,3.866a.77.77,0,0,1,.222.682l-.936,5.459a.771.771,0,0,0,1.119.813l4.9-2.577a.771.771,0,0,1,.717,0l4.9,2.577a.771.771,0,0,0,1.119-.813l-.936-5.459a.771.771,0,0,1,.222-.682l3.966-3.866a.771.771,0,0,0-.427-1.315l-5.481-.8a.772.772,0,0,1-.581-.422l-2.451-4.967a.771.771,0,0,0-1.383,0" transform="translate(-188.051 -114.996)" fill="#ffca28"/>
            <path id="Trazado_152823" data-name="Trazado 152823" d="M918.964,418.359l-2.451,4.967a.772.772,0,0,1-.581.422l-5.481.8a.771.771,0,0,0-.428,1.315l3.966,3.866a.769.769,0,0,1,.222.682l-.936,5.459a.771.771,0,0,0,1.119.813l4.9-2.577a.77.77,0,0,1,.717,0l4.9,2.577a.771.771,0,0,0,1.119-.813l-.936-5.459a.77.77,0,0,1,.222-.682l3.966-3.866a.771.771,0,0,0-.427-1.315l-5.481-.8a.773.773,0,0,1-.581-.422l-2.451-4.967a.771.771,0,0,0-1.383,0" transform="translate(-666.94 -307.249)" fill="#ffca28"/>
            <path id="Trazado_152824" data-name="Trazado 152824" d="M551.4.315l-1.8,3.643a.565.565,0,0,1-.426.309l-4.021.584a.566.566,0,0,0-.313.965l2.909,2.836a.566.566,0,0,1,.163.5l-.687,4a.566.566,0,0,0,.821.6l3.6-1.89a.565.565,0,0,1,.526,0l3.6,1.89a.566.566,0,0,0,.821-.6l-.687-4a.566.566,0,0,1,.163-.5l2.909-2.836a.566.566,0,0,0-.313-.965l-4.021-.584a.567.567,0,0,1-.426-.309l-1.8-3.643a.566.566,0,0,0-1.014,0" transform="translate(-399.283 0)" fill="#785549"/>
            <path id="Trazado_152825" data-name="Trazado 152825" d="M852.634,205.761,846.9,217.387a1.8,1.8,0,0,1-1.359.987l-12.83,1.865a1.8,1.8,0,0,0-1,3.078l9.284,9.049a1.8,1.8,0,0,1,.519,1.6l-2.191,12.778a1.8,1.8,0,0,0,2.619,1.9l11.475-6.033a1.8,1.8,0,0,1,1.679,0l11.475,6.033a1.8,1.8,0,0,0,2.618-1.9l-2.192-12.778a1.806,1.806,0,0,1,.519-1.6l9.284-9.049a1.8,1.8,0,0,0-1-3.078l-12.83-1.865a1.8,1.8,0,0,1-1.359-.987l-5.737-11.626a1.8,1.8,0,0,0-3.237,0" transform="translate(-609.32 -150.6)" fill="#ffca28"/>
            <path id="Trazado_152826" data-name="Trazado 152826" d="M707.158,203.174l-2.451,4.967a.772.772,0,0,1-.581.422l-5.481.8a.771.771,0,0,0-.427,1.315l3.966,3.866a.77.77,0,0,1,.222.682l-.936,5.459a.771.771,0,0,0,1.119.813l4.9-2.577a.771.771,0,0,1,.717,0l4.9,2.577a.771.771,0,0,0,1.119-.813l-.936-5.459a.77.77,0,0,1,.222-.682l3.966-3.866a.771.771,0,0,0-.427-1.315l-5.481-.8a.772.772,0,0,1-.581-.422l-2.451-4.967a.771.771,0,0,0-1.383,0" transform="translate(-511.672 -149.051)" fill="#ffca28"/>
            <path id="Trazado_152827" data-name="Trazado 152827" d="M288.588,586.358s4.885-10.938,6.613-13.908c2.37-4.07,7.248-1.418,6.506,2.512-.335,1.778-.708,4-1.177,6.436,0,0,4.171-2.5,7.259-4.093,8.743-4.518,10.569-3.262,11.589-1.588.954,1.566,1,3.6-2.293,5.476-.913.519-2.2,1.245-4.074,2.422,7.3-4.32,9.675-2.494,10.608-1.186,1.01,1.415,1.776,3.987-1.469,5.966-.388.237-.832.436-1.273.663a3.469,3.469,0,0,1,3.941,1.6c1.136,1.813.813,4-2.529,6.22-.564.374-1.2.775-1.864,1.182a2.444,2.444,0,0,1,2.766,1.812c1.041,3.609-3.375,4.869-8.9,7.237s-21.229,8.124-21.229,8.124l-12.24-23.777Z" transform="translate(-205.868 -419.767)" fill="#ffa194"/>
            <path id="Trazado_152828" data-name="Trazado 152828" d="M355.866,621.4a.745.745,0,0,1-.351-1.4l12.9-6.885a.745.745,0,0,1,.7,1.314l-12.9,6.884a.741.741,0,0,1-.35.088" transform="translate(-260.327 -450.604)" fill="#db5349"/>
            <path id="Trazado_152829" data-name="Trazado 152829" d="M368.793,647a.745.745,0,0,1-.337-1.409l16-8.113a.745.745,0,1,1,.674,1.328l-16,8.113a.742.742,0,0,1-.336.081" transform="translate(-269.805 -468.528)" fill="#db5349"/>
            <path id="Trazado_152830" data-name="Trazado 152830" d="M380.594,677.291a.745.745,0,0,1-.306-1.424l12.853-5.776a.745.745,0,1,1,.611,1.359L380.9,677.226a.743.743,0,0,1-.3.066" transform="translate(-278.454 -492.762)" fill="#db5349"/>
            <path id="Trazado_152831" data-name="Trazado 152831" d="M345.246,593.874c.468-2.44.841-4.658,1.176-6.436l-4.515,7.438a.439.439,0,0,0,.6.607Z" transform="translate(-250.589 -431.795)" fill="#db5349"/>
            <path id="Trazado_152832" data-name="Trazado 152832" d="M187.832,579.385a.745.745,0,0,1-.662-.4L175.3,556.026c-1.345.514-2.922,1.2-4.578,1.915-4.627,2.006-10.387,4.5-15.885,5.443a20.365,20.365,0,0,1-8.044-.019,12.433,12.433,0,0,1-6.77-4.042c-2.046-2.367-2.982-5.9-2.78-10.5a50.887,50.887,0,0,1,2.514-12.661A107.512,107.512,0,0,1,146,520.886a.745.745,0,1,1,1.322.687,105.919,105.919,0,0,0-6.144,15.053c-2.283,7.281-4.14,16.96-.023,21.723,2.275,2.632,5.384,3.932,9.439,3.932a23.784,23.784,0,0,0,4-.365c5.321-.91,10.989-3.367,15.543-5.341,1.936-.839,3.765-1.632,5.276-2.177a.745.745,0,0,1,.914.359L188.493,578.3a.745.745,0,0,1-.661,1.087" transform="translate(-100.555 -383.18)" fill="#31313c"/>
            <path id="Trazado_152833" data-name="Trazado 152833" d="M741.821,688.84a5.47,5.47,0,1,1-5.469-5.47,5.469,5.469,0,0,1,5.469,5.47" transform="translate(-535.783 -502.542)" fill="#31313c"/>
            <path id="Trazado_152834" data-name="Trazado 152834" d="M782.763,292.833a5.47,5.47,0,1,1-5.47-5.469,5.47,5.47,0,0,1,5.47,5.469" transform="translate(-565.795 -211.235)" fill="#31313c"/>
            <path id="Trazado_152835" data-name="Trazado 152835" d="M1033.335,278.692a5.47,5.47,0,1,1-5.47-5.47,5.47,5.47,0,0,1,5.47,5.47" transform="translate(-749.535 -200.84)" fill="#31313c"/>
          </g>
        </g>
      </g>
    </g>
  </g>
</svg>
