<svg xmlns="http://www.w3.org/2000/svg" xmlns:xlink="http://www.w3.org/1999/xlink" width="394.696" height="250.245" viewBox="0 0 394.696 250.245">
  <defs>
    <clipPath id="clip-path">
      <rect id="Rectángulo_352791" data-name="Rectángulo 352791" width="197.998" height="101.009" fill="#12263f"/>
    </clipPath>
    <clipPath id="clip-path-2">
      <rect id="Rectángulo_35129" data-name="Rectángulo 35129" width="283.499" height="198.186" fill="none"/>
    </clipPath>
  </defs>
  <g id="Grupo_1025532" data-name="Grupo 1025532" transform="translate(4988.697 9899.575)">
    <g id="Grupo_1024532" data-name="Grupo 1024532" transform="translate(-6557.904 -114.787)">
      <g id="Enmascarar_grupo_1018593" data-name="Enmascarar grupo 1018593" transform="translate(1765.905 -9775.788)" clip-path="url(#clip-path)">
        <path id="Trazado_151731" data-name="Trazado 151731" d="M94.274,148.853a54.579,54.579,0,1,1,54.579-54.579,54.641,54.641,0,0,1-54.579,54.579m0,39.694A94.273,94.273,0,1,0,0,94.273,94.274,94.274,0,0,0,94.274,188.547Z" transform="translate(4.09 6.736)" fill="#4adbd1"/>
      </g>
      <g id="Grupo_1018971" data-name="Grupo 1018971" transform="translate(1569.207 -9784.788)">
        <path id="Trazado_145969" data-name="Trazado 145969" d="M55.835,0A55.835,55.835,0,1,1,0,55.835,55.835,55.835,0,0,1,55.835,0Z" transform="translate(0 2.834)" fill="#ffca28" opacity="0.444" style="mix-blend-mode: multiply;isolation: isolate"/>
        <rect id="Rectángulo_34812" data-name="Rectángulo 34812" width="393.397" height="165.7" transform="translate(0)" fill="none"/>
        <path id="Trazado_145971" data-name="Trazado 145971" d="M6.372,0A6.372,6.372,0,1,1,0,6.372,6.372,6.372,0,0,1,6.372,0Z" transform="translate(25.175 140.327)" fill="#31313c" opacity="0.444" style="mix-blend-mode: multiply;isolation: isolate"/>
        <g id="Grupo_80270" data-name="Grupo 80270" transform="translate(254.038 124.887)">
          <path id="Trazado_145968" data-name="Trazado 145968" d="M62.679,0A62.679,62.679,0,1,1,0,62.679,62.679,62.679,0,0,1,62.679,0Z" transform="translate(0)" fill="#31313c" opacity="0.444" style="mix-blend-mode: multiply;isolation: isolate"/>
          <g id="Grupo_78276" data-name="Grupo 78276" transform="translate(24.472 25.912)">
            <g id="Grupo_53306" data-name="Grupo 53306">
              <path id="Trazado_99200" data-name="Trazado 99200" d="M415.916,51.038a.852.852,0,1,1-.852-.814A.833.833,0,0,1,415.916,51.038Z" transform="translate(-414.214 -50.224)" fill="#fff"/>
              <path id="Trazado_99201" data-name="Trazado 99201" d="M424.362,51.038a.852.852,0,1,1-.851-.814A.833.833,0,0,1,424.362,51.038Z" transform="translate(-415 -50.224)" fill="#fff"/>
              <path id="Trazado_99202" data-name="Trazado 99202" d="M432.808,51.038a.852.852,0,1,1-.851-.814A.833.833,0,0,1,432.808,51.038Z" transform="translate(-415.787 -50.224)" fill="#fff"/>
              <path id="Trazado_99203" data-name="Trazado 99203" d="M441.255,51.038a.852.852,0,1,1-.852-.814A.833.833,0,0,1,441.255,51.038Z" transform="translate(-416.573 -50.224)" fill="#fff"/>
              <path id="Trazado_99204" data-name="Trazado 99204" d="M449.7,51.038a.852.852,0,1,1-.851-.814A.833.833,0,0,1,449.7,51.038Z" transform="translate(-417.359 -50.224)" fill="#fff"/>
              <path id="Trazado_99205" data-name="Trazado 99205" d="M458.147,51.038a.852.852,0,1,1-.851-.814A.833.833,0,0,1,458.147,51.038Z" transform="translate(-418.146 -50.224)" fill="#fff"/>
              <path id="Trazado_99206" data-name="Trazado 99206" d="M466.594,51.038a.852.852,0,1,1-.852-.814A.834.834,0,0,1,466.594,51.038Z" transform="translate(-418.932 -50.224)" fill="#fff"/>
              <path id="Trazado_99207" data-name="Trazado 99207" d="M475.04,51.038a.852.852,0,1,1-.851-.814A.833.833,0,0,1,475.04,51.038Z" transform="translate(-419.718 -50.224)" fill="#fff"/>
              <path id="Trazado_99208" data-name="Trazado 99208" d="M483.486,51.038a.852.852,0,1,1-.851-.814A.833.833,0,0,1,483.486,51.038Z" transform="translate(-420.504 -50.224)" fill="#fff"/>
              <path id="Trazado_99209" data-name="Trazado 99209" d="M491.933,51.038a.852.852,0,1,1-.852-.814A.834.834,0,0,1,491.933,51.038Z" transform="translate(-421.291 -50.224)" fill="#fff"/>
              <path id="Trazado_99210" data-name="Trazado 99210" d="M500.379,51.038a.852.852,0,1,1-.852-.814A.833.833,0,0,1,500.379,51.038Z" transform="translate(-422.077 -50.224)" fill="#fff"/>
            </g>
            <g id="Grupo_53307" data-name="Grupo 53307" transform="translate(0 6.512)">
              <path id="Trazado_99211" data-name="Trazado 99211" d="M415.916,58.546a.852.852,0,1,1-.852-.814A.833.833,0,0,1,415.916,58.546Z" transform="translate(-414.214 -57.732)" fill="#fff"/>
              <path id="Trazado_99212" data-name="Trazado 99212" d="M424.362,58.546a.852.852,0,1,1-.851-.814A.833.833,0,0,1,424.362,58.546Z" transform="translate(-415 -57.732)" fill="#fff"/>
              <path id="Trazado_99213" data-name="Trazado 99213" d="M432.808,58.546a.852.852,0,1,1-.851-.814A.833.833,0,0,1,432.808,58.546Z" transform="translate(-415.787 -57.732)" fill="#fff"/>
              <path id="Trazado_99214" data-name="Trazado 99214" d="M441.255,58.546a.852.852,0,1,1-.852-.814A.833.833,0,0,1,441.255,58.546Z" transform="translate(-416.573 -57.732)" fill="#fff"/>
              <path id="Trazado_99215" data-name="Trazado 99215" d="M449.7,58.546a.852.852,0,1,1-.851-.814A.833.833,0,0,1,449.7,58.546Z" transform="translate(-417.359 -57.732)" fill="#fff"/>
              <path id="Trazado_99216" data-name="Trazado 99216" d="M458.147,58.546a.852.852,0,1,1-.851-.814A.833.833,0,0,1,458.147,58.546Z" transform="translate(-418.146 -57.732)" fill="#fff"/>
              <path id="Trazado_99217" data-name="Trazado 99217" d="M466.594,58.546a.852.852,0,1,1-.852-.814A.834.834,0,0,1,466.594,58.546Z" transform="translate(-418.932 -57.732)" fill="#fff"/>
              <path id="Trazado_99218" data-name="Trazado 99218" d="M475.04,58.546a.852.852,0,1,1-.851-.814A.833.833,0,0,1,475.04,58.546Z" transform="translate(-419.718 -57.732)" fill="#fff"/>
              <path id="Trazado_99219" data-name="Trazado 99219" d="M483.486,58.546a.852.852,0,1,1-.851-.814A.833.833,0,0,1,483.486,58.546Z" transform="translate(-420.504 -57.732)" fill="#fff"/>
              <path id="Trazado_99220" data-name="Trazado 99220" d="M491.933,58.546a.852.852,0,1,1-.852-.814A.834.834,0,0,1,491.933,58.546Z" transform="translate(-421.291 -57.732)" fill="#fff"/>
              <path id="Trazado_99221" data-name="Trazado 99221" d="M500.379,58.546a.852.852,0,1,1-.852-.814A.833.833,0,0,1,500.379,58.546Z" transform="translate(-422.077 -57.732)" fill="#fff"/>
            </g>
            <g id="Grupo_53308" data-name="Grupo 53308" transform="translate(0 13.023)">
              <ellipse id="Elipse_3955" data-name="Elipse 3955" cx="0.851" cy="0.814" rx="0.851" ry="0.814" fill="#fff"/>
              <path id="Trazado_99222" data-name="Trazado 99222" d="M424.362,66.054a.852.852,0,1,1-.851-.814A.833.833,0,0,1,424.362,66.054Z" transform="translate(-415 -65.24)" fill="#fff"/>
              <ellipse id="Elipse_3956" data-name="Elipse 3956" cx="0.851" cy="0.814" rx="0.851" ry="0.814" transform="translate(15.32)" fill="#fff"/>
              <path id="Trazado_99223" data-name="Trazado 99223" d="M441.255,66.054a.852.852,0,1,1-.852-.814A.834.834,0,0,1,441.255,66.054Z" transform="translate(-416.573 -65.24)" fill="#fff"/>
              <path id="Trazado_99224" data-name="Trazado 99224" d="M449.7,66.054a.852.852,0,1,1-.851-.814A.834.834,0,0,1,449.7,66.054Z" transform="translate(-417.359 -65.24)" fill="#fff"/>
              <ellipse id="Elipse_3957" data-name="Elipse 3957" cx="0.851" cy="0.814" rx="0.851" ry="0.814" transform="translate(38.3)" fill="#fff"/>
              <path id="Trazado_99225" data-name="Trazado 99225" d="M466.594,66.054a.852.852,0,1,1-.852-.814A.834.834,0,0,1,466.594,66.054Z" transform="translate(-418.932 -65.24)" fill="#fff"/>
              <ellipse id="Elipse_3958" data-name="Elipse 3958" cx="0.851" cy="0.814" rx="0.851" ry="0.814" transform="translate(53.62)" fill="#fff"/>
              <ellipse id="Elipse_3959" data-name="Elipse 3959" cx="0.851" cy="0.814" rx="0.851" ry="0.814" transform="translate(61.28)" fill="#fff"/>
              <path id="Trazado_99226" data-name="Trazado 99226" d="M491.933,66.054a.852.852,0,1,1-.852-.814A.834.834,0,0,1,491.933,66.054Z" transform="translate(-421.291 -65.24)" fill="#fff"/>
              <path id="Trazado_99227" data-name="Trazado 99227" d="M500.379,66.054a.852.852,0,1,1-.852-.814A.834.834,0,0,1,500.379,66.054Z" transform="translate(-422.077 -65.24)" fill="#fff"/>
            </g>
            <g id="Grupo_53309" data-name="Grupo 53309" transform="translate(0 19.534)">
              <ellipse id="Elipse_3960" data-name="Elipse 3960" cx="0.851" cy="0.814" rx="0.851" ry="0.814" transform="translate(0 0)" fill="#fff"/>
              <path id="Trazado_99228" data-name="Trazado 99228" d="M424.362,73.561a.852.852,0,1,1-.851-.814A.833.833,0,0,1,424.362,73.561Z" transform="translate(-415 -72.747)" fill="#fff"/>
              <ellipse id="Elipse_3961" data-name="Elipse 3961" cx="0.851" cy="0.814" rx="0.851" ry="0.814" transform="translate(15.32 0)" fill="#fff"/>
              <path id="Trazado_99229" data-name="Trazado 99229" d="M441.255,73.561a.852.852,0,1,1-.852-.814A.833.833,0,0,1,441.255,73.561Z" transform="translate(-416.573 -72.747)" fill="#fff"/>
              <path id="Trazado_99230" data-name="Trazado 99230" d="M449.7,73.561a.852.852,0,1,1-.851-.814A.833.833,0,0,1,449.7,73.561Z" transform="translate(-417.359 -72.747)" fill="#fff"/>
              <ellipse id="Elipse_3962" data-name="Elipse 3962" cx="0.851" cy="0.814" rx="0.851" ry="0.814" transform="translate(38.3 0)" fill="#fff"/>
              <path id="Trazado_99231" data-name="Trazado 99231" d="M466.594,73.561a.852.852,0,1,1-.852-.814A.834.834,0,0,1,466.594,73.561Z" transform="translate(-418.932 -72.747)" fill="#fff"/>
              <ellipse id="Elipse_3963" data-name="Elipse 3963" cx="0.851" cy="0.814" rx="0.851" ry="0.814" transform="translate(53.62 0)" fill="#fff"/>
              <ellipse id="Elipse_3964" data-name="Elipse 3964" cx="0.851" cy="0.814" rx="0.851" ry="0.814" transform="translate(61.28 0)" fill="#fff"/>
              <path id="Trazado_99232" data-name="Trazado 99232" d="M491.933,73.561a.852.852,0,1,1-.852-.814A.834.834,0,0,1,491.933,73.561Z" transform="translate(-421.291 -72.747)" fill="#fff"/>
              <path id="Trazado_99233" data-name="Trazado 99233" d="M500.379,73.561a.852.852,0,1,1-.852-.814A.833.833,0,0,1,500.379,73.561Z" transform="translate(-422.077 -72.747)" fill="#fff"/>
            </g>
            <g id="Grupo_53310" data-name="Grupo 53310" transform="translate(0 26.046)">
              <path id="Trazado_99234" data-name="Trazado 99234" d="M415.916,81.069a.852.852,0,1,1-.852-.814A.833.833,0,0,1,415.916,81.069Z" transform="translate(-414.214 -80.255)" fill="#fff"/>
              <path id="Trazado_99235" data-name="Trazado 99235" d="M424.362,81.069a.852.852,0,1,1-.851-.814A.833.833,0,0,1,424.362,81.069Z" transform="translate(-415 -80.255)" fill="#fff"/>
              <path id="Trazado_99236" data-name="Trazado 99236" d="M432.808,81.069a.852.852,0,1,1-.851-.814A.833.833,0,0,1,432.808,81.069Z" transform="translate(-415.787 -80.255)" fill="#fff"/>
              <path id="Trazado_99237" data-name="Trazado 99237" d="M441.255,81.069a.852.852,0,1,1-.852-.814A.833.833,0,0,1,441.255,81.069Z" transform="translate(-416.573 -80.255)" fill="#fff"/>
              <path id="Trazado_99238" data-name="Trazado 99238" d="M449.7,81.069a.852.852,0,1,1-.851-.814A.833.833,0,0,1,449.7,81.069Z" transform="translate(-417.359 -80.255)" fill="#fff"/>
              <path id="Trazado_99239" data-name="Trazado 99239" d="M458.147,81.069a.852.852,0,1,1-.851-.814A.833.833,0,0,1,458.147,81.069Z" transform="translate(-418.146 -80.255)" fill="#fff"/>
              <path id="Trazado_99240" data-name="Trazado 99240" d="M466.594,81.069a.852.852,0,1,1-.852-.814A.834.834,0,0,1,466.594,81.069Z" transform="translate(-418.932 -80.255)" fill="#fff"/>
              <path id="Trazado_99241" data-name="Trazado 99241" d="M475.04,81.069a.852.852,0,1,1-.851-.814A.833.833,0,0,1,475.04,81.069Z" transform="translate(-419.718 -80.255)" fill="#fff"/>
              <path id="Trazado_99242" data-name="Trazado 99242" d="M483.486,81.069a.852.852,0,1,1-.851-.814A.833.833,0,0,1,483.486,81.069Z" transform="translate(-420.504 -80.255)" fill="#fff"/>
              <path id="Trazado_99243" data-name="Trazado 99243" d="M491.933,81.069a.852.852,0,1,1-.852-.814A.834.834,0,0,1,491.933,81.069Z" transform="translate(-421.291 -80.255)" fill="#fff"/>
              <path id="Trazado_99244" data-name="Trazado 99244" d="M500.379,81.069a.852.852,0,1,1-.852-.814A.833.833,0,0,1,500.379,81.069Z" transform="translate(-422.077 -80.255)" fill="#fff"/>
            </g>
            <g id="Grupo_53311" data-name="Grupo 53311" transform="translate(0 32.557)">
              <ellipse id="Elipse_3965" data-name="Elipse 3965" cx="0.851" cy="0.814" rx="0.851" ry="0.814" transform="translate(0 0)" fill="#fff"/>
              <path id="Trazado_99245" data-name="Trazado 99245" d="M424.362,88.577a.852.852,0,1,1-.851-.814A.833.833,0,0,1,424.362,88.577Z" transform="translate(-415 -87.763)" fill="#fff"/>
              <ellipse id="Elipse_3966" data-name="Elipse 3966" cx="0.851" cy="0.814" rx="0.851" ry="0.814" transform="translate(15.32 0)" fill="#fff"/>
              <path id="Trazado_99246" data-name="Trazado 99246" d="M441.255,88.577a.852.852,0,1,1-.852-.814A.833.833,0,0,1,441.255,88.577Z" transform="translate(-416.573 -87.763)" fill="#fff"/>
              <path id="Trazado_99247" data-name="Trazado 99247" d="M449.7,88.577a.852.852,0,1,1-.851-.814A.833.833,0,0,1,449.7,88.577Z" transform="translate(-417.359 -87.763)" fill="#fff"/>
              <ellipse id="Elipse_3967" data-name="Elipse 3967" cx="0.851" cy="0.814" rx="0.851" ry="0.814" transform="translate(38.3 0)" fill="#fff"/>
              <path id="Trazado_99248" data-name="Trazado 99248" d="M466.594,88.577a.852.852,0,1,1-.852-.814A.834.834,0,0,1,466.594,88.577Z" transform="translate(-418.932 -87.763)" fill="#fff"/>
              <ellipse id="Elipse_3968" data-name="Elipse 3968" cx="0.851" cy="0.814" rx="0.851" ry="0.814" transform="translate(53.62 0)" fill="#fff"/>
              <ellipse id="Elipse_3969" data-name="Elipse 3969" cx="0.851" cy="0.814" rx="0.851" ry="0.814" transform="translate(61.28 0)" fill="#fff"/>
              <path id="Trazado_99249" data-name="Trazado 99249" d="M491.933,88.577a.852.852,0,1,1-.852-.814A.834.834,0,0,1,491.933,88.577Z" transform="translate(-421.291 -87.763)" fill="#fff"/>
              <path id="Trazado_99250" data-name="Trazado 99250" d="M500.379,88.577a.852.852,0,1,1-.852-.814A.833.833,0,0,1,500.379,88.577Z" transform="translate(-422.077 -87.763)" fill="#fff"/>
            </g>
            <g id="Grupo_53312" data-name="Grupo 53312" transform="translate(0 39.069)">
              <ellipse id="Elipse_3970" data-name="Elipse 3970" cx="0.851" cy="0.814" rx="0.851" ry="0.814" fill="#fff"/>
              <path id="Trazado_99251" data-name="Trazado 99251" d="M424.362,96.085a.852.852,0,1,1-.851-.814A.833.833,0,0,1,424.362,96.085Z" transform="translate(-415 -95.271)" fill="#fff"/>
              <ellipse id="Elipse_3971" data-name="Elipse 3971" cx="0.851" cy="0.814" rx="0.851" ry="0.814" transform="translate(15.32)" fill="#fff"/>
              <path id="Trazado_99252" data-name="Trazado 99252" d="M441.255,96.085a.852.852,0,1,1-.852-.814A.833.833,0,0,1,441.255,96.085Z" transform="translate(-416.573 -95.271)" fill="#fff"/>
              <path id="Trazado_99253" data-name="Trazado 99253" d="M449.7,96.085a.852.852,0,1,1-.851-.814A.833.833,0,0,1,449.7,96.085Z" transform="translate(-417.359 -95.271)" fill="#fff"/>
              <ellipse id="Elipse_3972" data-name="Elipse 3972" cx="0.851" cy="0.814" rx="0.851" ry="0.814" transform="translate(38.3)" fill="#fff"/>
              <path id="Trazado_99254" data-name="Trazado 99254" d="M466.594,96.085a.852.852,0,1,1-.852-.814A.834.834,0,0,1,466.594,96.085Z" transform="translate(-418.932 -95.271)" fill="#fff"/>
              <ellipse id="Elipse_3973" data-name="Elipse 3973" cx="0.851" cy="0.814" rx="0.851" ry="0.814" transform="translate(53.62)" fill="#fff"/>
              <ellipse id="Elipse_3974" data-name="Elipse 3974" cx="0.851" cy="0.814" rx="0.851" ry="0.814" transform="translate(61.28)" fill="#fff"/>
              <path id="Trazado_99255" data-name="Trazado 99255" d="M491.933,96.085a.852.852,0,1,1-.852-.814A.834.834,0,0,1,491.933,96.085Z" transform="translate(-421.291 -95.271)" fill="#fff"/>
              <path id="Trazado_99256" data-name="Trazado 99256" d="M500.379,96.085a.852.852,0,1,1-.852-.814A.833.833,0,0,1,500.379,96.085Z" transform="translate(-422.077 -95.271)" fill="#fff"/>
            </g>
            <g id="Grupo_53313" data-name="Grupo 53313" transform="translate(0 45.58)">
              <path id="Trazado_99257" data-name="Trazado 99257" d="M415.916,103.593a.852.852,0,1,1-.852-.813A.833.833,0,0,1,415.916,103.593Z" transform="translate(-414.214 -102.779)" fill="#fff"/>
              <path id="Trazado_99258" data-name="Trazado 99258" d="M424.362,103.593a.852.852,0,1,1-.851-.813A.833.833,0,0,1,424.362,103.593Z" transform="translate(-415 -102.779)" fill="#fff"/>
              <path id="Trazado_99259" data-name="Trazado 99259" d="M432.808,103.593a.852.852,0,1,1-.851-.813A.833.833,0,0,1,432.808,103.593Z" transform="translate(-415.787 -102.779)" fill="#fff"/>
              <path id="Trazado_99260" data-name="Trazado 99260" d="M441.255,103.593a.852.852,0,1,1-.852-.813A.833.833,0,0,1,441.255,103.593Z" transform="translate(-416.573 -102.779)" fill="#fff"/>
              <path id="Trazado_99261" data-name="Trazado 99261" d="M449.7,103.593a.852.852,0,1,1-.851-.813A.833.833,0,0,1,449.7,103.593Z" transform="translate(-417.359 -102.779)" fill="#fff"/>
              <path id="Trazado_99262" data-name="Trazado 99262" d="M458.147,103.593a.852.852,0,1,1-.851-.813A.833.833,0,0,1,458.147,103.593Z" transform="translate(-418.146 -102.779)" fill="#fff"/>
              <path id="Trazado_99263" data-name="Trazado 99263" d="M466.594,103.593a.852.852,0,1,1-.852-.813A.834.834,0,0,1,466.594,103.593Z" transform="translate(-418.932 -102.779)" fill="#fff"/>
              <path id="Trazado_99264" data-name="Trazado 99264" d="M475.04,103.593a.852.852,0,1,1-.851-.813A.833.833,0,0,1,475.04,103.593Z" transform="translate(-419.718 -102.779)" fill="#fff"/>
              <path id="Trazado_99265" data-name="Trazado 99265" d="M483.486,103.593a.852.852,0,1,1-.851-.813A.833.833,0,0,1,483.486,103.593Z" transform="translate(-420.504 -102.779)" fill="#fff"/>
              <path id="Trazado_99266" data-name="Trazado 99266" d="M491.933,103.593a.852.852,0,1,1-.852-.813A.834.834,0,0,1,491.933,103.593Z" transform="translate(-421.291 -102.779)" fill="#fff"/>
              <path id="Trazado_99267" data-name="Trazado 99267" d="M500.379,103.593a.852.852,0,1,1-.852-.813A.833.833,0,0,1,500.379,103.593Z" transform="translate(-422.077 -102.779)" fill="#fff"/>
            </g>
            <g id="Grupo_53314" data-name="Grupo 53314" transform="translate(0 52.092)">
              <ellipse id="Elipse_3975" data-name="Elipse 3975" cx="0.851" cy="0.814" rx="0.851" ry="0.814" fill="#fff"/>
              <path id="Trazado_99268" data-name="Trazado 99268" d="M424.362,111.1a.852.852,0,1,1-.851-.814A.833.833,0,0,1,424.362,111.1Z" transform="translate(-415 -110.287)" fill="#fff"/>
              <ellipse id="Elipse_3976" data-name="Elipse 3976" cx="0.851" cy="0.814" rx="0.851" ry="0.814" transform="translate(15.32)" fill="#fff"/>
              <path id="Trazado_99269" data-name="Trazado 99269" d="M441.255,111.1a.852.852,0,1,1-.852-.814A.834.834,0,0,1,441.255,111.1Z" transform="translate(-416.573 -110.287)" fill="#fff"/>
              <path id="Trazado_99270" data-name="Trazado 99270" d="M449.7,111.1a.852.852,0,1,1-.851-.814A.834.834,0,0,1,449.7,111.1Z" transform="translate(-417.359 -110.287)" fill="#fff"/>
              <ellipse id="Elipse_3977" data-name="Elipse 3977" cx="0.851" cy="0.814" rx="0.851" ry="0.814" transform="translate(38.3)" fill="#fff"/>
              <path id="Trazado_99271" data-name="Trazado 99271" d="M466.594,111.1a.852.852,0,1,1-.852-.814A.834.834,0,0,1,466.594,111.1Z" transform="translate(-418.932 -110.287)" fill="#fff"/>
              <ellipse id="Elipse_3978" data-name="Elipse 3978" cx="0.851" cy="0.814" rx="0.851" ry="0.814" transform="translate(53.62)" fill="#fff"/>
              <ellipse id="Elipse_3979" data-name="Elipse 3979" cx="0.851" cy="0.814" rx="0.851" ry="0.814" transform="translate(61.28)" fill="#fff"/>
              <path id="Trazado_99272" data-name="Trazado 99272" d="M491.933,111.1a.852.852,0,1,1-.852-.814A.834.834,0,0,1,491.933,111.1Z" transform="translate(-421.291 -110.287)" fill="#fff"/>
              <path id="Trazado_99273" data-name="Trazado 99273" d="M500.379,111.1a.852.852,0,1,1-.852-.814A.834.834,0,0,1,500.379,111.1Z" transform="translate(-422.077 -110.287)" fill="#fff"/>
            </g>
            <g id="Grupo_53315" data-name="Grupo 53315" transform="translate(0 58.603)">
              <path id="Trazado_99274" data-name="Trazado 99274" d="M415.916,118.608a.852.852,0,1,1-.852-.814A.834.834,0,0,1,415.916,118.608Z" transform="translate(-414.214 -117.794)" fill="#fff"/>
              <path id="Trazado_99275" data-name="Trazado 99275" d="M424.362,118.608a.852.852,0,1,1-.851-.814A.833.833,0,0,1,424.362,118.608Z" transform="translate(-415 -117.794)" fill="#fff"/>
              <path id="Trazado_99276" data-name="Trazado 99276" d="M432.808,118.608a.852.852,0,1,1-.851-.814A.833.833,0,0,1,432.808,118.608Z" transform="translate(-415.787 -117.794)" fill="#fff"/>
              <path id="Trazado_99277" data-name="Trazado 99277" d="M441.255,118.608a.852.852,0,1,1-.852-.814A.834.834,0,0,1,441.255,118.608Z" transform="translate(-416.573 -117.794)" fill="#fff"/>
              <path id="Trazado_99278" data-name="Trazado 99278" d="M449.7,118.608a.852.852,0,1,1-.851-.814A.834.834,0,0,1,449.7,118.608Z" transform="translate(-417.359 -117.794)" fill="#fff"/>
              <path id="Trazado_99279" data-name="Trazado 99279" d="M458.147,118.608a.852.852,0,1,1-.851-.814A.833.833,0,0,1,458.147,118.608Z" transform="translate(-418.146 -117.794)" fill="#fff"/>
              <path id="Trazado_99280" data-name="Trazado 99280" d="M466.594,118.608a.852.852,0,1,1-.852-.814A.834.834,0,0,1,466.594,118.608Z" transform="translate(-418.932 -117.794)" fill="#fff"/>
              <path id="Trazado_99281" data-name="Trazado 99281" d="M475.04,118.608a.852.852,0,1,1-.851-.814A.834.834,0,0,1,475.04,118.608Z" transform="translate(-419.718 -117.794)" fill="#fff"/>
              <path id="Trazado_99282" data-name="Trazado 99282" d="M483.486,118.608a.852.852,0,1,1-.851-.814A.834.834,0,0,1,483.486,118.608Z" transform="translate(-420.504 -117.794)" fill="#fff"/>
              <path id="Trazado_99283" data-name="Trazado 99283" d="M491.933,118.608a.852.852,0,1,1-.852-.814A.834.834,0,0,1,491.933,118.608Z" transform="translate(-421.291 -117.794)" fill="#fff"/>
              <path id="Trazado_99284" data-name="Trazado 99284" d="M500.379,118.608a.852.852,0,1,1-.852-.814A.834.834,0,0,1,500.379,118.608Z" transform="translate(-422.077 -117.794)" fill="#fff"/>
            </g>
            <g id="Grupo_53316" data-name="Grupo 53316" transform="translate(0 65.114)">
              <ellipse id="Elipse_3980" data-name="Elipse 3980" cx="0.851" cy="0.814" rx="0.851" ry="0.814" transform="translate(0 0)" fill="#fff"/>
              <path id="Trazado_99285" data-name="Trazado 99285" d="M424.362,126.116a.852.852,0,1,1-.851-.814A.833.833,0,0,1,424.362,126.116Z" transform="translate(-415 -125.302)" fill="#fff"/>
              <ellipse id="Elipse_3981" data-name="Elipse 3981" cx="0.851" cy="0.814" rx="0.851" ry="0.814" transform="translate(15.32 0)" fill="#fff"/>
              <path id="Trazado_99286" data-name="Trazado 99286" d="M441.255,126.116a.852.852,0,1,1-.852-.814A.833.833,0,0,1,441.255,126.116Z" transform="translate(-416.573 -125.302)" fill="#fff"/>
              <path id="Trazado_99287" data-name="Trazado 99287" d="M449.7,126.116a.852.852,0,1,1-.851-.814A.833.833,0,0,1,449.7,126.116Z" transform="translate(-417.359 -125.302)" fill="#fff"/>
              <ellipse id="Elipse_3982" data-name="Elipse 3982" cx="0.851" cy="0.814" rx="0.851" ry="0.814" transform="translate(38.3 0)" fill="#fff"/>
              <path id="Trazado_99288" data-name="Trazado 99288" d="M466.594,126.116a.852.852,0,1,1-.852-.814A.834.834,0,0,1,466.594,126.116Z" transform="translate(-418.932 -125.302)" fill="#fff"/>
              <ellipse id="Elipse_3983" data-name="Elipse 3983" cx="0.851" cy="0.814" rx="0.851" ry="0.814" transform="translate(53.62 0)" fill="#fff"/>
              <ellipse id="Elipse_3984" data-name="Elipse 3984" cx="0.851" cy="0.814" rx="0.851" ry="0.814" transform="translate(61.28 0)" fill="#fff"/>
              <path id="Trazado_99289" data-name="Trazado 99289" d="M491.933,126.116a.852.852,0,1,1-.852-.814A.834.834,0,0,1,491.933,126.116Z" transform="translate(-421.291 -125.302)" fill="#fff"/>
              <path id="Trazado_99290" data-name="Trazado 99290" d="M500.379,126.116a.852.852,0,1,1-.852-.814A.833.833,0,0,1,500.379,126.116Z" transform="translate(-422.077 -125.302)" fill="#fff"/>
            </g>
            <g id="Grupo_53317" data-name="Grupo 53317" transform="translate(0 71.627)">
              <ellipse id="Elipse_3985" data-name="Elipse 3985" cx="0.851" cy="0.814" rx="0.851" ry="0.814" transform="translate(0 0)" fill="#fff"/>
              <path id="Trazado_99291" data-name="Trazado 99291" d="M424.362,133.624a.852.852,0,1,1-.851-.814A.833.833,0,0,1,424.362,133.624Z" transform="translate(-415 -132.81)" fill="#fff"/>
              <ellipse id="Elipse_3986" data-name="Elipse 3986" cx="0.851" cy="0.814" rx="0.851" ry="0.814" transform="translate(15.32 0)" fill="#fff"/>
              <path id="Trazado_99292" data-name="Trazado 99292" d="M441.255,133.624a.852.852,0,1,1-.852-.814A.833.833,0,0,1,441.255,133.624Z" transform="translate(-416.573 -132.81)" fill="#fff"/>
              <path id="Trazado_99293" data-name="Trazado 99293" d="M449.7,133.624a.852.852,0,1,1-.851-.814A.833.833,0,0,1,449.7,133.624Z" transform="translate(-417.359 -132.81)" fill="#fff"/>
              <ellipse id="Elipse_3987" data-name="Elipse 3987" cx="0.851" cy="0.814" rx="0.851" ry="0.814" transform="translate(38.3 0)" fill="#fff"/>
              <path id="Trazado_99294" data-name="Trazado 99294" d="M466.594,133.624a.852.852,0,1,1-.852-.814A.834.834,0,0,1,466.594,133.624Z" transform="translate(-418.932 -132.81)" fill="#fff"/>
              <ellipse id="Elipse_3988" data-name="Elipse 3988" cx="0.851" cy="0.814" rx="0.851" ry="0.814" transform="translate(53.62 0)" fill="#fff"/>
              <ellipse id="Elipse_3989" data-name="Elipse 3989" cx="0.851" cy="0.814" rx="0.851" ry="0.814" transform="translate(61.28 0)" fill="#fff"/>
              <path id="Trazado_99295" data-name="Trazado 99295" d="M491.933,133.624a.852.852,0,1,1-.852-.814A.834.834,0,0,1,491.933,133.624Z" transform="translate(-421.291 -132.81)" fill="#fff"/>
              <path id="Trazado_99296" data-name="Trazado 99296" d="M500.379,133.624a.852.852,0,1,1-.852-.814A.833.833,0,0,1,500.379,133.624Z" transform="translate(-422.077 -132.81)" fill="#fff"/>
            </g>
          </g>
        </g>
        <line id="Línea_138" data-name="Línea 138" y2="118.993" transform="translate(13.67 28.642)" fill="none" stroke="#31313c" stroke-linecap="round" stroke-width="4" stroke-dasharray="8"/>
      </g>
    </g>
    <g id="Grupo_1024538" data-name="Grupo 1024538" transform="translate(-4979.594 -9877.049)">
      <g id="Grupo_158110" data-name="Grupo 158110" transform="translate(26.632 12.585)">
        <g id="Grupo_158109" data-name="Grupo 158109" clip-path="url(#clip-path-2)">
          <path id="Trazado_152936" data-name="Trazado 152936" d="M226.893,53.437l46.131,82.943C280.6,150,272,167.764,257.839,167.764H133.3c-6.159,0-11.89-3.589-15.184-9.512L65.76,64.109c-7.573-13.616,1.025-31.385,15.184-31.385H205.48c6.159,0,11.89,3.591,15.184,9.513Z" transform="translate(7.661 9.047)" fill="#f5e8df"/>
          <path id="Trazado_152937" data-name="Trazado 152937" d="M129.589,120.344l18.933,34.042c3.108,5.588-.421,12.881-6.232,12.881H91.179a7.212,7.212,0,0,1-6.232-3.9l-21.49-38.638c-3.108-5.587.421-12.881,6.232-12.881H120.8a7.215,7.215,0,0,1,6.232,3.9Z" transform="translate(7.582 30.919)" fill="#636363"/>
          <path id="Trazado_152938" data-name="Trazado 152938" d="M98.172,120.562s1.982-3.752,5.776-.572l21.293,21.831s2.009,3.242-2.109,3.658H94.958s-6.083.346-4.62-4.743Z" transform="translate(10.967 32.818)" fill="#fff"/>
          <path id="Trazado_152939" data-name="Trazado 152939" d="M179.952,91l-8.3-14.919-1.121-2.017a3.537,3.537,0,0,0-3.07-1.922h-22.4a3.546,3.546,0,0,0-3.182,2.141,4.567,4.567,0,0,0,.113,4.2l9.418,16.935a3.535,3.535,0,0,0,3.07,1.924h22.4a3.547,3.547,0,0,0,3.183-2.141,4.563,4.563,0,0,0-.112-4.2" transform="translate(17.211 19.945)" fill="#785549"/>
          <path id="Trazado_152940" data-name="Trazado 152940" d="M116.846,14.612l22.069,39.681c3.623,6.514-.49,15.015-7.264,15.015H72.072a8.41,8.41,0,0,1-7.264-4.551l-25.05-45.04C36.135,13.2,40.247,4.7,47.022,4.7H106.6a8.408,8.408,0,0,1,7.264,4.551Z" transform="translate(11.741 -4.675)" fill="#acbefa"/>
          <path id="Trazado_152941" data-name="Trazado 152941" d="M45.408,12.5h79.368l-5.216-9s-1.259-1.878-4.92-3S52.978.55,52.978.55,43.9,1.535,45.408,12.5" transform="translate(5.506 0.006)" fill="#12263f"/>
          <path id="Trazado_152942" data-name="Trazado 152942" d="M100.293,7.7c-.966.913-2.67.392-3.8-1.164s-1.272-3.557-.305-4.47,2.67-.392,3.8,1.164,1.271,3.557.305,4.47" transform="translate(11.627 0.448)" fill="#fff"/>
          <path id="Trazado_152943" data-name="Trazado 152943" d="M92.478,7.7c-.966.913-2.67.392-3.8-1.164S87.4,2.983,88.368,2.07s2.67-.392,3.8,1.164,1.271,3.557.305,4.47" transform="translate(10.676 0.448)" fill="#fff"/>
          <path id="Trazado_152944" data-name="Trazado 152944" d="M12.438,79.867c-2.445,2.31-6.757.991-9.631-2.949s-3.219-9-.773-11.314,6.757-.991,9.63,2.949,3.219,9,.774,11.314" transform="translate(0.049 17.822)" fill="#ffca28"/>
          <path id="Trazado_152953" data-name="Trazado 152953" d="M196.379,68.314H162.5a6.061,6.061,0,0,1-5.265-3.3l-4.348-8.58a7.818,7.818,0,0,1-.185-7.194,6.085,6.085,0,0,1,5.46-3.672h40.053a6.064,6.064,0,0,1,5.265,3.3l4.348,8.58a7.786,7.786,0,0,1,.4,6.7.433.433,0,0,1-.6.255.545.545,0,0,1-.224-.682,6.673,6.673,0,0,0-.351-5.741L202.706,49.4a5.176,5.176,0,0,0-4.491-2.8H158.162a5.2,5.2,0,0,0-4.666,3.138,6.7,6.7,0,0,0,.165,6.165l4.348,8.579a5.171,5.171,0,0,0,4.491,2.8h33.88a.52.52,0,0,1,0,1.031" transform="translate(18.488 12.597)"/>
          <path id="Trazado_152954" data-name="Trazado 152954" d="M195.47,51.063H161.923a.52.52,0,0,1,0-1.031H195.47a.52.52,0,0,1,0,1.031" transform="translate(19.651 13.832)"/>
          <path id="Trazado_152955" data-name="Trazado 152955" d="M198.48,56.524H164.934a.52.52,0,0,1,0-1.031H198.48a.52.52,0,0,1,0,1.031" transform="translate(20.018 15.341)"/>
          <path id="Trazado_152956" data-name="Trazado 152956" d="M126.088,83.942H92.542a.519.519,0,0,1,0-1.03h33.546a.519.519,0,0,1,0,1.03" transform="translate(11.207 22.921)"/>
          <path id="Trazado_152957" data-name="Trazado 152957" d="M129.1,89.4H95.551a.519.519,0,0,1,0-1.03H129.1a.519.519,0,0,1,0,1.03" transform="translate(11.574 24.431)"/>
          <path id="Trazado_152958" data-name="Trazado 152958" d="M140.509,107.953H106.962a.519.519,0,0,1,0-1.03h33.547a.519.519,0,0,1,0,1.03" transform="translate(12.962 29.559)"/>
          <path id="Trazado_152959" data-name="Trazado 152959" d="M143.518,113.414H109.971a.519.519,0,0,1,0-1.03h33.547a.519.519,0,0,1,0,1.03" transform="translate(13.328 31.069)"/>
          <path id="Trazado_152960" data-name="Trazado 152960" d="M118.77,10.428H52.186a.52.52,0,0,1,0-1.031H118.77a.52.52,0,0,1,0,1.031" transform="translate(6.296 2.598)"/>
          <path id="Trazado_152961" data-name="Trazado 152961" d="M121.154,20.863H92.483a.52.52,0,0,1,0-1.031h28.671a.52.52,0,0,1,0,1.031" transform="translate(11.2 5.483)"/>
          <path id="Trazado_152962" data-name="Trazado 152962" d="M126.575,29.2H97.905a.52.52,0,0,1,0-1.031h28.67a.52.52,0,0,1,0,1.031" transform="translate(11.86 7.788)"/>
          <path id="Trazado_152963" data-name="Trazado 152963" d="M131.7,37.538H103.03a.52.52,0,0,1,0-1.031H131.7a.52.52,0,0,1,0,1.031" transform="translate(12.484 10.093)"/>
          <path id="Trazado_152964" data-name="Trazado 152964" d="M108.3,7.7c-.966.913-2.67.392-3.8-1.164s-1.272-3.557-.305-4.47,2.67-.392,3.8,1.164,1.271,3.557.305,4.47" transform="translate(12.602 0.448)" fill="#4adbd1"/>
          <path id="Trazado_152965" data-name="Trazado 152965" d="M99.181,8.783a2.743,2.743,0,0,1-.8-.125,4.424,4.424,0,0,1-2.2-1.677c-1.293-1.772-1.4-4.1-.247-5.2a2.2,2.2,0,0,1,2.246-.444,4.421,4.421,0,0,1,2.2,1.676c1.292,1.773,1.4,4.1.247,5.2a2.061,2.061,0,0,1-1.449.571M97.4,2.247a1.24,1.24,0,0,0-.876.331c-.759.717-.593,2.433.365,3.745A3.516,3.516,0,0,0,98.62,7.662a1.4,1.4,0,0,0,1.431-.243c.759-.717.592-2.432-.365-3.744a3.524,3.524,0,0,0-1.735-1.34,1.923,1.923,0,0,0-.555-.088" transform="translate(11.579 0.336)"/>
          <path id="Trazado_152966" data-name="Trazado 152966" d="M150.142,62.206a2.706,2.706,0,0,1-.8-.125,4.424,4.424,0,0,1-2.2-1.677c-1.293-1.772-1.4-4.1-.247-5.2a2.2,2.2,0,0,1,2.246-.444,4.424,4.424,0,0,1,2.2,1.677c1.292,1.772,1.4,4.1.247,5.2a2.065,2.065,0,0,1-1.449.569m-1.786-6.535a1.245,1.245,0,0,0-.875.331c-.759.719-.593,2.433.365,3.745a3.509,3.509,0,0,0,1.735,1.339,1.408,1.408,0,0,0,1.431-.241c.759-.719.592-2.433-.365-3.745a3.513,3.513,0,0,0-1.735-1.339,1.886,1.886,0,0,0-.556-.089" transform="translate(17.781 15.105)"/>
          <path id="Trazado_152967" data-name="Trazado 152967" d="M75.82,72.569c-.966.913-2.67.392-3.8-1.164s-1.272-3.557-.305-4.47,2.67-.392,3.8,1.164,1.271,3.558.305,4.47" transform="translate(8.649 18.38)" fill="#fff"/>
          <path id="Trazado_152968" data-name="Trazado 152968" d="M74.714,73.638a3.939,3.939,0,0,1-3-1.792,5.411,5.411,0,0,1-1.045-2.766,2.981,2.981,0,0,1,.8-2.429,2.2,2.2,0,0,1,2.246-.445,4.417,4.417,0,0,1,2.2,1.677,5.405,5.405,0,0,1,1.044,2.765,2.985,2.985,0,0,1-.8,2.43,2.058,2.058,0,0,1-1.445.56m-1.789-6.526a1.241,1.241,0,0,0-.876.332A1.912,1.912,0,0,0,71.575,69a4.282,4.282,0,0,0,.838,2.188c.958,1.312,2.407,1.813,3.167,1.1a1.919,1.919,0,0,0,.473-1.557,4.3,4.3,0,0,0-.838-2.188A3.536,3.536,0,0,0,73.48,67.2a1.922,1.922,0,0,0-.555-.088" transform="translate(8.6 18.268)"/>
          <path id="Trazado_152969" data-name="Trazado 152969" d="M9.551,81.621c-2.354,0-5.042-1.52-7.042-4.262A12.812,12.812,0,0,1,.025,70.8a6.724,6.724,0,0,1,1.77-5.482,4.966,4.966,0,0,1,5.062-.971,10.528,10.528,0,0,1,5.206,3.986c3.027,4.15,3.348,9.55.715,12.041a4.591,4.591,0,0,1-3.226,1.246M5.03,65.091a3.771,3.771,0,0,0-2.657,1.021A5.669,5.669,0,0,0,.926,70.722,11.7,11.7,0,0,0,3.206,76.7c2.71,3.713,6.744,5,8.993,2.88s1.877-6.875-.832-10.588a9.613,9.613,0,0,0-4.745-3.649,5.42,5.42,0,0,0-1.592-.253" transform="translate(0 17.71)"/>
          <path id="Trazado_152970" data-name="Trazado 152970" d="M65.354,139.607a3.937,3.937,0,0,1-3-1.792,5.409,5.409,0,0,1-1.044-2.765,2.982,2.982,0,0,1,.8-2.43c1.158-1.1,3.151-.54,4.443,1.232a5.4,5.4,0,0,1,1.044,2.765,2.983,2.983,0,0,1-.8,2.43,2.061,2.061,0,0,1-1.446.56m-1.795-6.523a1.236,1.236,0,0,0-.87.328,1.917,1.917,0,0,0-.473,1.557,4.287,4.287,0,0,0,.838,2.187c.958,1.315,2.409,1.81,3.168,1.1a1.919,1.919,0,0,0,.473-1.557,4.306,4.306,0,0,0-.838-2.188,3.118,3.118,0,0,0-2.3-1.425" transform="translate(7.461 36.508)"/>
          <path id="Trazado_152971" data-name="Trazado 152971" d="M135.257,92.422a3.939,3.939,0,0,1-3-1.792,5.238,5.238,0,0,1-1.042-3.379,2.743,2.743,0,0,1,.8-1.816c1.158-1.1,3.151-.539,4.442,1.232a5.405,5.405,0,0,1,1.044,2.765,2.985,2.985,0,0,1-.8,2.43,2.058,2.058,0,0,1-1.445.56M133.462,85.9a1.236,1.236,0,0,0-.87.328,1.722,1.722,0,0,0-.472,1.119,4.086,4.086,0,0,0,.837,2.624c.957,1.313,2.407,1.813,3.167,1.1a1.919,1.919,0,0,0,.473-1.557,4.305,4.305,0,0,0-.838-2.188,3.116,3.116,0,0,0-2.3-1.425" transform="translate(15.968 23.463)"/>
          <path id="Trazado_152972" data-name="Trazado 152972" d="M91.37,8.772a3.939,3.939,0,0,1-3-1.792c-1.293-1.773-1.4-4.1-.247-5.2s3.15-.542,4.443,1.231,1.4,4.1.247,5.2a2.059,2.059,0,0,1-1.446.56M89.575,2.249a1.23,1.23,0,0,0-.87.328c-.759.717-.593,2.432.365,3.744s2.411,1.813,3.168,1.1.592-2.432-.365-3.745a3.12,3.12,0,0,0-2.3-1.425" transform="translate(10.628 0.338)"/>
          <path id="Trazado_152973" data-name="Trazado 152973" d="M131.8,92.208a.437.437,0,0,1-.375-.226,36.468,36.468,0,0,1-2.569-5.26.544.544,0,0,1,.228-.68.432.432,0,0,1,.6.259,35.461,35.461,0,0,0,2.491,5.1.563.563,0,0,1-.12.716.417.417,0,0,1-.255.088m-4.261-10.768a.469.469,0,0,1-.437-.387,38.944,38.944,0,0,1-.883-5.93.5.5,0,0,1,.415-.554.477.477,0,0,1,.487.472,37.763,37.763,0,0,0,.857,5.753.524.524,0,0,1-.324.628.394.394,0,0,1-.114.018m-.755-11.754a.328.328,0,0,1-.093-.011.516.516,0,0,1-.35-.61,10.343,10.343,0,0,1,2.716-5.291.415.415,0,0,1,.639.027.564.564,0,0,1-.024.728,9.3,9.3,0,0,0-2.446,4.748.47.47,0,0,1-.442.41m6.995-8.118a.456.456,0,0,1-.417-.315.542.542,0,0,1,.242-.675,26.853,26.853,0,0,1,5.058-1.777.451.451,0,0,1,.541.392.519.519,0,0,1-.345.614,26.129,26.129,0,0,0-4.9,1.721.41.41,0,0,1-.175.041m10.137-2.673a.478.478,0,0,1-.45-.463.5.5,0,0,1,.4-.565,45.223,45.223,0,0,1,4.995-.309l.283,0a.491.491,0,0,1,.442.527.486.486,0,0,1-.453.5l-.271,0a43.929,43.929,0,0,0-4.9.305l-.046,0" transform="translate(15.361 15.912)"/>
          <path id="Trazado_152974" data-name="Trazado 152974" d="M75.369,70.531H70.157a.519.519,0,0,1,0-1.03h5.211a.519.519,0,0,1,0,1.03m-10.424,0H59.733a.519.519,0,0,1,0-1.03h5.211a.519.519,0,0,1,0,1.03m-10.424,0H49.308a.519.519,0,0,1,0-1.03h5.213a.519.519,0,0,1,0,1.03m-10.424,0H38.884a.519.519,0,0,1,0-1.03H44.1a.519.519,0,0,1,0,1.03m-10.425,0H28.459a.519.519,0,0,1,0-1.03h5.213a.519.519,0,0,1,0,1.03m-10.424,0H18.035a.519.519,0,0,1,0-1.03h5.213a.519.519,0,0,1,0,1.03" transform="translate(2.14 19.214)"/>
          <path id="Trazado_152975" data-name="Trazado 152975" d="M61.027,135.642H55.816a.519.519,0,0,1,0-1.03h5.211a.519.519,0,0,1,0,1.03m-10.424,0H46.557a.519.519,0,0,1,0-1.03H50.6a.519.519,0,0,1,0,1.03" transform="translate(5.611 37.214)"/>
          <path id="Trazado_152976" data-name="Trazado 152976" d="M50.89,151.188a.444.444,0,0,1-.384-.24l-.9-1.613a.557.557,0,0,1,.141-.71.42.42,0,0,1,.625.16l.9,1.612a.558.558,0,0,1-.141.711.4.4,0,0,1-.241.08M47.2,144.562a.442.442,0,0,1-.383-.239l-2.789-5.011a.558.558,0,0,1,.141-.711.422.422,0,0,1,.625.16l2.787,5.011a.56.56,0,0,1-.14.711.406.406,0,0,1-.242.079M41.63,134.539a.444.444,0,0,1-.384-.24l-2.787-5.011a.557.557,0,0,1,.141-.71.421.421,0,0,1,.625.16l2.787,5.01a.558.558,0,0,1-.141.711.4.4,0,0,1-.241.08m-5.575-10.024a.442.442,0,0,1-.382-.239l-2.789-5.011a.558.558,0,0,1,.141-.711.422.422,0,0,1,.625.16l2.787,5.011a.56.56,0,0,1-.14.711.407.407,0,0,1-.242.079M30.48,114.492a.445.445,0,0,1-.384-.24L27.31,109.24a.557.557,0,0,1,.14-.71.421.421,0,0,1,.625.16l2.787,5.011a.558.558,0,0,1-.141.711.4.4,0,0,1-.241.08m-5.575-10.024a.443.443,0,0,1-.384-.239l-2.787-5.013a.558.558,0,0,1,.141-.711.421.421,0,0,1,.625.16l2.787,5.013a.559.559,0,0,1-.141.711.4.4,0,0,1-.241.079M19.331,94.444a.444.444,0,0,1-.384-.239l-2.786-5.013a.557.557,0,0,1,.14-.71.42.42,0,0,1,.625.16l2.787,5.011a.559.559,0,0,1-.14.711.406.406,0,0,1-.242.079M13.756,84.422a.443.443,0,0,1-.384-.239L10.585,79.17a.558.558,0,0,1,.141-.711.421.421,0,0,1,.625.16l2.787,5.013a.559.559,0,0,1-.141.711.412.412,0,0,1-.241.079" transform="translate(1.28 21.668)"/>
          <path id="Trazado_152978" data-name="Trazado 152978" d="M87.8,49.193a.439.439,0,0,1-.382-.24l-19.076-34.3a.559.559,0,0,1,.14-.711.423.423,0,0,1,.625.16L88.187,48.4a.561.561,0,0,1-.14.712.427.427,0,0,1-.242.079" transform="translate(8.309 3.833)"/>
        </g>
      </g>
      <g id="Grupo_158034" data-name="Grupo 158034" transform="translate(129.756 0)">
        <g id="Grupo_158108" data-name="Grupo 158108">
          <path id="Trazado_152232" data-name="Trazado 152232" d="M489.421,150.4a47.142,47.142,0,1,1,30.608,18.99,46.624,46.624,0,0,1-30.608-18.99m6.48-32.616a32.216,32.216,0,1,0,37.03-26.5,32.2,32.2,0,0,0-37.03,26.5" transform="translate(-340.88 -53.949)" fill="#f2e6dc"/>
          <path id="Trazado_152233" data-name="Trazado 152233" d="M495.468,153.855a45.282,45.282,0,1,1,29.4,18.24,44.785,44.785,0,0,1-29.4-18.24m3.136-31.837A34.075,34.075,0,1,0,537.77,93.992,34.059,34.059,0,0,0,498.6,122.018" transform="translate(-345.416 -58.488)" fill="#fff"/>
          <path id="Trazado_152234" data-name="Trazado 152234" d="M531.756,93.994a34.135,34.135,0,0,0-29.847,25.691l-11.027-1.815a45.249,45.249,0,0,1,40.7-35.045Z" transform="translate(-348.178 -58.792)" fill="#4adbd1"/>
          <path id="Trazado_152235" data-name="Trazado 152235" d="M498.276,223.707a34.065,34.065,0,0,0,53.787,30.5l7.216,8.539c-.23.171-.461.343-.7.51a45.209,45.209,0,0,1-71.335-41.368Z" transform="translate(-346.473 -157.505)" fill="#31313c"/>
          <path id="Trazado_152236" data-name="Trazado 152236" d="M669.54,101.8a33.9,33.9,0,0,0-16.564-7.688q-1.7-.28-3.388-.386l-.177-11.159a46.091,46.091,0,0,1,5.379.563,44.961,44.961,0,0,1,22.67,10.764Z" transform="translate(-460.622 -58.609)" fill="#12263f"/>
          <path id="Trazado_152237" data-name="Trazado 152237" d="M737.8,138.552a48.059,48.059,0,0,1,7.867,35.007,47.2,47.2,0,0,1-13.454,26.4l-7.219-8.889a35.666,35.666,0,0,0,9.67-19.392,36.282,36.282,0,0,0-7.71-28.711l7.918-8.223a47.584,47.584,0,0,1,2.927,3.811" transform="translate(-514.232 -96.043)" fill="#ffca28"/>
          <path id="Trazado_152238" data-name="Trazado 152238" d="M283.456,390.68A95.821,95.821,0,0,1,298.024,412.2c9.016,18.275,10.088,47.932,9.906,57.7H256.953c-.188-4.168-.375-20.959-.563-25.127-3.84,2.024-18.561,22.866-20.689,25.1H175.07c12.03-16.228,33.011-40.04,47.783-51.963-1.068-5.817-2.136-10.071-3.2-15.887l63.807-11.342" transform="translate(-124.176 -259.128)" fill="#12263f"/>
          <path id="Trazado_152239" data-name="Trazado 152239" d="M59.872,249.554C43.953,252.507-2.512,258.222.107,277.666c2.166,16.084,47.171,8.526,63.169,6.616q-1.7-17.365-3.4-34.729" transform="translate(0 -168.611)" fill="#f8b8a4"/>
          <path id="Trazado_152240" data-name="Trazado 152240" d="M209.895,241.1l-5.244,38.97,94.4-22.684-17.482-26.174,18.064-1.163-.583-37.807L183.09,208.524l1.748,40.133Z" transform="translate(-129.864 -126.771)" fill="#4adbd1"/>
          <path id="Trazado_152241" data-name="Trazado 152241" d="M516.273,212.81c5.344.19,41.719-1.316,46.38,7.99,4.9,9.774-21.785,51.423-30.884,62.962a14.733,14.733,0,0,1-4.808,6.834c-3.125,2.364-5.054,1.508-8.741,3.49-6.223,3.346-6.775,9.254-9.141,8.437-1.625-.561-1.452-4.017-.473-7.129,1.005-3.195,3-4.838,2.622-5.235-.416-.435-2.229,1.5-4.7,3.693-1.15,1.02-2.579,5.762-4.911,5.323-1.859-.35-1.61-5.65,1.015-9.467,1.857-2.7,4.933-3.521,4.667-4.056-.2-.4-2.021.133-3.453,1.06-2.363,1.53-3.877,6.365-6.016,5.919-2.1-.437-1.8-5.062.4-8.725,1.847-3.088,5.322-3.84,4.995-4.507-.23-.47-1.856-.456-5.1.582-2.706.866-7.41,4.291-8.741,1.6-1.119-2.264,3.736-5.978,8.845-8.575,3.385-1.721,7.013-3.068,9.074-3.93a26.485,26.485,0,0,0-4.662-2.327c-3.694-1.408-5.2-1.432-5.482-3.2-.288-1.817,2.786-2.543,6.371-2.439,4.277.125,7.281,1.913,9.163,2.58L523.9,243.339c-2.039.145-5.119.259-7.159.4-.1-9.691-.474-19.692-.471-30.933" transform="translate(-346.996 -140.133)" fill="#f8b8a4"/>
          <path id="Trazado_152242" data-name="Trazado 152242" d="M607.994,280.879a.291.291,0,0,1-.257-.425l7.76-14.727a.291.291,0,0,1,.514.27l-7.76,14.727a.291.291,0,0,1-.258.155" transform="translate(-431.039 -180.604)" fill="#363e44"/>
          <path id="Trazado_152243" data-name="Trazado 152243" d="M281.365,322.1a.284.284,0,0,1-.051,0,.29.29,0,0,1-.235-.337l1.66-9.308a.291.291,0,0,1,.572.1l-1.661,9.308a.29.29,0,0,1-.286.239" transform="translate(-199.364 -212.599)" fill="#fff"/>
          <path id="Trazado_152244" data-name="Trazado 152244" d="M270.238,320.077a.28.28,0,0,1-.051,0,.29.29,0,0,1-.235-.337l1.661-9.308a.291.291,0,0,1,.572.1l-1.661,9.308a.29.29,0,0,1-.286.239" transform="translate(-191.471 -211.22)" fill="#fff"/>
          <path id="Trazado_152245" data-name="Trazado 152245" d="M251.889,336.742a5.046,5.046,0,0,1-4.16-2.194,4.985,4.985,0,0,1-.787-3.764l5.2-27.442a2.345,2.345,0,0,1,2.741-1.866l5.28,1a2.342,2.342,0,0,1,1.869,2.736l-5.2,27.442a5.04,5.04,0,0,1-4.944,4.091m2.552-34.727a1.766,1.766,0,0,0-1.73,1.435l-5.2,27.442a4.445,4.445,0,0,0,3.547,5.192,4.457,4.457,0,0,0,5.2-3.541l5.2-27.442a1.762,1.762,0,0,0-1.406-2.058l-5.28-1a1.813,1.813,0,0,0-.332-.031" transform="translate(-175.09 -203.852)" fill="#fff"/>
          <path id="Trazado_152246" data-name="Trazado 152246" d="M278.946,226.733l-5.86-1.106,6.024-31.8,5.86,1.106Zm-5.181-1.568,4.717.89,5.808-30.663-4.718-.891Z" transform="translate(-193.698 -131.176)" fill="#fff"/>
          <path id="Trazado_152247" data-name="Trazado 152247" d="M25.727,300.118c13.323,2.793,45.026,7.822,48.1,8.436,5.748,1.148,18.067,3.253,18.107,7.268a4.131,4.131,0,0,1-2.27,3.436A4.172,4.172,0,0,1,90.5,323.8a4.379,4.379,0,0,1-3.161,2.365,3.5,3.5,0,0,1,1.346,3.294,3.677,3.677,0,0,1-4.044,2.735,4.1,4.1,0,0,1,.045,2.969,4.315,4.315,0,0,1-4,2.549c-5.108-1.016-13.33-1.3-23.143-2.237-23.047-2.2-33.232-4.15-44.172-7.226A18.342,18.342,0,0,1,.246,313.26c8.553-4.434,16.928-8.708,25.481-13.142" transform="translate(-0.175 -202.813)" fill="#f8b8a4"/>
          <path id="Trazado_152248" data-name="Trazado 152248" d="M113.9,302.9a.287.287,0,0,1-.059-.006c-2.72-.558-8.745-1.74-14.571-2.883s-11.853-2.326-14.576-2.884a.29.29,0,1,1,.117-.568c2.72.558,8.745,1.74,14.571,2.883s11.853,2.326,14.576,2.885a.29.29,0,0,1-.058.574" transform="translate(-59.911 -202.097)" fill="#363e44"/>
          <path id="Trazado_152249" data-name="Trazado 152249" d="M285.791,348.393a.3.3,0,0,1-.076-.01.29.29,0,0,1-.205-.356l.67-2.486a.291.291,0,0,1,.562.151l-.671,2.486a.29.29,0,0,1-.28.215" transform="translate(-202.503 -235.506)" fill="#363e44"/>
          <path id="Trazado_152250" data-name="Trazado 152250" d="M279.969,370.144a.29.29,0,0,1-.281-.366l.67-2.486a.291.291,0,0,1,.562.151l-.671,2.486a.291.291,0,0,1-.281.215" transform="translate(-198.373 -250.34)" fill="#363e44"/>
          <path id="Trazado_152251" data-name="Trazado 152251" d="M274.284,392.357a.294.294,0,0,1-.076-.01.29.29,0,0,1-.205-.356l.67-2.486a.291.291,0,0,1,.562.151l-.671,2.487a.291.291,0,0,1-.281.215" transform="translate(-194.341 -265.489)" fill="#363e44"/>
          <path id="Trazado_152252" data-name="Trazado 152252" d="M268.714,412.4a.29.29,0,0,1-.281-.366l.67-2.486a.291.291,0,0,1,.562.151l-.671,2.486a.291.291,0,0,1-.281.215" transform="translate(-190.39 -279.156)" fill="#363e44"/>
          <path id="Trazado_152253" data-name="Trazado 152253" d="M370.158,13.388A13.413,13.413,0,1,1,356.745,0a13.4,13.4,0,0,1,13.413,13.388" transform="translate(-243.522)" fill="#363e44"/>
          <path id="Trazado_152254" data-name="Trazado 152254" d="M393.058,80.006c10.958.931,15.244,5.069,17.045,8.288,3.5,6.253,1.481,10.554,4.807,18.758a30.237,30.237,0,0,0,11.363,13.378,33.186,33.186,0,0,1-26.513,9.161,88.5,88.5,0,0,0-6.7-49.585" transform="translate(-278.793 -56.79)" fill="#363e44"/>
          <path id="Trazado_152255" data-name="Trazado 152255" d="M354.419,89.554c.736-.071,7.792-.648,12.043,4.168,3.163,3.584,3.543,8.184,3.011,16-.626,9.2-2.288,14.61-4.941,16.426-4.192,2.869-16.752-3.547-21.475-11.579a18.492,18.492,0,0,1,.583-19c3.593-5.72,10.31-5.965,10.78-6.01" transform="translate(-241.659 -63.527)" fill="#f8b8a4"/>
          <path id="Trazado_152256" data-name="Trazado 152256" d="M368.171,207.258h0A6.765,6.765,0,0,1,361.4,200.5v-6.373a6.772,6.772,0,0,1,13.544,0V200.5a6.765,6.765,0,0,1-6.772,6.759" transform="translate(-256.337 -127.272)" fill="#f8b8a4"/>
          <path id="Trazado_152257" data-name="Trazado 152257" d="M367.152,188.765a11.558,11.558,0,0,1-2.5-.306c-5.473-1.224-13.231-6.054-16.738-12.019a.29.29,0,0,1,.5-.293c3.427,5.828,11.012,10.549,16.364,11.746,2.136.478,3.79.373,4.781-.3a.291.291,0,1,1,.328.48,4.823,4.823,0,0,1-2.738.7" transform="translate(-246.745 -119.766)" fill="#363e44"/>
          <path id="Trazado_152258" data-name="Trazado 152258" d="M367.923,86.44c2.826,6.359-7.138,12.958-15.9,10.471-5.127-1.454-9.914-6.765-8.862-9.993,1.81-5.554,21.864-7.009,24.766-.478" transform="translate(-243.294 -58.29)" fill="#363e44"/>
          <path id="Trazado_152259" data-name="Trazado 152259" d="M445.612,129.835a12.18,12.18,0,0,1-2.781,4.564c-.426.424-3.032-3.795-2.433-4.006a12.257,12.257,0,0,1,5.214-.558" transform="translate(-312.307 -88.465)" fill="#fff"/>
          <path id="Trazado_152260" data-name="Trazado 152260" d="M419.949,138.527a11.5,11.5,0,0,0,6.991-1.415,8.588,8.588,0,0,0,1.448-1.17,4.789,4.789,0,0,0-2.431-4,8.654,8.654,0,0,0-1.777.857,11.458,11.458,0,0,0-4.231,5.733" transform="translate(-297.866 -89.908)" fill="#363e44"/>
          <path id="Trazado_152261" data-name="Trazado 152261" d="M268.1,74.557A30.483,30.483,0,1,1,237.618,44.13,30.455,30.455,0,0,1,268.1,74.557" transform="translate(-146.919 -31.325)" fill="#e2a18d"/>
          <path id="Trazado_152262" data-name="Trazado 152262" d="M236.909,104.564a30.717,30.717,0,1,1,30.774-30.717,30.68,30.68,0,0,1-30.774,30.717m0-60.854a30.2,30.2,0,0,0-30.193,30.137,30.166,30.166,0,0,0,30.193,30.137,30.137,30.137,0,1,0,0-60.274" transform="translate(-146.21 -30.615)" fill="#fff"/>
          <path id="Trazado_152263" data-name="Trazado 152263" d="M272.411,223.007A25.633,25.633,0,0,1,256.3,217.39a.29.29,0,1,1,.362-.454,25.361,25.361,0,0,0,26.93,2.9.29.29,0,1,1,.257.52,25.657,25.657,0,0,1-11.436,2.653" transform="translate(-181.712 -147.804)" fill="#fff"/>
          <path id="Trazado_152264" data-name="Trazado 152264" d="M378.586,96.171a.29.29,0,0,1-.28-.214,25.215,25.215,0,0,0-7.145-11.8.29.29,0,1,1,.4-.424A25.792,25.792,0,0,1,378.867,95.8a.29.29,0,0,1-.281.366" transform="translate(-263.196 -59.379)" fill="#fff"/>
          <path id="Trazado_152265" data-name="Trazado 152265" d="M298.642,64.522a.292.292,0,0,1-.156-.045A25.381,25.381,0,0,0,274.244,62.9a.29.29,0,1,1-.246-.526,25.962,25.962,0,0,1,24.8,1.613.29.29,0,0,1-.156.535" transform="translate(-194.225 -42.565)" fill="#fff"/>
          <path id="Trazado_152266" data-name="Trazado 152266" d="M234.1,187.293a.291.291,0,0,1-.208-.088,26,26,0,0,1-5.851-9.374.291.291,0,0,1,.548-.194A25.421,25.421,0,0,0,234.3,186.8a.29.29,0,0,1-.208.492" transform="translate(-161.733 -120.83)" fill="#fff"/>
          <path id="Trazado_152267" data-name="Trazado 152267" d="M349,137.4a47.587,47.587,0,0,1-20.211,4.919c-2.35,0,2.084-18.773,4.315-17.71A47.6,47.6,0,0,1,349,137.4" transform="translate(-232.732 -84.66)" fill="#fff"/>
          <path id="Trazado_152268" data-name="Trazado 152268" d="M260.637,116.7a33.759,33.759,0,0,0-7.261-2.528c-13.969-3.08-27.447,4.156-27.447,4.156s9.17,12.23,23.139,15.309a33.578,33.578,0,0,0,7.229.763,18.639,18.639,0,0,0,4.34-17.7" transform="translate(-160.25 -77.01)" fill="#363e44"/>
        </g>
      </g>
      <g id="Grupo_158114" data-name="Grupo 158114" transform="translate(0 66.414)">
        <g id="Grupo_158115" data-name="Grupo 158115" transform="translate(0 0)">
          <path id="Trazado_152982" data-name="Trazado 152982" d="M240.627,99.911H215.215a6.036,6.036,0,0,1-6.036-6.036V67.869h37.484V93.874a6.036,6.036,0,0,1-6.036,6.036" transform="translate(-139.369 -45.668)" fill="#dee4f0"/>
          <path id="Trazado_152983" data-name="Trazado 152983" d="M168.761,223.736H12c-5.265,0-9.726-5.714-10.456-13.394C.65,200.988,5.583,192.636,12,192.636H168.761c6.413,0,11.345,8.352,10.456,17.706-.73,7.68-5.191,13.394-10.456,13.394" transform="translate(-1.436 -128.508)" fill="#12263f"/>
          <path id="Trazado_152985" data-name="Trazado 152985" d="M65.84,230.241a3.662,3.662,0,1,1-3.662-3.661,3.662,3.662,0,0,1,3.662,3.661" transform="translate(-39.335 -151.046)" fill="#fff"/>
          <path id="Trazado_152986" data-name="Trazado 152986" d="M108.008,230.241a3.662,3.662,0,1,1-3.661-3.661,3.662,3.662,0,0,1,3.661,3.661" transform="translate(-67.333 -151.046)" fill="#fff"/>
          <path id="Trazado_152987" data-name="Trazado 152987" d="M150.176,230.241a3.662,3.662,0,1,1-3.661-3.661,3.662,3.662,0,0,1,3.661,3.661" transform="translate(-95.331 -151.046)" fill="#fff"/>
          <path id="Trazado_152988" data-name="Trazado 152988" d="M192.344,230.241a3.662,3.662,0,1,1-3.662-3.661,3.662,3.662,0,0,1,3.662,3.661" transform="translate(-123.329 -151.046)" fill="#fff"/>
          <path id="Trazado_152989" data-name="Trazado 152989" d="M234.512,230.241a3.662,3.662,0,1,1-3.661-3.661,3.662,3.662,0,0,1,3.661,3.661" transform="translate(-151.327 -151.046)" fill="#fff"/>
          <path id="Trazado_152990" data-name="Trazado 152990" d="M276.68,230.241a3.662,3.662,0,1,1-3.662-3.661,3.662,3.662,0,0,1,3.662,3.661" transform="translate(-179.325 -151.046)" fill="#fff"/>
          <path id="Trazado_152991" data-name="Trazado 152991" d="M318.848,230.241a3.662,3.662,0,1,1-3.661-3.661,3.662,3.662,0,0,1,3.661,3.661" transform="translate(-207.323 -151.046)" fill="#fff"/>
          <path id="Trazado_152992" data-name="Trazado 152992" d="M361.016,230.241a3.662,3.662,0,1,1-3.662-3.661,3.662,3.662,0,0,1,3.662,3.661" transform="translate(-235.32 -151.046)" fill="#fff"/>
          <path id="Trazado_152993" data-name="Trazado 152993" d="M403.184,230.241a3.662,3.662,0,1,1-3.661-3.661,3.661,3.661,0,0,1,3.661,3.661" transform="translate(-263.318 -151.046)" fill="#fff"/>
          <path id="Trazado_152994" data-name="Trazado 152994" d="M445.352,230.241a3.662,3.662,0,1,1-3.661-3.661,3.662,3.662,0,0,1,3.661,3.661" transform="translate(-291.316 -151.046)" fill="#fff"/>
          <path id="Trazado_152995" data-name="Trazado 152995" d="M239.259,99.911H216.583a7.4,7.4,0,0,1-7.4-7.4V67.869h37.484V92.506A7.4,7.4,0,0,1,239.259,99.911Z" transform="translate(-139.369 -45.668)" fill="none" stroke="#231f20" stroke-linecap="round" stroke-linejoin="round" stroke-width="1"/>
          <path id="Trazado_152996" data-name="Trazado 152996" d="M246.663,12.029A10.226,10.226,0,0,0,236.437,1.8H219.405a10.226,10.226,0,0,0-10.226,10.226V24" transform="translate(-139.369 -1.803)" fill="none" stroke="#231f20" stroke-linecap="round" stroke-linejoin="round" stroke-width="1"/>
          <path id="Trazado_152997" data-name="Trazado 152997" d="M261.127,97.74a3.919,3.919,0,1,0-6.55,2.9v7.778h5.263v-7.778a3.909,3.909,0,0,0,1.287-2.9" transform="translate(-168.657 -62.899)" fill="#31313c"/>
        </g>
      </g>
    </g>
  </g>
</svg>
